<?xml version="1.0" encoding="utf-8" standalone="no"?>
<!DOCTYPE svg PUBLIC "-//W3C//DTD SVG 1.1//EN"
  "http://www.w3.org/Graphics/SVG/1.1/DTD/svg11.dtd">
<svg xmlns:xlink="http://www.w3.org/1999/xlink" width="425pt" height="172.518281pt" viewBox="0 0 425 172.518281" xmlns="http://www.w3.org/2000/svg" version="1.1">
 <metadata>
  <rdf:RDF xmlns:dc="http://purl.org/dc/elements/1.1/" xmlns:cc="http://creativecommons.org/ns#" xmlns:rdf="http://www.w3.org/1999/02/22-rdf-syntax-ns#">
   <cc:Work>
    <dc:type rdf:resource="http://purl.org/dc/dcmitype/StillImage"/>
    <dc:date>2026-06-26T01:11:35.753737</dc:date>
    <dc:format>image/svg+xml</dc:format>
    <dc:creator>
     <cc:Agent>
      <dc:title>Matplotlib v3.11.0, https://matplotlib.org/</dc:title>
     </cc:Agent>
    </dc:creator>
   </cc:Work>
  </rdf:RDF>
 </metadata>
 <defs>
  <style type="text/css">*{stroke-linejoin: round; stroke-linecap: butt}</style>
 </defs>
 <g id="figure_1">
  <g id="patch_1">
   <path d="M 0 172.518281 
L 425 172.518281 
L 425 0 
L 0 0 
z
" style="fill: #0d1117"/>
  </g>
  <g id="axes_1">
   <g id="patch_2">
    <path d="M 34.56 150.318281 
L 417.8 150.318281 
L 417.8 21.558281 
L 34.56 21.558281 
z
" style="fill: #0d1117"/>
   </g>
   <g id="FillBetweenPolyCollection_1">
    <defs>
     <path id="m7abfff2d9e" d="M 51.98 -28.052727 
L 51.98 -142.761918 
L 55.984598 -145.107273 
L 59.989195 -139.672978 
L 63.993793 -131.717427 
L 67.998391 -136.608025 
L 72.002989 -132.719533 
L 76.007586 -117.847849 
L 80.012184 -122.351997 
L 84.016782 -137.149056 
L 88.021379 -130.315544 
L 92.025977 -129.004277 
L 96.030575 -131.680114 
L 100.035172 -136.437454 
L 104.03977 -115.350579 
L 108.044368 -142.028994 
L 112.048966 -132.293105 
L 116.053563 -138.670872 
L 120.058161 -134.731741 
L 124.062759 -134.87033 
L 128.067356 -136.514744 
L 132.071954 -136.554722 
L 136.076552 -133.593711 
L 140.081149 -139.321175 
L 144.085747 -135.067553 
L 148.090345 -134.785045 
L 152.094943 -134.587822 
L 156.09954 -137.463547 
L 160.104138 -133.034024 
L 164.108736 -137.367601 
L 168.113333 -136.474767 
L 172.117931 -135.126187 
L 176.122529 -135.62191 
L 180.127126 -95.447042 
L 184.131724 -96.598398 
L 188.136322 -98.551972 
L 192.14092 -99.639364 
L 196.145517 -124.156321 
L 200.150115 -117.949126 
L 204.154713 -93.341552 
L 208.15931 -98.783843 
L 212.163908 -93.621396 
L 216.168506 -97.016831 
L 220.173103 -95.105899 
L 224.177701 -95.606952 
L 228.182299 -98.112218 
L 232.186897 -96.55309 
L 236.191494 -98.938423 
L 240.196092 -98.096227 
L 244.20069 -98.304111 
L 248.205287 -99.239588 
L 252.209885 -98.562633 
L 256.214483 -96.214613 
L 260.21908 -97.749754 
L 264.223678 -97.629821 
L 268.228276 -95.217837 
L 272.232874 -98.671905 
L 276.237471 -96.390514 
L 280.242069 -97.76841 
L 284.246667 -126.448373 
L 288.251264 -122.01885 
L 292.255862 -92.39275 
L 296.26046 -106.254332 
L 300.265057 -123.159545 
L 304.269655 -100.582837 
L 308.274253 -93.344218 
L 312.278851 -98.567963 
L 316.283448 -93.938552 
L 320.288046 -97.405946 
L 324.292644 -96.275912 
L 328.297241 -101.163845 
L 332.301839 -112.64276 
L 336.306437 -94.015842 
L 340.311034 -100.252355 
L 344.315632 -118.386215 
L 348.32023 -138.569595 
L 352.324828 -125.933994 
L 356.329425 -129.457357 
L 360.334023 -136.290869 
L 364.338621 -134.987598 
L 368.343218 -137.468877 
L 372.347816 -133.079332 
L 376.352414 -130.771289 
L 380.357011 -116.541913 
L 384.361609 -94.5089 
L 388.366207 -97.813718 
L 392.370805 -97.405946 
L 396.375402 -97.08346 
L 400.38 -96.697009 
L 400.38 -28.052727 
L 400.38 -28.052727 
L 396.375402 -28.052727 
L 392.370805 -28.052727 
L 388.366207 -28.052727 
L 384.361609 -28.052727 
L 380.357011 -28.052727 
L 376.352414 -28.052727 
L 372.347816 -28.052727 
L 368.343218 -28.052727 
L 364.338621 -28.052727 
L 360.334023 -28.052727 
L 356.329425 -28.052727 
L 352.324828 -28.052727 
L 348.32023 -28.052727 
L 344.315632 -28.052727 
L 340.311034 -28.052727 
L 336.306437 -28.052727 
L 332.301839 -28.052727 
L 328.297241 -28.052727 
L 324.292644 -28.052727 
L 320.288046 -28.052727 
L 316.283448 -28.052727 
L 312.278851 -28.052727 
L 308.274253 -28.052727 
L 304.269655 -28.052727 
L 300.265057 -28.052727 
L 296.26046 -28.052727 
L 292.255862 -28.052727 
L 288.251264 -28.052727 
L 284.246667 -28.052727 
L 280.242069 -28.052727 
L 276.237471 -28.052727 
L 272.232874 -28.052727 
L 268.228276 -28.052727 
L 264.223678 -28.052727 
L 260.21908 -28.052727 
L 256.214483 -28.052727 
L 252.209885 -28.052727 
L 248.205287 -28.052727 
L 244.20069 -28.052727 
L 240.196092 -28.052727 
L 236.191494 -28.052727 
L 232.186897 -28.052727 
L 228.182299 -28.052727 
L 224.177701 -28.052727 
L 220.173103 -28.052727 
L 216.168506 -28.052727 
L 212.163908 -28.052727 
L 208.15931 -28.052727 
L 204.154713 -28.052727 
L 200.150115 -28.052727 
L 196.145517 -28.052727 
L 192.14092 -28.052727 
L 188.136322 -28.052727 
L 184.131724 -28.052727 
L 180.127126 -28.052727 
L 176.122529 -28.052727 
L 172.117931 -28.052727 
L 168.113333 -28.052727 
L 164.108736 -28.052727 
L 160.104138 -28.052727 
L 156.09954 -28.052727 
L 152.094943 -28.052727 
L 148.090345 -28.052727 
L 144.085747 -28.052727 
L 140.081149 -28.052727 
L 136.076552 -28.052727 
L 132.071954 -28.052727 
L 128.067356 -28.052727 
L 124.062759 -28.052727 
L 120.058161 -28.052727 
L 116.053563 -28.052727 
L 112.048966 -28.052727 
L 108.044368 -28.052727 
L 104.03977 -28.052727 
L 100.035172 -28.052727 
L 96.030575 -28.052727 
L 92.025977 -28.052727 
L 88.021379 -28.052727 
L 84.016782 -28.052727 
L 80.012184 -28.052727 
L 76.007586 -28.052727 
L 72.002989 -28.052727 
L 67.998391 -28.052727 
L 63.993793 -28.052727 
L 59.989195 -28.052727 
L 55.984598 -28.052727 
L 51.98 -28.052727 
z
" style="stroke: #f85149; stroke-opacity: 0.15"/>
    </defs>
    <g clip-path="url(#p91be1299d0)">
     <use xlink:href="#m7abfff2d9e" x="0" y="172.518281" style="fill: #f85149; fill-opacity: 0.15; stroke: #f85149; stroke-opacity: 0.15"/>
    </g>
   </g>
   <g id="matplotlib.axis_1">
    <g id="xtick_1">
     <g id="line2d_1">
      <path d="M 51.98 150.318281 
L 51.98 21.558281 
" clip-path="url(#p91be1299d0)" style="fill: none; stroke: #21262d; stroke-opacity: 0.5; stroke-width: 0.5; stroke-linecap: square"/>
     </g>
     <g id="line2d_2">
      <defs>
       <path id="m2c84b0344a" d="M 0 0 
L 0 3.5 
" style="stroke: #c9d1d9; stroke-width: 0.8"/>
      </defs>
      <g>
       <use xlink:href="#m2c84b0344a" x="51.98" y="150.318281" style="fill: #c9d1d9; stroke: #c9d1d9; stroke-width: 0.8"/>
      </g>
     </g>
     <g id="text_1">
      <!-- 0 -->
      <g style="fill: #c9d1d9" transform="translate(49.435 163.396406) scale(0.08 -0.08)">
       <defs>
        <path id="DejaVuSans-13" d="M 2034 4250 
Q 1547 4250 1301 3770 
Q 1056 3291 1056 2328 
Q 1056 1369 1301 889 
Q 1547 409 2034 409 
Q 2525 409 2770 889 
Q 3016 1369 3016 2328 
Q 3016 3291 2770 3770 
Q 2525 4250 2034 4250 
z
M 2034 4750 
Q 2819 4750 3233 4129 
Q 3647 3509 3647 2328 
Q 3647 1150 3233 529 
Q 2819 -91 2034 -91 
Q 1250 -91 836 529 
Q 422 1150 422 2328 
Q 422 3509 836 4129 
Q 1250 4750 2034 4750 
z
" transform="scale(0.015625)"/>
       </defs>
       <use xlink:href="#DejaVuSans-13"/>
      </g>
     </g>
    </g>
    <g id="xtick_2">
     <g id="line2d_3">
      <path d="M 132.071954 150.318281 
L 132.071954 21.558281 
" clip-path="url(#p91be1299d0)" style="fill: none; stroke: #21262d; stroke-opacity: 0.5; stroke-width: 0.5; stroke-linecap: square"/>
     </g>
     <g id="line2d_4">
      <g>
       <use xlink:href="#m2c84b0344a" x="132.071954" y="150.318281" style="fill: #c9d1d9; stroke: #c9d1d9; stroke-width: 0.8"/>
      </g>
     </g>
     <g id="text_2">
      <!-- 20 -->
      <g style="fill: #c9d1d9" transform="translate(126.981954 163.396406) scale(0.08 -0.08)">
       <defs>
        <path id="DejaVuSans-15" d="M 1228 531 
L 3431 531 
L 3431 0 
L 469 0 
L 469 531 
Q 828 903 1448 1529 
Q 2069 2156 2228 2338 
Q 2531 2678 2651 2914 
Q 2772 3150 2772 3378 
Q 2772 3750 2511 3984 
Q 2250 4219 1831 4219 
Q 1534 4219 1204 4116 
Q 875 4013 500 3803 
L 500 4441 
Q 881 4594 1212 4672 
Q 1544 4750 1819 4750 
Q 2544 4750 2975 4387 
Q 3406 4025 3406 3419 
Q 3406 3131 3298 2873 
Q 3191 2616 2906 2266 
Q 2828 2175 2409 1742 
Q 1991 1309 1228 531 
z
" transform="scale(0.015625)"/>
       </defs>
       <use xlink:href="#DejaVuSans-15"/>
       <use xlink:href="#DejaVuSans-13" transform="translate(63.625 0)"/>
      </g>
     </g>
    </g>
    <g id="xtick_3">
     <g id="line2d_5">
      <path d="M 212.163908 150.318281 
L 212.163908 21.558281 
" clip-path="url(#p91be1299d0)" style="fill: none; stroke: #21262d; stroke-opacity: 0.5; stroke-width: 0.5; stroke-linecap: square"/>
     </g>
     <g id="line2d_6">
      <g>
       <use xlink:href="#m2c84b0344a" x="212.163908" y="150.318281" style="fill: #c9d1d9; stroke: #c9d1d9; stroke-width: 0.8"/>
      </g>
     </g>
     <g id="text_3">
      <!-- 40 -->
      <g style="fill: #c9d1d9" transform="translate(207.073908 163.396406) scale(0.08 -0.08)">
       <defs>
        <path id="DejaVuSans-17" d="M 2419 4116 
L 825 1625 
L 2419 1625 
L 2419 4116 
z
M 2253 4666 
L 3047 4666 
L 3047 1625 
L 3713 1625 
L 3713 1100 
L 3047 1100 
L 3047 0 
L 2419 0 
L 2419 1100 
L 313 1100 
L 313 1709 
L 2253 4666 
z
" transform="scale(0.015625)"/>
       </defs>
       <use xlink:href="#DejaVuSans-17"/>
       <use xlink:href="#DejaVuSans-13" transform="translate(63.625 0)"/>
      </g>
     </g>
    </g>
    <g id="xtick_4">
     <g id="line2d_7">
      <path d="M 292.255862 150.318281 
L 292.255862 21.558281 
" clip-path="url(#p91be1299d0)" style="fill: none; stroke: #21262d; stroke-opacity: 0.5; stroke-width: 0.5; stroke-linecap: square"/>
     </g>
     <g id="line2d_8">
      <g>
       <use xlink:href="#m2c84b0344a" x="292.255862" y="150.318281" style="fill: #c9d1d9; stroke: #c9d1d9; stroke-width: 0.8"/>
      </g>
     </g>
     <g id="text_4">
      <!-- 60 -->
      <g style="fill: #c9d1d9" transform="translate(287.165862 163.396406) scale(0.08 -0.08)">
       <defs>
        <path id="DejaVuSans-19" d="M 2113 2584 
Q 1688 2584 1439 2293 
Q 1191 2003 1191 1497 
Q 1191 994 1439 701 
Q 1688 409 2113 409 
Q 2538 409 2786 701 
Q 3034 994 3034 1497 
Q 3034 2003 2786 2293 
Q 2538 2584 2113 2584 
z
M 3366 4563 
L 3366 3988 
Q 3128 4100 2886 4159 
Q 2644 4219 2406 4219 
Q 1781 4219 1451 3797 
Q 1122 3375 1075 2522 
Q 1259 2794 1537 2939 
Q 1816 3084 2150 3084 
Q 2853 3084 3261 2657 
Q 3669 2231 3669 1497 
Q 3669 778 3244 343 
Q 2819 -91 2113 -91 
Q 1303 -91 875 529 
Q 447 1150 447 2328 
Q 447 3434 972 4092 
Q 1497 4750 2381 4750 
Q 2619 4750 2861 4703 
Q 3103 4656 3366 4563 
z
" transform="scale(0.015625)"/>
       </defs>
       <use xlink:href="#DejaVuSans-19"/>
       <use xlink:href="#DejaVuSans-13" transform="translate(63.625 0)"/>
      </g>
     </g>
    </g>
    <g id="xtick_5">
     <g id="line2d_9">
      <path d="M 372.347816 150.318281 
L 372.347816 21.558281 
" clip-path="url(#p91be1299d0)" style="fill: none; stroke: #21262d; stroke-opacity: 0.5; stroke-width: 0.5; stroke-linecap: square"/>
     </g>
     <g id="line2d_10">
      <g>
       <use xlink:href="#m2c84b0344a" x="372.347816" y="150.318281" style="fill: #c9d1d9; stroke: #c9d1d9; stroke-width: 0.8"/>
      </g>
     </g>
     <g id="text_5">
      <!-- 80 -->
      <g style="fill: #c9d1d9" transform="translate(367.257816 163.396406) scale(0.08 -0.08)">
       <defs>
        <path id="DejaVuSans-1b" d="M 2034 2216 
Q 1584 2216 1326 1975 
Q 1069 1734 1069 1313 
Q 1069 891 1326 650 
Q 1584 409 2034 409 
Q 2484 409 2743 651 
Q 3003 894 3003 1313 
Q 3003 1734 2745 1975 
Q 2488 2216 2034 2216 
z
M 1403 2484 
Q 997 2584 770 2862 
Q 544 3141 544 3541 
Q 544 4100 942 4425 
Q 1341 4750 2034 4750 
Q 2731 4750 3128 4425 
Q 3525 4100 3525 3541 
Q 3525 3141 3298 2862 
Q 3072 2584 2669 2484 
Q 3125 2378 3379 2068 
Q 3634 1759 3634 1313 
Q 3634 634 3220 271 
Q 2806 -91 2034 -91 
Q 1263 -91 848 271 
Q 434 634 434 1313 
Q 434 1759 690 2068 
Q 947 2378 1403 2484 
z
M 1172 3481 
Q 1172 3119 1398 2916 
Q 1625 2713 2034 2713 
Q 2441 2713 2670 2916 
Q 2900 3119 2900 3481 
Q 2900 3844 2670 4047 
Q 2441 4250 2034 4250 
Q 1625 4250 1398 4047 
Q 1172 3844 1172 3481 
z
" transform="scale(0.015625)"/>
       </defs>
       <use xlink:href="#DejaVuSans-1b"/>
       <use xlink:href="#DejaVuSans-13" transform="translate(63.625 0)"/>
      </g>
     </g>
    </g>
   </g>
   <g id="matplotlib.axis_2">
    <g id="ytick_1">
     <g id="line2d_11">
      <path d="M 34.56 144.465554 
L 417.8 144.465554 
" clip-path="url(#p91be1299d0)" style="fill: none; stroke: #21262d; stroke-opacity: 0.5; stroke-width: 0.5; stroke-linecap: square"/>
     </g>
     <g id="line2d_12">
      <defs>
       <path id="m00e937864f" d="M 0 0 
L -3.5 0 
" style="stroke: #c9d1d9; stroke-width: 0.8"/>
      </defs>
      <g>
       <use xlink:href="#m00e937864f" x="34.56" y="144.465554" style="fill: #c9d1d9; stroke: #c9d1d9; stroke-width: 0.8"/>
      </g>
     </g>
     <g id="text_6">
      <!-- $0 -->
      <g style="fill: #c9d1d9" transform="translate(17.38 147.504929) scale(0.08 -0.08)">
       <defs>
        <path id="DejaVuSans-7" d="M 2163 -941 
L 1850 -941 
L 1847 0 
Q 1519 6 1191 76 
Q 863 147 531 288 
L 531 850 
Q 850 650 1176 548 
Q 1503 447 1850 444 
L 1850 1869 
Q 1159 1981 845 2250 
Q 531 2519 531 2988 
Q 531 3497 872 3790 
Q 1213 4084 1850 4128 
L 1850 4863 
L 2163 4863 
L 2163 4138 
Q 2453 4125 2725 4076 
Q 2997 4028 3256 3944 
L 3256 3397 
Q 2997 3528 2723 3600 
Q 2450 3672 2163 3684 
L 2163 2350 
Q 2872 2241 3206 1959 
Q 3541 1678 3541 1191 
Q 3541 663 3186 358 
Q 2831 53 2163 6 
L 2163 -941 
z
M 1850 2406 
L 1850 3688 
Q 1488 3647 1297 3481 
Q 1106 3316 1106 3041 
Q 1106 2772 1282 2622 
Q 1459 2472 1850 2406 
z
M 2163 1806 
L 2163 453 
Q 2559 506 2761 678 
Q 2963 850 2963 1131 
Q 2963 1406 2770 1568 
Q 2578 1731 2163 1806 
z
" transform="scale(0.015625)"/>
       </defs>
       <use xlink:href="#DejaVuSans-7"/>
       <use xlink:href="#DejaVuSans-13" transform="translate(63.625 0)"/>
      </g>
     </g>
    </g>
    <g id="ytick_2">
     <g id="line2d_13">
      <path d="M 34.56 117.81379 
L 417.8 117.81379 
" clip-path="url(#p91be1299d0)" style="fill: none; stroke: #21262d; stroke-opacity: 0.5; stroke-width: 0.5; stroke-linecap: square"/>
     </g>
     <g id="line2d_14">
      <g>
       <use xlink:href="#m00e937864f" x="34.56" y="117.81379" style="fill: #c9d1d9; stroke: #c9d1d9; stroke-width: 0.8"/>
      </g>
     </g>
     <g id="text_7">
      <!-- $100 -->
      <g style="fill: #c9d1d9" transform="translate(7.2 120.853165) scale(0.08 -0.08)">
       <defs>
        <path id="DejaVuSans-14" d="M 794 531 
L 1825 531 
L 1825 4091 
L 703 3866 
L 703 4441 
L 1819 4666 
L 2450 4666 
L 2450 531 
L 3481 531 
L 3481 0 
L 794 0 
L 794 531 
z
" transform="scale(0.015625)"/>
       </defs>
       <use xlink:href="#DejaVuSans-7"/>
       <use xlink:href="#DejaVuSans-14" transform="translate(63.625 0)"/>
       <use xlink:href="#DejaVuSans-13" transform="translate(127.25 0)"/>
       <use xlink:href="#DejaVuSans-13" transform="translate(190.875 0)"/>
      </g>
     </g>
    </g>
    <g id="ytick_3">
     <g id="line2d_15">
      <path d="M 34.56 91.162027 
L 417.8 91.162027 
" clip-path="url(#p91be1299d0)" style="fill: none; stroke: #21262d; stroke-opacity: 0.5; stroke-width: 0.5; stroke-linecap: square"/>
     </g>
     <g id="line2d_16">
      <g>
       <use xlink:href="#m00e937864f" x="34.56" y="91.162027" style="fill: #c9d1d9; stroke: #c9d1d9; stroke-width: 0.8"/>
      </g>
     </g>
     <g id="text_8">
      <!-- $200 -->
      <g style="fill: #c9d1d9" transform="translate(7.2 94.201402) scale(0.08 -0.08)">
       <use xlink:href="#DejaVuSans-7"/>
       <use xlink:href="#DejaVuSans-15" transform="translate(63.625 0)"/>
       <use xlink:href="#DejaVuSans-13" transform="translate(127.25 0)"/>
       <use xlink:href="#DejaVuSans-13" transform="translate(190.875 0)"/>
      </g>
     </g>
    </g>
    <g id="ytick_4">
     <g id="line2d_17">
      <path d="M 34.56 64.510263 
L 417.8 64.510263 
" clip-path="url(#p91be1299d0)" style="fill: none; stroke: #21262d; stroke-opacity: 0.5; stroke-width: 0.5; stroke-linecap: square"/>
     </g>
     <g id="line2d_18">
      <g>
       <use xlink:href="#m00e937864f" x="34.56" y="64.510263" style="fill: #c9d1d9; stroke: #c9d1d9; stroke-width: 0.8"/>
      </g>
     </g>
     <g id="text_9">
      <!-- $300 -->
      <g style="fill: #c9d1d9" transform="translate(7.2 67.549638) scale(0.08 -0.08)">
       <defs>
        <path id="DejaVuSans-16" d="M 2597 2516 
Q 3050 2419 3304 2112 
Q 3559 1806 3559 1356 
Q 3559 666 3084 287 
Q 2609 -91 1734 -91 
Q 1441 -91 1130 -33 
Q 819 25 488 141 
L 488 750 
Q 750 597 1062 519 
Q 1375 441 1716 441 
Q 2309 441 2620 675 
Q 2931 909 2931 1356 
Q 2931 1769 2642 2001 
Q 2353 2234 1838 2234 
L 1294 2234 
L 1294 2753 
L 1863 2753 
Q 2328 2753 2575 2939 
Q 2822 3125 2822 3475 
Q 2822 3834 2567 4026 
Q 2313 4219 1838 4219 
Q 1578 4219 1281 4162 
Q 984 4106 628 3988 
L 628 4550 
Q 988 4650 1302 4700 
Q 1616 4750 1894 4750 
Q 2613 4750 3031 4423 
Q 3450 4097 3450 3541 
Q 3450 3153 3228 2886 
Q 3006 2619 2597 2516 
z
" transform="scale(0.015625)"/>
       </defs>
       <use xlink:href="#DejaVuSans-7"/>
       <use xlink:href="#DejaVuSans-16" transform="translate(63.625 0)"/>
       <use xlink:href="#DejaVuSans-13" transform="translate(127.25 0)"/>
       <use xlink:href="#DejaVuSans-13" transform="translate(190.875 0)"/>
      </g>
     </g>
    </g>
    <g id="ytick_5">
     <g id="line2d_19">
      <path d="M 34.56 37.8585 
L 417.8 37.8585 
" clip-path="url(#p91be1299d0)" style="fill: none; stroke: #21262d; stroke-opacity: 0.5; stroke-width: 0.5; stroke-linecap: square"/>
     </g>
     <g id="line2d_20">
      <g>
       <use xlink:href="#m00e937864f" x="34.56" y="37.8585" style="fill: #c9d1d9; stroke: #c9d1d9; stroke-width: 0.8"/>
      </g>
     </g>
     <g id="text_10">
      <!-- $400 -->
      <g style="fill: #c9d1d9" transform="translate(7.2 40.897875) scale(0.08 -0.08)">
       <use xlink:href="#DejaVuSans-7"/>
       <use xlink:href="#DejaVuSans-17" transform="translate(63.625 0)"/>
       <use xlink:href="#DejaVuSans-13" transform="translate(127.25 0)"/>
       <use xlink:href="#DejaVuSans-13" transform="translate(190.875 0)"/>
      </g>
     </g>
    </g>
   </g>
   <g id="line2d_21">
    <path d="M 51.98 29.756364 
L 55.984598 27.411009 
L 59.989195 32.845303 
L 63.993793 40.800855 
L 67.998391 35.910256 
L 72.002989 39.798748 
L 76.007586 54.670432 
L 80.012184 50.166284 
L 84.016782 35.369225 
L 88.021379 42.202737 
L 92.025977 43.514004 
L 96.030575 40.838167 
L 100.035172 36.080827 
L 104.03977 57.167703 
L 108.044368 30.489287 
L 112.048966 40.225176 
L 116.053563 33.847409 
L 120.058161 37.78654 
L 124.062759 37.647951 
L 128.067356 36.003537 
L 132.071954 35.963559 
L 136.076552 38.92457 
L 140.081149 33.197106 
L 144.085747 37.450728 
L 148.090345 37.733237 
L 152.094943 37.93046 
L 156.09954 35.054734 
L 160.104138 39.484257 
L 164.108736 35.150681 
L 168.113333 36.043515 
L 172.117931 37.392094 
L 176.122529 36.896371 
L 180.127126 77.07124 
L 184.131724 75.919883 
L 188.136322 73.966309 
L 192.14092 72.878917 
L 196.145517 48.36196 
L 200.150115 54.569156 
L 204.154713 79.176729 
L 208.15931 73.734439 
L 212.163908 78.896885 
L 216.168506 75.501451 
L 220.173103 77.412382 
L 224.177701 76.911329 
L 228.182299 74.406063 
L 232.186897 75.965191 
L 236.191494 73.579858 
L 240.196092 74.422054 
L 244.20069 74.21417 
L 248.205287 73.278694 
L 252.209885 73.955648 
L 256.214483 76.303669 
L 260.21908 74.768527 
L 264.223678 74.88846 
L 268.228276 77.300445 
L 272.232874 73.846376 
L 276.237471 76.127767 
L 280.242069 74.749871 
L 284.246667 46.069908 
L 288.251264 50.499431 
L 292.255862 80.125532 
L 296.26046 66.263949 
L 300.265057 49.358736 
L 304.269655 71.935445 
L 308.274253 79.174064 
L 312.278851 73.950318 
L 316.283448 78.579729 
L 320.288046 75.112335 
L 324.292644 76.24237 
L 328.297241 71.354436 
L 332.301839 59.875522 
L 336.306437 78.502439 
L 340.311034 72.265927 
L 344.315632 54.132067 
L 348.32023 33.948686 
L 352.324828 46.584287 
L 356.329425 43.060924 
L 360.334023 36.227412 
L 364.338621 37.530683 
L 368.343218 35.049404 
L 372.347816 39.438949 
L 376.352414 41.746992 
L 380.357011 55.976369 
L 384.361609 78.009382 
L 388.366207 74.704563 
L 392.370805 75.112335 
L 396.375402 75.434821 
L 400.38 75.821272 
" clip-path="url(#p91be1299d0)" style="fill: none; stroke: #f85149; stroke-width: 2; stroke-linecap: square"/>
   </g>
   <g id="patch_3">
    <path d="M 34.56 150.318281 
L 34.56 21.558281 
" style="fill: none; stroke: #21262d; stroke-width: 0.8; stroke-linejoin: miter; stroke-linecap: square"/>
   </g>
   <g id="patch_4">
    <path d="M 34.56 150.318281 
L 417.8 150.318281 
" style="fill: none; stroke: #21262d; stroke-width: 0.8; stroke-linejoin: miter; stroke-linecap: square"/>
   </g>
   <g id="text_11">
    <!-- SVELTE (sveltejs/svelte) — $257.56 (-0.56%) -->
    <g style="fill: #c9d1d9" transform="translate(89.639062 15.558281) scale(0.11 -0.11)">
     <defs>
      <path id="DejaVuSans-Bold-36" d="M 3834 4519 
L 3834 3531 
Q 3450 3703 3084 3790 
Q 2719 3878 2394 3878 
Q 1963 3878 1756 3759 
Q 1550 3641 1550 3391 
Q 1550 3203 1689 3098 
Q 1828 2994 2194 2919 
L 2706 2816 
Q 3484 2659 3812 2340 
Q 4141 2022 4141 1434 
Q 4141 663 3683 286 
Q 3225 -91 2284 -91 
Q 1841 -91 1394 -6 
Q 947 78 500 244 
L 500 1259 
Q 947 1022 1364 901 
Q 1781 781 2169 781 
Q 2563 781 2772 912 
Q 2981 1044 2981 1288 
Q 2981 1506 2839 1625 
Q 2697 1744 2272 1838 
L 1806 1941 
Q 1106 2091 782 2419 
Q 459 2747 459 3303 
Q 459 4000 909 4375 
Q 1359 4750 2203 4750 
Q 2588 4750 2994 4692 
Q 3400 4634 3834 4519 
z
" transform="scale(0.015625)"/>
      <path id="DejaVuSans-Bold-39" d="M 31 4666 
L 1241 4666 
L 2478 1222 
L 3713 4666 
L 4922 4666 
L 3194 0 
L 1759 0 
L 31 4666 
z
" transform="scale(0.015625)"/>
      <path id="DejaVuSans-Bold-28" d="M 588 4666 
L 3834 4666 
L 3834 3756 
L 1791 3756 
L 1791 2888 
L 3713 2888 
L 3713 1978 
L 1791 1978 
L 1791 909 
L 3903 909 
L 3903 0 
L 588 0 
L 588 4666 
z
" transform="scale(0.015625)"/>
      <path id="DejaVuSans-Bold-2f" d="M 588 4666 
L 1791 4666 
L 1791 909 
L 3903 909 
L 3903 0 
L 588 0 
L 588 4666 
z
" transform="scale(0.015625)"/>
      <path id="DejaVuSans-Bold-37" d="M 31 4666 
L 4331 4666 
L 4331 3756 
L 2784 3756 
L 2784 0 
L 1581 0 
L 1581 3756 
L 31 3756 
L 31 4666 
z
" transform="scale(0.015625)"/>
      <path id="DejaVuSans-Bold-3" transform="scale(0.015625)"/>
      <path id="DejaVuSans-Bold-b" d="M 2413 -844 
L 1484 -844 
Q 1006 -72 778 623 
Q 550 1319 550 2003 
Q 550 2688 779 3389 
Q 1009 4091 1484 4856 
L 2413 4856 
Q 2013 4116 1813 3408 
Q 1613 2700 1613 2009 
Q 1613 1319 1811 609 
Q 2009 -100 2413 -844 
z
" transform="scale(0.015625)"/>
      <path id="DejaVuSans-Bold-56" d="M 3272 3391 
L 3272 2541 
Q 2913 2691 2578 2766 
Q 2244 2841 1947 2841 
Q 1628 2841 1473 2761 
Q 1319 2681 1319 2516 
Q 1319 2381 1436 2309 
Q 1553 2238 1856 2203 
L 2053 2175 
Q 2913 2066 3209 1816 
Q 3506 1566 3506 1031 
Q 3506 472 3093 190 
Q 2681 -91 1863 -91 
Q 1516 -91 1145 -36 
Q 775 19 384 128 
L 384 978 
Q 719 816 1070 734 
Q 1422 653 1784 653 
Q 2113 653 2278 743 
Q 2444 834 2444 1013 
Q 2444 1163 2330 1236 
Q 2216 1309 1875 1350 
L 1678 1375 
Q 931 1469 631 1722 
Q 331 1975 331 2491 
Q 331 3047 712 3315 
Q 1094 3584 1881 3584 
Q 2191 3584 2531 3537 
Q 2872 3491 3272 3391 
z
" transform="scale(0.015625)"/>
      <path id="DejaVuSans-Bold-59" d="M 97 3500 
L 1216 3500 
L 2088 1081 
L 2956 3500 
L 4078 3500 
L 2700 0 
L 1472 0 
L 97 3500 
z
" transform="scale(0.015625)"/>
      <path id="DejaVuSans-Bold-48" d="M 4031 1759 
L 4031 1441 
L 1416 1441 
Q 1456 1047 1700 850 
Q 1944 653 2381 653 
Q 2734 653 3104 758 
Q 3475 863 3866 1075 
L 3866 213 
Q 3469 63 3072 -14 
Q 2675 -91 2278 -91 
Q 1328 -91 801 392 
Q 275 875 275 1747 
Q 275 2603 792 3093 
Q 1309 3584 2216 3584 
Q 3041 3584 3536 3087 
Q 4031 2591 4031 1759 
z
M 2881 2131 
Q 2881 2450 2695 2645 
Q 2509 2841 2209 2841 
Q 1884 2841 1681 2658 
Q 1478 2475 1428 2131 
L 2881 2131 
z
" transform="scale(0.015625)"/>
      <path id="DejaVuSans-Bold-4f" d="M 538 4863 
L 1656 4863 
L 1656 0 
L 538 0 
L 538 4863 
z
" transform="scale(0.015625)"/>
      <path id="DejaVuSans-Bold-57" d="M 1759 4494 
L 1759 3500 
L 2913 3500 
L 2913 2700 
L 1759 2700 
L 1759 1216 
Q 1759 972 1856 886 
Q 1953 800 2241 800 
L 2816 800 
L 2816 0 
L 1856 0 
Q 1194 0 917 276 
Q 641 553 641 1216 
L 641 2700 
L 84 2700 
L 84 3500 
L 641 3500 
L 641 4494 
L 1759 4494 
z
" transform="scale(0.015625)"/>
      <path id="DejaVuSans-Bold-4d" d="M 538 3500 
L 1656 3500 
L 1656 63 
Q 1656 -641 1318 -1011 
Q 981 -1381 341 -1381 
L -213 -1381 
L -213 -647 
L -19 -647 
Q 300 -647 419 -503 
Q 538 -359 538 63 
L 538 3500 
z
M 538 4863 
L 1656 4863 
L 1656 3950 
L 538 3950 
L 538 4863 
z
" transform="scale(0.015625)"/>
      <path id="DejaVuSans-Bold-12" d="M 1644 4666 
L 2338 4666 
L 691 -594 
L 0 -594 
L 1644 4666 
z
" transform="scale(0.015625)"/>
      <path id="DejaVuSans-Bold-c" d="M 513 -844 
Q 913 -100 1113 609 
Q 1313 1319 1313 2009 
Q 1313 2700 1113 3408 
Q 913 4116 513 4856 
L 1441 4856 
Q 1916 4091 2145 3389 
Q 2375 2688 2375 2003 
Q 2375 1319 2147 623 
Q 1919 -72 1441 -844 
L 513 -844 
z
" transform="scale(0.015625)"/>
      <path id="DejaVuSans-Bold-af6" d="M 344 2156 
L 6056 2156 
L 6056 1350 
L 344 1350 
L 344 2156 
z
" transform="scale(0.015625)"/>
      <path id="DejaVuSans-Bold-7" d="M 2484 -941 
L 1978 -941 
L 1975 0 
Q 1584 16 1218 87 
Q 853 159 506 288 
L 506 1106 
Q 866 922 1233 823 
Q 1600 725 1978 713 
L 1978 1684 
L 1875 1703 
Q 1128 1834 814 2115 
Q 500 2397 500 2925 
Q 500 3484 883 3798 
Q 1266 4113 1975 4141 
L 1978 4863 
L 2484 4863 
L 2484 4153 
Q 2797 4128 3109 4075 
Q 3422 4022 3738 3938 
L 3738 3144 
Q 3425 3275 3112 3348 
Q 2800 3422 2484 3438 
L 2484 2541 
L 2584 2522 
Q 3378 2397 3698 2105 
Q 4019 1813 4019 1241 
Q 4019 666 3637 358 
Q 3256 50 2484 6 
L 2484 -941 
z
M 1978 2613 
L 1978 3428 
Q 1756 3416 1623 3308 
Q 1491 3200 1491 3034 
Q 1491 2850 1612 2745 
Q 1734 2641 1978 2613 
z
M 2484 1594 
L 2484 725 
Q 2756 728 2892 831 
Q 3028 934 3028 1141 
Q 3028 1353 2903 1458 
Q 2778 1563 2484 1594 
z
" transform="scale(0.015625)"/>
      <path id="DejaVuSans-Bold-15" d="M 1844 884 
L 3897 884 
L 3897 0 
L 506 0 
L 506 884 
L 2209 2388 
Q 2438 2594 2547 2791 
Q 2656 2988 2656 3200 
Q 2656 3528 2436 3728 
Q 2216 3928 1850 3928 
Q 1569 3928 1234 3808 
Q 900 3688 519 3450 
L 519 4475 
Q 925 4609 1322 4679 
Q 1719 4750 2100 4750 
Q 2938 4750 3402 4381 
Q 3866 4013 3866 3353 
Q 3866 2972 3669 2642 
Q 3472 2313 2841 1759 
L 1844 884 
z
" transform="scale(0.015625)"/>
      <path id="DejaVuSans-Bold-18" d="M 678 4666 
L 3669 4666 
L 3669 3781 
L 1638 3781 
L 1638 3059 
Q 1775 3097 1914 3117 
Q 2053 3138 2203 3138 
Q 3056 3138 3531 2711 
Q 4006 2284 4006 1522 
Q 4006 766 3489 337 
Q 2972 -91 2053 -91 
Q 1656 -91 1267 -14 
Q 878 63 494 219 
L 494 1166 
Q 875 947 1217 837 
Q 1559 728 1863 728 
Q 2300 728 2551 942 
Q 2803 1156 2803 1522 
Q 2803 1891 2551 2103 
Q 2300 2316 1863 2316 
Q 1603 2316 1309 2248 
Q 1016 2181 678 2041 
L 678 4666 
z
" transform="scale(0.015625)"/>
      <path id="DejaVuSans-Bold-1a" d="M 428 4666 
L 3944 4666 
L 3944 3988 
L 2125 0 
L 953 0 
L 2675 3781 
L 428 3781 
L 428 4666 
z
" transform="scale(0.015625)"/>
      <path id="DejaVuSans-Bold-11" d="M 653 1209 
L 1778 1209 
L 1778 0 
L 653 0 
L 653 1209 
z
" transform="scale(0.015625)"/>
      <path id="DejaVuSans-Bold-19" d="M 2316 2303 
Q 2000 2303 1842 2098 
Q 1684 1894 1684 1484 
Q 1684 1075 1842 870 
Q 2000 666 2316 666 
Q 2634 666 2792 870 
Q 2950 1075 2950 1484 
Q 2950 1894 2792 2098 
Q 2634 2303 2316 2303 
z
M 3803 4544 
L 3803 3681 
Q 3506 3822 3243 3889 
Q 2981 3956 2731 3956 
Q 2194 3956 1894 3657 
Q 1594 3359 1544 2772 
Q 1750 2925 1990 3001 
Q 2231 3078 2516 3078 
Q 3231 3078 3670 2659 
Q 4109 2241 4109 1563 
Q 4109 813 3618 361 
Q 3128 -91 2303 -91 
Q 1394 -91 895 523 
Q 397 1138 397 2266 
Q 397 3422 980 4083 
Q 1563 4744 2578 4744 
Q 2900 4744 3203 4694 
Q 3506 4644 3803 4544 
z
" transform="scale(0.015625)"/>
      <path id="DejaVuSans-Bold-10" d="M 347 2297 
L 2309 2297 
L 2309 1388 
L 347 1388 
L 347 2297 
z
" transform="scale(0.015625)"/>
      <path id="DejaVuSans-Bold-13" d="M 2944 2338 
Q 2944 3213 2780 3570 
Q 2616 3928 2228 3928 
Q 1841 3928 1675 3570 
Q 1509 3213 1509 2338 
Q 1509 1453 1675 1090 
Q 1841 728 2228 728 
Q 2613 728 2778 1090 
Q 2944 1453 2944 2338 
z
M 4147 2328 
Q 4147 1169 3647 539 
Q 3147 -91 2228 -91 
Q 1306 -91 806 539 
Q 306 1169 306 2328 
Q 306 3491 806 4120 
Q 1306 4750 2228 4750 
Q 3147 4750 3647 4120 
Q 4147 3491 4147 2328 
z
" transform="scale(0.015625)"/>
      <path id="DejaVuSans-Bold-8" d="M 4959 1925 
Q 4738 1925 4616 1733 
Q 4494 1541 4494 1184 
Q 4494 825 4614 633 
Q 4734 441 4959 441 
Q 5184 441 5303 633 
Q 5422 825 5422 1184 
Q 5422 1541 5301 1733 
Q 5181 1925 4959 1925 
z
M 4959 2450 
Q 5541 2450 5875 2112 
Q 6209 1775 6209 1184 
Q 6209 594 5875 251 
Q 5541 -91 4959 -91 
Q 4378 -91 4042 251 
Q 3706 594 3706 1184 
Q 3706 1772 4042 2111 
Q 4378 2450 4959 2450 
z
M 2094 -91 
L 1403 -91 
L 4319 4750 
L 5013 4750 
L 2094 -91 
z
M 1453 4750 
Q 2034 4750 2367 4411 
Q 2700 4072 2700 3481 
Q 2700 2891 2367 2550 
Q 2034 2209 1453 2209 
Q 872 2209 539 2550 
Q 206 2891 206 3481 
Q 206 4072 539 4411 
Q 872 4750 1453 4750 
z
M 1453 4225 
Q 1228 4225 1106 4031 
Q 984 3838 984 3481 
Q 984 3122 1106 2926 
Q 1228 2731 1453 2731 
Q 1678 2731 1798 2926 
Q 1919 3122 1919 3481 
Q 1919 3838 1797 4031 
Q 1675 4225 1453 4225 
z
" transform="scale(0.015625)"/>
     </defs>
     <use xlink:href="#DejaVuSans-Bold-36"/>
     <use xlink:href="#DejaVuSans-Bold-39" transform="translate(72.015625 0)"/>
     <use xlink:href="#DejaVuSans-Bold-28" transform="translate(149.40625 0)"/>
     <use xlink:href="#DejaVuSans-Bold-2f" transform="translate(217.71875 0)"/>
     <use xlink:href="#DejaVuSans-Bold-37" transform="translate(264.890625 0)"/>
     <use xlink:href="#DejaVuSans-Bold-28" transform="translate(333.109375 0)"/>
     <use xlink:href="#DejaVuSans-Bold-3" transform="translate(401.421875 0)"/>
     <use xlink:href="#DejaVuSans-Bold-b" transform="translate(436.234375 0)"/>
     <use xlink:href="#DejaVuSans-Bold-56" transform="translate(481.9375 0)"/>
     <use xlink:href="#DejaVuSans-Bold-59" transform="translate(541.453125 0)"/>
     <use xlink:href="#DejaVuSans-Bold-48" transform="translate(606.640625 0)"/>
     <use xlink:href="#DejaVuSans-Bold-4f" transform="translate(674.46875 0)"/>
     <use xlink:href="#DejaVuSans-Bold-57" transform="translate(708.75 0)"/>
     <use xlink:href="#DejaVuSans-Bold-48" transform="translate(756.546875 0)"/>
     <use xlink:href="#DejaVuSans-Bold-4d" transform="translate(824.375 0)"/>
     <use xlink:href="#DejaVuSans-Bold-56" transform="translate(858.65625 0)"/>
     <use xlink:href="#DejaVuSans-Bold-12" transform="translate(918.171875 0)"/>
     <use xlink:href="#DejaVuSans-Bold-56" transform="translate(954.703125 0)"/>
     <use xlink:href="#DejaVuSans-Bold-59" transform="translate(1014.21875 0)"/>
     <use xlink:href="#DejaVuSans-Bold-48" transform="translate(1079.40625 0)"/>
     <use xlink:href="#DejaVuSans-Bold-4f" transform="translate(1147.234375 0)"/>
     <use xlink:href="#DejaVuSans-Bold-57" transform="translate(1181.515625 0)"/>
     <use xlink:href="#DejaVuSans-Bold-48" transform="translate(1229.3125 0)"/>
     <use xlink:href="#DejaVuSans-Bold-c" transform="translate(1297.140625 0)"/>
     <use xlink:href="#DejaVuSans-Bold-3" transform="translate(1342.84375 0)"/>
     <use xlink:href="#DejaVuSans-Bold-af6" transform="translate(1377.65625 0)"/>
     <use xlink:href="#DejaVuSans-Bold-3" transform="translate(1477.65625 0)"/>
     <use xlink:href="#DejaVuSans-Bold-7" transform="translate(1512.46875 0)"/>
     <use xlink:href="#DejaVuSans-Bold-15" transform="translate(1582.046875 0)"/>
     <use xlink:href="#DejaVuSans-Bold-18" transform="translate(1651.625 0)"/>
     <use xlink:href="#DejaVuSans-Bold-1a" transform="translate(1721.203125 0)"/>
     <use xlink:href="#DejaVuSans-Bold-11" transform="translate(1790.78125 0)"/>
     <use xlink:href="#DejaVuSans-Bold-18" transform="translate(1828.765625 0)"/>
     <use xlink:href="#DejaVuSans-Bold-19" transform="translate(1898.34375 0)"/>
     <use xlink:href="#DejaVuSans-Bold-3" transform="translate(1967.921875 0)"/>
     <use xlink:href="#DejaVuSans-Bold-b" transform="translate(2002.734375 0)"/>
     <use xlink:href="#DejaVuSans-Bold-10" transform="translate(2048.4375 0)"/>
     <use xlink:href="#DejaVuSans-Bold-13" transform="translate(2089.9375 0)"/>
     <use xlink:href="#DejaVuSans-Bold-11" transform="translate(2159.515625 0)"/>
     <use xlink:href="#DejaVuSans-Bold-18" transform="translate(2197.5 0)"/>
     <use xlink:href="#DejaVuSans-Bold-19" transform="translate(2267.078125 0)"/>
     <use xlink:href="#DejaVuSans-Bold-8" transform="translate(2336.65625 0)"/>
     <use xlink:href="#DejaVuSans-Bold-c" transform="translate(2436.859375 0)"/>
    </g>
   </g>
  </g>
 </g>
 <defs>
  <clipPath id="p91be1299d0">
   <rect x="34.56" y="21.558281" width="383.24" height="128.76"/>
  </clipPath>
 </defs>
</svg>
