<?xml version="1.0" encoding="utf-8" standalone="no"?>
<!DOCTYPE svg PUBLIC "-//W3C//DTD SVG 1.1//EN"
  "http://www.w3.org/Graphics/SVG/1.1/DTD/svg11.dtd">
<svg xmlns:xlink="http://www.w3.org/1999/xlink" width="425pt" height="172.518281pt" viewBox="0 0 425 172.518281" xmlns="http://www.w3.org/2000/svg" version="1.1">
 <metadata>
  <rdf:RDF xmlns:dc="http://purl.org/dc/elements/1.1/" xmlns:cc="http://creativecommons.org/ns#" xmlns:rdf="http://www.w3.org/1999/02/22-rdf-syntax-ns#">
   <cc:Work>
    <dc:type rdf:resource="http://purl.org/dc/dcmitype/StillImage"/>
    <dc:date>2026-06-30T12:49:52.255790</dc:date>
    <dc:format>image/svg+xml</dc:format>
    <dc:creator>
     <cc:Agent>
      <dc:title>Matplotlib v3.11.0, https://matplotlib.org/</dc:title>
     </cc:Agent>
    </dc:creator>
   </cc:Work>
  </rdf:RDF>
 </metadata>
 <defs>
  <style type="text/css">*{stroke-linejoin: round; stroke-linecap: butt}</style>
 </defs>
 <g id="figure_1">
  <g id="patch_1">
   <path d="M 0 172.518281 
L 425 172.518281 
L 425 0 
L 0 0 
z
" style="fill: #0d1117"/>
  </g>
  <g id="axes_1">
   <g id="patch_2">
    <path d="M 34.56 150.318281 
L 417.8 150.318281 
L 417.8 21.558281 
L 34.56 21.558281 
z
" style="fill: #0d1117"/>
   </g>
   <g id="FillBetweenPolyCollection_1">
    <defs>
     <path id="mb3974a98b8" d="M 51.98 -28.052727 
L 51.98 -142.850954 
L 55.362524 -127.467744 
L 58.745049 -135.349873 
L 62.127573 -132.378554 
L 65.510097 -126.273222 
L 68.892621 -126.701366 
L 72.275146 -132.524123 
L 75.65767 -132.472746 
L 79.040194 -129.355858 
L 82.422718 -132.87092 
L 85.805243 -145.107273 
L 89.187767 -136.000652 
L 92.570291 -139.943857 
L 95.952816 -139.344456 
L 99.33534 -141.844816 
L 102.717864 -126.542953 
L 106.100388 -136.338885 
L 109.482913 -128.589481 
L 112.865437 -133.294782 
L 116.247961 -130.875769 
L 119.630485 -128.615169 
L 123.01301 -130.755889 
L 126.395534 -131.282506 
L 129.778058 -125.635288 
L 133.160583 -130.773015 
L 136.543107 -129.48002 
L 139.925631 -131.076997 
L 143.308155 -138.124246 
L 146.69068 -130.143643 
L 150.073204 -135.105831 
L 153.455728 -134.510711 
L 156.838252 -134.639154 
L 160.220777 -136.664275 
L 163.603301 -134.296639 
L 166.985825 -135.015921 
L 170.36835 -137.905892 
L 173.750874 -130.272086 
L 177.133398 -139.648438 
L 180.515922 -127.810259 
L 183.898447 -134.733346 
L 187.280971 -134.24098 
L 190.663495 -137.503437 
L 194.046019 -138.16706 
L 197.428544 -137.178047 
L 200.811068 -135.127238 
L 204.193592 -137.935862 
L 207.576117 -136.086281 
L 210.958641 -132.558375 
L 214.341165 -138.509575 
L 217.723689 -131.342446 
L 221.106214 -139.190324 
L 224.488738 -129.796846 
L 227.871262 -133.936998 
L 231.253786 -131.924722 
L 234.636311 -135.833676 
L 238.018835 -134.801849 
L 241.401359 -134.68625 
L 244.783883 -132.823824 
L 248.166408 -134.643436 
L 251.548932 -135.495442 
L 254.931456 -131.496578 
L 258.313981 -132.044602 
L 261.696505 -137.550533 
L 265.079029 -132.121668 
L 268.461553 -134.15107 
L 271.844078 -139.044755 
L 275.226602 -134.968825 
L 278.609126 -133.067866 
L 281.99165 -132.160201 
L 285.374175 -129.95526 
L 288.756699 -136.129095 
L 292.139223 -133.94128 
L 295.521748 -132.121668 
L 298.904272 -136.004933 
L 302.286796 -130.999931 
L 305.66932 -132.609752 
L 309.051845 -130.280649 
L 312.434369 -136.685682 
L 315.816893 -127.746037 
L 319.199417 -132.168764 
L 322.581942 -133.14065 
L 325.964466 -132.524123 
L 329.34699 -130.858643 
L 332.729515 -135.114394 
L 336.112039 -129.492864 
L 339.494563 -134.172477 
L 342.877087 -132.344303 
L 346.259612 -130.995649 
L 349.642136 -132.828105 
L 353.02466 -129.989511 
L 356.407184 -137.263676 
L 359.789709 -129.903882 
L 363.172233 -131.470889 
L 366.554757 -134.206729 
L 369.937282 -134.039753 
L 373.319806 -135.87649 
L 376.70233 -131.239691 
L 380.084854 -138.873497 
L 383.467379 -133.671549 
L 386.849903 -136.103406 
L 390.232427 -131.873344 
L 393.614951 -135.508286 
L 396.997476 -134.266669 
L 400.38 -133.808555 
L 400.38 -28.052727 
L 400.38 -28.052727 
L 396.997476 -28.052727 
L 393.614951 -28.052727 
L 390.232427 -28.052727 
L 386.849903 -28.052727 
L 383.467379 -28.052727 
L 380.084854 -28.052727 
L 376.70233 -28.052727 
L 373.319806 -28.052727 
L 369.937282 -28.052727 
L 366.554757 -28.052727 
L 363.172233 -28.052727 
L 359.789709 -28.052727 
L 356.407184 -28.052727 
L 353.02466 -28.052727 
L 349.642136 -28.052727 
L 346.259612 -28.052727 
L 342.877087 -28.052727 
L 339.494563 -28.052727 
L 336.112039 -28.052727 
L 332.729515 -28.052727 
L 329.34699 -28.052727 
L 325.964466 -28.052727 
L 322.581942 -28.052727 
L 319.199417 -28.052727 
L 315.816893 -28.052727 
L 312.434369 -28.052727 
L 309.051845 -28.052727 
L 305.66932 -28.052727 
L 302.286796 -28.052727 
L 298.904272 -28.052727 
L 295.521748 -28.052727 
L 292.139223 -28.052727 
L 288.756699 -28.052727 
L 285.374175 -28.052727 
L 281.99165 -28.052727 
L 278.609126 -28.052727 
L 275.226602 -28.052727 
L 271.844078 -28.052727 
L 268.461553 -28.052727 
L 265.079029 -28.052727 
L 261.696505 -28.052727 
L 258.313981 -28.052727 
L 254.931456 -28.052727 
L 251.548932 -28.052727 
L 248.166408 -28.052727 
L 244.783883 -28.052727 
L 241.401359 -28.052727 
L 238.018835 -28.052727 
L 234.636311 -28.052727 
L 231.253786 -28.052727 
L 227.871262 -28.052727 
L 224.488738 -28.052727 
L 221.106214 -28.052727 
L 217.723689 -28.052727 
L 214.341165 -28.052727 
L 210.958641 -28.052727 
L 207.576117 -28.052727 
L 204.193592 -28.052727 
L 200.811068 -28.052727 
L 197.428544 -28.052727 
L 194.046019 -28.052727 
L 190.663495 -28.052727 
L 187.280971 -28.052727 
L 183.898447 -28.052727 
L 180.515922 -28.052727 
L 177.133398 -28.052727 
L 173.750874 -28.052727 
L 170.36835 -28.052727 
L 166.985825 -28.052727 
L 163.603301 -28.052727 
L 160.220777 -28.052727 
L 156.838252 -28.052727 
L 153.455728 -28.052727 
L 150.073204 -28.052727 
L 146.69068 -28.052727 
L 143.308155 -28.052727 
L 139.925631 -28.052727 
L 136.543107 -28.052727 
L 133.160583 -28.052727 
L 129.778058 -28.052727 
L 126.395534 -28.052727 
L 123.01301 -28.052727 
L 119.630485 -28.052727 
L 116.247961 -28.052727 
L 112.865437 -28.052727 
L 109.482913 -28.052727 
L 106.100388 -28.052727 
L 102.717864 -28.052727 
L 99.33534 -28.052727 
L 95.952816 -28.052727 
L 92.570291 -28.052727 
L 89.187767 -28.052727 
L 85.805243 -28.052727 
L 82.422718 -28.052727 
L 79.040194 -28.052727 
L 75.65767 -28.052727 
L 72.275146 -28.052727 
L 68.892621 -28.052727 
L 65.510097 -28.052727 
L 62.127573 -28.052727 
L 58.745049 -28.052727 
L 55.362524 -28.052727 
L 51.98 -28.052727 
z
" style="stroke: #f85149; stroke-opacity: 0.15"/>
    </defs>
    <g clip-path="url(#p2fc03a5b2c)">
     <use xlink:href="#mb3974a98b8" x="0" y="172.518281" style="fill: #f85149; fill-opacity: 0.15; stroke: #f85149; stroke-opacity: 0.15"/>
    </g>
   </g>
   <g id="matplotlib.axis_1">
    <g id="xtick_1">
     <g id="line2d_1">
      <path d="M 51.98 150.318281 
L 51.98 21.558281 
" clip-path="url(#p2fc03a5b2c)" style="fill: none; stroke: #21262d; stroke-opacity: 0.5; stroke-width: 0.5; stroke-linecap: square"/>
     </g>
     <g id="line2d_2">
      <defs>
       <path id="m368232ff69" d="M 0 0 
L 0 3.5 
" style="stroke: #c9d1d9; stroke-width: 0.8"/>
      </defs>
      <g>
       <use xlink:href="#m368232ff69" x="51.98" y="150.318281" style="fill: #c9d1d9; stroke: #c9d1d9; stroke-width: 0.8"/>
      </g>
     </g>
     <g id="text_1">
      <!-- 0 -->
      <g style="fill: #c9d1d9" transform="translate(49.435 163.396406) scale(0.08 -0.08)">
       <defs>
        <path id="DejaVuSans-13" d="M 2034 4250 
Q 1547 4250 1301 3770 
Q 1056 3291 1056 2328 
Q 1056 1369 1301 889 
Q 1547 409 2034 409 
Q 2525 409 2770 889 
Q 3016 1369 3016 2328 
Q 3016 3291 2770 3770 
Q 2525 4250 2034 4250 
z
M 2034 4750 
Q 2819 4750 3233 4129 
Q 3647 3509 3647 2328 
Q 3647 1150 3233 529 
Q 2819 -91 2034 -91 
Q 1250 -91 836 529 
Q 422 1150 422 2328 
Q 422 3509 836 4129 
Q 1250 4750 2034 4750 
z
" transform="scale(0.015625)"/>
       </defs>
       <use xlink:href="#DejaVuSans-13"/>
      </g>
     </g>
    </g>
    <g id="xtick_2">
     <g id="line2d_3">
      <path d="M 119.630485 150.318281 
L 119.630485 21.558281 
" clip-path="url(#p2fc03a5b2c)" style="fill: none; stroke: #21262d; stroke-opacity: 0.5; stroke-width: 0.5; stroke-linecap: square"/>
     </g>
     <g id="line2d_4">
      <g>
       <use xlink:href="#m368232ff69" x="119.630485" y="150.318281" style="fill: #c9d1d9; stroke: #c9d1d9; stroke-width: 0.8"/>
      </g>
     </g>
     <g id="text_2">
      <!-- 20 -->
      <g style="fill: #c9d1d9" transform="translate(114.540485 163.396406) scale(0.08 -0.08)">
       <defs>
        <path id="DejaVuSans-15" d="M 1228 531 
L 3431 531 
L 3431 0 
L 469 0 
L 469 531 
Q 828 903 1448 1529 
Q 2069 2156 2228 2338 
Q 2531 2678 2651 2914 
Q 2772 3150 2772 3378 
Q 2772 3750 2511 3984 
Q 2250 4219 1831 4219 
Q 1534 4219 1204 4116 
Q 875 4013 500 3803 
L 500 4441 
Q 881 4594 1212 4672 
Q 1544 4750 1819 4750 
Q 2544 4750 2975 4387 
Q 3406 4025 3406 3419 
Q 3406 3131 3298 2873 
Q 3191 2616 2906 2266 
Q 2828 2175 2409 1742 
Q 1991 1309 1228 531 
z
" transform="scale(0.015625)"/>
       </defs>
       <use xlink:href="#DejaVuSans-15"/>
       <use xlink:href="#DejaVuSans-13" transform="translate(63.625 0)"/>
      </g>
     </g>
    </g>
    <g id="xtick_3">
     <g id="line2d_5">
      <path d="M 187.280971 150.318281 
L 187.280971 21.558281 
" clip-path="url(#p2fc03a5b2c)" style="fill: none; stroke: #21262d; stroke-opacity: 0.5; stroke-width: 0.5; stroke-linecap: square"/>
     </g>
     <g id="line2d_6">
      <g>
       <use xlink:href="#m368232ff69" x="187.280971" y="150.318281" style="fill: #c9d1d9; stroke: #c9d1d9; stroke-width: 0.8"/>
      </g>
     </g>
     <g id="text_3">
      <!-- 40 -->
      <g style="fill: #c9d1d9" transform="translate(182.190971 163.396406) scale(0.08 -0.08)">
       <defs>
        <path id="DejaVuSans-17" d="M 2419 4116 
L 825 1625 
L 2419 1625 
L 2419 4116 
z
M 2253 4666 
L 3047 4666 
L 3047 1625 
L 3713 1625 
L 3713 1100 
L 3047 1100 
L 3047 0 
L 2419 0 
L 2419 1100 
L 313 1100 
L 313 1709 
L 2253 4666 
z
" transform="scale(0.015625)"/>
       </defs>
       <use xlink:href="#DejaVuSans-17"/>
       <use xlink:href="#DejaVuSans-13" transform="translate(63.625 0)"/>
      </g>
     </g>
    </g>
    <g id="xtick_4">
     <g id="line2d_7">
      <path d="M 254.931456 150.318281 
L 254.931456 21.558281 
" clip-path="url(#p2fc03a5b2c)" style="fill: none; stroke: #21262d; stroke-opacity: 0.5; stroke-width: 0.5; stroke-linecap: square"/>
     </g>
     <g id="line2d_8">
      <g>
       <use xlink:href="#m368232ff69" x="254.931456" y="150.318281" style="fill: #c9d1d9; stroke: #c9d1d9; stroke-width: 0.8"/>
      </g>
     </g>
     <g id="text_4">
      <!-- 60 -->
      <g style="fill: #c9d1d9" transform="translate(249.841456 163.396406) scale(0.08 -0.08)">
       <defs>
        <path id="DejaVuSans-19" d="M 2113 2584 
Q 1688 2584 1439 2293 
Q 1191 2003 1191 1497 
Q 1191 994 1439 701 
Q 1688 409 2113 409 
Q 2538 409 2786 701 
Q 3034 994 3034 1497 
Q 3034 2003 2786 2293 
Q 2538 2584 2113 2584 
z
M 3366 4563 
L 3366 3988 
Q 3128 4100 2886 4159 
Q 2644 4219 2406 4219 
Q 1781 4219 1451 3797 
Q 1122 3375 1075 2522 
Q 1259 2794 1537 2939 
Q 1816 3084 2150 3084 
Q 2853 3084 3261 2657 
Q 3669 2231 3669 1497 
Q 3669 778 3244 343 
Q 2819 -91 2113 -91 
Q 1303 -91 875 529 
Q 447 1150 447 2328 
Q 447 3434 972 4092 
Q 1497 4750 2381 4750 
Q 2619 4750 2861 4703 
Q 3103 4656 3366 4563 
z
" transform="scale(0.015625)"/>
       </defs>
       <use xlink:href="#DejaVuSans-19"/>
       <use xlink:href="#DejaVuSans-13" transform="translate(63.625 0)"/>
      </g>
     </g>
    </g>
    <g id="xtick_5">
     <g id="line2d_9">
      <path d="M 322.581942 150.318281 
L 322.581942 21.558281 
" clip-path="url(#p2fc03a5b2c)" style="fill: none; stroke: #21262d; stroke-opacity: 0.5; stroke-width: 0.5; stroke-linecap: square"/>
     </g>
     <g id="line2d_10">
      <g>
       <use xlink:href="#m368232ff69" x="322.581942" y="150.318281" style="fill: #c9d1d9; stroke: #c9d1d9; stroke-width: 0.8"/>
      </g>
     </g>
     <g id="text_5">
      <!-- 80 -->
      <g style="fill: #c9d1d9" transform="translate(317.491942 163.396406) scale(0.08 -0.08)">
       <defs>
        <path id="DejaVuSans-1b" d="M 2034 2216 
Q 1584 2216 1326 1975 
Q 1069 1734 1069 1313 
Q 1069 891 1326 650 
Q 1584 409 2034 409 
Q 2484 409 2743 651 
Q 3003 894 3003 1313 
Q 3003 1734 2745 1975 
Q 2488 2216 2034 2216 
z
M 1403 2484 
Q 997 2584 770 2862 
Q 544 3141 544 3541 
Q 544 4100 942 4425 
Q 1341 4750 2034 4750 
Q 2731 4750 3128 4425 
Q 3525 4100 3525 3541 
Q 3525 3141 3298 2862 
Q 3072 2584 2669 2484 
Q 3125 2378 3379 2068 
Q 3634 1759 3634 1313 
Q 3634 634 3220 271 
Q 2806 -91 2034 -91 
Q 1263 -91 848 271 
Q 434 634 434 1313 
Q 434 1759 690 2068 
Q 947 2378 1403 2484 
z
M 1172 3481 
Q 1172 3119 1398 2916 
Q 1625 2713 2034 2713 
Q 2441 2713 2670 2916 
Q 2900 3119 2900 3481 
Q 2900 3844 2670 4047 
Q 2441 4250 2034 4250 
Q 1625 4250 1398 4047 
Q 1172 3844 1172 3481 
z
" transform="scale(0.015625)"/>
       </defs>
       <use xlink:href="#DejaVuSans-1b"/>
       <use xlink:href="#DejaVuSans-13" transform="translate(63.625 0)"/>
      </g>
     </g>
    </g>
    <g id="xtick_6">
     <g id="line2d_11">
      <path d="M 390.232427 150.318281 
L 390.232427 21.558281 
" clip-path="url(#p2fc03a5b2c)" style="fill: none; stroke: #21262d; stroke-opacity: 0.5; stroke-width: 0.5; stroke-linecap: square"/>
     </g>
     <g id="line2d_12">
      <g>
       <use xlink:href="#m368232ff69" x="390.232427" y="150.318281" style="fill: #c9d1d9; stroke: #c9d1d9; stroke-width: 0.8"/>
      </g>
     </g>
     <g id="text_6">
      <!-- 100 -->
      <g style="fill: #c9d1d9" transform="translate(382.597427 163.396406) scale(0.08 -0.08)">
       <defs>
        <path id="DejaVuSans-14" d="M 794 531 
L 1825 531 
L 1825 4091 
L 703 3866 
L 703 4441 
L 1819 4666 
L 2450 4666 
L 2450 531 
L 3481 531 
L 3481 0 
L 794 0 
L 794 531 
z
" transform="scale(0.015625)"/>
       </defs>
       <use xlink:href="#DejaVuSans-14"/>
       <use xlink:href="#DejaVuSans-13" transform="translate(63.625 0)"/>
       <use xlink:href="#DejaVuSans-13" transform="translate(127.25 0)"/>
      </g>
     </g>
    </g>
   </g>
   <g id="matplotlib.axis_2">
    <g id="ytick_1">
     <g id="line2d_13">
      <path d="M 34.56 144.465554 
L 417.8 144.465554 
" clip-path="url(#p2fc03a5b2c)" style="fill: none; stroke: #21262d; stroke-opacity: 0.5; stroke-width: 0.5; stroke-linecap: square"/>
     </g>
     <g id="line2d_14">
      <defs>
       <path id="ma9f7e2a31d" d="M 0 0 
L -3.5 0 
" style="stroke: #c9d1d9; stroke-width: 0.8"/>
      </defs>
      <g>
       <use xlink:href="#ma9f7e2a31d" x="34.56" y="144.465554" style="fill: #c9d1d9; stroke: #c9d1d9; stroke-width: 0.8"/>
      </g>
     </g>
     <g id="text_7">
      <!-- $0 -->
      <g style="fill: #c9d1d9" transform="translate(17.38 147.504929) scale(0.08 -0.08)">
       <defs>
        <path id="DejaVuSans-7" d="M 2163 -941 
L 1850 -941 
L 1847 0 
Q 1519 6 1191 76 
Q 863 147 531 288 
L 531 850 
Q 850 650 1176 548 
Q 1503 447 1850 444 
L 1850 1869 
Q 1159 1981 845 2250 
Q 531 2519 531 2988 
Q 531 3497 872 3790 
Q 1213 4084 1850 4128 
L 1850 4863 
L 2163 4863 
L 2163 4138 
Q 2453 4125 2725 4076 
Q 2997 4028 3256 3944 
L 3256 3397 
Q 2997 3528 2723 3600 
Q 2450 3672 2163 3684 
L 2163 2350 
Q 2872 2241 3206 1959 
Q 3541 1678 3541 1191 
Q 3541 663 3186 358 
Q 2831 53 2163 6 
L 2163 -941 
z
M 1850 2406 
L 1850 3688 
Q 1488 3647 1297 3481 
Q 1106 3316 1106 3041 
Q 1106 2772 1282 2622 
Q 1459 2472 1850 2406 
z
M 2163 1806 
L 2163 453 
Q 2559 506 2761 678 
Q 2963 850 2963 1131 
Q 2963 1406 2770 1568 
Q 2578 1731 2163 1806 
z
" transform="scale(0.015625)"/>
       </defs>
       <use xlink:href="#DejaVuSans-7"/>
       <use xlink:href="#DejaVuSans-13" transform="translate(63.625 0)"/>
      </g>
     </g>
    </g>
    <g id="ytick_2">
     <g id="line2d_15">
      <path d="M 34.56 123.058358 
L 417.8 123.058358 
" clip-path="url(#p2fc03a5b2c)" style="fill: none; stroke: #21262d; stroke-opacity: 0.5; stroke-width: 0.5; stroke-linecap: square"/>
     </g>
     <g id="line2d_16">
      <g>
       <use xlink:href="#ma9f7e2a31d" x="34.56" y="123.058358" style="fill: #c9d1d9; stroke: #c9d1d9; stroke-width: 0.8"/>
      </g>
     </g>
     <g id="text_8">
      <!-- $50 -->
      <g style="fill: #c9d1d9" transform="translate(12.29 126.097733) scale(0.08 -0.08)">
       <defs>
        <path id="DejaVuSans-18" d="M 691 4666 
L 3169 4666 
L 3169 4134 
L 1269 4134 
L 1269 2991 
Q 1406 3038 1543 3061 
Q 1681 3084 1819 3084 
Q 2600 3084 3056 2656 
Q 3513 2228 3513 1497 
Q 3513 744 3044 326 
Q 2575 -91 1722 -91 
Q 1428 -91 1123 -41 
Q 819 9 494 109 
L 494 744 
Q 775 591 1075 516 
Q 1375 441 1709 441 
Q 2250 441 2565 725 
Q 2881 1009 2881 1497 
Q 2881 1984 2565 2268 
Q 2250 2553 1709 2553 
Q 1456 2553 1204 2497 
Q 953 2441 691 2322 
L 691 4666 
z
" transform="scale(0.015625)"/>
       </defs>
       <use xlink:href="#DejaVuSans-7"/>
       <use xlink:href="#DejaVuSans-18" transform="translate(63.625 0)"/>
       <use xlink:href="#DejaVuSans-13" transform="translate(127.25 0)"/>
      </g>
     </g>
    </g>
    <g id="ytick_3">
     <g id="line2d_17">
      <path d="M 34.56 101.651163 
L 417.8 101.651163 
" clip-path="url(#p2fc03a5b2c)" style="fill: none; stroke: #21262d; stroke-opacity: 0.5; stroke-width: 0.5; stroke-linecap: square"/>
     </g>
     <g id="line2d_18">
      <g>
       <use xlink:href="#ma9f7e2a31d" x="34.56" y="101.651163" style="fill: #c9d1d9; stroke: #c9d1d9; stroke-width: 0.8"/>
      </g>
     </g>
     <g id="text_9">
      <!-- $100 -->
      <g style="fill: #c9d1d9" transform="translate(7.2 104.690538) scale(0.08 -0.08)">
       <use xlink:href="#DejaVuSans-7"/>
       <use xlink:href="#DejaVuSans-14" transform="translate(63.625 0)"/>
       <use xlink:href="#DejaVuSans-13" transform="translate(127.25 0)"/>
       <use xlink:href="#DejaVuSans-13" transform="translate(190.875 0)"/>
      </g>
     </g>
    </g>
    <g id="ytick_4">
     <g id="line2d_19">
      <path d="M 34.56 80.243967 
L 417.8 80.243967 
" clip-path="url(#p2fc03a5b2c)" style="fill: none; stroke: #21262d; stroke-opacity: 0.5; stroke-width: 0.5; stroke-linecap: square"/>
     </g>
     <g id="line2d_20">
      <g>
       <use xlink:href="#ma9f7e2a31d" x="34.56" y="80.243967" style="fill: #c9d1d9; stroke: #c9d1d9; stroke-width: 0.8"/>
      </g>
     </g>
     <g id="text_10">
      <!-- $150 -->
      <g style="fill: #c9d1d9" transform="translate(7.2 83.283342) scale(0.08 -0.08)">
       <use xlink:href="#DejaVuSans-7"/>
       <use xlink:href="#DejaVuSans-14" transform="translate(63.625 0)"/>
       <use xlink:href="#DejaVuSans-18" transform="translate(127.25 0)"/>
       <use xlink:href="#DejaVuSans-13" transform="translate(190.875 0)"/>
      </g>
     </g>
    </g>
    <g id="ytick_5">
     <g id="line2d_21">
      <path d="M 34.56 58.836772 
L 417.8 58.836772 
" clip-path="url(#p2fc03a5b2c)" style="fill: none; stroke: #21262d; stroke-opacity: 0.5; stroke-width: 0.5; stroke-linecap: square"/>
     </g>
     <g id="line2d_22">
      <g>
       <use xlink:href="#ma9f7e2a31d" x="34.56" y="58.836772" style="fill: #c9d1d9; stroke: #c9d1d9; stroke-width: 0.8"/>
      </g>
     </g>
     <g id="text_11">
      <!-- $200 -->
      <g style="fill: #c9d1d9" transform="translate(7.2 61.876147) scale(0.08 -0.08)">
       <use xlink:href="#DejaVuSans-7"/>
       <use xlink:href="#DejaVuSans-15" transform="translate(63.625 0)"/>
       <use xlink:href="#DejaVuSans-13" transform="translate(127.25 0)"/>
       <use xlink:href="#DejaVuSans-13" transform="translate(190.875 0)"/>
      </g>
     </g>
    </g>
    <g id="ytick_6">
     <g id="line2d_23">
      <path d="M 34.56 37.429576 
L 417.8 37.429576 
" clip-path="url(#p2fc03a5b2c)" style="fill: none; stroke: #21262d; stroke-opacity: 0.5; stroke-width: 0.5; stroke-linecap: square"/>
     </g>
     <g id="line2d_24">
      <g>
       <use xlink:href="#ma9f7e2a31d" x="34.56" y="37.429576" style="fill: #c9d1d9; stroke: #c9d1d9; stroke-width: 0.8"/>
      </g>
     </g>
     <g id="text_12">
      <!-- $250 -->
      <g style="fill: #c9d1d9" transform="translate(7.2 40.468951) scale(0.08 -0.08)">
       <use xlink:href="#DejaVuSans-7"/>
       <use xlink:href="#DejaVuSans-15" transform="translate(63.625 0)"/>
       <use xlink:href="#DejaVuSans-18" transform="translate(127.25 0)"/>
       <use xlink:href="#DejaVuSans-13" transform="translate(190.875 0)"/>
      </g>
     </g>
    </g>
   </g>
   <g id="line2d_25">
    <path d="M 51.98 29.667327 
L 55.362524 45.050538 
L 58.745049 37.168408 
L 62.127573 40.139727 
L 65.510097 46.245059 
L 68.892621 45.816915 
L 72.275146 39.994158 
L 75.65767 40.045535 
L 79.040194 43.162423 
L 82.422718 39.647362 
L 85.805243 27.411009 
L 89.187767 36.51763 
L 92.570291 32.574424 
L 95.952816 33.173826 
L 99.33534 30.673465 
L 102.717864 45.975329 
L 106.100388 36.179396 
L 109.482913 43.928801 
L 112.865437 39.223499 
L 116.247961 41.642512 
L 119.630485 43.903112 
L 123.01301 41.762392 
L 126.395534 41.235775 
L 129.778058 46.882994 
L 133.160583 41.745267 
L 136.543107 43.038261 
L 139.925631 41.441285 
L 143.308155 34.394036 
L 146.69068 42.374638 
L 150.073204 37.41245 
L 153.455728 38.00757 
L 156.838252 37.879127 
L 160.220777 35.854006 
L 163.603301 38.221642 
L 166.985825 37.502361 
L 170.36835 34.612389 
L 173.750874 42.246195 
L 177.133398 32.869843 
L 180.515922 44.708023 
L 183.898447 37.784936 
L 187.280971 38.277301 
L 190.663495 35.014844 
L 194.046019 34.351221 
L 197.428544 35.340234 
L 200.811068 37.391043 
L 204.193592 34.582419 
L 207.576117 36.432001 
L 210.958641 39.959907 
L 214.341165 34.008706 
L 217.723689 41.175835 
L 221.106214 33.327957 
L 224.488738 42.721435 
L 227.871262 38.581283 
L 231.253786 40.59356 
L 234.636311 36.684606 
L 238.018835 37.716432 
L 241.401359 37.832031 
L 244.783883 39.694457 
L 248.166408 37.874846 
L 251.548932 37.022839 
L 254.931456 41.021703 
L 258.313981 40.473679 
L 261.696505 34.967749 
L 265.079029 40.396613 
L 268.461553 38.367211 
L 271.844078 33.473526 
L 275.226602 37.549456 
L 278.609126 39.450415 
L 281.99165 40.35808 
L 285.374175 42.563022 
L 288.756699 36.389186 
L 292.139223 38.577002 
L 295.521748 40.396613 
L 298.904272 36.513348 
L 302.286796 41.51835 
L 305.66932 39.908529 
L 309.051845 42.237632 
L 312.434369 35.832599 
L 315.816893 44.772244 
L 319.199417 40.349518 
L 322.581942 39.377631 
L 325.964466 39.994158 
L 329.34699 41.659638 
L 332.729515 37.403887 
L 336.112039 43.025417 
L 339.494563 38.345804 
L 342.877087 40.173979 
L 346.259612 41.522632 
L 349.642136 39.690176 
L 353.02466 42.52877 
L 356.407184 35.254605 
L 359.789709 42.614399 
L 363.172233 41.047392 
L 366.554757 38.311553 
L 369.937282 38.478529 
L 373.319806 36.641791 
L 376.70233 41.27859 
L 380.084854 33.644784 
L 383.467379 38.846732 
L 386.849903 36.414875 
L 390.232427 40.644937 
L 393.614951 37.009995 
L 396.997476 38.251612 
L 400.38 38.709726 
" clip-path="url(#p2fc03a5b2c)" style="fill: none; stroke: #f85149; stroke-width: 2; stroke-linecap: square"/>
   </g>
   <g id="patch_3">
    <path d="M 34.56 150.318281 
L 34.56 21.558281 
" style="fill: none; stroke: #21262d; stroke-width: 0.8; stroke-linejoin: miter; stroke-linecap: square"/>
   </g>
   <g id="patch_4">
    <path d="M 34.56 150.318281 
L 417.8 150.318281 
" style="fill: none; stroke: #21262d; stroke-width: 0.8; stroke-linejoin: miter; stroke-linecap: square"/>
   </g>
   <g id="text_13">
    <!-- CLIANYTHING (HKUDS/CLI-Anything) — $247.01 (-0.43%) -->
    <g style="fill: #c9d1d9" transform="translate(50.927656 15.558281) scale(0.11 -0.11)">
     <defs>
      <path id="DejaVuSans-Bold-26" d="M 4288 256 
Q 3956 84 3597 -3 
Q 3238 -91 2847 -91 
Q 1681 -91 1000 561 
Q 319 1213 319 2328 
Q 319 3447 1000 4098 
Q 1681 4750 2847 4750 
Q 3238 4750 3597 4662 
Q 3956 4575 4288 4403 
L 4288 3438 
Q 3953 3666 3628 3772 
Q 3303 3878 2944 3878 
Q 2300 3878 1931 3465 
Q 1563 3053 1563 2328 
Q 1563 1606 1931 1193 
Q 2300 781 2944 781 
Q 3303 781 3628 887 
Q 3953 994 4288 1222 
L 4288 256 
z
" transform="scale(0.015625)"/>
      <path id="DejaVuSans-Bold-2f" d="M 588 4666 
L 1791 4666 
L 1791 909 
L 3903 909 
L 3903 0 
L 588 0 
L 588 4666 
z
" transform="scale(0.015625)"/>
      <path id="DejaVuSans-Bold-2c" d="M 588 4666 
L 1791 4666 
L 1791 0 
L 588 0 
L 588 4666 
z
" transform="scale(0.015625)"/>
      <path id="DejaVuSans-Bold-24" d="M 3419 850 
L 1538 850 
L 1241 0 
L 31 0 
L 1759 4666 
L 3194 4666 
L 4922 0 
L 3713 0 
L 3419 850 
z
M 1838 1716 
L 3116 1716 
L 2478 3572 
L 1838 1716 
z
" transform="scale(0.015625)"/>
      <path id="DejaVuSans-Bold-31" d="M 588 4666 
L 1931 4666 
L 3628 1466 
L 3628 4666 
L 4769 4666 
L 4769 0 
L 3425 0 
L 1728 3200 
L 1728 0 
L 588 0 
L 588 4666 
z
" transform="scale(0.015625)"/>
      <path id="DejaVuSans-Bold-3c" d="M -63 4666 
L 1253 4666 
L 2316 3003 
L 3378 4666 
L 4697 4666 
L 2919 1966 
L 2919 0 
L 1716 0 
L 1716 1966 
L -63 4666 
z
" transform="scale(0.015625)"/>
      <path id="DejaVuSans-Bold-37" d="M 31 4666 
L 4331 4666 
L 4331 3756 
L 2784 3756 
L 2784 0 
L 1581 0 
L 1581 3756 
L 31 3756 
L 31 4666 
z
" transform="scale(0.015625)"/>
      <path id="DejaVuSans-Bold-2b" d="M 588 4666 
L 1791 4666 
L 1791 2888 
L 3566 2888 
L 3566 4666 
L 4769 4666 
L 4769 0 
L 3566 0 
L 3566 1978 
L 1791 1978 
L 1791 0 
L 588 0 
L 588 4666 
z
" transform="scale(0.015625)"/>
      <path id="DejaVuSans-Bold-2a" d="M 4781 347 
Q 4331 128 3847 18 
Q 3363 -91 2847 -91 
Q 1681 -91 1000 561 
Q 319 1213 319 2328 
Q 319 3456 1012 4103 
Q 1706 4750 2913 4750 
Q 3378 4750 3804 4662 
Q 4231 4575 4609 4403 
L 4609 3438 
Q 4219 3659 3833 3768 
Q 3447 3878 3059 3878 
Q 2341 3878 1952 3476 
Q 1563 3075 1563 2328 
Q 1563 1588 1938 1184 
Q 2313 781 3003 781 
Q 3191 781 3352 804 
Q 3513 828 3641 878 
L 3641 1784 
L 2906 1784 
L 2906 2591 
L 4781 2591 
L 4781 347 
z
" transform="scale(0.015625)"/>
      <path id="DejaVuSans-Bold-3" transform="scale(0.015625)"/>
      <path id="DejaVuSans-Bold-b" d="M 2413 -844 
L 1484 -844 
Q 1006 -72 778 623 
Q 550 1319 550 2003 
Q 550 2688 779 3389 
Q 1009 4091 1484 4856 
L 2413 4856 
Q 2013 4116 1813 3408 
Q 1613 2700 1613 2009 
Q 1613 1319 1811 609 
Q 2009 -100 2413 -844 
z
" transform="scale(0.015625)"/>
      <path id="DejaVuSans-Bold-2e" d="M 588 4666 
L 1791 4666 
L 1791 2963 
L 3525 4666 
L 4922 4666 
L 2675 2456 
L 5153 0 
L 3647 0 
L 1791 1838 
L 1791 0 
L 588 0 
L 588 4666 
z
" transform="scale(0.015625)"/>
      <path id="DejaVuSans-Bold-38" d="M 588 4666 
L 1791 4666 
L 1791 1869 
Q 1791 1291 1980 1042 
Q 2169 794 2597 794 
Q 3028 794 3217 1042 
Q 3406 1291 3406 1869 
L 3406 4666 
L 4609 4666 
L 4609 1869 
Q 4609 878 4112 393 
Q 3616 -91 2597 -91 
Q 1581 -91 1084 393 
Q 588 878 588 1869 
L 588 4666 
z
" transform="scale(0.015625)"/>
      <path id="DejaVuSans-Bold-27" d="M 1791 3756 
L 1791 909 
L 2222 909 
Q 2959 909 3348 1275 
Q 3738 1641 3738 2338 
Q 3738 3031 3350 3393 
Q 2963 3756 2222 3756 
L 1791 3756 
z
M 588 4666 
L 1856 4666 
Q 2919 4666 3439 4514 
Q 3959 4363 4331 4000 
Q 4659 3684 4818 3271 
Q 4978 2859 4978 2338 
Q 4978 1809 4818 1395 
Q 4659 981 4331 666 
Q 3956 303 3431 151 
Q 2906 0 1856 0 
L 588 0 
L 588 4666 
z
" transform="scale(0.015625)"/>
      <path id="DejaVuSans-Bold-36" d="M 3834 4519 
L 3834 3531 
Q 3450 3703 3084 3790 
Q 2719 3878 2394 3878 
Q 1963 3878 1756 3759 
Q 1550 3641 1550 3391 
Q 1550 3203 1689 3098 
Q 1828 2994 2194 2919 
L 2706 2816 
Q 3484 2659 3812 2340 
Q 4141 2022 4141 1434 
Q 4141 663 3683 286 
Q 3225 -91 2284 -91 
Q 1841 -91 1394 -6 
Q 947 78 500 244 
L 500 1259 
Q 947 1022 1364 901 
Q 1781 781 2169 781 
Q 2563 781 2772 912 
Q 2981 1044 2981 1288 
Q 2981 1506 2839 1625 
Q 2697 1744 2272 1838 
L 1806 1941 
Q 1106 2091 782 2419 
Q 459 2747 459 3303 
Q 459 4000 909 4375 
Q 1359 4750 2203 4750 
Q 2588 4750 2994 4692 
Q 3400 4634 3834 4519 
z
" transform="scale(0.015625)"/>
      <path id="DejaVuSans-Bold-12" d="M 1644 4666 
L 2338 4666 
L 691 -594 
L 0 -594 
L 1644 4666 
z
" transform="scale(0.015625)"/>
      <path id="DejaVuSans-Bold-10" d="M 347 2297 
L 2309 2297 
L 2309 1388 
L 347 1388 
L 347 2297 
z
" transform="scale(0.015625)"/>
      <path id="DejaVuSans-Bold-51" d="M 4056 2131 
L 4056 0 
L 2931 0 
L 2931 347 
L 2931 1631 
Q 2931 2084 2911 2256 
Q 2891 2428 2841 2509 
Q 2775 2619 2662 2680 
Q 2550 2741 2406 2741 
Q 2056 2741 1856 2470 
Q 1656 2200 1656 1722 
L 1656 0 
L 538 0 
L 538 3500 
L 1656 3500 
L 1656 2988 
Q 1909 3294 2193 3439 
Q 2478 3584 2822 3584 
Q 3428 3584 3742 3212 
Q 4056 2841 4056 2131 
z
" transform="scale(0.015625)"/>
      <path id="DejaVuSans-Bold-5c" d="M 78 3500 
L 1197 3500 
L 2138 1125 
L 2938 3500 
L 4056 3500 
L 2584 -331 
Q 2363 -916 2067 -1148 
Q 1772 -1381 1288 -1381 
L 641 -1381 
L 641 -647 
L 991 -647 
Q 1275 -647 1404 -556 
Q 1534 -466 1606 -231 
L 1638 -134 
L 78 3500 
z
" transform="scale(0.015625)"/>
      <path id="DejaVuSans-Bold-57" d="M 1759 4494 
L 1759 3500 
L 2913 3500 
L 2913 2700 
L 1759 2700 
L 1759 1216 
Q 1759 972 1856 886 
Q 1953 800 2241 800 
L 2816 800 
L 2816 0 
L 1856 0 
Q 1194 0 917 276 
Q 641 553 641 1216 
L 641 2700 
L 84 2700 
L 84 3500 
L 641 3500 
L 641 4494 
L 1759 4494 
z
" transform="scale(0.015625)"/>
      <path id="DejaVuSans-Bold-4b" d="M 4056 2131 
L 4056 0 
L 2931 0 
L 2931 347 
L 2931 1625 
Q 2931 2084 2911 2256 
Q 2891 2428 2841 2509 
Q 2775 2619 2662 2680 
Q 2550 2741 2406 2741 
Q 2056 2741 1856 2470 
Q 1656 2200 1656 1722 
L 1656 0 
L 538 0 
L 538 4863 
L 1656 4863 
L 1656 2988 
Q 1909 3294 2193 3439 
Q 2478 3584 2822 3584 
Q 3428 3584 3742 3212 
Q 4056 2841 4056 2131 
z
" transform="scale(0.015625)"/>
      <path id="DejaVuSans-Bold-4c" d="M 538 3500 
L 1656 3500 
L 1656 0 
L 538 0 
L 538 3500 
z
M 538 4863 
L 1656 4863 
L 1656 3950 
L 538 3950 
L 538 4863 
z
" transform="scale(0.015625)"/>
      <path id="DejaVuSans-Bold-4a" d="M 2919 594 
Q 2688 288 2409 144 
Q 2131 0 1766 0 
Q 1125 0 706 504 
Q 288 1009 288 1791 
Q 288 2575 706 3076 
Q 1125 3578 1766 3578 
Q 2131 3578 2409 3434 
Q 2688 3291 2919 2981 
L 2919 3500 
L 4044 3500 
L 4044 353 
Q 4044 -491 3511 -936 
Q 2978 -1381 1966 -1381 
Q 1638 -1381 1331 -1331 
Q 1025 -1281 716 -1178 
L 716 -306 
Q 1009 -475 1290 -558 
Q 1572 -641 1856 -641 
Q 2406 -641 2662 -400 
Q 2919 -159 2919 353 
L 2919 594 
z
M 2181 2772 
Q 1834 2772 1640 2515 
Q 1447 2259 1447 1791 
Q 1447 1309 1634 1061 
Q 1822 813 2181 813 
Q 2531 813 2725 1069 
Q 2919 1325 2919 1791 
Q 2919 2259 2725 2515 
Q 2531 2772 2181 2772 
z
" transform="scale(0.015625)"/>
      <path id="DejaVuSans-Bold-c" d="M 513 -844 
Q 913 -100 1113 609 
Q 1313 1319 1313 2009 
Q 1313 2700 1113 3408 
Q 913 4116 513 4856 
L 1441 4856 
Q 1916 4091 2145 3389 
Q 2375 2688 2375 2003 
Q 2375 1319 2147 623 
Q 1919 -72 1441 -844 
L 513 -844 
z
" transform="scale(0.015625)"/>
      <path id="DejaVuSans-Bold-af6" d="M 344 2156 
L 6056 2156 
L 6056 1350 
L 344 1350 
L 344 2156 
z
" transform="scale(0.015625)"/>
      <path id="DejaVuSans-Bold-7" d="M 2484 -941 
L 1978 -941 
L 1975 0 
Q 1584 16 1218 87 
Q 853 159 506 288 
L 506 1106 
Q 866 922 1233 823 
Q 1600 725 1978 713 
L 1978 1684 
L 1875 1703 
Q 1128 1834 814 2115 
Q 500 2397 500 2925 
Q 500 3484 883 3798 
Q 1266 4113 1975 4141 
L 1978 4863 
L 2484 4863 
L 2484 4153 
Q 2797 4128 3109 4075 
Q 3422 4022 3738 3938 
L 3738 3144 
Q 3425 3275 3112 3348 
Q 2800 3422 2484 3438 
L 2484 2541 
L 2584 2522 
Q 3378 2397 3698 2105 
Q 4019 1813 4019 1241 
Q 4019 666 3637 358 
Q 3256 50 2484 6 
L 2484 -941 
z
M 1978 2613 
L 1978 3428 
Q 1756 3416 1623 3308 
Q 1491 3200 1491 3034 
Q 1491 2850 1612 2745 
Q 1734 2641 1978 2613 
z
M 2484 1594 
L 2484 725 
Q 2756 728 2892 831 
Q 3028 934 3028 1141 
Q 3028 1353 2903 1458 
Q 2778 1563 2484 1594 
z
" transform="scale(0.015625)"/>
      <path id="DejaVuSans-Bold-15" d="M 1844 884 
L 3897 884 
L 3897 0 
L 506 0 
L 506 884 
L 2209 2388 
Q 2438 2594 2547 2791 
Q 2656 2988 2656 3200 
Q 2656 3528 2436 3728 
Q 2216 3928 1850 3928 
Q 1569 3928 1234 3808 
Q 900 3688 519 3450 
L 519 4475 
Q 925 4609 1322 4679 
Q 1719 4750 2100 4750 
Q 2938 4750 3402 4381 
Q 3866 4013 3866 3353 
Q 3866 2972 3669 2642 
Q 3472 2313 2841 1759 
L 1844 884 
z
" transform="scale(0.015625)"/>
      <path id="DejaVuSans-Bold-17" d="M 2356 3675 
L 1038 1722 
L 2356 1722 
L 2356 3675 
z
M 2156 4666 
L 3494 4666 
L 3494 1722 
L 4159 1722 
L 4159 850 
L 3494 850 
L 3494 0 
L 2356 0 
L 2356 850 
L 288 850 
L 288 1881 
L 2156 4666 
z
" transform="scale(0.015625)"/>
      <path id="DejaVuSans-Bold-1a" d="M 428 4666 
L 3944 4666 
L 3944 3988 
L 2125 0 
L 953 0 
L 2675 3781 
L 428 3781 
L 428 4666 
z
" transform="scale(0.015625)"/>
      <path id="DejaVuSans-Bold-11" d="M 653 1209 
L 1778 1209 
L 1778 0 
L 653 0 
L 653 1209 
z
" transform="scale(0.015625)"/>
      <path id="DejaVuSans-Bold-13" d="M 2944 2338 
Q 2944 3213 2780 3570 
Q 2616 3928 2228 3928 
Q 1841 3928 1675 3570 
Q 1509 3213 1509 2338 
Q 1509 1453 1675 1090 
Q 1841 728 2228 728 
Q 2613 728 2778 1090 
Q 2944 1453 2944 2338 
z
M 4147 2328 
Q 4147 1169 3647 539 
Q 3147 -91 2228 -91 
Q 1306 -91 806 539 
Q 306 1169 306 2328 
Q 306 3491 806 4120 
Q 1306 4750 2228 4750 
Q 3147 4750 3647 4120 
Q 4147 3491 4147 2328 
z
" transform="scale(0.015625)"/>
      <path id="DejaVuSans-Bold-14" d="M 750 831 
L 1813 831 
L 1813 3847 
L 722 3622 
L 722 4441 
L 1806 4666 
L 2950 4666 
L 2950 831 
L 4013 831 
L 4013 0 
L 750 0 
L 750 831 
z
" transform="scale(0.015625)"/>
      <path id="DejaVuSans-Bold-16" d="M 2981 2516 
Q 3453 2394 3698 2092 
Q 3944 1791 3944 1325 
Q 3944 631 3412 270 
Q 2881 -91 1863 -91 
Q 1503 -91 1142 -33 
Q 781 25 428 141 
L 428 1069 
Q 766 900 1098 814 
Q 1431 728 1753 728 
Q 2231 728 2486 893 
Q 2741 1059 2741 1369 
Q 2741 1688 2480 1852 
Q 2219 2016 1709 2016 
L 1228 2016 
L 1228 2791 
L 1734 2791 
Q 2188 2791 2409 2933 
Q 2631 3075 2631 3366 
Q 2631 3634 2415 3781 
Q 2200 3928 1806 3928 
Q 1516 3928 1219 3862 
Q 922 3797 628 3669 
L 628 4550 
Q 984 4650 1334 4700 
Q 1684 4750 2022 4750 
Q 2931 4750 3382 4451 
Q 3834 4153 3834 3553 
Q 3834 3144 3618 2883 
Q 3403 2622 2981 2516 
z
" transform="scale(0.015625)"/>
      <path id="DejaVuSans-Bold-8" d="M 4959 1925 
Q 4738 1925 4616 1733 
Q 4494 1541 4494 1184 
Q 4494 825 4614 633 
Q 4734 441 4959 441 
Q 5184 441 5303 633 
Q 5422 825 5422 1184 
Q 5422 1541 5301 1733 
Q 5181 1925 4959 1925 
z
M 4959 2450 
Q 5541 2450 5875 2112 
Q 6209 1775 6209 1184 
Q 6209 594 5875 251 
Q 5541 -91 4959 -91 
Q 4378 -91 4042 251 
Q 3706 594 3706 1184 
Q 3706 1772 4042 2111 
Q 4378 2450 4959 2450 
z
M 2094 -91 
L 1403 -91 
L 4319 4750 
L 5013 4750 
L 2094 -91 
z
M 1453 4750 
Q 2034 4750 2367 4411 
Q 2700 4072 2700 3481 
Q 2700 2891 2367 2550 
Q 2034 2209 1453 2209 
Q 872 2209 539 2550 
Q 206 2891 206 3481 
Q 206 4072 539 4411 
Q 872 4750 1453 4750 
z
M 1453 4225 
Q 1228 4225 1106 4031 
Q 984 3838 984 3481 
Q 984 3122 1106 2926 
Q 1228 2731 1453 2731 
Q 1678 2731 1798 2926 
Q 1919 3122 1919 3481 
Q 1919 3838 1797 4031 
Q 1675 4225 1453 4225 
z
" transform="scale(0.015625)"/>
     </defs>
     <use xlink:href="#DejaVuSans-Bold-26"/>
     <use xlink:href="#DejaVuSans-Bold-2f" transform="translate(73.390625 0)"/>
     <use xlink:href="#DejaVuSans-Bold-2c" transform="translate(137.109375 0)"/>
     <use xlink:href="#DejaVuSans-Bold-24" transform="translate(174.3125 0)"/>
     <use xlink:href="#DejaVuSans-Bold-31" transform="translate(251.703125 0)"/>
     <use xlink:href="#DejaVuSans-Bold-3c" transform="translate(335.390625 0)"/>
     <use xlink:href="#DejaVuSans-Bold-37" transform="translate(407.796875 0)"/>
     <use xlink:href="#DejaVuSans-Bold-2b" transform="translate(476.015625 0)"/>
     <use xlink:href="#DejaVuSans-Bold-2c" transform="translate(559.703125 0)"/>
     <use xlink:href="#DejaVuSans-Bold-31" transform="translate(596.90625 0)"/>
     <use xlink:href="#DejaVuSans-Bold-2a" transform="translate(680.59375 0)"/>
     <use xlink:href="#DejaVuSans-Bold-3" transform="translate(762.671875 0)"/>
     <use xlink:href="#DejaVuSans-Bold-b" transform="translate(797.484375 0)"/>
     <use xlink:href="#DejaVuSans-Bold-2b" transform="translate(843.1875 0)"/>
     <use xlink:href="#DejaVuSans-Bold-2e" transform="translate(926.875 0)"/>
     <use xlink:href="#DejaVuSans-Bold-38" transform="translate(1002.609375 0)"/>
     <use xlink:href="#DejaVuSans-Bold-27" transform="translate(1083.8125 0)"/>
     <use xlink:href="#DejaVuSans-Bold-36" transform="translate(1166.828125 0)"/>
     <use xlink:href="#DejaVuSans-Bold-12" transform="translate(1238.84375 0)"/>
     <use xlink:href="#DejaVuSans-Bold-26" transform="translate(1275.375 0)"/>
     <use xlink:href="#DejaVuSans-Bold-2f" transform="translate(1348.765625 0)"/>
     <use xlink:href="#DejaVuSans-Bold-2c" transform="translate(1412.484375 0)"/>
     <use xlink:href="#DejaVuSans-Bold-10" transform="translate(1449.6875 0)"/>
     <use xlink:href="#DejaVuSans-Bold-24" transform="translate(1491.1875 0)"/>
     <use xlink:href="#DejaVuSans-Bold-51" transform="translate(1568.578125 0)"/>
     <use xlink:href="#DejaVuSans-Bold-5c" transform="translate(1639.765625 0)"/>
     <use xlink:href="#DejaVuSans-Bold-57" transform="translate(1704.953125 0)"/>
     <use xlink:href="#DejaVuSans-Bold-4b" transform="translate(1752.75 0)"/>
     <use xlink:href="#DejaVuSans-Bold-4c" transform="translate(1823.9375 0)"/>
     <use xlink:href="#DejaVuSans-Bold-51" transform="translate(1858.21875 0)"/>
     <use xlink:href="#DejaVuSans-Bold-4a" transform="translate(1929.40625 0)"/>
     <use xlink:href="#DejaVuSans-Bold-c" transform="translate(2000.984375 0)"/>
     <use xlink:href="#DejaVuSans-Bold-3" transform="translate(2046.6875 0)"/>
     <use xlink:href="#DejaVuSans-Bold-af6" transform="translate(2081.5 0)"/>
     <use xlink:href="#DejaVuSans-Bold-3" transform="translate(2181.5 0)"/>
     <use xlink:href="#DejaVuSans-Bold-7" transform="translate(2216.3125 0)"/>
     <use xlink:href="#DejaVuSans-Bold-15" transform="translate(2285.890625 0)"/>
     <use xlink:href="#DejaVuSans-Bold-17" transform="translate(2355.46875 0)"/>
     <use xlink:href="#DejaVuSans-Bold-1a" transform="translate(2425.046875 0)"/>
     <use xlink:href="#DejaVuSans-Bold-11" transform="translate(2494.625 0)"/>
     <use xlink:href="#DejaVuSans-Bold-13" transform="translate(2532.609375 0)"/>
     <use xlink:href="#DejaVuSans-Bold-14" transform="translate(2602.1875 0)"/>
     <use xlink:href="#DejaVuSans-Bold-3" transform="translate(2671.765625 0)"/>
     <use xlink:href="#DejaVuSans-Bold-b" transform="translate(2706.578125 0)"/>
     <use xlink:href="#DejaVuSans-Bold-10" transform="translate(2752.28125 0)"/>
     <use xlink:href="#DejaVuSans-Bold-13" transform="translate(2793.78125 0)"/>
     <use xlink:href="#DejaVuSans-Bold-11" transform="translate(2863.359375 0)"/>
     <use xlink:href="#DejaVuSans-Bold-17" transform="translate(2901.34375 0)"/>
     <use xlink:href="#DejaVuSans-Bold-16" transform="translate(2970.921875 0)"/>
     <use xlink:href="#DejaVuSans-Bold-8" transform="translate(3040.5 0)"/>
     <use xlink:href="#DejaVuSans-Bold-c" transform="translate(3140.703125 0)"/>
    </g>
   </g>
  </g>
 </g>
 <defs>
  <clipPath id="p2fc03a5b2c">
   <rect x="34.56" y="21.558281" width="383.24" height="128.76"/>
  </clipPath>
 </defs>
</svg>
