<?xml version="1.0" encoding="utf-8" standalone="no"?>
<!DOCTYPE svg PUBLIC "-//W3C//DTD SVG 1.1//EN"
  "http://www.w3.org/Graphics/SVG/1.1/DTD/svg11.dtd">
<svg xmlns:xlink="http://www.w3.org/1999/xlink" width="424.91pt" height="173.060781pt" viewBox="0 0 424.91 173.060781" xmlns="http://www.w3.org/2000/svg" version="1.1">
 <metadata>
  <rdf:RDF xmlns:dc="http://purl.org/dc/elements/1.1/" xmlns:cc="http://creativecommons.org/ns#" xmlns:rdf="http://www.w3.org/1999/02/22-rdf-syntax-ns#">
   <cc:Work>
    <dc:type rdf:resource="http://purl.org/dc/dcmitype/StillImage"/>
    <dc:date>2026-04-22T00:19:11.844759</dc:date>
    <dc:format>image/svg+xml</dc:format>
    <dc:creator>
     <cc:Agent>
      <dc:title>Matplotlib v3.10.8, https://matplotlib.org/</dc:title>
     </cc:Agent>
    </dc:creator>
   </cc:Work>
  </rdf:RDF>
 </metadata>
 <defs>
  <style type="text/css">*{stroke-linejoin: round; stroke-linecap: butt}</style>
 </defs>
 <g id="figure_1">
  <g id="patch_1">
   <path d="M 0 173.060781 
L 424.91 173.060781 
L 424.91 0 
L 0 0 
z
" style="fill: #0d1117"/>
  </g>
  <g id="axes_1">
   <g id="patch_2">
    <path d="M 34.56 151.118281 
L 417.71 151.118281 
L 417.71 21.558281 
L 34.56 21.558281 
z
" style="fill: #0d1117"/>
   </g>
   <g id="FillBetweenPolyCollection_1">
    <defs>
     <path id="mcfb938f2b6" d="M 51.975909 -27.831591 
L 51.975909 -85.21562 
L 54.902953 -97.558089 
L 57.829996 -116.604379 
L 60.75704 -102.427447 
L 63.684083 -115.380699 
L 66.611127 -108.810025 
L 69.53817 -113.003083 
L 72.465214 -101.784962 
L 75.392257 -117.950638 
L 78.319301 -111.802651 
L 81.246345 -118.373326 
L 84.173388 -117.399031 
L 87.100432 -118.335284 
L 90.027475 -115.706169 
L 92.954519 -118.789673 
L 95.881562 -115.435649 
L 98.808606 -114.98126 
L 101.735649 -117.658984 
L 104.662693 -114.467695 
L 107.589736 -115.87313 
L 110.51678 -97.680668 
L 113.443824 -116.120402 
L 116.370867 -90.924012 
L 119.297911 -117.067222 
L 122.224954 -99.920911 
L 125.151998 -118.407141 
L 128.079041 -114.628316 
L 131.006085 -112.565602 
L 133.933128 -109.989323 
L 136.860172 -107.364435 
L 139.787215 -85.441757 
L 142.714259 -83.617862 
L 145.641303 -85.608719 
L 148.568346 -83.901062 
L 151.49539 -85.574904 
L 154.422433 -118.929159 
L 157.349477 -114.144339 
L 160.27652 -116.917168 
L 163.203564 -103.162923 
L 166.130607 -83.43822 
L 169.057651 -88.827483 
L 171.984694 -104.965684 
L 174.911738 -103.029776 
L 177.838782 -119.322259 
L 180.765825 -104.056906 
L 183.692869 -117.798471 
L 186.619912 -115.025642 
L 189.546956 -101.246036 
L 192.473999 -121.355385 
L 195.401043 -115.179923 
L 198.328086 -116.095041 
L 201.25513 -118.303582 
L 204.182173 -122.07184 
L 207.109217 -120.64527 
L 210.036261 -121.141927 
L 212.963304 -120.537485 
L 215.890348 -121.744257 
L 218.817391 -141.006117 
L 221.744435 -132.856706 
L 224.671478 -109.137608 
L 227.598522 -114.905176 
L 230.525565 -120.592434 
L 233.452609 -105.893483 
L 236.379652 -114.653677 
L 239.306696 -111.952705 
L 242.233739 -112.375393 
L 245.160783 -110.07386 
L 248.087827 -112.709316 
L 251.01487 -107.863206 
L 253.941914 -106.688135 
L 256.868957 -84.583702 
L 259.796001 -109.025596 
L 262.723044 -97.213599 
L 265.650088 -117.658984 
L 268.577131 -99.785651 
L 271.504175 -102.021667 
L 274.431218 -116.731185 
L 277.358262 -95.913835 
L 280.285306 -121.425128 
L 283.212349 -114.30496 
L 286.139393 -118.159868 
L 289.066436 -117.38001 
L 291.99348 -115.579362 
L 294.920523 -121.237032 
L 297.847567 -116.160558 
L 300.77461 -145.613409 
L 303.701654 -113.06226 
L 306.628697 -118.307809 
L 309.555741 -114.869248 
L 312.482785 -114.915743 
L 315.409828 -118.312036 
L 318.336872 -114.370477 
L 321.263915 -116.316952 
L 324.190959 -114.368363 
L 327.118002 -86.887348 
L 330.045046 -100.447157 
L 332.972089 -93.977928 
L 335.899133 -94.020196 
L 338.826176 -87.937726 
L 341.75322 -114.36625 
L 344.680264 -109.015029 
L 347.607307 -110.06752 
L 350.534351 -99.141053 
L 353.461394 -112.013995 
L 356.388438 -107.611707 
L 359.315481 -107.837844 
L 362.242525 -107.947743 
L 365.169568 -105.680026 
L 368.096612 -108.163314 
L 371.023655 -101.713105 
L 373.950699 -105.882916 
L 376.877743 -114.032327 
L 379.804786 -81.67984 
L 382.73183 -87.599576 
L 385.658873 -110.179532 
L 388.585917 -102.793071 
L 391.51296 -105.054449 
L 394.440004 -104.118196 
L 397.367047 -116.28525 
L 400.294091 -107.19536 
L 400.294091 -27.831591 
L 400.294091 -27.831591 
L 397.367047 -27.831591 
L 394.440004 -27.831591 
L 391.51296 -27.831591 
L 388.585917 -27.831591 
L 385.658873 -27.831591 
L 382.73183 -27.831591 
L 379.804786 -27.831591 
L 376.877743 -27.831591 
L 373.950699 -27.831591 
L 371.023655 -27.831591 
L 368.096612 -27.831591 
L 365.169568 -27.831591 
L 362.242525 -27.831591 
L 359.315481 -27.831591 
L 356.388438 -27.831591 
L 353.461394 -27.831591 
L 350.534351 -27.831591 
L 347.607307 -27.831591 
L 344.680264 -27.831591 
L 341.75322 -27.831591 
L 338.826176 -27.831591 
L 335.899133 -27.831591 
L 332.972089 -27.831591 
L 330.045046 -27.831591 
L 327.118002 -27.831591 
L 324.190959 -27.831591 
L 321.263915 -27.831591 
L 318.336872 -27.831591 
L 315.409828 -27.831591 
L 312.482785 -27.831591 
L 309.555741 -27.831591 
L 306.628697 -27.831591 
L 303.701654 -27.831591 
L 300.77461 -27.831591 
L 297.847567 -27.831591 
L 294.920523 -27.831591 
L 291.99348 -27.831591 
L 289.066436 -27.831591 
L 286.139393 -27.831591 
L 283.212349 -27.831591 
L 280.285306 -27.831591 
L 277.358262 -27.831591 
L 274.431218 -27.831591 
L 271.504175 -27.831591 
L 268.577131 -27.831591 
L 265.650088 -27.831591 
L 262.723044 -27.831591 
L 259.796001 -27.831591 
L 256.868957 -27.831591 
L 253.941914 -27.831591 
L 251.01487 -27.831591 
L 248.087827 -27.831591 
L 245.160783 -27.831591 
L 242.233739 -27.831591 
L 239.306696 -27.831591 
L 236.379652 -27.831591 
L 233.452609 -27.831591 
L 230.525565 -27.831591 
L 227.598522 -27.831591 
L 224.671478 -27.831591 
L 221.744435 -27.831591 
L 218.817391 -27.831591 
L 215.890348 -27.831591 
L 212.963304 -27.831591 
L 210.036261 -27.831591 
L 207.109217 -27.831591 
L 204.182173 -27.831591 
L 201.25513 -27.831591 
L 198.328086 -27.831591 
L 195.401043 -27.831591 
L 192.473999 -27.831591 
L 189.546956 -27.831591 
L 186.619912 -27.831591 
L 183.692869 -27.831591 
L 180.765825 -27.831591 
L 177.838782 -27.831591 
L 174.911738 -27.831591 
L 171.984694 -27.831591 
L 169.057651 -27.831591 
L 166.130607 -27.831591 
L 163.203564 -27.831591 
L 160.27652 -27.831591 
L 157.349477 -27.831591 
L 154.422433 -27.831591 
L 151.49539 -27.831591 
L 148.568346 -27.831591 
L 145.641303 -27.831591 
L 142.714259 -27.831591 
L 139.787215 -27.831591 
L 136.860172 -27.831591 
L 133.933128 -27.831591 
L 131.006085 -27.831591 
L 128.079041 -27.831591 
L 125.151998 -27.831591 
L 122.224954 -27.831591 
L 119.297911 -27.831591 
L 116.370867 -27.831591 
L 113.443824 -27.831591 
L 110.51678 -27.831591 
L 107.589736 -27.831591 
L 104.662693 -27.831591 
L 101.735649 -27.831591 
L 98.808606 -27.831591 
L 95.881562 -27.831591 
L 92.954519 -27.831591 
L 90.027475 -27.831591 
L 87.100432 -27.831591 
L 84.173388 -27.831591 
L 81.246345 -27.831591 
L 78.319301 -27.831591 
L 75.392257 -27.831591 
L 72.465214 -27.831591 
L 69.53817 -27.831591 
L 66.611127 -27.831591 
L 63.684083 -27.831591 
L 60.75704 -27.831591 
L 57.829996 -27.831591 
L 54.902953 -27.831591 
L 51.975909 -27.831591 
z
" style="stroke: #3fb950; stroke-opacity: 0.15"/>
    </defs>
    <g clip-path="url(#pb77fd98549)">
     <use xlink:href="#mcfb938f2b6" x="0" y="173.060781" style="fill: #3fb950; fill-opacity: 0.15; stroke: #3fb950; stroke-opacity: 0.15"/>
    </g>
   </g>
   <g id="matplotlib.axis_1">
    <g id="xtick_1">
     <g id="line2d_1">
      <path d="M 51.975909 151.118281 
L 51.975909 21.558281 
" clip-path="url(#pb77fd98549)" style="fill: none; stroke: #21262d; stroke-opacity: 0.5; stroke-width: 0.5; stroke-linecap: square"/>
     </g>
     <g id="line2d_2">
      <defs>
       <path id="m3ae1e98ab0" d="M 0 0 
L 0 3.5 
" style="stroke: #c9d1d9; stroke-width: 0.8"/>
      </defs>
      <g>
       <use xlink:href="#m3ae1e98ab0" x="51.975909" y="151.118281" style="fill: #c9d1d9; stroke: #c9d1d9; stroke-width: 0.8"/>
      </g>
     </g>
     <g id="text_1">
      <!-- 0 -->
      <g style="fill: #c9d1d9" transform="translate(49.430909 164.197031) scale(0.08 -0.08)">
       <defs>
        <path id="DejaVuSans-30" d="M 2034 4250 
Q 1547 4250 1301 3770 
Q 1056 3291 1056 2328 
Q 1056 1369 1301 889 
Q 1547 409 2034 409 
Q 2525 409 2770 889 
Q 3016 1369 3016 2328 
Q 3016 3291 2770 3770 
Q 2525 4250 2034 4250 
z
M 2034 4750 
Q 2819 4750 3233 4129 
Q 3647 3509 3647 2328 
Q 3647 1150 3233 529 
Q 2819 -91 2034 -91 
Q 1250 -91 836 529 
Q 422 1150 422 2328 
Q 422 3509 836 4129 
Q 1250 4750 2034 4750 
z
" transform="scale(0.015625)"/>
       </defs>
       <use xlink:href="#DejaVuSans-30"/>
      </g>
     </g>
    </g>
    <g id="xtick_2">
     <g id="line2d_3">
      <path d="M 110.51678 151.118281 
L 110.51678 21.558281 
" clip-path="url(#pb77fd98549)" style="fill: none; stroke: #21262d; stroke-opacity: 0.5; stroke-width: 0.5; stroke-linecap: square"/>
     </g>
     <g id="line2d_4">
      <g>
       <use xlink:href="#m3ae1e98ab0" x="110.51678" y="151.118281" style="fill: #c9d1d9; stroke: #c9d1d9; stroke-width: 0.8"/>
      </g>
     </g>
     <g id="text_2">
      <!-- 20 -->
      <g style="fill: #c9d1d9" transform="translate(105.42678 164.197031) scale(0.08 -0.08)">
       <defs>
        <path id="DejaVuSans-32" d="M 1228 531 
L 3431 531 
L 3431 0 
L 469 0 
L 469 531 
Q 828 903 1448 1529 
Q 2069 2156 2228 2338 
Q 2531 2678 2651 2914 
Q 2772 3150 2772 3378 
Q 2772 3750 2511 3984 
Q 2250 4219 1831 4219 
Q 1534 4219 1204 4116 
Q 875 4013 500 3803 
L 500 4441 
Q 881 4594 1212 4672 
Q 1544 4750 1819 4750 
Q 2544 4750 2975 4387 
Q 3406 4025 3406 3419 
Q 3406 3131 3298 2873 
Q 3191 2616 2906 2266 
Q 2828 2175 2409 1742 
Q 1991 1309 1228 531 
z
" transform="scale(0.015625)"/>
       </defs>
       <use xlink:href="#DejaVuSans-32"/>
       <use xlink:href="#DejaVuSans-30" transform="translate(63.623047 0)"/>
      </g>
     </g>
    </g>
    <g id="xtick_3">
     <g id="line2d_5">
      <path d="M 169.057651 151.118281 
L 169.057651 21.558281 
" clip-path="url(#pb77fd98549)" style="fill: none; stroke: #21262d; stroke-opacity: 0.5; stroke-width: 0.5; stroke-linecap: square"/>
     </g>
     <g id="line2d_6">
      <g>
       <use xlink:href="#m3ae1e98ab0" x="169.057651" y="151.118281" style="fill: #c9d1d9; stroke: #c9d1d9; stroke-width: 0.8"/>
      </g>
     </g>
     <g id="text_3">
      <!-- 40 -->
      <g style="fill: #c9d1d9" transform="translate(163.967651 164.197031) scale(0.08 -0.08)">
       <defs>
        <path id="DejaVuSans-34" d="M 2419 4116 
L 825 1625 
L 2419 1625 
L 2419 4116 
z
M 2253 4666 
L 3047 4666 
L 3047 1625 
L 3713 1625 
L 3713 1100 
L 3047 1100 
L 3047 0 
L 2419 0 
L 2419 1100 
L 313 1100 
L 313 1709 
L 2253 4666 
z
" transform="scale(0.015625)"/>
       </defs>
       <use xlink:href="#DejaVuSans-34"/>
       <use xlink:href="#DejaVuSans-30" transform="translate(63.623047 0)"/>
      </g>
     </g>
    </g>
    <g id="xtick_4">
     <g id="line2d_7">
      <path d="M 227.598522 151.118281 
L 227.598522 21.558281 
" clip-path="url(#pb77fd98549)" style="fill: none; stroke: #21262d; stroke-opacity: 0.5; stroke-width: 0.5; stroke-linecap: square"/>
     </g>
     <g id="line2d_8">
      <g>
       <use xlink:href="#m3ae1e98ab0" x="227.598522" y="151.118281" style="fill: #c9d1d9; stroke: #c9d1d9; stroke-width: 0.8"/>
      </g>
     </g>
     <g id="text_4">
      <!-- 60 -->
      <g style="fill: #c9d1d9" transform="translate(222.508522 164.197031) scale(0.08 -0.08)">
       <defs>
        <path id="DejaVuSans-36" d="M 2113 2584 
Q 1688 2584 1439 2293 
Q 1191 2003 1191 1497 
Q 1191 994 1439 701 
Q 1688 409 2113 409 
Q 2538 409 2786 701 
Q 3034 994 3034 1497 
Q 3034 2003 2786 2293 
Q 2538 2584 2113 2584 
z
M 3366 4563 
L 3366 3988 
Q 3128 4100 2886 4159 
Q 2644 4219 2406 4219 
Q 1781 4219 1451 3797 
Q 1122 3375 1075 2522 
Q 1259 2794 1537 2939 
Q 1816 3084 2150 3084 
Q 2853 3084 3261 2657 
Q 3669 2231 3669 1497 
Q 3669 778 3244 343 
Q 2819 -91 2113 -91 
Q 1303 -91 875 529 
Q 447 1150 447 2328 
Q 447 3434 972 4092 
Q 1497 4750 2381 4750 
Q 2619 4750 2861 4703 
Q 3103 4656 3366 4563 
z
" transform="scale(0.015625)"/>
       </defs>
       <use xlink:href="#DejaVuSans-36"/>
       <use xlink:href="#DejaVuSans-30" transform="translate(63.623047 0)"/>
      </g>
     </g>
    </g>
    <g id="xtick_5">
     <g id="line2d_9">
      <path d="M 286.139393 151.118281 
L 286.139393 21.558281 
" clip-path="url(#pb77fd98549)" style="fill: none; stroke: #21262d; stroke-opacity: 0.5; stroke-width: 0.5; stroke-linecap: square"/>
     </g>
     <g id="line2d_10">
      <g>
       <use xlink:href="#m3ae1e98ab0" x="286.139393" y="151.118281" style="fill: #c9d1d9; stroke: #c9d1d9; stroke-width: 0.8"/>
      </g>
     </g>
     <g id="text_5">
      <!-- 80 -->
      <g style="fill: #c9d1d9" transform="translate(281.049393 164.197031) scale(0.08 -0.08)">
       <defs>
        <path id="DejaVuSans-38" d="M 2034 2216 
Q 1584 2216 1326 1975 
Q 1069 1734 1069 1313 
Q 1069 891 1326 650 
Q 1584 409 2034 409 
Q 2484 409 2743 651 
Q 3003 894 3003 1313 
Q 3003 1734 2745 1975 
Q 2488 2216 2034 2216 
z
M 1403 2484 
Q 997 2584 770 2862 
Q 544 3141 544 3541 
Q 544 4100 942 4425 
Q 1341 4750 2034 4750 
Q 2731 4750 3128 4425 
Q 3525 4100 3525 3541 
Q 3525 3141 3298 2862 
Q 3072 2584 2669 2484 
Q 3125 2378 3379 2068 
Q 3634 1759 3634 1313 
Q 3634 634 3220 271 
Q 2806 -91 2034 -91 
Q 1263 -91 848 271 
Q 434 634 434 1313 
Q 434 1759 690 2068 
Q 947 2378 1403 2484 
z
M 1172 3481 
Q 1172 3119 1398 2916 
Q 1625 2713 2034 2713 
Q 2441 2713 2670 2916 
Q 2900 3119 2900 3481 
Q 2900 3844 2670 4047 
Q 2441 4250 2034 4250 
Q 1625 4250 1398 4047 
Q 1172 3844 1172 3481 
z
" transform="scale(0.015625)"/>
       </defs>
       <use xlink:href="#DejaVuSans-38"/>
       <use xlink:href="#DejaVuSans-30" transform="translate(63.623047 0)"/>
      </g>
     </g>
    </g>
    <g id="xtick_6">
     <g id="line2d_11">
      <path d="M 344.680264 151.118281 
L 344.680264 21.558281 
" clip-path="url(#pb77fd98549)" style="fill: none; stroke: #21262d; stroke-opacity: 0.5; stroke-width: 0.5; stroke-linecap: square"/>
     </g>
     <g id="line2d_12">
      <g>
       <use xlink:href="#m3ae1e98ab0" x="344.680264" y="151.118281" style="fill: #c9d1d9; stroke: #c9d1d9; stroke-width: 0.8"/>
      </g>
     </g>
     <g id="text_6">
      <!-- 100 -->
      <g style="fill: #c9d1d9" transform="translate(337.045264 164.197031) scale(0.08 -0.08)">
       <defs>
        <path id="DejaVuSans-31" d="M 794 531 
L 1825 531 
L 1825 4091 
L 703 3866 
L 703 4441 
L 1819 4666 
L 2450 4666 
L 2450 531 
L 3481 531 
L 3481 0 
L 794 0 
L 794 531 
z
" transform="scale(0.015625)"/>
       </defs>
       <use xlink:href="#DejaVuSans-31"/>
       <use xlink:href="#DejaVuSans-30" transform="translate(63.623047 0)"/>
       <use xlink:href="#DejaVuSans-30" transform="translate(127.246094 0)"/>
      </g>
     </g>
    </g>
    <g id="xtick_7">
     <g id="line2d_13">
      <path d="M 403.221134 151.118281 
L 403.221134 21.558281 
" clip-path="url(#pb77fd98549)" style="fill: none; stroke: #21262d; stroke-opacity: 0.5; stroke-width: 0.5; stroke-linecap: square"/>
     </g>
     <g id="line2d_14">
      <g>
       <use xlink:href="#m3ae1e98ab0" x="403.221134" y="151.118281" style="fill: #c9d1d9; stroke: #c9d1d9; stroke-width: 0.8"/>
      </g>
     </g>
     <g id="text_7">
      <!-- 120 -->
      <g style="fill: #c9d1d9" transform="translate(395.586134 164.197031) scale(0.08 -0.08)">
       <use xlink:href="#DejaVuSans-31"/>
       <use xlink:href="#DejaVuSans-32" transform="translate(63.623047 0)"/>
       <use xlink:href="#DejaVuSans-30" transform="translate(127.246094 0)"/>
      </g>
     </g>
    </g>
   </g>
   <g id="matplotlib.axis_2">
    <g id="ytick_1">
     <g id="line2d_15">
      <path d="M 34.56 145.22919 
L 417.71 145.22919 
" clip-path="url(#pb77fd98549)" style="fill: none; stroke: #21262d; stroke-opacity: 0.5; stroke-width: 0.5; stroke-linecap: square"/>
     </g>
     <g id="line2d_16">
      <defs>
       <path id="m6ed69479d2" d="M 0 0 
L -3.5 0 
" style="stroke: #c9d1d9; stroke-width: 0.8"/>
      </defs>
      <g>
       <use xlink:href="#m6ed69479d2" x="34.56" y="145.22919" style="fill: #c9d1d9; stroke: #c9d1d9; stroke-width: 0.8"/>
      </g>
     </g>
     <g id="text_8">
      <!-- $0 -->
      <g style="fill: #c9d1d9" transform="translate(17.38 148.268565) scale(0.08 -0.08)">
       <defs>
        <path id="DejaVuSans-24" d="M 2163 -941 
L 1850 -941 
L 1847 0 
Q 1519 6 1191 76 
Q 863 147 531 288 
L 531 850 
Q 850 650 1176 548 
Q 1503 447 1850 444 
L 1850 1869 
Q 1159 1981 845 2250 
Q 531 2519 531 2988 
Q 531 3497 872 3790 
Q 1213 4084 1850 4128 
L 1850 4863 
L 2163 4863 
L 2163 4138 
Q 2453 4125 2725 4076 
Q 2997 4028 3256 3944 
L 3256 3397 
Q 2997 3528 2723 3600 
Q 2450 3672 2163 3684 
L 2163 2350 
Q 2872 2241 3206 1959 
Q 3541 1678 3541 1191 
Q 3541 663 3186 358 
Q 2831 53 2163 6 
L 2163 -941 
z
M 1850 2406 
L 1850 3688 
Q 1488 3647 1297 3481 
Q 1106 3316 1106 3041 
Q 1106 2772 1282 2622 
Q 1459 2472 1850 2406 
z
M 2163 1806 
L 2163 453 
Q 2559 506 2761 678 
Q 2963 850 2963 1131 
Q 2963 1406 2770 1568 
Q 2578 1731 2163 1806 
z
" transform="scale(0.015625)"/>
       </defs>
       <use xlink:href="#DejaVuSans-24"/>
       <use xlink:href="#DejaVuSans-30" transform="translate(63.623047 0)"/>
      </g>
     </g>
    </g>
    <g id="ytick_2">
     <g id="line2d_17">
      <path d="M 34.56 124.094825 
L 417.71 124.094825 
" clip-path="url(#pb77fd98549)" style="fill: none; stroke: #21262d; stroke-opacity: 0.5; stroke-width: 0.5; stroke-linecap: square"/>
     </g>
     <g id="line2d_18">
      <g>
       <use xlink:href="#m6ed69479d2" x="34.56" y="124.094825" style="fill: #c9d1d9; stroke: #c9d1d9; stroke-width: 0.8"/>
      </g>
     </g>
     <g id="text_9">
      <!-- $100 -->
      <g style="fill: #c9d1d9" transform="translate(7.2 127.1342) scale(0.08 -0.08)">
       <use xlink:href="#DejaVuSans-24"/>
       <use xlink:href="#DejaVuSans-31" transform="translate(63.623047 0)"/>
       <use xlink:href="#DejaVuSans-30" transform="translate(127.246094 0)"/>
       <use xlink:href="#DejaVuSans-30" transform="translate(190.869141 0)"/>
      </g>
     </g>
    </g>
    <g id="ytick_3">
     <g id="line2d_19">
      <path d="M 34.56 102.96046 
L 417.71 102.96046 
" clip-path="url(#pb77fd98549)" style="fill: none; stroke: #21262d; stroke-opacity: 0.5; stroke-width: 0.5; stroke-linecap: square"/>
     </g>
     <g id="line2d_20">
      <g>
       <use xlink:href="#m6ed69479d2" x="34.56" y="102.96046" style="fill: #c9d1d9; stroke: #c9d1d9; stroke-width: 0.8"/>
      </g>
     </g>
     <g id="text_10">
      <!-- $200 -->
      <g style="fill: #c9d1d9" transform="translate(7.2 105.999835) scale(0.08 -0.08)">
       <use xlink:href="#DejaVuSans-24"/>
       <use xlink:href="#DejaVuSans-32" transform="translate(63.623047 0)"/>
       <use xlink:href="#DejaVuSans-30" transform="translate(127.246094 0)"/>
       <use xlink:href="#DejaVuSans-30" transform="translate(190.869141 0)"/>
      </g>
     </g>
    </g>
    <g id="ytick_4">
     <g id="line2d_21">
      <path d="M 34.56 81.826094 
L 417.71 81.826094 
" clip-path="url(#pb77fd98549)" style="fill: none; stroke: #21262d; stroke-opacity: 0.5; stroke-width: 0.5; stroke-linecap: square"/>
     </g>
     <g id="line2d_22">
      <g>
       <use xlink:href="#m6ed69479d2" x="34.56" y="81.826094" style="fill: #c9d1d9; stroke: #c9d1d9; stroke-width: 0.8"/>
      </g>
     </g>
     <g id="text_11">
      <!-- $300 -->
      <g style="fill: #c9d1d9" transform="translate(7.2 84.865469) scale(0.08 -0.08)">
       <defs>
        <path id="DejaVuSans-33" d="M 2597 2516 
Q 3050 2419 3304 2112 
Q 3559 1806 3559 1356 
Q 3559 666 3084 287 
Q 2609 -91 1734 -91 
Q 1441 -91 1130 -33 
Q 819 25 488 141 
L 488 750 
Q 750 597 1062 519 
Q 1375 441 1716 441 
Q 2309 441 2620 675 
Q 2931 909 2931 1356 
Q 2931 1769 2642 2001 
Q 2353 2234 1838 2234 
L 1294 2234 
L 1294 2753 
L 1863 2753 
Q 2328 2753 2575 2939 
Q 2822 3125 2822 3475 
Q 2822 3834 2567 4026 
Q 2313 4219 1838 4219 
Q 1578 4219 1281 4162 
Q 984 4106 628 3988 
L 628 4550 
Q 988 4650 1302 4700 
Q 1616 4750 1894 4750 
Q 2613 4750 3031 4423 
Q 3450 4097 3450 3541 
Q 3450 3153 3228 2886 
Q 3006 2619 2597 2516 
z
" transform="scale(0.015625)"/>
       </defs>
       <use xlink:href="#DejaVuSans-24"/>
       <use xlink:href="#DejaVuSans-33" transform="translate(63.623047 0)"/>
       <use xlink:href="#DejaVuSans-30" transform="translate(127.246094 0)"/>
       <use xlink:href="#DejaVuSans-30" transform="translate(190.869141 0)"/>
      </g>
     </g>
    </g>
    <g id="ytick_5">
     <g id="line2d_23">
      <path d="M 34.56 60.691729 
L 417.71 60.691729 
" clip-path="url(#pb77fd98549)" style="fill: none; stroke: #21262d; stroke-opacity: 0.5; stroke-width: 0.5; stroke-linecap: square"/>
     </g>
     <g id="line2d_24">
      <g>
       <use xlink:href="#m6ed69479d2" x="34.56" y="60.691729" style="fill: #c9d1d9; stroke: #c9d1d9; stroke-width: 0.8"/>
      </g>
     </g>
     <g id="text_12">
      <!-- $400 -->
      <g style="fill: #c9d1d9" transform="translate(7.2 63.731104) scale(0.08 -0.08)">
       <use xlink:href="#DejaVuSans-24"/>
       <use xlink:href="#DejaVuSans-34" transform="translate(63.623047 0)"/>
       <use xlink:href="#DejaVuSans-30" transform="translate(127.246094 0)"/>
       <use xlink:href="#DejaVuSans-30" transform="translate(190.869141 0)"/>
      </g>
     </g>
    </g>
    <g id="ytick_6">
     <g id="line2d_25">
      <path d="M 34.56 39.557364 
L 417.71 39.557364 
" clip-path="url(#pb77fd98549)" style="fill: none; stroke: #21262d; stroke-opacity: 0.5; stroke-width: 0.5; stroke-linecap: square"/>
     </g>
     <g id="line2d_26">
      <g>
       <use xlink:href="#m6ed69479d2" x="34.56" y="39.557364" style="fill: #c9d1d9; stroke: #c9d1d9; stroke-width: 0.8"/>
      </g>
     </g>
     <g id="text_13">
      <!-- $500 -->
      <g style="fill: #c9d1d9" transform="translate(7.2 42.596739) scale(0.08 -0.08)">
       <defs>
        <path id="DejaVuSans-35" d="M 691 4666 
L 3169 4666 
L 3169 4134 
L 1269 4134 
L 1269 2991 
Q 1406 3038 1543 3061 
Q 1681 3084 1819 3084 
Q 2600 3084 3056 2656 
Q 3513 2228 3513 1497 
Q 3513 744 3044 326 
Q 2575 -91 1722 -91 
Q 1428 -91 1123 -41 
Q 819 9 494 109 
L 494 744 
Q 775 591 1075 516 
Q 1375 441 1709 441 
Q 2250 441 2565 725 
Q 2881 1009 2881 1497 
Q 2881 1984 2565 2268 
Q 2250 2553 1709 2553 
Q 1456 2553 1204 2497 
Q 953 2441 691 2322 
L 691 4666 
z
" transform="scale(0.015625)"/>
       </defs>
       <use xlink:href="#DejaVuSans-24"/>
       <use xlink:href="#DejaVuSans-35" transform="translate(63.623047 0)"/>
       <use xlink:href="#DejaVuSans-30" transform="translate(127.246094 0)"/>
       <use xlink:href="#DejaVuSans-30" transform="translate(190.869141 0)"/>
      </g>
     </g>
    </g>
   </g>
   <g id="line2d_27">
    <path d="M 51.975909 87.845162 
L 54.902953 75.502692 
L 57.829996 56.456402 
L 60.75704 70.633334 
L 63.684083 57.680082 
L 66.611127 64.250756 
L 69.53817 60.057698 
L 72.465214 71.275819 
L 75.392257 55.110143 
L 78.319301 61.25813 
L 81.246345 54.687456 
L 84.173388 55.66175 
L 87.100432 54.725498 
L 90.027475 57.354613 
L 92.954519 54.271109 
L 95.881562 57.625132 
L 98.808606 58.079521 
L 101.735649 55.401797 
L 104.662693 58.593086 
L 107.589736 57.187651 
L 110.51678 75.380113 
L 113.443824 56.940379 
L 116.370867 82.136769 
L 119.297911 55.993559 
L 122.224954 73.13987 
L 125.151998 54.653641 
L 128.079041 58.432465 
L 131.006085 60.495179 
L 133.933128 63.071458 
L 136.860172 65.696347 
L 139.787215 87.619024 
L 142.714259 89.44292 
L 145.641303 87.452062 
L 148.568346 89.159719 
L 151.49539 87.485877 
L 154.422433 54.131622 
L 157.349477 58.916442 
L 160.27652 56.143613 
L 163.203564 69.897858 
L 166.130607 89.622562 
L 169.057651 84.233298 
L 171.984694 68.095097 
L 174.911738 70.031005 
L 177.838782 53.738523 
L 180.765825 69.003875 
L 183.692869 55.26231 
L 186.619912 58.035139 
L 189.546956 71.814745 
L 192.473999 51.705397 
L 195.401043 57.880858 
L 198.328086 56.96574 
L 201.25513 54.757199 
L 204.182173 50.988942 
L 207.109217 52.415511 
L 210.036261 51.918854 
L 212.963304 52.523297 
L 215.890348 51.316524 
L 218.817391 32.054664 
L 221.744435 40.204075 
L 224.671478 63.923173 
L 227.598522 58.155605 
L 230.525565 52.468347 
L 233.452609 67.167298 
L 236.379652 58.407104 
L 239.306696 61.108076 
L 242.233739 60.685389 
L 245.160783 62.986921 
L 248.087827 60.351466 
L 251.01487 65.197576 
L 253.941914 66.372646 
L 256.868957 88.477079 
L 259.796001 64.035185 
L 262.723044 75.847182 
L 265.650088 55.401797 
L 268.577131 73.27513 
L 271.504175 71.039114 
L 274.431218 56.329596 
L 277.358262 77.146946 
L 280.285306 51.635653 
L 283.212349 58.755821 
L 286.139393 54.900913 
L 289.066436 55.680771 
L 291.99348 57.481419 
L 294.920523 51.823749 
L 297.847567 56.900224 
L 300.77461 27.447372 
L 303.701654 59.998522 
L 306.628697 54.752972 
L 309.555741 58.191533 
L 312.482785 58.145038 
L 315.409828 54.748745 
L 318.336872 58.690304 
L 321.263915 56.743829 
L 324.190959 58.692418 
L 327.118002 86.173433 
L 330.045046 72.613624 
L 332.972089 79.082854 
L 335.899133 79.040585 
L 338.826176 85.123055 
L 341.75322 58.694531 
L 344.680264 64.045753 
L 347.607307 62.993261 
L 350.534351 73.919728 
L 353.461394 61.046786 
L 356.388438 65.449075 
L 359.315481 65.222937 
L 362.242525 65.113038 
L 365.169568 67.380756 
L 368.096612 64.897468 
L 371.023655 71.347676 
L 373.950699 67.177866 
L 376.877743 59.028454 
L 379.804786 91.380941 
L 382.73183 85.461205 
L 385.658873 62.881249 
L 388.585917 70.26771 
L 391.51296 68.006333 
L 394.440004 68.942585 
L 397.367047 56.775531 
L 400.294091 65.865422 
" clip-path="url(#pb77fd98549)" style="fill: none; stroke: #3fb950; stroke-width: 2; stroke-linecap: square"/>
   </g>
   <g id="patch_3">
    <path d="M 34.56 151.118281 
L 34.56 21.558281 
" style="fill: none; stroke: #21262d; stroke-width: 0.8; stroke-linejoin: miter; stroke-linecap: square"/>
   </g>
   <g id="patch_4">
    <path d="M 34.56 151.118281 
L 417.71 151.118281 
" style="fill: none; stroke: #21262d; stroke-width: 0.8; stroke-linejoin: miter; stroke-linecap: square"/>
   </g>
   <g id="text_14">
    <!-- SVELTE (sveltejs/svelte) — $375.52 (-10.28%) -->
    <g style="fill: #c9d1d9" transform="translate(85.764687 15.558281) scale(0.11 -0.11)">
     <defs>
      <path id="DejaVuSans-Bold-53" d="M 3834 4519 
L 3834 3531 
Q 3450 3703 3084 3790 
Q 2719 3878 2394 3878 
Q 1963 3878 1756 3759 
Q 1550 3641 1550 3391 
Q 1550 3203 1689 3098 
Q 1828 2994 2194 2919 
L 2706 2816 
Q 3484 2659 3812 2340 
Q 4141 2022 4141 1434 
Q 4141 663 3683 286 
Q 3225 -91 2284 -91 
Q 1841 -91 1394 -6 
Q 947 78 500 244 
L 500 1259 
Q 947 1022 1364 901 
Q 1781 781 2169 781 
Q 2563 781 2772 912 
Q 2981 1044 2981 1288 
Q 2981 1506 2839 1625 
Q 2697 1744 2272 1838 
L 1806 1941 
Q 1106 2091 782 2419 
Q 459 2747 459 3303 
Q 459 4000 909 4375 
Q 1359 4750 2203 4750 
Q 2588 4750 2994 4692 
Q 3400 4634 3834 4519 
z
" transform="scale(0.015625)"/>
      <path id="DejaVuSans-Bold-56" d="M 31 4666 
L 1241 4666 
L 2478 1222 
L 3713 4666 
L 4922 4666 
L 3194 0 
L 1759 0 
L 31 4666 
z
" transform="scale(0.015625)"/>
      <path id="DejaVuSans-Bold-45" d="M 588 4666 
L 3834 4666 
L 3834 3756 
L 1791 3756 
L 1791 2888 
L 3713 2888 
L 3713 1978 
L 1791 1978 
L 1791 909 
L 3903 909 
L 3903 0 
L 588 0 
L 588 4666 
z
" transform="scale(0.015625)"/>
      <path id="DejaVuSans-Bold-4c" d="M 588 4666 
L 1791 4666 
L 1791 909 
L 3903 909 
L 3903 0 
L 588 0 
L 588 4666 
z
" transform="scale(0.015625)"/>
      <path id="DejaVuSans-Bold-54" d="M 31 4666 
L 4331 4666 
L 4331 3756 
L 2784 3756 
L 2784 0 
L 1581 0 
L 1581 3756 
L 31 3756 
L 31 4666 
z
" transform="scale(0.015625)"/>
      <path id="DejaVuSans-Bold-20" transform="scale(0.015625)"/>
      <path id="DejaVuSans-Bold-28" d="M 2413 -844 
L 1484 -844 
Q 1006 -72 778 623 
Q 550 1319 550 2003 
Q 550 2688 779 3389 
Q 1009 4091 1484 4856 
L 2413 4856 
Q 2013 4116 1813 3408 
Q 1613 2700 1613 2009 
Q 1613 1319 1811 609 
Q 2009 -100 2413 -844 
z
" transform="scale(0.015625)"/>
      <path id="DejaVuSans-Bold-73" d="M 3272 3391 
L 3272 2541 
Q 2913 2691 2578 2766 
Q 2244 2841 1947 2841 
Q 1628 2841 1473 2761 
Q 1319 2681 1319 2516 
Q 1319 2381 1436 2309 
Q 1553 2238 1856 2203 
L 2053 2175 
Q 2913 2066 3209 1816 
Q 3506 1566 3506 1031 
Q 3506 472 3093 190 
Q 2681 -91 1863 -91 
Q 1516 -91 1145 -36 
Q 775 19 384 128 
L 384 978 
Q 719 816 1070 734 
Q 1422 653 1784 653 
Q 2113 653 2278 743 
Q 2444 834 2444 1013 
Q 2444 1163 2330 1236 
Q 2216 1309 1875 1350 
L 1678 1375 
Q 931 1469 631 1722 
Q 331 1975 331 2491 
Q 331 3047 712 3315 
Q 1094 3584 1881 3584 
Q 2191 3584 2531 3537 
Q 2872 3491 3272 3391 
z
" transform="scale(0.015625)"/>
      <path id="DejaVuSans-Bold-76" d="M 97 3500 
L 1216 3500 
L 2088 1081 
L 2956 3500 
L 4078 3500 
L 2700 0 
L 1472 0 
L 97 3500 
z
" transform="scale(0.015625)"/>
      <path id="DejaVuSans-Bold-65" d="M 4031 1759 
L 4031 1441 
L 1416 1441 
Q 1456 1047 1700 850 
Q 1944 653 2381 653 
Q 2734 653 3104 758 
Q 3475 863 3866 1075 
L 3866 213 
Q 3469 63 3072 -14 
Q 2675 -91 2278 -91 
Q 1328 -91 801 392 
Q 275 875 275 1747 
Q 275 2603 792 3093 
Q 1309 3584 2216 3584 
Q 3041 3584 3536 3087 
Q 4031 2591 4031 1759 
z
M 2881 2131 
Q 2881 2450 2695 2645 
Q 2509 2841 2209 2841 
Q 1884 2841 1681 2658 
Q 1478 2475 1428 2131 
L 2881 2131 
z
" transform="scale(0.015625)"/>
      <path id="DejaVuSans-Bold-6c" d="M 538 4863 
L 1656 4863 
L 1656 0 
L 538 0 
L 538 4863 
z
" transform="scale(0.015625)"/>
      <path id="DejaVuSans-Bold-74" d="M 1759 4494 
L 1759 3500 
L 2913 3500 
L 2913 2700 
L 1759 2700 
L 1759 1216 
Q 1759 972 1856 886 
Q 1953 800 2241 800 
L 2816 800 
L 2816 0 
L 1856 0 
Q 1194 0 917 276 
Q 641 553 641 1216 
L 641 2700 
L 84 2700 
L 84 3500 
L 641 3500 
L 641 4494 
L 1759 4494 
z
" transform="scale(0.015625)"/>
      <path id="DejaVuSans-Bold-6a" d="M 538 3500 
L 1656 3500 
L 1656 63 
Q 1656 -641 1318 -1011 
Q 981 -1381 341 -1381 
L -213 -1381 
L -213 -647 
L -19 -647 
Q 300 -647 419 -503 
Q 538 -359 538 63 
L 538 3500 
z
M 538 4863 
L 1656 4863 
L 1656 3950 
L 538 3950 
L 538 4863 
z
" transform="scale(0.015625)"/>
      <path id="DejaVuSans-Bold-2f" d="M 1644 4666 
L 2338 4666 
L 691 -594 
L 0 -594 
L 1644 4666 
z
" transform="scale(0.015625)"/>
      <path id="DejaVuSans-Bold-29" d="M 513 -844 
Q 913 -100 1113 609 
Q 1313 1319 1313 2009 
Q 1313 2700 1113 3408 
Q 913 4116 513 4856 
L 1441 4856 
Q 1916 4091 2145 3389 
Q 2375 2688 2375 2003 
Q 2375 1319 2147 623 
Q 1919 -72 1441 -844 
L 513 -844 
z
" transform="scale(0.015625)"/>
      <path id="DejaVuSans-Bold-2014" d="M 344 2156 
L 6056 2156 
L 6056 1350 
L 344 1350 
L 344 2156 
z
" transform="scale(0.015625)"/>
      <path id="DejaVuSans-Bold-24" d="M 2484 -941 
L 1978 -941 
L 1975 0 
Q 1584 16 1218 87 
Q 853 159 506 288 
L 506 1106 
Q 866 922 1233 823 
Q 1600 725 1978 713 
L 1978 1684 
L 1875 1703 
Q 1128 1834 814 2115 
Q 500 2397 500 2925 
Q 500 3484 883 3798 
Q 1266 4113 1975 4141 
L 1978 4863 
L 2484 4863 
L 2484 4153 
Q 2797 4128 3109 4075 
Q 3422 4022 3738 3938 
L 3738 3144 
Q 3425 3275 3112 3348 
Q 2800 3422 2484 3438 
L 2484 2541 
L 2584 2522 
Q 3378 2397 3698 2105 
Q 4019 1813 4019 1241 
Q 4019 666 3637 358 
Q 3256 50 2484 6 
L 2484 -941 
z
M 1978 2613 
L 1978 3428 
Q 1756 3416 1623 3308 
Q 1491 3200 1491 3034 
Q 1491 2850 1612 2745 
Q 1734 2641 1978 2613 
z
M 2484 1594 
L 2484 725 
Q 2756 728 2892 831 
Q 3028 934 3028 1141 
Q 3028 1353 2903 1458 
Q 2778 1563 2484 1594 
z
" transform="scale(0.015625)"/>
      <path id="DejaVuSans-Bold-33" d="M 2981 2516 
Q 3453 2394 3698 2092 
Q 3944 1791 3944 1325 
Q 3944 631 3412 270 
Q 2881 -91 1863 -91 
Q 1503 -91 1142 -33 
Q 781 25 428 141 
L 428 1069 
Q 766 900 1098 814 
Q 1431 728 1753 728 
Q 2231 728 2486 893 
Q 2741 1059 2741 1369 
Q 2741 1688 2480 1852 
Q 2219 2016 1709 2016 
L 1228 2016 
L 1228 2791 
L 1734 2791 
Q 2188 2791 2409 2933 
Q 2631 3075 2631 3366 
Q 2631 3634 2415 3781 
Q 2200 3928 1806 3928 
Q 1516 3928 1219 3862 
Q 922 3797 628 3669 
L 628 4550 
Q 984 4650 1334 4700 
Q 1684 4750 2022 4750 
Q 2931 4750 3382 4451 
Q 3834 4153 3834 3553 
Q 3834 3144 3618 2883 
Q 3403 2622 2981 2516 
z
" transform="scale(0.015625)"/>
      <path id="DejaVuSans-Bold-37" d="M 428 4666 
L 3944 4666 
L 3944 3988 
L 2125 0 
L 953 0 
L 2675 3781 
L 428 3781 
L 428 4666 
z
" transform="scale(0.015625)"/>
      <path id="DejaVuSans-Bold-35" d="M 678 4666 
L 3669 4666 
L 3669 3781 
L 1638 3781 
L 1638 3059 
Q 1775 3097 1914 3117 
Q 2053 3138 2203 3138 
Q 3056 3138 3531 2711 
Q 4006 2284 4006 1522 
Q 4006 766 3489 337 
Q 2972 -91 2053 -91 
Q 1656 -91 1267 -14 
Q 878 63 494 219 
L 494 1166 
Q 875 947 1217 837 
Q 1559 728 1863 728 
Q 2300 728 2551 942 
Q 2803 1156 2803 1522 
Q 2803 1891 2551 2103 
Q 2300 2316 1863 2316 
Q 1603 2316 1309 2248 
Q 1016 2181 678 2041 
L 678 4666 
z
" transform="scale(0.015625)"/>
      <path id="DejaVuSans-Bold-2e" d="M 653 1209 
L 1778 1209 
L 1778 0 
L 653 0 
L 653 1209 
z
" transform="scale(0.015625)"/>
      <path id="DejaVuSans-Bold-32" d="M 1844 884 
L 3897 884 
L 3897 0 
L 506 0 
L 506 884 
L 2209 2388 
Q 2438 2594 2547 2791 
Q 2656 2988 2656 3200 
Q 2656 3528 2436 3728 
Q 2216 3928 1850 3928 
Q 1569 3928 1234 3808 
Q 900 3688 519 3450 
L 519 4475 
Q 925 4609 1322 4679 
Q 1719 4750 2100 4750 
Q 2938 4750 3402 4381 
Q 3866 4013 3866 3353 
Q 3866 2972 3669 2642 
Q 3472 2313 2841 1759 
L 1844 884 
z
" transform="scale(0.015625)"/>
      <path id="DejaVuSans-Bold-2d" d="M 347 2297 
L 2309 2297 
L 2309 1388 
L 347 1388 
L 347 2297 
z
" transform="scale(0.015625)"/>
      <path id="DejaVuSans-Bold-31" d="M 750 831 
L 1813 831 
L 1813 3847 
L 722 3622 
L 722 4441 
L 1806 4666 
L 2950 4666 
L 2950 831 
L 4013 831 
L 4013 0 
L 750 0 
L 750 831 
z
" transform="scale(0.015625)"/>
      <path id="DejaVuSans-Bold-30" d="M 2944 2338 
Q 2944 3213 2780 3570 
Q 2616 3928 2228 3928 
Q 1841 3928 1675 3570 
Q 1509 3213 1509 2338 
Q 1509 1453 1675 1090 
Q 1841 728 2228 728 
Q 2613 728 2778 1090 
Q 2944 1453 2944 2338 
z
M 4147 2328 
Q 4147 1169 3647 539 
Q 3147 -91 2228 -91 
Q 1306 -91 806 539 
Q 306 1169 306 2328 
Q 306 3491 806 4120 
Q 1306 4750 2228 4750 
Q 3147 4750 3647 4120 
Q 4147 3491 4147 2328 
z
" transform="scale(0.015625)"/>
      <path id="DejaVuSans-Bold-38" d="M 2228 2088 
Q 1891 2088 1709 1903 
Q 1528 1719 1528 1375 
Q 1528 1031 1709 848 
Q 1891 666 2228 666 
Q 2563 666 2741 848 
Q 2919 1031 2919 1375 
Q 2919 1722 2741 1905 
Q 2563 2088 2228 2088 
z
M 1350 2484 
Q 925 2613 709 2878 
Q 494 3144 494 3541 
Q 494 4131 934 4440 
Q 1375 4750 2228 4750 
Q 3075 4750 3515 4442 
Q 3956 4134 3956 3541 
Q 3956 3144 3739 2878 
Q 3522 2613 3097 2484 
Q 3572 2353 3814 2058 
Q 4056 1763 4056 1313 
Q 4056 619 3595 264 
Q 3134 -91 2228 -91 
Q 1319 -91 855 264 
Q 391 619 391 1313 
Q 391 1763 633 2058 
Q 875 2353 1350 2484 
z
M 1631 3419 
Q 1631 3141 1786 2991 
Q 1941 2841 2228 2841 
Q 2509 2841 2662 2991 
Q 2816 3141 2816 3419 
Q 2816 3697 2662 3845 
Q 2509 3994 2228 3994 
Q 1941 3994 1786 3844 
Q 1631 3694 1631 3419 
z
" transform="scale(0.015625)"/>
      <path id="DejaVuSans-Bold-25" d="M 4959 1925 
Q 4738 1925 4616 1733 
Q 4494 1541 4494 1184 
Q 4494 825 4614 633 
Q 4734 441 4959 441 
Q 5184 441 5303 633 
Q 5422 825 5422 1184 
Q 5422 1541 5301 1733 
Q 5181 1925 4959 1925 
z
M 4959 2450 
Q 5541 2450 5875 2112 
Q 6209 1775 6209 1184 
Q 6209 594 5875 251 
Q 5541 -91 4959 -91 
Q 4378 -91 4042 251 
Q 3706 594 3706 1184 
Q 3706 1772 4042 2111 
Q 4378 2450 4959 2450 
z
M 2094 -91 
L 1403 -91 
L 4319 4750 
L 5013 4750 
L 2094 -91 
z
M 1453 4750 
Q 2034 4750 2367 4411 
Q 2700 4072 2700 3481 
Q 2700 2891 2367 2550 
Q 2034 2209 1453 2209 
Q 872 2209 539 2550 
Q 206 2891 206 3481 
Q 206 4072 539 4411 
Q 872 4750 1453 4750 
z
M 1453 4225 
Q 1228 4225 1106 4031 
Q 984 3838 984 3481 
Q 984 3122 1106 2926 
Q 1228 2731 1453 2731 
Q 1678 2731 1798 2926 
Q 1919 3122 1919 3481 
Q 1919 3838 1797 4031 
Q 1675 4225 1453 4225 
z
" transform="scale(0.015625)"/>
     </defs>
     <use xlink:href="#DejaVuSans-Bold-53"/>
     <use xlink:href="#DejaVuSans-Bold-56" transform="translate(72.021484 0)"/>
     <use xlink:href="#DejaVuSans-Bold-45" transform="translate(149.414062 0)"/>
     <use xlink:href="#DejaVuSans-Bold-4c" transform="translate(217.724609 0)"/>
     <use xlink:href="#DejaVuSans-Bold-54" transform="translate(264.945312 0)"/>
     <use xlink:href="#DejaVuSans-Bold-45" transform="translate(333.158203 0)"/>
     <use xlink:href="#DejaVuSans-Bold-20" transform="translate(401.46875 0)"/>
     <use xlink:href="#DejaVuSans-Bold-28" transform="translate(436.283203 0)"/>
     <use xlink:href="#DejaVuSans-Bold-73" transform="translate(481.986328 0)"/>
     <use xlink:href="#DejaVuSans-Bold-76" transform="translate(541.507812 0)"/>
     <use xlink:href="#DejaVuSans-Bold-65" transform="translate(606.693359 0)"/>
     <use xlink:href="#DejaVuSans-Bold-6c" transform="translate(674.515625 0)"/>
     <use xlink:href="#DejaVuSans-Bold-74" transform="translate(708.792969 0)"/>
     <use xlink:href="#DejaVuSans-Bold-65" transform="translate(756.595703 0)"/>
     <use xlink:href="#DejaVuSans-Bold-6a" transform="translate(824.417969 0)"/>
     <use xlink:href="#DejaVuSans-Bold-73" transform="translate(858.695312 0)"/>
     <use xlink:href="#DejaVuSans-Bold-2f" transform="translate(918.216797 0)"/>
     <use xlink:href="#DejaVuSans-Bold-73" transform="translate(954.740234 0)"/>
     <use xlink:href="#DejaVuSans-Bold-76" transform="translate(1014.261719 0)"/>
     <use xlink:href="#DejaVuSans-Bold-65" transform="translate(1079.447266 0)"/>
     <use xlink:href="#DejaVuSans-Bold-6c" transform="translate(1147.269531 0)"/>
     <use xlink:href="#DejaVuSans-Bold-74" transform="translate(1181.546875 0)"/>
     <use xlink:href="#DejaVuSans-Bold-65" transform="translate(1229.349609 0)"/>
     <use xlink:href="#DejaVuSans-Bold-29" transform="translate(1297.171875 0)"/>
     <use xlink:href="#DejaVuSans-Bold-20" transform="translate(1342.875 0)"/>
     <use xlink:href="#DejaVuSans-Bold-2014" transform="translate(1377.689453 0)"/>
     <use xlink:href="#DejaVuSans-Bold-20" transform="translate(1477.689453 0)"/>
     <use xlink:href="#DejaVuSans-Bold-24" transform="translate(1512.503906 0)"/>
     <use xlink:href="#DejaVuSans-Bold-33" transform="translate(1582.083984 0)"/>
     <use xlink:href="#DejaVuSans-Bold-37" transform="translate(1651.664062 0)"/>
     <use xlink:href="#DejaVuSans-Bold-35" transform="translate(1721.244141 0)"/>
     <use xlink:href="#DejaVuSans-Bold-2e" transform="translate(1790.824219 0)"/>
     <use xlink:href="#DejaVuSans-Bold-35" transform="translate(1828.8125 0)"/>
     <use xlink:href="#DejaVuSans-Bold-32" transform="translate(1898.392578 0)"/>
     <use xlink:href="#DejaVuSans-Bold-20" transform="translate(1967.972656 0)"/>
     <use xlink:href="#DejaVuSans-Bold-28" transform="translate(2002.787109 0)"/>
     <use xlink:href="#DejaVuSans-Bold-2d" transform="translate(2048.490234 0)"/>
     <use xlink:href="#DejaVuSans-Bold-31" transform="translate(2089.994141 0)"/>
     <use xlink:href="#DejaVuSans-Bold-30" transform="translate(2159.574219 0)"/>
     <use xlink:href="#DejaVuSans-Bold-2e" transform="translate(2229.154297 0)"/>
     <use xlink:href="#DejaVuSans-Bold-32" transform="translate(2267.142578 0)"/>
     <use xlink:href="#DejaVuSans-Bold-38" transform="translate(2336.722656 0)"/>
     <use xlink:href="#DejaVuSans-Bold-25" transform="translate(2406.302734 0)"/>
     <use xlink:href="#DejaVuSans-Bold-29" transform="translate(2506.498047 0)"/>
    </g>
   </g>
  </g>
 </g>
 <defs>
  <clipPath id="pb77fd98549">
   <rect x="34.56" y="21.558281" width="383.15" height="129.56"/>
  </clipPath>
 </defs>
</svg>
