<?xml version="1.0" encoding="utf-8" standalone="no"?>
<!DOCTYPE svg PUBLIC "-//W3C//DTD SVG 1.1//EN"
  "http://www.w3.org/Graphics/SVG/1.1/DTD/svg11.dtd">
<svg xmlns:xlink="http://www.w3.org/1999/xlink" width="424.298604pt" height="173.060781pt" viewBox="0 0 424.298604 173.060781" xmlns="http://www.w3.org/2000/svg" version="1.1">
 <metadata>
  <rdf:RDF xmlns:dc="http://purl.org/dc/elements/1.1/" xmlns:cc="http://creativecommons.org/ns#" xmlns:rdf="http://www.w3.org/1999/02/22-rdf-syntax-ns#">
   <cc:Work>
    <dc:type rdf:resource="http://purl.org/dc/dcmitype/StillImage"/>
    <dc:date>2026-04-25T06:35:14.477778</dc:date>
    <dc:format>image/svg+xml</dc:format>
    <dc:creator>
     <cc:Agent>
      <dc:title>Matplotlib v3.10.9, https://matplotlib.org/</dc:title>
     </cc:Agent>
    </dc:creator>
   </cc:Work>
  </rdf:RDF>
 </metadata>
 <defs>
  <style type="text/css">*{stroke-linejoin: round; stroke-linecap: butt}</style>
 </defs>
 <g id="figure_1">
  <g id="patch_1">
   <path d="M 0 173.060781 
L 424.298604 173.060781 
L 424.298604 0 
L 0 0 
z
" style="fill: #0d1117"/>
  </g>
  <g id="axes_1">
   <g id="patch_2">
    <path d="M 34.56 151.118281 
L 414.827884 151.118281 
L 414.827884 21.558281 
L 34.56 21.558281 
z
" style="fill: #0d1117"/>
   </g>
   <g id="FillBetweenPolyCollection_1">
    <defs>
     <path id="m5b2cc2ca95" d="M 51.844904 -27.831591 
L 51.844904 -103.937503 
L 54.82506 -104.839335 
L 57.805215 -136.582588 
L 60.785371 -118.562601 
L 63.765527 -98.251584 
L 66.745683 -125.62522 
L 69.725839 -98.137033 
L 72.705995 -101.484019 
L 75.68615 -105.559968 
L 78.666306 -145.613409 
L 81.646462 -129.74699 
L 84.626618 -111.535389 
L 87.606774 -116.919308 
L 90.58693 -104.947638 
L 93.567085 -115.7488 
L 96.547241 -129.551211 
L 99.527397 -118.854186 
L 102.507553 -110.881404 
L 105.487709 -102.396265 
L 108.467865 -97.414317 
L 111.44802 -98.499432 
L 114.428176 -131.484006 
L 117.408332 -118.479291 
L 120.388488 -97.445559 
L 123.368644 -98.605653 
L 126.3488 -98.572329 
L 129.328955 -98.334895 
L 132.309111 -97.299766 
L 135.289267 -133.306416 
L 138.269423 -124.46096 
L 141.249579 -129.411666 
L 144.229735 -123.650769 
L 147.20989 -130.619663 
L 150.190046 -121.280595 
L 153.170202 -135.110081 
L 156.150358 -127.533022 
L 159.130514 -130.130216 
L 162.11067 -114.363769 
L 165.090825 -122.026221 
L 168.070981 -121.997062 
L 171.051137 -99.722009 
L 174.031293 -110.219089 
L 177.011449 -114.849051 
L 179.991605 -103.218953 
L 182.97176 -113.691039 
L 185.951916 -126.42708 
L 188.932072 -114.876126 
L 191.912228 -122.115779 
L 194.892384 -118.7438 
L 197.87254 -127.424719 
L 200.852695 -122.249075 
L 203.832851 -103.818786 
L 206.813007 -90.659946 
L 209.793163 -98.264081 
L 212.773319 -128.861819 
L 215.753475 -125.316972 
L 218.73363 -113.647302 
L 221.713786 -132.617024 
L 224.693942 -112.441387 
L 227.674098 -119.712281 
L 230.654254 -126.960265 
L 233.634409 -112.545525 
L 236.614565 -92.330315 
L 239.594721 -98.924314 
L 242.574877 -90.410016 
L 245.555033 -93.263389 
L 248.535189 -92.484439 
L 251.515344 -112.051912 
L 254.4955 -93.344616 
L 257.475656 -137.03038 
L 260.455812 -88.637592 
L 263.435968 -110.15244 
L 266.416124 -104.272826 
L 269.396279 -109.731724 
L 272.376435 -122.353213 
L 275.356591 -100.573855 
L 278.336747 -108.913202 
L 281.316903 -105.022618 
L 284.297059 -127.749629 
L 287.277214 -121.199367 
L 290.25737 -123.786148 
L 293.237526 -123.155073 
L 296.217682 -122.886398 
L 299.197838 -89.418625 
L 302.177994 -115.838359 
L 305.158149 -91.116069 
L 308.138305 -94.658834 
L 311.118461 -108.355024 
L 314.098617 -111.048025 
L 317.078773 -110.244082 
L 320.058929 -125.206586 
L 323.039084 -120.495397 
L 326.01924 -119.618557 
L 328.999396 -106.228532 
L 331.979552 -116.306978 
L 334.959708 -122.440689 
L 337.939864 -96.524981 
L 340.920019 -99.855305 
L 343.900175 -125.925136 
L 346.880331 -117.271293 
L 349.860487 -113.551495 
L 352.840643 -113.453605 
L 355.820799 -99.426258 
L 358.800954 -113.507757 
L 361.78111 -130.698808 
L 364.761266 -122.871819 
L 367.741422 -129.320025 
L 370.721578 -121.40556 
L 373.701734 -92.140784 
L 376.681889 -94.867109 
L 379.662045 -91.747144 
L 382.642201 -91.397241 
L 385.622357 -128.147435 
L 388.602513 -126.479149 
L 391.582669 -124.648408 
L 394.562824 -97.391407 
L 397.54298 -129.076343 
L 397.54298 -27.831591 
L 397.54298 -27.831591 
L 394.562824 -27.831591 
L 391.582669 -27.831591 
L 388.602513 -27.831591 
L 385.622357 -27.831591 
L 382.642201 -27.831591 
L 379.662045 -27.831591 
L 376.681889 -27.831591 
L 373.701734 -27.831591 
L 370.721578 -27.831591 
L 367.741422 -27.831591 
L 364.761266 -27.831591 
L 361.78111 -27.831591 
L 358.800954 -27.831591 
L 355.820799 -27.831591 
L 352.840643 -27.831591 
L 349.860487 -27.831591 
L 346.880331 -27.831591 
L 343.900175 -27.831591 
L 340.920019 -27.831591 
L 337.939864 -27.831591 
L 334.959708 -27.831591 
L 331.979552 -27.831591 
L 328.999396 -27.831591 
L 326.01924 -27.831591 
L 323.039084 -27.831591 
L 320.058929 -27.831591 
L 317.078773 -27.831591 
L 314.098617 -27.831591 
L 311.118461 -27.831591 
L 308.138305 -27.831591 
L 305.158149 -27.831591 
L 302.177994 -27.831591 
L 299.197838 -27.831591 
L 296.217682 -27.831591 
L 293.237526 -27.831591 
L 290.25737 -27.831591 
L 287.277214 -27.831591 
L 284.297059 -27.831591 
L 281.316903 -27.831591 
L 278.336747 -27.831591 
L 275.356591 -27.831591 
L 272.376435 -27.831591 
L 269.396279 -27.831591 
L 266.416124 -27.831591 
L 263.435968 -27.831591 
L 260.455812 -27.831591 
L 257.475656 -27.831591 
L 254.4955 -27.831591 
L 251.515344 -27.831591 
L 248.535189 -27.831591 
L 245.555033 -27.831591 
L 242.574877 -27.831591 
L 239.594721 -27.831591 
L 236.614565 -27.831591 
L 233.634409 -27.831591 
L 230.654254 -27.831591 
L 227.674098 -27.831591 
L 224.693942 -27.831591 
L 221.713786 -27.831591 
L 218.73363 -27.831591 
L 215.753475 -27.831591 
L 212.773319 -27.831591 
L 209.793163 -27.831591 
L 206.813007 -27.831591 
L 203.832851 -27.831591 
L 200.852695 -27.831591 
L 197.87254 -27.831591 
L 194.892384 -27.831591 
L 191.912228 -27.831591 
L 188.932072 -27.831591 
L 185.951916 -27.831591 
L 182.97176 -27.831591 
L 179.991605 -27.831591 
L 177.011449 -27.831591 
L 174.031293 -27.831591 
L 171.051137 -27.831591 
L 168.070981 -27.831591 
L 165.090825 -27.831591 
L 162.11067 -27.831591 
L 159.130514 -27.831591 
L 156.150358 -27.831591 
L 153.170202 -27.831591 
L 150.190046 -27.831591 
L 147.20989 -27.831591 
L 144.229735 -27.831591 
L 141.249579 -27.831591 
L 138.269423 -27.831591 
L 135.289267 -27.831591 
L 132.309111 -27.831591 
L 129.328955 -27.831591 
L 126.3488 -27.831591 
L 123.368644 -27.831591 
L 120.388488 -27.831591 
L 117.408332 -27.831591 
L 114.428176 -27.831591 
L 111.44802 -27.831591 
L 108.467865 -27.831591 
L 105.487709 -27.831591 
L 102.507553 -27.831591 
L 99.527397 -27.831591 
L 96.547241 -27.831591 
L 93.567085 -27.831591 
L 90.58693 -27.831591 
L 87.606774 -27.831591 
L 84.626618 -27.831591 
L 81.646462 -27.831591 
L 78.666306 -27.831591 
L 75.68615 -27.831591 
L 72.705995 -27.831591 
L 69.725839 -27.831591 
L 66.745683 -27.831591 
L 63.765527 -27.831591 
L 60.785371 -27.831591 
L 57.805215 -27.831591 
L 54.82506 -27.831591 
L 51.844904 -27.831591 
z
" style="stroke: #3fb950; stroke-opacity: 0.15"/>
    </defs>
    <g clip-path="url(#p0eaf739642)">
     <use xlink:href="#m5b2cc2ca95" x="0" y="173.060781" style="fill: #3fb950; fill-opacity: 0.15; stroke: #3fb950; stroke-opacity: 0.15"/>
    </g>
   </g>
   <g id="matplotlib.axis_1">
    <g id="xtick_1">
     <g id="line2d_1">
      <path d="M 51.844904 151.118281 
L 51.844904 21.558281 
" clip-path="url(#p0eaf739642)" style="fill: none; stroke: #21262d; stroke-opacity: 0.5; stroke-width: 0.5; stroke-linecap: square"/>
     </g>
     <g id="line2d_2">
      <defs>
       <path id="mad4a38c74d" d="M 0 0 
L 0 3.5 
" style="stroke: #c9d1d9; stroke-width: 0.8"/>
      </defs>
      <g>
       <use xlink:href="#mad4a38c74d" x="51.844904" y="151.118281" style="fill: #c9d1d9; stroke: #c9d1d9; stroke-width: 0.8"/>
      </g>
     </g>
     <g id="text_1">
      <!-- 0 -->
      <g style="fill: #c9d1d9" transform="translate(49.299904 164.197031) scale(0.08 -0.08)">
       <defs>
        <path id="DejaVuSans-30" d="M 2034 4250 
Q 1547 4250 1301 3770 
Q 1056 3291 1056 2328 
Q 1056 1369 1301 889 
Q 1547 409 2034 409 
Q 2525 409 2770 889 
Q 3016 1369 3016 2328 
Q 3016 3291 2770 3770 
Q 2525 4250 2034 4250 
z
M 2034 4750 
Q 2819 4750 3233 4129 
Q 3647 3509 3647 2328 
Q 3647 1150 3233 529 
Q 2819 -91 2034 -91 
Q 1250 -91 836 529 
Q 422 1150 422 2328 
Q 422 3509 836 4129 
Q 1250 4750 2034 4750 
z
" transform="scale(0.015625)"/>
       </defs>
       <use xlink:href="#DejaVuSans-30"/>
      </g>
     </g>
    </g>
    <g id="xtick_2">
     <g id="line2d_3">
      <path d="M 111.44802 151.118281 
L 111.44802 21.558281 
" clip-path="url(#p0eaf739642)" style="fill: none; stroke: #21262d; stroke-opacity: 0.5; stroke-width: 0.5; stroke-linecap: square"/>
     </g>
     <g id="line2d_4">
      <g>
       <use xlink:href="#mad4a38c74d" x="111.44802" y="151.118281" style="fill: #c9d1d9; stroke: #c9d1d9; stroke-width: 0.8"/>
      </g>
     </g>
     <g id="text_2">
      <!-- 20 -->
      <g style="fill: #c9d1d9" transform="translate(106.35802 164.197031) scale(0.08 -0.08)">
       <defs>
        <path id="DejaVuSans-32" d="M 1228 531 
L 3431 531 
L 3431 0 
L 469 0 
L 469 531 
Q 828 903 1448 1529 
Q 2069 2156 2228 2338 
Q 2531 2678 2651 2914 
Q 2772 3150 2772 3378 
Q 2772 3750 2511 3984 
Q 2250 4219 1831 4219 
Q 1534 4219 1204 4116 
Q 875 4013 500 3803 
L 500 4441 
Q 881 4594 1212 4672 
Q 1544 4750 1819 4750 
Q 2544 4750 2975 4387 
Q 3406 4025 3406 3419 
Q 3406 3131 3298 2873 
Q 3191 2616 2906 2266 
Q 2828 2175 2409 1742 
Q 1991 1309 1228 531 
z
" transform="scale(0.015625)"/>
       </defs>
       <use xlink:href="#DejaVuSans-32"/>
       <use xlink:href="#DejaVuSans-30" transform="translate(63.623047 0)"/>
      </g>
     </g>
    </g>
    <g id="xtick_3">
     <g id="line2d_5">
      <path d="M 171.051137 151.118281 
L 171.051137 21.558281 
" clip-path="url(#p0eaf739642)" style="fill: none; stroke: #21262d; stroke-opacity: 0.5; stroke-width: 0.5; stroke-linecap: square"/>
     </g>
     <g id="line2d_6">
      <g>
       <use xlink:href="#mad4a38c74d" x="171.051137" y="151.118281" style="fill: #c9d1d9; stroke: #c9d1d9; stroke-width: 0.8"/>
      </g>
     </g>
     <g id="text_3">
      <!-- 40 -->
      <g style="fill: #c9d1d9" transform="translate(165.961137 164.197031) scale(0.08 -0.08)">
       <defs>
        <path id="DejaVuSans-34" d="M 2419 4116 
L 825 1625 
L 2419 1625 
L 2419 4116 
z
M 2253 4666 
L 3047 4666 
L 3047 1625 
L 3713 1625 
L 3713 1100 
L 3047 1100 
L 3047 0 
L 2419 0 
L 2419 1100 
L 313 1100 
L 313 1709 
L 2253 4666 
z
" transform="scale(0.015625)"/>
       </defs>
       <use xlink:href="#DejaVuSans-34"/>
       <use xlink:href="#DejaVuSans-30" transform="translate(63.623047 0)"/>
      </g>
     </g>
    </g>
    <g id="xtick_4">
     <g id="line2d_7">
      <path d="M 230.654254 151.118281 
L 230.654254 21.558281 
" clip-path="url(#p0eaf739642)" style="fill: none; stroke: #21262d; stroke-opacity: 0.5; stroke-width: 0.5; stroke-linecap: square"/>
     </g>
     <g id="line2d_8">
      <g>
       <use xlink:href="#mad4a38c74d" x="230.654254" y="151.118281" style="fill: #c9d1d9; stroke: #c9d1d9; stroke-width: 0.8"/>
      </g>
     </g>
     <g id="text_4">
      <!-- 60 -->
      <g style="fill: #c9d1d9" transform="translate(225.564254 164.197031) scale(0.08 -0.08)">
       <defs>
        <path id="DejaVuSans-36" d="M 2113 2584 
Q 1688 2584 1439 2293 
Q 1191 2003 1191 1497 
Q 1191 994 1439 701 
Q 1688 409 2113 409 
Q 2538 409 2786 701 
Q 3034 994 3034 1497 
Q 3034 2003 2786 2293 
Q 2538 2584 2113 2584 
z
M 3366 4563 
L 3366 3988 
Q 3128 4100 2886 4159 
Q 2644 4219 2406 4219 
Q 1781 4219 1451 3797 
Q 1122 3375 1075 2522 
Q 1259 2794 1537 2939 
Q 1816 3084 2150 3084 
Q 2853 3084 3261 2657 
Q 3669 2231 3669 1497 
Q 3669 778 3244 343 
Q 2819 -91 2113 -91 
Q 1303 -91 875 529 
Q 447 1150 447 2328 
Q 447 3434 972 4092 
Q 1497 4750 2381 4750 
Q 2619 4750 2861 4703 
Q 3103 4656 3366 4563 
z
" transform="scale(0.015625)"/>
       </defs>
       <use xlink:href="#DejaVuSans-36"/>
       <use xlink:href="#DejaVuSans-30" transform="translate(63.623047 0)"/>
      </g>
     </g>
    </g>
    <g id="xtick_5">
     <g id="line2d_9">
      <path d="M 290.25737 151.118281 
L 290.25737 21.558281 
" clip-path="url(#p0eaf739642)" style="fill: none; stroke: #21262d; stroke-opacity: 0.5; stroke-width: 0.5; stroke-linecap: square"/>
     </g>
     <g id="line2d_10">
      <g>
       <use xlink:href="#mad4a38c74d" x="290.25737" y="151.118281" style="fill: #c9d1d9; stroke: #c9d1d9; stroke-width: 0.8"/>
      </g>
     </g>
     <g id="text_5">
      <!-- 80 -->
      <g style="fill: #c9d1d9" transform="translate(285.16737 164.197031) scale(0.08 -0.08)">
       <defs>
        <path id="DejaVuSans-38" d="M 2034 2216 
Q 1584 2216 1326 1975 
Q 1069 1734 1069 1313 
Q 1069 891 1326 650 
Q 1584 409 2034 409 
Q 2484 409 2743 651 
Q 3003 894 3003 1313 
Q 3003 1734 2745 1975 
Q 2488 2216 2034 2216 
z
M 1403 2484 
Q 997 2584 770 2862 
Q 544 3141 544 3541 
Q 544 4100 942 4425 
Q 1341 4750 2034 4750 
Q 2731 4750 3128 4425 
Q 3525 4100 3525 3541 
Q 3525 3141 3298 2862 
Q 3072 2584 2669 2484 
Q 3125 2378 3379 2068 
Q 3634 1759 3634 1313 
Q 3634 634 3220 271 
Q 2806 -91 2034 -91 
Q 1263 -91 848 271 
Q 434 634 434 1313 
Q 434 1759 690 2068 
Q 947 2378 1403 2484 
z
M 1172 3481 
Q 1172 3119 1398 2916 
Q 1625 2713 2034 2713 
Q 2441 2713 2670 2916 
Q 2900 3119 2900 3481 
Q 2900 3844 2670 4047 
Q 2441 4250 2034 4250 
Q 1625 4250 1398 4047 
Q 1172 3844 1172 3481 
z
" transform="scale(0.015625)"/>
       </defs>
       <use xlink:href="#DejaVuSans-38"/>
       <use xlink:href="#DejaVuSans-30" transform="translate(63.623047 0)"/>
      </g>
     </g>
    </g>
    <g id="xtick_6">
     <g id="line2d_11">
      <path d="M 349.860487 151.118281 
L 349.860487 21.558281 
" clip-path="url(#p0eaf739642)" style="fill: none; stroke: #21262d; stroke-opacity: 0.5; stroke-width: 0.5; stroke-linecap: square"/>
     </g>
     <g id="line2d_12">
      <g>
       <use xlink:href="#mad4a38c74d" x="349.860487" y="151.118281" style="fill: #c9d1d9; stroke: #c9d1d9; stroke-width: 0.8"/>
      </g>
     </g>
     <g id="text_6">
      <!-- 100 -->
      <g style="fill: #c9d1d9" transform="translate(342.225487 164.197031) scale(0.08 -0.08)">
       <defs>
        <path id="DejaVuSans-31" d="M 794 531 
L 1825 531 
L 1825 4091 
L 703 3866 
L 703 4441 
L 1819 4666 
L 2450 4666 
L 2450 531 
L 3481 531 
L 3481 0 
L 794 0 
L 794 531 
z
" transform="scale(0.015625)"/>
       </defs>
       <use xlink:href="#DejaVuSans-31"/>
       <use xlink:href="#DejaVuSans-30" transform="translate(63.623047 0)"/>
       <use xlink:href="#DejaVuSans-30" transform="translate(127.246094 0)"/>
      </g>
     </g>
    </g>
    <g id="xtick_7">
     <g id="line2d_13">
      <path d="M 409.463604 151.118281 
L 409.463604 21.558281 
" clip-path="url(#p0eaf739642)" style="fill: none; stroke: #21262d; stroke-opacity: 0.5; stroke-width: 0.5; stroke-linecap: square"/>
     </g>
     <g id="line2d_14">
      <g>
       <use xlink:href="#mad4a38c74d" x="409.463604" y="151.118281" style="fill: #c9d1d9; stroke: #c9d1d9; stroke-width: 0.8"/>
      </g>
     </g>
     <g id="text_7">
      <!-- 120 -->
      <g style="fill: #c9d1d9" transform="translate(401.828604 164.197031) scale(0.08 -0.08)">
       <use xlink:href="#DejaVuSans-31"/>
       <use xlink:href="#DejaVuSans-32" transform="translate(63.623047 0)"/>
       <use xlink:href="#DejaVuSans-30" transform="translate(127.246094 0)"/>
      </g>
     </g>
    </g>
   </g>
   <g id="matplotlib.axis_2">
    <g id="ytick_1">
     <g id="line2d_15">
      <path d="M 34.56 145.22919 
L 414.827884 145.22919 
" clip-path="url(#p0eaf739642)" style="fill: none; stroke: #21262d; stroke-opacity: 0.5; stroke-width: 0.5; stroke-linecap: square"/>
     </g>
     <g id="line2d_16">
      <defs>
       <path id="m0fae0f5fa9" d="M 0 0 
L -3.5 0 
" style="stroke: #c9d1d9; stroke-width: 0.8"/>
      </defs>
      <g>
       <use xlink:href="#m0fae0f5fa9" x="34.56" y="145.22919" style="fill: #c9d1d9; stroke: #c9d1d9; stroke-width: 0.8"/>
      </g>
     </g>
     <g id="text_8">
      <!-- $0 -->
      <g style="fill: #c9d1d9" transform="translate(17.38 148.268565) scale(0.08 -0.08)">
       <defs>
        <path id="DejaVuSans-24" d="M 2163 -941 
L 1850 -941 
L 1847 0 
Q 1519 6 1191 76 
Q 863 147 531 288 
L 531 850 
Q 850 650 1176 548 
Q 1503 447 1850 444 
L 1850 1869 
Q 1159 1981 845 2250 
Q 531 2519 531 2988 
Q 531 3497 872 3790 
Q 1213 4084 1850 4128 
L 1850 4863 
L 2163 4863 
L 2163 4138 
Q 2453 4125 2725 4076 
Q 2997 4028 3256 3944 
L 3256 3397 
Q 2997 3528 2723 3600 
Q 2450 3672 2163 3684 
L 2163 2350 
Q 2872 2241 3206 1959 
Q 3541 1678 3541 1191 
Q 3541 663 3186 358 
Q 2831 53 2163 6 
L 2163 -941 
z
M 1850 2406 
L 1850 3688 
Q 1488 3647 1297 3481 
Q 1106 3316 1106 3041 
Q 1106 2772 1282 2622 
Q 1459 2472 1850 2406 
z
M 2163 1806 
L 2163 453 
Q 2559 506 2761 678 
Q 2963 850 2963 1131 
Q 2963 1406 2770 1568 
Q 2578 1731 2163 1806 
z
" transform="scale(0.015625)"/>
       </defs>
       <use xlink:href="#DejaVuSans-24"/>
       <use xlink:href="#DejaVuSans-30" transform="translate(63.623047 0)"/>
      </g>
     </g>
    </g>
    <g id="ytick_2">
     <g id="line2d_17">
      <path d="M 34.56 124.401651 
L 414.827884 124.401651 
" clip-path="url(#p0eaf739642)" style="fill: none; stroke: #21262d; stroke-opacity: 0.5; stroke-width: 0.5; stroke-linecap: square"/>
     </g>
     <g id="line2d_18">
      <g>
       <use xlink:href="#m0fae0f5fa9" x="34.56" y="124.401651" style="fill: #c9d1d9; stroke: #c9d1d9; stroke-width: 0.8"/>
      </g>
     </g>
     <g id="text_9">
      <!-- $100 -->
      <g style="fill: #c9d1d9" transform="translate(7.2 127.441026) scale(0.08 -0.08)">
       <use xlink:href="#DejaVuSans-24"/>
       <use xlink:href="#DejaVuSans-31" transform="translate(63.623047 0)"/>
       <use xlink:href="#DejaVuSans-30" transform="translate(127.246094 0)"/>
       <use xlink:href="#DejaVuSans-30" transform="translate(190.869141 0)"/>
      </g>
     </g>
    </g>
    <g id="ytick_3">
     <g id="line2d_19">
      <path d="M 34.56 103.574111 
L 414.827884 103.574111 
" clip-path="url(#p0eaf739642)" style="fill: none; stroke: #21262d; stroke-opacity: 0.5; stroke-width: 0.5; stroke-linecap: square"/>
     </g>
     <g id="line2d_20">
      <g>
       <use xlink:href="#m0fae0f5fa9" x="34.56" y="103.574111" style="fill: #c9d1d9; stroke: #c9d1d9; stroke-width: 0.8"/>
      </g>
     </g>
     <g id="text_10">
      <!-- $200 -->
      <g style="fill: #c9d1d9" transform="translate(7.2 106.613486) scale(0.08 -0.08)">
       <use xlink:href="#DejaVuSans-24"/>
       <use xlink:href="#DejaVuSans-32" transform="translate(63.623047 0)"/>
       <use xlink:href="#DejaVuSans-30" transform="translate(127.246094 0)"/>
       <use xlink:href="#DejaVuSans-30" transform="translate(190.869141 0)"/>
      </g>
     </g>
    </g>
    <g id="ytick_4">
     <g id="line2d_21">
      <path d="M 34.56 82.746572 
L 414.827884 82.746572 
" clip-path="url(#p0eaf739642)" style="fill: none; stroke: #21262d; stroke-opacity: 0.5; stroke-width: 0.5; stroke-linecap: square"/>
     </g>
     <g id="line2d_22">
      <g>
       <use xlink:href="#m0fae0f5fa9" x="34.56" y="82.746572" style="fill: #c9d1d9; stroke: #c9d1d9; stroke-width: 0.8"/>
      </g>
     </g>
     <g id="text_11">
      <!-- $300 -->
      <g style="fill: #c9d1d9" transform="translate(7.2 85.785947) scale(0.08 -0.08)">
       <defs>
        <path id="DejaVuSans-33" d="M 2597 2516 
Q 3050 2419 3304 2112 
Q 3559 1806 3559 1356 
Q 3559 666 3084 287 
Q 2609 -91 1734 -91 
Q 1441 -91 1130 -33 
Q 819 25 488 141 
L 488 750 
Q 750 597 1062 519 
Q 1375 441 1716 441 
Q 2309 441 2620 675 
Q 2931 909 2931 1356 
Q 2931 1769 2642 2001 
Q 2353 2234 1838 2234 
L 1294 2234 
L 1294 2753 
L 1863 2753 
Q 2328 2753 2575 2939 
Q 2822 3125 2822 3475 
Q 2822 3834 2567 4026 
Q 2313 4219 1838 4219 
Q 1578 4219 1281 4162 
Q 984 4106 628 3988 
L 628 4550 
Q 988 4650 1302 4700 
Q 1616 4750 1894 4750 
Q 2613 4750 3031 4423 
Q 3450 4097 3450 3541 
Q 3450 3153 3228 2886 
Q 3006 2619 2597 2516 
z
" transform="scale(0.015625)"/>
       </defs>
       <use xlink:href="#DejaVuSans-24"/>
       <use xlink:href="#DejaVuSans-33" transform="translate(63.623047 0)"/>
       <use xlink:href="#DejaVuSans-30" transform="translate(127.246094 0)"/>
       <use xlink:href="#DejaVuSans-30" transform="translate(190.869141 0)"/>
      </g>
     </g>
    </g>
    <g id="ytick_5">
     <g id="line2d_23">
      <path d="M 34.56 61.919033 
L 414.827884 61.919033 
" clip-path="url(#p0eaf739642)" style="fill: none; stroke: #21262d; stroke-opacity: 0.5; stroke-width: 0.5; stroke-linecap: square"/>
     </g>
     <g id="line2d_24">
      <g>
       <use xlink:href="#m0fae0f5fa9" x="34.56" y="61.919033" style="fill: #c9d1d9; stroke: #c9d1d9; stroke-width: 0.8"/>
      </g>
     </g>
     <g id="text_12">
      <!-- $400 -->
      <g style="fill: #c9d1d9" transform="translate(7.2 64.958408) scale(0.08 -0.08)">
       <use xlink:href="#DejaVuSans-24"/>
       <use xlink:href="#DejaVuSans-34" transform="translate(63.623047 0)"/>
       <use xlink:href="#DejaVuSans-30" transform="translate(127.246094 0)"/>
       <use xlink:href="#DejaVuSans-30" transform="translate(190.869141 0)"/>
      </g>
     </g>
    </g>
    <g id="ytick_6">
     <g id="line2d_25">
      <path d="M 34.56 41.091493 
L 414.827884 41.091493 
" clip-path="url(#p0eaf739642)" style="fill: none; stroke: #21262d; stroke-opacity: 0.5; stroke-width: 0.5; stroke-linecap: square"/>
     </g>
     <g id="line2d_26">
      <g>
       <use xlink:href="#m0fae0f5fa9" x="34.56" y="41.091493" style="fill: #c9d1d9; stroke: #c9d1d9; stroke-width: 0.8"/>
      </g>
     </g>
     <g id="text_13">
      <!-- $500 -->
      <g style="fill: #c9d1d9" transform="translate(7.2 44.130868) scale(0.08 -0.08)">
       <defs>
        <path id="DejaVuSans-35" d="M 691 4666 
L 3169 4666 
L 3169 4134 
L 1269 4134 
L 1269 2991 
Q 1406 3038 1543 3061 
Q 1681 3084 1819 3084 
Q 2600 3084 3056 2656 
Q 3513 2228 3513 1497 
Q 3513 744 3044 326 
Q 2575 -91 1722 -91 
Q 1428 -91 1123 -41 
Q 819 9 494 109 
L 494 744 
Q 775 591 1075 516 
Q 1375 441 1709 441 
Q 2250 441 2565 725 
Q 2881 1009 2881 1497 
Q 2881 1984 2565 2268 
Q 2250 2553 1709 2553 
Q 1456 2553 1204 2497 
Q 953 2441 691 2322 
L 691 4666 
z
" transform="scale(0.015625)"/>
       </defs>
       <use xlink:href="#DejaVuSans-24"/>
       <use xlink:href="#DejaVuSans-35" transform="translate(63.623047 0)"/>
       <use xlink:href="#DejaVuSans-30" transform="translate(127.246094 0)"/>
       <use xlink:href="#DejaVuSans-30" transform="translate(190.869141 0)"/>
      </g>
     </g>
    </g>
   </g>
   <g id="line2d_27">
    <path d="M 51.844904 69.123279 
L 54.82506 68.221446 
L 57.805215 36.478193 
L 60.785371 54.49818 
L 63.765527 74.809197 
L 66.745683 47.435562 
L 69.725839 74.923748 
L 72.705995 71.576763 
L 75.68615 67.500813 
L 78.666306 27.447372 
L 81.646462 43.313792 
L 84.626618 61.525392 
L 87.606774 56.141473 
L 90.58693 68.113143 
L 93.567085 57.311981 
L 96.547241 43.509571 
L 99.527397 54.206595 
L 102.507553 62.179377 
L 105.487709 70.664516 
L 108.467865 75.646464 
L 111.44802 74.561349 
L 114.428176 41.576775 
L 117.408332 54.581491 
L 120.388488 75.615223 
L 123.368644 74.455129 
L 126.3488 74.488453 
L 129.328955 74.725887 
L 132.309111 75.761015 
L 135.289267 39.754365 
L 138.269423 48.599821 
L 141.249579 43.649115 
L 144.229735 49.410012 
L 147.20989 42.441118 
L 150.190046 51.780186 
L 153.170202 37.9507 
L 156.150358 45.527759 
L 159.130514 42.930565 
L 162.11067 58.697012 
L 165.090825 51.034561 
L 168.070981 51.063719 
L 171.051137 73.338773 
L 174.031293 62.841693 
L 177.011449 58.211731 
L 179.991605 69.841829 
L 182.97176 59.369742 
L 185.951916 46.633701 
L 188.932072 58.184655 
L 191.912228 50.945002 
L 194.892384 54.316981 
L 197.87254 45.636062 
L 200.852695 50.811706 
L 203.832851 69.241996 
L 206.813007 82.400835 
L 209.793163 74.7967 
L 212.773319 44.198962 
L 215.753475 47.743809 
L 218.73363 59.41348 
L 221.713786 40.443757 
L 224.693942 60.619394 
L 227.674098 53.3485 
L 230.654254 46.100516 
L 233.634409 60.515256 
L 236.614565 80.730466 
L 239.594721 74.136467 
L 242.574877 82.650765 
L 245.555033 79.797392 
L 248.535189 80.576342 
L 251.515344 61.008869 
L 254.4955 79.716165 
L 257.475656 36.030401 
L 260.455812 84.423189 
L 263.435968 62.908341 
L 266.416124 68.787955 
L 269.396279 63.329057 
L 272.376435 50.707568 
L 275.356591 72.486926 
L 278.336747 64.147579 
L 281.316903 68.038164 
L 284.297059 45.311153 
L 287.277214 51.861414 
L 290.25737 49.274633 
L 293.237526 49.905708 
L 296.217682 50.174383 
L 299.197838 83.642156 
L 302.177994 57.222423 
L 305.158149 81.944712 
L 308.138305 78.401947 
L 311.118461 64.705757 
L 314.098617 62.012757 
L 317.078773 62.8167 
L 320.058929 47.854195 
L 323.039084 52.565385 
L 326.01924 53.442224 
L 328.999396 66.832249 
L 331.979552 56.753803 
L 334.959708 50.620093 
L 337.939864 76.5358 
L 340.920019 73.205476 
L 343.900175 47.135645 
L 346.880331 55.789488 
L 349.860487 59.509286 
L 352.840643 59.607176 
L 355.820799 73.634524 
L 358.800954 59.553024 
L 361.78111 42.361973 
L 364.761266 50.188962 
L 367.741422 43.740756 
L 370.721578 51.655221 
L 373.701734 80.919997 
L 376.681889 78.193672 
L 379.662045 81.313637 
L 382.642201 81.66354 
L 385.622357 44.913347 
L 388.602513 46.581633 
L 391.582669 48.412373 
L 394.562824 75.669374 
L 397.54298 43.984438 
" clip-path="url(#p0eaf739642)" style="fill: none; stroke: #3fb950; stroke-width: 2; stroke-linecap: square"/>
   </g>
   <g id="patch_3">
    <path d="M 34.56 151.118281 
L 34.56 21.558281 
" style="fill: none; stroke: #21262d; stroke-width: 0.8; stroke-linejoin: miter; stroke-linecap: square"/>
   </g>
   <g id="patch_4">
    <path d="M 34.56 151.118281 
L 414.827884 151.118281 
" style="fill: none; stroke: #21262d; stroke-width: 0.8; stroke-linejoin: miter; stroke-linecap: square"/>
   </g>
   <g id="text_14">
    <!-- DENO (denoland/deno) — $486.11 (+45.55%) -->
    <g style="fill: #c9d1d9" transform="translate(85.131442 15.558281) scale(0.11 -0.11)">
     <defs>
      <path id="DejaVuSans-Bold-44" d="M 1791 3756 
L 1791 909 
L 2222 909 
Q 2959 909 3348 1275 
Q 3738 1641 3738 2338 
Q 3738 3031 3350 3393 
Q 2963 3756 2222 3756 
L 1791 3756 
z
M 588 4666 
L 1856 4666 
Q 2919 4666 3439 4514 
Q 3959 4363 4331 4000 
Q 4659 3684 4818 3271 
Q 4978 2859 4978 2338 
Q 4978 1809 4818 1395 
Q 4659 981 4331 666 
Q 3956 303 3431 151 
Q 2906 0 1856 0 
L 588 0 
L 588 4666 
z
" transform="scale(0.015625)"/>
      <path id="DejaVuSans-Bold-45" d="M 588 4666 
L 3834 4666 
L 3834 3756 
L 1791 3756 
L 1791 2888 
L 3713 2888 
L 3713 1978 
L 1791 1978 
L 1791 909 
L 3903 909 
L 3903 0 
L 588 0 
L 588 4666 
z
" transform="scale(0.015625)"/>
      <path id="DejaVuSans-Bold-4e" d="M 588 4666 
L 1931 4666 
L 3628 1466 
L 3628 4666 
L 4769 4666 
L 4769 0 
L 3425 0 
L 1728 3200 
L 1728 0 
L 588 0 
L 588 4666 
z
" transform="scale(0.015625)"/>
      <path id="DejaVuSans-Bold-4f" d="M 2719 3878 
Q 2169 3878 1866 3472 
Q 1563 3066 1563 2328 
Q 1563 1594 1866 1187 
Q 2169 781 2719 781 
Q 3272 781 3575 1187 
Q 3878 1594 3878 2328 
Q 3878 3066 3575 3472 
Q 3272 3878 2719 3878 
z
M 2719 4750 
Q 3844 4750 4481 4106 
Q 5119 3463 5119 2328 
Q 5119 1197 4481 553 
Q 3844 -91 2719 -91 
Q 1597 -91 958 553 
Q 319 1197 319 2328 
Q 319 3463 958 4106 
Q 1597 4750 2719 4750 
z
" transform="scale(0.015625)"/>
      <path id="DejaVuSans-Bold-20" transform="scale(0.015625)"/>
      <path id="DejaVuSans-Bold-28" d="M 2413 -844 
L 1484 -844 
Q 1006 -72 778 623 
Q 550 1319 550 2003 
Q 550 2688 779 3389 
Q 1009 4091 1484 4856 
L 2413 4856 
Q 2013 4116 1813 3408 
Q 1613 2700 1613 2009 
Q 1613 1319 1811 609 
Q 2009 -100 2413 -844 
z
" transform="scale(0.015625)"/>
      <path id="DejaVuSans-Bold-64" d="M 2919 2988 
L 2919 4863 
L 4044 4863 
L 4044 0 
L 2919 0 
L 2919 506 
Q 2688 197 2409 53 
Q 2131 -91 1766 -91 
Q 1119 -91 703 423 
Q 288 938 288 1747 
Q 288 2556 703 3070 
Q 1119 3584 1766 3584 
Q 2128 3584 2408 3439 
Q 2688 3294 2919 2988 
z
M 2181 722 
Q 2541 722 2730 984 
Q 2919 1247 2919 1747 
Q 2919 2247 2730 2509 
Q 2541 2772 2181 2772 
Q 1825 2772 1636 2509 
Q 1447 2247 1447 1747 
Q 1447 1247 1636 984 
Q 1825 722 2181 722 
z
" transform="scale(0.015625)"/>
      <path id="DejaVuSans-Bold-65" d="M 4031 1759 
L 4031 1441 
L 1416 1441 
Q 1456 1047 1700 850 
Q 1944 653 2381 653 
Q 2734 653 3104 758 
Q 3475 863 3866 1075 
L 3866 213 
Q 3469 63 3072 -14 
Q 2675 -91 2278 -91 
Q 1328 -91 801 392 
Q 275 875 275 1747 
Q 275 2603 792 3093 
Q 1309 3584 2216 3584 
Q 3041 3584 3536 3087 
Q 4031 2591 4031 1759 
z
M 2881 2131 
Q 2881 2450 2695 2645 
Q 2509 2841 2209 2841 
Q 1884 2841 1681 2658 
Q 1478 2475 1428 2131 
L 2881 2131 
z
" transform="scale(0.015625)"/>
      <path id="DejaVuSans-Bold-6e" d="M 4056 2131 
L 4056 0 
L 2931 0 
L 2931 347 
L 2931 1631 
Q 2931 2084 2911 2256 
Q 2891 2428 2841 2509 
Q 2775 2619 2662 2680 
Q 2550 2741 2406 2741 
Q 2056 2741 1856 2470 
Q 1656 2200 1656 1722 
L 1656 0 
L 538 0 
L 538 3500 
L 1656 3500 
L 1656 2988 
Q 1909 3294 2193 3439 
Q 2478 3584 2822 3584 
Q 3428 3584 3742 3212 
Q 4056 2841 4056 2131 
z
" transform="scale(0.015625)"/>
      <path id="DejaVuSans-Bold-6f" d="M 2203 2784 
Q 1831 2784 1636 2517 
Q 1441 2250 1441 1747 
Q 1441 1244 1636 976 
Q 1831 709 2203 709 
Q 2569 709 2762 976 
Q 2956 1244 2956 1747 
Q 2956 2250 2762 2517 
Q 2569 2784 2203 2784 
z
M 2203 3584 
Q 3106 3584 3614 3096 
Q 4122 2609 4122 1747 
Q 4122 884 3614 396 
Q 3106 -91 2203 -91 
Q 1297 -91 786 396 
Q 275 884 275 1747 
Q 275 2609 786 3096 
Q 1297 3584 2203 3584 
z
" transform="scale(0.015625)"/>
      <path id="DejaVuSans-Bold-6c" d="M 538 4863 
L 1656 4863 
L 1656 0 
L 538 0 
L 538 4863 
z
" transform="scale(0.015625)"/>
      <path id="DejaVuSans-Bold-61" d="M 2106 1575 
Q 1756 1575 1579 1456 
Q 1403 1338 1403 1106 
Q 1403 894 1545 773 
Q 1688 653 1941 653 
Q 2256 653 2472 879 
Q 2688 1106 2688 1447 
L 2688 1575 
L 2106 1575 
z
M 3816 1997 
L 3816 0 
L 2688 0 
L 2688 519 
Q 2463 200 2181 54 
Q 1900 -91 1497 -91 
Q 953 -91 614 226 
Q 275 544 275 1050 
Q 275 1666 698 1953 
Q 1122 2241 2028 2241 
L 2688 2241 
L 2688 2328 
Q 2688 2594 2478 2717 
Q 2269 2841 1825 2841 
Q 1466 2841 1156 2769 
Q 847 2697 581 2553 
L 581 3406 
Q 941 3494 1303 3539 
Q 1666 3584 2028 3584 
Q 2975 3584 3395 3211 
Q 3816 2838 3816 1997 
z
" transform="scale(0.015625)"/>
      <path id="DejaVuSans-Bold-2f" d="M 1644 4666 
L 2338 4666 
L 691 -594 
L 0 -594 
L 1644 4666 
z
" transform="scale(0.015625)"/>
      <path id="DejaVuSans-Bold-29" d="M 513 -844 
Q 913 -100 1113 609 
Q 1313 1319 1313 2009 
Q 1313 2700 1113 3408 
Q 913 4116 513 4856 
L 1441 4856 
Q 1916 4091 2145 3389 
Q 2375 2688 2375 2003 
Q 2375 1319 2147 623 
Q 1919 -72 1441 -844 
L 513 -844 
z
" transform="scale(0.015625)"/>
      <path id="DejaVuSans-Bold-2014" d="M 344 2156 
L 6056 2156 
L 6056 1350 
L 344 1350 
L 344 2156 
z
" transform="scale(0.015625)"/>
      <path id="DejaVuSans-Bold-24" d="M 2484 -941 
L 1978 -941 
L 1975 0 
Q 1584 16 1218 87 
Q 853 159 506 288 
L 506 1106 
Q 866 922 1233 823 
Q 1600 725 1978 713 
L 1978 1684 
L 1875 1703 
Q 1128 1834 814 2115 
Q 500 2397 500 2925 
Q 500 3484 883 3798 
Q 1266 4113 1975 4141 
L 1978 4863 
L 2484 4863 
L 2484 4153 
Q 2797 4128 3109 4075 
Q 3422 4022 3738 3938 
L 3738 3144 
Q 3425 3275 3112 3348 
Q 2800 3422 2484 3438 
L 2484 2541 
L 2584 2522 
Q 3378 2397 3698 2105 
Q 4019 1813 4019 1241 
Q 4019 666 3637 358 
Q 3256 50 2484 6 
L 2484 -941 
z
M 1978 2613 
L 1978 3428 
Q 1756 3416 1623 3308 
Q 1491 3200 1491 3034 
Q 1491 2850 1612 2745 
Q 1734 2641 1978 2613 
z
M 2484 1594 
L 2484 725 
Q 2756 728 2892 831 
Q 3028 934 3028 1141 
Q 3028 1353 2903 1458 
Q 2778 1563 2484 1594 
z
" transform="scale(0.015625)"/>
      <path id="DejaVuSans-Bold-34" d="M 2356 3675 
L 1038 1722 
L 2356 1722 
L 2356 3675 
z
M 2156 4666 
L 3494 4666 
L 3494 1722 
L 4159 1722 
L 4159 850 
L 3494 850 
L 3494 0 
L 2356 0 
L 2356 850 
L 288 850 
L 288 1881 
L 2156 4666 
z
" transform="scale(0.015625)"/>
      <path id="DejaVuSans-Bold-38" d="M 2228 2088 
Q 1891 2088 1709 1903 
Q 1528 1719 1528 1375 
Q 1528 1031 1709 848 
Q 1891 666 2228 666 
Q 2563 666 2741 848 
Q 2919 1031 2919 1375 
Q 2919 1722 2741 1905 
Q 2563 2088 2228 2088 
z
M 1350 2484 
Q 925 2613 709 2878 
Q 494 3144 494 3541 
Q 494 4131 934 4440 
Q 1375 4750 2228 4750 
Q 3075 4750 3515 4442 
Q 3956 4134 3956 3541 
Q 3956 3144 3739 2878 
Q 3522 2613 3097 2484 
Q 3572 2353 3814 2058 
Q 4056 1763 4056 1313 
Q 4056 619 3595 264 
Q 3134 -91 2228 -91 
Q 1319 -91 855 264 
Q 391 619 391 1313 
Q 391 1763 633 2058 
Q 875 2353 1350 2484 
z
M 1631 3419 
Q 1631 3141 1786 2991 
Q 1941 2841 2228 2841 
Q 2509 2841 2662 2991 
Q 2816 3141 2816 3419 
Q 2816 3697 2662 3845 
Q 2509 3994 2228 3994 
Q 1941 3994 1786 3844 
Q 1631 3694 1631 3419 
z
" transform="scale(0.015625)"/>
      <path id="DejaVuSans-Bold-36" d="M 2316 2303 
Q 2000 2303 1842 2098 
Q 1684 1894 1684 1484 
Q 1684 1075 1842 870 
Q 2000 666 2316 666 
Q 2634 666 2792 870 
Q 2950 1075 2950 1484 
Q 2950 1894 2792 2098 
Q 2634 2303 2316 2303 
z
M 3803 4544 
L 3803 3681 
Q 3506 3822 3243 3889 
Q 2981 3956 2731 3956 
Q 2194 3956 1894 3657 
Q 1594 3359 1544 2772 
Q 1750 2925 1990 3001 
Q 2231 3078 2516 3078 
Q 3231 3078 3670 2659 
Q 4109 2241 4109 1563 
Q 4109 813 3618 361 
Q 3128 -91 2303 -91 
Q 1394 -91 895 523 
Q 397 1138 397 2266 
Q 397 3422 980 4083 
Q 1563 4744 2578 4744 
Q 2900 4744 3203 4694 
Q 3506 4644 3803 4544 
z
" transform="scale(0.015625)"/>
      <path id="DejaVuSans-Bold-2e" d="M 653 1209 
L 1778 1209 
L 1778 0 
L 653 0 
L 653 1209 
z
" transform="scale(0.015625)"/>
      <path id="DejaVuSans-Bold-31" d="M 750 831 
L 1813 831 
L 1813 3847 
L 722 3622 
L 722 4441 
L 1806 4666 
L 2950 4666 
L 2950 831 
L 4013 831 
L 4013 0 
L 750 0 
L 750 831 
z
" transform="scale(0.015625)"/>
      <path id="DejaVuSans-Bold-2b" d="M 3053 4013 
L 3053 2375 
L 4684 2375 
L 4684 1638 
L 3053 1638 
L 3053 0 
L 2309 0 
L 2309 1638 
L 678 1638 
L 678 2375 
L 2309 2375 
L 2309 4013 
L 3053 4013 
z
" transform="scale(0.015625)"/>
      <path id="DejaVuSans-Bold-35" d="M 678 4666 
L 3669 4666 
L 3669 3781 
L 1638 3781 
L 1638 3059 
Q 1775 3097 1914 3117 
Q 2053 3138 2203 3138 
Q 3056 3138 3531 2711 
Q 4006 2284 4006 1522 
Q 4006 766 3489 337 
Q 2972 -91 2053 -91 
Q 1656 -91 1267 -14 
Q 878 63 494 219 
L 494 1166 
Q 875 947 1217 837 
Q 1559 728 1863 728 
Q 2300 728 2551 942 
Q 2803 1156 2803 1522 
Q 2803 1891 2551 2103 
Q 2300 2316 1863 2316 
Q 1603 2316 1309 2248 
Q 1016 2181 678 2041 
L 678 4666 
z
" transform="scale(0.015625)"/>
      <path id="DejaVuSans-Bold-25" d="M 4959 1925 
Q 4738 1925 4616 1733 
Q 4494 1541 4494 1184 
Q 4494 825 4614 633 
Q 4734 441 4959 441 
Q 5184 441 5303 633 
Q 5422 825 5422 1184 
Q 5422 1541 5301 1733 
Q 5181 1925 4959 1925 
z
M 4959 2450 
Q 5541 2450 5875 2112 
Q 6209 1775 6209 1184 
Q 6209 594 5875 251 
Q 5541 -91 4959 -91 
Q 4378 -91 4042 251 
Q 3706 594 3706 1184 
Q 3706 1772 4042 2111 
Q 4378 2450 4959 2450 
z
M 2094 -91 
L 1403 -91 
L 4319 4750 
L 5013 4750 
L 2094 -91 
z
M 1453 4750 
Q 2034 4750 2367 4411 
Q 2700 4072 2700 3481 
Q 2700 2891 2367 2550 
Q 2034 2209 1453 2209 
Q 872 2209 539 2550 
Q 206 2891 206 3481 
Q 206 4072 539 4411 
Q 872 4750 1453 4750 
z
M 1453 4225 
Q 1228 4225 1106 4031 
Q 984 3838 984 3481 
Q 984 3122 1106 2926 
Q 1228 2731 1453 2731 
Q 1678 2731 1798 2926 
Q 1919 3122 1919 3481 
Q 1919 3838 1797 4031 
Q 1675 4225 1453 4225 
z
" transform="scale(0.015625)"/>
     </defs>
     <use xlink:href="#DejaVuSans-Bold-44"/>
     <use xlink:href="#DejaVuSans-Bold-45" transform="translate(83.007812 0)"/>
     <use xlink:href="#DejaVuSans-Bold-4e" transform="translate(151.318359 0)"/>
     <use xlink:href="#DejaVuSans-Bold-4f" transform="translate(235.009766 0)"/>
     <use xlink:href="#DejaVuSans-Bold-20" transform="translate(320.019531 0)"/>
     <use xlink:href="#DejaVuSans-Bold-28" transform="translate(354.833984 0)"/>
     <use xlink:href="#DejaVuSans-Bold-64" transform="translate(400.537109 0)"/>
     <use xlink:href="#DejaVuSans-Bold-65" transform="translate(472.119141 0)"/>
     <use xlink:href="#DejaVuSans-Bold-6e" transform="translate(539.941406 0)"/>
     <use xlink:href="#DejaVuSans-Bold-6f" transform="translate(611.132812 0)"/>
     <use xlink:href="#DejaVuSans-Bold-6c" transform="translate(679.833984 0)"/>
     <use xlink:href="#DejaVuSans-Bold-61" transform="translate(714.111328 0)"/>
     <use xlink:href="#DejaVuSans-Bold-6e" transform="translate(781.591797 0)"/>
     <use xlink:href="#DejaVuSans-Bold-64" transform="translate(852.783203 0)"/>
     <use xlink:href="#DejaVuSans-Bold-2f" transform="translate(924.365234 0)"/>
     <use xlink:href="#DejaVuSans-Bold-64" transform="translate(960.888672 0)"/>
     <use xlink:href="#DejaVuSans-Bold-65" transform="translate(1032.470703 0)"/>
     <use xlink:href="#DejaVuSans-Bold-6e" transform="translate(1100.292969 0)"/>
     <use xlink:href="#DejaVuSans-Bold-6f" transform="translate(1171.484375 0)"/>
     <use xlink:href="#DejaVuSans-Bold-29" transform="translate(1240.185547 0)"/>
     <use xlink:href="#DejaVuSans-Bold-20" transform="translate(1285.888672 0)"/>
     <use xlink:href="#DejaVuSans-Bold-2014" transform="translate(1320.703125 0)"/>
     <use xlink:href="#DejaVuSans-Bold-20" transform="translate(1420.703125 0)"/>
     <use xlink:href="#DejaVuSans-Bold-24" transform="translate(1455.517578 0)"/>
     <use xlink:href="#DejaVuSans-Bold-34" transform="translate(1525.097656 0)"/>
     <use xlink:href="#DejaVuSans-Bold-38" transform="translate(1594.677734 0)"/>
     <use xlink:href="#DejaVuSans-Bold-36" transform="translate(1664.257812 0)"/>
     <use xlink:href="#DejaVuSans-Bold-2e" transform="translate(1733.837891 0)"/>
     <use xlink:href="#DejaVuSans-Bold-31" transform="translate(1771.826172 0)"/>
     <use xlink:href="#DejaVuSans-Bold-31" transform="translate(1841.40625 0)"/>
     <use xlink:href="#DejaVuSans-Bold-20" transform="translate(1910.986328 0)"/>
     <use xlink:href="#DejaVuSans-Bold-28" transform="translate(1945.800781 0)"/>
     <use xlink:href="#DejaVuSans-Bold-2b" transform="translate(1991.503906 0)"/>
     <use xlink:href="#DejaVuSans-Bold-34" transform="translate(2075.292969 0)"/>
     <use xlink:href="#DejaVuSans-Bold-35" transform="translate(2144.873047 0)"/>
     <use xlink:href="#DejaVuSans-Bold-2e" transform="translate(2214.453125 0)"/>
     <use xlink:href="#DejaVuSans-Bold-35" transform="translate(2252.441406 0)"/>
     <use xlink:href="#DejaVuSans-Bold-35" transform="translate(2322.021484 0)"/>
     <use xlink:href="#DejaVuSans-Bold-25" transform="translate(2391.601562 0)"/>
     <use xlink:href="#DejaVuSans-Bold-29" transform="translate(2491.796875 0)"/>
    </g>
   </g>
  </g>
 </g>
 <defs>
  <clipPath id="p0eaf739642">
   <rect x="34.56" y="21.558281" width="380.267884" height="129.56"/>
  </clipPath>
 </defs>
</svg>
