<?xml version="1.0" encoding="utf-8" standalone="no"?>
<!DOCTYPE svg PUBLIC "-//W3C//DTD SVG 1.1//EN"
  "http://www.w3.org/Graphics/SVG/1.1/DTD/svg11.dtd">
<svg xmlns:xlink="http://www.w3.org/1999/xlink" width="425pt" height="172.518281pt" viewBox="0 0 425 172.518281" xmlns="http://www.w3.org/2000/svg" version="1.1">
 <metadata>
  <rdf:RDF xmlns:dc="http://purl.org/dc/elements/1.1/" xmlns:cc="http://creativecommons.org/ns#" xmlns:rdf="http://www.w3.org/1999/02/22-rdf-syntax-ns#">
   <cc:Work>
    <dc:type rdf:resource="http://purl.org/dc/dcmitype/StillImage"/>
    <dc:date>2026-07-01T19:06:04.438214</dc:date>
    <dc:format>image/svg+xml</dc:format>
    <dc:creator>
     <cc:Agent>
      <dc:title>Matplotlib v3.11.0, https://matplotlib.org/</dc:title>
     </cc:Agent>
    </dc:creator>
   </cc:Work>
  </rdf:RDF>
 </metadata>
 <defs>
  <style type="text/css">*{stroke-linejoin: round; stroke-linecap: butt}</style>
 </defs>
 <g id="figure_1">
  <g id="patch_1">
   <path d="M 0 172.518281 
L 425 172.518281 
L 425 0 
L 0 0 
z
" style="fill: #0d1117"/>
  </g>
  <g id="axes_1">
   <g id="patch_2">
    <path d="M 34.56 150.318281 
L 417.8 150.318281 
L 417.8 21.558281 
L 34.56 21.558281 
z
" style="fill: #0d1117"/>
   </g>
   <g id="FillBetweenPolyCollection_1">
    <defs>
     <path id="mc004c5f213" d="M 51.98 -28.052727 
L 51.98 -138.876513 
L 55.205926 -135.921212 
L 58.431852 -134.468189 
L 61.657778 -137.335535 
L 64.883704 -132.424106 
L 68.10963 -137.120924 
L 71.335556 -137.061114 
L 74.561481 -136.434872 
L 77.787407 -133.289587 
L 81.013333 -136.368026 
L 84.239259 -137.659211 
L 87.465185 -136.332843 
L 90.691111 -138.264344 
L 93.917037 -133.127749 
L 97.142963 -136.543936 
L 100.368889 -140.181771 
L 103.594815 -138.753376 
L 106.820741 -143.780906 
L 110.046667 -136.561527 
L 113.272593 -139.485164 
L 116.498519 -137.757721 
L 119.724444 -136.434872 
L 122.95037 -141.265381 
L 126.176296 -137.391826 
L 129.402222 -140.318982 
L 132.628148 -139.101679 
L 135.854074 -140.681358 
L 139.08 -138.091951 
L 142.305926 -135.411071 
L 145.531852 -135.703083 
L 148.757778 -136.135823 
L 151.983704 -140.846714 
L 155.20963 -134.577254 
L 158.435556 -141.807187 
L 161.661481 -134.035449 
L 164.887407 -142.978752 
L 168.113333 -134.974812 
L 171.339259 -138.510619 
L 174.565185 -137.613474 
L 177.791111 -143.070226 
L 181.017037 -142.11679 
L 184.242963 -134.197287 
L 187.468889 -140.167698 
L 190.694815 -136.846503 
L 193.920741 -134.967776 
L 197.146667 -136.051386 
L 200.372593 -139.013724 
L 203.598519 -134.573736 
L 206.824444 -140.385828 
L 210.05037 -135.615128 
L 213.276296 -140.209917 
L 216.502222 -136.030277 
L 219.728148 -138.303044 
L 222.954074 -137.310907 
L 226.18 -134.707428 
L 229.405926 -134.893893 
L 232.631852 -140.741167 
L 235.857778 -134.87982 
L 239.083704 -135.231642 
L 242.30963 -140.445637 
L 245.535556 -136.73392 
L 248.761481 -139.914387 
L 251.987407 -135.699565 
L 255.213333 -136.681147 
L 258.439259 -139.175562 
L 261.665185 -139.82995 
L 264.891111 -130.890164 
L 268.117037 -133.472534 
L 271.342963 -135.667901 
L 274.568889 -128.043928 
L 277.794815 -134.612436 
L 281.020741 -124.712178 
L 284.246667 -142.282146 
L 287.472593 -140.227508 
L 290.698519 -137.022414 
L 293.924444 -137.697911 
L 297.15037 -139.21778 
L 300.376296 -138.454327 
L 303.602222 -138.880031 
L 306.828148 -141.828296 
L 310.054074 -137.821049 
L 313.28 -134.844638 
L 316.505926 -135.572909 
L 319.731852 -130.619262 
L 322.957778 -134.93963 
L 326.183704 -136.945013 
L 329.40963 -136.586155 
L 332.635556 -133.905275 
L 335.861481 -135.72771 
L 339.087407 -136.561527 
L 342.313333 -132.920174 
L 345.539259 -138.858922 
L 348.765185 -139.435909 
L 351.991111 -141.026143 
L 355.217037 -141.803668 
L 358.442963 -138.102506 
L 361.668889 -143.69295 
L 364.894815 -139.534419 
L 368.120741 -143.882934 
L 371.346667 -141.522211 
L 374.572593 -135.446253 
L 377.798519 -141.589057 
L 381.024444 -134.981849 
L 384.25037 -145.107273 
L 387.476296 -136.755029 
L 390.702222 -143.787942 
L 393.928148 -140.382309 
L 397.154074 -138.120097 
L 400.38 -141.381483 
L 400.38 -28.052727 
L 400.38 -28.052727 
L 397.154074 -28.052727 
L 393.928148 -28.052727 
L 390.702222 -28.052727 
L 387.476296 -28.052727 
L 384.25037 -28.052727 
L 381.024444 -28.052727 
L 377.798519 -28.052727 
L 374.572593 -28.052727 
L 371.346667 -28.052727 
L 368.120741 -28.052727 
L 364.894815 -28.052727 
L 361.668889 -28.052727 
L 358.442963 -28.052727 
L 355.217037 -28.052727 
L 351.991111 -28.052727 
L 348.765185 -28.052727 
L 345.539259 -28.052727 
L 342.313333 -28.052727 
L 339.087407 -28.052727 
L 335.861481 -28.052727 
L 332.635556 -28.052727 
L 329.40963 -28.052727 
L 326.183704 -28.052727 
L 322.957778 -28.052727 
L 319.731852 -28.052727 
L 316.505926 -28.052727 
L 313.28 -28.052727 
L 310.054074 -28.052727 
L 306.828148 -28.052727 
L 303.602222 -28.052727 
L 300.376296 -28.052727 
L 297.15037 -28.052727 
L 293.924444 -28.052727 
L 290.698519 -28.052727 
L 287.472593 -28.052727 
L 284.246667 -28.052727 
L 281.020741 -28.052727 
L 277.794815 -28.052727 
L 274.568889 -28.052727 
L 271.342963 -28.052727 
L 268.117037 -28.052727 
L 264.891111 -28.052727 
L 261.665185 -28.052727 
L 258.439259 -28.052727 
L 255.213333 -28.052727 
L 251.987407 -28.052727 
L 248.761481 -28.052727 
L 245.535556 -28.052727 
L 242.30963 -28.052727 
L 239.083704 -28.052727 
L 235.857778 -28.052727 
L 232.631852 -28.052727 
L 229.405926 -28.052727 
L 226.18 -28.052727 
L 222.954074 -28.052727 
L 219.728148 -28.052727 
L 216.502222 -28.052727 
L 213.276296 -28.052727 
L 210.05037 -28.052727 
L 206.824444 -28.052727 
L 203.598519 -28.052727 
L 200.372593 -28.052727 
L 197.146667 -28.052727 
L 193.920741 -28.052727 
L 190.694815 -28.052727 
L 187.468889 -28.052727 
L 184.242963 -28.052727 
L 181.017037 -28.052727 
L 177.791111 -28.052727 
L 174.565185 -28.052727 
L 171.339259 -28.052727 
L 168.113333 -28.052727 
L 164.887407 -28.052727 
L 161.661481 -28.052727 
L 158.435556 -28.052727 
L 155.20963 -28.052727 
L 151.983704 -28.052727 
L 148.757778 -28.052727 
L 145.531852 -28.052727 
L 142.305926 -28.052727 
L 139.08 -28.052727 
L 135.854074 -28.052727 
L 132.628148 -28.052727 
L 129.402222 -28.052727 
L 126.176296 -28.052727 
L 122.95037 -28.052727 
L 119.724444 -28.052727 
L 116.498519 -28.052727 
L 113.272593 -28.052727 
L 110.046667 -28.052727 
L 106.820741 -28.052727 
L 103.594815 -28.052727 
L 100.368889 -28.052727 
L 97.142963 -28.052727 
L 93.917037 -28.052727 
L 90.691111 -28.052727 
L 87.465185 -28.052727 
L 84.239259 -28.052727 
L 81.013333 -28.052727 
L 77.787407 -28.052727 
L 74.561481 -28.052727 
L 71.335556 -28.052727 
L 68.10963 -28.052727 
L 64.883704 -28.052727 
L 61.657778 -28.052727 
L 58.431852 -28.052727 
L 55.205926 -28.052727 
L 51.98 -28.052727 
z
" style="stroke: #3fb950; stroke-opacity: 0.15"/>
    </defs>
    <g clip-path="url(#pbf6b5abb8c)">
     <use xlink:href="#mc004c5f213" x="0" y="172.518281" style="fill: #3fb950; fill-opacity: 0.15; stroke: #3fb950; stroke-opacity: 0.15"/>
    </g>
   </g>
   <g id="matplotlib.axis_1">
    <g id="xtick_1">
     <g id="line2d_1">
      <path d="M 51.98 150.318281 
L 51.98 21.558281 
" clip-path="url(#pbf6b5abb8c)" style="fill: none; stroke: #21262d; stroke-opacity: 0.5; stroke-width: 0.5; stroke-linecap: square"/>
     </g>
     <g id="line2d_2">
      <defs>
       <path id="m8d4f979a9b" d="M 0 0 
L 0 3.5 
" style="stroke: #c9d1d9; stroke-width: 0.8"/>
      </defs>
      <g>
       <use xlink:href="#m8d4f979a9b" x="51.98" y="150.318281" style="fill: #c9d1d9; stroke: #c9d1d9; stroke-width: 0.8"/>
      </g>
     </g>
     <g id="text_1">
      <!-- 0 -->
      <g style="fill: #c9d1d9" transform="translate(49.435 163.396406) scale(0.08 -0.08)">
       <defs>
        <path id="DejaVuSans-13" d="M 2034 4250 
Q 1547 4250 1301 3770 
Q 1056 3291 1056 2328 
Q 1056 1369 1301 889 
Q 1547 409 2034 409 
Q 2525 409 2770 889 
Q 3016 1369 3016 2328 
Q 3016 3291 2770 3770 
Q 2525 4250 2034 4250 
z
M 2034 4750 
Q 2819 4750 3233 4129 
Q 3647 3509 3647 2328 
Q 3647 1150 3233 529 
Q 2819 -91 2034 -91 
Q 1250 -91 836 529 
Q 422 1150 422 2328 
Q 422 3509 836 4129 
Q 1250 4750 2034 4750 
z
" transform="scale(0.015625)"/>
       </defs>
       <use xlink:href="#DejaVuSans-13"/>
      </g>
     </g>
    </g>
    <g id="xtick_2">
     <g id="line2d_3">
      <path d="M 116.498519 150.318281 
L 116.498519 21.558281 
" clip-path="url(#pbf6b5abb8c)" style="fill: none; stroke: #21262d; stroke-opacity: 0.5; stroke-width: 0.5; stroke-linecap: square"/>
     </g>
     <g id="line2d_4">
      <g>
       <use xlink:href="#m8d4f979a9b" x="116.498519" y="150.318281" style="fill: #c9d1d9; stroke: #c9d1d9; stroke-width: 0.8"/>
      </g>
     </g>
     <g id="text_2">
      <!-- 20 -->
      <g style="fill: #c9d1d9" transform="translate(111.408519 163.396406) scale(0.08 -0.08)">
       <defs>
        <path id="DejaVuSans-15" d="M 1228 531 
L 3431 531 
L 3431 0 
L 469 0 
L 469 531 
Q 828 903 1448 1529 
Q 2069 2156 2228 2338 
Q 2531 2678 2651 2914 
Q 2772 3150 2772 3378 
Q 2772 3750 2511 3984 
Q 2250 4219 1831 4219 
Q 1534 4219 1204 4116 
Q 875 4013 500 3803 
L 500 4441 
Q 881 4594 1212 4672 
Q 1544 4750 1819 4750 
Q 2544 4750 2975 4387 
Q 3406 4025 3406 3419 
Q 3406 3131 3298 2873 
Q 3191 2616 2906 2266 
Q 2828 2175 2409 1742 
Q 1991 1309 1228 531 
z
" transform="scale(0.015625)"/>
       </defs>
       <use xlink:href="#DejaVuSans-15"/>
       <use xlink:href="#DejaVuSans-13" transform="translate(63.625 0)"/>
      </g>
     </g>
    </g>
    <g id="xtick_3">
     <g id="line2d_5">
      <path d="M 181.017037 150.318281 
L 181.017037 21.558281 
" clip-path="url(#pbf6b5abb8c)" style="fill: none; stroke: #21262d; stroke-opacity: 0.5; stroke-width: 0.5; stroke-linecap: square"/>
     </g>
     <g id="line2d_6">
      <g>
       <use xlink:href="#m8d4f979a9b" x="181.017037" y="150.318281" style="fill: #c9d1d9; stroke: #c9d1d9; stroke-width: 0.8"/>
      </g>
     </g>
     <g id="text_3">
      <!-- 40 -->
      <g style="fill: #c9d1d9" transform="translate(175.927037 163.396406) scale(0.08 -0.08)">
       <defs>
        <path id="DejaVuSans-17" d="M 2419 4116 
L 825 1625 
L 2419 1625 
L 2419 4116 
z
M 2253 4666 
L 3047 4666 
L 3047 1625 
L 3713 1625 
L 3713 1100 
L 3047 1100 
L 3047 0 
L 2419 0 
L 2419 1100 
L 313 1100 
L 313 1709 
L 2253 4666 
z
" transform="scale(0.015625)"/>
       </defs>
       <use xlink:href="#DejaVuSans-17"/>
       <use xlink:href="#DejaVuSans-13" transform="translate(63.625 0)"/>
      </g>
     </g>
    </g>
    <g id="xtick_4">
     <g id="line2d_7">
      <path d="M 245.535556 150.318281 
L 245.535556 21.558281 
" clip-path="url(#pbf6b5abb8c)" style="fill: none; stroke: #21262d; stroke-opacity: 0.5; stroke-width: 0.5; stroke-linecap: square"/>
     </g>
     <g id="line2d_8">
      <g>
       <use xlink:href="#m8d4f979a9b" x="245.535556" y="150.318281" style="fill: #c9d1d9; stroke: #c9d1d9; stroke-width: 0.8"/>
      </g>
     </g>
     <g id="text_4">
      <!-- 60 -->
      <g style="fill: #c9d1d9" transform="translate(240.445556 163.396406) scale(0.08 -0.08)">
       <defs>
        <path id="DejaVuSans-19" d="M 2113 2584 
Q 1688 2584 1439 2293 
Q 1191 2003 1191 1497 
Q 1191 994 1439 701 
Q 1688 409 2113 409 
Q 2538 409 2786 701 
Q 3034 994 3034 1497 
Q 3034 2003 2786 2293 
Q 2538 2584 2113 2584 
z
M 3366 4563 
L 3366 3988 
Q 3128 4100 2886 4159 
Q 2644 4219 2406 4219 
Q 1781 4219 1451 3797 
Q 1122 3375 1075 2522 
Q 1259 2794 1537 2939 
Q 1816 3084 2150 3084 
Q 2853 3084 3261 2657 
Q 3669 2231 3669 1497 
Q 3669 778 3244 343 
Q 2819 -91 2113 -91 
Q 1303 -91 875 529 
Q 447 1150 447 2328 
Q 447 3434 972 4092 
Q 1497 4750 2381 4750 
Q 2619 4750 2861 4703 
Q 3103 4656 3366 4563 
z
" transform="scale(0.015625)"/>
       </defs>
       <use xlink:href="#DejaVuSans-19"/>
       <use xlink:href="#DejaVuSans-13" transform="translate(63.625 0)"/>
      </g>
     </g>
    </g>
    <g id="xtick_5">
     <g id="line2d_9">
      <path d="M 310.054074 150.318281 
L 310.054074 21.558281 
" clip-path="url(#pbf6b5abb8c)" style="fill: none; stroke: #21262d; stroke-opacity: 0.5; stroke-width: 0.5; stroke-linecap: square"/>
     </g>
     <g id="line2d_10">
      <g>
       <use xlink:href="#m8d4f979a9b" x="310.054074" y="150.318281" style="fill: #c9d1d9; stroke: #c9d1d9; stroke-width: 0.8"/>
      </g>
     </g>
     <g id="text_5">
      <!-- 80 -->
      <g style="fill: #c9d1d9" transform="translate(304.964074 163.396406) scale(0.08 -0.08)">
       <defs>
        <path id="DejaVuSans-1b" d="M 2034 2216 
Q 1584 2216 1326 1975 
Q 1069 1734 1069 1313 
Q 1069 891 1326 650 
Q 1584 409 2034 409 
Q 2484 409 2743 651 
Q 3003 894 3003 1313 
Q 3003 1734 2745 1975 
Q 2488 2216 2034 2216 
z
M 1403 2484 
Q 997 2584 770 2862 
Q 544 3141 544 3541 
Q 544 4100 942 4425 
Q 1341 4750 2034 4750 
Q 2731 4750 3128 4425 
Q 3525 4100 3525 3541 
Q 3525 3141 3298 2862 
Q 3072 2584 2669 2484 
Q 3125 2378 3379 2068 
Q 3634 1759 3634 1313 
Q 3634 634 3220 271 
Q 2806 -91 2034 -91 
Q 1263 -91 848 271 
Q 434 634 434 1313 
Q 434 1759 690 2068 
Q 947 2378 1403 2484 
z
M 1172 3481 
Q 1172 3119 1398 2916 
Q 1625 2713 2034 2713 
Q 2441 2713 2670 2916 
Q 2900 3119 2900 3481 
Q 2900 3844 2670 4047 
Q 2441 4250 2034 4250 
Q 1625 4250 1398 4047 
Q 1172 3844 1172 3481 
z
" transform="scale(0.015625)"/>
       </defs>
       <use xlink:href="#DejaVuSans-1b"/>
       <use xlink:href="#DejaVuSans-13" transform="translate(63.625 0)"/>
      </g>
     </g>
    </g>
    <g id="xtick_6">
     <g id="line2d_11">
      <path d="M 374.572593 150.318281 
L 374.572593 21.558281 
" clip-path="url(#pbf6b5abb8c)" style="fill: none; stroke: #21262d; stroke-opacity: 0.5; stroke-width: 0.5; stroke-linecap: square"/>
     </g>
     <g id="line2d_12">
      <g>
       <use xlink:href="#m8d4f979a9b" x="374.572593" y="150.318281" style="fill: #c9d1d9; stroke: #c9d1d9; stroke-width: 0.8"/>
      </g>
     </g>
     <g id="text_6">
      <!-- 100 -->
      <g style="fill: #c9d1d9" transform="translate(366.937593 163.396406) scale(0.08 -0.08)">
       <defs>
        <path id="DejaVuSans-14" d="M 794 531 
L 1825 531 
L 1825 4091 
L 703 3866 
L 703 4441 
L 1819 4666 
L 2450 4666 
L 2450 531 
L 3481 531 
L 3481 0 
L 794 0 
L 794 531 
z
" transform="scale(0.015625)"/>
       </defs>
       <use xlink:href="#DejaVuSans-14"/>
       <use xlink:href="#DejaVuSans-13" transform="translate(63.625 0)"/>
       <use xlink:href="#DejaVuSans-13" transform="translate(127.25 0)"/>
      </g>
     </g>
    </g>
   </g>
   <g id="matplotlib.axis_2">
    <g id="ytick_1">
     <g id="line2d_13">
      <path d="M 34.56 144.465554 
L 417.8 144.465554 
" clip-path="url(#pbf6b5abb8c)" style="fill: none; stroke: #21262d; stroke-opacity: 0.5; stroke-width: 0.5; stroke-linecap: square"/>
     </g>
     <g id="line2d_14">
      <defs>
       <path id="m027587d2a2" d="M 0 0 
L -3.5 0 
" style="stroke: #c9d1d9; stroke-width: 0.8"/>
      </defs>
      <g>
       <use xlink:href="#m027587d2a2" x="34.56" y="144.465554" style="fill: #c9d1d9; stroke: #c9d1d9; stroke-width: 0.8"/>
      </g>
     </g>
     <g id="text_7">
      <!-- $0 -->
      <g style="fill: #c9d1d9" transform="translate(17.38 147.504929) scale(0.08 -0.08)">
       <defs>
        <path id="DejaVuSans-7" d="M 2163 -941 
L 1850 -941 
L 1847 0 
Q 1519 6 1191 76 
Q 863 147 531 288 
L 531 850 
Q 850 650 1176 548 
Q 1503 447 1850 444 
L 1850 1869 
Q 1159 1981 845 2250 
Q 531 2519 531 2988 
Q 531 3497 872 3790 
Q 1213 4084 1850 4128 
L 1850 4863 
L 2163 4863 
L 2163 4138 
Q 2453 4125 2725 4076 
Q 2997 4028 3256 3944 
L 3256 3397 
Q 2997 3528 2723 3600 
Q 2450 3672 2163 3684 
L 2163 2350 
Q 2872 2241 3206 1959 
Q 3541 1678 3541 1191 
Q 3541 663 3186 358 
Q 2831 53 2163 6 
L 2163 -941 
z
M 1850 2406 
L 1850 3688 
Q 1488 3647 1297 3481 
Q 1106 3316 1106 3041 
Q 1106 2772 1282 2622 
Q 1459 2472 1850 2406 
z
M 2163 1806 
L 2163 453 
Q 2559 506 2761 678 
Q 2963 850 2963 1131 
Q 2963 1406 2770 1568 
Q 2578 1731 2163 1806 
z
" transform="scale(0.015625)"/>
       </defs>
       <use xlink:href="#DejaVuSans-7"/>
       <use xlink:href="#DejaVuSans-13" transform="translate(63.625 0)"/>
      </g>
     </g>
    </g>
    <g id="ytick_2">
     <g id="line2d_15">
      <path d="M 34.56 126.874477 
L 417.8 126.874477 
" clip-path="url(#pbf6b5abb8c)" style="fill: none; stroke: #21262d; stroke-opacity: 0.5; stroke-width: 0.5; stroke-linecap: square"/>
     </g>
     <g id="line2d_16">
      <g>
       <use xlink:href="#m027587d2a2" x="34.56" y="126.874477" style="fill: #c9d1d9; stroke: #c9d1d9; stroke-width: 0.8"/>
      </g>
     </g>
     <g id="text_8">
      <!-- $50 -->
      <g style="fill: #c9d1d9" transform="translate(12.29 129.913852) scale(0.08 -0.08)">
       <defs>
        <path id="DejaVuSans-18" d="M 691 4666 
L 3169 4666 
L 3169 4134 
L 1269 4134 
L 1269 2991 
Q 1406 3038 1543 3061 
Q 1681 3084 1819 3084 
Q 2600 3084 3056 2656 
Q 3513 2228 3513 1497 
Q 3513 744 3044 326 
Q 2575 -91 1722 -91 
Q 1428 -91 1123 -41 
Q 819 9 494 109 
L 494 744 
Q 775 591 1075 516 
Q 1375 441 1709 441 
Q 2250 441 2565 725 
Q 2881 1009 2881 1497 
Q 2881 1984 2565 2268 
Q 2250 2553 1709 2553 
Q 1456 2553 1204 2497 
Q 953 2441 691 2322 
L 691 4666 
z
" transform="scale(0.015625)"/>
       </defs>
       <use xlink:href="#DejaVuSans-7"/>
       <use xlink:href="#DejaVuSans-18" transform="translate(63.625 0)"/>
       <use xlink:href="#DejaVuSans-13" transform="translate(127.25 0)"/>
      </g>
     </g>
    </g>
    <g id="ytick_3">
     <g id="line2d_17">
      <path d="M 34.56 109.2834 
L 417.8 109.2834 
" clip-path="url(#pbf6b5abb8c)" style="fill: none; stroke: #21262d; stroke-opacity: 0.5; stroke-width: 0.5; stroke-linecap: square"/>
     </g>
     <g id="line2d_18">
      <g>
       <use xlink:href="#m027587d2a2" x="34.56" y="109.2834" style="fill: #c9d1d9; stroke: #c9d1d9; stroke-width: 0.8"/>
      </g>
     </g>
     <g id="text_9">
      <!-- $100 -->
      <g style="fill: #c9d1d9" transform="translate(7.2 112.322775) scale(0.08 -0.08)">
       <use xlink:href="#DejaVuSans-7"/>
       <use xlink:href="#DejaVuSans-14" transform="translate(63.625 0)"/>
       <use xlink:href="#DejaVuSans-13" transform="translate(127.25 0)"/>
       <use xlink:href="#DejaVuSans-13" transform="translate(190.875 0)"/>
      </g>
     </g>
    </g>
    <g id="ytick_4">
     <g id="line2d_19">
      <path d="M 34.56 91.692323 
L 417.8 91.692323 
" clip-path="url(#pbf6b5abb8c)" style="fill: none; stroke: #21262d; stroke-opacity: 0.5; stroke-width: 0.5; stroke-linecap: square"/>
     </g>
     <g id="line2d_20">
      <g>
       <use xlink:href="#m027587d2a2" x="34.56" y="91.692323" style="fill: #c9d1d9; stroke: #c9d1d9; stroke-width: 0.8"/>
      </g>
     </g>
     <g id="text_10">
      <!-- $150 -->
      <g style="fill: #c9d1d9" transform="translate(7.2 94.731698) scale(0.08 -0.08)">
       <use xlink:href="#DejaVuSans-7"/>
       <use xlink:href="#DejaVuSans-14" transform="translate(63.625 0)"/>
       <use xlink:href="#DejaVuSans-18" transform="translate(127.25 0)"/>
       <use xlink:href="#DejaVuSans-13" transform="translate(190.875 0)"/>
      </g>
     </g>
    </g>
    <g id="ytick_5">
     <g id="line2d_21">
      <path d="M 34.56 74.101245 
L 417.8 74.101245 
" clip-path="url(#pbf6b5abb8c)" style="fill: none; stroke: #21262d; stroke-opacity: 0.5; stroke-width: 0.5; stroke-linecap: square"/>
     </g>
     <g id="line2d_22">
      <g>
       <use xlink:href="#m027587d2a2" x="34.56" y="74.101245" style="fill: #c9d1d9; stroke: #c9d1d9; stroke-width: 0.8"/>
      </g>
     </g>
     <g id="text_11">
      <!-- $200 -->
      <g style="fill: #c9d1d9" transform="translate(7.2 77.14062) scale(0.08 -0.08)">
       <use xlink:href="#DejaVuSans-7"/>
       <use xlink:href="#DejaVuSans-15" transform="translate(63.625 0)"/>
       <use xlink:href="#DejaVuSans-13" transform="translate(127.25 0)"/>
       <use xlink:href="#DejaVuSans-13" transform="translate(190.875 0)"/>
      </g>
     </g>
    </g>
    <g id="ytick_6">
     <g id="line2d_23">
      <path d="M 34.56 56.510168 
L 417.8 56.510168 
" clip-path="url(#pbf6b5abb8c)" style="fill: none; stroke: #21262d; stroke-opacity: 0.5; stroke-width: 0.5; stroke-linecap: square"/>
     </g>
     <g id="line2d_24">
      <g>
       <use xlink:href="#m027587d2a2" x="34.56" y="56.510168" style="fill: #c9d1d9; stroke: #c9d1d9; stroke-width: 0.8"/>
      </g>
     </g>
     <g id="text_12">
      <!-- $250 -->
      <g style="fill: #c9d1d9" transform="translate(7.2 59.549543) scale(0.08 -0.08)">
       <use xlink:href="#DejaVuSans-7"/>
       <use xlink:href="#DejaVuSans-15" transform="translate(63.625 0)"/>
       <use xlink:href="#DejaVuSans-18" transform="translate(127.25 0)"/>
       <use xlink:href="#DejaVuSans-13" transform="translate(190.875 0)"/>
      </g>
     </g>
    </g>
    <g id="ytick_7">
     <g id="line2d_25">
      <path d="M 34.56 38.919091 
L 417.8 38.919091 
" clip-path="url(#pbf6b5abb8c)" style="fill: none; stroke: #21262d; stroke-opacity: 0.5; stroke-width: 0.5; stroke-linecap: square"/>
     </g>
     <g id="line2d_26">
      <g>
       <use xlink:href="#m027587d2a2" x="34.56" y="38.919091" style="fill: #c9d1d9; stroke: #c9d1d9; stroke-width: 0.8"/>
      </g>
     </g>
     <g id="text_13">
      <!-- $300 -->
      <g style="fill: #c9d1d9" transform="translate(7.2 41.958466) scale(0.08 -0.08)">
       <defs>
        <path id="DejaVuSans-16" d="M 2597 2516 
Q 3050 2419 3304 2112 
Q 3559 1806 3559 1356 
Q 3559 666 3084 287 
Q 2609 -91 1734 -91 
Q 1441 -91 1130 -33 
Q 819 25 488 141 
L 488 750 
Q 750 597 1062 519 
Q 1375 441 1716 441 
Q 2309 441 2620 675 
Q 2931 909 2931 1356 
Q 2931 1769 2642 2001 
Q 2353 2234 1838 2234 
L 1294 2234 
L 1294 2753 
L 1863 2753 
Q 2328 2753 2575 2939 
Q 2822 3125 2822 3475 
Q 2822 3834 2567 4026 
Q 2313 4219 1838 4219 
Q 1578 4219 1281 4162 
Q 984 4106 628 3988 
L 628 4550 
Q 988 4650 1302 4700 
Q 1616 4750 1894 4750 
Q 2613 4750 3031 4423 
Q 3450 4097 3450 3541 
Q 3450 3153 3228 2886 
Q 3006 2619 2597 2516 
z
" transform="scale(0.015625)"/>
       </defs>
       <use xlink:href="#DejaVuSans-7"/>
       <use xlink:href="#DejaVuSans-16" transform="translate(63.625 0)"/>
       <use xlink:href="#DejaVuSans-13" transform="translate(127.25 0)"/>
       <use xlink:href="#DejaVuSans-13" transform="translate(190.875 0)"/>
      </g>
     </g>
    </g>
   </g>
   <g id="line2d_27">
    <path d="M 51.98 33.641768 
L 55.205926 36.597069 
L 58.431852 38.050092 
L 61.657778 35.182746 
L 64.883704 40.094175 
L 68.10963 35.397358 
L 71.335556 35.457167 
L 74.561481 36.08341 
L 77.787407 39.228694 
L 81.013333 36.150256 
L 84.239259 34.859071 
L 87.465185 36.185438 
L 90.691111 34.253938 
L 93.917037 39.390532 
L 97.142963 35.974345 
L 100.368889 32.33651 
L 103.594815 33.764906 
L 106.820741 28.737376 
L 110.046667 35.956754 
L 113.272593 33.033117 
L 116.498519 34.760561 
L 119.724444 36.08341 
L 122.95037 31.2529 
L 126.176296 35.126455 
L 129.402222 32.1993 
L 132.628148 33.416602 
L 135.854074 31.836924 
L 139.08 34.42633 
L 142.305926 37.10721 
L 145.531852 36.815198 
L 148.757778 36.382458 
L 151.983704 31.671567 
L 155.20963 37.941027 
L 158.435556 30.711095 
L 161.661481 38.482832 
L 164.887407 29.539529 
L 168.113333 37.543469 
L 171.339259 34.007662 
L 174.565185 34.904807 
L 177.791111 29.448055 
L 181.017037 30.401492 
L 184.242963 38.320995 
L 187.468889 32.350583 
L 190.694815 35.671778 
L 193.920741 37.550505 
L 197.146667 36.466895 
L 200.372593 33.504558 
L 203.598519 37.944546 
L 206.824444 32.132454 
L 210.05037 36.903154 
L 213.276296 32.308364 
L 216.502222 36.488004 
L 219.728148 34.215237 
L 222.954074 35.207374 
L 226.18 37.810853 
L 229.405926 37.624388 
L 232.631852 31.777114 
L 235.857778 37.638461 
L 239.083704 37.286639 
L 242.30963 32.072644 
L 245.535556 35.784361 
L 248.761481 32.603894 
L 251.987407 36.818717 
L 255.213333 35.837134 
L 258.439259 33.34272 
L 261.665185 32.688332 
L 264.891111 41.628117 
L 268.117037 39.045747 
L 271.342963 36.850381 
L 274.568889 44.474353 
L 277.794815 37.905845 
L 281.020741 47.806103 
L 284.246667 30.236136 
L 287.472593 32.290773 
L 290.698519 35.495868 
L 293.924444 34.82037 
L 297.15037 33.300501 
L 300.376296 34.063954 
L 303.602222 33.63825 
L 306.828148 30.689985 
L 310.054074 34.697233 
L 313.28 37.673643 
L 316.505926 36.945372 
L 319.731852 41.89902 
L 322.957778 37.578651 
L 326.183704 35.573268 
L 329.40963 35.932126 
L 332.635556 38.613006 
L 335.861481 36.790571 
L 339.087407 35.956754 
L 342.313333 39.598107 
L 345.539259 33.659359 
L 348.765185 33.082372 
L 351.991111 31.492138 
L 355.217037 30.714613 
L 358.442963 34.415775 
L 361.668889 28.825331 
L 364.894815 32.983862 
L 368.120741 28.635347 
L 371.346667 30.99607 
L 374.572593 37.072028 
L 377.798519 30.929224 
L 381.024444 37.536433 
L 384.25037 27.411009 
L 387.476296 35.763252 
L 390.702222 28.730339 
L 393.928148 32.135972 
L 397.154074 34.398184 
L 400.38 31.136799 
" clip-path="url(#pbf6b5abb8c)" style="fill: none; stroke: #3fb950; stroke-width: 2; stroke-linecap: square"/>
   </g>
   <g id="patch_3">
    <path d="M 34.56 150.318281 
L 34.56 21.558281 
" style="fill: none; stroke: #21262d; stroke-width: 0.8; stroke-linejoin: miter; stroke-linecap: square"/>
   </g>
   <g id="patch_4">
    <path d="M 34.56 150.318281 
L 417.8 150.318281 
" style="fill: none; stroke: #21262d; stroke-width: 0.8; stroke-linejoin: miter; stroke-linecap: square"/>
   </g>
   <g id="text_14">
    <!-- GSTACK (garrytan/gstack) — $322.12 (+2.96%) -->
    <g style="fill: #c9d1d9" transform="translate(80.480703 15.558281) scale(0.11 -0.11)">
     <defs>
      <path id="DejaVuSans-Bold-2a" d="M 4781 347 
Q 4331 128 3847 18 
Q 3363 -91 2847 -91 
Q 1681 -91 1000 561 
Q 319 1213 319 2328 
Q 319 3456 1012 4103 
Q 1706 4750 2913 4750 
Q 3378 4750 3804 4662 
Q 4231 4575 4609 4403 
L 4609 3438 
Q 4219 3659 3833 3768 
Q 3447 3878 3059 3878 
Q 2341 3878 1952 3476 
Q 1563 3075 1563 2328 
Q 1563 1588 1938 1184 
Q 2313 781 3003 781 
Q 3191 781 3352 804 
Q 3513 828 3641 878 
L 3641 1784 
L 2906 1784 
L 2906 2591 
L 4781 2591 
L 4781 347 
z
" transform="scale(0.015625)"/>
      <path id="DejaVuSans-Bold-36" d="M 3834 4519 
L 3834 3531 
Q 3450 3703 3084 3790 
Q 2719 3878 2394 3878 
Q 1963 3878 1756 3759 
Q 1550 3641 1550 3391 
Q 1550 3203 1689 3098 
Q 1828 2994 2194 2919 
L 2706 2816 
Q 3484 2659 3812 2340 
Q 4141 2022 4141 1434 
Q 4141 663 3683 286 
Q 3225 -91 2284 -91 
Q 1841 -91 1394 -6 
Q 947 78 500 244 
L 500 1259 
Q 947 1022 1364 901 
Q 1781 781 2169 781 
Q 2563 781 2772 912 
Q 2981 1044 2981 1288 
Q 2981 1506 2839 1625 
Q 2697 1744 2272 1838 
L 1806 1941 
Q 1106 2091 782 2419 
Q 459 2747 459 3303 
Q 459 4000 909 4375 
Q 1359 4750 2203 4750 
Q 2588 4750 2994 4692 
Q 3400 4634 3834 4519 
z
" transform="scale(0.015625)"/>
      <path id="DejaVuSans-Bold-37" d="M 31 4666 
L 4331 4666 
L 4331 3756 
L 2784 3756 
L 2784 0 
L 1581 0 
L 1581 3756 
L 31 3756 
L 31 4666 
z
" transform="scale(0.015625)"/>
      <path id="DejaVuSans-Bold-24" d="M 3419 850 
L 1538 850 
L 1241 0 
L 31 0 
L 1759 4666 
L 3194 4666 
L 4922 0 
L 3713 0 
L 3419 850 
z
M 1838 1716 
L 3116 1716 
L 2478 3572 
L 1838 1716 
z
" transform="scale(0.015625)"/>
      <path id="DejaVuSans-Bold-26" d="M 4288 256 
Q 3956 84 3597 -3 
Q 3238 -91 2847 -91 
Q 1681 -91 1000 561 
Q 319 1213 319 2328 
Q 319 3447 1000 4098 
Q 1681 4750 2847 4750 
Q 3238 4750 3597 4662 
Q 3956 4575 4288 4403 
L 4288 3438 
Q 3953 3666 3628 3772 
Q 3303 3878 2944 3878 
Q 2300 3878 1931 3465 
Q 1563 3053 1563 2328 
Q 1563 1606 1931 1193 
Q 2300 781 2944 781 
Q 3303 781 3628 887 
Q 3953 994 4288 1222 
L 4288 256 
z
" transform="scale(0.015625)"/>
      <path id="DejaVuSans-Bold-2e" d="M 588 4666 
L 1791 4666 
L 1791 2963 
L 3525 4666 
L 4922 4666 
L 2675 2456 
L 5153 0 
L 3647 0 
L 1791 1838 
L 1791 0 
L 588 0 
L 588 4666 
z
" transform="scale(0.015625)"/>
      <path id="DejaVuSans-Bold-3" transform="scale(0.015625)"/>
      <path id="DejaVuSans-Bold-b" d="M 2413 -844 
L 1484 -844 
Q 1006 -72 778 623 
Q 550 1319 550 2003 
Q 550 2688 779 3389 
Q 1009 4091 1484 4856 
L 2413 4856 
Q 2013 4116 1813 3408 
Q 1613 2700 1613 2009 
Q 1613 1319 1811 609 
Q 2009 -100 2413 -844 
z
" transform="scale(0.015625)"/>
      <path id="DejaVuSans-Bold-4a" d="M 2919 594 
Q 2688 288 2409 144 
Q 2131 0 1766 0 
Q 1125 0 706 504 
Q 288 1009 288 1791 
Q 288 2575 706 3076 
Q 1125 3578 1766 3578 
Q 2131 3578 2409 3434 
Q 2688 3291 2919 2981 
L 2919 3500 
L 4044 3500 
L 4044 353 
Q 4044 -491 3511 -936 
Q 2978 -1381 1966 -1381 
Q 1638 -1381 1331 -1331 
Q 1025 -1281 716 -1178 
L 716 -306 
Q 1009 -475 1290 -558 
Q 1572 -641 1856 -641 
Q 2406 -641 2662 -400 
Q 2919 -159 2919 353 
L 2919 594 
z
M 2181 2772 
Q 1834 2772 1640 2515 
Q 1447 2259 1447 1791 
Q 1447 1309 1634 1061 
Q 1822 813 2181 813 
Q 2531 813 2725 1069 
Q 2919 1325 2919 1791 
Q 2919 2259 2725 2515 
Q 2531 2772 2181 2772 
z
" transform="scale(0.015625)"/>
      <path id="DejaVuSans-Bold-44" d="M 2106 1575 
Q 1756 1575 1579 1456 
Q 1403 1338 1403 1106 
Q 1403 894 1545 773 
Q 1688 653 1941 653 
Q 2256 653 2472 879 
Q 2688 1106 2688 1447 
L 2688 1575 
L 2106 1575 
z
M 3816 1997 
L 3816 0 
L 2688 0 
L 2688 519 
Q 2463 200 2181 54 
Q 1900 -91 1497 -91 
Q 953 -91 614 226 
Q 275 544 275 1050 
Q 275 1666 698 1953 
Q 1122 2241 2028 2241 
L 2688 2241 
L 2688 2328 
Q 2688 2594 2478 2717 
Q 2269 2841 1825 2841 
Q 1466 2841 1156 2769 
Q 847 2697 581 2553 
L 581 3406 
Q 941 3494 1303 3539 
Q 1666 3584 2028 3584 
Q 2975 3584 3395 3211 
Q 3816 2838 3816 1997 
z
" transform="scale(0.015625)"/>
      <path id="DejaVuSans-Bold-55" d="M 3138 2547 
Q 2991 2616 2845 2648 
Q 2700 2681 2553 2681 
Q 2122 2681 1889 2404 
Q 1656 2128 1656 1613 
L 1656 0 
L 538 0 
L 538 3500 
L 1656 3500 
L 1656 2925 
Q 1872 3269 2151 3426 
Q 2431 3584 2822 3584 
Q 2878 3584 2943 3579 
Q 3009 3575 3134 3559 
L 3138 2547 
z
" transform="scale(0.015625)"/>
      <path id="DejaVuSans-Bold-5c" d="M 78 3500 
L 1197 3500 
L 2138 1125 
L 2938 3500 
L 4056 3500 
L 2584 -331 
Q 2363 -916 2067 -1148 
Q 1772 -1381 1288 -1381 
L 641 -1381 
L 641 -647 
L 991 -647 
Q 1275 -647 1404 -556 
Q 1534 -466 1606 -231 
L 1638 -134 
L 78 3500 
z
" transform="scale(0.015625)"/>
      <path id="DejaVuSans-Bold-57" d="M 1759 4494 
L 1759 3500 
L 2913 3500 
L 2913 2700 
L 1759 2700 
L 1759 1216 
Q 1759 972 1856 886 
Q 1953 800 2241 800 
L 2816 800 
L 2816 0 
L 1856 0 
Q 1194 0 917 276 
Q 641 553 641 1216 
L 641 2700 
L 84 2700 
L 84 3500 
L 641 3500 
L 641 4494 
L 1759 4494 
z
" transform="scale(0.015625)"/>
      <path id="DejaVuSans-Bold-51" d="M 4056 2131 
L 4056 0 
L 2931 0 
L 2931 347 
L 2931 1631 
Q 2931 2084 2911 2256 
Q 2891 2428 2841 2509 
Q 2775 2619 2662 2680 
Q 2550 2741 2406 2741 
Q 2056 2741 1856 2470 
Q 1656 2200 1656 1722 
L 1656 0 
L 538 0 
L 538 3500 
L 1656 3500 
L 1656 2988 
Q 1909 3294 2193 3439 
Q 2478 3584 2822 3584 
Q 3428 3584 3742 3212 
Q 4056 2841 4056 2131 
z
" transform="scale(0.015625)"/>
      <path id="DejaVuSans-Bold-12" d="M 1644 4666 
L 2338 4666 
L 691 -594 
L 0 -594 
L 1644 4666 
z
" transform="scale(0.015625)"/>
      <path id="DejaVuSans-Bold-56" d="M 3272 3391 
L 3272 2541 
Q 2913 2691 2578 2766 
Q 2244 2841 1947 2841 
Q 1628 2841 1473 2761 
Q 1319 2681 1319 2516 
Q 1319 2381 1436 2309 
Q 1553 2238 1856 2203 
L 2053 2175 
Q 2913 2066 3209 1816 
Q 3506 1566 3506 1031 
Q 3506 472 3093 190 
Q 2681 -91 1863 -91 
Q 1516 -91 1145 -36 
Q 775 19 384 128 
L 384 978 
Q 719 816 1070 734 
Q 1422 653 1784 653 
Q 2113 653 2278 743 
Q 2444 834 2444 1013 
Q 2444 1163 2330 1236 
Q 2216 1309 1875 1350 
L 1678 1375 
Q 931 1469 631 1722 
Q 331 1975 331 2491 
Q 331 3047 712 3315 
Q 1094 3584 1881 3584 
Q 2191 3584 2531 3537 
Q 2872 3491 3272 3391 
z
" transform="scale(0.015625)"/>
      <path id="DejaVuSans-Bold-46" d="M 3366 3391 
L 3366 2478 
Q 3138 2634 2908 2709 
Q 2678 2784 2431 2784 
Q 1963 2784 1702 2511 
Q 1441 2238 1441 1747 
Q 1441 1256 1702 982 
Q 1963 709 2431 709 
Q 2694 709 2930 787 
Q 3166 866 3366 1019 
L 3366 103 
Q 3103 6 2833 -42 
Q 2563 -91 2291 -91 
Q 1344 -91 809 395 
Q 275 881 275 1747 
Q 275 2613 809 3098 
Q 1344 3584 2291 3584 
Q 2566 3584 2833 3536 
Q 3100 3488 3366 3391 
z
" transform="scale(0.015625)"/>
      <path id="DejaVuSans-Bold-4e" d="M 538 4863 
L 1656 4863 
L 1656 2216 
L 2944 3500 
L 4244 3500 
L 2534 1894 
L 4378 0 
L 3022 0 
L 1656 1459 
L 1656 0 
L 538 0 
L 538 4863 
z
" transform="scale(0.015625)"/>
      <path id="DejaVuSans-Bold-c" d="M 513 -844 
Q 913 -100 1113 609 
Q 1313 1319 1313 2009 
Q 1313 2700 1113 3408 
Q 913 4116 513 4856 
L 1441 4856 
Q 1916 4091 2145 3389 
Q 2375 2688 2375 2003 
Q 2375 1319 2147 623 
Q 1919 -72 1441 -844 
L 513 -844 
z
" transform="scale(0.015625)"/>
      <path id="DejaVuSans-Bold-af6" d="M 344 2156 
L 6056 2156 
L 6056 1350 
L 344 1350 
L 344 2156 
z
" transform="scale(0.015625)"/>
      <path id="DejaVuSans-Bold-7" d="M 2484 -941 
L 1978 -941 
L 1975 0 
Q 1584 16 1218 87 
Q 853 159 506 288 
L 506 1106 
Q 866 922 1233 823 
Q 1600 725 1978 713 
L 1978 1684 
L 1875 1703 
Q 1128 1834 814 2115 
Q 500 2397 500 2925 
Q 500 3484 883 3798 
Q 1266 4113 1975 4141 
L 1978 4863 
L 2484 4863 
L 2484 4153 
Q 2797 4128 3109 4075 
Q 3422 4022 3738 3938 
L 3738 3144 
Q 3425 3275 3112 3348 
Q 2800 3422 2484 3438 
L 2484 2541 
L 2584 2522 
Q 3378 2397 3698 2105 
Q 4019 1813 4019 1241 
Q 4019 666 3637 358 
Q 3256 50 2484 6 
L 2484 -941 
z
M 1978 2613 
L 1978 3428 
Q 1756 3416 1623 3308 
Q 1491 3200 1491 3034 
Q 1491 2850 1612 2745 
Q 1734 2641 1978 2613 
z
M 2484 1594 
L 2484 725 
Q 2756 728 2892 831 
Q 3028 934 3028 1141 
Q 3028 1353 2903 1458 
Q 2778 1563 2484 1594 
z
" transform="scale(0.015625)"/>
      <path id="DejaVuSans-Bold-16" d="M 2981 2516 
Q 3453 2394 3698 2092 
Q 3944 1791 3944 1325 
Q 3944 631 3412 270 
Q 2881 -91 1863 -91 
Q 1503 -91 1142 -33 
Q 781 25 428 141 
L 428 1069 
Q 766 900 1098 814 
Q 1431 728 1753 728 
Q 2231 728 2486 893 
Q 2741 1059 2741 1369 
Q 2741 1688 2480 1852 
Q 2219 2016 1709 2016 
L 1228 2016 
L 1228 2791 
L 1734 2791 
Q 2188 2791 2409 2933 
Q 2631 3075 2631 3366 
Q 2631 3634 2415 3781 
Q 2200 3928 1806 3928 
Q 1516 3928 1219 3862 
Q 922 3797 628 3669 
L 628 4550 
Q 984 4650 1334 4700 
Q 1684 4750 2022 4750 
Q 2931 4750 3382 4451 
Q 3834 4153 3834 3553 
Q 3834 3144 3618 2883 
Q 3403 2622 2981 2516 
z
" transform="scale(0.015625)"/>
      <path id="DejaVuSans-Bold-15" d="M 1844 884 
L 3897 884 
L 3897 0 
L 506 0 
L 506 884 
L 2209 2388 
Q 2438 2594 2547 2791 
Q 2656 2988 2656 3200 
Q 2656 3528 2436 3728 
Q 2216 3928 1850 3928 
Q 1569 3928 1234 3808 
Q 900 3688 519 3450 
L 519 4475 
Q 925 4609 1322 4679 
Q 1719 4750 2100 4750 
Q 2938 4750 3402 4381 
Q 3866 4013 3866 3353 
Q 3866 2972 3669 2642 
Q 3472 2313 2841 1759 
L 1844 884 
z
" transform="scale(0.015625)"/>
      <path id="DejaVuSans-Bold-11" d="M 653 1209 
L 1778 1209 
L 1778 0 
L 653 0 
L 653 1209 
z
" transform="scale(0.015625)"/>
      <path id="DejaVuSans-Bold-14" d="M 750 831 
L 1813 831 
L 1813 3847 
L 722 3622 
L 722 4441 
L 1806 4666 
L 2950 4666 
L 2950 831 
L 4013 831 
L 4013 0 
L 750 0 
L 750 831 
z
" transform="scale(0.015625)"/>
      <path id="DejaVuSans-Bold-e" d="M 3053 4013 
L 3053 2375 
L 4684 2375 
L 4684 1638 
L 3053 1638 
L 3053 0 
L 2309 0 
L 2309 1638 
L 678 1638 
L 678 2375 
L 2309 2375 
L 2309 4013 
L 3053 4013 
z
" transform="scale(0.015625)"/>
      <path id="DejaVuSans-Bold-1c" d="M 641 103 
L 641 966 
Q 928 831 1190 764 
Q 1453 697 1709 697 
Q 2247 697 2547 995 
Q 2847 1294 2900 1881 
Q 2688 1725 2447 1647 
Q 2206 1569 1925 1569 
Q 1209 1569 770 1986 
Q 331 2403 331 3084 
Q 331 3838 820 4291 
Q 1309 4744 2131 4744 
Q 3044 4744 3544 4128 
Q 4044 3513 4044 2388 
Q 4044 1231 3459 570 
Q 2875 -91 1856 -91 
Q 1528 -91 1228 -42 
Q 928 6 641 103 
z
M 2125 2350 
Q 2441 2350 2600 2554 
Q 2759 2759 2759 3169 
Q 2759 3575 2600 3781 
Q 2441 3988 2125 3988 
Q 1809 3988 1650 3781 
Q 1491 3575 1491 3169 
Q 1491 2759 1650 2554 
Q 1809 2350 2125 2350 
z
" transform="scale(0.015625)"/>
      <path id="DejaVuSans-Bold-19" d="M 2316 2303 
Q 2000 2303 1842 2098 
Q 1684 1894 1684 1484 
Q 1684 1075 1842 870 
Q 2000 666 2316 666 
Q 2634 666 2792 870 
Q 2950 1075 2950 1484 
Q 2950 1894 2792 2098 
Q 2634 2303 2316 2303 
z
M 3803 4544 
L 3803 3681 
Q 3506 3822 3243 3889 
Q 2981 3956 2731 3956 
Q 2194 3956 1894 3657 
Q 1594 3359 1544 2772 
Q 1750 2925 1990 3001 
Q 2231 3078 2516 3078 
Q 3231 3078 3670 2659 
Q 4109 2241 4109 1563 
Q 4109 813 3618 361 
Q 3128 -91 2303 -91 
Q 1394 -91 895 523 
Q 397 1138 397 2266 
Q 397 3422 980 4083 
Q 1563 4744 2578 4744 
Q 2900 4744 3203 4694 
Q 3506 4644 3803 4544 
z
" transform="scale(0.015625)"/>
      <path id="DejaVuSans-Bold-8" d="M 4959 1925 
Q 4738 1925 4616 1733 
Q 4494 1541 4494 1184 
Q 4494 825 4614 633 
Q 4734 441 4959 441 
Q 5184 441 5303 633 
Q 5422 825 5422 1184 
Q 5422 1541 5301 1733 
Q 5181 1925 4959 1925 
z
M 4959 2450 
Q 5541 2450 5875 2112 
Q 6209 1775 6209 1184 
Q 6209 594 5875 251 
Q 5541 -91 4959 -91 
Q 4378 -91 4042 251 
Q 3706 594 3706 1184 
Q 3706 1772 4042 2111 
Q 4378 2450 4959 2450 
z
M 2094 -91 
L 1403 -91 
L 4319 4750 
L 5013 4750 
L 2094 -91 
z
M 1453 4750 
Q 2034 4750 2367 4411 
Q 2700 4072 2700 3481 
Q 2700 2891 2367 2550 
Q 2034 2209 1453 2209 
Q 872 2209 539 2550 
Q 206 2891 206 3481 
Q 206 4072 539 4411 
Q 872 4750 1453 4750 
z
M 1453 4225 
Q 1228 4225 1106 4031 
Q 984 3838 984 3481 
Q 984 3122 1106 2926 
Q 1228 2731 1453 2731 
Q 1678 2731 1798 2926 
Q 1919 3122 1919 3481 
Q 1919 3838 1797 4031 
Q 1675 4225 1453 4225 
z
" transform="scale(0.015625)"/>
     </defs>
     <use xlink:href="#DejaVuSans-Bold-2a"/>
     <use xlink:href="#DejaVuSans-Bold-36" transform="translate(82.078125 0)"/>
     <use xlink:href="#DejaVuSans-Bold-37" transform="translate(154.09375 0)"/>
     <use xlink:href="#DejaVuSans-Bold-24" transform="translate(214.546875 0)"/>
     <use xlink:href="#DejaVuSans-Bold-26" transform="translate(291.9375 0)"/>
     <use xlink:href="#DejaVuSans-Bold-2e" transform="translate(365.328125 0)"/>
     <use xlink:href="#DejaVuSans-Bold-3" transform="translate(442.8125 0)"/>
     <use xlink:href="#DejaVuSans-Bold-b" transform="translate(477.625 0)"/>
     <use xlink:href="#DejaVuSans-Bold-4a" transform="translate(523.328125 0)"/>
     <use xlink:href="#DejaVuSans-Bold-44" transform="translate(594.90625 0)"/>
     <use xlink:href="#DejaVuSans-Bold-55" transform="translate(662.390625 0)"/>
     <use xlink:href="#DejaVuSans-Bold-55" transform="translate(711.703125 0)"/>
     <use xlink:href="#DejaVuSans-Bold-5c" transform="translate(761.015625 0)"/>
     <use xlink:href="#DejaVuSans-Bold-57" transform="translate(826.203125 0)"/>
     <use xlink:href="#DejaVuSans-Bold-44" transform="translate(874 0)"/>
     <use xlink:href="#DejaVuSans-Bold-51" transform="translate(941.484375 0)"/>
     <use xlink:href="#DejaVuSans-Bold-12" transform="translate(1012.671875 0)"/>
     <use xlink:href="#DejaVuSans-Bold-4a" transform="translate(1049.203125 0)"/>
     <use xlink:href="#DejaVuSans-Bold-56" transform="translate(1120.78125 0)"/>
     <use xlink:href="#DejaVuSans-Bold-57" transform="translate(1180.296875 0)"/>
     <use xlink:href="#DejaVuSans-Bold-44" transform="translate(1228.09375 0)"/>
     <use xlink:href="#DejaVuSans-Bold-46" transform="translate(1295.578125 0)"/>
     <use xlink:href="#DejaVuSans-Bold-4e" transform="translate(1354.859375 0)"/>
     <use xlink:href="#DejaVuSans-Bold-c" transform="translate(1421.359375 0)"/>
     <use xlink:href="#DejaVuSans-Bold-3" transform="translate(1467.0625 0)"/>
     <use xlink:href="#DejaVuSans-Bold-af6" transform="translate(1501.875 0)"/>
     <use xlink:href="#DejaVuSans-Bold-3" transform="translate(1601.875 0)"/>
     <use xlink:href="#DejaVuSans-Bold-7" transform="translate(1636.6875 0)"/>
     <use xlink:href="#DejaVuSans-Bold-16" transform="translate(1706.265625 0)"/>
     <use xlink:href="#DejaVuSans-Bold-15" transform="translate(1775.84375 0)"/>
     <use xlink:href="#DejaVuSans-Bold-15" transform="translate(1845.421875 0)"/>
     <use xlink:href="#DejaVuSans-Bold-11" transform="translate(1915 0)"/>
     <use xlink:href="#DejaVuSans-Bold-14" transform="translate(1952.984375 0)"/>
     <use xlink:href="#DejaVuSans-Bold-15" transform="translate(2022.5625 0)"/>
     <use xlink:href="#DejaVuSans-Bold-3" transform="translate(2092.140625 0)"/>
     <use xlink:href="#DejaVuSans-Bold-b" transform="translate(2126.953125 0)"/>
     <use xlink:href="#DejaVuSans-Bold-e" transform="translate(2172.65625 0)"/>
     <use xlink:href="#DejaVuSans-Bold-15" transform="translate(2256.453125 0)"/>
     <use xlink:href="#DejaVuSans-Bold-11" transform="translate(2326.03125 0)"/>
     <use xlink:href="#DejaVuSans-Bold-1c" transform="translate(2364.015625 0)"/>
     <use xlink:href="#DejaVuSans-Bold-19" transform="translate(2433.59375 0)"/>
     <use xlink:href="#DejaVuSans-Bold-8" transform="translate(2503.171875 0)"/>
     <use xlink:href="#DejaVuSans-Bold-c" transform="translate(2603.375 0)"/>
    </g>
   </g>
  </g>
 </g>
 <defs>
  <clipPath id="pbf6b5abb8c">
   <rect x="34.56" y="21.558281" width="383.24" height="128.76"/>
  </clipPath>
 </defs>
</svg>
