<?xml version="1.0" encoding="utf-8" standalone="no"?>
<!DOCTYPE svg PUBLIC "-//W3C//DTD SVG 1.1//EN"
  "http://www.w3.org/Graphics/SVG/1.1/DTD/svg11.dtd">
<svg xmlns:xlink="http://www.w3.org/1999/xlink" width="424.91pt" height="173.060781pt" viewBox="0 0 424.91 173.060781" xmlns="http://www.w3.org/2000/svg" version="1.1">
 <metadata>
  <rdf:RDF xmlns:dc="http://purl.org/dc/elements/1.1/" xmlns:cc="http://creativecommons.org/ns#" xmlns:rdf="http://www.w3.org/1999/02/22-rdf-syntax-ns#">
   <cc:Work>
    <dc:type rdf:resource="http://purl.org/dc/dcmitype/StillImage"/>
    <dc:date>2026-04-22T00:19:12.210938</dc:date>
    <dc:format>image/svg+xml</dc:format>
    <dc:creator>
     <cc:Agent>
      <dc:title>Matplotlib v3.10.8, https://matplotlib.org/</dc:title>
     </cc:Agent>
    </dc:creator>
   </cc:Work>
  </rdf:RDF>
 </metadata>
 <defs>
  <style type="text/css">*{stroke-linejoin: round; stroke-linecap: butt}</style>
 </defs>
 <g id="figure_1">
  <g id="patch_1">
   <path d="M 0 173.060781 
L 424.91 173.060781 
L 424.91 0 
L 0 0 
z
" style="fill: #0d1117"/>
  </g>
  <g id="axes_1">
   <g id="patch_2">
    <path d="M 34.56 151.118281 
L 417.71 151.118281 
L 417.71 21.558281 
L 34.56 21.558281 
z
" style="fill: #0d1117"/>
   </g>
   <g id="FillBetweenPolyCollection_1">
    <defs>
     <path id="ma133b72664" d="M 51.975909 -27.831591 
L 51.975909 -83.837969 
L 54.902953 -84.805859 
L 57.829996 -145.613409 
L 60.75704 -119.070257 
L 63.684083 -102.791114 
L 66.611127 -100.341313 
L 69.53817 -98.635202 
L 72.465214 -97.650907 
L 75.392257 -98.479355 
L 78.319301 -92.250956 
L 81.246345 -90.214013 
L 84.173388 -93.587957 
L 87.100432 -91.356888 
L 90.027475 -92.149793 
L 92.954519 -95.004248 
L 95.881562 -92.745838 
L 98.808606 -90.990512 
L 101.735649 -89.043795 
L 104.662693 -89.412906 
L 107.589736 -86.678754 
L 110.51678 -84.745708 
L 113.443824 -89.612499 
L 116.370867 -82.823599 
L 119.297911 -90.063634 
L 122.224954 -88.453218 
L 125.151998 -116.481015 
L 128.079041 -101.749402 
L 131.006085 -98.791049 
L 133.933128 -99.756205 
L 136.860172 -82.35059 
L 139.787215 -88.666482 
L 142.714259 -90.681553 
L 145.641303 -85.798356 
L 148.568346 -85.658915 
L 151.49539 -85.713598 
L 154.422433 -86.115518 
L 157.349477 -84.018423 
L 160.27652 -84.414875 
L 163.203564 -86.927561 
L 166.130607 -84.10865 
L 169.057651 -86.727968 
L 171.984694 -87.498999 
L 174.911738 -85.951469 
L 177.838782 -87.272065 
L 180.765825 -62.648288 
L 183.692869 -89.185971 
L 186.619912 -77.565824 
L 189.546956 -45.691075 
L 192.473999 -60.78633 
L 195.401043 -45.461406 
L 198.328086 -47.006202 
L 201.25513 -89.180503 
L 204.182173 -98.000879 
L 207.109217 -92.980975 
L 210.036261 -91.225649 
L 212.963304 -100.251086 
L 215.890348 -96.576385 
L 218.817391 -138.337829 
L 221.744435 -125.881031 
L 224.671478 -85.311677 
L 227.598522 -86.902954 
L 230.525565 -87.884515 
L 233.452609 -85.325348 
L 236.379652 -92.179868 
L 239.306696 -85.773749 
L 242.233739 -85.872179 
L 245.160783 -85.191375 
L 248.087827 -48.047914 
L 251.01487 -87.025991 
L 253.941914 -86.651412 
L 256.868957 -74.115323 
L 259.796001 -86.681488 
L 262.723044 -47.90027 
L 265.650088 -86.51197 
L 268.577131 -48.468973 
L 271.504175 -49.026741 
L 274.431218 -85.795622 
L 277.358262 -47.894801 
L 280.285306 -93.104012 
L 283.212349 -89.585158 
L 286.139393 -97.620832 
L 289.066436 -92.3986 
L 291.99348 -94.022687 
L 294.920523 -102.266157 
L 297.847567 -96.838864 
L 300.77461 -88.313777 
L 303.701654 -101.079534 
L 306.628697 -93.773879 
L 309.555741 -88.576255 
L 312.482785 -94.07737 
L 315.409828 -89.735536 
L 318.336872 -91.780682 
L 321.263915 -89.680853 
L 324.190959 -90.058166 
L 327.118002 -89.494931 
L 330.045046 -91.70686 
L 332.972089 -87.704061 
L 335.899133 -91.222915 
L 338.826176 -89.503133 
L 341.75322 -93.276263 
L 344.680264 -88.537977 
L 347.607307 -93.503198 
L 350.534351 -88.073171 
L 353.461394 -90.347986 
L 356.388438 -89.940597 
L 359.315481 -90.192139 
L 362.242525 -90.290569 
L 365.169568 -90.214013 
L 368.096612 -113.421498 
L 371.023655 -98.583253 
L 373.950699 -103.182098 
L 376.877743 -85.948735 
L 379.804786 -85.308943 
L 382.73183 -83.580959 
L 385.658873 -91.184637 
L 388.585917 -86.22215 
L 391.51296 -91.408837 
L 394.440004 -92.650142 
L 397.367047 -91.015119 
L 400.294091 -90.990512 
L 400.294091 -27.831591 
L 400.294091 -27.831591 
L 397.367047 -27.831591 
L 394.440004 -27.831591 
L 391.51296 -27.831591 
L 388.585917 -27.831591 
L 385.658873 -27.831591 
L 382.73183 -27.831591 
L 379.804786 -27.831591 
L 376.877743 -27.831591 
L 373.950699 -27.831591 
L 371.023655 -27.831591 
L 368.096612 -27.831591 
L 365.169568 -27.831591 
L 362.242525 -27.831591 
L 359.315481 -27.831591 
L 356.388438 -27.831591 
L 353.461394 -27.831591 
L 350.534351 -27.831591 
L 347.607307 -27.831591 
L 344.680264 -27.831591 
L 341.75322 -27.831591 
L 338.826176 -27.831591 
L 335.899133 -27.831591 
L 332.972089 -27.831591 
L 330.045046 -27.831591 
L 327.118002 -27.831591 
L 324.190959 -27.831591 
L 321.263915 -27.831591 
L 318.336872 -27.831591 
L 315.409828 -27.831591 
L 312.482785 -27.831591 
L 309.555741 -27.831591 
L 306.628697 -27.831591 
L 303.701654 -27.831591 
L 300.77461 -27.831591 
L 297.847567 -27.831591 
L 294.920523 -27.831591 
L 291.99348 -27.831591 
L 289.066436 -27.831591 
L 286.139393 -27.831591 
L 283.212349 -27.831591 
L 280.285306 -27.831591 
L 277.358262 -27.831591 
L 274.431218 -27.831591 
L 271.504175 -27.831591 
L 268.577131 -27.831591 
L 265.650088 -27.831591 
L 262.723044 -27.831591 
L 259.796001 -27.831591 
L 256.868957 -27.831591 
L 253.941914 -27.831591 
L 251.01487 -27.831591 
L 248.087827 -27.831591 
L 245.160783 -27.831591 
L 242.233739 -27.831591 
L 239.306696 -27.831591 
L 236.379652 -27.831591 
L 233.452609 -27.831591 
L 230.525565 -27.831591 
L 227.598522 -27.831591 
L 224.671478 -27.831591 
L 221.744435 -27.831591 
L 218.817391 -27.831591 
L 215.890348 -27.831591 
L 212.963304 -27.831591 
L 210.036261 -27.831591 
L 207.109217 -27.831591 
L 204.182173 -27.831591 
L 201.25513 -27.831591 
L 198.328086 -27.831591 
L 195.401043 -27.831591 
L 192.473999 -27.831591 
L 189.546956 -27.831591 
L 186.619912 -27.831591 
L 183.692869 -27.831591 
L 180.765825 -27.831591 
L 177.838782 -27.831591 
L 174.911738 -27.831591 
L 171.984694 -27.831591 
L 169.057651 -27.831591 
L 166.130607 -27.831591 
L 163.203564 -27.831591 
L 160.27652 -27.831591 
L 157.349477 -27.831591 
L 154.422433 -27.831591 
L 151.49539 -27.831591 
L 148.568346 -27.831591 
L 145.641303 -27.831591 
L 142.714259 -27.831591 
L 139.787215 -27.831591 
L 136.860172 -27.831591 
L 133.933128 -27.831591 
L 131.006085 -27.831591 
L 128.079041 -27.831591 
L 125.151998 -27.831591 
L 122.224954 -27.831591 
L 119.297911 -27.831591 
L 116.370867 -27.831591 
L 113.443824 -27.831591 
L 110.51678 -27.831591 
L 107.589736 -27.831591 
L 104.662693 -27.831591 
L 101.735649 -27.831591 
L 98.808606 -27.831591 
L 95.881562 -27.831591 
L 92.954519 -27.831591 
L 90.027475 -27.831591 
L 87.100432 -27.831591 
L 84.173388 -27.831591 
L 81.246345 -27.831591 
L 78.319301 -27.831591 
L 75.392257 -27.831591 
L 72.465214 -27.831591 
L 69.53817 -27.831591 
L 66.611127 -27.831591 
L 63.684083 -27.831591 
L 60.75704 -27.831591 
L 57.829996 -27.831591 
L 54.902953 -27.831591 
L 51.975909 -27.831591 
z
" style="stroke: #3fb950; stroke-opacity: 0.15"/>
    </defs>
    <g clip-path="url(#pfee53615b0)">
     <use xlink:href="#ma133b72664" x="0" y="173.060781" style="fill: #3fb950; fill-opacity: 0.15; stroke: #3fb950; stroke-opacity: 0.15"/>
    </g>
   </g>
   <g id="matplotlib.axis_1">
    <g id="xtick_1">
     <g id="line2d_1">
      <path d="M 51.975909 151.118281 
L 51.975909 21.558281 
" clip-path="url(#pfee53615b0)" style="fill: none; stroke: #21262d; stroke-opacity: 0.5; stroke-width: 0.5; stroke-linecap: square"/>
     </g>
     <g id="line2d_2">
      <defs>
       <path id="m72a2064ed2" d="M 0 0 
L 0 3.5 
" style="stroke: #c9d1d9; stroke-width: 0.8"/>
      </defs>
      <g>
       <use xlink:href="#m72a2064ed2" x="51.975909" y="151.118281" style="fill: #c9d1d9; stroke: #c9d1d9; stroke-width: 0.8"/>
      </g>
     </g>
     <g id="text_1">
      <!-- 0 -->
      <g style="fill: #c9d1d9" transform="translate(49.430909 164.197031) scale(0.08 -0.08)">
       <defs>
        <path id="DejaVuSans-30" d="M 2034 4250 
Q 1547 4250 1301 3770 
Q 1056 3291 1056 2328 
Q 1056 1369 1301 889 
Q 1547 409 2034 409 
Q 2525 409 2770 889 
Q 3016 1369 3016 2328 
Q 3016 3291 2770 3770 
Q 2525 4250 2034 4250 
z
M 2034 4750 
Q 2819 4750 3233 4129 
Q 3647 3509 3647 2328 
Q 3647 1150 3233 529 
Q 2819 -91 2034 -91 
Q 1250 -91 836 529 
Q 422 1150 422 2328 
Q 422 3509 836 4129 
Q 1250 4750 2034 4750 
z
" transform="scale(0.015625)"/>
       </defs>
       <use xlink:href="#DejaVuSans-30"/>
      </g>
     </g>
    </g>
    <g id="xtick_2">
     <g id="line2d_3">
      <path d="M 110.51678 151.118281 
L 110.51678 21.558281 
" clip-path="url(#pfee53615b0)" style="fill: none; stroke: #21262d; stroke-opacity: 0.5; stroke-width: 0.5; stroke-linecap: square"/>
     </g>
     <g id="line2d_4">
      <g>
       <use xlink:href="#m72a2064ed2" x="110.51678" y="151.118281" style="fill: #c9d1d9; stroke: #c9d1d9; stroke-width: 0.8"/>
      </g>
     </g>
     <g id="text_2">
      <!-- 20 -->
      <g style="fill: #c9d1d9" transform="translate(105.42678 164.197031) scale(0.08 -0.08)">
       <defs>
        <path id="DejaVuSans-32" d="M 1228 531 
L 3431 531 
L 3431 0 
L 469 0 
L 469 531 
Q 828 903 1448 1529 
Q 2069 2156 2228 2338 
Q 2531 2678 2651 2914 
Q 2772 3150 2772 3378 
Q 2772 3750 2511 3984 
Q 2250 4219 1831 4219 
Q 1534 4219 1204 4116 
Q 875 4013 500 3803 
L 500 4441 
Q 881 4594 1212 4672 
Q 1544 4750 1819 4750 
Q 2544 4750 2975 4387 
Q 3406 4025 3406 3419 
Q 3406 3131 3298 2873 
Q 3191 2616 2906 2266 
Q 2828 2175 2409 1742 
Q 1991 1309 1228 531 
z
" transform="scale(0.015625)"/>
       </defs>
       <use xlink:href="#DejaVuSans-32"/>
       <use xlink:href="#DejaVuSans-30" transform="translate(63.623047 0)"/>
      </g>
     </g>
    </g>
    <g id="xtick_3">
     <g id="line2d_5">
      <path d="M 169.057651 151.118281 
L 169.057651 21.558281 
" clip-path="url(#pfee53615b0)" style="fill: none; stroke: #21262d; stroke-opacity: 0.5; stroke-width: 0.5; stroke-linecap: square"/>
     </g>
     <g id="line2d_6">
      <g>
       <use xlink:href="#m72a2064ed2" x="169.057651" y="151.118281" style="fill: #c9d1d9; stroke: #c9d1d9; stroke-width: 0.8"/>
      </g>
     </g>
     <g id="text_3">
      <!-- 40 -->
      <g style="fill: #c9d1d9" transform="translate(163.967651 164.197031) scale(0.08 -0.08)">
       <defs>
        <path id="DejaVuSans-34" d="M 2419 4116 
L 825 1625 
L 2419 1625 
L 2419 4116 
z
M 2253 4666 
L 3047 4666 
L 3047 1625 
L 3713 1625 
L 3713 1100 
L 3047 1100 
L 3047 0 
L 2419 0 
L 2419 1100 
L 313 1100 
L 313 1709 
L 2253 4666 
z
" transform="scale(0.015625)"/>
       </defs>
       <use xlink:href="#DejaVuSans-34"/>
       <use xlink:href="#DejaVuSans-30" transform="translate(63.623047 0)"/>
      </g>
     </g>
    </g>
    <g id="xtick_4">
     <g id="line2d_7">
      <path d="M 227.598522 151.118281 
L 227.598522 21.558281 
" clip-path="url(#pfee53615b0)" style="fill: none; stroke: #21262d; stroke-opacity: 0.5; stroke-width: 0.5; stroke-linecap: square"/>
     </g>
     <g id="line2d_8">
      <g>
       <use xlink:href="#m72a2064ed2" x="227.598522" y="151.118281" style="fill: #c9d1d9; stroke: #c9d1d9; stroke-width: 0.8"/>
      </g>
     </g>
     <g id="text_4">
      <!-- 60 -->
      <g style="fill: #c9d1d9" transform="translate(222.508522 164.197031) scale(0.08 -0.08)">
       <defs>
        <path id="DejaVuSans-36" d="M 2113 2584 
Q 1688 2584 1439 2293 
Q 1191 2003 1191 1497 
Q 1191 994 1439 701 
Q 1688 409 2113 409 
Q 2538 409 2786 701 
Q 3034 994 3034 1497 
Q 3034 2003 2786 2293 
Q 2538 2584 2113 2584 
z
M 3366 4563 
L 3366 3988 
Q 3128 4100 2886 4159 
Q 2644 4219 2406 4219 
Q 1781 4219 1451 3797 
Q 1122 3375 1075 2522 
Q 1259 2794 1537 2939 
Q 1816 3084 2150 3084 
Q 2853 3084 3261 2657 
Q 3669 2231 3669 1497 
Q 3669 778 3244 343 
Q 2819 -91 2113 -91 
Q 1303 -91 875 529 
Q 447 1150 447 2328 
Q 447 3434 972 4092 
Q 1497 4750 2381 4750 
Q 2619 4750 2861 4703 
Q 3103 4656 3366 4563 
z
" transform="scale(0.015625)"/>
       </defs>
       <use xlink:href="#DejaVuSans-36"/>
       <use xlink:href="#DejaVuSans-30" transform="translate(63.623047 0)"/>
      </g>
     </g>
    </g>
    <g id="xtick_5">
     <g id="line2d_9">
      <path d="M 286.139393 151.118281 
L 286.139393 21.558281 
" clip-path="url(#pfee53615b0)" style="fill: none; stroke: #21262d; stroke-opacity: 0.5; stroke-width: 0.5; stroke-linecap: square"/>
     </g>
     <g id="line2d_10">
      <g>
       <use xlink:href="#m72a2064ed2" x="286.139393" y="151.118281" style="fill: #c9d1d9; stroke: #c9d1d9; stroke-width: 0.8"/>
      </g>
     </g>
     <g id="text_5">
      <!-- 80 -->
      <g style="fill: #c9d1d9" transform="translate(281.049393 164.197031) scale(0.08 -0.08)">
       <defs>
        <path id="DejaVuSans-38" d="M 2034 2216 
Q 1584 2216 1326 1975 
Q 1069 1734 1069 1313 
Q 1069 891 1326 650 
Q 1584 409 2034 409 
Q 2484 409 2743 651 
Q 3003 894 3003 1313 
Q 3003 1734 2745 1975 
Q 2488 2216 2034 2216 
z
M 1403 2484 
Q 997 2584 770 2862 
Q 544 3141 544 3541 
Q 544 4100 942 4425 
Q 1341 4750 2034 4750 
Q 2731 4750 3128 4425 
Q 3525 4100 3525 3541 
Q 3525 3141 3298 2862 
Q 3072 2584 2669 2484 
Q 3125 2378 3379 2068 
Q 3634 1759 3634 1313 
Q 3634 634 3220 271 
Q 2806 -91 2034 -91 
Q 1263 -91 848 271 
Q 434 634 434 1313 
Q 434 1759 690 2068 
Q 947 2378 1403 2484 
z
M 1172 3481 
Q 1172 3119 1398 2916 
Q 1625 2713 2034 2713 
Q 2441 2713 2670 2916 
Q 2900 3119 2900 3481 
Q 2900 3844 2670 4047 
Q 2441 4250 2034 4250 
Q 1625 4250 1398 4047 
Q 1172 3844 1172 3481 
z
" transform="scale(0.015625)"/>
       </defs>
       <use xlink:href="#DejaVuSans-38"/>
       <use xlink:href="#DejaVuSans-30" transform="translate(63.623047 0)"/>
      </g>
     </g>
    </g>
    <g id="xtick_6">
     <g id="line2d_11">
      <path d="M 344.680264 151.118281 
L 344.680264 21.558281 
" clip-path="url(#pfee53615b0)" style="fill: none; stroke: #21262d; stroke-opacity: 0.5; stroke-width: 0.5; stroke-linecap: square"/>
     </g>
     <g id="line2d_12">
      <g>
       <use xlink:href="#m72a2064ed2" x="344.680264" y="151.118281" style="fill: #c9d1d9; stroke: #c9d1d9; stroke-width: 0.8"/>
      </g>
     </g>
     <g id="text_6">
      <!-- 100 -->
      <g style="fill: #c9d1d9" transform="translate(337.045264 164.197031) scale(0.08 -0.08)">
       <defs>
        <path id="DejaVuSans-31" d="M 794 531 
L 1825 531 
L 1825 4091 
L 703 3866 
L 703 4441 
L 1819 4666 
L 2450 4666 
L 2450 531 
L 3481 531 
L 3481 0 
L 794 0 
L 794 531 
z
" transform="scale(0.015625)"/>
       </defs>
       <use xlink:href="#DejaVuSans-31"/>
       <use xlink:href="#DejaVuSans-30" transform="translate(63.623047 0)"/>
       <use xlink:href="#DejaVuSans-30" transform="translate(127.246094 0)"/>
      </g>
     </g>
    </g>
    <g id="xtick_7">
     <g id="line2d_13">
      <path d="M 403.221134 151.118281 
L 403.221134 21.558281 
" clip-path="url(#pfee53615b0)" style="fill: none; stroke: #21262d; stroke-opacity: 0.5; stroke-width: 0.5; stroke-linecap: square"/>
     </g>
     <g id="line2d_14">
      <g>
       <use xlink:href="#m72a2064ed2" x="403.221134" y="151.118281" style="fill: #c9d1d9; stroke: #c9d1d9; stroke-width: 0.8"/>
      </g>
     </g>
     <g id="text_7">
      <!-- 120 -->
      <g style="fill: #c9d1d9" transform="translate(395.586134 164.197031) scale(0.08 -0.08)">
       <use xlink:href="#DejaVuSans-31"/>
       <use xlink:href="#DejaVuSans-32" transform="translate(63.623047 0)"/>
       <use xlink:href="#DejaVuSans-30" transform="translate(127.246094 0)"/>
      </g>
     </g>
    </g>
   </g>
   <g id="matplotlib.axis_2">
    <g id="ytick_1">
     <g id="line2d_15">
      <path d="M 34.56 145.22919 
L 417.71 145.22919 
" clip-path="url(#pfee53615b0)" style="fill: none; stroke: #21262d; stroke-opacity: 0.5; stroke-width: 0.5; stroke-linecap: square"/>
     </g>
     <g id="line2d_16">
      <defs>
       <path id="me83b50ee4a" d="M 0 0 
L -3.5 0 
" style="stroke: #c9d1d9; stroke-width: 0.8"/>
      </defs>
      <g>
       <use xlink:href="#me83b50ee4a" x="34.56" y="145.22919" style="fill: #c9d1d9; stroke: #c9d1d9; stroke-width: 0.8"/>
      </g>
     </g>
     <g id="text_8">
      <!-- $0 -->
      <g style="fill: #c9d1d9" transform="translate(17.38 148.268565) scale(0.08 -0.08)">
       <defs>
        <path id="DejaVuSans-24" d="M 2163 -941 
L 1850 -941 
L 1847 0 
Q 1519 6 1191 76 
Q 863 147 531 288 
L 531 850 
Q 850 650 1176 548 
Q 1503 447 1850 444 
L 1850 1869 
Q 1159 1981 845 2250 
Q 531 2519 531 2988 
Q 531 3497 872 3790 
Q 1213 4084 1850 4128 
L 1850 4863 
L 2163 4863 
L 2163 4138 
Q 2453 4125 2725 4076 
Q 2997 4028 3256 3944 
L 3256 3397 
Q 2997 3528 2723 3600 
Q 2450 3672 2163 3684 
L 2163 2350 
Q 2872 2241 3206 1959 
Q 3541 1678 3541 1191 
Q 3541 663 3186 358 
Q 2831 53 2163 6 
L 2163 -941 
z
M 1850 2406 
L 1850 3688 
Q 1488 3647 1297 3481 
Q 1106 3316 1106 3041 
Q 1106 2772 1282 2622 
Q 1459 2472 1850 2406 
z
M 2163 1806 
L 2163 453 
Q 2559 506 2761 678 
Q 2963 850 2963 1131 
Q 2963 1406 2770 1568 
Q 2578 1731 2163 1806 
z
" transform="scale(0.015625)"/>
       </defs>
       <use xlink:href="#DejaVuSans-24"/>
       <use xlink:href="#DejaVuSans-30" transform="translate(63.623047 0)"/>
      </g>
     </g>
    </g>
    <g id="ytick_2">
     <g id="line2d_17">
      <path d="M 34.56 117.887666 
L 417.71 117.887666 
" clip-path="url(#pfee53615b0)" style="fill: none; stroke: #21262d; stroke-opacity: 0.5; stroke-width: 0.5; stroke-linecap: square"/>
     </g>
     <g id="line2d_18">
      <g>
       <use xlink:href="#me83b50ee4a" x="34.56" y="117.887666" style="fill: #c9d1d9; stroke: #c9d1d9; stroke-width: 0.8"/>
      </g>
     </g>
     <g id="text_9">
      <!-- $100 -->
      <g style="fill: #c9d1d9" transform="translate(7.2 120.927041) scale(0.08 -0.08)">
       <use xlink:href="#DejaVuSans-24"/>
       <use xlink:href="#DejaVuSans-31" transform="translate(63.623047 0)"/>
       <use xlink:href="#DejaVuSans-30" transform="translate(127.246094 0)"/>
       <use xlink:href="#DejaVuSans-30" transform="translate(190.869141 0)"/>
      </g>
     </g>
    </g>
    <g id="ytick_3">
     <g id="line2d_19">
      <path d="M 34.56 90.546142 
L 417.71 90.546142 
" clip-path="url(#pfee53615b0)" style="fill: none; stroke: #21262d; stroke-opacity: 0.5; stroke-width: 0.5; stroke-linecap: square"/>
     </g>
     <g id="line2d_20">
      <g>
       <use xlink:href="#me83b50ee4a" x="34.56" y="90.546142" style="fill: #c9d1d9; stroke: #c9d1d9; stroke-width: 0.8"/>
      </g>
     </g>
     <g id="text_10">
      <!-- $200 -->
      <g style="fill: #c9d1d9" transform="translate(7.2 93.585517) scale(0.08 -0.08)">
       <use xlink:href="#DejaVuSans-24"/>
       <use xlink:href="#DejaVuSans-32" transform="translate(63.623047 0)"/>
       <use xlink:href="#DejaVuSans-30" transform="translate(127.246094 0)"/>
       <use xlink:href="#DejaVuSans-30" transform="translate(190.869141 0)"/>
      </g>
     </g>
    </g>
    <g id="ytick_4">
     <g id="line2d_21">
      <path d="M 34.56 63.204618 
L 417.71 63.204618 
" clip-path="url(#pfee53615b0)" style="fill: none; stroke: #21262d; stroke-opacity: 0.5; stroke-width: 0.5; stroke-linecap: square"/>
     </g>
     <g id="line2d_22">
      <g>
       <use xlink:href="#me83b50ee4a" x="34.56" y="63.204618" style="fill: #c9d1d9; stroke: #c9d1d9; stroke-width: 0.8"/>
      </g>
     </g>
     <g id="text_11">
      <!-- $300 -->
      <g style="fill: #c9d1d9" transform="translate(7.2 66.243993) scale(0.08 -0.08)">
       <defs>
        <path id="DejaVuSans-33" d="M 2597 2516 
Q 3050 2419 3304 2112 
Q 3559 1806 3559 1356 
Q 3559 666 3084 287 
Q 2609 -91 1734 -91 
Q 1441 -91 1130 -33 
Q 819 25 488 141 
L 488 750 
Q 750 597 1062 519 
Q 1375 441 1716 441 
Q 2309 441 2620 675 
Q 2931 909 2931 1356 
Q 2931 1769 2642 2001 
Q 2353 2234 1838 2234 
L 1294 2234 
L 1294 2753 
L 1863 2753 
Q 2328 2753 2575 2939 
Q 2822 3125 2822 3475 
Q 2822 3834 2567 4026 
Q 2313 4219 1838 4219 
Q 1578 4219 1281 4162 
Q 984 4106 628 3988 
L 628 4550 
Q 988 4650 1302 4700 
Q 1616 4750 1894 4750 
Q 2613 4750 3031 4423 
Q 3450 4097 3450 3541 
Q 3450 3153 3228 2886 
Q 3006 2619 2597 2516 
z
" transform="scale(0.015625)"/>
       </defs>
       <use xlink:href="#DejaVuSans-24"/>
       <use xlink:href="#DejaVuSans-33" transform="translate(63.623047 0)"/>
       <use xlink:href="#DejaVuSans-30" transform="translate(127.246094 0)"/>
       <use xlink:href="#DejaVuSans-30" transform="translate(190.869141 0)"/>
      </g>
     </g>
    </g>
    <g id="ytick_5">
     <g id="line2d_23">
      <path d="M 34.56 35.863093 
L 417.71 35.863093 
" clip-path="url(#pfee53615b0)" style="fill: none; stroke: #21262d; stroke-opacity: 0.5; stroke-width: 0.5; stroke-linecap: square"/>
     </g>
     <g id="line2d_24">
      <g>
       <use xlink:href="#me83b50ee4a" x="34.56" y="35.863093" style="fill: #c9d1d9; stroke: #c9d1d9; stroke-width: 0.8"/>
      </g>
     </g>
     <g id="text_12">
      <!-- $400 -->
      <g style="fill: #c9d1d9" transform="translate(7.2 38.902468) scale(0.08 -0.08)">
       <use xlink:href="#DejaVuSans-24"/>
       <use xlink:href="#DejaVuSans-34" transform="translate(63.623047 0)"/>
       <use xlink:href="#DejaVuSans-30" transform="translate(127.246094 0)"/>
       <use xlink:href="#DejaVuSans-30" transform="translate(190.869141 0)"/>
      </g>
     </g>
    </g>
   </g>
   <g id="line2d_25">
    <path d="M 51.975909 89.222812 
L 54.902953 88.254922 
L 57.829996 27.447372 
L 60.75704 53.990524 
L 63.684083 70.269667 
L 66.611127 72.719468 
L 69.53817 74.425579 
L 72.465214 75.409874 
L 75.392257 74.581426 
L 78.319301 80.809825 
L 81.246345 82.846769 
L 84.173388 79.472825 
L 87.100432 81.703893 
L 90.027475 80.910989 
L 92.954519 78.056534 
L 95.881562 80.314943 
L 98.808606 82.070269 
L 101.735649 84.016986 
L 104.662693 83.647875 
L 107.589736 86.382028 
L 110.51678 88.315073 
L 113.443824 83.448282 
L 116.370867 90.237183 
L 119.297911 82.997147 
L 122.224954 84.607563 
L 125.151998 56.579766 
L 128.079041 71.31138 
L 131.006085 74.269732 
L 133.933128 73.304577 
L 136.860172 90.710191 
L 139.787215 84.394299 
L 142.714259 82.379229 
L 145.641303 87.262425 
L 148.568346 87.401867 
L 151.49539 87.347183 
L 154.422433 86.945263 
L 157.349477 89.042358 
L 160.27652 88.645906 
L 163.203564 86.13322 
L 166.130607 88.952131 
L 169.057651 86.332813 
L 171.984694 85.561782 
L 174.911738 87.109312 
L 177.838782 85.788717 
L 180.765825 110.412493 
L 183.692869 83.87481 
L 186.619912 95.494958 
L 189.546956 127.369707 
L 192.473999 112.274451 
L 195.401043 127.599376 
L 198.328086 126.054579 
L 201.25513 83.880278 
L 204.182173 75.059902 
L 207.109217 80.079806 
L 210.036261 81.835132 
L 212.963304 72.809695 
L 215.890348 76.484396 
L 218.817391 34.722952 
L 221.744435 47.17975 
L 224.671478 87.749104 
L 227.598522 86.157827 
L 230.525565 85.176266 
L 233.452609 87.735433 
L 236.379652 80.880913 
L 239.306696 87.287032 
L 242.233739 87.188603 
L 245.160783 87.869407 
L 248.087827 125.012867 
L 251.01487 86.03479 
L 253.941914 86.409369 
L 256.868957 98.945458 
L 259.796001 86.379294 
L 262.723044 125.160512 
L 265.650088 86.548811 
L 268.577131 124.591808 
L 271.504175 124.034041 
L 274.431218 87.265159 
L 277.358262 125.16598 
L 280.285306 79.956769 
L 283.212349 83.475624 
L 286.139393 75.43995 
L 289.066436 80.662181 
L 291.99348 79.038094 
L 294.920523 70.794625 
L 297.847567 76.221917 
L 300.77461 84.747005 
L 303.701654 71.981247 
L 306.628697 79.286902 
L 309.555741 84.484526 
L 312.482785 78.983411 
L 315.409828 83.325245 
L 318.336872 81.280099 
L 321.263915 83.379928 
L 324.190959 83.002615 
L 327.118002 83.565851 
L 330.045046 81.353921 
L 332.972089 85.356721 
L 335.899133 81.837866 
L 338.826176 83.557648 
L 341.75322 79.784518 
L 344.680264 84.522804 
L 347.607307 79.557583 
L 350.534351 84.98761 
L 353.461394 82.712795 
L 356.388438 83.120184 
L 359.315481 82.868642 
L 362.242525 82.770212 
L 365.169568 82.846769 
L 368.096612 59.639283 
L 371.023655 74.477528 
L 373.950699 69.878684 
L 376.877743 87.112046 
L 379.804786 87.751838 
L 382.73183 89.479822 
L 385.658873 81.876144 
L 388.585917 86.838631 
L 391.51296 81.651944 
L 394.440004 80.410639 
L 397.367047 82.045662 
L 400.294091 82.070269 
" clip-path="url(#pfee53615b0)" style="fill: none; stroke: #3fb950; stroke-width: 2; stroke-linecap: square"/>
   </g>
   <g id="patch_3">
    <path d="M 34.56 151.118281 
L 34.56 21.558281 
" style="fill: none; stroke: #21262d; stroke-width: 0.8; stroke-linejoin: miter; stroke-linecap: square"/>
   </g>
   <g id="patch_4">
    <path d="M 34.56 151.118281 
L 417.71 151.118281 
" style="fill: none; stroke: #21262d; stroke-width: 0.8; stroke-linejoin: miter; stroke-linecap: square"/>
   </g>
   <g id="text_13">
    <!-- CLIANYTHING (HKUDS/CLI-Anything) — $231.00 (-0.04%) -->
    <g style="fill: #c9d1d9" transform="translate(50.882656 15.558281) scale(0.11 -0.11)">
     <defs>
      <path id="DejaVuSans-Bold-43" d="M 4288 256 
Q 3956 84 3597 -3 
Q 3238 -91 2847 -91 
Q 1681 -91 1000 561 
Q 319 1213 319 2328 
Q 319 3447 1000 4098 
Q 1681 4750 2847 4750 
Q 3238 4750 3597 4662 
Q 3956 4575 4288 4403 
L 4288 3438 
Q 3953 3666 3628 3772 
Q 3303 3878 2944 3878 
Q 2300 3878 1931 3465 
Q 1563 3053 1563 2328 
Q 1563 1606 1931 1193 
Q 2300 781 2944 781 
Q 3303 781 3628 887 
Q 3953 994 4288 1222 
L 4288 256 
z
" transform="scale(0.015625)"/>
      <path id="DejaVuSans-Bold-4c" d="M 588 4666 
L 1791 4666 
L 1791 909 
L 3903 909 
L 3903 0 
L 588 0 
L 588 4666 
z
" transform="scale(0.015625)"/>
      <path id="DejaVuSans-Bold-49" d="M 588 4666 
L 1791 4666 
L 1791 0 
L 588 0 
L 588 4666 
z
" transform="scale(0.015625)"/>
      <path id="DejaVuSans-Bold-41" d="M 3419 850 
L 1538 850 
L 1241 0 
L 31 0 
L 1759 4666 
L 3194 4666 
L 4922 0 
L 3713 0 
L 3419 850 
z
M 1838 1716 
L 3116 1716 
L 2478 3572 
L 1838 1716 
z
" transform="scale(0.015625)"/>
      <path id="DejaVuSans-Bold-4e" d="M 588 4666 
L 1931 4666 
L 3628 1466 
L 3628 4666 
L 4769 4666 
L 4769 0 
L 3425 0 
L 1728 3200 
L 1728 0 
L 588 0 
L 588 4666 
z
" transform="scale(0.015625)"/>
      <path id="DejaVuSans-Bold-59" d="M -63 4666 
L 1253 4666 
L 2316 3003 
L 3378 4666 
L 4697 4666 
L 2919 1966 
L 2919 0 
L 1716 0 
L 1716 1966 
L -63 4666 
z
" transform="scale(0.015625)"/>
      <path id="DejaVuSans-Bold-54" d="M 31 4666 
L 4331 4666 
L 4331 3756 
L 2784 3756 
L 2784 0 
L 1581 0 
L 1581 3756 
L 31 3756 
L 31 4666 
z
" transform="scale(0.015625)"/>
      <path id="DejaVuSans-Bold-48" d="M 588 4666 
L 1791 4666 
L 1791 2888 
L 3566 2888 
L 3566 4666 
L 4769 4666 
L 4769 0 
L 3566 0 
L 3566 1978 
L 1791 1978 
L 1791 0 
L 588 0 
L 588 4666 
z
" transform="scale(0.015625)"/>
      <path id="DejaVuSans-Bold-47" d="M 4781 347 
Q 4331 128 3847 18 
Q 3363 -91 2847 -91 
Q 1681 -91 1000 561 
Q 319 1213 319 2328 
Q 319 3456 1012 4103 
Q 1706 4750 2913 4750 
Q 3378 4750 3804 4662 
Q 4231 4575 4609 4403 
L 4609 3438 
Q 4219 3659 3833 3768 
Q 3447 3878 3059 3878 
Q 2341 3878 1952 3476 
Q 1563 3075 1563 2328 
Q 1563 1588 1938 1184 
Q 2313 781 3003 781 
Q 3191 781 3352 804 
Q 3513 828 3641 878 
L 3641 1784 
L 2906 1784 
L 2906 2591 
L 4781 2591 
L 4781 347 
z
" transform="scale(0.015625)"/>
      <path id="DejaVuSans-Bold-20" transform="scale(0.015625)"/>
      <path id="DejaVuSans-Bold-28" d="M 2413 -844 
L 1484 -844 
Q 1006 -72 778 623 
Q 550 1319 550 2003 
Q 550 2688 779 3389 
Q 1009 4091 1484 4856 
L 2413 4856 
Q 2013 4116 1813 3408 
Q 1613 2700 1613 2009 
Q 1613 1319 1811 609 
Q 2009 -100 2413 -844 
z
" transform="scale(0.015625)"/>
      <path id="DejaVuSans-Bold-4b" d="M 588 4666 
L 1791 4666 
L 1791 2963 
L 3525 4666 
L 4922 4666 
L 2675 2456 
L 5153 0 
L 3647 0 
L 1791 1838 
L 1791 0 
L 588 0 
L 588 4666 
z
" transform="scale(0.015625)"/>
      <path id="DejaVuSans-Bold-55" d="M 588 4666 
L 1791 4666 
L 1791 1869 
Q 1791 1291 1980 1042 
Q 2169 794 2597 794 
Q 3028 794 3217 1042 
Q 3406 1291 3406 1869 
L 3406 4666 
L 4609 4666 
L 4609 1869 
Q 4609 878 4112 393 
Q 3616 -91 2597 -91 
Q 1581 -91 1084 393 
Q 588 878 588 1869 
L 588 4666 
z
" transform="scale(0.015625)"/>
      <path id="DejaVuSans-Bold-44" d="M 1791 3756 
L 1791 909 
L 2222 909 
Q 2959 909 3348 1275 
Q 3738 1641 3738 2338 
Q 3738 3031 3350 3393 
Q 2963 3756 2222 3756 
L 1791 3756 
z
M 588 4666 
L 1856 4666 
Q 2919 4666 3439 4514 
Q 3959 4363 4331 4000 
Q 4659 3684 4818 3271 
Q 4978 2859 4978 2338 
Q 4978 1809 4818 1395 
Q 4659 981 4331 666 
Q 3956 303 3431 151 
Q 2906 0 1856 0 
L 588 0 
L 588 4666 
z
" transform="scale(0.015625)"/>
      <path id="DejaVuSans-Bold-53" d="M 3834 4519 
L 3834 3531 
Q 3450 3703 3084 3790 
Q 2719 3878 2394 3878 
Q 1963 3878 1756 3759 
Q 1550 3641 1550 3391 
Q 1550 3203 1689 3098 
Q 1828 2994 2194 2919 
L 2706 2816 
Q 3484 2659 3812 2340 
Q 4141 2022 4141 1434 
Q 4141 663 3683 286 
Q 3225 -91 2284 -91 
Q 1841 -91 1394 -6 
Q 947 78 500 244 
L 500 1259 
Q 947 1022 1364 901 
Q 1781 781 2169 781 
Q 2563 781 2772 912 
Q 2981 1044 2981 1288 
Q 2981 1506 2839 1625 
Q 2697 1744 2272 1838 
L 1806 1941 
Q 1106 2091 782 2419 
Q 459 2747 459 3303 
Q 459 4000 909 4375 
Q 1359 4750 2203 4750 
Q 2588 4750 2994 4692 
Q 3400 4634 3834 4519 
z
" transform="scale(0.015625)"/>
      <path id="DejaVuSans-Bold-2f" d="M 1644 4666 
L 2338 4666 
L 691 -594 
L 0 -594 
L 1644 4666 
z
" transform="scale(0.015625)"/>
      <path id="DejaVuSans-Bold-2d" d="M 347 2297 
L 2309 2297 
L 2309 1388 
L 347 1388 
L 347 2297 
z
" transform="scale(0.015625)"/>
      <path id="DejaVuSans-Bold-6e" d="M 4056 2131 
L 4056 0 
L 2931 0 
L 2931 347 
L 2931 1631 
Q 2931 2084 2911 2256 
Q 2891 2428 2841 2509 
Q 2775 2619 2662 2680 
Q 2550 2741 2406 2741 
Q 2056 2741 1856 2470 
Q 1656 2200 1656 1722 
L 1656 0 
L 538 0 
L 538 3500 
L 1656 3500 
L 1656 2988 
Q 1909 3294 2193 3439 
Q 2478 3584 2822 3584 
Q 3428 3584 3742 3212 
Q 4056 2841 4056 2131 
z
" transform="scale(0.015625)"/>
      <path id="DejaVuSans-Bold-79" d="M 78 3500 
L 1197 3500 
L 2138 1125 
L 2938 3500 
L 4056 3500 
L 2584 -331 
Q 2363 -916 2067 -1148 
Q 1772 -1381 1288 -1381 
L 641 -1381 
L 641 -647 
L 991 -647 
Q 1275 -647 1404 -556 
Q 1534 -466 1606 -231 
L 1638 -134 
L 78 3500 
z
" transform="scale(0.015625)"/>
      <path id="DejaVuSans-Bold-74" d="M 1759 4494 
L 1759 3500 
L 2913 3500 
L 2913 2700 
L 1759 2700 
L 1759 1216 
Q 1759 972 1856 886 
Q 1953 800 2241 800 
L 2816 800 
L 2816 0 
L 1856 0 
Q 1194 0 917 276 
Q 641 553 641 1216 
L 641 2700 
L 84 2700 
L 84 3500 
L 641 3500 
L 641 4494 
L 1759 4494 
z
" transform="scale(0.015625)"/>
      <path id="DejaVuSans-Bold-68" d="M 4056 2131 
L 4056 0 
L 2931 0 
L 2931 347 
L 2931 1625 
Q 2931 2084 2911 2256 
Q 2891 2428 2841 2509 
Q 2775 2619 2662 2680 
Q 2550 2741 2406 2741 
Q 2056 2741 1856 2470 
Q 1656 2200 1656 1722 
L 1656 0 
L 538 0 
L 538 4863 
L 1656 4863 
L 1656 2988 
Q 1909 3294 2193 3439 
Q 2478 3584 2822 3584 
Q 3428 3584 3742 3212 
Q 4056 2841 4056 2131 
z
" transform="scale(0.015625)"/>
      <path id="DejaVuSans-Bold-69" d="M 538 3500 
L 1656 3500 
L 1656 0 
L 538 0 
L 538 3500 
z
M 538 4863 
L 1656 4863 
L 1656 3950 
L 538 3950 
L 538 4863 
z
" transform="scale(0.015625)"/>
      <path id="DejaVuSans-Bold-67" d="M 2919 594 
Q 2688 288 2409 144 
Q 2131 0 1766 0 
Q 1125 0 706 504 
Q 288 1009 288 1791 
Q 288 2575 706 3076 
Q 1125 3578 1766 3578 
Q 2131 3578 2409 3434 
Q 2688 3291 2919 2981 
L 2919 3500 
L 4044 3500 
L 4044 353 
Q 4044 -491 3511 -936 
Q 2978 -1381 1966 -1381 
Q 1638 -1381 1331 -1331 
Q 1025 -1281 716 -1178 
L 716 -306 
Q 1009 -475 1290 -558 
Q 1572 -641 1856 -641 
Q 2406 -641 2662 -400 
Q 2919 -159 2919 353 
L 2919 594 
z
M 2181 2772 
Q 1834 2772 1640 2515 
Q 1447 2259 1447 1791 
Q 1447 1309 1634 1061 
Q 1822 813 2181 813 
Q 2531 813 2725 1069 
Q 2919 1325 2919 1791 
Q 2919 2259 2725 2515 
Q 2531 2772 2181 2772 
z
" transform="scale(0.015625)"/>
      <path id="DejaVuSans-Bold-29" d="M 513 -844 
Q 913 -100 1113 609 
Q 1313 1319 1313 2009 
Q 1313 2700 1113 3408 
Q 913 4116 513 4856 
L 1441 4856 
Q 1916 4091 2145 3389 
Q 2375 2688 2375 2003 
Q 2375 1319 2147 623 
Q 1919 -72 1441 -844 
L 513 -844 
z
" transform="scale(0.015625)"/>
      <path id="DejaVuSans-Bold-2014" d="M 344 2156 
L 6056 2156 
L 6056 1350 
L 344 1350 
L 344 2156 
z
" transform="scale(0.015625)"/>
      <path id="DejaVuSans-Bold-24" d="M 2484 -941 
L 1978 -941 
L 1975 0 
Q 1584 16 1218 87 
Q 853 159 506 288 
L 506 1106 
Q 866 922 1233 823 
Q 1600 725 1978 713 
L 1978 1684 
L 1875 1703 
Q 1128 1834 814 2115 
Q 500 2397 500 2925 
Q 500 3484 883 3798 
Q 1266 4113 1975 4141 
L 1978 4863 
L 2484 4863 
L 2484 4153 
Q 2797 4128 3109 4075 
Q 3422 4022 3738 3938 
L 3738 3144 
Q 3425 3275 3112 3348 
Q 2800 3422 2484 3438 
L 2484 2541 
L 2584 2522 
Q 3378 2397 3698 2105 
Q 4019 1813 4019 1241 
Q 4019 666 3637 358 
Q 3256 50 2484 6 
L 2484 -941 
z
M 1978 2613 
L 1978 3428 
Q 1756 3416 1623 3308 
Q 1491 3200 1491 3034 
Q 1491 2850 1612 2745 
Q 1734 2641 1978 2613 
z
M 2484 1594 
L 2484 725 
Q 2756 728 2892 831 
Q 3028 934 3028 1141 
Q 3028 1353 2903 1458 
Q 2778 1563 2484 1594 
z
" transform="scale(0.015625)"/>
      <path id="DejaVuSans-Bold-32" d="M 1844 884 
L 3897 884 
L 3897 0 
L 506 0 
L 506 884 
L 2209 2388 
Q 2438 2594 2547 2791 
Q 2656 2988 2656 3200 
Q 2656 3528 2436 3728 
Q 2216 3928 1850 3928 
Q 1569 3928 1234 3808 
Q 900 3688 519 3450 
L 519 4475 
Q 925 4609 1322 4679 
Q 1719 4750 2100 4750 
Q 2938 4750 3402 4381 
Q 3866 4013 3866 3353 
Q 3866 2972 3669 2642 
Q 3472 2313 2841 1759 
L 1844 884 
z
" transform="scale(0.015625)"/>
      <path id="DejaVuSans-Bold-33" d="M 2981 2516 
Q 3453 2394 3698 2092 
Q 3944 1791 3944 1325 
Q 3944 631 3412 270 
Q 2881 -91 1863 -91 
Q 1503 -91 1142 -33 
Q 781 25 428 141 
L 428 1069 
Q 766 900 1098 814 
Q 1431 728 1753 728 
Q 2231 728 2486 893 
Q 2741 1059 2741 1369 
Q 2741 1688 2480 1852 
Q 2219 2016 1709 2016 
L 1228 2016 
L 1228 2791 
L 1734 2791 
Q 2188 2791 2409 2933 
Q 2631 3075 2631 3366 
Q 2631 3634 2415 3781 
Q 2200 3928 1806 3928 
Q 1516 3928 1219 3862 
Q 922 3797 628 3669 
L 628 4550 
Q 984 4650 1334 4700 
Q 1684 4750 2022 4750 
Q 2931 4750 3382 4451 
Q 3834 4153 3834 3553 
Q 3834 3144 3618 2883 
Q 3403 2622 2981 2516 
z
" transform="scale(0.015625)"/>
      <path id="DejaVuSans-Bold-31" d="M 750 831 
L 1813 831 
L 1813 3847 
L 722 3622 
L 722 4441 
L 1806 4666 
L 2950 4666 
L 2950 831 
L 4013 831 
L 4013 0 
L 750 0 
L 750 831 
z
" transform="scale(0.015625)"/>
      <path id="DejaVuSans-Bold-2e" d="M 653 1209 
L 1778 1209 
L 1778 0 
L 653 0 
L 653 1209 
z
" transform="scale(0.015625)"/>
      <path id="DejaVuSans-Bold-30" d="M 2944 2338 
Q 2944 3213 2780 3570 
Q 2616 3928 2228 3928 
Q 1841 3928 1675 3570 
Q 1509 3213 1509 2338 
Q 1509 1453 1675 1090 
Q 1841 728 2228 728 
Q 2613 728 2778 1090 
Q 2944 1453 2944 2338 
z
M 4147 2328 
Q 4147 1169 3647 539 
Q 3147 -91 2228 -91 
Q 1306 -91 806 539 
Q 306 1169 306 2328 
Q 306 3491 806 4120 
Q 1306 4750 2228 4750 
Q 3147 4750 3647 4120 
Q 4147 3491 4147 2328 
z
" transform="scale(0.015625)"/>
      <path id="DejaVuSans-Bold-34" d="M 2356 3675 
L 1038 1722 
L 2356 1722 
L 2356 3675 
z
M 2156 4666 
L 3494 4666 
L 3494 1722 
L 4159 1722 
L 4159 850 
L 3494 850 
L 3494 0 
L 2356 0 
L 2356 850 
L 288 850 
L 288 1881 
L 2156 4666 
z
" transform="scale(0.015625)"/>
      <path id="DejaVuSans-Bold-25" d="M 4959 1925 
Q 4738 1925 4616 1733 
Q 4494 1541 4494 1184 
Q 4494 825 4614 633 
Q 4734 441 4959 441 
Q 5184 441 5303 633 
Q 5422 825 5422 1184 
Q 5422 1541 5301 1733 
Q 5181 1925 4959 1925 
z
M 4959 2450 
Q 5541 2450 5875 2112 
Q 6209 1775 6209 1184 
Q 6209 594 5875 251 
Q 5541 -91 4959 -91 
Q 4378 -91 4042 251 
Q 3706 594 3706 1184 
Q 3706 1772 4042 2111 
Q 4378 2450 4959 2450 
z
M 2094 -91 
L 1403 -91 
L 4319 4750 
L 5013 4750 
L 2094 -91 
z
M 1453 4750 
Q 2034 4750 2367 4411 
Q 2700 4072 2700 3481 
Q 2700 2891 2367 2550 
Q 2034 2209 1453 2209 
Q 872 2209 539 2550 
Q 206 2891 206 3481 
Q 206 4072 539 4411 
Q 872 4750 1453 4750 
z
M 1453 4225 
Q 1228 4225 1106 4031 
Q 984 3838 984 3481 
Q 984 3122 1106 2926 
Q 1228 2731 1453 2731 
Q 1678 2731 1798 2926 
Q 1919 3122 1919 3481 
Q 1919 3838 1797 4031 
Q 1675 4225 1453 4225 
z
" transform="scale(0.015625)"/>
     </defs>
     <use xlink:href="#DejaVuSans-Bold-43"/>
     <use xlink:href="#DejaVuSans-Bold-4c" transform="translate(73.388672 0)"/>
     <use xlink:href="#DejaVuSans-Bold-49" transform="translate(137.109375 0)"/>
     <use xlink:href="#DejaVuSans-Bold-41" transform="translate(174.316406 0)"/>
     <use xlink:href="#DejaVuSans-Bold-4e" transform="translate(251.708984 0)"/>
     <use xlink:href="#DejaVuSans-Bold-59" transform="translate(335.400391 0)"/>
     <use xlink:href="#DejaVuSans-Bold-54" transform="translate(407.8125 0)"/>
     <use xlink:href="#DejaVuSans-Bold-48" transform="translate(476.025391 0)"/>
     <use xlink:href="#DejaVuSans-Bold-49" transform="translate(559.716797 0)"/>
     <use xlink:href="#DejaVuSans-Bold-4e" transform="translate(596.923828 0)"/>
     <use xlink:href="#DejaVuSans-Bold-47" transform="translate(680.615234 0)"/>
     <use xlink:href="#DejaVuSans-Bold-20" transform="translate(762.695312 0)"/>
     <use xlink:href="#DejaVuSans-Bold-28" transform="translate(797.509766 0)"/>
     <use xlink:href="#DejaVuSans-Bold-48" transform="translate(843.212891 0)"/>
     <use xlink:href="#DejaVuSans-Bold-4b" transform="translate(926.904297 0)"/>
     <use xlink:href="#DejaVuSans-Bold-55" transform="translate(1002.644531 0)"/>
     <use xlink:href="#DejaVuSans-Bold-44" transform="translate(1083.845703 0)"/>
     <use xlink:href="#DejaVuSans-Bold-53" transform="translate(1166.853516 0)"/>
     <use xlink:href="#DejaVuSans-Bold-2f" transform="translate(1238.875 0)"/>
     <use xlink:href="#DejaVuSans-Bold-43" transform="translate(1275.398438 0)"/>
     <use xlink:href="#DejaVuSans-Bold-4c" transform="translate(1348.787109 0)"/>
     <use xlink:href="#DejaVuSans-Bold-49" transform="translate(1412.507812 0)"/>
     <use xlink:href="#DejaVuSans-Bold-2d" transform="translate(1449.714844 0)"/>
     <use xlink:href="#DejaVuSans-Bold-41" transform="translate(1491.21875 0)"/>
     <use xlink:href="#DejaVuSans-Bold-6e" transform="translate(1568.611328 0)"/>
     <use xlink:href="#DejaVuSans-Bold-79" transform="translate(1639.802734 0)"/>
     <use xlink:href="#DejaVuSans-Bold-74" transform="translate(1704.988281 0)"/>
     <use xlink:href="#DejaVuSans-Bold-68" transform="translate(1752.791016 0)"/>
     <use xlink:href="#DejaVuSans-Bold-69" transform="translate(1823.982422 0)"/>
     <use xlink:href="#DejaVuSans-Bold-6e" transform="translate(1858.259766 0)"/>
     <use xlink:href="#DejaVuSans-Bold-67" transform="translate(1929.451172 0)"/>
     <use xlink:href="#DejaVuSans-Bold-29" transform="translate(2001.033203 0)"/>
     <use xlink:href="#DejaVuSans-Bold-20" transform="translate(2046.736328 0)"/>
     <use xlink:href="#DejaVuSans-Bold-2014" transform="translate(2081.550781 0)"/>
     <use xlink:href="#DejaVuSans-Bold-20" transform="translate(2181.550781 0)"/>
     <use xlink:href="#DejaVuSans-Bold-24" transform="translate(2216.365234 0)"/>
     <use xlink:href="#DejaVuSans-Bold-32" transform="translate(2285.945312 0)"/>
     <use xlink:href="#DejaVuSans-Bold-33" transform="translate(2355.525391 0)"/>
     <use xlink:href="#DejaVuSans-Bold-31" transform="translate(2425.105469 0)"/>
     <use xlink:href="#DejaVuSans-Bold-2e" transform="translate(2494.685547 0)"/>
     <use xlink:href="#DejaVuSans-Bold-30" transform="translate(2532.673828 0)"/>
     <use xlink:href="#DejaVuSans-Bold-30" transform="translate(2602.253906 0)"/>
     <use xlink:href="#DejaVuSans-Bold-20" transform="translate(2671.833984 0)"/>
     <use xlink:href="#DejaVuSans-Bold-28" transform="translate(2706.648438 0)"/>
     <use xlink:href="#DejaVuSans-Bold-2d" transform="translate(2752.351562 0)"/>
     <use xlink:href="#DejaVuSans-Bold-30" transform="translate(2793.855469 0)"/>
     <use xlink:href="#DejaVuSans-Bold-2e" transform="translate(2863.435547 0)"/>
     <use xlink:href="#DejaVuSans-Bold-30" transform="translate(2901.423828 0)"/>
     <use xlink:href="#DejaVuSans-Bold-34" transform="translate(2971.003906 0)"/>
     <use xlink:href="#DejaVuSans-Bold-25" transform="translate(3040.583984 0)"/>
     <use xlink:href="#DejaVuSans-Bold-29" transform="translate(3140.779297 0)"/>
    </g>
   </g>
  </g>
 </g>
 <defs>
  <clipPath id="pfee53615b0">
   <rect x="34.56" y="21.558281" width="383.15" height="129.56"/>
  </clipPath>
 </defs>
</svg>
