<?xml version="1.0" encoding="utf-8" standalone="no"?>
<!DOCTYPE svg PUBLIC "-//W3C//DTD SVG 1.1//EN"
  "http://www.w3.org/Graphics/SVG/1.1/DTD/svg11.dtd">
<svg xmlns:xlink="http://www.w3.org/1999/xlink" width="466.76125pt" height="172.518281pt" viewBox="0 0 466.76125 172.518281" xmlns="http://www.w3.org/2000/svg" version="1.1">
 <metadata>
  <rdf:RDF xmlns:dc="http://purl.org/dc/elements/1.1/" xmlns:cc="http://creativecommons.org/ns#" xmlns:rdf="http://www.w3.org/1999/02/22-rdf-syntax-ns#">
   <cc:Work>
    <dc:type rdf:resource="http://purl.org/dc/dcmitype/StillImage"/>
    <dc:date>2026-07-02T00:42:18.058895</dc:date>
    <dc:format>image/svg+xml</dc:format>
    <dc:creator>
     <cc:Agent>
      <dc:title>Matplotlib v3.11.0, https://matplotlib.org/</dc:title>
     </cc:Agent>
    </dc:creator>
   </cc:Work>
  </rdf:RDF>
 </metadata>
 <defs>
  <style type="text/css">*{stroke-linejoin: round; stroke-linecap: butt}</style>
 </defs>
 <g id="figure_1">
  <g id="patch_1">
   <path d="M 0 172.518281 
L 466.76125 172.518281 
L 466.76125 0 
L 0 0 
z
" style="fill: #0d1117"/>
  </g>
  <g id="axes_1">
   <g id="patch_2">
    <path d="M 41.760625 150.318281 
L 425.000625 150.318281 
L 425.000625 21.558281 
L 41.760625 21.558281 
z
" style="fill: #0d1117"/>
   </g>
   <g id="FillBetweenPolyCollection_1">
    <defs>
     <path id="mf1ab3e5626" d="M 59.180625 -28.052727 
L 59.180625 -129.909301 
L 62.376955 -123.575534 
L 65.573286 -123.41195 
L 68.769616 -124.234982 
L 71.965946 -115.641712 
L 75.162276 -122.553135 
L 78.358607 -124.291214 
L 81.554937 -124.015166 
L 84.751267 -124.623494 
L 87.947597 -125.512982 
L 91.143928 -122.548023 
L 94.340258 -124.986446 
L 97.536588 -125.492534 
L 100.732919 -123.759566 
L 103.929249 -123.197246 
L 107.125579 -121.873239 
L 110.321909 -127.470877 
L 113.51824 -125.63567 
L 116.71457 -121.755663 
L 119.9109 -123.07967 
L 123.107231 -125.349398 
L 126.303561 -122.353767 
L 129.499891 -124.209422 
L 132.696221 -120.308967 
L 135.892552 -123.734006 
L 139.088882 -124.347446 
L 142.285212 -127.327741 
L 145.481542 -126.371798 
L 148.677873 -121.607415 
L 151.874203 -126.499598 
L 155.070533 -124.10207 
L 158.266864 -127.716253 
L 161.463194 -121.224015 
L 164.659524 -129.239629 
L 167.855854 -121.382487 
L 171.052185 -124.373006 
L 174.248515 -123.299486 
L 177.444845 -127.614013 
L 180.641175 -128.104765 
L 183.837506 -129.750829 
L 187.033836 -130.890804 
L 190.230166 -133.165644 
L 193.426497 -140.000386 
L 196.622827 -134.980403 
L 199.819157 -130.681212 
L 203.015487 -132.2097 
L 206.211818 -131.223084 
L 209.408148 -132.526644 
L 212.604478 -131.586036 
L 215.800808 -129.142501 
L 218.997139 -132.296604 
L 222.193469 -126.290006 
L 225.389799 -128.350141 
L 228.58613 -126.059966 
L 231.78246 -126.525158 
L 234.97879 -127.864501 
L 238.17512 -125.604998 
L 241.371451 -127.649797 
L 244.567781 -125.400518 
L 247.764111 -128.559733 
L 250.960442 -125.722574 
L 254.156772 -126.673406 
L 257.353102 -122.650263 
L 260.549432 -126.484262 
L 263.745763 -121.704543 
L 266.942093 -129.357205 
L 270.138423 -134.791259 
L 273.334753 -132.194364 
L 276.531084 -130.026877 
L 279.727414 -129.408325 
L 282.923744 -141.733354 
L 286.120075 -144.243345 
L 289.316405 -135.236003 
L 292.512735 -132.889596 
L 295.709065 -128.876677 
L 298.905396 -133.211652 
L 302.101726 -132.429516 
L 305.298056 -130.538077 
L 308.494386 -124.592822 
L 311.690717 -131.100396 
L 314.887047 -125.32895 
L 318.083377 -117.405352 
L 321.279708 -121.121775 
L 324.476038 -119.271231 
L 327.672368 -120.881511 
L 330.868698 -122.225967 
L 334.065029 -117.798976 
L 337.261359 -122.363991 
L 340.457689 -120.585015 
L 343.654019 -121.617639 
L 346.85035 -120.871287 
L 350.04668 -120.400983 
L 353.24301 -129.950197 
L 356.439341 -135.276899 
L 359.635671 -141.068794 
L 362.832001 -145.107273 
L 366.028331 -117.901216 
L 369.224662 -129.863293 
L 372.420992 -119.879559 
L 375.617322 -124.030502 
L 378.813653 -117.262216 
L 382.009983 -119.710863 
L 385.206313 -119.629071 
L 388.402643 -128.104765 
L 391.598974 -123.442622 
L 394.795304 -126.908557 
L 397.991634 -121.474503 
L 401.187964 -120.763935 
L 404.384295 -132.710676 
L 407.580625 -121.387599 
L 407.580625 -28.052727 
L 407.580625 -28.052727 
L 404.384295 -28.052727 
L 401.187964 -28.052727 
L 397.991634 -28.052727 
L 394.795304 -28.052727 
L 391.598974 -28.052727 
L 388.402643 -28.052727 
L 385.206313 -28.052727 
L 382.009983 -28.052727 
L 378.813653 -28.052727 
L 375.617322 -28.052727 
L 372.420992 -28.052727 
L 369.224662 -28.052727 
L 366.028331 -28.052727 
L 362.832001 -28.052727 
L 359.635671 -28.052727 
L 356.439341 -28.052727 
L 353.24301 -28.052727 
L 350.04668 -28.052727 
L 346.85035 -28.052727 
L 343.654019 -28.052727 
L 340.457689 -28.052727 
L 337.261359 -28.052727 
L 334.065029 -28.052727 
L 330.868698 -28.052727 
L 327.672368 -28.052727 
L 324.476038 -28.052727 
L 321.279708 -28.052727 
L 318.083377 -28.052727 
L 314.887047 -28.052727 
L 311.690717 -28.052727 
L 308.494386 -28.052727 
L 305.298056 -28.052727 
L 302.101726 -28.052727 
L 298.905396 -28.052727 
L 295.709065 -28.052727 
L 292.512735 -28.052727 
L 289.316405 -28.052727 
L 286.120075 -28.052727 
L 282.923744 -28.052727 
L 279.727414 -28.052727 
L 276.531084 -28.052727 
L 273.334753 -28.052727 
L 270.138423 -28.052727 
L 266.942093 -28.052727 
L 263.745763 -28.052727 
L 260.549432 -28.052727 
L 257.353102 -28.052727 
L 254.156772 -28.052727 
L 250.960442 -28.052727 
L 247.764111 -28.052727 
L 244.567781 -28.052727 
L 241.371451 -28.052727 
L 238.17512 -28.052727 
L 234.97879 -28.052727 
L 231.78246 -28.052727 
L 228.58613 -28.052727 
L 225.389799 -28.052727 
L 222.193469 -28.052727 
L 218.997139 -28.052727 
L 215.800808 -28.052727 
L 212.604478 -28.052727 
L 209.408148 -28.052727 
L 206.211818 -28.052727 
L 203.015487 -28.052727 
L 199.819157 -28.052727 
L 196.622827 -28.052727 
L 193.426497 -28.052727 
L 190.230166 -28.052727 
L 187.033836 -28.052727 
L 183.837506 -28.052727 
L 180.641175 -28.052727 
L 177.444845 -28.052727 
L 174.248515 -28.052727 
L 171.052185 -28.052727 
L 167.855854 -28.052727 
L 164.659524 -28.052727 
L 161.463194 -28.052727 
L 158.266864 -28.052727 
L 155.070533 -28.052727 
L 151.874203 -28.052727 
L 148.677873 -28.052727 
L 145.481542 -28.052727 
L 142.285212 -28.052727 
L 139.088882 -28.052727 
L 135.892552 -28.052727 
L 132.696221 -28.052727 
L 129.499891 -28.052727 
L 126.303561 -28.052727 
L 123.107231 -28.052727 
L 119.9109 -28.052727 
L 116.71457 -28.052727 
L 113.51824 -28.052727 
L 110.321909 -28.052727 
L 107.125579 -28.052727 
L 103.929249 -28.052727 
L 100.732919 -28.052727 
L 97.536588 -28.052727 
L 94.340258 -28.052727 
L 91.143928 -28.052727 
L 87.947597 -28.052727 
L 84.751267 -28.052727 
L 81.554937 -28.052727 
L 78.358607 -28.052727 
L 75.162276 -28.052727 
L 71.965946 -28.052727 
L 68.769616 -28.052727 
L 65.573286 -28.052727 
L 62.376955 -28.052727 
L 59.180625 -28.052727 
z
" style="stroke: #f85149; stroke-opacity: 0.15"/>
    </defs>
    <g clip-path="url(#pfd89c18573)">
     <use xlink:href="#mf1ab3e5626" x="0" y="172.518281" style="fill: #f85149; fill-opacity: 0.15; stroke: #f85149; stroke-opacity: 0.15"/>
    </g>
   </g>
   <g id="matplotlib.axis_1">
    <g id="xtick_1">
     <g id="line2d_1">
      <path d="M 59.180625 150.318281 
L 59.180625 21.558281 
" clip-path="url(#pfd89c18573)" style="fill: none; stroke: #21262d; stroke-opacity: 0.5; stroke-width: 0.5; stroke-linecap: square"/>
     </g>
     <g id="line2d_2">
      <defs>
       <path id="mdd2abc3deb" d="M 0 0 
L 0 3.5 
" style="stroke: #c9d1d9; stroke-width: 0.8"/>
      </defs>
      <g>
       <use xlink:href="#mdd2abc3deb" x="59.180625" y="150.318281" style="fill: #c9d1d9; stroke: #c9d1d9; stroke-width: 0.8"/>
      </g>
     </g>
     <g id="text_1">
      <!-- 0 -->
      <g style="fill: #c9d1d9" transform="translate(56.635625 163.396406) scale(0.08 -0.08)">
       <defs>
        <path id="DejaVuSans-13" d="M 2034 4250 
Q 1547 4250 1301 3770 
Q 1056 3291 1056 2328 
Q 1056 1369 1301 889 
Q 1547 409 2034 409 
Q 2525 409 2770 889 
Q 3016 1369 3016 2328 
Q 3016 3291 2770 3770 
Q 2525 4250 2034 4250 
z
M 2034 4750 
Q 2819 4750 3233 4129 
Q 3647 3509 3647 2328 
Q 3647 1150 3233 529 
Q 2819 -91 2034 -91 
Q 1250 -91 836 529 
Q 422 1150 422 2328 
Q 422 3509 836 4129 
Q 1250 4750 2034 4750 
z
" transform="scale(0.015625)"/>
       </defs>
       <use xlink:href="#DejaVuSans-13"/>
      </g>
     </g>
    </g>
    <g id="xtick_2">
     <g id="line2d_3">
      <path d="M 123.107231 150.318281 
L 123.107231 21.558281 
" clip-path="url(#pfd89c18573)" style="fill: none; stroke: #21262d; stroke-opacity: 0.5; stroke-width: 0.5; stroke-linecap: square"/>
     </g>
     <g id="line2d_4">
      <g>
       <use xlink:href="#mdd2abc3deb" x="123.107231" y="150.318281" style="fill: #c9d1d9; stroke: #c9d1d9; stroke-width: 0.8"/>
      </g>
     </g>
     <g id="text_2">
      <!-- 20 -->
      <g style="fill: #c9d1d9" transform="translate(118.017231 163.396406) scale(0.08 -0.08)">
       <defs>
        <path id="DejaVuSans-15" d="M 1228 531 
L 3431 531 
L 3431 0 
L 469 0 
L 469 531 
Q 828 903 1448 1529 
Q 2069 2156 2228 2338 
Q 2531 2678 2651 2914 
Q 2772 3150 2772 3378 
Q 2772 3750 2511 3984 
Q 2250 4219 1831 4219 
Q 1534 4219 1204 4116 
Q 875 4013 500 3803 
L 500 4441 
Q 881 4594 1212 4672 
Q 1544 4750 1819 4750 
Q 2544 4750 2975 4387 
Q 3406 4025 3406 3419 
Q 3406 3131 3298 2873 
Q 3191 2616 2906 2266 
Q 2828 2175 2409 1742 
Q 1991 1309 1228 531 
z
" transform="scale(0.015625)"/>
       </defs>
       <use xlink:href="#DejaVuSans-15"/>
       <use xlink:href="#DejaVuSans-13" transform="translate(63.625 0)"/>
      </g>
     </g>
    </g>
    <g id="xtick_3">
     <g id="line2d_5">
      <path d="M 187.033836 150.318281 
L 187.033836 21.558281 
" clip-path="url(#pfd89c18573)" style="fill: none; stroke: #21262d; stroke-opacity: 0.5; stroke-width: 0.5; stroke-linecap: square"/>
     </g>
     <g id="line2d_6">
      <g>
       <use xlink:href="#mdd2abc3deb" x="187.033836" y="150.318281" style="fill: #c9d1d9; stroke: #c9d1d9; stroke-width: 0.8"/>
      </g>
     </g>
     <g id="text_3">
      <!-- 40 -->
      <g style="fill: #c9d1d9" transform="translate(181.943836 163.396406) scale(0.08 -0.08)">
       <defs>
        <path id="DejaVuSans-17" d="M 2419 4116 
L 825 1625 
L 2419 1625 
L 2419 4116 
z
M 2253 4666 
L 3047 4666 
L 3047 1625 
L 3713 1625 
L 3713 1100 
L 3047 1100 
L 3047 0 
L 2419 0 
L 2419 1100 
L 313 1100 
L 313 1709 
L 2253 4666 
z
" transform="scale(0.015625)"/>
       </defs>
       <use xlink:href="#DejaVuSans-17"/>
       <use xlink:href="#DejaVuSans-13" transform="translate(63.625 0)"/>
      </g>
     </g>
    </g>
    <g id="xtick_4">
     <g id="line2d_7">
      <path d="M 250.960442 150.318281 
L 250.960442 21.558281 
" clip-path="url(#pfd89c18573)" style="fill: none; stroke: #21262d; stroke-opacity: 0.5; stroke-width: 0.5; stroke-linecap: square"/>
     </g>
     <g id="line2d_8">
      <g>
       <use xlink:href="#mdd2abc3deb" x="250.960442" y="150.318281" style="fill: #c9d1d9; stroke: #c9d1d9; stroke-width: 0.8"/>
      </g>
     </g>
     <g id="text_4">
      <!-- 60 -->
      <g style="fill: #c9d1d9" transform="translate(245.870442 163.396406) scale(0.08 -0.08)">
       <defs>
        <path id="DejaVuSans-19" d="M 2113 2584 
Q 1688 2584 1439 2293 
Q 1191 2003 1191 1497 
Q 1191 994 1439 701 
Q 1688 409 2113 409 
Q 2538 409 2786 701 
Q 3034 994 3034 1497 
Q 3034 2003 2786 2293 
Q 2538 2584 2113 2584 
z
M 3366 4563 
L 3366 3988 
Q 3128 4100 2886 4159 
Q 2644 4219 2406 4219 
Q 1781 4219 1451 3797 
Q 1122 3375 1075 2522 
Q 1259 2794 1537 2939 
Q 1816 3084 2150 3084 
Q 2853 3084 3261 2657 
Q 3669 2231 3669 1497 
Q 3669 778 3244 343 
Q 2819 -91 2113 -91 
Q 1303 -91 875 529 
Q 447 1150 447 2328 
Q 447 3434 972 4092 
Q 1497 4750 2381 4750 
Q 2619 4750 2861 4703 
Q 3103 4656 3366 4563 
z
" transform="scale(0.015625)"/>
       </defs>
       <use xlink:href="#DejaVuSans-19"/>
       <use xlink:href="#DejaVuSans-13" transform="translate(63.625 0)"/>
      </g>
     </g>
    </g>
    <g id="xtick_5">
     <g id="line2d_9">
      <path d="M 314.887047 150.318281 
L 314.887047 21.558281 
" clip-path="url(#pfd89c18573)" style="fill: none; stroke: #21262d; stroke-opacity: 0.5; stroke-width: 0.5; stroke-linecap: square"/>
     </g>
     <g id="line2d_10">
      <g>
       <use xlink:href="#mdd2abc3deb" x="314.887047" y="150.318281" style="fill: #c9d1d9; stroke: #c9d1d9; stroke-width: 0.8"/>
      </g>
     </g>
     <g id="text_5">
      <!-- 80 -->
      <g style="fill: #c9d1d9" transform="translate(309.797047 163.396406) scale(0.08 -0.08)">
       <defs>
        <path id="DejaVuSans-1b" d="M 2034 2216 
Q 1584 2216 1326 1975 
Q 1069 1734 1069 1313 
Q 1069 891 1326 650 
Q 1584 409 2034 409 
Q 2484 409 2743 651 
Q 3003 894 3003 1313 
Q 3003 1734 2745 1975 
Q 2488 2216 2034 2216 
z
M 1403 2484 
Q 997 2584 770 2862 
Q 544 3141 544 3541 
Q 544 4100 942 4425 
Q 1341 4750 2034 4750 
Q 2731 4750 3128 4425 
Q 3525 4100 3525 3541 
Q 3525 3141 3298 2862 
Q 3072 2584 2669 2484 
Q 3125 2378 3379 2068 
Q 3634 1759 3634 1313 
Q 3634 634 3220 271 
Q 2806 -91 2034 -91 
Q 1263 -91 848 271 
Q 434 634 434 1313 
Q 434 1759 690 2068 
Q 947 2378 1403 2484 
z
M 1172 3481 
Q 1172 3119 1398 2916 
Q 1625 2713 2034 2713 
Q 2441 2713 2670 2916 
Q 2900 3119 2900 3481 
Q 2900 3844 2670 4047 
Q 2441 4250 2034 4250 
Q 1625 4250 1398 4047 
Q 1172 3844 1172 3481 
z
" transform="scale(0.015625)"/>
       </defs>
       <use xlink:href="#DejaVuSans-1b"/>
       <use xlink:href="#DejaVuSans-13" transform="translate(63.625 0)"/>
      </g>
     </g>
    </g>
    <g id="xtick_6">
     <g id="line2d_11">
      <path d="M 378.813653 150.318281 
L 378.813653 21.558281 
" clip-path="url(#pfd89c18573)" style="fill: none; stroke: #21262d; stroke-opacity: 0.5; stroke-width: 0.5; stroke-linecap: square"/>
     </g>
     <g id="line2d_12">
      <g>
       <use xlink:href="#mdd2abc3deb" x="378.813653" y="150.318281" style="fill: #c9d1d9; stroke: #c9d1d9; stroke-width: 0.8"/>
      </g>
     </g>
     <g id="text_6">
      <!-- 100 -->
      <g style="fill: #c9d1d9" transform="translate(371.178653 163.396406) scale(0.08 -0.08)">
       <defs>
        <path id="DejaVuSans-14" d="M 794 531 
L 1825 531 
L 1825 4091 
L 703 3866 
L 703 4441 
L 1819 4666 
L 2450 4666 
L 2450 531 
L 3481 531 
L 3481 0 
L 794 0 
L 794 531 
z
" transform="scale(0.015625)"/>
       </defs>
       <use xlink:href="#DejaVuSans-14"/>
       <use xlink:href="#DejaVuSans-13" transform="translate(63.625 0)"/>
       <use xlink:href="#DejaVuSans-13" transform="translate(127.25 0)"/>
      </g>
     </g>
    </g>
   </g>
   <g id="matplotlib.axis_2">
    <g id="ytick_1">
     <g id="line2d_13">
      <path d="M 41.760625 144.465554 
L 425.000625 144.465554 
" clip-path="url(#pfd89c18573)" style="fill: none; stroke: #21262d; stroke-opacity: 0.5; stroke-width: 0.5; stroke-linecap: square"/>
     </g>
     <g id="line2d_14">
      <defs>
       <path id="md84bf359a5" d="M 0 0 
L -3.5 0 
" style="stroke: #c9d1d9; stroke-width: 0.8"/>
      </defs>
      <g>
       <use xlink:href="#md84bf359a5" x="41.760625" y="144.465554" style="fill: #c9d1d9; stroke: #c9d1d9; stroke-width: 0.8"/>
      </g>
     </g>
     <g id="text_7">
      <!-- $0 -->
      <g style="fill: #c9d1d9" transform="translate(24.580625 147.504929) scale(0.08 -0.08)">
       <defs>
        <path id="DejaVuSans-7" d="M 2163 -941 
L 1850 -941 
L 1847 0 
Q 1519 6 1191 76 
Q 863 147 531 288 
L 531 850 
Q 850 650 1176 548 
Q 1503 447 1850 444 
L 1850 1869 
Q 1159 1981 845 2250 
Q 531 2519 531 2988 
Q 531 3497 872 3790 
Q 1213 4084 1850 4128 
L 1850 4863 
L 2163 4863 
L 2163 4138 
Q 2453 4125 2725 4076 
Q 2997 4028 3256 3944 
L 3256 3397 
Q 2997 3528 2723 3600 
Q 2450 3672 2163 3684 
L 2163 2350 
Q 2872 2241 3206 1959 
Q 3541 1678 3541 1191 
Q 3541 663 3186 358 
Q 2831 53 2163 6 
L 2163 -941 
z
M 1850 2406 
L 1850 3688 
Q 1488 3647 1297 3481 
Q 1106 3316 1106 3041 
Q 1106 2772 1282 2622 
Q 1459 2472 1850 2406 
z
M 2163 1806 
L 2163 453 
Q 2559 506 2761 678 
Q 2963 850 2963 1131 
Q 2963 1406 2770 1568 
Q 2578 1731 2163 1806 
z
" transform="scale(0.015625)"/>
       </defs>
       <use xlink:href="#DejaVuSans-7"/>
       <use xlink:href="#DejaVuSans-13" transform="translate(63.625 0)"/>
      </g>
     </g>
    </g>
    <g id="ytick_2">
     <g id="line2d_15">
      <path d="M 41.760625 118.905561 
L 425.000625 118.905561 
" clip-path="url(#pfd89c18573)" style="fill: none; stroke: #21262d; stroke-opacity: 0.5; stroke-width: 0.5; stroke-linecap: square"/>
     </g>
     <g id="line2d_16">
      <g>
       <use xlink:href="#md84bf359a5" x="41.760625" y="118.905561" style="fill: #c9d1d9; stroke: #c9d1d9; stroke-width: 0.8"/>
      </g>
     </g>
     <g id="text_8">
      <!-- $50 -->
      <g style="fill: #c9d1d9" transform="translate(19.490625 121.944936) scale(0.08 -0.08)">
       <defs>
        <path id="DejaVuSans-18" d="M 691 4666 
L 3169 4666 
L 3169 4134 
L 1269 4134 
L 1269 2991 
Q 1406 3038 1543 3061 
Q 1681 3084 1819 3084 
Q 2600 3084 3056 2656 
Q 3513 2228 3513 1497 
Q 3513 744 3044 326 
Q 2575 -91 1722 -91 
Q 1428 -91 1123 -41 
Q 819 9 494 109 
L 494 744 
Q 775 591 1075 516 
Q 1375 441 1709 441 
Q 2250 441 2565 725 
Q 2881 1009 2881 1497 
Q 2881 1984 2565 2268 
Q 2250 2553 1709 2553 
Q 1456 2553 1204 2497 
Q 953 2441 691 2322 
L 691 4666 
z
" transform="scale(0.015625)"/>
       </defs>
       <use xlink:href="#DejaVuSans-7"/>
       <use xlink:href="#DejaVuSans-18" transform="translate(63.625 0)"/>
       <use xlink:href="#DejaVuSans-13" transform="translate(127.25 0)"/>
      </g>
     </g>
    </g>
    <g id="ytick_3">
     <g id="line2d_17">
      <path d="M 41.760625 93.345567 
L 425.000625 93.345567 
" clip-path="url(#pfd89c18573)" style="fill: none; stroke: #21262d; stroke-opacity: 0.5; stroke-width: 0.5; stroke-linecap: square"/>
     </g>
     <g id="line2d_18">
      <g>
       <use xlink:href="#md84bf359a5" x="41.760625" y="93.345567" style="fill: #c9d1d9; stroke: #c9d1d9; stroke-width: 0.8"/>
      </g>
     </g>
     <g id="text_9">
      <!-- $100 -->
      <g style="fill: #c9d1d9" transform="translate(14.400625 96.384942) scale(0.08 -0.08)">
       <use xlink:href="#DejaVuSans-7"/>
       <use xlink:href="#DejaVuSans-14" transform="translate(63.625 0)"/>
       <use xlink:href="#DejaVuSans-13" transform="translate(127.25 0)"/>
       <use xlink:href="#DejaVuSans-13" transform="translate(190.875 0)"/>
      </g>
     </g>
    </g>
    <g id="ytick_4">
     <g id="line2d_19">
      <path d="M 41.760625 67.785574 
L 425.000625 67.785574 
" clip-path="url(#pfd89c18573)" style="fill: none; stroke: #21262d; stroke-opacity: 0.5; stroke-width: 0.5; stroke-linecap: square"/>
     </g>
     <g id="line2d_20">
      <g>
       <use xlink:href="#md84bf359a5" x="41.760625" y="67.785574" style="fill: #c9d1d9; stroke: #c9d1d9; stroke-width: 0.8"/>
      </g>
     </g>
     <g id="text_10">
      <!-- $150 -->
      <g style="fill: #c9d1d9" transform="translate(14.400625 70.824949) scale(0.08 -0.08)">
       <use xlink:href="#DejaVuSans-7"/>
       <use xlink:href="#DejaVuSans-14" transform="translate(63.625 0)"/>
       <use xlink:href="#DejaVuSans-18" transform="translate(127.25 0)"/>
       <use xlink:href="#DejaVuSans-13" transform="translate(190.875 0)"/>
      </g>
     </g>
    </g>
    <g id="ytick_5">
     <g id="line2d_21">
      <path d="M 41.760625 42.225581 
L 425.000625 42.225581 
" clip-path="url(#pfd89c18573)" style="fill: none; stroke: #21262d; stroke-opacity: 0.5; stroke-width: 0.5; stroke-linecap: square"/>
     </g>
     <g id="line2d_22">
      <g>
       <use xlink:href="#md84bf359a5" x="41.760625" y="42.225581" style="fill: #c9d1d9; stroke: #c9d1d9; stroke-width: 0.8"/>
      </g>
     </g>
     <g id="text_11">
      <!-- $200 -->
      <g style="fill: #c9d1d9" transform="translate(14.400625 45.264956) scale(0.08 -0.08)">
       <use xlink:href="#DejaVuSans-7"/>
       <use xlink:href="#DejaVuSans-15" transform="translate(63.625 0)"/>
       <use xlink:href="#DejaVuSans-13" transform="translate(127.25 0)"/>
       <use xlink:href="#DejaVuSans-13" transform="translate(190.875 0)"/>
      </g>
     </g>
    </g>
   </g>
   <g id="line2d_23">
    <path d="M 59.180625 42.608981 
L 62.376955 48.942747 
L 65.573286 49.106331 
L 68.769616 48.283299 
L 71.965946 56.876569 
L 75.162276 49.965147 
L 78.358607 48.227067 
L 81.554937 48.503115 
L 84.751267 47.894787 
L 87.947597 47.005299 
L 91.143928 49.970259 
L 94.340258 47.531835 
L 97.536588 47.025747 
L 100.732919 48.758715 
L 103.929249 49.321035 
L 107.125579 50.645042 
L 110.321909 45.047404 
L 113.51824 46.882611 
L 116.71457 50.762618 
L 119.9109 49.438611 
L 123.107231 47.168883 
L 126.303561 50.164515 
L 129.499891 48.308859 
L 132.696221 52.209314 
L 135.892552 48.784275 
L 139.088882 48.170835 
L 142.285212 45.19054 
L 145.481542 46.146484 
L 148.677873 50.910866 
L 151.874203 46.018684 
L 155.070533 48.416211 
L 158.266864 44.802028 
L 161.463194 51.294266 
L 164.659524 43.278652 
L 167.855854 51.135794 
L 171.052185 48.145275 
L 174.248515 49.218795 
L 177.444845 44.904268 
L 180.641175 44.413516 
L 183.837506 42.767453 
L 187.033836 41.627477 
L 190.230166 39.352637 
L 193.426497 32.517895 
L 196.622827 37.537878 
L 199.819157 41.837069 
L 203.015487 40.308581 
L 206.211818 41.295197 
L 209.408148 39.991637 
L 212.604478 40.932245 
L 215.800808 43.37578 
L 218.997139 40.221677 
L 222.193469 46.228276 
L 225.389799 44.16814 
L 228.58613 46.458316 
L 231.78246 45.993124 
L 234.97879 44.65378 
L 238.17512 46.913283 
L 241.371451 44.868484 
L 244.567781 47.117763 
L 247.764111 43.958548 
L 250.960442 46.795707 
L 254.156772 45.844876 
L 257.353102 49.868019 
L 260.549432 46.03402 
L 263.745763 50.813738 
L 266.942093 43.161076 
L 270.138423 37.727022 
L 273.334753 40.323917 
L 276.531084 42.491405 
L 279.727414 43.109956 
L 282.923744 30.784928 
L 286.120075 28.274936 
L 289.316405 37.282278 
L 292.512735 39.628685 
L 295.709065 43.641604 
L 298.905396 39.306629 
L 302.101726 40.088765 
L 305.298056 41.980205 
L 308.494386 47.925459 
L 311.690717 41.417885 
L 314.887047 47.189331 
L 318.083377 55.112929 
L 321.279708 51.396506 
L 324.476038 53.24705 
L 327.672368 51.63677 
L 330.868698 50.292315 
L 334.065029 54.719305 
L 337.261359 50.154291 
L 340.457689 51.933266 
L 343.654019 50.900642 
L 346.85035 51.646994 
L 350.04668 52.117298 
L 353.24301 42.568085 
L 356.439341 37.241382 
L 359.635671 31.449487 
L 362.832001 27.411009 
L 366.028331 54.617065 
L 369.224662 42.654989 
L 372.420992 52.638722 
L 375.617322 48.487779 
L 378.813653 55.256065 
L 382.009983 52.807418 
L 385.206313 52.88921 
L 388.402643 44.413516 
L 391.598974 49.075659 
L 394.795304 45.609724 
L 397.991634 51.043778 
L 401.187964 51.754346 
L 404.384295 39.807605 
L 407.580625 51.130682 
" clip-path="url(#pfd89c18573)" style="fill: none; stroke: #f85149; stroke-width: 2; stroke-linecap: square"/>
   </g>
   <g id="patch_3">
    <path d="M 41.760625 150.318281 
L 41.760625 21.558281 
" style="fill: none; stroke: #21262d; stroke-width: 0.8; stroke-linejoin: miter; stroke-linecap: square"/>
   </g>
   <g id="patch_4">
    <path d="M 41.760625 150.318281 
L 425.000625 150.318281 
" style="fill: none; stroke: #21262d; stroke-width: 0.8; stroke-linejoin: miter; stroke-linecap: square"/>
   </g>
   <g id="text_12">
    <!-- BROWSERHARNESS (browser-use/browser-harness) — $182.58 (-10.82%) -->
    <g style="fill: #c9d1d9" transform="translate(7.2 15.558281) scale(0.11 -0.11)">
     <defs>
      <path id="DejaVuSans-Bold-25" d="M 2456 2859 
Q 2741 2859 2887 2984 
Q 3034 3109 3034 3353 
Q 3034 3594 2887 3720 
Q 2741 3847 2456 3847 
L 1791 3847 
L 1791 2859 
L 2456 2859 
z
M 2497 819 
Q 2859 819 3042 972 
Q 3225 1125 3225 1434 
Q 3225 1738 3044 1889 
Q 2863 2041 2497 2041 
L 1791 2041 
L 1791 819 
L 2497 819 
z
M 3616 2497 
Q 4003 2384 4215 2081 
Q 4428 1778 4428 1338 
Q 4428 663 3972 331 
Q 3516 0 2584 0 
L 588 0 
L 588 4666 
L 2394 4666 
Q 3366 4666 3802 4372 
Q 4238 4078 4238 3431 
Q 4238 3091 4078 2852 
Q 3919 2613 3616 2497 
z
" transform="scale(0.015625)"/>
      <path id="DejaVuSans-Bold-35" d="M 2297 2597 
Q 2675 2597 2839 2737 
Q 3003 2878 3003 3200 
Q 3003 3519 2839 3656 
Q 2675 3794 2297 3794 
L 1791 3794 
L 1791 2597 
L 2297 2597 
z
M 1791 1766 
L 1791 0 
L 588 0 
L 588 4666 
L 2425 4666 
Q 3347 4666 3776 4356 
Q 4206 4047 4206 3378 
Q 4206 2916 3982 2619 
Q 3759 2322 3309 2181 
Q 3556 2125 3751 1926 
Q 3947 1728 4147 1325 
L 4800 0 
L 3519 0 
L 2950 1159 
Q 2778 1509 2601 1637 
Q 2425 1766 2131 1766 
L 1791 1766 
z
" transform="scale(0.015625)"/>
      <path id="DejaVuSans-Bold-32" d="M 2719 3878 
Q 2169 3878 1866 3472 
Q 1563 3066 1563 2328 
Q 1563 1594 1866 1187 
Q 2169 781 2719 781 
Q 3272 781 3575 1187 
Q 3878 1594 3878 2328 
Q 3878 3066 3575 3472 
Q 3272 3878 2719 3878 
z
M 2719 4750 
Q 3844 4750 4481 4106 
Q 5119 3463 5119 2328 
Q 5119 1197 4481 553 
Q 3844 -91 2719 -91 
Q 1597 -91 958 553 
Q 319 1197 319 2328 
Q 319 3463 958 4106 
Q 1597 4750 2719 4750 
z
" transform="scale(0.015625)"/>
      <path id="DejaVuSans-Bold-3a" d="M 191 4666 
L 1344 4666 
L 2150 1275 
L 2950 4666 
L 4109 4666 
L 4909 1275 
L 5716 4666 
L 6859 4666 
L 5759 0 
L 4372 0 
L 3525 3547 
L 2688 0 
L 1300 0 
L 191 4666 
z
" transform="scale(0.015625)"/>
      <path id="DejaVuSans-Bold-36" d="M 3834 4519 
L 3834 3531 
Q 3450 3703 3084 3790 
Q 2719 3878 2394 3878 
Q 1963 3878 1756 3759 
Q 1550 3641 1550 3391 
Q 1550 3203 1689 3098 
Q 1828 2994 2194 2919 
L 2706 2816 
Q 3484 2659 3812 2340 
Q 4141 2022 4141 1434 
Q 4141 663 3683 286 
Q 3225 -91 2284 -91 
Q 1841 -91 1394 -6 
Q 947 78 500 244 
L 500 1259 
Q 947 1022 1364 901 
Q 1781 781 2169 781 
Q 2563 781 2772 912 
Q 2981 1044 2981 1288 
Q 2981 1506 2839 1625 
Q 2697 1744 2272 1838 
L 1806 1941 
Q 1106 2091 782 2419 
Q 459 2747 459 3303 
Q 459 4000 909 4375 
Q 1359 4750 2203 4750 
Q 2588 4750 2994 4692 
Q 3400 4634 3834 4519 
z
" transform="scale(0.015625)"/>
      <path id="DejaVuSans-Bold-28" d="M 588 4666 
L 3834 4666 
L 3834 3756 
L 1791 3756 
L 1791 2888 
L 3713 2888 
L 3713 1978 
L 1791 1978 
L 1791 909 
L 3903 909 
L 3903 0 
L 588 0 
L 588 4666 
z
" transform="scale(0.015625)"/>
      <path id="DejaVuSans-Bold-2b" d="M 588 4666 
L 1791 4666 
L 1791 2888 
L 3566 2888 
L 3566 4666 
L 4769 4666 
L 4769 0 
L 3566 0 
L 3566 1978 
L 1791 1978 
L 1791 0 
L 588 0 
L 588 4666 
z
" transform="scale(0.015625)"/>
      <path id="DejaVuSans-Bold-24" d="M 3419 850 
L 1538 850 
L 1241 0 
L 31 0 
L 1759 4666 
L 3194 4666 
L 4922 0 
L 3713 0 
L 3419 850 
z
M 1838 1716 
L 3116 1716 
L 2478 3572 
L 1838 1716 
z
" transform="scale(0.015625)"/>
      <path id="DejaVuSans-Bold-31" d="M 588 4666 
L 1931 4666 
L 3628 1466 
L 3628 4666 
L 4769 4666 
L 4769 0 
L 3425 0 
L 1728 3200 
L 1728 0 
L 588 0 
L 588 4666 
z
" transform="scale(0.015625)"/>
      <path id="DejaVuSans-Bold-3" transform="scale(0.015625)"/>
      <path id="DejaVuSans-Bold-b" d="M 2413 -844 
L 1484 -844 
Q 1006 -72 778 623 
Q 550 1319 550 2003 
Q 550 2688 779 3389 
Q 1009 4091 1484 4856 
L 2413 4856 
Q 2013 4116 1813 3408 
Q 1613 2700 1613 2009 
Q 1613 1319 1811 609 
Q 2009 -100 2413 -844 
z
" transform="scale(0.015625)"/>
      <path id="DejaVuSans-Bold-45" d="M 2400 722 
Q 2759 722 2948 984 
Q 3138 1247 3138 1747 
Q 3138 2247 2948 2509 
Q 2759 2772 2400 2772 
Q 2041 2772 1848 2508 
Q 1656 2244 1656 1747 
Q 1656 1250 1848 986 
Q 2041 722 2400 722 
z
M 1656 2988 
Q 1888 3294 2169 3439 
Q 2450 3584 2816 3584 
Q 3463 3584 3878 3070 
Q 4294 2556 4294 1747 
Q 4294 938 3878 423 
Q 3463 -91 2816 -91 
Q 2450 -91 2169 54 
Q 1888 200 1656 506 
L 1656 0 
L 538 0 
L 538 4863 
L 1656 4863 
L 1656 2988 
z
" transform="scale(0.015625)"/>
      <path id="DejaVuSans-Bold-55" d="M 3138 2547 
Q 2991 2616 2845 2648 
Q 2700 2681 2553 2681 
Q 2122 2681 1889 2404 
Q 1656 2128 1656 1613 
L 1656 0 
L 538 0 
L 538 3500 
L 1656 3500 
L 1656 2925 
Q 1872 3269 2151 3426 
Q 2431 3584 2822 3584 
Q 2878 3584 2943 3579 
Q 3009 3575 3134 3559 
L 3138 2547 
z
" transform="scale(0.015625)"/>
      <path id="DejaVuSans-Bold-52" d="M 2203 2784 
Q 1831 2784 1636 2517 
Q 1441 2250 1441 1747 
Q 1441 1244 1636 976 
Q 1831 709 2203 709 
Q 2569 709 2762 976 
Q 2956 1244 2956 1747 
Q 2956 2250 2762 2517 
Q 2569 2784 2203 2784 
z
M 2203 3584 
Q 3106 3584 3614 3096 
Q 4122 2609 4122 1747 
Q 4122 884 3614 396 
Q 3106 -91 2203 -91 
Q 1297 -91 786 396 
Q 275 884 275 1747 
Q 275 2609 786 3096 
Q 1297 3584 2203 3584 
z
" transform="scale(0.015625)"/>
      <path id="DejaVuSans-Bold-5a" d="M 225 3500 
L 1313 3500 
L 1900 1088 
L 2491 3500 
L 3425 3500 
L 4013 1113 
L 4603 3500 
L 5691 3500 
L 4769 0 
L 3547 0 
L 2956 2406 
L 2369 0 
L 1147 0 
L 225 3500 
z
" transform="scale(0.015625)"/>
      <path id="DejaVuSans-Bold-56" d="M 3272 3391 
L 3272 2541 
Q 2913 2691 2578 2766 
Q 2244 2841 1947 2841 
Q 1628 2841 1473 2761 
Q 1319 2681 1319 2516 
Q 1319 2381 1436 2309 
Q 1553 2238 1856 2203 
L 2053 2175 
Q 2913 2066 3209 1816 
Q 3506 1566 3506 1031 
Q 3506 472 3093 190 
Q 2681 -91 1863 -91 
Q 1516 -91 1145 -36 
Q 775 19 384 128 
L 384 978 
Q 719 816 1070 734 
Q 1422 653 1784 653 
Q 2113 653 2278 743 
Q 2444 834 2444 1013 
Q 2444 1163 2330 1236 
Q 2216 1309 1875 1350 
L 1678 1375 
Q 931 1469 631 1722 
Q 331 1975 331 2491 
Q 331 3047 712 3315 
Q 1094 3584 1881 3584 
Q 2191 3584 2531 3537 
Q 2872 3491 3272 3391 
z
" transform="scale(0.015625)"/>
      <path id="DejaVuSans-Bold-48" d="M 4031 1759 
L 4031 1441 
L 1416 1441 
Q 1456 1047 1700 850 
Q 1944 653 2381 653 
Q 2734 653 3104 758 
Q 3475 863 3866 1075 
L 3866 213 
Q 3469 63 3072 -14 
Q 2675 -91 2278 -91 
Q 1328 -91 801 392 
Q 275 875 275 1747 
Q 275 2603 792 3093 
Q 1309 3584 2216 3584 
Q 3041 3584 3536 3087 
Q 4031 2591 4031 1759 
z
M 2881 2131 
Q 2881 2450 2695 2645 
Q 2509 2841 2209 2841 
Q 1884 2841 1681 2658 
Q 1478 2475 1428 2131 
L 2881 2131 
z
" transform="scale(0.015625)"/>
      <path id="DejaVuSans-Bold-10" d="M 347 2297 
L 2309 2297 
L 2309 1388 
L 347 1388 
L 347 2297 
z
" transform="scale(0.015625)"/>
      <path id="DejaVuSans-Bold-58" d="M 500 1363 
L 500 3500 
L 1625 3500 
L 1625 3150 
Q 1625 2866 1622 2436 
Q 1619 2006 1619 1863 
Q 1619 1441 1641 1255 
Q 1663 1069 1716 984 
Q 1784 875 1895 815 
Q 2006 756 2150 756 
Q 2500 756 2700 1025 
Q 2900 1294 2900 1772 
L 2900 3500 
L 4019 3500 
L 4019 0 
L 2900 0 
L 2900 506 
Q 2647 200 2364 54 
Q 2081 -91 1741 -91 
Q 1134 -91 817 281 
Q 500 653 500 1363 
z
" transform="scale(0.015625)"/>
      <path id="DejaVuSans-Bold-12" d="M 1644 4666 
L 2338 4666 
L 691 -594 
L 0 -594 
L 1644 4666 
z
" transform="scale(0.015625)"/>
      <path id="DejaVuSans-Bold-4b" d="M 4056 2131 
L 4056 0 
L 2931 0 
L 2931 347 
L 2931 1625 
Q 2931 2084 2911 2256 
Q 2891 2428 2841 2509 
Q 2775 2619 2662 2680 
Q 2550 2741 2406 2741 
Q 2056 2741 1856 2470 
Q 1656 2200 1656 1722 
L 1656 0 
L 538 0 
L 538 4863 
L 1656 4863 
L 1656 2988 
Q 1909 3294 2193 3439 
Q 2478 3584 2822 3584 
Q 3428 3584 3742 3212 
Q 4056 2841 4056 2131 
z
" transform="scale(0.015625)"/>
      <path id="DejaVuSans-Bold-44" d="M 2106 1575 
Q 1756 1575 1579 1456 
Q 1403 1338 1403 1106 
Q 1403 894 1545 773 
Q 1688 653 1941 653 
Q 2256 653 2472 879 
Q 2688 1106 2688 1447 
L 2688 1575 
L 2106 1575 
z
M 3816 1997 
L 3816 0 
L 2688 0 
L 2688 519 
Q 2463 200 2181 54 
Q 1900 -91 1497 -91 
Q 953 -91 614 226 
Q 275 544 275 1050 
Q 275 1666 698 1953 
Q 1122 2241 2028 2241 
L 2688 2241 
L 2688 2328 
Q 2688 2594 2478 2717 
Q 2269 2841 1825 2841 
Q 1466 2841 1156 2769 
Q 847 2697 581 2553 
L 581 3406 
Q 941 3494 1303 3539 
Q 1666 3584 2028 3584 
Q 2975 3584 3395 3211 
Q 3816 2838 3816 1997 
z
" transform="scale(0.015625)"/>
      <path id="DejaVuSans-Bold-51" d="M 4056 2131 
L 4056 0 
L 2931 0 
L 2931 347 
L 2931 1631 
Q 2931 2084 2911 2256 
Q 2891 2428 2841 2509 
Q 2775 2619 2662 2680 
Q 2550 2741 2406 2741 
Q 2056 2741 1856 2470 
Q 1656 2200 1656 1722 
L 1656 0 
L 538 0 
L 538 3500 
L 1656 3500 
L 1656 2988 
Q 1909 3294 2193 3439 
Q 2478 3584 2822 3584 
Q 3428 3584 3742 3212 
Q 4056 2841 4056 2131 
z
" transform="scale(0.015625)"/>
      <path id="DejaVuSans-Bold-c" d="M 513 -844 
Q 913 -100 1113 609 
Q 1313 1319 1313 2009 
Q 1313 2700 1113 3408 
Q 913 4116 513 4856 
L 1441 4856 
Q 1916 4091 2145 3389 
Q 2375 2688 2375 2003 
Q 2375 1319 2147 623 
Q 1919 -72 1441 -844 
L 513 -844 
z
" transform="scale(0.015625)"/>
      <path id="DejaVuSans-Bold-af6" d="M 344 2156 
L 6056 2156 
L 6056 1350 
L 344 1350 
L 344 2156 
z
" transform="scale(0.015625)"/>
      <path id="DejaVuSans-Bold-7" d="M 2484 -941 
L 1978 -941 
L 1975 0 
Q 1584 16 1218 87 
Q 853 159 506 288 
L 506 1106 
Q 866 922 1233 823 
Q 1600 725 1978 713 
L 1978 1684 
L 1875 1703 
Q 1128 1834 814 2115 
Q 500 2397 500 2925 
Q 500 3484 883 3798 
Q 1266 4113 1975 4141 
L 1978 4863 
L 2484 4863 
L 2484 4153 
Q 2797 4128 3109 4075 
Q 3422 4022 3738 3938 
L 3738 3144 
Q 3425 3275 3112 3348 
Q 2800 3422 2484 3438 
L 2484 2541 
L 2584 2522 
Q 3378 2397 3698 2105 
Q 4019 1813 4019 1241 
Q 4019 666 3637 358 
Q 3256 50 2484 6 
L 2484 -941 
z
M 1978 2613 
L 1978 3428 
Q 1756 3416 1623 3308 
Q 1491 3200 1491 3034 
Q 1491 2850 1612 2745 
Q 1734 2641 1978 2613 
z
M 2484 1594 
L 2484 725 
Q 2756 728 2892 831 
Q 3028 934 3028 1141 
Q 3028 1353 2903 1458 
Q 2778 1563 2484 1594 
z
" transform="scale(0.015625)"/>
      <path id="DejaVuSans-Bold-14" d="M 750 831 
L 1813 831 
L 1813 3847 
L 722 3622 
L 722 4441 
L 1806 4666 
L 2950 4666 
L 2950 831 
L 4013 831 
L 4013 0 
L 750 0 
L 750 831 
z
" transform="scale(0.015625)"/>
      <path id="DejaVuSans-Bold-1b" d="M 2228 2088 
Q 1891 2088 1709 1903 
Q 1528 1719 1528 1375 
Q 1528 1031 1709 848 
Q 1891 666 2228 666 
Q 2563 666 2741 848 
Q 2919 1031 2919 1375 
Q 2919 1722 2741 1905 
Q 2563 2088 2228 2088 
z
M 1350 2484 
Q 925 2613 709 2878 
Q 494 3144 494 3541 
Q 494 4131 934 4440 
Q 1375 4750 2228 4750 
Q 3075 4750 3515 4442 
Q 3956 4134 3956 3541 
Q 3956 3144 3739 2878 
Q 3522 2613 3097 2484 
Q 3572 2353 3814 2058 
Q 4056 1763 4056 1313 
Q 4056 619 3595 264 
Q 3134 -91 2228 -91 
Q 1319 -91 855 264 
Q 391 619 391 1313 
Q 391 1763 633 2058 
Q 875 2353 1350 2484 
z
M 1631 3419 
Q 1631 3141 1786 2991 
Q 1941 2841 2228 2841 
Q 2509 2841 2662 2991 
Q 2816 3141 2816 3419 
Q 2816 3697 2662 3845 
Q 2509 3994 2228 3994 
Q 1941 3994 1786 3844 
Q 1631 3694 1631 3419 
z
" transform="scale(0.015625)"/>
      <path id="DejaVuSans-Bold-15" d="M 1844 884 
L 3897 884 
L 3897 0 
L 506 0 
L 506 884 
L 2209 2388 
Q 2438 2594 2547 2791 
Q 2656 2988 2656 3200 
Q 2656 3528 2436 3728 
Q 2216 3928 1850 3928 
Q 1569 3928 1234 3808 
Q 900 3688 519 3450 
L 519 4475 
Q 925 4609 1322 4679 
Q 1719 4750 2100 4750 
Q 2938 4750 3402 4381 
Q 3866 4013 3866 3353 
Q 3866 2972 3669 2642 
Q 3472 2313 2841 1759 
L 1844 884 
z
" transform="scale(0.015625)"/>
      <path id="DejaVuSans-Bold-11" d="M 653 1209 
L 1778 1209 
L 1778 0 
L 653 0 
L 653 1209 
z
" transform="scale(0.015625)"/>
      <path id="DejaVuSans-Bold-18" d="M 678 4666 
L 3669 4666 
L 3669 3781 
L 1638 3781 
L 1638 3059 
Q 1775 3097 1914 3117 
Q 2053 3138 2203 3138 
Q 3056 3138 3531 2711 
Q 4006 2284 4006 1522 
Q 4006 766 3489 337 
Q 2972 -91 2053 -91 
Q 1656 -91 1267 -14 
Q 878 63 494 219 
L 494 1166 
Q 875 947 1217 837 
Q 1559 728 1863 728 
Q 2300 728 2551 942 
Q 2803 1156 2803 1522 
Q 2803 1891 2551 2103 
Q 2300 2316 1863 2316 
Q 1603 2316 1309 2248 
Q 1016 2181 678 2041 
L 678 4666 
z
" transform="scale(0.015625)"/>
      <path id="DejaVuSans-Bold-13" d="M 2944 2338 
Q 2944 3213 2780 3570 
Q 2616 3928 2228 3928 
Q 1841 3928 1675 3570 
Q 1509 3213 1509 2338 
Q 1509 1453 1675 1090 
Q 1841 728 2228 728 
Q 2613 728 2778 1090 
Q 2944 1453 2944 2338 
z
M 4147 2328 
Q 4147 1169 3647 539 
Q 3147 -91 2228 -91 
Q 1306 -91 806 539 
Q 306 1169 306 2328 
Q 306 3491 806 4120 
Q 1306 4750 2228 4750 
Q 3147 4750 3647 4120 
Q 4147 3491 4147 2328 
z
" transform="scale(0.015625)"/>
      <path id="DejaVuSans-Bold-8" d="M 4959 1925 
Q 4738 1925 4616 1733 
Q 4494 1541 4494 1184 
Q 4494 825 4614 633 
Q 4734 441 4959 441 
Q 5184 441 5303 633 
Q 5422 825 5422 1184 
Q 5422 1541 5301 1733 
Q 5181 1925 4959 1925 
z
M 4959 2450 
Q 5541 2450 5875 2112 
Q 6209 1775 6209 1184 
Q 6209 594 5875 251 
Q 5541 -91 4959 -91 
Q 4378 -91 4042 251 
Q 3706 594 3706 1184 
Q 3706 1772 4042 2111 
Q 4378 2450 4959 2450 
z
M 2094 -91 
L 1403 -91 
L 4319 4750 
L 5013 4750 
L 2094 -91 
z
M 1453 4750 
Q 2034 4750 2367 4411 
Q 2700 4072 2700 3481 
Q 2700 2891 2367 2550 
Q 2034 2209 1453 2209 
Q 872 2209 539 2550 
Q 206 2891 206 3481 
Q 206 4072 539 4411 
Q 872 4750 1453 4750 
z
M 1453 4225 
Q 1228 4225 1106 4031 
Q 984 3838 984 3481 
Q 984 3122 1106 2926 
Q 1228 2731 1453 2731 
Q 1678 2731 1798 2926 
Q 1919 3122 1919 3481 
Q 1919 3838 1797 4031 
Q 1675 4225 1453 4225 
z
" transform="scale(0.015625)"/>
     </defs>
     <use xlink:href="#DejaVuSans-Bold-25"/>
     <use xlink:href="#DejaVuSans-Bold-35" transform="translate(76.21875 0)"/>
     <use xlink:href="#DejaVuSans-Bold-32" transform="translate(153.21875 0)"/>
     <use xlink:href="#DejaVuSans-Bold-3a" transform="translate(238.234375 0)"/>
     <use xlink:href="#DejaVuSans-Bold-36" transform="translate(348.53125 0)"/>
     <use xlink:href="#DejaVuSans-Bold-28" transform="translate(420.546875 0)"/>
     <use xlink:href="#DejaVuSans-Bold-35" transform="translate(488.859375 0)"/>
     <use xlink:href="#DejaVuSans-Bold-2b" transform="translate(565.859375 0)"/>
     <use xlink:href="#DejaVuSans-Bold-24" transform="translate(649.546875 0)"/>
     <use xlink:href="#DejaVuSans-Bold-35" transform="translate(726.9375 0)"/>
     <use xlink:href="#DejaVuSans-Bold-31" transform="translate(803.9375 0)"/>
     <use xlink:href="#DejaVuSans-Bold-28" transform="translate(887.625 0)"/>
     <use xlink:href="#DejaVuSans-Bold-36" transform="translate(955.9375 0)"/>
     <use xlink:href="#DejaVuSans-Bold-36" transform="translate(1023.46875 0)"/>
     <use xlink:href="#DejaVuSans-Bold-3" transform="translate(1095.484375 0)"/>
     <use xlink:href="#DejaVuSans-Bold-b" transform="translate(1130.296875 0)"/>
     <use xlink:href="#DejaVuSans-Bold-45" transform="translate(1176 0)"/>
     <use xlink:href="#DejaVuSans-Bold-55" transform="translate(1247.578125 0)"/>
     <use xlink:href="#DejaVuSans-Bold-52" transform="translate(1296.890625 0)"/>
     <use xlink:href="#DejaVuSans-Bold-5a" transform="translate(1365.59375 0)"/>
     <use xlink:href="#DejaVuSans-Bold-56" transform="translate(1457.984375 0)"/>
     <use xlink:href="#DejaVuSans-Bold-48" transform="translate(1517.5 0)"/>
     <use xlink:href="#DejaVuSans-Bold-55" transform="translate(1585.328125 0)"/>
     <use xlink:href="#DejaVuSans-Bold-10" transform="translate(1634.640625 0)"/>
     <use xlink:href="#DejaVuSans-Bold-58" transform="translate(1676.140625 0)"/>
     <use xlink:href="#DejaVuSans-Bold-56" transform="translate(1747.328125 0)"/>
     <use xlink:href="#DejaVuSans-Bold-48" transform="translate(1806.84375 0)"/>
     <use xlink:href="#DejaVuSans-Bold-12" transform="translate(1874.671875 0)"/>
     <use xlink:href="#DejaVuSans-Bold-45" transform="translate(1911.203125 0)"/>
     <use xlink:href="#DejaVuSans-Bold-55" transform="translate(1982.78125 0)"/>
     <use xlink:href="#DejaVuSans-Bold-52" transform="translate(2032.09375 0)"/>
     <use xlink:href="#DejaVuSans-Bold-5a" transform="translate(2100.796875 0)"/>
     <use xlink:href="#DejaVuSans-Bold-56" transform="translate(2193.1875 0)"/>
     <use xlink:href="#DejaVuSans-Bold-48" transform="translate(2252.703125 0)"/>
     <use xlink:href="#DejaVuSans-Bold-55" transform="translate(2320.53125 0)"/>
     <use xlink:href="#DejaVuSans-Bold-10" transform="translate(2369.84375 0)"/>
     <use xlink:href="#DejaVuSans-Bold-4b" transform="translate(2411.34375 0)"/>
     <use xlink:href="#DejaVuSans-Bold-44" transform="translate(2482.53125 0)"/>
     <use xlink:href="#DejaVuSans-Bold-55" transform="translate(2550.015625 0)"/>
     <use xlink:href="#DejaVuSans-Bold-51" transform="translate(2599.328125 0)"/>
     <use xlink:href="#DejaVuSans-Bold-48" transform="translate(2670.515625 0)"/>
     <use xlink:href="#DejaVuSans-Bold-56" transform="translate(2738.34375 0)"/>
     <use xlink:href="#DejaVuSans-Bold-56" transform="translate(2797.859375 0)"/>
     <use xlink:href="#DejaVuSans-Bold-c" transform="translate(2857.375 0)"/>
     <use xlink:href="#DejaVuSans-Bold-3" transform="translate(2903.078125 0)"/>
     <use xlink:href="#DejaVuSans-Bold-af6" transform="translate(2937.890625 0)"/>
     <use xlink:href="#DejaVuSans-Bold-3" transform="translate(3037.890625 0)"/>
     <use xlink:href="#DejaVuSans-Bold-7" transform="translate(3072.703125 0)"/>
     <use xlink:href="#DejaVuSans-Bold-14" transform="translate(3142.28125 0)"/>
     <use xlink:href="#DejaVuSans-Bold-1b" transform="translate(3211.859375 0)"/>
     <use xlink:href="#DejaVuSans-Bold-15" transform="translate(3281.4375 0)"/>
     <use xlink:href="#DejaVuSans-Bold-11" transform="translate(3351.015625 0)"/>
     <use xlink:href="#DejaVuSans-Bold-18" transform="translate(3389 0)"/>
     <use xlink:href="#DejaVuSans-Bold-1b" transform="translate(3458.578125 0)"/>
     <use xlink:href="#DejaVuSans-Bold-3" transform="translate(3528.15625 0)"/>
     <use xlink:href="#DejaVuSans-Bold-b" transform="translate(3562.96875 0)"/>
     <use xlink:href="#DejaVuSans-Bold-10" transform="translate(3608.671875 0)"/>
     <use xlink:href="#DejaVuSans-Bold-14" transform="translate(3650.171875 0)"/>
     <use xlink:href="#DejaVuSans-Bold-13" transform="translate(3719.75 0)"/>
     <use xlink:href="#DejaVuSans-Bold-11" transform="translate(3789.328125 0)"/>
     <use xlink:href="#DejaVuSans-Bold-1b" transform="translate(3827.3125 0)"/>
     <use xlink:href="#DejaVuSans-Bold-15" transform="translate(3896.890625 0)"/>
     <use xlink:href="#DejaVuSans-Bold-8" transform="translate(3966.46875 0)"/>
     <use xlink:href="#DejaVuSans-Bold-c" transform="translate(4066.671875 0)"/>
    </g>
   </g>
  </g>
 </g>
 <defs>
  <clipPath id="pfd89c18573">
   <rect x="41.760625" y="21.558281" width="383.24" height="128.76"/>
  </clipPath>
 </defs>
</svg>
