<?xml version="1.0" encoding="utf-8" standalone="no"?>
<!DOCTYPE svg PUBLIC "-//W3C//DTD SVG 1.1//EN"
  "http://www.w3.org/Graphics/SVG/1.1/DTD/svg11.dtd">
<svg xmlns:xlink="http://www.w3.org/1999/xlink" width="424.746088pt" height="172.518281pt" viewBox="0 0 424.746088 172.518281" xmlns="http://www.w3.org/2000/svg" version="1.1">
 <metadata>
  <rdf:RDF xmlns:dc="http://purl.org/dc/elements/1.1/" xmlns:cc="http://creativecommons.org/ns#" xmlns:rdf="http://www.w3.org/1999/02/22-rdf-syntax-ns#">
   <cc:Work>
    <dc:type rdf:resource="http://purl.org/dc/dcmitype/StillImage"/>
    <dc:date>2026-06-29T00:32:51.161465</dc:date>
    <dc:format>image/svg+xml</dc:format>
    <dc:creator>
     <cc:Agent>
      <dc:title>Matplotlib v3.11.0, https://matplotlib.org/</dc:title>
     </cc:Agent>
    </dc:creator>
   </cc:Work>
  </rdf:RDF>
 </metadata>
 <defs>
  <style type="text/css">*{stroke-linejoin: round; stroke-linecap: butt}</style>
 </defs>
 <g id="figure_1">
  <g id="patch_1">
   <path d="M 0 172.518281 
L 424.746088 172.518281 
L 424.746088 0 
L 0 0 
z
" style="fill: #0d1117"/>
  </g>
  <g id="axes_1">
   <g id="patch_2">
    <path d="M 34.56 150.318281 
L 412.776364 150.318281 
L 412.776364 21.558281 
L 34.56 21.558281 
z
" style="fill: #0d1117"/>
   </g>
   <g id="FillBetweenPolyCollection_1">
    <defs>
     <path id="m4076bacf9f" d="M 51.751653 -28.052727 
L 51.751653 -118.391472 
L 55.333247 -103.231092 
L 58.914842 -110.097399 
L 62.496436 -108.334909 
L 66.07803 -107.650648 
L 69.659625 -107.740994 
L 73.241219 -107.14856 
L 76.822813 -110.288459 
L 80.404408 -107.03896 
L 83.986002 -109.288727 
L 87.567596 -119.906621 
L 91.149191 -116.252786 
L 94.730785 -99.435072 
L 98.312379 -107.985373 
L 101.893974 -105.963692 
L 105.475568 -105.366815 
L 109.057163 -109.143581 
L 112.638757 -113.166206 
L 116.220351 -113.053644 
L 119.801946 -113.340974 
L 123.38354 -113.278768 
L 126.965134 -110.159605 
L 130.546729 -114.029678 
L 134.128323 -111.292634 
L 137.709917 -113.247666 
L 141.291512 -110.686871 
L 144.873106 -113.797148 
L 148.4547 -112.301253 
L 152.036295 -107.416636 
L 155.617889 -112.321988 
L 159.199483 -110.230697 
L 162.781078 -111.039369 
L 166.362672 -107.829859 
L 169.944267 -87.205758 
L 173.525861 -87.158363 
L 177.107455 -86.592589 
L 180.68905 -97.311197 
L 184.270644 -98.624919 
L 187.852238 -104.995063 
L 191.433833 -121.315133 
L 195.015427 -124.496502 
L 198.597021 -129.483313 
L 202.178616 -100.787302 
L 205.76021 -108.591136 
L 209.341804 -104.00718 
L 212.923399 -111.242277 
L 216.504993 -108.383784 
L 220.086587 -109.927074 
L 223.668182 -111.223023 
L 227.249776 -109.182089 
L 230.831371 -109.870793 
L 234.412965 -94.891105 
L 237.994559 -113.195828 
L 241.576154 -109.996685 
L 245.157748 -109.663441 
L 248.739342 -109.580501 
L 252.320937 -111.513316 
L 255.902531 -109.624933 
L 259.484125 -108.894759 
L 263.06572 -85.998674 
L 266.647314 -91.82526 
L 270.228908 -85.495106 
L 273.810503 -113.127698 
L 277.392097 -111.577002 
L 280.973691 -109.943366 
L 284.555286 -122.037902 
L 288.13688 -119.807389 
L 291.718475 -125.222233 
L 295.300069 -121.589133 
L 298.881663 -122.907298 
L 302.463258 -144.488179 
L 306.044852 -103.316995 
L 309.626446 -108.925861 
L 313.208041 -110.266243 
L 316.789635 -111.239315 
L 320.371229 -106.719045 
L 323.952824 -101.718904 
L 327.534418 -110.885336 
L 331.116012 -109.259105 
L 334.697607 -111.784354 
L 338.279201 -95.363571 
L 341.860795 -116.778571 
L 345.44239 -106.72497 
L 349.023984 -112.396042 
L 352.605579 -112.012441 
L 356.187173 -109.687139 
L 359.768767 -109.531625 
L 363.350362 -103.907947 
L 366.931956 -110.914958 
L 370.51355 -108.166065 
L 374.095145 -109.376111 
L 377.676739 -106.293974 
L 381.258333 -109.687139 
L 384.839928 -126.661847 
L 388.421522 -145.107273 
L 392.003116 -103.410303 
L 395.584711 -102.872669 
L 395.584711 -28.052727 
L 395.584711 -28.052727 
L 392.003116 -28.052727 
L 388.421522 -28.052727 
L 384.839928 -28.052727 
L 381.258333 -28.052727 
L 377.676739 -28.052727 
L 374.095145 -28.052727 
L 370.51355 -28.052727 
L 366.931956 -28.052727 
L 363.350362 -28.052727 
L 359.768767 -28.052727 
L 356.187173 -28.052727 
L 352.605579 -28.052727 
L 349.023984 -28.052727 
L 345.44239 -28.052727 
L 341.860795 -28.052727 
L 338.279201 -28.052727 
L 334.697607 -28.052727 
L 331.116012 -28.052727 
L 327.534418 -28.052727 
L 323.952824 -28.052727 
L 320.371229 -28.052727 
L 316.789635 -28.052727 
L 313.208041 -28.052727 
L 309.626446 -28.052727 
L 306.044852 -28.052727 
L 302.463258 -28.052727 
L 298.881663 -28.052727 
L 295.300069 -28.052727 
L 291.718475 -28.052727 
L 288.13688 -28.052727 
L 284.555286 -28.052727 
L 280.973691 -28.052727 
L 277.392097 -28.052727 
L 273.810503 -28.052727 
L 270.228908 -28.052727 
L 266.647314 -28.052727 
L 263.06572 -28.052727 
L 259.484125 -28.052727 
L 255.902531 -28.052727 
L 252.320937 -28.052727 
L 248.739342 -28.052727 
L 245.157748 -28.052727 
L 241.576154 -28.052727 
L 237.994559 -28.052727 
L 234.412965 -28.052727 
L 230.831371 -28.052727 
L 227.249776 -28.052727 
L 223.668182 -28.052727 
L 220.086587 -28.052727 
L 216.504993 -28.052727 
L 212.923399 -28.052727 
L 209.341804 -28.052727 
L 205.76021 -28.052727 
L 202.178616 -28.052727 
L 198.597021 -28.052727 
L 195.015427 -28.052727 
L 191.433833 -28.052727 
L 187.852238 -28.052727 
L 184.270644 -28.052727 
L 180.68905 -28.052727 
L 177.107455 -28.052727 
L 173.525861 -28.052727 
L 169.944267 -28.052727 
L 166.362672 -28.052727 
L 162.781078 -28.052727 
L 159.199483 -28.052727 
L 155.617889 -28.052727 
L 152.036295 -28.052727 
L 148.4547 -28.052727 
L 144.873106 -28.052727 
L 141.291512 -28.052727 
L 137.709917 -28.052727 
L 134.128323 -28.052727 
L 130.546729 -28.052727 
L 126.965134 -28.052727 
L 123.38354 -28.052727 
L 119.801946 -28.052727 
L 116.220351 -28.052727 
L 112.638757 -28.052727 
L 109.057163 -28.052727 
L 105.475568 -28.052727 
L 101.893974 -28.052727 
L 98.312379 -28.052727 
L 94.730785 -28.052727 
L 91.149191 -28.052727 
L 87.567596 -28.052727 
L 83.986002 -28.052727 
L 80.404408 -28.052727 
L 76.822813 -28.052727 
L 73.241219 -28.052727 
L 69.659625 -28.052727 
L 66.07803 -28.052727 
L 62.496436 -28.052727 
L 58.914842 -28.052727 
L 55.333247 -28.052727 
L 51.751653 -28.052727 
z
" style="stroke: #f85149; stroke-opacity: 0.15"/>
    </defs>
    <g clip-path="url(#p089a25fe2a)">
     <use xlink:href="#m4076bacf9f" x="0" y="172.518281" style="fill: #f85149; fill-opacity: 0.15; stroke: #f85149; stroke-opacity: 0.15"/>
    </g>
   </g>
   <g id="matplotlib.axis_1">
    <g id="xtick_1">
     <g id="line2d_1">
      <path d="M 51.751653 150.318281 
L 51.751653 21.558281 
" clip-path="url(#p089a25fe2a)" style="fill: none; stroke: #21262d; stroke-opacity: 0.5; stroke-width: 0.5; stroke-linecap: square"/>
     </g>
     <g id="line2d_2">
      <defs>
       <path id="me2bee1719c" d="M 0 0 
L 0 3.5 
" style="stroke: #c9d1d9; stroke-width: 0.8"/>
      </defs>
      <g>
       <use xlink:href="#me2bee1719c" x="51.751653" y="150.318281" style="fill: #c9d1d9; stroke: #c9d1d9; stroke-width: 0.8"/>
      </g>
     </g>
     <g id="text_1">
      <!-- 0 -->
      <g style="fill: #c9d1d9" transform="translate(49.206653 163.396406) scale(0.08 -0.08)">
       <defs>
        <path id="DejaVuSans-13" d="M 2034 4250 
Q 1547 4250 1301 3770 
Q 1056 3291 1056 2328 
Q 1056 1369 1301 889 
Q 1547 409 2034 409 
Q 2525 409 2770 889 
Q 3016 1369 3016 2328 
Q 3016 3291 2770 3770 
Q 2525 4250 2034 4250 
z
M 2034 4750 
Q 2819 4750 3233 4129 
Q 3647 3509 3647 2328 
Q 3647 1150 3233 529 
Q 2819 -91 2034 -91 
Q 1250 -91 836 529 
Q 422 1150 422 2328 
Q 422 3509 836 4129 
Q 1250 4750 2034 4750 
z
" transform="scale(0.015625)"/>
       </defs>
       <use xlink:href="#DejaVuSans-13"/>
      </g>
     </g>
    </g>
    <g id="xtick_2">
     <g id="line2d_3">
      <path d="M 123.38354 150.318281 
L 123.38354 21.558281 
" clip-path="url(#p089a25fe2a)" style="fill: none; stroke: #21262d; stroke-opacity: 0.5; stroke-width: 0.5; stroke-linecap: square"/>
     </g>
     <g id="line2d_4">
      <g>
       <use xlink:href="#me2bee1719c" x="123.38354" y="150.318281" style="fill: #c9d1d9; stroke: #c9d1d9; stroke-width: 0.8"/>
      </g>
     </g>
     <g id="text_2">
      <!-- 20 -->
      <g style="fill: #c9d1d9" transform="translate(118.29354 163.396406) scale(0.08 -0.08)">
       <defs>
        <path id="DejaVuSans-15" d="M 1228 531 
L 3431 531 
L 3431 0 
L 469 0 
L 469 531 
Q 828 903 1448 1529 
Q 2069 2156 2228 2338 
Q 2531 2678 2651 2914 
Q 2772 3150 2772 3378 
Q 2772 3750 2511 3984 
Q 2250 4219 1831 4219 
Q 1534 4219 1204 4116 
Q 875 4013 500 3803 
L 500 4441 
Q 881 4594 1212 4672 
Q 1544 4750 1819 4750 
Q 2544 4750 2975 4387 
Q 3406 4025 3406 3419 
Q 3406 3131 3298 2873 
Q 3191 2616 2906 2266 
Q 2828 2175 2409 1742 
Q 1991 1309 1228 531 
z
" transform="scale(0.015625)"/>
       </defs>
       <use xlink:href="#DejaVuSans-15"/>
       <use xlink:href="#DejaVuSans-13" transform="translate(63.625 0)"/>
      </g>
     </g>
    </g>
    <g id="xtick_3">
     <g id="line2d_5">
      <path d="M 195.015427 150.318281 
L 195.015427 21.558281 
" clip-path="url(#p089a25fe2a)" style="fill: none; stroke: #21262d; stroke-opacity: 0.5; stroke-width: 0.5; stroke-linecap: square"/>
     </g>
     <g id="line2d_6">
      <g>
       <use xlink:href="#me2bee1719c" x="195.015427" y="150.318281" style="fill: #c9d1d9; stroke: #c9d1d9; stroke-width: 0.8"/>
      </g>
     </g>
     <g id="text_3">
      <!-- 40 -->
      <g style="fill: #c9d1d9" transform="translate(189.925427 163.396406) scale(0.08 -0.08)">
       <defs>
        <path id="DejaVuSans-17" d="M 2419 4116 
L 825 1625 
L 2419 1625 
L 2419 4116 
z
M 2253 4666 
L 3047 4666 
L 3047 1625 
L 3713 1625 
L 3713 1100 
L 3047 1100 
L 3047 0 
L 2419 0 
L 2419 1100 
L 313 1100 
L 313 1709 
L 2253 4666 
z
" transform="scale(0.015625)"/>
       </defs>
       <use xlink:href="#DejaVuSans-17"/>
       <use xlink:href="#DejaVuSans-13" transform="translate(63.625 0)"/>
      </g>
     </g>
    </g>
    <g id="xtick_4">
     <g id="line2d_7">
      <path d="M 266.647314 150.318281 
L 266.647314 21.558281 
" clip-path="url(#p089a25fe2a)" style="fill: none; stroke: #21262d; stroke-opacity: 0.5; stroke-width: 0.5; stroke-linecap: square"/>
     </g>
     <g id="line2d_8">
      <g>
       <use xlink:href="#me2bee1719c" x="266.647314" y="150.318281" style="fill: #c9d1d9; stroke: #c9d1d9; stroke-width: 0.8"/>
      </g>
     </g>
     <g id="text_4">
      <!-- 60 -->
      <g style="fill: #c9d1d9" transform="translate(261.557314 163.396406) scale(0.08 -0.08)">
       <defs>
        <path id="DejaVuSans-19" d="M 2113 2584 
Q 1688 2584 1439 2293 
Q 1191 2003 1191 1497 
Q 1191 994 1439 701 
Q 1688 409 2113 409 
Q 2538 409 2786 701 
Q 3034 994 3034 1497 
Q 3034 2003 2786 2293 
Q 2538 2584 2113 2584 
z
M 3366 4563 
L 3366 3988 
Q 3128 4100 2886 4159 
Q 2644 4219 2406 4219 
Q 1781 4219 1451 3797 
Q 1122 3375 1075 2522 
Q 1259 2794 1537 2939 
Q 1816 3084 2150 3084 
Q 2853 3084 3261 2657 
Q 3669 2231 3669 1497 
Q 3669 778 3244 343 
Q 2819 -91 2113 -91 
Q 1303 -91 875 529 
Q 447 1150 447 2328 
Q 447 3434 972 4092 
Q 1497 4750 2381 4750 
Q 2619 4750 2861 4703 
Q 3103 4656 3366 4563 
z
" transform="scale(0.015625)"/>
       </defs>
       <use xlink:href="#DejaVuSans-19"/>
       <use xlink:href="#DejaVuSans-13" transform="translate(63.625 0)"/>
      </g>
     </g>
    </g>
    <g id="xtick_5">
     <g id="line2d_9">
      <path d="M 338.279201 150.318281 
L 338.279201 21.558281 
" clip-path="url(#p089a25fe2a)" style="fill: none; stroke: #21262d; stroke-opacity: 0.5; stroke-width: 0.5; stroke-linecap: square"/>
     </g>
     <g id="line2d_10">
      <g>
       <use xlink:href="#me2bee1719c" x="338.279201" y="150.318281" style="fill: #c9d1d9; stroke: #c9d1d9; stroke-width: 0.8"/>
      </g>
     </g>
     <g id="text_5">
      <!-- 80 -->
      <g style="fill: #c9d1d9" transform="translate(333.189201 163.396406) scale(0.08 -0.08)">
       <defs>
        <path id="DejaVuSans-1b" d="M 2034 2216 
Q 1584 2216 1326 1975 
Q 1069 1734 1069 1313 
Q 1069 891 1326 650 
Q 1584 409 2034 409 
Q 2484 409 2743 651 
Q 3003 894 3003 1313 
Q 3003 1734 2745 1975 
Q 2488 2216 2034 2216 
z
M 1403 2484 
Q 997 2584 770 2862 
Q 544 3141 544 3541 
Q 544 4100 942 4425 
Q 1341 4750 2034 4750 
Q 2731 4750 3128 4425 
Q 3525 4100 3525 3541 
Q 3525 3141 3298 2862 
Q 3072 2584 2669 2484 
Q 3125 2378 3379 2068 
Q 3634 1759 3634 1313 
Q 3634 634 3220 271 
Q 2806 -91 2034 -91 
Q 1263 -91 848 271 
Q 434 634 434 1313 
Q 434 1759 690 2068 
Q 947 2378 1403 2484 
z
M 1172 3481 
Q 1172 3119 1398 2916 
Q 1625 2713 2034 2713 
Q 2441 2713 2670 2916 
Q 2900 3119 2900 3481 
Q 2900 3844 2670 4047 
Q 2441 4250 2034 4250 
Q 1625 4250 1398 4047 
Q 1172 3844 1172 3481 
z
" transform="scale(0.015625)"/>
       </defs>
       <use xlink:href="#DejaVuSans-1b"/>
       <use xlink:href="#DejaVuSans-13" transform="translate(63.625 0)"/>
      </g>
     </g>
    </g>
    <g id="xtick_6">
     <g id="line2d_11">
      <path d="M 409.911088 150.318281 
L 409.911088 21.558281 
" clip-path="url(#p089a25fe2a)" style="fill: none; stroke: #21262d; stroke-opacity: 0.5; stroke-width: 0.5; stroke-linecap: square"/>
     </g>
     <g id="line2d_12">
      <g>
       <use xlink:href="#me2bee1719c" x="409.911088" y="150.318281" style="fill: #c9d1d9; stroke: #c9d1d9; stroke-width: 0.8"/>
      </g>
     </g>
     <g id="text_6">
      <!-- 100 -->
      <g style="fill: #c9d1d9" transform="translate(402.276088 163.396406) scale(0.08 -0.08)">
       <defs>
        <path id="DejaVuSans-14" d="M 794 531 
L 1825 531 
L 1825 4091 
L 703 3866 
L 703 4441 
L 1819 4666 
L 2450 4666 
L 2450 531 
L 3481 531 
L 3481 0 
L 794 0 
L 794 531 
z
" transform="scale(0.015625)"/>
       </defs>
       <use xlink:href="#DejaVuSans-14"/>
       <use xlink:href="#DejaVuSans-13" transform="translate(63.625 0)"/>
       <use xlink:href="#DejaVuSans-13" transform="translate(127.25 0)"/>
      </g>
     </g>
    </g>
   </g>
   <g id="matplotlib.axis_2">
    <g id="ytick_1">
     <g id="line2d_13">
      <path d="M 34.56 144.465554 
L 412.776364 144.465554 
" clip-path="url(#p089a25fe2a)" style="fill: none; stroke: #21262d; stroke-opacity: 0.5; stroke-width: 0.5; stroke-linecap: square"/>
     </g>
     <g id="line2d_14">
      <defs>
       <path id="mba8679de28" d="M 0 0 
L -3.5 0 
" style="stroke: #c9d1d9; stroke-width: 0.8"/>
      </defs>
      <g>
       <use xlink:href="#mba8679de28" x="34.56" y="144.465554" style="fill: #c9d1d9; stroke: #c9d1d9; stroke-width: 0.8"/>
      </g>
     </g>
     <g id="text_7">
      <!-- $0 -->
      <g style="fill: #c9d1d9" transform="translate(17.38 147.504929) scale(0.08 -0.08)">
       <defs>
        <path id="DejaVuSans-7" d="M 2163 -941 
L 1850 -941 
L 1847 0 
Q 1519 6 1191 76 
Q 863 147 531 288 
L 531 850 
Q 850 650 1176 548 
Q 1503 447 1850 444 
L 1850 1869 
Q 1159 1981 845 2250 
Q 531 2519 531 2988 
Q 531 3497 872 3790 
Q 1213 4084 1850 4128 
L 1850 4863 
L 2163 4863 
L 2163 4138 
Q 2453 4125 2725 4076 
Q 2997 4028 3256 3944 
L 3256 3397 
Q 2997 3528 2723 3600 
Q 2450 3672 2163 3684 
L 2163 2350 
Q 2872 2241 3206 1959 
Q 3541 1678 3541 1191 
Q 3541 663 3186 358 
Q 2831 53 2163 6 
L 2163 -941 
z
M 1850 2406 
L 1850 3688 
Q 1488 3647 1297 3481 
Q 1106 3316 1106 3041 
Q 1106 2772 1282 2622 
Q 1459 2472 1850 2406 
z
M 2163 1806 
L 2163 453 
Q 2559 506 2761 678 
Q 2963 850 2963 1131 
Q 2963 1406 2770 1568 
Q 2578 1731 2163 1806 
z
" transform="scale(0.015625)"/>
       </defs>
       <use xlink:href="#DejaVuSans-7"/>
       <use xlink:href="#DejaVuSans-13" transform="translate(63.625 0)"/>
      </g>
     </g>
    </g>
    <g id="ytick_2">
     <g id="line2d_15">
      <path d="M 34.56 114.843865 
L 412.776364 114.843865 
" clip-path="url(#p089a25fe2a)" style="fill: none; stroke: #21262d; stroke-opacity: 0.5; stroke-width: 0.5; stroke-linecap: square"/>
     </g>
     <g id="line2d_16">
      <g>
       <use xlink:href="#mba8679de28" x="34.56" y="114.843865" style="fill: #c9d1d9; stroke: #c9d1d9; stroke-width: 0.8"/>
      </g>
     </g>
     <g id="text_8">
      <!-- $200 -->
      <g style="fill: #c9d1d9" transform="translate(7.2 117.88324) scale(0.08 -0.08)">
       <use xlink:href="#DejaVuSans-7"/>
       <use xlink:href="#DejaVuSans-15" transform="translate(63.625 0)"/>
       <use xlink:href="#DejaVuSans-13" transform="translate(127.25 0)"/>
       <use xlink:href="#DejaVuSans-13" transform="translate(190.875 0)"/>
      </g>
     </g>
    </g>
    <g id="ytick_3">
     <g id="line2d_17">
      <path d="M 34.56 85.222177 
L 412.776364 85.222177 
" clip-path="url(#p089a25fe2a)" style="fill: none; stroke: #21262d; stroke-opacity: 0.5; stroke-width: 0.5; stroke-linecap: square"/>
     </g>
     <g id="line2d_18">
      <g>
       <use xlink:href="#mba8679de28" x="34.56" y="85.222177" style="fill: #c9d1d9; stroke: #c9d1d9; stroke-width: 0.8"/>
      </g>
     </g>
     <g id="text_9">
      <!-- $400 -->
      <g style="fill: #c9d1d9" transform="translate(7.2 88.261552) scale(0.08 -0.08)">
       <use xlink:href="#DejaVuSans-7"/>
       <use xlink:href="#DejaVuSans-17" transform="translate(63.625 0)"/>
       <use xlink:href="#DejaVuSans-13" transform="translate(127.25 0)"/>
       <use xlink:href="#DejaVuSans-13" transform="translate(190.875 0)"/>
      </g>
     </g>
    </g>
    <g id="ytick_4">
     <g id="line2d_19">
      <path d="M 34.56 55.600488 
L 412.776364 55.600488 
" clip-path="url(#p089a25fe2a)" style="fill: none; stroke: #21262d; stroke-opacity: 0.5; stroke-width: 0.5; stroke-linecap: square"/>
     </g>
     <g id="line2d_20">
      <g>
       <use xlink:href="#mba8679de28" x="34.56" y="55.600488" style="fill: #c9d1d9; stroke: #c9d1d9; stroke-width: 0.8"/>
      </g>
     </g>
     <g id="text_10">
      <!-- $600 -->
      <g style="fill: #c9d1d9" transform="translate(7.2 58.639863) scale(0.08 -0.08)">
       <use xlink:href="#DejaVuSans-7"/>
       <use xlink:href="#DejaVuSans-19" transform="translate(63.625 0)"/>
       <use xlink:href="#DejaVuSans-13" transform="translate(127.25 0)"/>
       <use xlink:href="#DejaVuSans-13" transform="translate(190.875 0)"/>
      </g>
     </g>
    </g>
    <g id="ytick_5">
     <g id="line2d_21">
      <path d="M 34.56 25.9788 
L 412.776364 25.9788 
" clip-path="url(#p089a25fe2a)" style="fill: none; stroke: #21262d; stroke-opacity: 0.5; stroke-width: 0.5; stroke-linecap: square"/>
     </g>
     <g id="line2d_22">
      <g>
       <use xlink:href="#mba8679de28" x="34.56" y="25.9788" style="fill: #c9d1d9; stroke: #c9d1d9; stroke-width: 0.8"/>
      </g>
     </g>
     <g id="text_11">
      <!-- $800 -->
      <g style="fill: #c9d1d9" transform="translate(7.2 29.018175) scale(0.08 -0.08)">
       <use xlink:href="#DejaVuSans-7"/>
       <use xlink:href="#DejaVuSans-1b" transform="translate(63.625 0)"/>
       <use xlink:href="#DejaVuSans-13" transform="translate(127.25 0)"/>
       <use xlink:href="#DejaVuSans-13" transform="translate(190.875 0)"/>
      </g>
     </g>
    </g>
   </g>
   <g id="line2d_23">
    <path d="M 51.751653 54.126809 
L 55.333247 69.28719 
L 58.914842 62.420882 
L 62.496436 64.183373 
L 66.07803 64.867634 
L 69.659625 64.777288 
L 73.241219 65.369721 
L 76.822813 62.229822 
L 80.404408 65.479322 
L 83.986002 63.229554 
L 87.567596 52.61166 
L 91.149191 56.265495 
L 94.730785 73.083209 
L 98.312379 64.532909 
L 101.893974 66.554589 
L 105.475568 67.151466 
L 109.057163 63.374701 
L 112.638757 59.352075 
L 116.220351 59.464638 
L 119.801946 59.177307 
L 123.38354 59.239513 
L 126.965134 62.358677 
L 130.546729 58.488603 
L 134.128323 61.225647 
L 137.709917 59.270616 
L 141.291512 61.831411 
L 144.873106 58.721133 
L 148.4547 60.217029 
L 152.036295 65.101645 
L 155.617889 60.196293 
L 159.199483 62.287585 
L 162.781078 61.478912 
L 166.362672 64.688422 
L 169.944267 85.312523 
L 173.525861 85.359918 
L 177.107455 85.925692 
L 180.68905 75.207084 
L 184.270644 73.893362 
L 187.852238 67.523218 
L 191.433833 51.203149 
L 195.015427 48.021779 
L 198.597021 43.034968 
L 202.178616 71.730979 
L 205.76021 63.927145 
L 209.341804 68.511101 
L 212.923399 61.276004 
L 216.504993 64.134497 
L 220.086587 62.591207 
L 223.668182 61.295258 
L 227.249776 63.336192 
L 230.831371 62.647488 
L 234.412965 77.627176 
L 237.994559 59.322454 
L 241.576154 62.521596 
L 245.157748 62.85484 
L 248.739342 62.937781 
L 252.320937 61.004965 
L 255.902531 62.893348 
L 259.484125 63.623523 
L 263.06572 86.519607 
L 266.647314 80.693021 
L 270.228908 87.023176 
L 273.810503 59.390583 
L 277.392097 60.941279 
L 280.973691 62.574915 
L 284.555286 50.48038 
L 288.13688 52.710893 
L 291.718475 47.296048 
L 295.300069 50.929148 
L 298.881663 49.610983 
L 302.463258 28.030102 
L 306.044852 69.201287 
L 309.626446 63.59242 
L 313.208041 62.252039 
L 316.789635 61.278966 
L 320.371229 65.799236 
L 323.952824 70.799377 
L 327.534418 61.632945 
L 331.116012 63.259176 
L 334.697607 60.733927 
L 338.279201 77.15471 
L 341.860795 55.73971 
L 345.44239 65.793311 
L 349.023984 60.122239 
L 352.605579 60.50584 
L 356.187173 62.831143 
L 359.768767 62.986656 
L 363.350362 68.610334 
L 366.931956 61.603324 
L 370.51355 64.352216 
L 374.095145 63.14217 
L 377.676739 66.224307 
L 381.258333 62.831143 
L 384.839928 45.856434 
L 388.421522 27.411009 
L 392.003116 69.107978 
L 395.584711 69.645612 
" clip-path="url(#p089a25fe2a)" style="fill: none; stroke: #f85149; stroke-width: 2; stroke-linecap: square"/>
   </g>
   <g id="patch_3">
    <path d="M 34.56 150.318281 
L 34.56 21.558281 
" style="fill: none; stroke: #21262d; stroke-width: 0.8; stroke-linejoin: miter; stroke-linecap: square"/>
   </g>
   <g id="patch_4">
    <path d="M 34.56 150.318281 
L 412.776364 150.318281 
" style="fill: none; stroke: #21262d; stroke-width: 0.8; stroke-linejoin: miter; stroke-linecap: square"/>
   </g>
   <g id="text_12">
    <!-- NEXTJS (vercel/next.js) — $505.17 (-0.71%) -->
    <g style="fill: #c9d1d9" transform="translate(89.698494 15.558281) scale(0.11 -0.11)">
     <defs>
      <path id="DejaVuSans-Bold-31" d="M 588 4666 
L 1931 4666 
L 3628 1466 
L 3628 4666 
L 4769 4666 
L 4769 0 
L 3425 0 
L 1728 3200 
L 1728 0 
L 588 0 
L 588 4666 
z
" transform="scale(0.015625)"/>
      <path id="DejaVuSans-Bold-28" d="M 588 4666 
L 3834 4666 
L 3834 3756 
L 1791 3756 
L 1791 2888 
L 3713 2888 
L 3713 1978 
L 1791 1978 
L 1791 909 
L 3903 909 
L 3903 0 
L 588 0 
L 588 4666 
z
" transform="scale(0.015625)"/>
      <path id="DejaVuSans-Bold-3b" d="M 3188 2381 
L 4806 0 
L 3553 0 
L 2463 1594 
L 1381 0 
L 122 0 
L 1741 2381 
L 184 4666 
L 1441 4666 
L 2463 3163 
L 3481 4666 
L 4744 4666 
L 3188 2381 
z
" transform="scale(0.015625)"/>
      <path id="DejaVuSans-Bold-37" d="M 31 4666 
L 4331 4666 
L 4331 3756 
L 2784 3756 
L 2784 0 
L 1581 0 
L 1581 3756 
L 31 3756 
L 31 4666 
z
" transform="scale(0.015625)"/>
      <path id="DejaVuSans-Bold-2d" d="M 588 4666 
L 1791 4666 
L 1791 453 
Q 1791 -419 1317 -850 
Q 844 -1281 -116 -1281 
L -359 -1281 
L -359 -372 
L -172 -372 
Q 203 -372 395 -162 
Q 588 47 588 453 
L 588 4666 
z
" transform="scale(0.015625)"/>
      <path id="DejaVuSans-Bold-36" d="M 3834 4519 
L 3834 3531 
Q 3450 3703 3084 3790 
Q 2719 3878 2394 3878 
Q 1963 3878 1756 3759 
Q 1550 3641 1550 3391 
Q 1550 3203 1689 3098 
Q 1828 2994 2194 2919 
L 2706 2816 
Q 3484 2659 3812 2340 
Q 4141 2022 4141 1434 
Q 4141 663 3683 286 
Q 3225 -91 2284 -91 
Q 1841 -91 1394 -6 
Q 947 78 500 244 
L 500 1259 
Q 947 1022 1364 901 
Q 1781 781 2169 781 
Q 2563 781 2772 912 
Q 2981 1044 2981 1288 
Q 2981 1506 2839 1625 
Q 2697 1744 2272 1838 
L 1806 1941 
Q 1106 2091 782 2419 
Q 459 2747 459 3303 
Q 459 4000 909 4375 
Q 1359 4750 2203 4750 
Q 2588 4750 2994 4692 
Q 3400 4634 3834 4519 
z
" transform="scale(0.015625)"/>
      <path id="DejaVuSans-Bold-3" transform="scale(0.015625)"/>
      <path id="DejaVuSans-Bold-b" d="M 2413 -844 
L 1484 -844 
Q 1006 -72 778 623 
Q 550 1319 550 2003 
Q 550 2688 779 3389 
Q 1009 4091 1484 4856 
L 2413 4856 
Q 2013 4116 1813 3408 
Q 1613 2700 1613 2009 
Q 1613 1319 1811 609 
Q 2009 -100 2413 -844 
z
" transform="scale(0.015625)"/>
      <path id="DejaVuSans-Bold-59" d="M 97 3500 
L 1216 3500 
L 2088 1081 
L 2956 3500 
L 4078 3500 
L 2700 0 
L 1472 0 
L 97 3500 
z
" transform="scale(0.015625)"/>
      <path id="DejaVuSans-Bold-48" d="M 4031 1759 
L 4031 1441 
L 1416 1441 
Q 1456 1047 1700 850 
Q 1944 653 2381 653 
Q 2734 653 3104 758 
Q 3475 863 3866 1075 
L 3866 213 
Q 3469 63 3072 -14 
Q 2675 -91 2278 -91 
Q 1328 -91 801 392 
Q 275 875 275 1747 
Q 275 2603 792 3093 
Q 1309 3584 2216 3584 
Q 3041 3584 3536 3087 
Q 4031 2591 4031 1759 
z
M 2881 2131 
Q 2881 2450 2695 2645 
Q 2509 2841 2209 2841 
Q 1884 2841 1681 2658 
Q 1478 2475 1428 2131 
L 2881 2131 
z
" transform="scale(0.015625)"/>
      <path id="DejaVuSans-Bold-55" d="M 3138 2547 
Q 2991 2616 2845 2648 
Q 2700 2681 2553 2681 
Q 2122 2681 1889 2404 
Q 1656 2128 1656 1613 
L 1656 0 
L 538 0 
L 538 3500 
L 1656 3500 
L 1656 2925 
Q 1872 3269 2151 3426 
Q 2431 3584 2822 3584 
Q 2878 3584 2943 3579 
Q 3009 3575 3134 3559 
L 3138 2547 
z
" transform="scale(0.015625)"/>
      <path id="DejaVuSans-Bold-46" d="M 3366 3391 
L 3366 2478 
Q 3138 2634 2908 2709 
Q 2678 2784 2431 2784 
Q 1963 2784 1702 2511 
Q 1441 2238 1441 1747 
Q 1441 1256 1702 982 
Q 1963 709 2431 709 
Q 2694 709 2930 787 
Q 3166 866 3366 1019 
L 3366 103 
Q 3103 6 2833 -42 
Q 2563 -91 2291 -91 
Q 1344 -91 809 395 
Q 275 881 275 1747 
Q 275 2613 809 3098 
Q 1344 3584 2291 3584 
Q 2566 3584 2833 3536 
Q 3100 3488 3366 3391 
z
" transform="scale(0.015625)"/>
      <path id="DejaVuSans-Bold-4f" d="M 538 4863 
L 1656 4863 
L 1656 0 
L 538 0 
L 538 4863 
z
" transform="scale(0.015625)"/>
      <path id="DejaVuSans-Bold-12" d="M 1644 4666 
L 2338 4666 
L 691 -594 
L 0 -594 
L 1644 4666 
z
" transform="scale(0.015625)"/>
      <path id="DejaVuSans-Bold-51" d="M 4056 2131 
L 4056 0 
L 2931 0 
L 2931 347 
L 2931 1631 
Q 2931 2084 2911 2256 
Q 2891 2428 2841 2509 
Q 2775 2619 2662 2680 
Q 2550 2741 2406 2741 
Q 2056 2741 1856 2470 
Q 1656 2200 1656 1722 
L 1656 0 
L 538 0 
L 538 3500 
L 1656 3500 
L 1656 2988 
Q 1909 3294 2193 3439 
Q 2478 3584 2822 3584 
Q 3428 3584 3742 3212 
Q 4056 2841 4056 2131 
z
" transform="scale(0.015625)"/>
      <path id="DejaVuSans-Bold-5b" d="M 1422 1791 
L 159 3500 
L 1344 3500 
L 2059 2463 
L 2784 3500 
L 3969 3500 
L 2706 1797 
L 4031 0 
L 2847 0 
L 2059 1106 
L 1281 0 
L 97 0 
L 1422 1791 
z
" transform="scale(0.015625)"/>
      <path id="DejaVuSans-Bold-57" d="M 1759 4494 
L 1759 3500 
L 2913 3500 
L 2913 2700 
L 1759 2700 
L 1759 1216 
Q 1759 972 1856 886 
Q 1953 800 2241 800 
L 2816 800 
L 2816 0 
L 1856 0 
Q 1194 0 917 276 
Q 641 553 641 1216 
L 641 2700 
L 84 2700 
L 84 3500 
L 641 3500 
L 641 4494 
L 1759 4494 
z
" transform="scale(0.015625)"/>
      <path id="DejaVuSans-Bold-11" d="M 653 1209 
L 1778 1209 
L 1778 0 
L 653 0 
L 653 1209 
z
" transform="scale(0.015625)"/>
      <path id="DejaVuSans-Bold-4d" d="M 538 3500 
L 1656 3500 
L 1656 63 
Q 1656 -641 1318 -1011 
Q 981 -1381 341 -1381 
L -213 -1381 
L -213 -647 
L -19 -647 
Q 300 -647 419 -503 
Q 538 -359 538 63 
L 538 3500 
z
M 538 4863 
L 1656 4863 
L 1656 3950 
L 538 3950 
L 538 4863 
z
" transform="scale(0.015625)"/>
      <path id="DejaVuSans-Bold-56" d="M 3272 3391 
L 3272 2541 
Q 2913 2691 2578 2766 
Q 2244 2841 1947 2841 
Q 1628 2841 1473 2761 
Q 1319 2681 1319 2516 
Q 1319 2381 1436 2309 
Q 1553 2238 1856 2203 
L 2053 2175 
Q 2913 2066 3209 1816 
Q 3506 1566 3506 1031 
Q 3506 472 3093 190 
Q 2681 -91 1863 -91 
Q 1516 -91 1145 -36 
Q 775 19 384 128 
L 384 978 
Q 719 816 1070 734 
Q 1422 653 1784 653 
Q 2113 653 2278 743 
Q 2444 834 2444 1013 
Q 2444 1163 2330 1236 
Q 2216 1309 1875 1350 
L 1678 1375 
Q 931 1469 631 1722 
Q 331 1975 331 2491 
Q 331 3047 712 3315 
Q 1094 3584 1881 3584 
Q 2191 3584 2531 3537 
Q 2872 3491 3272 3391 
z
" transform="scale(0.015625)"/>
      <path id="DejaVuSans-Bold-c" d="M 513 -844 
Q 913 -100 1113 609 
Q 1313 1319 1313 2009 
Q 1313 2700 1113 3408 
Q 913 4116 513 4856 
L 1441 4856 
Q 1916 4091 2145 3389 
Q 2375 2688 2375 2003 
Q 2375 1319 2147 623 
Q 1919 -72 1441 -844 
L 513 -844 
z
" transform="scale(0.015625)"/>
      <path id="DejaVuSans-Bold-af6" d="M 344 2156 
L 6056 2156 
L 6056 1350 
L 344 1350 
L 344 2156 
z
" transform="scale(0.015625)"/>
      <path id="DejaVuSans-Bold-7" d="M 2484 -941 
L 1978 -941 
L 1975 0 
Q 1584 16 1218 87 
Q 853 159 506 288 
L 506 1106 
Q 866 922 1233 823 
Q 1600 725 1978 713 
L 1978 1684 
L 1875 1703 
Q 1128 1834 814 2115 
Q 500 2397 500 2925 
Q 500 3484 883 3798 
Q 1266 4113 1975 4141 
L 1978 4863 
L 2484 4863 
L 2484 4153 
Q 2797 4128 3109 4075 
Q 3422 4022 3738 3938 
L 3738 3144 
Q 3425 3275 3112 3348 
Q 2800 3422 2484 3438 
L 2484 2541 
L 2584 2522 
Q 3378 2397 3698 2105 
Q 4019 1813 4019 1241 
Q 4019 666 3637 358 
Q 3256 50 2484 6 
L 2484 -941 
z
M 1978 2613 
L 1978 3428 
Q 1756 3416 1623 3308 
Q 1491 3200 1491 3034 
Q 1491 2850 1612 2745 
Q 1734 2641 1978 2613 
z
M 2484 1594 
L 2484 725 
Q 2756 728 2892 831 
Q 3028 934 3028 1141 
Q 3028 1353 2903 1458 
Q 2778 1563 2484 1594 
z
" transform="scale(0.015625)"/>
      <path id="DejaVuSans-Bold-18" d="M 678 4666 
L 3669 4666 
L 3669 3781 
L 1638 3781 
L 1638 3059 
Q 1775 3097 1914 3117 
Q 2053 3138 2203 3138 
Q 3056 3138 3531 2711 
Q 4006 2284 4006 1522 
Q 4006 766 3489 337 
Q 2972 -91 2053 -91 
Q 1656 -91 1267 -14 
Q 878 63 494 219 
L 494 1166 
Q 875 947 1217 837 
Q 1559 728 1863 728 
Q 2300 728 2551 942 
Q 2803 1156 2803 1522 
Q 2803 1891 2551 2103 
Q 2300 2316 1863 2316 
Q 1603 2316 1309 2248 
Q 1016 2181 678 2041 
L 678 4666 
z
" transform="scale(0.015625)"/>
      <path id="DejaVuSans-Bold-13" d="M 2944 2338 
Q 2944 3213 2780 3570 
Q 2616 3928 2228 3928 
Q 1841 3928 1675 3570 
Q 1509 3213 1509 2338 
Q 1509 1453 1675 1090 
Q 1841 728 2228 728 
Q 2613 728 2778 1090 
Q 2944 1453 2944 2338 
z
M 4147 2328 
Q 4147 1169 3647 539 
Q 3147 -91 2228 -91 
Q 1306 -91 806 539 
Q 306 1169 306 2328 
Q 306 3491 806 4120 
Q 1306 4750 2228 4750 
Q 3147 4750 3647 4120 
Q 4147 3491 4147 2328 
z
" transform="scale(0.015625)"/>
      <path id="DejaVuSans-Bold-14" d="M 750 831 
L 1813 831 
L 1813 3847 
L 722 3622 
L 722 4441 
L 1806 4666 
L 2950 4666 
L 2950 831 
L 4013 831 
L 4013 0 
L 750 0 
L 750 831 
z
" transform="scale(0.015625)"/>
      <path id="DejaVuSans-Bold-1a" d="M 428 4666 
L 3944 4666 
L 3944 3988 
L 2125 0 
L 953 0 
L 2675 3781 
L 428 3781 
L 428 4666 
z
" transform="scale(0.015625)"/>
      <path id="DejaVuSans-Bold-10" d="M 347 2297 
L 2309 2297 
L 2309 1388 
L 347 1388 
L 347 2297 
z
" transform="scale(0.015625)"/>
      <path id="DejaVuSans-Bold-8" d="M 4959 1925 
Q 4738 1925 4616 1733 
Q 4494 1541 4494 1184 
Q 4494 825 4614 633 
Q 4734 441 4959 441 
Q 5184 441 5303 633 
Q 5422 825 5422 1184 
Q 5422 1541 5301 1733 
Q 5181 1925 4959 1925 
z
M 4959 2450 
Q 5541 2450 5875 2112 
Q 6209 1775 6209 1184 
Q 6209 594 5875 251 
Q 5541 -91 4959 -91 
Q 4378 -91 4042 251 
Q 3706 594 3706 1184 
Q 3706 1772 4042 2111 
Q 4378 2450 4959 2450 
z
M 2094 -91 
L 1403 -91 
L 4319 4750 
L 5013 4750 
L 2094 -91 
z
M 1453 4750 
Q 2034 4750 2367 4411 
Q 2700 4072 2700 3481 
Q 2700 2891 2367 2550 
Q 2034 2209 1453 2209 
Q 872 2209 539 2550 
Q 206 2891 206 3481 
Q 206 4072 539 4411 
Q 872 4750 1453 4750 
z
M 1453 4225 
Q 1228 4225 1106 4031 
Q 984 3838 984 3481 
Q 984 3122 1106 2926 
Q 1228 2731 1453 2731 
Q 1678 2731 1798 2926 
Q 1919 3122 1919 3481 
Q 1919 3838 1797 4031 
Q 1675 4225 1453 4225 
z
" transform="scale(0.015625)"/>
     </defs>
     <use xlink:href="#DejaVuSans-Bold-31"/>
     <use xlink:href="#DejaVuSans-Bold-28" transform="translate(83.6875 0)"/>
     <use xlink:href="#DejaVuSans-Bold-3b" transform="translate(152 0)"/>
     <use xlink:href="#DejaVuSans-Bold-37" transform="translate(229.09375 0)"/>
     <use xlink:href="#DejaVuSans-Bold-2d" transform="translate(297.3125 0)"/>
     <use xlink:href="#DejaVuSans-Bold-36" transform="translate(334.515625 0)"/>
     <use xlink:href="#DejaVuSans-Bold-3" transform="translate(406.53125 0)"/>
     <use xlink:href="#DejaVuSans-Bold-b" transform="translate(441.34375 0)"/>
     <use xlink:href="#DejaVuSans-Bold-59" transform="translate(487.046875 0)"/>
     <use xlink:href="#DejaVuSans-Bold-48" transform="translate(552.234375 0)"/>
     <use xlink:href="#DejaVuSans-Bold-55" transform="translate(620.0625 0)"/>
     <use xlink:href="#DejaVuSans-Bold-46" transform="translate(669.375 0)"/>
     <use xlink:href="#DejaVuSans-Bold-48" transform="translate(728.65625 0)"/>
     <use xlink:href="#DejaVuSans-Bold-4f" transform="translate(796.484375 0)"/>
     <use xlink:href="#DejaVuSans-Bold-12" transform="translate(830.765625 0)"/>
     <use xlink:href="#DejaVuSans-Bold-51" transform="translate(867.296875 0)"/>
     <use xlink:href="#DejaVuSans-Bold-48" transform="translate(938.484375 0)"/>
     <use xlink:href="#DejaVuSans-Bold-5b" transform="translate(1006.3125 0)"/>
     <use xlink:href="#DejaVuSans-Bold-57" transform="translate(1070.8125 0)"/>
     <use xlink:href="#DejaVuSans-Bold-11" transform="translate(1118.609375 0)"/>
     <use xlink:href="#DejaVuSans-Bold-4d" transform="translate(1156.59375 0)"/>
     <use xlink:href="#DejaVuSans-Bold-56" transform="translate(1190.875 0)"/>
     <use xlink:href="#DejaVuSans-Bold-c" transform="translate(1250.390625 0)"/>
     <use xlink:href="#DejaVuSans-Bold-3" transform="translate(1296.09375 0)"/>
     <use xlink:href="#DejaVuSans-Bold-af6" transform="translate(1330.90625 0)"/>
     <use xlink:href="#DejaVuSans-Bold-3" transform="translate(1430.90625 0)"/>
     <use xlink:href="#DejaVuSans-Bold-7" transform="translate(1465.71875 0)"/>
     <use xlink:href="#DejaVuSans-Bold-18" transform="translate(1535.296875 0)"/>
     <use xlink:href="#DejaVuSans-Bold-13" transform="translate(1604.875 0)"/>
     <use xlink:href="#DejaVuSans-Bold-18" transform="translate(1674.453125 0)"/>
     <use xlink:href="#DejaVuSans-Bold-11" transform="translate(1744.03125 0)"/>
     <use xlink:href="#DejaVuSans-Bold-14" transform="translate(1782.015625 0)"/>
     <use xlink:href="#DejaVuSans-Bold-1a" transform="translate(1851.59375 0)"/>
     <use xlink:href="#DejaVuSans-Bold-3" transform="translate(1921.171875 0)"/>
     <use xlink:href="#DejaVuSans-Bold-b" transform="translate(1955.984375 0)"/>
     <use xlink:href="#DejaVuSans-Bold-10" transform="translate(2001.6875 0)"/>
     <use xlink:href="#DejaVuSans-Bold-13" transform="translate(2043.1875 0)"/>
     <use xlink:href="#DejaVuSans-Bold-11" transform="translate(2112.765625 0)"/>
     <use xlink:href="#DejaVuSans-Bold-1a" transform="translate(2150.75 0)"/>
     <use xlink:href="#DejaVuSans-Bold-14" transform="translate(2220.328125 0)"/>
     <use xlink:href="#DejaVuSans-Bold-8" transform="translate(2289.90625 0)"/>
     <use xlink:href="#DejaVuSans-Bold-c" transform="translate(2390.109375 0)"/>
    </g>
   </g>
  </g>
 </g>
 <defs>
  <clipPath id="p089a25fe2a">
   <rect x="34.56" y="21.558281" width="378.216364" height="128.76"/>
  </clipPath>
 </defs>
</svg>
