<?xml version="1.0" encoding="utf-8" standalone="no"?>
<!DOCTYPE svg PUBLIC "-//W3C//DTD SVG 1.1//EN"
  "http://www.w3.org/Graphics/SVG/1.1/DTD/svg11.dtd">
<svg xmlns:xlink="http://www.w3.org/1999/xlink" width="424.91pt" height="173.060781pt" viewBox="0 0 424.91 173.060781" xmlns="http://www.w3.org/2000/svg" version="1.1">
 <metadata>
  <rdf:RDF xmlns:dc="http://purl.org/dc/elements/1.1/" xmlns:cc="http://creativecommons.org/ns#" xmlns:rdf="http://www.w3.org/1999/02/22-rdf-syntax-ns#">
   <cc:Work>
    <dc:type rdf:resource="http://purl.org/dc/dcmitype/StillImage"/>
    <dc:date>2026-04-21T00:21:11.607657</dc:date>
    <dc:format>image/svg+xml</dc:format>
    <dc:creator>
     <cc:Agent>
      <dc:title>Matplotlib v3.10.8, https://matplotlib.org/</dc:title>
     </cc:Agent>
    </dc:creator>
   </cc:Work>
  </rdf:RDF>
 </metadata>
 <defs>
  <style type="text/css">*{stroke-linejoin: round; stroke-linecap: butt}</style>
 </defs>
 <g id="figure_1">
  <g id="patch_1">
   <path d="M 0 173.060781 
L 424.91 173.060781 
L 424.91 0 
L 0 0 
z
" style="fill: #0d1117"/>
  </g>
  <g id="axes_1">
   <g id="patch_2">
    <path d="M 34.56 151.118281 
L 417.71 151.118281 
L 417.71 21.558281 
L 34.56 21.558281 
z
" style="fill: #0d1117"/>
   </g>
   <g id="FillBetweenPolyCollection_1">
    <defs>
     <path id="mf473e07a68" d="M 51.975909 -27.831591 
L 51.975909 -112.668716 
L 54.854572 -110.884393 
L 57.733234 -110.386163 
L 60.611897 -110.170063 
L 63.49056 -128.266909 
L 66.369222 -119.772992 
L 69.247885 -109.07906 
L 72.126548 -113.948806 
L 75.00521 -115.339948 
L 77.883873 -117.434914 
L 80.762536 -118.281304 
L 83.641198 -114.451538 
L 86.519861 -114.501061 
L 89.398524 -117.283344 
L 92.277186 -117.714043 
L 95.155849 -112.761759 
L 98.034512 -116.774609 
L 100.913174 -119.115689 
L 103.791837 -113.825749 
L 106.6705 -119.738476 
L 109.549162 -114.362997 
L 112.427825 -120.034113 
L 115.306488 -116.534499 
L 118.18515 -114.056856 
L 121.063813 -117.251829 
L 123.942476 -112.535154 
L 126.821138 -112.727243 
L 129.699801 -115.449498 
L 132.578464 -101.725669 
L 135.457126 -118.441878 
L 138.335789 -113.749214 
L 141.214452 -103.727592 
L 144.093114 -99.384589 
L 146.971777 -101.886243 
L 149.85044 -85.828838 
L 152.729102 -90.69108 
L 155.607765 -108.934994 
L 158.486427 -115.509526 
L 161.36509 -114.492057 
L 164.243753 -116.88416 
L 167.122415 -112.226012 
L 170.001078 -119.854029 
L 172.879741 -113.825749 
L 175.758403 -118.632466 
L 178.637066 -93.830528 
L 181.515729 -121.501789 
L 184.394391 -114.167907 
L 187.273054 -119.723469 
L 190.151717 -119.806007 
L 193.030379 -117.041733 
L 195.909042 -91.360389 
L 198.787705 -120.443801 
L 201.666367 -110.525727 
L 204.54503 -94.09465 
L 207.423693 -120.964542 
L 210.302355 -116.40694 
L 213.181018 -121.063587 
L 216.059681 -94.303246 
L 218.938343 -107.437303 
L 221.817006 -101.926762 
L 224.695669 -105.495408 
L 227.574331 -132.270756 
L 230.452994 -107.36527 
L 233.331657 -120.323746 
L 236.210319 -118.035191 
L 239.088982 -124.183526 
L 241.967645 -123.841368 
L 244.846307 -129.845637 
L 247.72497 -124.522683 
L 250.603633 -122.169597 
L 253.482295 -95.781428 
L 256.360958 -118.669983 
L 259.239621 -98.851844 
L 262.118283 -127.435526 
L 264.996946 -115.769146 
L 267.875609 -125.540152 
L 270.754271 -117.714043 
L 273.632934 -98.460163 
L 276.511597 -118.566436 
L 279.390259 -120.451305 
L 282.268922 -123.770836 
L 285.147585 -117.714043 
L 288.026247 -123.430179 
L 290.90491 -112.379082 
L 293.783573 -125.486127 
L 296.662235 -121.789922 
L 299.540898 -120.511333 
L 302.41956 -122.465234 
L 305.298223 -106.536888 
L 308.176886 -86.510152 
L 311.055548 -105.058706 
L 313.934211 -115.080328 
L 316.812874 -125.454612 
L 319.691536 -120.827979 
L 322.570199 -122.277647 
L 325.448862 -122.259639 
L 328.327524 -95.410757 
L 331.206187 -125.465117 
L 334.08485 -108.121619 
L 336.963512 -123.6928 
L 339.842175 -117.032728 
L 342.720838 -122.837405 
L 345.5995 -96.863427 
L 348.478163 -126.562123 
L 351.356826 -119.1397 
L 354.235488 -120.257716 
L 357.114151 -119.3558 
L 359.992814 -119.837522 
L 362.871476 -123.332634 
L 365.750139 -117.223316 
L 368.628802 -119.561395 
L 371.507464 -121.948996 
L 374.386127 -117.831097 
L 377.26479 -120.845987 
L 380.143452 -145.613409 
L 383.022115 -108.2972 
L 385.900778 -114.904747 
L 388.77944 -104.359384 
L 391.658103 -115.267914 
L 394.536766 -110.960928 
L 397.415428 -114.597105 
L 400.294091 -111.297083 
L 400.294091 -27.831591 
L 400.294091 -27.831591 
L 397.415428 -27.831591 
L 394.536766 -27.831591 
L 391.658103 -27.831591 
L 388.77944 -27.831591 
L 385.900778 -27.831591 
L 383.022115 -27.831591 
L 380.143452 -27.831591 
L 377.26479 -27.831591 
L 374.386127 -27.831591 
L 371.507464 -27.831591 
L 368.628802 -27.831591 
L 365.750139 -27.831591 
L 362.871476 -27.831591 
L 359.992814 -27.831591 
L 357.114151 -27.831591 
L 354.235488 -27.831591 
L 351.356826 -27.831591 
L 348.478163 -27.831591 
L 345.5995 -27.831591 
L 342.720838 -27.831591 
L 339.842175 -27.831591 
L 336.963512 -27.831591 
L 334.08485 -27.831591 
L 331.206187 -27.831591 
L 328.327524 -27.831591 
L 325.448862 -27.831591 
L 322.570199 -27.831591 
L 319.691536 -27.831591 
L 316.812874 -27.831591 
L 313.934211 -27.831591 
L 311.055548 -27.831591 
L 308.176886 -27.831591 
L 305.298223 -27.831591 
L 302.41956 -27.831591 
L 299.540898 -27.831591 
L 296.662235 -27.831591 
L 293.783573 -27.831591 
L 290.90491 -27.831591 
L 288.026247 -27.831591 
L 285.147585 -27.831591 
L 282.268922 -27.831591 
L 279.390259 -27.831591 
L 276.511597 -27.831591 
L 273.632934 -27.831591 
L 270.754271 -27.831591 
L 267.875609 -27.831591 
L 264.996946 -27.831591 
L 262.118283 -27.831591 
L 259.239621 -27.831591 
L 256.360958 -27.831591 
L 253.482295 -27.831591 
L 250.603633 -27.831591 
L 247.72497 -27.831591 
L 244.846307 -27.831591 
L 241.967645 -27.831591 
L 239.088982 -27.831591 
L 236.210319 -27.831591 
L 233.331657 -27.831591 
L 230.452994 -27.831591 
L 227.574331 -27.831591 
L 224.695669 -27.831591 
L 221.817006 -27.831591 
L 218.938343 -27.831591 
L 216.059681 -27.831591 
L 213.181018 -27.831591 
L 210.302355 -27.831591 
L 207.423693 -27.831591 
L 204.54503 -27.831591 
L 201.666367 -27.831591 
L 198.787705 -27.831591 
L 195.909042 -27.831591 
L 193.030379 -27.831591 
L 190.151717 -27.831591 
L 187.273054 -27.831591 
L 184.394391 -27.831591 
L 181.515729 -27.831591 
L 178.637066 -27.831591 
L 175.758403 -27.831591 
L 172.879741 -27.831591 
L 170.001078 -27.831591 
L 167.122415 -27.831591 
L 164.243753 -27.831591 
L 161.36509 -27.831591 
L 158.486427 -27.831591 
L 155.607765 -27.831591 
L 152.729102 -27.831591 
L 149.85044 -27.831591 
L 146.971777 -27.831591 
L 144.093114 -27.831591 
L 141.214452 -27.831591 
L 138.335789 -27.831591 
L 135.457126 -27.831591 
L 132.578464 -27.831591 
L 129.699801 -27.831591 
L 126.821138 -27.831591 
L 123.942476 -27.831591 
L 121.063813 -27.831591 
L 118.18515 -27.831591 
L 115.306488 -27.831591 
L 112.427825 -27.831591 
L 109.549162 -27.831591 
L 106.6705 -27.831591 
L 103.791837 -27.831591 
L 100.913174 -27.831591 
L 98.034512 -27.831591 
L 95.155849 -27.831591 
L 92.277186 -27.831591 
L 89.398524 -27.831591 
L 86.519861 -27.831591 
L 83.641198 -27.831591 
L 80.762536 -27.831591 
L 77.883873 -27.831591 
L 75.00521 -27.831591 
L 72.126548 -27.831591 
L 69.247885 -27.831591 
L 66.369222 -27.831591 
L 63.49056 -27.831591 
L 60.611897 -27.831591 
L 57.733234 -27.831591 
L 54.854572 -27.831591 
L 51.975909 -27.831591 
z
" style="stroke: #f85149; stroke-opacity: 0.15"/>
    </defs>
    <g clip-path="url(#pea9791fe31)">
     <use xlink:href="#mf473e07a68" x="0" y="173.060781" style="fill: #f85149; fill-opacity: 0.15; stroke: #f85149; stroke-opacity: 0.15"/>
    </g>
   </g>
   <g id="matplotlib.axis_1">
    <g id="xtick_1">
     <g id="line2d_1">
      <path d="M 51.975909 151.118281 
L 51.975909 21.558281 
" clip-path="url(#pea9791fe31)" style="fill: none; stroke: #21262d; stroke-opacity: 0.5; stroke-width: 0.5; stroke-linecap: square"/>
     </g>
     <g id="line2d_2">
      <defs>
       <path id="mdfa902de4e" d="M 0 0 
L 0 3.5 
" style="stroke: #c9d1d9; stroke-width: 0.8"/>
      </defs>
      <g>
       <use xlink:href="#mdfa902de4e" x="51.975909" y="151.118281" style="fill: #c9d1d9; stroke: #c9d1d9; stroke-width: 0.8"/>
      </g>
     </g>
     <g id="text_1">
      <!-- 0 -->
      <g style="fill: #c9d1d9" transform="translate(49.430909 164.197031) scale(0.08 -0.08)">
       <defs>
        <path id="DejaVuSans-30" d="M 2034 4250 
Q 1547 4250 1301 3770 
Q 1056 3291 1056 2328 
Q 1056 1369 1301 889 
Q 1547 409 2034 409 
Q 2525 409 2770 889 
Q 3016 1369 3016 2328 
Q 3016 3291 2770 3770 
Q 2525 4250 2034 4250 
z
M 2034 4750 
Q 2819 4750 3233 4129 
Q 3647 3509 3647 2328 
Q 3647 1150 3233 529 
Q 2819 -91 2034 -91 
Q 1250 -91 836 529 
Q 422 1150 422 2328 
Q 422 3509 836 4129 
Q 1250 4750 2034 4750 
z
" transform="scale(0.015625)"/>
       </defs>
       <use xlink:href="#DejaVuSans-30"/>
      </g>
     </g>
    </g>
    <g id="xtick_2">
     <g id="line2d_3">
      <path d="M 109.549162 151.118281 
L 109.549162 21.558281 
" clip-path="url(#pea9791fe31)" style="fill: none; stroke: #21262d; stroke-opacity: 0.5; stroke-width: 0.5; stroke-linecap: square"/>
     </g>
     <g id="line2d_4">
      <g>
       <use xlink:href="#mdfa902de4e" x="109.549162" y="151.118281" style="fill: #c9d1d9; stroke: #c9d1d9; stroke-width: 0.8"/>
      </g>
     </g>
     <g id="text_2">
      <!-- 20 -->
      <g style="fill: #c9d1d9" transform="translate(104.459162 164.197031) scale(0.08 -0.08)">
       <defs>
        <path id="DejaVuSans-32" d="M 1228 531 
L 3431 531 
L 3431 0 
L 469 0 
L 469 531 
Q 828 903 1448 1529 
Q 2069 2156 2228 2338 
Q 2531 2678 2651 2914 
Q 2772 3150 2772 3378 
Q 2772 3750 2511 3984 
Q 2250 4219 1831 4219 
Q 1534 4219 1204 4116 
Q 875 4013 500 3803 
L 500 4441 
Q 881 4594 1212 4672 
Q 1544 4750 1819 4750 
Q 2544 4750 2975 4387 
Q 3406 4025 3406 3419 
Q 3406 3131 3298 2873 
Q 3191 2616 2906 2266 
Q 2828 2175 2409 1742 
Q 1991 1309 1228 531 
z
" transform="scale(0.015625)"/>
       </defs>
       <use xlink:href="#DejaVuSans-32"/>
       <use xlink:href="#DejaVuSans-30" transform="translate(63.623047 0)"/>
      </g>
     </g>
    </g>
    <g id="xtick_3">
     <g id="line2d_5">
      <path d="M 167.122415 151.118281 
L 167.122415 21.558281 
" clip-path="url(#pea9791fe31)" style="fill: none; stroke: #21262d; stroke-opacity: 0.5; stroke-width: 0.5; stroke-linecap: square"/>
     </g>
     <g id="line2d_6">
      <g>
       <use xlink:href="#mdfa902de4e" x="167.122415" y="151.118281" style="fill: #c9d1d9; stroke: #c9d1d9; stroke-width: 0.8"/>
      </g>
     </g>
     <g id="text_3">
      <!-- 40 -->
      <g style="fill: #c9d1d9" transform="translate(162.032415 164.197031) scale(0.08 -0.08)">
       <defs>
        <path id="DejaVuSans-34" d="M 2419 4116 
L 825 1625 
L 2419 1625 
L 2419 4116 
z
M 2253 4666 
L 3047 4666 
L 3047 1625 
L 3713 1625 
L 3713 1100 
L 3047 1100 
L 3047 0 
L 2419 0 
L 2419 1100 
L 313 1100 
L 313 1709 
L 2253 4666 
z
" transform="scale(0.015625)"/>
       </defs>
       <use xlink:href="#DejaVuSans-34"/>
       <use xlink:href="#DejaVuSans-30" transform="translate(63.623047 0)"/>
      </g>
     </g>
    </g>
    <g id="xtick_4">
     <g id="line2d_7">
      <path d="M 224.695669 151.118281 
L 224.695669 21.558281 
" clip-path="url(#pea9791fe31)" style="fill: none; stroke: #21262d; stroke-opacity: 0.5; stroke-width: 0.5; stroke-linecap: square"/>
     </g>
     <g id="line2d_8">
      <g>
       <use xlink:href="#mdfa902de4e" x="224.695669" y="151.118281" style="fill: #c9d1d9; stroke: #c9d1d9; stroke-width: 0.8"/>
      </g>
     </g>
     <g id="text_4">
      <!-- 60 -->
      <g style="fill: #c9d1d9" transform="translate(219.605669 164.197031) scale(0.08 -0.08)">
       <defs>
        <path id="DejaVuSans-36" d="M 2113 2584 
Q 1688 2584 1439 2293 
Q 1191 2003 1191 1497 
Q 1191 994 1439 701 
Q 1688 409 2113 409 
Q 2538 409 2786 701 
Q 3034 994 3034 1497 
Q 3034 2003 2786 2293 
Q 2538 2584 2113 2584 
z
M 3366 4563 
L 3366 3988 
Q 3128 4100 2886 4159 
Q 2644 4219 2406 4219 
Q 1781 4219 1451 3797 
Q 1122 3375 1075 2522 
Q 1259 2794 1537 2939 
Q 1816 3084 2150 3084 
Q 2853 3084 3261 2657 
Q 3669 2231 3669 1497 
Q 3669 778 3244 343 
Q 2819 -91 2113 -91 
Q 1303 -91 875 529 
Q 447 1150 447 2328 
Q 447 3434 972 4092 
Q 1497 4750 2381 4750 
Q 2619 4750 2861 4703 
Q 3103 4656 3366 4563 
z
" transform="scale(0.015625)"/>
       </defs>
       <use xlink:href="#DejaVuSans-36"/>
       <use xlink:href="#DejaVuSans-30" transform="translate(63.623047 0)"/>
      </g>
     </g>
    </g>
    <g id="xtick_5">
     <g id="line2d_9">
      <path d="M 282.268922 151.118281 
L 282.268922 21.558281 
" clip-path="url(#pea9791fe31)" style="fill: none; stroke: #21262d; stroke-opacity: 0.5; stroke-width: 0.5; stroke-linecap: square"/>
     </g>
     <g id="line2d_10">
      <g>
       <use xlink:href="#mdfa902de4e" x="282.268922" y="151.118281" style="fill: #c9d1d9; stroke: #c9d1d9; stroke-width: 0.8"/>
      </g>
     </g>
     <g id="text_5">
      <!-- 80 -->
      <g style="fill: #c9d1d9" transform="translate(277.178922 164.197031) scale(0.08 -0.08)">
       <defs>
        <path id="DejaVuSans-38" d="M 2034 2216 
Q 1584 2216 1326 1975 
Q 1069 1734 1069 1313 
Q 1069 891 1326 650 
Q 1584 409 2034 409 
Q 2484 409 2743 651 
Q 3003 894 3003 1313 
Q 3003 1734 2745 1975 
Q 2488 2216 2034 2216 
z
M 1403 2484 
Q 997 2584 770 2862 
Q 544 3141 544 3541 
Q 544 4100 942 4425 
Q 1341 4750 2034 4750 
Q 2731 4750 3128 4425 
Q 3525 4100 3525 3541 
Q 3525 3141 3298 2862 
Q 3072 2584 2669 2484 
Q 3125 2378 3379 2068 
Q 3634 1759 3634 1313 
Q 3634 634 3220 271 
Q 2806 -91 2034 -91 
Q 1263 -91 848 271 
Q 434 634 434 1313 
Q 434 1759 690 2068 
Q 947 2378 1403 2484 
z
M 1172 3481 
Q 1172 3119 1398 2916 
Q 1625 2713 2034 2713 
Q 2441 2713 2670 2916 
Q 2900 3119 2900 3481 
Q 2900 3844 2670 4047 
Q 2441 4250 2034 4250 
Q 1625 4250 1398 4047 
Q 1172 3844 1172 3481 
z
" transform="scale(0.015625)"/>
       </defs>
       <use xlink:href="#DejaVuSans-38"/>
       <use xlink:href="#DejaVuSans-30" transform="translate(63.623047 0)"/>
      </g>
     </g>
    </g>
    <g id="xtick_6">
     <g id="line2d_11">
      <path d="M 339.842175 151.118281 
L 339.842175 21.558281 
" clip-path="url(#pea9791fe31)" style="fill: none; stroke: #21262d; stroke-opacity: 0.5; stroke-width: 0.5; stroke-linecap: square"/>
     </g>
     <g id="line2d_12">
      <g>
       <use xlink:href="#mdfa902de4e" x="339.842175" y="151.118281" style="fill: #c9d1d9; stroke: #c9d1d9; stroke-width: 0.8"/>
      </g>
     </g>
     <g id="text_6">
      <!-- 100 -->
      <g style="fill: #c9d1d9" transform="translate(332.207175 164.197031) scale(0.08 -0.08)">
       <defs>
        <path id="DejaVuSans-31" d="M 794 531 
L 1825 531 
L 1825 4091 
L 703 3866 
L 703 4441 
L 1819 4666 
L 2450 4666 
L 2450 531 
L 3481 531 
L 3481 0 
L 794 0 
L 794 531 
z
" transform="scale(0.015625)"/>
       </defs>
       <use xlink:href="#DejaVuSans-31"/>
       <use xlink:href="#DejaVuSans-30" transform="translate(63.623047 0)"/>
       <use xlink:href="#DejaVuSans-30" transform="translate(127.246094 0)"/>
      </g>
     </g>
    </g>
    <g id="xtick_7">
     <g id="line2d_13">
      <path d="M 397.415428 151.118281 
L 397.415428 21.558281 
" clip-path="url(#pea9791fe31)" style="fill: none; stroke: #21262d; stroke-opacity: 0.5; stroke-width: 0.5; stroke-linecap: square"/>
     </g>
     <g id="line2d_14">
      <g>
       <use xlink:href="#mdfa902de4e" x="397.415428" y="151.118281" style="fill: #c9d1d9; stroke: #c9d1d9; stroke-width: 0.8"/>
      </g>
     </g>
     <g id="text_7">
      <!-- 120 -->
      <g style="fill: #c9d1d9" transform="translate(389.780428 164.197031) scale(0.08 -0.08)">
       <use xlink:href="#DejaVuSans-31"/>
       <use xlink:href="#DejaVuSans-32" transform="translate(63.623047 0)"/>
       <use xlink:href="#DejaVuSans-30" transform="translate(127.246094 0)"/>
      </g>
     </g>
    </g>
   </g>
   <g id="matplotlib.axis_2">
    <g id="ytick_1">
     <g id="line2d_15">
      <path d="M 34.56 145.22919 
L 417.71 145.22919 
" clip-path="url(#pea9791fe31)" style="fill: none; stroke: #21262d; stroke-opacity: 0.5; stroke-width: 0.5; stroke-linecap: square"/>
     </g>
     <g id="line2d_16">
      <defs>
       <path id="me3cdb93f6e" d="M 0 0 
L -3.5 0 
" style="stroke: #c9d1d9; stroke-width: 0.8"/>
      </defs>
      <g>
       <use xlink:href="#me3cdb93f6e" x="34.56" y="145.22919" style="fill: #c9d1d9; stroke: #c9d1d9; stroke-width: 0.8"/>
      </g>
     </g>
     <g id="text_8">
      <!-- $0 -->
      <g style="fill: #c9d1d9" transform="translate(17.38 148.268565) scale(0.08 -0.08)">
       <defs>
        <path id="DejaVuSans-24" d="M 2163 -941 
L 1850 -941 
L 1847 0 
Q 1519 6 1191 76 
Q 863 147 531 288 
L 531 850 
Q 850 650 1176 548 
Q 1503 447 1850 444 
L 1850 1869 
Q 1159 1981 845 2250 
Q 531 2519 531 2988 
Q 531 3497 872 3790 
Q 1213 4084 1850 4128 
L 1850 4863 
L 2163 4863 
L 2163 4138 
Q 2453 4125 2725 4076 
Q 2997 4028 3256 3944 
L 3256 3397 
Q 2997 3528 2723 3600 
Q 2450 3672 2163 3684 
L 2163 2350 
Q 2872 2241 3206 1959 
Q 3541 1678 3541 1191 
Q 3541 663 3186 358 
Q 2831 53 2163 6 
L 2163 -941 
z
M 1850 2406 
L 1850 3688 
Q 1488 3647 1297 3481 
Q 1106 3316 1106 3041 
Q 1106 2772 1282 2622 
Q 1459 2472 1850 2406 
z
M 2163 1806 
L 2163 453 
Q 2559 506 2761 678 
Q 2963 850 2963 1131 
Q 2963 1406 2770 1568 
Q 2578 1731 2163 1806 
z
" transform="scale(0.015625)"/>
       </defs>
       <use xlink:href="#DejaVuSans-24"/>
       <use xlink:href="#DejaVuSans-30" transform="translate(63.623047 0)"/>
      </g>
     </g>
    </g>
    <g id="ytick_2">
     <g id="line2d_17">
      <path d="M 34.56 115.215349 
L 417.71 115.215349 
" clip-path="url(#pea9791fe31)" style="fill: none; stroke: #21262d; stroke-opacity: 0.5; stroke-width: 0.5; stroke-linecap: square"/>
     </g>
     <g id="line2d_18">
      <g>
       <use xlink:href="#me3cdb93f6e" x="34.56" y="115.215349" style="fill: #c9d1d9; stroke: #c9d1d9; stroke-width: 0.8"/>
      </g>
     </g>
     <g id="text_9">
      <!-- $200 -->
      <g style="fill: #c9d1d9" transform="translate(7.2 118.254724) scale(0.08 -0.08)">
       <use xlink:href="#DejaVuSans-24"/>
       <use xlink:href="#DejaVuSans-32" transform="translate(63.623047 0)"/>
       <use xlink:href="#DejaVuSans-30" transform="translate(127.246094 0)"/>
       <use xlink:href="#DejaVuSans-30" transform="translate(190.869141 0)"/>
      </g>
     </g>
    </g>
    <g id="ytick_3">
     <g id="line2d_19">
      <path d="M 34.56 85.201507 
L 417.71 85.201507 
" clip-path="url(#pea9791fe31)" style="fill: none; stroke: #21262d; stroke-opacity: 0.5; stroke-width: 0.5; stroke-linecap: square"/>
     </g>
     <g id="line2d_20">
      <g>
       <use xlink:href="#me3cdb93f6e" x="34.56" y="85.201507" style="fill: #c9d1d9; stroke: #c9d1d9; stroke-width: 0.8"/>
      </g>
     </g>
     <g id="text_10">
      <!-- $400 -->
      <g style="fill: #c9d1d9" transform="translate(7.2 88.240882) scale(0.08 -0.08)">
       <use xlink:href="#DejaVuSans-24"/>
       <use xlink:href="#DejaVuSans-34" transform="translate(63.623047 0)"/>
       <use xlink:href="#DejaVuSans-30" transform="translate(127.246094 0)"/>
       <use xlink:href="#DejaVuSans-30" transform="translate(190.869141 0)"/>
      </g>
     </g>
    </g>
    <g id="ytick_4">
     <g id="line2d_21">
      <path d="M 34.56 55.187665 
L 417.71 55.187665 
" clip-path="url(#pea9791fe31)" style="fill: none; stroke: #21262d; stroke-opacity: 0.5; stroke-width: 0.5; stroke-linecap: square"/>
     </g>
     <g id="line2d_22">
      <g>
       <use xlink:href="#me3cdb93f6e" x="34.56" y="55.187665" style="fill: #c9d1d9; stroke: #c9d1d9; stroke-width: 0.8"/>
      </g>
     </g>
     <g id="text_11">
      <!-- $600 -->
      <g style="fill: #c9d1d9" transform="translate(7.2 58.22704) scale(0.08 -0.08)">
       <use xlink:href="#DejaVuSans-24"/>
       <use xlink:href="#DejaVuSans-36" transform="translate(63.623047 0)"/>
       <use xlink:href="#DejaVuSans-30" transform="translate(127.246094 0)"/>
       <use xlink:href="#DejaVuSans-30" transform="translate(190.869141 0)"/>
      </g>
     </g>
    </g>
    <g id="ytick_5">
     <g id="line2d_23">
      <path d="M 34.56 25.173824 
L 417.71 25.173824 
" clip-path="url(#pea9791fe31)" style="fill: none; stroke: #21262d; stroke-opacity: 0.5; stroke-width: 0.5; stroke-linecap: square"/>
     </g>
     <g id="line2d_24">
      <g>
       <use xlink:href="#me3cdb93f6e" x="34.56" y="25.173824" style="fill: #c9d1d9; stroke: #c9d1d9; stroke-width: 0.8"/>
      </g>
     </g>
     <g id="text_12">
      <!-- $800 -->
      <g style="fill: #c9d1d9" transform="translate(7.2 28.213199) scale(0.08 -0.08)">
       <use xlink:href="#DejaVuSans-24"/>
       <use xlink:href="#DejaVuSans-38" transform="translate(63.623047 0)"/>
       <use xlink:href="#DejaVuSans-30" transform="translate(127.246094 0)"/>
       <use xlink:href="#DejaVuSans-30" transform="translate(190.869141 0)"/>
      </g>
     </g>
    </g>
   </g>
   <g id="line2d_25">
    <path d="M 51.975909 60.392065 
L 54.854572 62.176388 
L 57.733234 62.674618 
L 60.611897 62.890718 
L 63.49056 44.793872 
L 66.369222 53.287789 
L 69.247885 63.981721 
L 72.126548 59.111975 
L 75.00521 57.720834 
L 77.883873 55.625867 
L 80.762536 54.779477 
L 83.641198 58.609243 
L 86.519861 58.55972 
L 89.398524 55.777437 
L 92.277186 55.346739 
L 95.155849 60.299023 
L 98.034512 56.286172 
L 100.913174 53.945092 
L 103.791837 59.235032 
L 106.6705 53.322305 
L 109.549162 58.697784 
L 112.427825 53.026669 
L 115.306488 56.526283 
L 118.18515 59.003925 
L 121.063813 55.808952 
L 123.942476 60.525627 
L 126.821138 60.333538 
L 129.699801 57.611283 
L 132.578464 71.335112 
L 135.457126 54.618903 
L 138.335789 59.311567 
L 141.214452 69.333189 
L 144.093114 73.676192 
L 146.971777 71.174538 
L 149.85044 87.231943 
L 152.729102 82.369701 
L 155.607765 64.125787 
L 158.486427 57.551255 
L 161.36509 58.568725 
L 164.243753 56.176621 
L 167.122415 60.83477 
L 170.001078 53.206752 
L 172.879741 59.235032 
L 175.758403 54.428315 
L 178.637066 79.230253 
L 181.515729 51.558992 
L 184.394391 58.892874 
L 187.273054 53.337312 
L 190.151717 53.254774 
L 193.030379 56.019049 
L 195.909042 81.700392 
L 198.787705 52.61698 
L 201.666367 62.535054 
L 204.54503 78.966131 
L 207.423693 52.09624 
L 210.302355 56.653841 
L 213.181018 51.997194 
L 216.059681 78.757535 
L 218.938343 65.623478 
L 221.817006 71.134019 
L 224.695669 67.565374 
L 227.574331 40.790025 
L 230.452994 65.695511 
L 233.331657 52.737035 
L 236.210319 55.025591 
L 239.088982 48.877255 
L 241.967645 49.219413 
L 244.846307 43.215144 
L 247.72497 48.538099 
L 250.603633 50.891184 
L 253.482295 77.279353 
L 256.360958 54.390798 
L 259.239621 74.208937 
L 262.118283 45.625255 
L 264.996946 57.291636 
L 267.875609 47.520629 
L 270.754271 55.346739 
L 273.632934 74.600618 
L 276.511597 54.494346 
L 279.390259 52.609476 
L 282.268922 49.289945 
L 285.147585 55.346739 
L 288.026247 49.630603 
L 290.90491 60.681699 
L 293.783573 47.574654 
L 296.662235 51.270859 
L 299.540898 52.549449 
L 302.41956 50.595548 
L 305.298223 66.523893 
L 308.176886 86.550629 
L 311.055548 68.002075 
L 313.934211 57.980453 
L 316.812874 47.606169 
L 319.691536 52.232803 
L 322.570199 50.783134 
L 325.448862 50.801142 
L 328.327524 77.650024 
L 331.206187 47.595664 
L 334.08485 64.939162 
L 336.963512 49.367981 
L 339.842175 56.028053 
L 342.720838 50.223376 
L 345.5995 76.197354 
L 348.478163 46.498658 
L 351.356826 53.921081 
L 354.235488 52.803066 
L 357.114151 53.704982 
L 359.992814 53.223259 
L 362.871476 49.728148 
L 365.750139 55.837465 
L 368.628802 53.499387 
L 371.507464 51.111786 
L 374.386127 55.229685 
L 377.26479 52.214794 
L 380.143452 27.447372 
L 383.022115 64.763582 
L 385.900778 58.156034 
L 388.77944 68.701398 
L 391.658103 57.792867 
L 394.536766 62.099853 
L 397.415428 58.463676 
L 400.294091 61.763698 
" clip-path="url(#pea9791fe31)" style="fill: none; stroke: #f85149; stroke-width: 2; stroke-linecap: square"/>
   </g>
   <g id="patch_3">
    <path d="M 34.56 151.118281 
L 34.56 21.558281 
" style="fill: none; stroke: #21262d; stroke-width: 0.8; stroke-linejoin: miter; stroke-linecap: square"/>
   </g>
   <g id="patch_4">
    <path d="M 34.56 151.118281 
L 417.71 151.118281 
" style="fill: none; stroke: #21262d; stroke-width: 0.8; stroke-linejoin: miter; stroke-linecap: square"/>
   </g>
   <g id="text_13">
    <!-- NEXTJS (vercel/next.js) — $556.18 (-3.80%) -->
    <g style="fill: #c9d1d9" transform="translate(92.165312 15.558281) scale(0.11 -0.11)">
     <defs>
      <path id="DejaVuSans-Bold-4e" d="M 588 4666 
L 1931 4666 
L 3628 1466 
L 3628 4666 
L 4769 4666 
L 4769 0 
L 3425 0 
L 1728 3200 
L 1728 0 
L 588 0 
L 588 4666 
z
" transform="scale(0.015625)"/>
      <path id="DejaVuSans-Bold-45" d="M 588 4666 
L 3834 4666 
L 3834 3756 
L 1791 3756 
L 1791 2888 
L 3713 2888 
L 3713 1978 
L 1791 1978 
L 1791 909 
L 3903 909 
L 3903 0 
L 588 0 
L 588 4666 
z
" transform="scale(0.015625)"/>
      <path id="DejaVuSans-Bold-58" d="M 3188 2381 
L 4806 0 
L 3553 0 
L 2463 1594 
L 1381 0 
L 122 0 
L 1741 2381 
L 184 4666 
L 1441 4666 
L 2463 3163 
L 3481 4666 
L 4744 4666 
L 3188 2381 
z
" transform="scale(0.015625)"/>
      <path id="DejaVuSans-Bold-54" d="M 31 4666 
L 4331 4666 
L 4331 3756 
L 2784 3756 
L 2784 0 
L 1581 0 
L 1581 3756 
L 31 3756 
L 31 4666 
z
" transform="scale(0.015625)"/>
      <path id="DejaVuSans-Bold-4a" d="M 588 4666 
L 1791 4666 
L 1791 453 
Q 1791 -419 1317 -850 
Q 844 -1281 -116 -1281 
L -359 -1281 
L -359 -372 
L -172 -372 
Q 203 -372 395 -162 
Q 588 47 588 453 
L 588 4666 
z
" transform="scale(0.015625)"/>
      <path id="DejaVuSans-Bold-53" d="M 3834 4519 
L 3834 3531 
Q 3450 3703 3084 3790 
Q 2719 3878 2394 3878 
Q 1963 3878 1756 3759 
Q 1550 3641 1550 3391 
Q 1550 3203 1689 3098 
Q 1828 2994 2194 2919 
L 2706 2816 
Q 3484 2659 3812 2340 
Q 4141 2022 4141 1434 
Q 4141 663 3683 286 
Q 3225 -91 2284 -91 
Q 1841 -91 1394 -6 
Q 947 78 500 244 
L 500 1259 
Q 947 1022 1364 901 
Q 1781 781 2169 781 
Q 2563 781 2772 912 
Q 2981 1044 2981 1288 
Q 2981 1506 2839 1625 
Q 2697 1744 2272 1838 
L 1806 1941 
Q 1106 2091 782 2419 
Q 459 2747 459 3303 
Q 459 4000 909 4375 
Q 1359 4750 2203 4750 
Q 2588 4750 2994 4692 
Q 3400 4634 3834 4519 
z
" transform="scale(0.015625)"/>
      <path id="DejaVuSans-Bold-20" transform="scale(0.015625)"/>
      <path id="DejaVuSans-Bold-28" d="M 2413 -844 
L 1484 -844 
Q 1006 -72 778 623 
Q 550 1319 550 2003 
Q 550 2688 779 3389 
Q 1009 4091 1484 4856 
L 2413 4856 
Q 2013 4116 1813 3408 
Q 1613 2700 1613 2009 
Q 1613 1319 1811 609 
Q 2009 -100 2413 -844 
z
" transform="scale(0.015625)"/>
      <path id="DejaVuSans-Bold-76" d="M 97 3500 
L 1216 3500 
L 2088 1081 
L 2956 3500 
L 4078 3500 
L 2700 0 
L 1472 0 
L 97 3500 
z
" transform="scale(0.015625)"/>
      <path id="DejaVuSans-Bold-65" d="M 4031 1759 
L 4031 1441 
L 1416 1441 
Q 1456 1047 1700 850 
Q 1944 653 2381 653 
Q 2734 653 3104 758 
Q 3475 863 3866 1075 
L 3866 213 
Q 3469 63 3072 -14 
Q 2675 -91 2278 -91 
Q 1328 -91 801 392 
Q 275 875 275 1747 
Q 275 2603 792 3093 
Q 1309 3584 2216 3584 
Q 3041 3584 3536 3087 
Q 4031 2591 4031 1759 
z
M 2881 2131 
Q 2881 2450 2695 2645 
Q 2509 2841 2209 2841 
Q 1884 2841 1681 2658 
Q 1478 2475 1428 2131 
L 2881 2131 
z
" transform="scale(0.015625)"/>
      <path id="DejaVuSans-Bold-72" d="M 3138 2547 
Q 2991 2616 2845 2648 
Q 2700 2681 2553 2681 
Q 2122 2681 1889 2404 
Q 1656 2128 1656 1613 
L 1656 0 
L 538 0 
L 538 3500 
L 1656 3500 
L 1656 2925 
Q 1872 3269 2151 3426 
Q 2431 3584 2822 3584 
Q 2878 3584 2943 3579 
Q 3009 3575 3134 3559 
L 3138 2547 
z
" transform="scale(0.015625)"/>
      <path id="DejaVuSans-Bold-63" d="M 3366 3391 
L 3366 2478 
Q 3138 2634 2908 2709 
Q 2678 2784 2431 2784 
Q 1963 2784 1702 2511 
Q 1441 2238 1441 1747 
Q 1441 1256 1702 982 
Q 1963 709 2431 709 
Q 2694 709 2930 787 
Q 3166 866 3366 1019 
L 3366 103 
Q 3103 6 2833 -42 
Q 2563 -91 2291 -91 
Q 1344 -91 809 395 
Q 275 881 275 1747 
Q 275 2613 809 3098 
Q 1344 3584 2291 3584 
Q 2566 3584 2833 3536 
Q 3100 3488 3366 3391 
z
" transform="scale(0.015625)"/>
      <path id="DejaVuSans-Bold-6c" d="M 538 4863 
L 1656 4863 
L 1656 0 
L 538 0 
L 538 4863 
z
" transform="scale(0.015625)"/>
      <path id="DejaVuSans-Bold-2f" d="M 1644 4666 
L 2338 4666 
L 691 -594 
L 0 -594 
L 1644 4666 
z
" transform="scale(0.015625)"/>
      <path id="DejaVuSans-Bold-6e" d="M 4056 2131 
L 4056 0 
L 2931 0 
L 2931 347 
L 2931 1631 
Q 2931 2084 2911 2256 
Q 2891 2428 2841 2509 
Q 2775 2619 2662 2680 
Q 2550 2741 2406 2741 
Q 2056 2741 1856 2470 
Q 1656 2200 1656 1722 
L 1656 0 
L 538 0 
L 538 3500 
L 1656 3500 
L 1656 2988 
Q 1909 3294 2193 3439 
Q 2478 3584 2822 3584 
Q 3428 3584 3742 3212 
Q 4056 2841 4056 2131 
z
" transform="scale(0.015625)"/>
      <path id="DejaVuSans-Bold-78" d="M 1422 1791 
L 159 3500 
L 1344 3500 
L 2059 2463 
L 2784 3500 
L 3969 3500 
L 2706 1797 
L 4031 0 
L 2847 0 
L 2059 1106 
L 1281 0 
L 97 0 
L 1422 1791 
z
" transform="scale(0.015625)"/>
      <path id="DejaVuSans-Bold-74" d="M 1759 4494 
L 1759 3500 
L 2913 3500 
L 2913 2700 
L 1759 2700 
L 1759 1216 
Q 1759 972 1856 886 
Q 1953 800 2241 800 
L 2816 800 
L 2816 0 
L 1856 0 
Q 1194 0 917 276 
Q 641 553 641 1216 
L 641 2700 
L 84 2700 
L 84 3500 
L 641 3500 
L 641 4494 
L 1759 4494 
z
" transform="scale(0.015625)"/>
      <path id="DejaVuSans-Bold-2e" d="M 653 1209 
L 1778 1209 
L 1778 0 
L 653 0 
L 653 1209 
z
" transform="scale(0.015625)"/>
      <path id="DejaVuSans-Bold-6a" d="M 538 3500 
L 1656 3500 
L 1656 63 
Q 1656 -641 1318 -1011 
Q 981 -1381 341 -1381 
L -213 -1381 
L -213 -647 
L -19 -647 
Q 300 -647 419 -503 
Q 538 -359 538 63 
L 538 3500 
z
M 538 4863 
L 1656 4863 
L 1656 3950 
L 538 3950 
L 538 4863 
z
" transform="scale(0.015625)"/>
      <path id="DejaVuSans-Bold-73" d="M 3272 3391 
L 3272 2541 
Q 2913 2691 2578 2766 
Q 2244 2841 1947 2841 
Q 1628 2841 1473 2761 
Q 1319 2681 1319 2516 
Q 1319 2381 1436 2309 
Q 1553 2238 1856 2203 
L 2053 2175 
Q 2913 2066 3209 1816 
Q 3506 1566 3506 1031 
Q 3506 472 3093 190 
Q 2681 -91 1863 -91 
Q 1516 -91 1145 -36 
Q 775 19 384 128 
L 384 978 
Q 719 816 1070 734 
Q 1422 653 1784 653 
Q 2113 653 2278 743 
Q 2444 834 2444 1013 
Q 2444 1163 2330 1236 
Q 2216 1309 1875 1350 
L 1678 1375 
Q 931 1469 631 1722 
Q 331 1975 331 2491 
Q 331 3047 712 3315 
Q 1094 3584 1881 3584 
Q 2191 3584 2531 3537 
Q 2872 3491 3272 3391 
z
" transform="scale(0.015625)"/>
      <path id="DejaVuSans-Bold-29" d="M 513 -844 
Q 913 -100 1113 609 
Q 1313 1319 1313 2009 
Q 1313 2700 1113 3408 
Q 913 4116 513 4856 
L 1441 4856 
Q 1916 4091 2145 3389 
Q 2375 2688 2375 2003 
Q 2375 1319 2147 623 
Q 1919 -72 1441 -844 
L 513 -844 
z
" transform="scale(0.015625)"/>
      <path id="DejaVuSans-Bold-2014" d="M 344 2156 
L 6056 2156 
L 6056 1350 
L 344 1350 
L 344 2156 
z
" transform="scale(0.015625)"/>
      <path id="DejaVuSans-Bold-24" d="M 2484 -941 
L 1978 -941 
L 1975 0 
Q 1584 16 1218 87 
Q 853 159 506 288 
L 506 1106 
Q 866 922 1233 823 
Q 1600 725 1978 713 
L 1978 1684 
L 1875 1703 
Q 1128 1834 814 2115 
Q 500 2397 500 2925 
Q 500 3484 883 3798 
Q 1266 4113 1975 4141 
L 1978 4863 
L 2484 4863 
L 2484 4153 
Q 2797 4128 3109 4075 
Q 3422 4022 3738 3938 
L 3738 3144 
Q 3425 3275 3112 3348 
Q 2800 3422 2484 3438 
L 2484 2541 
L 2584 2522 
Q 3378 2397 3698 2105 
Q 4019 1813 4019 1241 
Q 4019 666 3637 358 
Q 3256 50 2484 6 
L 2484 -941 
z
M 1978 2613 
L 1978 3428 
Q 1756 3416 1623 3308 
Q 1491 3200 1491 3034 
Q 1491 2850 1612 2745 
Q 1734 2641 1978 2613 
z
M 2484 1594 
L 2484 725 
Q 2756 728 2892 831 
Q 3028 934 3028 1141 
Q 3028 1353 2903 1458 
Q 2778 1563 2484 1594 
z
" transform="scale(0.015625)"/>
      <path id="DejaVuSans-Bold-35" d="M 678 4666 
L 3669 4666 
L 3669 3781 
L 1638 3781 
L 1638 3059 
Q 1775 3097 1914 3117 
Q 2053 3138 2203 3138 
Q 3056 3138 3531 2711 
Q 4006 2284 4006 1522 
Q 4006 766 3489 337 
Q 2972 -91 2053 -91 
Q 1656 -91 1267 -14 
Q 878 63 494 219 
L 494 1166 
Q 875 947 1217 837 
Q 1559 728 1863 728 
Q 2300 728 2551 942 
Q 2803 1156 2803 1522 
Q 2803 1891 2551 2103 
Q 2300 2316 1863 2316 
Q 1603 2316 1309 2248 
Q 1016 2181 678 2041 
L 678 4666 
z
" transform="scale(0.015625)"/>
      <path id="DejaVuSans-Bold-36" d="M 2316 2303 
Q 2000 2303 1842 2098 
Q 1684 1894 1684 1484 
Q 1684 1075 1842 870 
Q 2000 666 2316 666 
Q 2634 666 2792 870 
Q 2950 1075 2950 1484 
Q 2950 1894 2792 2098 
Q 2634 2303 2316 2303 
z
M 3803 4544 
L 3803 3681 
Q 3506 3822 3243 3889 
Q 2981 3956 2731 3956 
Q 2194 3956 1894 3657 
Q 1594 3359 1544 2772 
Q 1750 2925 1990 3001 
Q 2231 3078 2516 3078 
Q 3231 3078 3670 2659 
Q 4109 2241 4109 1563 
Q 4109 813 3618 361 
Q 3128 -91 2303 -91 
Q 1394 -91 895 523 
Q 397 1138 397 2266 
Q 397 3422 980 4083 
Q 1563 4744 2578 4744 
Q 2900 4744 3203 4694 
Q 3506 4644 3803 4544 
z
" transform="scale(0.015625)"/>
      <path id="DejaVuSans-Bold-31" d="M 750 831 
L 1813 831 
L 1813 3847 
L 722 3622 
L 722 4441 
L 1806 4666 
L 2950 4666 
L 2950 831 
L 4013 831 
L 4013 0 
L 750 0 
L 750 831 
z
" transform="scale(0.015625)"/>
      <path id="DejaVuSans-Bold-38" d="M 2228 2088 
Q 1891 2088 1709 1903 
Q 1528 1719 1528 1375 
Q 1528 1031 1709 848 
Q 1891 666 2228 666 
Q 2563 666 2741 848 
Q 2919 1031 2919 1375 
Q 2919 1722 2741 1905 
Q 2563 2088 2228 2088 
z
M 1350 2484 
Q 925 2613 709 2878 
Q 494 3144 494 3541 
Q 494 4131 934 4440 
Q 1375 4750 2228 4750 
Q 3075 4750 3515 4442 
Q 3956 4134 3956 3541 
Q 3956 3144 3739 2878 
Q 3522 2613 3097 2484 
Q 3572 2353 3814 2058 
Q 4056 1763 4056 1313 
Q 4056 619 3595 264 
Q 3134 -91 2228 -91 
Q 1319 -91 855 264 
Q 391 619 391 1313 
Q 391 1763 633 2058 
Q 875 2353 1350 2484 
z
M 1631 3419 
Q 1631 3141 1786 2991 
Q 1941 2841 2228 2841 
Q 2509 2841 2662 2991 
Q 2816 3141 2816 3419 
Q 2816 3697 2662 3845 
Q 2509 3994 2228 3994 
Q 1941 3994 1786 3844 
Q 1631 3694 1631 3419 
z
" transform="scale(0.015625)"/>
      <path id="DejaVuSans-Bold-2d" d="M 347 2297 
L 2309 2297 
L 2309 1388 
L 347 1388 
L 347 2297 
z
" transform="scale(0.015625)"/>
      <path id="DejaVuSans-Bold-33" d="M 2981 2516 
Q 3453 2394 3698 2092 
Q 3944 1791 3944 1325 
Q 3944 631 3412 270 
Q 2881 -91 1863 -91 
Q 1503 -91 1142 -33 
Q 781 25 428 141 
L 428 1069 
Q 766 900 1098 814 
Q 1431 728 1753 728 
Q 2231 728 2486 893 
Q 2741 1059 2741 1369 
Q 2741 1688 2480 1852 
Q 2219 2016 1709 2016 
L 1228 2016 
L 1228 2791 
L 1734 2791 
Q 2188 2791 2409 2933 
Q 2631 3075 2631 3366 
Q 2631 3634 2415 3781 
Q 2200 3928 1806 3928 
Q 1516 3928 1219 3862 
Q 922 3797 628 3669 
L 628 4550 
Q 984 4650 1334 4700 
Q 1684 4750 2022 4750 
Q 2931 4750 3382 4451 
Q 3834 4153 3834 3553 
Q 3834 3144 3618 2883 
Q 3403 2622 2981 2516 
z
" transform="scale(0.015625)"/>
      <path id="DejaVuSans-Bold-30" d="M 2944 2338 
Q 2944 3213 2780 3570 
Q 2616 3928 2228 3928 
Q 1841 3928 1675 3570 
Q 1509 3213 1509 2338 
Q 1509 1453 1675 1090 
Q 1841 728 2228 728 
Q 2613 728 2778 1090 
Q 2944 1453 2944 2338 
z
M 4147 2328 
Q 4147 1169 3647 539 
Q 3147 -91 2228 -91 
Q 1306 -91 806 539 
Q 306 1169 306 2328 
Q 306 3491 806 4120 
Q 1306 4750 2228 4750 
Q 3147 4750 3647 4120 
Q 4147 3491 4147 2328 
z
" transform="scale(0.015625)"/>
      <path id="DejaVuSans-Bold-25" d="M 4959 1925 
Q 4738 1925 4616 1733 
Q 4494 1541 4494 1184 
Q 4494 825 4614 633 
Q 4734 441 4959 441 
Q 5184 441 5303 633 
Q 5422 825 5422 1184 
Q 5422 1541 5301 1733 
Q 5181 1925 4959 1925 
z
M 4959 2450 
Q 5541 2450 5875 2112 
Q 6209 1775 6209 1184 
Q 6209 594 5875 251 
Q 5541 -91 4959 -91 
Q 4378 -91 4042 251 
Q 3706 594 3706 1184 
Q 3706 1772 4042 2111 
Q 4378 2450 4959 2450 
z
M 2094 -91 
L 1403 -91 
L 4319 4750 
L 5013 4750 
L 2094 -91 
z
M 1453 4750 
Q 2034 4750 2367 4411 
Q 2700 4072 2700 3481 
Q 2700 2891 2367 2550 
Q 2034 2209 1453 2209 
Q 872 2209 539 2550 
Q 206 2891 206 3481 
Q 206 4072 539 4411 
Q 872 4750 1453 4750 
z
M 1453 4225 
Q 1228 4225 1106 4031 
Q 984 3838 984 3481 
Q 984 3122 1106 2926 
Q 1228 2731 1453 2731 
Q 1678 2731 1798 2926 
Q 1919 3122 1919 3481 
Q 1919 3838 1797 4031 
Q 1675 4225 1453 4225 
z
" transform="scale(0.015625)"/>
     </defs>
     <use xlink:href="#DejaVuSans-Bold-4e"/>
     <use xlink:href="#DejaVuSans-Bold-45" transform="translate(83.691406 0)"/>
     <use xlink:href="#DejaVuSans-Bold-58" transform="translate(152.001953 0)"/>
     <use xlink:href="#DejaVuSans-Bold-54" transform="translate(229.101562 0)"/>
     <use xlink:href="#DejaVuSans-Bold-4a" transform="translate(297.314453 0)"/>
     <use xlink:href="#DejaVuSans-Bold-53" transform="translate(334.521484 0)"/>
     <use xlink:href="#DejaVuSans-Bold-20" transform="translate(406.542969 0)"/>
     <use xlink:href="#DejaVuSans-Bold-28" transform="translate(441.357422 0)"/>
     <use xlink:href="#DejaVuSans-Bold-76" transform="translate(487.060547 0)"/>
     <use xlink:href="#DejaVuSans-Bold-65" transform="translate(552.246094 0)"/>
     <use xlink:href="#DejaVuSans-Bold-72" transform="translate(620.068359 0)"/>
     <use xlink:href="#DejaVuSans-Bold-63" transform="translate(669.384766 0)"/>
     <use xlink:href="#DejaVuSans-Bold-65" transform="translate(728.662109 0)"/>
     <use xlink:href="#DejaVuSans-Bold-6c" transform="translate(796.484375 0)"/>
     <use xlink:href="#DejaVuSans-Bold-2f" transform="translate(830.761719 0)"/>
     <use xlink:href="#DejaVuSans-Bold-6e" transform="translate(867.285156 0)"/>
     <use xlink:href="#DejaVuSans-Bold-65" transform="translate(938.476562 0)"/>
     <use xlink:href="#DejaVuSans-Bold-78" transform="translate(1006.298828 0)"/>
     <use xlink:href="#DejaVuSans-Bold-74" transform="translate(1070.800781 0)"/>
     <use xlink:href="#DejaVuSans-Bold-2e" transform="translate(1118.603516 0)"/>
     <use xlink:href="#DejaVuSans-Bold-6a" transform="translate(1156.591797 0)"/>
     <use xlink:href="#DejaVuSans-Bold-73" transform="translate(1190.869141 0)"/>
     <use xlink:href="#DejaVuSans-Bold-29" transform="translate(1250.390625 0)"/>
     <use xlink:href="#DejaVuSans-Bold-20" transform="translate(1296.09375 0)"/>
     <use xlink:href="#DejaVuSans-Bold-2014" transform="translate(1330.908203 0)"/>
     <use xlink:href="#DejaVuSans-Bold-20" transform="translate(1430.908203 0)"/>
     <use xlink:href="#DejaVuSans-Bold-24" transform="translate(1465.722656 0)"/>
     <use xlink:href="#DejaVuSans-Bold-35" transform="translate(1535.302734 0)"/>
     <use xlink:href="#DejaVuSans-Bold-35" transform="translate(1604.882812 0)"/>
     <use xlink:href="#DejaVuSans-Bold-36" transform="translate(1674.462891 0)"/>
     <use xlink:href="#DejaVuSans-Bold-2e" transform="translate(1744.042969 0)"/>
     <use xlink:href="#DejaVuSans-Bold-31" transform="translate(1782.03125 0)"/>
     <use xlink:href="#DejaVuSans-Bold-38" transform="translate(1851.611328 0)"/>
     <use xlink:href="#DejaVuSans-Bold-20" transform="translate(1921.191406 0)"/>
     <use xlink:href="#DejaVuSans-Bold-28" transform="translate(1956.005859 0)"/>
     <use xlink:href="#DejaVuSans-Bold-2d" transform="translate(2001.708984 0)"/>
     <use xlink:href="#DejaVuSans-Bold-33" transform="translate(2043.212891 0)"/>
     <use xlink:href="#DejaVuSans-Bold-2e" transform="translate(2112.792969 0)"/>
     <use xlink:href="#DejaVuSans-Bold-38" transform="translate(2150.78125 0)"/>
     <use xlink:href="#DejaVuSans-Bold-30" transform="translate(2220.361328 0)"/>
     <use xlink:href="#DejaVuSans-Bold-25" transform="translate(2289.941406 0)"/>
     <use xlink:href="#DejaVuSans-Bold-29" transform="translate(2390.136719 0)"/>
    </g>
   </g>
  </g>
 </g>
 <defs>
  <clipPath id="pea9791fe31">
   <rect x="34.56" y="21.558281" width="383.15" height="129.56"/>
  </clipPath>
 </defs>
</svg>
