<?xml version="1.0" encoding="utf-8" standalone="no"?>
<!DOCTYPE svg PUBLIC "-//W3C//DTD SVG 1.1//EN"
  "http://www.w3.org/Graphics/SVG/1.1/DTD/svg11.dtd">
<svg xmlns:xlink="http://www.w3.org/1999/xlink" width="540.475pt" height="172.518281pt" viewBox="0 0 540.475 172.518281" xmlns="http://www.w3.org/2000/svg" version="1.1">
 <metadata>
  <rdf:RDF xmlns:dc="http://purl.org/dc/elements/1.1/" xmlns:cc="http://creativecommons.org/ns#" xmlns:rdf="http://www.w3.org/1999/02/22-rdf-syntax-ns#">
   <cc:Work>
    <dc:type rdf:resource="http://purl.org/dc/dcmitype/StillImage"/>
    <dc:date>2026-07-01T12:59:44.916769</dc:date>
    <dc:format>image/svg+xml</dc:format>
    <dc:creator>
     <cc:Agent>
      <dc:title>Matplotlib v3.11.0, https://matplotlib.org/</dc:title>
     </cc:Agent>
    </dc:creator>
   </cc:Work>
  </rdf:RDF>
 </metadata>
 <defs>
  <style type="text/css">*{stroke-linejoin: round; stroke-linecap: butt}</style>
 </defs>
 <g id="figure_1">
  <g id="patch_1">
   <path d="M 0 172.518281 
L 540.475 172.518281 
L 540.475 0 
L 0 0 
z
" style="fill: #0d1117"/>
  </g>
  <g id="axes_1">
   <g id="patch_2">
    <path d="M 78.6175 150.318281 
L 461.8575 150.318281 
L 461.8575 21.558281 
L 78.6175 21.558281 
z
" style="fill: #0d1117"/>
   </g>
   <g id="FillBetweenPolyCollection_1">
    <defs>
     <path id="m42fa877d39" d="M 96.0375 -28.052727 
L 96.0375 -142.712745 
L 99.293575 -136.239402 
L 102.54965 -139.770316 
L 105.805724 -141.813106 
L 109.061799 -138.03868 
L 112.317874 -142.678924 
L 115.573949 -139.722967 
L 118.830023 -139.817665 
L 122.086098 -142.212194 
L 125.342173 -139.445634 
L 128.598248 -139.276529 
L 131.854322 -142.340713 
L 135.110397 -136.158231 
L 138.366472 -142.448941 
L 141.622547 -137.39608 
L 144.878621 -142.692452 
L 148.134696 -139.817665 
L 151.390771 -137.551657 
L 154.646846 -140.906702 
L 157.902921 -136.503206 
L 161.158995 -142.875085 
L 164.41507 -137.65312 
L 167.671145 -140.521143 
L 170.92722 -143.165946 
L 174.183294 -139.635032 
L 177.439369 -143.138889 
L 180.695444 -137.416373 
L 183.951519 -143.761196 
L 187.207593 -135.671209 
L 190.463668 -144.052057 
L 193.719743 -140.50085 
L 196.975818 -139.959714 
L 200.231893 -137.199919 
L 203.487967 -141.414017 
L 206.744042 -140.480557 
L 210.000117 -139.614739 
L 213.256192 -141.231384 
L 216.512266 -138.140143 
L 219.768341 -143.747668 
L 223.024416 -139.82443 
L 226.280491 -141.725171 
L 229.536565 -141.704878 
L 232.79264 -141.501952 
L 236.048715 -139.202123 
L 239.30479 -143.774725 
L 242.560864 -137.44343 
L 245.816939 -139.716202 
L 249.073014 -142.489526 
L 252.329089 -137.639592 
L 255.585164 -143.680026 
L 258.841238 -135.508868 
L 262.097313 -139.973242 
L 265.353388 -137.301382 
L 268.609463 -142.773622 
L 271.865537 -136.455856 
L 275.121612 -139.64856 
L 278.377687 -138.268663 
L 281.633762 -144.227926 
L 284.889836 -138.911262 
L 288.145911 -143.125361 
L 291.401986 -138.29572 
L 294.658061 -141.123157 
L 297.914136 -137.937217 
L 301.17021 -143.713847 
L 304.426285 -140.724069 
L 307.68236 -140.852589 
L 310.938435 -141.583123 
L 314.194509 -139.52004 
L 317.450584 -141.373432 
L 320.706659 -141.008165 
L 323.962734 -141.190799 
L 327.218808 -137.118748 
L 330.474883 -139.939421 
L 333.730958 -139.783844 
L 336.987033 -143.044191 
L 340.243107 -140.142347 
L 343.499182 -143.030662 
L 346.755257 -138.89097 
L 350.011332 -141.921333 
L 353.267407 -137.964274 
L 356.523481 -144.525551 
L 359.779556 -139.202123 
L 363.035631 -140.040884 
L 366.291706 -143.598855 
L 369.54778 -138.214549 
L 372.803855 -140.812003 
L 376.05993 -142.935963 
L 379.316005 -138.877441 
L 382.572079 -139.060075 
L 385.828154 -137.930453 
L 389.084229 -141.495188 
L 392.340304 -137.903396 
L 395.596379 -138.978904 
L 398.852453 -140.697012 
L 402.108528 -138.349833 
L 405.364603 -143.463571 
L 408.620678 -141.278733 
L 411.876752 -139.391521 
L 415.132827 -141.765756 
L 418.388902 -141.075807 
L 421.644977 -137.801933 
L 424.901051 -141.698114 
L 428.157126 -141.407253 
L 431.413201 -141.779284 
L 434.669276 -136.577612 
L 437.92535 -145.107273 
L 441.181425 -141.102864 
L 444.4375 -138.89097 
L 444.4375 -28.052727 
L 444.4375 -28.052727 
L 441.181425 -28.052727 
L 437.92535 -28.052727 
L 434.669276 -28.052727 
L 431.413201 -28.052727 
L 428.157126 -28.052727 
L 424.901051 -28.052727 
L 421.644977 -28.052727 
L 418.388902 -28.052727 
L 415.132827 -28.052727 
L 411.876752 -28.052727 
L 408.620678 -28.052727 
L 405.364603 -28.052727 
L 402.108528 -28.052727 
L 398.852453 -28.052727 
L 395.596379 -28.052727 
L 392.340304 -28.052727 
L 389.084229 -28.052727 
L 385.828154 -28.052727 
L 382.572079 -28.052727 
L 379.316005 -28.052727 
L 376.05993 -28.052727 
L 372.803855 -28.052727 
L 369.54778 -28.052727 
L 366.291706 -28.052727 
L 363.035631 -28.052727 
L 359.779556 -28.052727 
L 356.523481 -28.052727 
L 353.267407 -28.052727 
L 350.011332 -28.052727 
L 346.755257 -28.052727 
L 343.499182 -28.052727 
L 340.243107 -28.052727 
L 336.987033 -28.052727 
L 333.730958 -28.052727 
L 330.474883 -28.052727 
L 327.218808 -28.052727 
L 323.962734 -28.052727 
L 320.706659 -28.052727 
L 317.450584 -28.052727 
L 314.194509 -28.052727 
L 310.938435 -28.052727 
L 307.68236 -28.052727 
L 304.426285 -28.052727 
L 301.17021 -28.052727 
L 297.914136 -28.052727 
L 294.658061 -28.052727 
L 291.401986 -28.052727 
L 288.145911 -28.052727 
L 284.889836 -28.052727 
L 281.633762 -28.052727 
L 278.377687 -28.052727 
L 275.121612 -28.052727 
L 271.865537 -28.052727 
L 268.609463 -28.052727 
L 265.353388 -28.052727 
L 262.097313 -28.052727 
L 258.841238 -28.052727 
L 255.585164 -28.052727 
L 252.329089 -28.052727 
L 249.073014 -28.052727 
L 245.816939 -28.052727 
L 242.560864 -28.052727 
L 239.30479 -28.052727 
L 236.048715 -28.052727 
L 232.79264 -28.052727 
L 229.536565 -28.052727 
L 226.280491 -28.052727 
L 223.024416 -28.052727 
L 219.768341 -28.052727 
L 216.512266 -28.052727 
L 213.256192 -28.052727 
L 210.000117 -28.052727 
L 206.744042 -28.052727 
L 203.487967 -28.052727 
L 200.231893 -28.052727 
L 196.975818 -28.052727 
L 193.719743 -28.052727 
L 190.463668 -28.052727 
L 187.207593 -28.052727 
L 183.951519 -28.052727 
L 180.695444 -28.052727 
L 177.439369 -28.052727 
L 174.183294 -28.052727 
L 170.92722 -28.052727 
L 167.671145 -28.052727 
L 164.41507 -28.052727 
L 161.158995 -28.052727 
L 157.902921 -28.052727 
L 154.646846 -28.052727 
L 151.390771 -28.052727 
L 148.134696 -28.052727 
L 144.878621 -28.052727 
L 141.622547 -28.052727 
L 138.366472 -28.052727 
L 135.110397 -28.052727 
L 131.854322 -28.052727 
L 128.598248 -28.052727 
L 125.342173 -28.052727 
L 122.086098 -28.052727 
L 118.830023 -28.052727 
L 115.573949 -28.052727 
L 112.317874 -28.052727 
L 109.061799 -28.052727 
L 105.805724 -28.052727 
L 102.54965 -28.052727 
L 99.293575 -28.052727 
L 96.0375 -28.052727 
z
" style="stroke: #f85149; stroke-opacity: 0.15"/>
    </defs>
    <g clip-path="url(#pff4aa75d00)">
     <use xlink:href="#m42fa877d39" x="0" y="172.518281" style="fill: #f85149; fill-opacity: 0.15; stroke: #f85149; stroke-opacity: 0.15"/>
    </g>
   </g>
   <g id="matplotlib.axis_1">
    <g id="xtick_1">
     <g id="line2d_1">
      <path d="M 96.0375 150.318281 
L 96.0375 21.558281 
" clip-path="url(#pff4aa75d00)" style="fill: none; stroke: #21262d; stroke-opacity: 0.5; stroke-width: 0.5; stroke-linecap: square"/>
     </g>
     <g id="line2d_2">
      <defs>
       <path id="mfd48a65419" d="M 0 0 
L 0 3.5 
" style="stroke: #c9d1d9; stroke-width: 0.8"/>
      </defs>
      <g>
       <use xlink:href="#mfd48a65419" x="96.0375" y="150.318281" style="fill: #c9d1d9; stroke: #c9d1d9; stroke-width: 0.8"/>
      </g>
     </g>
     <g id="text_1">
      <!-- 0 -->
      <g style="fill: #c9d1d9" transform="translate(93.4925 163.396406) scale(0.08 -0.08)">
       <defs>
        <path id="DejaVuSans-13" d="M 2034 4250 
Q 1547 4250 1301 3770 
Q 1056 3291 1056 2328 
Q 1056 1369 1301 889 
Q 1547 409 2034 409 
Q 2525 409 2770 889 
Q 3016 1369 3016 2328 
Q 3016 3291 2770 3770 
Q 2525 4250 2034 4250 
z
M 2034 4750 
Q 2819 4750 3233 4129 
Q 3647 3509 3647 2328 
Q 3647 1150 3233 529 
Q 2819 -91 2034 -91 
Q 1250 -91 836 529 
Q 422 1150 422 2328 
Q 422 3509 836 4129 
Q 1250 4750 2034 4750 
z
" transform="scale(0.015625)"/>
       </defs>
       <use xlink:href="#DejaVuSans-13"/>
      </g>
     </g>
    </g>
    <g id="xtick_2">
     <g id="line2d_3">
      <path d="M 161.158995 150.318281 
L 161.158995 21.558281 
" clip-path="url(#pff4aa75d00)" style="fill: none; stroke: #21262d; stroke-opacity: 0.5; stroke-width: 0.5; stroke-linecap: square"/>
     </g>
     <g id="line2d_4">
      <g>
       <use xlink:href="#mfd48a65419" x="161.158995" y="150.318281" style="fill: #c9d1d9; stroke: #c9d1d9; stroke-width: 0.8"/>
      </g>
     </g>
     <g id="text_2">
      <!-- 20 -->
      <g style="fill: #c9d1d9" transform="translate(156.068995 163.396406) scale(0.08 -0.08)">
       <defs>
        <path id="DejaVuSans-15" d="M 1228 531 
L 3431 531 
L 3431 0 
L 469 0 
L 469 531 
Q 828 903 1448 1529 
Q 2069 2156 2228 2338 
Q 2531 2678 2651 2914 
Q 2772 3150 2772 3378 
Q 2772 3750 2511 3984 
Q 2250 4219 1831 4219 
Q 1534 4219 1204 4116 
Q 875 4013 500 3803 
L 500 4441 
Q 881 4594 1212 4672 
Q 1544 4750 1819 4750 
Q 2544 4750 2975 4387 
Q 3406 4025 3406 3419 
Q 3406 3131 3298 2873 
Q 3191 2616 2906 2266 
Q 2828 2175 2409 1742 
Q 1991 1309 1228 531 
z
" transform="scale(0.015625)"/>
       </defs>
       <use xlink:href="#DejaVuSans-15"/>
       <use xlink:href="#DejaVuSans-13" transform="translate(63.625 0)"/>
      </g>
     </g>
    </g>
    <g id="xtick_3">
     <g id="line2d_5">
      <path d="M 226.280491 150.318281 
L 226.280491 21.558281 
" clip-path="url(#pff4aa75d00)" style="fill: none; stroke: #21262d; stroke-opacity: 0.5; stroke-width: 0.5; stroke-linecap: square"/>
     </g>
     <g id="line2d_6">
      <g>
       <use xlink:href="#mfd48a65419" x="226.280491" y="150.318281" style="fill: #c9d1d9; stroke: #c9d1d9; stroke-width: 0.8"/>
      </g>
     </g>
     <g id="text_3">
      <!-- 40 -->
      <g style="fill: #c9d1d9" transform="translate(221.190491 163.396406) scale(0.08 -0.08)">
       <defs>
        <path id="DejaVuSans-17" d="M 2419 4116 
L 825 1625 
L 2419 1625 
L 2419 4116 
z
M 2253 4666 
L 3047 4666 
L 3047 1625 
L 3713 1625 
L 3713 1100 
L 3047 1100 
L 3047 0 
L 2419 0 
L 2419 1100 
L 313 1100 
L 313 1709 
L 2253 4666 
z
" transform="scale(0.015625)"/>
       </defs>
       <use xlink:href="#DejaVuSans-17"/>
       <use xlink:href="#DejaVuSans-13" transform="translate(63.625 0)"/>
      </g>
     </g>
    </g>
    <g id="xtick_4">
     <g id="line2d_7">
      <path d="M 291.401986 150.318281 
L 291.401986 21.558281 
" clip-path="url(#pff4aa75d00)" style="fill: none; stroke: #21262d; stroke-opacity: 0.5; stroke-width: 0.5; stroke-linecap: square"/>
     </g>
     <g id="line2d_8">
      <g>
       <use xlink:href="#mfd48a65419" x="291.401986" y="150.318281" style="fill: #c9d1d9; stroke: #c9d1d9; stroke-width: 0.8"/>
      </g>
     </g>
     <g id="text_4">
      <!-- 60 -->
      <g style="fill: #c9d1d9" transform="translate(286.311986 163.396406) scale(0.08 -0.08)">
       <defs>
        <path id="DejaVuSans-19" d="M 2113 2584 
Q 1688 2584 1439 2293 
Q 1191 2003 1191 1497 
Q 1191 994 1439 701 
Q 1688 409 2113 409 
Q 2538 409 2786 701 
Q 3034 994 3034 1497 
Q 3034 2003 2786 2293 
Q 2538 2584 2113 2584 
z
M 3366 4563 
L 3366 3988 
Q 3128 4100 2886 4159 
Q 2644 4219 2406 4219 
Q 1781 4219 1451 3797 
Q 1122 3375 1075 2522 
Q 1259 2794 1537 2939 
Q 1816 3084 2150 3084 
Q 2853 3084 3261 2657 
Q 3669 2231 3669 1497 
Q 3669 778 3244 343 
Q 2819 -91 2113 -91 
Q 1303 -91 875 529 
Q 447 1150 447 2328 
Q 447 3434 972 4092 
Q 1497 4750 2381 4750 
Q 2619 4750 2861 4703 
Q 3103 4656 3366 4563 
z
" transform="scale(0.015625)"/>
       </defs>
       <use xlink:href="#DejaVuSans-19"/>
       <use xlink:href="#DejaVuSans-13" transform="translate(63.625 0)"/>
      </g>
     </g>
    </g>
    <g id="xtick_5">
     <g id="line2d_9">
      <path d="M 356.523481 150.318281 
L 356.523481 21.558281 
" clip-path="url(#pff4aa75d00)" style="fill: none; stroke: #21262d; stroke-opacity: 0.5; stroke-width: 0.5; stroke-linecap: square"/>
     </g>
     <g id="line2d_10">
      <g>
       <use xlink:href="#mfd48a65419" x="356.523481" y="150.318281" style="fill: #c9d1d9; stroke: #c9d1d9; stroke-width: 0.8"/>
      </g>
     </g>
     <g id="text_5">
      <!-- 80 -->
      <g style="fill: #c9d1d9" transform="translate(351.433481 163.396406) scale(0.08 -0.08)">
       <defs>
        <path id="DejaVuSans-1b" d="M 2034 2216 
Q 1584 2216 1326 1975 
Q 1069 1734 1069 1313 
Q 1069 891 1326 650 
Q 1584 409 2034 409 
Q 2484 409 2743 651 
Q 3003 894 3003 1313 
Q 3003 1734 2745 1975 
Q 2488 2216 2034 2216 
z
M 1403 2484 
Q 997 2584 770 2862 
Q 544 3141 544 3541 
Q 544 4100 942 4425 
Q 1341 4750 2034 4750 
Q 2731 4750 3128 4425 
Q 3525 4100 3525 3541 
Q 3525 3141 3298 2862 
Q 3072 2584 2669 2484 
Q 3125 2378 3379 2068 
Q 3634 1759 3634 1313 
Q 3634 634 3220 271 
Q 2806 -91 2034 -91 
Q 1263 -91 848 271 
Q 434 634 434 1313 
Q 434 1759 690 2068 
Q 947 2378 1403 2484 
z
M 1172 3481 
Q 1172 3119 1398 2916 
Q 1625 2713 2034 2713 
Q 2441 2713 2670 2916 
Q 2900 3119 2900 3481 
Q 2900 3844 2670 4047 
Q 2441 4250 2034 4250 
Q 1625 4250 1398 4047 
Q 1172 3844 1172 3481 
z
" transform="scale(0.015625)"/>
       </defs>
       <use xlink:href="#DejaVuSans-1b"/>
       <use xlink:href="#DejaVuSans-13" transform="translate(63.625 0)"/>
      </g>
     </g>
    </g>
    <g id="xtick_6">
     <g id="line2d_11">
      <path d="M 421.644977 150.318281 
L 421.644977 21.558281 
" clip-path="url(#pff4aa75d00)" style="fill: none; stroke: #21262d; stroke-opacity: 0.5; stroke-width: 0.5; stroke-linecap: square"/>
     </g>
     <g id="line2d_12">
      <g>
       <use xlink:href="#mfd48a65419" x="421.644977" y="150.318281" style="fill: #c9d1d9; stroke: #c9d1d9; stroke-width: 0.8"/>
      </g>
     </g>
     <g id="text_6">
      <!-- 100 -->
      <g style="fill: #c9d1d9" transform="translate(414.009977 163.396406) scale(0.08 -0.08)">
       <defs>
        <path id="DejaVuSans-14" d="M 794 531 
L 1825 531 
L 1825 4091 
L 703 3866 
L 703 4441 
L 1819 4666 
L 2450 4666 
L 2450 531 
L 3481 531 
L 3481 0 
L 794 0 
L 794 531 
z
" transform="scale(0.015625)"/>
       </defs>
       <use xlink:href="#DejaVuSans-14"/>
       <use xlink:href="#DejaVuSans-13" transform="translate(63.625 0)"/>
       <use xlink:href="#DejaVuSans-13" transform="translate(127.25 0)"/>
      </g>
     </g>
    </g>
   </g>
   <g id="matplotlib.axis_2">
    <g id="ytick_1">
     <g id="line2d_13">
      <path d="M 78.6175 144.465554 
L 461.8575 144.465554 
" clip-path="url(#pff4aa75d00)" style="fill: none; stroke: #21262d; stroke-opacity: 0.5; stroke-width: 0.5; stroke-linecap: square"/>
     </g>
     <g id="line2d_14">
      <defs>
       <path id="mb310e7a7cb" d="M 0 0 
L -3.5 0 
" style="stroke: #c9d1d9; stroke-width: 0.8"/>
      </defs>
      <g>
       <use xlink:href="#mb310e7a7cb" x="78.6175" y="144.465554" style="fill: #c9d1d9; stroke: #c9d1d9; stroke-width: 0.8"/>
      </g>
     </g>
     <g id="text_7">
      <!-- $0 -->
      <g style="fill: #c9d1d9" transform="translate(61.4375 147.504929) scale(0.08 -0.08)">
       <defs>
        <path id="DejaVuSans-7" d="M 2163 -941 
L 1850 -941 
L 1847 0 
Q 1519 6 1191 76 
Q 863 147 531 288 
L 531 850 
Q 850 650 1176 548 
Q 1503 447 1850 444 
L 1850 1869 
Q 1159 1981 845 2250 
Q 531 2519 531 2988 
Q 531 3497 872 3790 
Q 1213 4084 1850 4128 
L 1850 4863 
L 2163 4863 
L 2163 4138 
Q 2453 4125 2725 4076 
Q 2997 4028 3256 3944 
L 3256 3397 
Q 2997 3528 2723 3600 
Q 2450 3672 2163 3684 
L 2163 2350 
Q 2872 2241 3206 1959 
Q 3541 1678 3541 1191 
Q 3541 663 3186 358 
Q 2831 53 2163 6 
L 2163 -941 
z
M 1850 2406 
L 1850 3688 
Q 1488 3647 1297 3481 
Q 1106 3316 1106 3041 
Q 1106 2772 1282 2622 
Q 1459 2472 1850 2406 
z
M 2163 1806 
L 2163 453 
Q 2559 506 2761 678 
Q 2963 850 2963 1131 
Q 2963 1406 2770 1568 
Q 2578 1731 2163 1806 
z
" transform="scale(0.015625)"/>
       </defs>
       <use xlink:href="#DejaVuSans-7"/>
       <use xlink:href="#DejaVuSans-13" transform="translate(63.625 0)"/>
      </g>
     </g>
    </g>
    <g id="ytick_2">
     <g id="line2d_15">
      <path d="M 78.6175 127.555045 
L 461.8575 127.555045 
" clip-path="url(#pff4aa75d00)" style="fill: none; stroke: #21262d; stroke-opacity: 0.5; stroke-width: 0.5; stroke-linecap: square"/>
     </g>
     <g id="line2d_16">
      <g>
       <use xlink:href="#mb310e7a7cb" x="78.6175" y="127.555045" style="fill: #c9d1d9; stroke: #c9d1d9; stroke-width: 0.8"/>
      </g>
     </g>
     <g id="text_8">
      <!-- $25 -->
      <g style="fill: #c9d1d9" transform="translate(56.3475 130.59442) scale(0.08 -0.08)">
       <defs>
        <path id="DejaVuSans-18" d="M 691 4666 
L 3169 4666 
L 3169 4134 
L 1269 4134 
L 1269 2991 
Q 1406 3038 1543 3061 
Q 1681 3084 1819 3084 
Q 2600 3084 3056 2656 
Q 3513 2228 3513 1497 
Q 3513 744 3044 326 
Q 2575 -91 1722 -91 
Q 1428 -91 1123 -41 
Q 819 9 494 109 
L 494 744 
Q 775 591 1075 516 
Q 1375 441 1709 441 
Q 2250 441 2565 725 
Q 2881 1009 2881 1497 
Q 2881 1984 2565 2268 
Q 2250 2553 1709 2553 
Q 1456 2553 1204 2497 
Q 953 2441 691 2322 
L 691 4666 
z
" transform="scale(0.015625)"/>
       </defs>
       <use xlink:href="#DejaVuSans-7"/>
       <use xlink:href="#DejaVuSans-15" transform="translate(63.625 0)"/>
       <use xlink:href="#DejaVuSans-18" transform="translate(127.25 0)"/>
      </g>
     </g>
    </g>
    <g id="ytick_3">
     <g id="line2d_17">
      <path d="M 78.6175 110.644535 
L 461.8575 110.644535 
" clip-path="url(#pff4aa75d00)" style="fill: none; stroke: #21262d; stroke-opacity: 0.5; stroke-width: 0.5; stroke-linecap: square"/>
     </g>
     <g id="line2d_18">
      <g>
       <use xlink:href="#mb310e7a7cb" x="78.6175" y="110.644535" style="fill: #c9d1d9; stroke: #c9d1d9; stroke-width: 0.8"/>
      </g>
     </g>
     <g id="text_9">
      <!-- $50 -->
      <g style="fill: #c9d1d9" transform="translate(56.3475 113.68391) scale(0.08 -0.08)">
       <use xlink:href="#DejaVuSans-7"/>
       <use xlink:href="#DejaVuSans-18" transform="translate(63.625 0)"/>
       <use xlink:href="#DejaVuSans-13" transform="translate(127.25 0)"/>
      </g>
     </g>
    </g>
    <g id="ytick_4">
     <g id="line2d_19">
      <path d="M 78.6175 93.734026 
L 461.8575 93.734026 
" clip-path="url(#pff4aa75d00)" style="fill: none; stroke: #21262d; stroke-opacity: 0.5; stroke-width: 0.5; stroke-linecap: square"/>
     </g>
     <g id="line2d_20">
      <g>
       <use xlink:href="#mb310e7a7cb" x="78.6175" y="93.734026" style="fill: #c9d1d9; stroke: #c9d1d9; stroke-width: 0.8"/>
      </g>
     </g>
     <g id="text_10">
      <!-- $75 -->
      <g style="fill: #c9d1d9" transform="translate(56.3475 96.773401) scale(0.08 -0.08)">
       <defs>
        <path id="DejaVuSans-1a" d="M 525 4666 
L 3525 4666 
L 3525 4397 
L 1831 0 
L 1172 0 
L 2766 4134 
L 525 4134 
L 525 4666 
z
" transform="scale(0.015625)"/>
       </defs>
       <use xlink:href="#DejaVuSans-7"/>
       <use xlink:href="#DejaVuSans-1a" transform="translate(63.625 0)"/>
       <use xlink:href="#DejaVuSans-18" transform="translate(127.25 0)"/>
      </g>
     </g>
    </g>
    <g id="ytick_5">
     <g id="line2d_21">
      <path d="M 78.6175 76.823517 
L 461.8575 76.823517 
" clip-path="url(#pff4aa75d00)" style="fill: none; stroke: #21262d; stroke-opacity: 0.5; stroke-width: 0.5; stroke-linecap: square"/>
     </g>
     <g id="line2d_22">
      <g>
       <use xlink:href="#mb310e7a7cb" x="78.6175" y="76.823517" style="fill: #c9d1d9; stroke: #c9d1d9; stroke-width: 0.8"/>
      </g>
     </g>
     <g id="text_11">
      <!-- $100 -->
      <g style="fill: #c9d1d9" transform="translate(51.2575 79.862892) scale(0.08 -0.08)">
       <use xlink:href="#DejaVuSans-7"/>
       <use xlink:href="#DejaVuSans-14" transform="translate(63.625 0)"/>
       <use xlink:href="#DejaVuSans-13" transform="translate(127.25 0)"/>
       <use xlink:href="#DejaVuSans-13" transform="translate(190.875 0)"/>
      </g>
     </g>
    </g>
    <g id="ytick_6">
     <g id="line2d_23">
      <path d="M 78.6175 59.913007 
L 461.8575 59.913007 
" clip-path="url(#pff4aa75d00)" style="fill: none; stroke: #21262d; stroke-opacity: 0.5; stroke-width: 0.5; stroke-linecap: square"/>
     </g>
     <g id="line2d_24">
      <g>
       <use xlink:href="#mb310e7a7cb" x="78.6175" y="59.913007" style="fill: #c9d1d9; stroke: #c9d1d9; stroke-width: 0.8"/>
      </g>
     </g>
     <g id="text_12">
      <!-- $125 -->
      <g style="fill: #c9d1d9" transform="translate(51.2575 62.952382) scale(0.08 -0.08)">
       <use xlink:href="#DejaVuSans-7"/>
       <use xlink:href="#DejaVuSans-14" transform="translate(63.625 0)"/>
       <use xlink:href="#DejaVuSans-15" transform="translate(127.25 0)"/>
       <use xlink:href="#DejaVuSans-18" transform="translate(190.875 0)"/>
      </g>
     </g>
    </g>
    <g id="ytick_7">
     <g id="line2d_25">
      <path d="M 78.6175 43.002498 
L 461.8575 43.002498 
" clip-path="url(#pff4aa75d00)" style="fill: none; stroke: #21262d; stroke-opacity: 0.5; stroke-width: 0.5; stroke-linecap: square"/>
     </g>
     <g id="line2d_26">
      <g>
       <use xlink:href="#mb310e7a7cb" x="78.6175" y="43.002498" style="fill: #c9d1d9; stroke: #c9d1d9; stroke-width: 0.8"/>
      </g>
     </g>
     <g id="text_13">
      <!-- $150 -->
      <g style="fill: #c9d1d9" transform="translate(51.2575 46.041873) scale(0.08 -0.08)">
       <use xlink:href="#DejaVuSans-7"/>
       <use xlink:href="#DejaVuSans-14" transform="translate(63.625 0)"/>
       <use xlink:href="#DejaVuSans-18" transform="translate(127.25 0)"/>
       <use xlink:href="#DejaVuSans-13" transform="translate(190.875 0)"/>
      </g>
     </g>
    </g>
    <g id="ytick_8">
     <g id="line2d_27">
      <path d="M 78.6175 26.091989 
L 461.8575 26.091989 
" clip-path="url(#pff4aa75d00)" style="fill: none; stroke: #21262d; stroke-opacity: 0.5; stroke-width: 0.5; stroke-linecap: square"/>
     </g>
     <g id="line2d_28">
      <g>
       <use xlink:href="#mb310e7a7cb" x="78.6175" y="26.091989" style="fill: #c9d1d9; stroke: #c9d1d9; stroke-width: 0.8"/>
      </g>
     </g>
     <g id="text_14">
      <!-- $175 -->
      <g style="fill: #c9d1d9" transform="translate(51.2575 29.131364) scale(0.08 -0.08)">
       <use xlink:href="#DejaVuSans-7"/>
       <use xlink:href="#DejaVuSans-14" transform="translate(63.625 0)"/>
       <use xlink:href="#DejaVuSans-1a" transform="translate(127.25 0)"/>
       <use xlink:href="#DejaVuSans-18" transform="translate(190.875 0)"/>
      </g>
     </g>
    </g>
   </g>
   <g id="line2d_29">
    <path d="M 96.0375 29.805537 
L 99.293575 36.27888 
L 102.54965 32.747965 
L 105.805724 30.705176 
L 109.061799 34.479601 
L 112.317874 29.839358 
L 115.573949 32.795315 
L 118.830023 32.700616 
L 122.086098 30.306088 
L 125.342173 33.072647 
L 128.598248 33.241752 
L 131.854322 30.177568 
L 135.110397 36.36005 
L 138.366472 30.069341 
L 141.622547 35.122201 
L 144.878621 29.825829 
L 148.134696 32.700616 
L 151.390771 34.966624 
L 154.646846 31.611579 
L 157.902921 36.015076 
L 161.158995 29.643196 
L 164.41507 34.865161 
L 167.671145 31.997139 
L 170.92722 29.352335 
L 174.183294 32.883249 
L 177.439369 29.379392 
L 180.695444 35.101908 
L 183.951519 28.757085 
L 187.207593 36.847073 
L 190.463668 28.466224 
L 193.719743 32.017431 
L 196.975818 32.558568 
L 200.231893 35.318363 
L 203.487967 31.104264 
L 206.744042 32.037724 
L 210.000117 32.903542 
L 213.256192 31.286897 
L 216.512266 34.378138 
L 219.768341 28.770613 
L 223.024416 32.693852 
L 226.280491 30.79311 
L 229.536565 30.813403 
L 232.79264 31.016329 
L 236.048715 33.316158 
L 239.30479 28.743557 
L 242.560864 35.074851 
L 245.816939 32.802079 
L 249.073014 30.028755 
L 252.329089 34.878689 
L 255.585164 28.838256 
L 258.841238 37.009414 
L 262.097313 32.545039 
L 265.353388 35.2169 
L 268.609463 29.744659 
L 271.865537 36.062425 
L 275.121612 32.869721 
L 278.377687 34.249618 
L 281.633762 28.290355 
L 284.889836 33.607019 
L 288.145911 29.39292 
L 291.401986 34.222562 
L 294.658061 31.395125 
L 297.914136 34.581064 
L 301.17021 28.804434 
L 304.426285 31.794213 
L 307.68236 31.665693 
L 310.938435 30.935159 
L 314.194509 32.998241 
L 317.450584 31.144849 
L 320.706659 31.510116 
L 323.962734 31.327482 
L 327.218808 35.399533 
L 330.474883 32.57886 
L 333.730958 32.734437 
L 336.987033 29.474091 
L 340.243107 32.375934 
L 343.499182 29.487619 
L 346.755257 33.627312 
L 350.011332 30.596948 
L 353.267407 34.554008 
L 356.523481 27.99273 
L 359.779556 33.316158 
L 363.035631 32.477397 
L 366.291706 28.919426 
L 369.54778 34.303732 
L 372.803855 31.706278 
L 376.05993 29.582318 
L 379.316005 33.64084 
L 382.572079 33.458207 
L 385.828154 34.587829 
L 389.084229 31.023093 
L 392.340304 34.614885 
L 395.596379 33.539377 
L 398.852453 31.821269 
L 402.108528 34.168448 
L 405.364603 29.05471 
L 408.620678 31.239548 
L 411.876752 33.126761 
L 415.132827 30.752525 
L 418.388902 31.442474 
L 421.644977 34.716349 
L 424.901051 30.820167 
L 428.157126 31.111028 
L 431.413201 30.738997 
L 434.669276 35.940669 
L 437.92535 27.411009 
L 441.181425 31.415417 
L 444.4375 33.627312 
" clip-path="url(#pff4aa75d00)" style="fill: none; stroke: #f85149; stroke-width: 2; stroke-linecap: square"/>
   </g>
   <g id="patch_3">
    <path d="M 78.6175 150.318281 
L 78.6175 21.558281 
" style="fill: none; stroke: #21262d; stroke-width: 0.8; stroke-linejoin: miter; stroke-linecap: square"/>
   </g>
   <g id="patch_4">
    <path d="M 78.6175 150.318281 
L 461.8575 150.318281 
" style="fill: none; stroke: #21262d; stroke-width: 0.8; stroke-linejoin: miter; stroke-linecap: square"/>
   </g>
   <g id="text_15">
    <!-- ORCASLICERBAMBULAB (FULU-Foundation/OrcaSlicer-bambulab) — $163.86 (-1.96%) -->
    <g style="fill: #c9d1d9" transform="translate(7.2 15.558281) scale(0.11 -0.11)">
     <defs>
      <path id="DejaVuSans-Bold-32" d="M 2719 3878 
Q 2169 3878 1866 3472 
Q 1563 3066 1563 2328 
Q 1563 1594 1866 1187 
Q 2169 781 2719 781 
Q 3272 781 3575 1187 
Q 3878 1594 3878 2328 
Q 3878 3066 3575 3472 
Q 3272 3878 2719 3878 
z
M 2719 4750 
Q 3844 4750 4481 4106 
Q 5119 3463 5119 2328 
Q 5119 1197 4481 553 
Q 3844 -91 2719 -91 
Q 1597 -91 958 553 
Q 319 1197 319 2328 
Q 319 3463 958 4106 
Q 1597 4750 2719 4750 
z
" transform="scale(0.015625)"/>
      <path id="DejaVuSans-Bold-35" d="M 2297 2597 
Q 2675 2597 2839 2737 
Q 3003 2878 3003 3200 
Q 3003 3519 2839 3656 
Q 2675 3794 2297 3794 
L 1791 3794 
L 1791 2597 
L 2297 2597 
z
M 1791 1766 
L 1791 0 
L 588 0 
L 588 4666 
L 2425 4666 
Q 3347 4666 3776 4356 
Q 4206 4047 4206 3378 
Q 4206 2916 3982 2619 
Q 3759 2322 3309 2181 
Q 3556 2125 3751 1926 
Q 3947 1728 4147 1325 
L 4800 0 
L 3519 0 
L 2950 1159 
Q 2778 1509 2601 1637 
Q 2425 1766 2131 1766 
L 1791 1766 
z
" transform="scale(0.015625)"/>
      <path id="DejaVuSans-Bold-26" d="M 4288 256 
Q 3956 84 3597 -3 
Q 3238 -91 2847 -91 
Q 1681 -91 1000 561 
Q 319 1213 319 2328 
Q 319 3447 1000 4098 
Q 1681 4750 2847 4750 
Q 3238 4750 3597 4662 
Q 3956 4575 4288 4403 
L 4288 3438 
Q 3953 3666 3628 3772 
Q 3303 3878 2944 3878 
Q 2300 3878 1931 3465 
Q 1563 3053 1563 2328 
Q 1563 1606 1931 1193 
Q 2300 781 2944 781 
Q 3303 781 3628 887 
Q 3953 994 4288 1222 
L 4288 256 
z
" transform="scale(0.015625)"/>
      <path id="DejaVuSans-Bold-24" d="M 3419 850 
L 1538 850 
L 1241 0 
L 31 0 
L 1759 4666 
L 3194 4666 
L 4922 0 
L 3713 0 
L 3419 850 
z
M 1838 1716 
L 3116 1716 
L 2478 3572 
L 1838 1716 
z
" transform="scale(0.015625)"/>
      <path id="DejaVuSans-Bold-36" d="M 3834 4519 
L 3834 3531 
Q 3450 3703 3084 3790 
Q 2719 3878 2394 3878 
Q 1963 3878 1756 3759 
Q 1550 3641 1550 3391 
Q 1550 3203 1689 3098 
Q 1828 2994 2194 2919 
L 2706 2816 
Q 3484 2659 3812 2340 
Q 4141 2022 4141 1434 
Q 4141 663 3683 286 
Q 3225 -91 2284 -91 
Q 1841 -91 1394 -6 
Q 947 78 500 244 
L 500 1259 
Q 947 1022 1364 901 
Q 1781 781 2169 781 
Q 2563 781 2772 912 
Q 2981 1044 2981 1288 
Q 2981 1506 2839 1625 
Q 2697 1744 2272 1838 
L 1806 1941 
Q 1106 2091 782 2419 
Q 459 2747 459 3303 
Q 459 4000 909 4375 
Q 1359 4750 2203 4750 
Q 2588 4750 2994 4692 
Q 3400 4634 3834 4519 
z
" transform="scale(0.015625)"/>
      <path id="DejaVuSans-Bold-2f" d="M 588 4666 
L 1791 4666 
L 1791 909 
L 3903 909 
L 3903 0 
L 588 0 
L 588 4666 
z
" transform="scale(0.015625)"/>
      <path id="DejaVuSans-Bold-2c" d="M 588 4666 
L 1791 4666 
L 1791 0 
L 588 0 
L 588 4666 
z
" transform="scale(0.015625)"/>
      <path id="DejaVuSans-Bold-28" d="M 588 4666 
L 3834 4666 
L 3834 3756 
L 1791 3756 
L 1791 2888 
L 3713 2888 
L 3713 1978 
L 1791 1978 
L 1791 909 
L 3903 909 
L 3903 0 
L 588 0 
L 588 4666 
z
" transform="scale(0.015625)"/>
      <path id="DejaVuSans-Bold-25" d="M 2456 2859 
Q 2741 2859 2887 2984 
Q 3034 3109 3034 3353 
Q 3034 3594 2887 3720 
Q 2741 3847 2456 3847 
L 1791 3847 
L 1791 2859 
L 2456 2859 
z
M 2497 819 
Q 2859 819 3042 972 
Q 3225 1125 3225 1434 
Q 3225 1738 3044 1889 
Q 2863 2041 2497 2041 
L 1791 2041 
L 1791 819 
L 2497 819 
z
M 3616 2497 
Q 4003 2384 4215 2081 
Q 4428 1778 4428 1338 
Q 4428 663 3972 331 
Q 3516 0 2584 0 
L 588 0 
L 588 4666 
L 2394 4666 
Q 3366 4666 3802 4372 
Q 4238 4078 4238 3431 
Q 4238 3091 4078 2852 
Q 3919 2613 3616 2497 
z
" transform="scale(0.015625)"/>
      <path id="DejaVuSans-Bold-30" d="M 588 4666 
L 2119 4666 
L 3181 2169 
L 4250 4666 
L 5778 4666 
L 5778 0 
L 4641 0 
L 4641 3413 
L 3566 897 
L 2803 897 
L 1728 3413 
L 1728 0 
L 588 0 
L 588 4666 
z
" transform="scale(0.015625)"/>
      <path id="DejaVuSans-Bold-38" d="M 588 4666 
L 1791 4666 
L 1791 1869 
Q 1791 1291 1980 1042 
Q 2169 794 2597 794 
Q 3028 794 3217 1042 
Q 3406 1291 3406 1869 
L 3406 4666 
L 4609 4666 
L 4609 1869 
Q 4609 878 4112 393 
Q 3616 -91 2597 -91 
Q 1581 -91 1084 393 
Q 588 878 588 1869 
L 588 4666 
z
" transform="scale(0.015625)"/>
      <path id="DejaVuSans-Bold-3" transform="scale(0.015625)"/>
      <path id="DejaVuSans-Bold-b" d="M 2413 -844 
L 1484 -844 
Q 1006 -72 778 623 
Q 550 1319 550 2003 
Q 550 2688 779 3389 
Q 1009 4091 1484 4856 
L 2413 4856 
Q 2013 4116 1813 3408 
Q 1613 2700 1613 2009 
Q 1613 1319 1811 609 
Q 2009 -100 2413 -844 
z
" transform="scale(0.015625)"/>
      <path id="DejaVuSans-Bold-29" d="M 588 4666 
L 3834 4666 
L 3834 3756 
L 1791 3756 
L 1791 2888 
L 3713 2888 
L 3713 1978 
L 1791 1978 
L 1791 0 
L 588 0 
L 588 4666 
z
" transform="scale(0.015625)"/>
      <path id="DejaVuSans-Bold-10" d="M 347 2297 
L 2309 2297 
L 2309 1388 
L 347 1388 
L 347 2297 
z
" transform="scale(0.015625)"/>
      <path id="DejaVuSans-Bold-52" d="M 2203 2784 
Q 1831 2784 1636 2517 
Q 1441 2250 1441 1747 
Q 1441 1244 1636 976 
Q 1831 709 2203 709 
Q 2569 709 2762 976 
Q 2956 1244 2956 1747 
Q 2956 2250 2762 2517 
Q 2569 2784 2203 2784 
z
M 2203 3584 
Q 3106 3584 3614 3096 
Q 4122 2609 4122 1747 
Q 4122 884 3614 396 
Q 3106 -91 2203 -91 
Q 1297 -91 786 396 
Q 275 884 275 1747 
Q 275 2609 786 3096 
Q 1297 3584 2203 3584 
z
" transform="scale(0.015625)"/>
      <path id="DejaVuSans-Bold-58" d="M 500 1363 
L 500 3500 
L 1625 3500 
L 1625 3150 
Q 1625 2866 1622 2436 
Q 1619 2006 1619 1863 
Q 1619 1441 1641 1255 
Q 1663 1069 1716 984 
Q 1784 875 1895 815 
Q 2006 756 2150 756 
Q 2500 756 2700 1025 
Q 2900 1294 2900 1772 
L 2900 3500 
L 4019 3500 
L 4019 0 
L 2900 0 
L 2900 506 
Q 2647 200 2364 54 
Q 2081 -91 1741 -91 
Q 1134 -91 817 281 
Q 500 653 500 1363 
z
" transform="scale(0.015625)"/>
      <path id="DejaVuSans-Bold-51" d="M 4056 2131 
L 4056 0 
L 2931 0 
L 2931 347 
L 2931 1631 
Q 2931 2084 2911 2256 
Q 2891 2428 2841 2509 
Q 2775 2619 2662 2680 
Q 2550 2741 2406 2741 
Q 2056 2741 1856 2470 
Q 1656 2200 1656 1722 
L 1656 0 
L 538 0 
L 538 3500 
L 1656 3500 
L 1656 2988 
Q 1909 3294 2193 3439 
Q 2478 3584 2822 3584 
Q 3428 3584 3742 3212 
Q 4056 2841 4056 2131 
z
" transform="scale(0.015625)"/>
      <path id="DejaVuSans-Bold-47" d="M 2919 2988 
L 2919 4863 
L 4044 4863 
L 4044 0 
L 2919 0 
L 2919 506 
Q 2688 197 2409 53 
Q 2131 -91 1766 -91 
Q 1119 -91 703 423 
Q 288 938 288 1747 
Q 288 2556 703 3070 
Q 1119 3584 1766 3584 
Q 2128 3584 2408 3439 
Q 2688 3294 2919 2988 
z
M 2181 722 
Q 2541 722 2730 984 
Q 2919 1247 2919 1747 
Q 2919 2247 2730 2509 
Q 2541 2772 2181 2772 
Q 1825 2772 1636 2509 
Q 1447 2247 1447 1747 
Q 1447 1247 1636 984 
Q 1825 722 2181 722 
z
" transform="scale(0.015625)"/>
      <path id="DejaVuSans-Bold-44" d="M 2106 1575 
Q 1756 1575 1579 1456 
Q 1403 1338 1403 1106 
Q 1403 894 1545 773 
Q 1688 653 1941 653 
Q 2256 653 2472 879 
Q 2688 1106 2688 1447 
L 2688 1575 
L 2106 1575 
z
M 3816 1997 
L 3816 0 
L 2688 0 
L 2688 519 
Q 2463 200 2181 54 
Q 1900 -91 1497 -91 
Q 953 -91 614 226 
Q 275 544 275 1050 
Q 275 1666 698 1953 
Q 1122 2241 2028 2241 
L 2688 2241 
L 2688 2328 
Q 2688 2594 2478 2717 
Q 2269 2841 1825 2841 
Q 1466 2841 1156 2769 
Q 847 2697 581 2553 
L 581 3406 
Q 941 3494 1303 3539 
Q 1666 3584 2028 3584 
Q 2975 3584 3395 3211 
Q 3816 2838 3816 1997 
z
" transform="scale(0.015625)"/>
      <path id="DejaVuSans-Bold-57" d="M 1759 4494 
L 1759 3500 
L 2913 3500 
L 2913 2700 
L 1759 2700 
L 1759 1216 
Q 1759 972 1856 886 
Q 1953 800 2241 800 
L 2816 800 
L 2816 0 
L 1856 0 
Q 1194 0 917 276 
Q 641 553 641 1216 
L 641 2700 
L 84 2700 
L 84 3500 
L 641 3500 
L 641 4494 
L 1759 4494 
z
" transform="scale(0.015625)"/>
      <path id="DejaVuSans-Bold-4c" d="M 538 3500 
L 1656 3500 
L 1656 0 
L 538 0 
L 538 3500 
z
M 538 4863 
L 1656 4863 
L 1656 3950 
L 538 3950 
L 538 4863 
z
" transform="scale(0.015625)"/>
      <path id="DejaVuSans-Bold-12" d="M 1644 4666 
L 2338 4666 
L 691 -594 
L 0 -594 
L 1644 4666 
z
" transform="scale(0.015625)"/>
      <path id="DejaVuSans-Bold-55" d="M 3138 2547 
Q 2991 2616 2845 2648 
Q 2700 2681 2553 2681 
Q 2122 2681 1889 2404 
Q 1656 2128 1656 1613 
L 1656 0 
L 538 0 
L 538 3500 
L 1656 3500 
L 1656 2925 
Q 1872 3269 2151 3426 
Q 2431 3584 2822 3584 
Q 2878 3584 2943 3579 
Q 3009 3575 3134 3559 
L 3138 2547 
z
" transform="scale(0.015625)"/>
      <path id="DejaVuSans-Bold-46" d="M 3366 3391 
L 3366 2478 
Q 3138 2634 2908 2709 
Q 2678 2784 2431 2784 
Q 1963 2784 1702 2511 
Q 1441 2238 1441 1747 
Q 1441 1256 1702 982 
Q 1963 709 2431 709 
Q 2694 709 2930 787 
Q 3166 866 3366 1019 
L 3366 103 
Q 3103 6 2833 -42 
Q 2563 -91 2291 -91 
Q 1344 -91 809 395 
Q 275 881 275 1747 
Q 275 2613 809 3098 
Q 1344 3584 2291 3584 
Q 2566 3584 2833 3536 
Q 3100 3488 3366 3391 
z
" transform="scale(0.015625)"/>
      <path id="DejaVuSans-Bold-4f" d="M 538 4863 
L 1656 4863 
L 1656 0 
L 538 0 
L 538 4863 
z
" transform="scale(0.015625)"/>
      <path id="DejaVuSans-Bold-48" d="M 4031 1759 
L 4031 1441 
L 1416 1441 
Q 1456 1047 1700 850 
Q 1944 653 2381 653 
Q 2734 653 3104 758 
Q 3475 863 3866 1075 
L 3866 213 
Q 3469 63 3072 -14 
Q 2675 -91 2278 -91 
Q 1328 -91 801 392 
Q 275 875 275 1747 
Q 275 2603 792 3093 
Q 1309 3584 2216 3584 
Q 3041 3584 3536 3087 
Q 4031 2591 4031 1759 
z
M 2881 2131 
Q 2881 2450 2695 2645 
Q 2509 2841 2209 2841 
Q 1884 2841 1681 2658 
Q 1478 2475 1428 2131 
L 2881 2131 
z
" transform="scale(0.015625)"/>
      <path id="DejaVuSans-Bold-45" d="M 2400 722 
Q 2759 722 2948 984 
Q 3138 1247 3138 1747 
Q 3138 2247 2948 2509 
Q 2759 2772 2400 2772 
Q 2041 2772 1848 2508 
Q 1656 2244 1656 1747 
Q 1656 1250 1848 986 
Q 2041 722 2400 722 
z
M 1656 2988 
Q 1888 3294 2169 3439 
Q 2450 3584 2816 3584 
Q 3463 3584 3878 3070 
Q 4294 2556 4294 1747 
Q 4294 938 3878 423 
Q 3463 -91 2816 -91 
Q 2450 -91 2169 54 
Q 1888 200 1656 506 
L 1656 0 
L 538 0 
L 538 4863 
L 1656 4863 
L 1656 2988 
z
" transform="scale(0.015625)"/>
      <path id="DejaVuSans-Bold-50" d="M 3781 2919 
Q 3994 3244 4286 3414 
Q 4578 3584 4928 3584 
Q 5531 3584 5847 3212 
Q 6163 2841 6163 2131 
L 6163 0 
L 5038 0 
L 5038 1825 
Q 5041 1866 5042 1909 
Q 5044 1953 5044 2034 
Q 5044 2406 4934 2573 
Q 4825 2741 4581 2741 
Q 4263 2741 4089 2478 
Q 3916 2216 3909 1719 
L 3909 0 
L 2784 0 
L 2784 1825 
Q 2784 2406 2684 2573 
Q 2584 2741 2328 2741 
Q 2006 2741 1831 2477 
Q 1656 2213 1656 1722 
L 1656 0 
L 531 0 
L 531 3500 
L 1656 3500 
L 1656 2988 
Q 1863 3284 2130 3434 
Q 2397 3584 2719 3584 
Q 3081 3584 3359 3409 
Q 3638 3234 3781 2919 
z
" transform="scale(0.015625)"/>
      <path id="DejaVuSans-Bold-c" d="M 513 -844 
Q 913 -100 1113 609 
Q 1313 1319 1313 2009 
Q 1313 2700 1113 3408 
Q 913 4116 513 4856 
L 1441 4856 
Q 1916 4091 2145 3389 
Q 2375 2688 2375 2003 
Q 2375 1319 2147 623 
Q 1919 -72 1441 -844 
L 513 -844 
z
" transform="scale(0.015625)"/>
      <path id="DejaVuSans-Bold-af6" d="M 344 2156 
L 6056 2156 
L 6056 1350 
L 344 1350 
L 344 2156 
z
" transform="scale(0.015625)"/>
      <path id="DejaVuSans-Bold-7" d="M 2484 -941 
L 1978 -941 
L 1975 0 
Q 1584 16 1218 87 
Q 853 159 506 288 
L 506 1106 
Q 866 922 1233 823 
Q 1600 725 1978 713 
L 1978 1684 
L 1875 1703 
Q 1128 1834 814 2115 
Q 500 2397 500 2925 
Q 500 3484 883 3798 
Q 1266 4113 1975 4141 
L 1978 4863 
L 2484 4863 
L 2484 4153 
Q 2797 4128 3109 4075 
Q 3422 4022 3738 3938 
L 3738 3144 
Q 3425 3275 3112 3348 
Q 2800 3422 2484 3438 
L 2484 2541 
L 2584 2522 
Q 3378 2397 3698 2105 
Q 4019 1813 4019 1241 
Q 4019 666 3637 358 
Q 3256 50 2484 6 
L 2484 -941 
z
M 1978 2613 
L 1978 3428 
Q 1756 3416 1623 3308 
Q 1491 3200 1491 3034 
Q 1491 2850 1612 2745 
Q 1734 2641 1978 2613 
z
M 2484 1594 
L 2484 725 
Q 2756 728 2892 831 
Q 3028 934 3028 1141 
Q 3028 1353 2903 1458 
Q 2778 1563 2484 1594 
z
" transform="scale(0.015625)"/>
      <path id="DejaVuSans-Bold-14" d="M 750 831 
L 1813 831 
L 1813 3847 
L 722 3622 
L 722 4441 
L 1806 4666 
L 2950 4666 
L 2950 831 
L 4013 831 
L 4013 0 
L 750 0 
L 750 831 
z
" transform="scale(0.015625)"/>
      <path id="DejaVuSans-Bold-19" d="M 2316 2303 
Q 2000 2303 1842 2098 
Q 1684 1894 1684 1484 
Q 1684 1075 1842 870 
Q 2000 666 2316 666 
Q 2634 666 2792 870 
Q 2950 1075 2950 1484 
Q 2950 1894 2792 2098 
Q 2634 2303 2316 2303 
z
M 3803 4544 
L 3803 3681 
Q 3506 3822 3243 3889 
Q 2981 3956 2731 3956 
Q 2194 3956 1894 3657 
Q 1594 3359 1544 2772 
Q 1750 2925 1990 3001 
Q 2231 3078 2516 3078 
Q 3231 3078 3670 2659 
Q 4109 2241 4109 1563 
Q 4109 813 3618 361 
Q 3128 -91 2303 -91 
Q 1394 -91 895 523 
Q 397 1138 397 2266 
Q 397 3422 980 4083 
Q 1563 4744 2578 4744 
Q 2900 4744 3203 4694 
Q 3506 4644 3803 4544 
z
" transform="scale(0.015625)"/>
      <path id="DejaVuSans-Bold-16" d="M 2981 2516 
Q 3453 2394 3698 2092 
Q 3944 1791 3944 1325 
Q 3944 631 3412 270 
Q 2881 -91 1863 -91 
Q 1503 -91 1142 -33 
Q 781 25 428 141 
L 428 1069 
Q 766 900 1098 814 
Q 1431 728 1753 728 
Q 2231 728 2486 893 
Q 2741 1059 2741 1369 
Q 2741 1688 2480 1852 
Q 2219 2016 1709 2016 
L 1228 2016 
L 1228 2791 
L 1734 2791 
Q 2188 2791 2409 2933 
Q 2631 3075 2631 3366 
Q 2631 3634 2415 3781 
Q 2200 3928 1806 3928 
Q 1516 3928 1219 3862 
Q 922 3797 628 3669 
L 628 4550 
Q 984 4650 1334 4700 
Q 1684 4750 2022 4750 
Q 2931 4750 3382 4451 
Q 3834 4153 3834 3553 
Q 3834 3144 3618 2883 
Q 3403 2622 2981 2516 
z
" transform="scale(0.015625)"/>
      <path id="DejaVuSans-Bold-11" d="M 653 1209 
L 1778 1209 
L 1778 0 
L 653 0 
L 653 1209 
z
" transform="scale(0.015625)"/>
      <path id="DejaVuSans-Bold-1b" d="M 2228 2088 
Q 1891 2088 1709 1903 
Q 1528 1719 1528 1375 
Q 1528 1031 1709 848 
Q 1891 666 2228 666 
Q 2563 666 2741 848 
Q 2919 1031 2919 1375 
Q 2919 1722 2741 1905 
Q 2563 2088 2228 2088 
z
M 1350 2484 
Q 925 2613 709 2878 
Q 494 3144 494 3541 
Q 494 4131 934 4440 
Q 1375 4750 2228 4750 
Q 3075 4750 3515 4442 
Q 3956 4134 3956 3541 
Q 3956 3144 3739 2878 
Q 3522 2613 3097 2484 
Q 3572 2353 3814 2058 
Q 4056 1763 4056 1313 
Q 4056 619 3595 264 
Q 3134 -91 2228 -91 
Q 1319 -91 855 264 
Q 391 619 391 1313 
Q 391 1763 633 2058 
Q 875 2353 1350 2484 
z
M 1631 3419 
Q 1631 3141 1786 2991 
Q 1941 2841 2228 2841 
Q 2509 2841 2662 2991 
Q 2816 3141 2816 3419 
Q 2816 3697 2662 3845 
Q 2509 3994 2228 3994 
Q 1941 3994 1786 3844 
Q 1631 3694 1631 3419 
z
" transform="scale(0.015625)"/>
      <path id="DejaVuSans-Bold-1c" d="M 641 103 
L 641 966 
Q 928 831 1190 764 
Q 1453 697 1709 697 
Q 2247 697 2547 995 
Q 2847 1294 2900 1881 
Q 2688 1725 2447 1647 
Q 2206 1569 1925 1569 
Q 1209 1569 770 1986 
Q 331 2403 331 3084 
Q 331 3838 820 4291 
Q 1309 4744 2131 4744 
Q 3044 4744 3544 4128 
Q 4044 3513 4044 2388 
Q 4044 1231 3459 570 
Q 2875 -91 1856 -91 
Q 1528 -91 1228 -42 
Q 928 6 641 103 
z
M 2125 2350 
Q 2441 2350 2600 2554 
Q 2759 2759 2759 3169 
Q 2759 3575 2600 3781 
Q 2441 3988 2125 3988 
Q 1809 3988 1650 3781 
Q 1491 3575 1491 3169 
Q 1491 2759 1650 2554 
Q 1809 2350 2125 2350 
z
" transform="scale(0.015625)"/>
      <path id="DejaVuSans-Bold-8" d="M 4959 1925 
Q 4738 1925 4616 1733 
Q 4494 1541 4494 1184 
Q 4494 825 4614 633 
Q 4734 441 4959 441 
Q 5184 441 5303 633 
Q 5422 825 5422 1184 
Q 5422 1541 5301 1733 
Q 5181 1925 4959 1925 
z
M 4959 2450 
Q 5541 2450 5875 2112 
Q 6209 1775 6209 1184 
Q 6209 594 5875 251 
Q 5541 -91 4959 -91 
Q 4378 -91 4042 251 
Q 3706 594 3706 1184 
Q 3706 1772 4042 2111 
Q 4378 2450 4959 2450 
z
M 2094 -91 
L 1403 -91 
L 4319 4750 
L 5013 4750 
L 2094 -91 
z
M 1453 4750 
Q 2034 4750 2367 4411 
Q 2700 4072 2700 3481 
Q 2700 2891 2367 2550 
Q 2034 2209 1453 2209 
Q 872 2209 539 2550 
Q 206 2891 206 3481 
Q 206 4072 539 4411 
Q 872 4750 1453 4750 
z
M 1453 4225 
Q 1228 4225 1106 4031 
Q 984 3838 984 3481 
Q 984 3122 1106 2926 
Q 1228 2731 1453 2731 
Q 1678 2731 1798 2926 
Q 1919 3122 1919 3481 
Q 1919 3838 1797 4031 
Q 1675 4225 1453 4225 
z
" transform="scale(0.015625)"/>
     </defs>
     <use xlink:href="#DejaVuSans-Bold-32"/>
     <use xlink:href="#DejaVuSans-Bold-35" transform="translate(85.015625 0)"/>
     <use xlink:href="#DejaVuSans-Bold-26" transform="translate(162.015625 0)"/>
     <use xlink:href="#DejaVuSans-Bold-24" transform="translate(235.40625 0)"/>
     <use xlink:href="#DejaVuSans-Bold-36" transform="translate(312.796875 0)"/>
     <use xlink:href="#DejaVuSans-Bold-2f" transform="translate(384.8125 0)"/>
     <use xlink:href="#DejaVuSans-Bold-2c" transform="translate(448.53125 0)"/>
     <use xlink:href="#DejaVuSans-Bold-26" transform="translate(485.734375 0)"/>
     <use xlink:href="#DejaVuSans-Bold-28" transform="translate(559.125 0)"/>
     <use xlink:href="#DejaVuSans-Bold-35" transform="translate(627.4375 0)"/>
     <use xlink:href="#DejaVuSans-Bold-25" transform="translate(704.4375 0)"/>
     <use xlink:href="#DejaVuSans-Bold-24" transform="translate(780.65625 0)"/>
     <use xlink:href="#DejaVuSans-Bold-30" transform="translate(858.046875 0)"/>
     <use xlink:href="#DejaVuSans-Bold-25" transform="translate(957.5625 0)"/>
     <use xlink:href="#DejaVuSans-Bold-38" transform="translate(1033.78125 0)"/>
     <use xlink:href="#DejaVuSans-Bold-2f" transform="translate(1114.984375 0)"/>
     <use xlink:href="#DejaVuSans-Bold-24" transform="translate(1178.703125 0)"/>
     <use xlink:href="#DejaVuSans-Bold-25" transform="translate(1256.09375 0)"/>
     <use xlink:href="#DejaVuSans-Bold-3" transform="translate(1332.3125 0)"/>
     <use xlink:href="#DejaVuSans-Bold-b" transform="translate(1367.125 0)"/>
     <use xlink:href="#DejaVuSans-Bold-29" transform="translate(1412.828125 0)"/>
     <use xlink:href="#DejaVuSans-Bold-38" transform="translate(1481.140625 0)"/>
     <use xlink:href="#DejaVuSans-Bold-2f" transform="translate(1562.34375 0)"/>
     <use xlink:href="#DejaVuSans-Bold-38" transform="translate(1622.5 0)"/>
     <use xlink:href="#DejaVuSans-Bold-10" transform="translate(1703.703125 0)"/>
     <use xlink:href="#DejaVuSans-Bold-29" transform="translate(1745.203125 0)"/>
     <use xlink:href="#DejaVuSans-Bold-52" transform="translate(1809.46875 0)"/>
     <use xlink:href="#DejaVuSans-Bold-58" transform="translate(1878.171875 0)"/>
     <use xlink:href="#DejaVuSans-Bold-51" transform="translate(1949.359375 0)"/>
     <use xlink:href="#DejaVuSans-Bold-47" transform="translate(2020.546875 0)"/>
     <use xlink:href="#DejaVuSans-Bold-44" transform="translate(2092.125 0)"/>
     <use xlink:href="#DejaVuSans-Bold-57" transform="translate(2159.609375 0)"/>
     <use xlink:href="#DejaVuSans-Bold-4c" transform="translate(2207.40625 0)"/>
     <use xlink:href="#DejaVuSans-Bold-52" transform="translate(2241.6875 0)"/>
     <use xlink:href="#DejaVuSans-Bold-51" transform="translate(2310.390625 0)"/>
     <use xlink:href="#DejaVuSans-Bold-12" transform="translate(2381.578125 0)"/>
     <use xlink:href="#DejaVuSans-Bold-32" transform="translate(2418.109375 0)"/>
     <use xlink:href="#DejaVuSans-Bold-55" transform="translate(2503.125 0)"/>
     <use xlink:href="#DejaVuSans-Bold-46" transform="translate(2552.4375 0)"/>
     <use xlink:href="#DejaVuSans-Bold-44" transform="translate(2611.71875 0)"/>
     <use xlink:href="#DejaVuSans-Bold-36" transform="translate(2679.203125 0)"/>
     <use xlink:href="#DejaVuSans-Bold-4f" transform="translate(2751.21875 0)"/>
     <use xlink:href="#DejaVuSans-Bold-4c" transform="translate(2785.5 0)"/>
     <use xlink:href="#DejaVuSans-Bold-46" transform="translate(2819.78125 0)"/>
     <use xlink:href="#DejaVuSans-Bold-48" transform="translate(2879.0625 0)"/>
     <use xlink:href="#DejaVuSans-Bold-55" transform="translate(2946.890625 0)"/>
     <use xlink:href="#DejaVuSans-Bold-10" transform="translate(2996.203125 0)"/>
     <use xlink:href="#DejaVuSans-Bold-45" transform="translate(3037.703125 0)"/>
     <use xlink:href="#DejaVuSans-Bold-44" transform="translate(3109.28125 0)"/>
     <use xlink:href="#DejaVuSans-Bold-50" transform="translate(3176.765625 0)"/>
     <use xlink:href="#DejaVuSans-Bold-45" transform="translate(3280.96875 0)"/>
     <use xlink:href="#DejaVuSans-Bold-58" transform="translate(3352.546875 0)"/>
     <use xlink:href="#DejaVuSans-Bold-4f" transform="translate(3423.734375 0)"/>
     <use xlink:href="#DejaVuSans-Bold-44" transform="translate(3458.015625 0)"/>
     <use xlink:href="#DejaVuSans-Bold-45" transform="translate(3525.5 0)"/>
     <use xlink:href="#DejaVuSans-Bold-c" transform="translate(3597.078125 0)"/>
     <use xlink:href="#DejaVuSans-Bold-3" transform="translate(3642.78125 0)"/>
     <use xlink:href="#DejaVuSans-Bold-af6" transform="translate(3677.59375 0)"/>
     <use xlink:href="#DejaVuSans-Bold-3" transform="translate(3777.59375 0)"/>
     <use xlink:href="#DejaVuSans-Bold-7" transform="translate(3812.40625 0)"/>
     <use xlink:href="#DejaVuSans-Bold-14" transform="translate(3881.984375 0)"/>
     <use xlink:href="#DejaVuSans-Bold-19" transform="translate(3951.5625 0)"/>
     <use xlink:href="#DejaVuSans-Bold-16" transform="translate(4021.140625 0)"/>
     <use xlink:href="#DejaVuSans-Bold-11" transform="translate(4090.71875 0)"/>
     <use xlink:href="#DejaVuSans-Bold-1b" transform="translate(4128.703125 0)"/>
     <use xlink:href="#DejaVuSans-Bold-19" transform="translate(4198.28125 0)"/>
     <use xlink:href="#DejaVuSans-Bold-3" transform="translate(4267.859375 0)"/>
     <use xlink:href="#DejaVuSans-Bold-b" transform="translate(4302.671875 0)"/>
     <use xlink:href="#DejaVuSans-Bold-10" transform="translate(4348.375 0)"/>
     <use xlink:href="#DejaVuSans-Bold-14" transform="translate(4389.875 0)"/>
     <use xlink:href="#DejaVuSans-Bold-11" transform="translate(4459.453125 0)"/>
     <use xlink:href="#DejaVuSans-Bold-1c" transform="translate(4497.4375 0)"/>
     <use xlink:href="#DejaVuSans-Bold-19" transform="translate(4567.015625 0)"/>
     <use xlink:href="#DejaVuSans-Bold-8" transform="translate(4636.59375 0)"/>
     <use xlink:href="#DejaVuSans-Bold-c" transform="translate(4736.796875 0)"/>
    </g>
   </g>
  </g>
 </g>
 <defs>
  <clipPath id="pff4aa75d00">
   <rect x="78.6175" y="21.558281" width="383.24" height="128.76"/>
  </clipPath>
 </defs>
</svg>
