<?xml version="1.0" encoding="utf-8" standalone="no"?>
<!DOCTYPE svg PUBLIC "-//W3C//DTD SVG 1.1//EN"
  "http://www.w3.org/Graphics/SVG/1.1/DTD/svg11.dtd">
<svg xmlns:xlink="http://www.w3.org/1999/xlink" width="424.91pt" height="173.060781pt" viewBox="0 0 424.91 173.060781" xmlns="http://www.w3.org/2000/svg" version="1.1">
 <metadata>
  <rdf:RDF xmlns:dc="http://purl.org/dc/elements/1.1/" xmlns:cc="http://creativecommons.org/ns#" xmlns:rdf="http://www.w3.org/1999/02/22-rdf-syntax-ns#">
   <cc:Work>
    <dc:type rdf:resource="http://purl.org/dc/dcmitype/StillImage"/>
    <dc:date>2026-04-17T12:22:24.491449</dc:date>
    <dc:format>image/svg+xml</dc:format>
    <dc:creator>
     <cc:Agent>
      <dc:title>Matplotlib v3.10.8, https://matplotlib.org/</dc:title>
     </cc:Agent>
    </dc:creator>
   </cc:Work>
  </rdf:RDF>
 </metadata>
 <defs>
  <style type="text/css">*{stroke-linejoin: round; stroke-linecap: butt}</style>
 </defs>
 <g id="figure_1">
  <g id="patch_1">
   <path d="M 0 173.060781 
L 424.91 173.060781 
L 424.91 0 
L 0 0 
z
" style="fill: #0d1117"/>
  </g>
  <g id="axes_1">
   <g id="patch_2">
    <path d="M 34.56 151.118281 
L 417.71 151.118281 
L 417.71 21.558281 
L 34.56 21.558281 
z
" style="fill: #0d1117"/>
   </g>
   <g id="FillBetweenPolyCollection_1">
    <defs>
     <path id="md09cce9a49" d="M 51.975909 -27.831591 
L 51.975909 -136.092758 
L 55.201077 -137.636435 
L 58.426246 -116.730182 
L 61.651414 -102.899771 
L 64.876582 -106.794227 
L 68.101751 -106.805981 
L 71.326919 -111.235892 
L 74.552088 -106.893482 
L 77.777256 -138.294653 
L 81.002424 -133.389363 
L 84.227593 -138.585889 
L 87.452761 -136.55116 
L 90.677929 -142.592659 
L 93.903098 -137.330834 
L 97.128266 -143.20125 
L 100.353434 -133.406341 
L 103.578603 -142.566539 
L 106.803771 -136.668698 
L 110.028939 -120.79311 
L 113.254108 -140.956256 
L 116.479276 -137.700429 
L 119.704444 -141.922687 
L 122.929613 -134.511207 
L 126.154781 -137.501919 
L 129.379949 -135.205992 
L 132.605118 -137.908081 
L 135.830286 -139.291122 
L 139.055455 -115.042846 
L 142.280623 -136.91553 
L 145.505791 -137.080085 
L 148.73096 -140.909241 
L 151.956128 -104.495688 
L 155.181296 -110.219833 
L 158.406465 -108.314397 
L 161.631633 -110.491478 
L 164.856801 -103.605005 
L 168.08197 -143.581292 
L 171.307138 -138.657718 
L 174.532306 -136.872433 
L 177.757475 -137.356954 
L 180.982643 -137.244639 
L 184.207811 -135.182484 
L 187.43298 -133.402423 
L 190.658148 -139.671164 
L 193.883316 -138.362565 
L 197.108485 -137.117958 
L 200.333653 -138.657718 
L 203.558822 -139.641127 
L 206.78399 -135.822418 
L 210.009158 -137.244639 
L 213.234327 -132.300169 
L 216.459495 -117.754077 
L 219.684663 -118.373115 
L 222.909832 -133.304474 
L 226.135 -117.129815 
L 229.360168 -131.623667 
L 232.585337 -132.6123 
L 235.810505 -142.826431 
L 239.035673 -100.777541 
L 242.260842 -100.01615 
L 245.48601 -93.940695 
L 248.711178 -105.584882 
L 251.936347 -105.758579 
L 255.161515 -123.792964 
L 258.386684 -112.024708 
L 261.611852 -124.587005 
L 264.83702 -140.770806 
L 268.062189 -131.918821 
L 271.287357 -138.345587 
L 274.512525 -138.593725 
L 277.737694 -139.036454 
L 280.962862 -141.442084 
L 284.18803 -132.848684 
L 287.413199 -133.603545 
L 290.638367 -140.198784 
L 293.863535 -136.871127 
L 297.088704 -134.987892 
L 300.313872 -136.800603 
L 303.53904 -135.536407 
L 306.764209 -114.16261 
L 309.989377 -131.57404 
L 313.214545 -123.480833 
L 316.439714 -115.454232 
L 319.664882 -137.908081 
L 322.890051 -136.937732 
L 326.115219 -142.601801 
L 329.340387 -126.256058 
L 332.565556 -145.352212 
L 335.790724 -137.029151 
L 339.015892 -100.400111 
L 342.241061 -111.384774 
L 345.466229 -129.536699 
L 348.691397 -140.482183 
L 351.916566 -133.470334 
L 355.141734 -143.726257 
L 358.366902 -132.196996 
L 361.592071 -141.358501 
L 364.817239 -137.465351 
L 368.042407 -137.215907 
L 371.267576 -135.464578 
L 374.492744 -141.515219 
L 377.717912 -137.564606 
L 380.943081 -135.762343 
L 384.168249 -139.485714 
L 387.393418 -134.085455 
L 390.618586 -143.053673 
L 393.843754 -114.487801 
L 397.068923 -145.613409 
L 400.294091 -129.39957 
L 400.294091 -27.831591 
L 400.294091 -27.831591 
L 397.068923 -27.831591 
L 393.843754 -27.831591 
L 390.618586 -27.831591 
L 387.393418 -27.831591 
L 384.168249 -27.831591 
L 380.943081 -27.831591 
L 377.717912 -27.831591 
L 374.492744 -27.831591 
L 371.267576 -27.831591 
L 368.042407 -27.831591 
L 364.817239 -27.831591 
L 361.592071 -27.831591 
L 358.366902 -27.831591 
L 355.141734 -27.831591 
L 351.916566 -27.831591 
L 348.691397 -27.831591 
L 345.466229 -27.831591 
L 342.241061 -27.831591 
L 339.015892 -27.831591 
L 335.790724 -27.831591 
L 332.565556 -27.831591 
L 329.340387 -27.831591 
L 326.115219 -27.831591 
L 322.890051 -27.831591 
L 319.664882 -27.831591 
L 316.439714 -27.831591 
L 313.214545 -27.831591 
L 309.989377 -27.831591 
L 306.764209 -27.831591 
L 303.53904 -27.831591 
L 300.313872 -27.831591 
L 297.088704 -27.831591 
L 293.863535 -27.831591 
L 290.638367 -27.831591 
L 287.413199 -27.831591 
L 284.18803 -27.831591 
L 280.962862 -27.831591 
L 277.737694 -27.831591 
L 274.512525 -27.831591 
L 271.287357 -27.831591 
L 268.062189 -27.831591 
L 264.83702 -27.831591 
L 261.611852 -27.831591 
L 258.386684 -27.831591 
L 255.161515 -27.831591 
L 251.936347 -27.831591 
L 248.711178 -27.831591 
L 245.48601 -27.831591 
L 242.260842 -27.831591 
L 239.035673 -27.831591 
L 235.810505 -27.831591 
L 232.585337 -27.831591 
L 229.360168 -27.831591 
L 226.135 -27.831591 
L 222.909832 -27.831591 
L 219.684663 -27.831591 
L 216.459495 -27.831591 
L 213.234327 -27.831591 
L 210.009158 -27.831591 
L 206.78399 -27.831591 
L 203.558822 -27.831591 
L 200.333653 -27.831591 
L 197.108485 -27.831591 
L 193.883316 -27.831591 
L 190.658148 -27.831591 
L 187.43298 -27.831591 
L 184.207811 -27.831591 
L 180.982643 -27.831591 
L 177.757475 -27.831591 
L 174.532306 -27.831591 
L 171.307138 -27.831591 
L 168.08197 -27.831591 
L 164.856801 -27.831591 
L 161.631633 -27.831591 
L 158.406465 -27.831591 
L 155.181296 -27.831591 
L 151.956128 -27.831591 
L 148.73096 -27.831591 
L 145.505791 -27.831591 
L 142.280623 -27.831591 
L 139.055455 -27.831591 
L 135.830286 -27.831591 
L 132.605118 -27.831591 
L 129.379949 -27.831591 
L 126.154781 -27.831591 
L 122.929613 -27.831591 
L 119.704444 -27.831591 
L 116.479276 -27.831591 
L 113.254108 -27.831591 
L 110.028939 -27.831591 
L 106.803771 -27.831591 
L 103.578603 -27.831591 
L 100.353434 -27.831591 
L 97.128266 -27.831591 
L 93.903098 -27.831591 
L 90.677929 -27.831591 
L 87.452761 -27.831591 
L 84.227593 -27.831591 
L 81.002424 -27.831591 
L 77.777256 -27.831591 
L 74.552088 -27.831591 
L 71.326919 -27.831591 
L 68.101751 -27.831591 
L 64.876582 -27.831591 
L 61.651414 -27.831591 
L 58.426246 -27.831591 
L 55.201077 -27.831591 
L 51.975909 -27.831591 
z
" style="stroke: #f85149; stroke-opacity: 0.15"/>
    </defs>
    <g clip-path="url(#pc398f97d06)">
     <use xlink:href="#md09cce9a49" x="0" y="173.060781" style="fill: #f85149; fill-opacity: 0.15; stroke: #f85149; stroke-opacity: 0.15"/>
    </g>
   </g>
   <g id="matplotlib.axis_1">
    <g id="xtick_1">
     <g id="line2d_1">
      <path d="M 51.975909 151.118281 
L 51.975909 21.558281 
" clip-path="url(#pc398f97d06)" style="fill: none; stroke: #21262d; stroke-opacity: 0.5; stroke-width: 0.5; stroke-linecap: square"/>
     </g>
     <g id="line2d_2">
      <defs>
       <path id="mb4c6a2d063" d="M 0 0 
L 0 3.5 
" style="stroke: #c9d1d9; stroke-width: 0.8"/>
      </defs>
      <g>
       <use xlink:href="#mb4c6a2d063" x="51.975909" y="151.118281" style="fill: #c9d1d9; stroke: #c9d1d9; stroke-width: 0.8"/>
      </g>
     </g>
     <g id="text_1">
      <!-- 0 -->
      <g style="fill: #c9d1d9" transform="translate(49.430909 164.197031) scale(0.08 -0.08)">
       <defs>
        <path id="DejaVuSans-30" d="M 2034 4250 
Q 1547 4250 1301 3770 
Q 1056 3291 1056 2328 
Q 1056 1369 1301 889 
Q 1547 409 2034 409 
Q 2525 409 2770 889 
Q 3016 1369 3016 2328 
Q 3016 3291 2770 3770 
Q 2525 4250 2034 4250 
z
M 2034 4750 
Q 2819 4750 3233 4129 
Q 3647 3509 3647 2328 
Q 3647 1150 3233 529 
Q 2819 -91 2034 -91 
Q 1250 -91 836 529 
Q 422 1150 422 2328 
Q 422 3509 836 4129 
Q 1250 4750 2034 4750 
z
" transform="scale(0.015625)"/>
       </defs>
       <use xlink:href="#DejaVuSans-30"/>
      </g>
     </g>
    </g>
    <g id="xtick_2">
     <g id="line2d_3">
      <path d="M 116.479276 151.118281 
L 116.479276 21.558281 
" clip-path="url(#pc398f97d06)" style="fill: none; stroke: #21262d; stroke-opacity: 0.5; stroke-width: 0.5; stroke-linecap: square"/>
     </g>
     <g id="line2d_4">
      <g>
       <use xlink:href="#mb4c6a2d063" x="116.479276" y="151.118281" style="fill: #c9d1d9; stroke: #c9d1d9; stroke-width: 0.8"/>
      </g>
     </g>
     <g id="text_2">
      <!-- 20 -->
      <g style="fill: #c9d1d9" transform="translate(111.389276 164.197031) scale(0.08 -0.08)">
       <defs>
        <path id="DejaVuSans-32" d="M 1228 531 
L 3431 531 
L 3431 0 
L 469 0 
L 469 531 
Q 828 903 1448 1529 
Q 2069 2156 2228 2338 
Q 2531 2678 2651 2914 
Q 2772 3150 2772 3378 
Q 2772 3750 2511 3984 
Q 2250 4219 1831 4219 
Q 1534 4219 1204 4116 
Q 875 4013 500 3803 
L 500 4441 
Q 881 4594 1212 4672 
Q 1544 4750 1819 4750 
Q 2544 4750 2975 4387 
Q 3406 4025 3406 3419 
Q 3406 3131 3298 2873 
Q 3191 2616 2906 2266 
Q 2828 2175 2409 1742 
Q 1991 1309 1228 531 
z
" transform="scale(0.015625)"/>
       </defs>
       <use xlink:href="#DejaVuSans-32"/>
       <use xlink:href="#DejaVuSans-30" transform="translate(63.623047 0)"/>
      </g>
     </g>
    </g>
    <g id="xtick_3">
     <g id="line2d_5">
      <path d="M 180.982643 151.118281 
L 180.982643 21.558281 
" clip-path="url(#pc398f97d06)" style="fill: none; stroke: #21262d; stroke-opacity: 0.5; stroke-width: 0.5; stroke-linecap: square"/>
     </g>
     <g id="line2d_6">
      <g>
       <use xlink:href="#mb4c6a2d063" x="180.982643" y="151.118281" style="fill: #c9d1d9; stroke: #c9d1d9; stroke-width: 0.8"/>
      </g>
     </g>
     <g id="text_3">
      <!-- 40 -->
      <g style="fill: #c9d1d9" transform="translate(175.892643 164.197031) scale(0.08 -0.08)">
       <defs>
        <path id="DejaVuSans-34" d="M 2419 4116 
L 825 1625 
L 2419 1625 
L 2419 4116 
z
M 2253 4666 
L 3047 4666 
L 3047 1625 
L 3713 1625 
L 3713 1100 
L 3047 1100 
L 3047 0 
L 2419 0 
L 2419 1100 
L 313 1100 
L 313 1709 
L 2253 4666 
z
" transform="scale(0.015625)"/>
       </defs>
       <use xlink:href="#DejaVuSans-34"/>
       <use xlink:href="#DejaVuSans-30" transform="translate(63.623047 0)"/>
      </g>
     </g>
    </g>
    <g id="xtick_4">
     <g id="line2d_7">
      <path d="M 245.48601 151.118281 
L 245.48601 21.558281 
" clip-path="url(#pc398f97d06)" style="fill: none; stroke: #21262d; stroke-opacity: 0.5; stroke-width: 0.5; stroke-linecap: square"/>
     </g>
     <g id="line2d_8">
      <g>
       <use xlink:href="#mb4c6a2d063" x="245.48601" y="151.118281" style="fill: #c9d1d9; stroke: #c9d1d9; stroke-width: 0.8"/>
      </g>
     </g>
     <g id="text_4">
      <!-- 60 -->
      <g style="fill: #c9d1d9" transform="translate(240.39601 164.197031) scale(0.08 -0.08)">
       <defs>
        <path id="DejaVuSans-36" d="M 2113 2584 
Q 1688 2584 1439 2293 
Q 1191 2003 1191 1497 
Q 1191 994 1439 701 
Q 1688 409 2113 409 
Q 2538 409 2786 701 
Q 3034 994 3034 1497 
Q 3034 2003 2786 2293 
Q 2538 2584 2113 2584 
z
M 3366 4563 
L 3366 3988 
Q 3128 4100 2886 4159 
Q 2644 4219 2406 4219 
Q 1781 4219 1451 3797 
Q 1122 3375 1075 2522 
Q 1259 2794 1537 2939 
Q 1816 3084 2150 3084 
Q 2853 3084 3261 2657 
Q 3669 2231 3669 1497 
Q 3669 778 3244 343 
Q 2819 -91 2113 -91 
Q 1303 -91 875 529 
Q 447 1150 447 2328 
Q 447 3434 972 4092 
Q 1497 4750 2381 4750 
Q 2619 4750 2861 4703 
Q 3103 4656 3366 4563 
z
" transform="scale(0.015625)"/>
       </defs>
       <use xlink:href="#DejaVuSans-36"/>
       <use xlink:href="#DejaVuSans-30" transform="translate(63.623047 0)"/>
      </g>
     </g>
    </g>
    <g id="xtick_5">
     <g id="line2d_9">
      <path d="M 309.989377 151.118281 
L 309.989377 21.558281 
" clip-path="url(#pc398f97d06)" style="fill: none; stroke: #21262d; stroke-opacity: 0.5; stroke-width: 0.5; stroke-linecap: square"/>
     </g>
     <g id="line2d_10">
      <g>
       <use xlink:href="#mb4c6a2d063" x="309.989377" y="151.118281" style="fill: #c9d1d9; stroke: #c9d1d9; stroke-width: 0.8"/>
      </g>
     </g>
     <g id="text_5">
      <!-- 80 -->
      <g style="fill: #c9d1d9" transform="translate(304.899377 164.197031) scale(0.08 -0.08)">
       <defs>
        <path id="DejaVuSans-38" d="M 2034 2216 
Q 1584 2216 1326 1975 
Q 1069 1734 1069 1313 
Q 1069 891 1326 650 
Q 1584 409 2034 409 
Q 2484 409 2743 651 
Q 3003 894 3003 1313 
Q 3003 1734 2745 1975 
Q 2488 2216 2034 2216 
z
M 1403 2484 
Q 997 2584 770 2862 
Q 544 3141 544 3541 
Q 544 4100 942 4425 
Q 1341 4750 2034 4750 
Q 2731 4750 3128 4425 
Q 3525 4100 3525 3541 
Q 3525 3141 3298 2862 
Q 3072 2584 2669 2484 
Q 3125 2378 3379 2068 
Q 3634 1759 3634 1313 
Q 3634 634 3220 271 
Q 2806 -91 2034 -91 
Q 1263 -91 848 271 
Q 434 634 434 1313 
Q 434 1759 690 2068 
Q 947 2378 1403 2484 
z
M 1172 3481 
Q 1172 3119 1398 2916 
Q 1625 2713 2034 2713 
Q 2441 2713 2670 2916 
Q 2900 3119 2900 3481 
Q 2900 3844 2670 4047 
Q 2441 4250 2034 4250 
Q 1625 4250 1398 4047 
Q 1172 3844 1172 3481 
z
" transform="scale(0.015625)"/>
       </defs>
       <use xlink:href="#DejaVuSans-38"/>
       <use xlink:href="#DejaVuSans-30" transform="translate(63.623047 0)"/>
      </g>
     </g>
    </g>
    <g id="xtick_6">
     <g id="line2d_11">
      <path d="M 374.492744 151.118281 
L 374.492744 21.558281 
" clip-path="url(#pc398f97d06)" style="fill: none; stroke: #21262d; stroke-opacity: 0.5; stroke-width: 0.5; stroke-linecap: square"/>
     </g>
     <g id="line2d_12">
      <g>
       <use xlink:href="#mb4c6a2d063" x="374.492744" y="151.118281" style="fill: #c9d1d9; stroke: #c9d1d9; stroke-width: 0.8"/>
      </g>
     </g>
     <g id="text_6">
      <!-- 100 -->
      <g style="fill: #c9d1d9" transform="translate(366.857744 164.197031) scale(0.08 -0.08)">
       <defs>
        <path id="DejaVuSans-31" d="M 794 531 
L 1825 531 
L 1825 4091 
L 703 3866 
L 703 4441 
L 1819 4666 
L 2450 4666 
L 2450 531 
L 3481 531 
L 3481 0 
L 794 0 
L 794 531 
z
" transform="scale(0.015625)"/>
       </defs>
       <use xlink:href="#DejaVuSans-31"/>
       <use xlink:href="#DejaVuSans-30" transform="translate(63.623047 0)"/>
       <use xlink:href="#DejaVuSans-30" transform="translate(127.246094 0)"/>
      </g>
     </g>
    </g>
   </g>
   <g id="matplotlib.axis_2">
    <g id="ytick_1">
     <g id="line2d_13">
      <path d="M 34.56 145.22919 
L 417.71 145.22919 
" clip-path="url(#pc398f97d06)" style="fill: none; stroke: #21262d; stroke-opacity: 0.5; stroke-width: 0.5; stroke-linecap: square"/>
     </g>
     <g id="line2d_14">
      <defs>
       <path id="me1066d8288" d="M 0 0 
L -3.5 0 
" style="stroke: #c9d1d9; stroke-width: 0.8"/>
      </defs>
      <g>
       <use xlink:href="#me1066d8288" x="34.56" y="145.22919" style="fill: #c9d1d9; stroke: #c9d1d9; stroke-width: 0.8"/>
      </g>
     </g>
     <g id="text_7">
      <!-- $0 -->
      <g style="fill: #c9d1d9" transform="translate(17.38 148.268565) scale(0.08 -0.08)">
       <defs>
        <path id="DejaVuSans-24" d="M 2163 -941 
L 1850 -941 
L 1847 0 
Q 1519 6 1191 76 
Q 863 147 531 288 
L 531 850 
Q 850 650 1176 548 
Q 1503 447 1850 444 
L 1850 1869 
Q 1159 1981 845 2250 
Q 531 2519 531 2988 
Q 531 3497 872 3790 
Q 1213 4084 1850 4128 
L 1850 4863 
L 2163 4863 
L 2163 4138 
Q 2453 4125 2725 4076 
Q 2997 4028 3256 3944 
L 3256 3397 
Q 2997 3528 2723 3600 
Q 2450 3672 2163 3684 
L 2163 2350 
Q 2872 2241 3206 1959 
Q 3541 1678 3541 1191 
Q 3541 663 3186 358 
Q 2831 53 2163 6 
L 2163 -941 
z
M 1850 2406 
L 1850 3688 
Q 1488 3647 1297 3481 
Q 1106 3316 1106 3041 
Q 1106 2772 1282 2622 
Q 1459 2472 1850 2406 
z
M 2163 1806 
L 2163 453 
Q 2559 506 2761 678 
Q 2963 850 2963 1131 
Q 2963 1406 2770 1568 
Q 2578 1731 2163 1806 
z
" transform="scale(0.015625)"/>
       </defs>
       <use xlink:href="#DejaVuSans-24"/>
       <use xlink:href="#DejaVuSans-30" transform="translate(63.623047 0)"/>
      </g>
     </g>
    </g>
    <g id="ytick_2">
     <g id="line2d_15">
      <path d="M 34.56 119.109434 
L 417.71 119.109434 
" clip-path="url(#pc398f97d06)" style="fill: none; stroke: #21262d; stroke-opacity: 0.5; stroke-width: 0.5; stroke-linecap: square"/>
     </g>
     <g id="line2d_16">
      <g>
       <use xlink:href="#me1066d8288" x="34.56" y="119.109434" style="fill: #c9d1d9; stroke: #c9d1d9; stroke-width: 0.8"/>
      </g>
     </g>
     <g id="text_8">
      <!-- $200 -->
      <g style="fill: #c9d1d9" transform="translate(7.2 122.148809) scale(0.08 -0.08)">
       <use xlink:href="#DejaVuSans-24"/>
       <use xlink:href="#DejaVuSans-32" transform="translate(63.623047 0)"/>
       <use xlink:href="#DejaVuSans-30" transform="translate(127.246094 0)"/>
       <use xlink:href="#DejaVuSans-30" transform="translate(190.869141 0)"/>
      </g>
     </g>
    </g>
    <g id="ytick_3">
     <g id="line2d_17">
      <path d="M 34.56 92.989677 
L 417.71 92.989677 
" clip-path="url(#pc398f97d06)" style="fill: none; stroke: #21262d; stroke-opacity: 0.5; stroke-width: 0.5; stroke-linecap: square"/>
     </g>
     <g id="line2d_18">
      <g>
       <use xlink:href="#me1066d8288" x="34.56" y="92.989677" style="fill: #c9d1d9; stroke: #c9d1d9; stroke-width: 0.8"/>
      </g>
     </g>
     <g id="text_9">
      <!-- $400 -->
      <g style="fill: #c9d1d9" transform="translate(7.2 96.029052) scale(0.08 -0.08)">
       <use xlink:href="#DejaVuSans-24"/>
       <use xlink:href="#DejaVuSans-34" transform="translate(63.623047 0)"/>
       <use xlink:href="#DejaVuSans-30" transform="translate(127.246094 0)"/>
       <use xlink:href="#DejaVuSans-30" transform="translate(190.869141 0)"/>
      </g>
     </g>
    </g>
    <g id="ytick_4">
     <g id="line2d_19">
      <path d="M 34.56 66.869921 
L 417.71 66.869921 
" clip-path="url(#pc398f97d06)" style="fill: none; stroke: #21262d; stroke-opacity: 0.5; stroke-width: 0.5; stroke-linecap: square"/>
     </g>
     <g id="line2d_20">
      <g>
       <use xlink:href="#me1066d8288" x="34.56" y="66.869921" style="fill: #c9d1d9; stroke: #c9d1d9; stroke-width: 0.8"/>
      </g>
     </g>
     <g id="text_10">
      <!-- $600 -->
      <g style="fill: #c9d1d9" transform="translate(7.2 69.909296) scale(0.08 -0.08)">
       <use xlink:href="#DejaVuSans-24"/>
       <use xlink:href="#DejaVuSans-36" transform="translate(63.623047 0)"/>
       <use xlink:href="#DejaVuSans-30" transform="translate(127.246094 0)"/>
       <use xlink:href="#DejaVuSans-30" transform="translate(190.869141 0)"/>
      </g>
     </g>
    </g>
    <g id="ytick_5">
     <g id="line2d_21">
      <path d="M 34.56 40.750164 
L 417.71 40.750164 
" clip-path="url(#pc398f97d06)" style="fill: none; stroke: #21262d; stroke-opacity: 0.5; stroke-width: 0.5; stroke-linecap: square"/>
     </g>
     <g id="line2d_22">
      <g>
       <use xlink:href="#me1066d8288" x="34.56" y="40.750164" style="fill: #c9d1d9; stroke: #c9d1d9; stroke-width: 0.8"/>
      </g>
     </g>
     <g id="text_11">
      <!-- $800 -->
      <g style="fill: #c9d1d9" transform="translate(7.2 43.789539) scale(0.08 -0.08)">
       <use xlink:href="#DejaVuSans-24"/>
       <use xlink:href="#DejaVuSans-38" transform="translate(63.623047 0)"/>
       <use xlink:href="#DejaVuSans-30" transform="translate(127.246094 0)"/>
       <use xlink:href="#DejaVuSans-30" transform="translate(190.869141 0)"/>
      </g>
     </g>
    </g>
   </g>
   <g id="line2d_23">
    <path d="M 51.975909 36.968023 
L 55.201077 35.424346 
L 58.426246 56.330599 
L 61.651414 70.16101 
L 64.876582 66.266554 
L 68.101751 66.2548 
L 71.326919 61.82489 
L 74.552088 66.167299 
L 77.777256 34.766128 
L 81.002424 39.671418 
L 84.227593 34.474893 
L 87.452761 36.509622 
L 90.677929 30.468122 
L 93.903098 35.729947 
L 97.128266 29.859532 
L 100.353434 39.65444 
L 103.578603 30.494242 
L 106.803771 36.392083 
L 110.028939 52.267671 
L 113.254108 32.104525 
L 116.479276 35.360352 
L 119.704444 31.138094 
L 122.929613 38.549575 
L 126.154781 35.558863 
L 129.379949 37.854789 
L 132.605118 35.1527 
L 135.830286 33.769659 
L 139.055455 58.017935 
L 142.280623 36.145251 
L 145.505791 35.980697 
L 148.73096 32.15154 
L 151.956128 68.565093 
L 155.181296 62.840948 
L 158.406465 64.746385 
L 161.631633 62.569303 
L 164.856801 69.455777 
L 168.08197 29.479489 
L 171.307138 34.403063 
L 174.532306 36.188349 
L 177.757475 35.703827 
L 180.982643 35.816142 
L 184.207811 37.878297 
L 187.43298 39.658358 
L 190.658148 33.389617 
L 193.883316 34.698217 
L 197.108485 35.942823 
L 200.333653 34.403063 
L 203.558822 33.419654 
L 206.78399 37.238363 
L 210.009158 35.816142 
L 213.234327 40.760612 
L 216.459495 55.306704 
L 219.684663 54.687666 
L 222.909832 39.756307 
L 226.135 55.930967 
L 229.360168 41.437114 
L 232.585337 40.448481 
L 235.810505 30.23435 
L 239.035673 72.28324 
L 242.260842 73.044631 
L 245.48601 79.120087 
L 248.711178 67.475899 
L 251.936347 67.302203 
L 255.161515 49.267817 
L 258.386684 61.036073 
L 261.611852 48.473776 
L 264.83702 32.289975 
L 268.062189 41.141961 
L 271.287357 34.715194 
L 274.512525 34.467057 
L 277.737694 34.024327 
L 280.962862 31.618697 
L 284.18803 40.212097 
L 287.413199 39.457236 
L 290.638367 32.861998 
L 293.863535 36.189655 
L 297.088704 38.072889 
L 300.313872 36.260178 
L 303.53904 37.524374 
L 306.764209 58.898171 
L 309.989377 41.486741 
L 313.214545 49.579948 
L 316.439714 57.606549 
L 319.664882 35.1527 
L 322.890051 36.123049 
L 326.115219 30.45898 
L 329.340387 46.804724 
L 332.565556 27.70857 
L 335.790724 36.03163 
L 339.015892 72.660671 
L 342.241061 61.676007 
L 345.466229 43.524082 
L 348.691397 32.578598 
L 351.916566 39.590447 
L 355.141734 29.334525 
L 358.366902 40.863785 
L 361.592071 31.702281 
L 364.817239 35.59543 
L 368.042407 35.844874 
L 371.267576 37.596204 
L 374.492744 31.545562 
L 377.717912 35.496175 
L 380.943081 37.298438 
L 384.168249 33.575067 
L 387.393418 38.975327 
L 390.618586 30.007108 
L 393.843754 58.57298 
L 397.068923 27.447372 
L 400.294091 43.661211 
" clip-path="url(#pc398f97d06)" style="fill: none; stroke: #f85149; stroke-width: 2; stroke-linecap: square"/>
   </g>
   <g id="patch_3">
    <path d="M 34.56 151.118281 
L 34.56 21.558281 
" style="fill: none; stroke: #21262d; stroke-width: 0.8; stroke-linejoin: miter; stroke-linecap: square"/>
   </g>
   <g id="patch_4">
    <path d="M 34.56 151.118281 
L 417.71 151.118281 
" style="fill: none; stroke: #21262d; stroke-width: 0.8; stroke-linejoin: miter; stroke-linecap: square"/>
   </g>
   <g id="text_12">
    <!-- VSCODE (microsoft/vscode) — $777.71 (-13.77%) -->
    <g style="fill: #c9d1d9" transform="translate(74.413203 15.558281) scale(0.11 -0.11)">
     <defs>
      <path id="DejaVuSans-Bold-56" d="M 31 4666 
L 1241 4666 
L 2478 1222 
L 3713 4666 
L 4922 4666 
L 3194 0 
L 1759 0 
L 31 4666 
z
" transform="scale(0.015625)"/>
      <path id="DejaVuSans-Bold-53" d="M 3834 4519 
L 3834 3531 
Q 3450 3703 3084 3790 
Q 2719 3878 2394 3878 
Q 1963 3878 1756 3759 
Q 1550 3641 1550 3391 
Q 1550 3203 1689 3098 
Q 1828 2994 2194 2919 
L 2706 2816 
Q 3484 2659 3812 2340 
Q 4141 2022 4141 1434 
Q 4141 663 3683 286 
Q 3225 -91 2284 -91 
Q 1841 -91 1394 -6 
Q 947 78 500 244 
L 500 1259 
Q 947 1022 1364 901 
Q 1781 781 2169 781 
Q 2563 781 2772 912 
Q 2981 1044 2981 1288 
Q 2981 1506 2839 1625 
Q 2697 1744 2272 1838 
L 1806 1941 
Q 1106 2091 782 2419 
Q 459 2747 459 3303 
Q 459 4000 909 4375 
Q 1359 4750 2203 4750 
Q 2588 4750 2994 4692 
Q 3400 4634 3834 4519 
z
" transform="scale(0.015625)"/>
      <path id="DejaVuSans-Bold-43" d="M 4288 256 
Q 3956 84 3597 -3 
Q 3238 -91 2847 -91 
Q 1681 -91 1000 561 
Q 319 1213 319 2328 
Q 319 3447 1000 4098 
Q 1681 4750 2847 4750 
Q 3238 4750 3597 4662 
Q 3956 4575 4288 4403 
L 4288 3438 
Q 3953 3666 3628 3772 
Q 3303 3878 2944 3878 
Q 2300 3878 1931 3465 
Q 1563 3053 1563 2328 
Q 1563 1606 1931 1193 
Q 2300 781 2944 781 
Q 3303 781 3628 887 
Q 3953 994 4288 1222 
L 4288 256 
z
" transform="scale(0.015625)"/>
      <path id="DejaVuSans-Bold-4f" d="M 2719 3878 
Q 2169 3878 1866 3472 
Q 1563 3066 1563 2328 
Q 1563 1594 1866 1187 
Q 2169 781 2719 781 
Q 3272 781 3575 1187 
Q 3878 1594 3878 2328 
Q 3878 3066 3575 3472 
Q 3272 3878 2719 3878 
z
M 2719 4750 
Q 3844 4750 4481 4106 
Q 5119 3463 5119 2328 
Q 5119 1197 4481 553 
Q 3844 -91 2719 -91 
Q 1597 -91 958 553 
Q 319 1197 319 2328 
Q 319 3463 958 4106 
Q 1597 4750 2719 4750 
z
" transform="scale(0.015625)"/>
      <path id="DejaVuSans-Bold-44" d="M 1791 3756 
L 1791 909 
L 2222 909 
Q 2959 909 3348 1275 
Q 3738 1641 3738 2338 
Q 3738 3031 3350 3393 
Q 2963 3756 2222 3756 
L 1791 3756 
z
M 588 4666 
L 1856 4666 
Q 2919 4666 3439 4514 
Q 3959 4363 4331 4000 
Q 4659 3684 4818 3271 
Q 4978 2859 4978 2338 
Q 4978 1809 4818 1395 
Q 4659 981 4331 666 
Q 3956 303 3431 151 
Q 2906 0 1856 0 
L 588 0 
L 588 4666 
z
" transform="scale(0.015625)"/>
      <path id="DejaVuSans-Bold-45" d="M 588 4666 
L 3834 4666 
L 3834 3756 
L 1791 3756 
L 1791 2888 
L 3713 2888 
L 3713 1978 
L 1791 1978 
L 1791 909 
L 3903 909 
L 3903 0 
L 588 0 
L 588 4666 
z
" transform="scale(0.015625)"/>
      <path id="DejaVuSans-Bold-20" transform="scale(0.015625)"/>
      <path id="DejaVuSans-Bold-28" d="M 2413 -844 
L 1484 -844 
Q 1006 -72 778 623 
Q 550 1319 550 2003 
Q 550 2688 779 3389 
Q 1009 4091 1484 4856 
L 2413 4856 
Q 2013 4116 1813 3408 
Q 1613 2700 1613 2009 
Q 1613 1319 1811 609 
Q 2009 -100 2413 -844 
z
" transform="scale(0.015625)"/>
      <path id="DejaVuSans-Bold-6d" d="M 3781 2919 
Q 3994 3244 4286 3414 
Q 4578 3584 4928 3584 
Q 5531 3584 5847 3212 
Q 6163 2841 6163 2131 
L 6163 0 
L 5038 0 
L 5038 1825 
Q 5041 1866 5042 1909 
Q 5044 1953 5044 2034 
Q 5044 2406 4934 2573 
Q 4825 2741 4581 2741 
Q 4263 2741 4089 2478 
Q 3916 2216 3909 1719 
L 3909 0 
L 2784 0 
L 2784 1825 
Q 2784 2406 2684 2573 
Q 2584 2741 2328 2741 
Q 2006 2741 1831 2477 
Q 1656 2213 1656 1722 
L 1656 0 
L 531 0 
L 531 3500 
L 1656 3500 
L 1656 2988 
Q 1863 3284 2130 3434 
Q 2397 3584 2719 3584 
Q 3081 3584 3359 3409 
Q 3638 3234 3781 2919 
z
" transform="scale(0.015625)"/>
      <path id="DejaVuSans-Bold-69" d="M 538 3500 
L 1656 3500 
L 1656 0 
L 538 0 
L 538 3500 
z
M 538 4863 
L 1656 4863 
L 1656 3950 
L 538 3950 
L 538 4863 
z
" transform="scale(0.015625)"/>
      <path id="DejaVuSans-Bold-63" d="M 3366 3391 
L 3366 2478 
Q 3138 2634 2908 2709 
Q 2678 2784 2431 2784 
Q 1963 2784 1702 2511 
Q 1441 2238 1441 1747 
Q 1441 1256 1702 982 
Q 1963 709 2431 709 
Q 2694 709 2930 787 
Q 3166 866 3366 1019 
L 3366 103 
Q 3103 6 2833 -42 
Q 2563 -91 2291 -91 
Q 1344 -91 809 395 
Q 275 881 275 1747 
Q 275 2613 809 3098 
Q 1344 3584 2291 3584 
Q 2566 3584 2833 3536 
Q 3100 3488 3366 3391 
z
" transform="scale(0.015625)"/>
      <path id="DejaVuSans-Bold-72" d="M 3138 2547 
Q 2991 2616 2845 2648 
Q 2700 2681 2553 2681 
Q 2122 2681 1889 2404 
Q 1656 2128 1656 1613 
L 1656 0 
L 538 0 
L 538 3500 
L 1656 3500 
L 1656 2925 
Q 1872 3269 2151 3426 
Q 2431 3584 2822 3584 
Q 2878 3584 2943 3579 
Q 3009 3575 3134 3559 
L 3138 2547 
z
" transform="scale(0.015625)"/>
      <path id="DejaVuSans-Bold-6f" d="M 2203 2784 
Q 1831 2784 1636 2517 
Q 1441 2250 1441 1747 
Q 1441 1244 1636 976 
Q 1831 709 2203 709 
Q 2569 709 2762 976 
Q 2956 1244 2956 1747 
Q 2956 2250 2762 2517 
Q 2569 2784 2203 2784 
z
M 2203 3584 
Q 3106 3584 3614 3096 
Q 4122 2609 4122 1747 
Q 4122 884 3614 396 
Q 3106 -91 2203 -91 
Q 1297 -91 786 396 
Q 275 884 275 1747 
Q 275 2609 786 3096 
Q 1297 3584 2203 3584 
z
" transform="scale(0.015625)"/>
      <path id="DejaVuSans-Bold-73" d="M 3272 3391 
L 3272 2541 
Q 2913 2691 2578 2766 
Q 2244 2841 1947 2841 
Q 1628 2841 1473 2761 
Q 1319 2681 1319 2516 
Q 1319 2381 1436 2309 
Q 1553 2238 1856 2203 
L 2053 2175 
Q 2913 2066 3209 1816 
Q 3506 1566 3506 1031 
Q 3506 472 3093 190 
Q 2681 -91 1863 -91 
Q 1516 -91 1145 -36 
Q 775 19 384 128 
L 384 978 
Q 719 816 1070 734 
Q 1422 653 1784 653 
Q 2113 653 2278 743 
Q 2444 834 2444 1013 
Q 2444 1163 2330 1236 
Q 2216 1309 1875 1350 
L 1678 1375 
Q 931 1469 631 1722 
Q 331 1975 331 2491 
Q 331 3047 712 3315 
Q 1094 3584 1881 3584 
Q 2191 3584 2531 3537 
Q 2872 3491 3272 3391 
z
" transform="scale(0.015625)"/>
      <path id="DejaVuSans-Bold-66" d="M 2841 4863 
L 2841 4128 
L 2222 4128 
Q 1984 4128 1890 4042 
Q 1797 3956 1797 3744 
L 1797 3500 
L 2753 3500 
L 2753 2700 
L 1797 2700 
L 1797 0 
L 678 0 
L 678 2700 
L 122 2700 
L 122 3500 
L 678 3500 
L 678 3744 
Q 678 4316 997 4589 
Q 1316 4863 1984 4863 
L 2841 4863 
z
" transform="scale(0.015625)"/>
      <path id="DejaVuSans-Bold-74" d="M 1759 4494 
L 1759 3500 
L 2913 3500 
L 2913 2700 
L 1759 2700 
L 1759 1216 
Q 1759 972 1856 886 
Q 1953 800 2241 800 
L 2816 800 
L 2816 0 
L 1856 0 
Q 1194 0 917 276 
Q 641 553 641 1216 
L 641 2700 
L 84 2700 
L 84 3500 
L 641 3500 
L 641 4494 
L 1759 4494 
z
" transform="scale(0.015625)"/>
      <path id="DejaVuSans-Bold-2f" d="M 1644 4666 
L 2338 4666 
L 691 -594 
L 0 -594 
L 1644 4666 
z
" transform="scale(0.015625)"/>
      <path id="DejaVuSans-Bold-76" d="M 97 3500 
L 1216 3500 
L 2088 1081 
L 2956 3500 
L 4078 3500 
L 2700 0 
L 1472 0 
L 97 3500 
z
" transform="scale(0.015625)"/>
      <path id="DejaVuSans-Bold-64" d="M 2919 2988 
L 2919 4863 
L 4044 4863 
L 4044 0 
L 2919 0 
L 2919 506 
Q 2688 197 2409 53 
Q 2131 -91 1766 -91 
Q 1119 -91 703 423 
Q 288 938 288 1747 
Q 288 2556 703 3070 
Q 1119 3584 1766 3584 
Q 2128 3584 2408 3439 
Q 2688 3294 2919 2988 
z
M 2181 722 
Q 2541 722 2730 984 
Q 2919 1247 2919 1747 
Q 2919 2247 2730 2509 
Q 2541 2772 2181 2772 
Q 1825 2772 1636 2509 
Q 1447 2247 1447 1747 
Q 1447 1247 1636 984 
Q 1825 722 2181 722 
z
" transform="scale(0.015625)"/>
      <path id="DejaVuSans-Bold-65" d="M 4031 1759 
L 4031 1441 
L 1416 1441 
Q 1456 1047 1700 850 
Q 1944 653 2381 653 
Q 2734 653 3104 758 
Q 3475 863 3866 1075 
L 3866 213 
Q 3469 63 3072 -14 
Q 2675 -91 2278 -91 
Q 1328 -91 801 392 
Q 275 875 275 1747 
Q 275 2603 792 3093 
Q 1309 3584 2216 3584 
Q 3041 3584 3536 3087 
Q 4031 2591 4031 1759 
z
M 2881 2131 
Q 2881 2450 2695 2645 
Q 2509 2841 2209 2841 
Q 1884 2841 1681 2658 
Q 1478 2475 1428 2131 
L 2881 2131 
z
" transform="scale(0.015625)"/>
      <path id="DejaVuSans-Bold-29" d="M 513 -844 
Q 913 -100 1113 609 
Q 1313 1319 1313 2009 
Q 1313 2700 1113 3408 
Q 913 4116 513 4856 
L 1441 4856 
Q 1916 4091 2145 3389 
Q 2375 2688 2375 2003 
Q 2375 1319 2147 623 
Q 1919 -72 1441 -844 
L 513 -844 
z
" transform="scale(0.015625)"/>
      <path id="DejaVuSans-Bold-2014" d="M 344 2156 
L 6056 2156 
L 6056 1350 
L 344 1350 
L 344 2156 
z
" transform="scale(0.015625)"/>
      <path id="DejaVuSans-Bold-24" d="M 2484 -941 
L 1978 -941 
L 1975 0 
Q 1584 16 1218 87 
Q 853 159 506 288 
L 506 1106 
Q 866 922 1233 823 
Q 1600 725 1978 713 
L 1978 1684 
L 1875 1703 
Q 1128 1834 814 2115 
Q 500 2397 500 2925 
Q 500 3484 883 3798 
Q 1266 4113 1975 4141 
L 1978 4863 
L 2484 4863 
L 2484 4153 
Q 2797 4128 3109 4075 
Q 3422 4022 3738 3938 
L 3738 3144 
Q 3425 3275 3112 3348 
Q 2800 3422 2484 3438 
L 2484 2541 
L 2584 2522 
Q 3378 2397 3698 2105 
Q 4019 1813 4019 1241 
Q 4019 666 3637 358 
Q 3256 50 2484 6 
L 2484 -941 
z
M 1978 2613 
L 1978 3428 
Q 1756 3416 1623 3308 
Q 1491 3200 1491 3034 
Q 1491 2850 1612 2745 
Q 1734 2641 1978 2613 
z
M 2484 1594 
L 2484 725 
Q 2756 728 2892 831 
Q 3028 934 3028 1141 
Q 3028 1353 2903 1458 
Q 2778 1563 2484 1594 
z
" transform="scale(0.015625)"/>
      <path id="DejaVuSans-Bold-37" d="M 428 4666 
L 3944 4666 
L 3944 3988 
L 2125 0 
L 953 0 
L 2675 3781 
L 428 3781 
L 428 4666 
z
" transform="scale(0.015625)"/>
      <path id="DejaVuSans-Bold-2e" d="M 653 1209 
L 1778 1209 
L 1778 0 
L 653 0 
L 653 1209 
z
" transform="scale(0.015625)"/>
      <path id="DejaVuSans-Bold-31" d="M 750 831 
L 1813 831 
L 1813 3847 
L 722 3622 
L 722 4441 
L 1806 4666 
L 2950 4666 
L 2950 831 
L 4013 831 
L 4013 0 
L 750 0 
L 750 831 
z
" transform="scale(0.015625)"/>
      <path id="DejaVuSans-Bold-2d" d="M 347 2297 
L 2309 2297 
L 2309 1388 
L 347 1388 
L 347 2297 
z
" transform="scale(0.015625)"/>
      <path id="DejaVuSans-Bold-33" d="M 2981 2516 
Q 3453 2394 3698 2092 
Q 3944 1791 3944 1325 
Q 3944 631 3412 270 
Q 2881 -91 1863 -91 
Q 1503 -91 1142 -33 
Q 781 25 428 141 
L 428 1069 
Q 766 900 1098 814 
Q 1431 728 1753 728 
Q 2231 728 2486 893 
Q 2741 1059 2741 1369 
Q 2741 1688 2480 1852 
Q 2219 2016 1709 2016 
L 1228 2016 
L 1228 2791 
L 1734 2791 
Q 2188 2791 2409 2933 
Q 2631 3075 2631 3366 
Q 2631 3634 2415 3781 
Q 2200 3928 1806 3928 
Q 1516 3928 1219 3862 
Q 922 3797 628 3669 
L 628 4550 
Q 984 4650 1334 4700 
Q 1684 4750 2022 4750 
Q 2931 4750 3382 4451 
Q 3834 4153 3834 3553 
Q 3834 3144 3618 2883 
Q 3403 2622 2981 2516 
z
" transform="scale(0.015625)"/>
      <path id="DejaVuSans-Bold-25" d="M 4959 1925 
Q 4738 1925 4616 1733 
Q 4494 1541 4494 1184 
Q 4494 825 4614 633 
Q 4734 441 4959 441 
Q 5184 441 5303 633 
Q 5422 825 5422 1184 
Q 5422 1541 5301 1733 
Q 5181 1925 4959 1925 
z
M 4959 2450 
Q 5541 2450 5875 2112 
Q 6209 1775 6209 1184 
Q 6209 594 5875 251 
Q 5541 -91 4959 -91 
Q 4378 -91 4042 251 
Q 3706 594 3706 1184 
Q 3706 1772 4042 2111 
Q 4378 2450 4959 2450 
z
M 2094 -91 
L 1403 -91 
L 4319 4750 
L 5013 4750 
L 2094 -91 
z
M 1453 4750 
Q 2034 4750 2367 4411 
Q 2700 4072 2700 3481 
Q 2700 2891 2367 2550 
Q 2034 2209 1453 2209 
Q 872 2209 539 2550 
Q 206 2891 206 3481 
Q 206 4072 539 4411 
Q 872 4750 1453 4750 
z
M 1453 4225 
Q 1228 4225 1106 4031 
Q 984 3838 984 3481 
Q 984 3122 1106 2926 
Q 1228 2731 1453 2731 
Q 1678 2731 1798 2926 
Q 1919 3122 1919 3481 
Q 1919 3838 1797 4031 
Q 1675 4225 1453 4225 
z
" transform="scale(0.015625)"/>
     </defs>
     <use xlink:href="#DejaVuSans-Bold-56"/>
     <use xlink:href="#DejaVuSans-Bold-53" transform="translate(77.392578 0)"/>
     <use xlink:href="#DejaVuSans-Bold-43" transform="translate(149.414062 0)"/>
     <use xlink:href="#DejaVuSans-Bold-4f" transform="translate(222.802734 0)"/>
     <use xlink:href="#DejaVuSans-Bold-44" transform="translate(307.8125 0)"/>
     <use xlink:href="#DejaVuSans-Bold-45" transform="translate(390.820312 0)"/>
     <use xlink:href="#DejaVuSans-Bold-20" transform="translate(459.130859 0)"/>
     <use xlink:href="#DejaVuSans-Bold-28" transform="translate(493.945312 0)"/>
     <use xlink:href="#DejaVuSans-Bold-6d" transform="translate(539.648438 0)"/>
     <use xlink:href="#DejaVuSans-Bold-69" transform="translate(643.847656 0)"/>
     <use xlink:href="#DejaVuSans-Bold-63" transform="translate(678.125 0)"/>
     <use xlink:href="#DejaVuSans-Bold-72" transform="translate(737.402344 0)"/>
     <use xlink:href="#DejaVuSans-Bold-6f" transform="translate(786.71875 0)"/>
     <use xlink:href="#DejaVuSans-Bold-73" transform="translate(855.419922 0)"/>
     <use xlink:href="#DejaVuSans-Bold-6f" transform="translate(914.941406 0)"/>
     <use xlink:href="#DejaVuSans-Bold-66" transform="translate(983.642578 0)"/>
     <use xlink:href="#DejaVuSans-Bold-74" transform="translate(1027.148438 0)"/>
     <use xlink:href="#DejaVuSans-Bold-2f" transform="translate(1074.951172 0)"/>
     <use xlink:href="#DejaVuSans-Bold-76" transform="translate(1111.474609 0)"/>
     <use xlink:href="#DejaVuSans-Bold-73" transform="translate(1176.660156 0)"/>
     <use xlink:href="#DejaVuSans-Bold-63" transform="translate(1236.181641 0)"/>
     <use xlink:href="#DejaVuSans-Bold-6f" transform="translate(1295.458984 0)"/>
     <use xlink:href="#DejaVuSans-Bold-64" transform="translate(1364.160156 0)"/>
     <use xlink:href="#DejaVuSans-Bold-65" transform="translate(1435.742188 0)"/>
     <use xlink:href="#DejaVuSans-Bold-29" transform="translate(1503.564453 0)"/>
     <use xlink:href="#DejaVuSans-Bold-20" transform="translate(1549.267578 0)"/>
     <use xlink:href="#DejaVuSans-Bold-2014" transform="translate(1584.082031 0)"/>
     <use xlink:href="#DejaVuSans-Bold-20" transform="translate(1684.082031 0)"/>
     <use xlink:href="#DejaVuSans-Bold-24" transform="translate(1718.896484 0)"/>
     <use xlink:href="#DejaVuSans-Bold-37" transform="translate(1788.476562 0)"/>
     <use xlink:href="#DejaVuSans-Bold-37" transform="translate(1858.056641 0)"/>
     <use xlink:href="#DejaVuSans-Bold-37" transform="translate(1927.636719 0)"/>
     <use xlink:href="#DejaVuSans-Bold-2e" transform="translate(1997.216797 0)"/>
     <use xlink:href="#DejaVuSans-Bold-37" transform="translate(2035.205078 0)"/>
     <use xlink:href="#DejaVuSans-Bold-31" transform="translate(2104.785156 0)"/>
     <use xlink:href="#DejaVuSans-Bold-20" transform="translate(2174.365234 0)"/>
     <use xlink:href="#DejaVuSans-Bold-28" transform="translate(2209.179688 0)"/>
     <use xlink:href="#DejaVuSans-Bold-2d" transform="translate(2254.882812 0)"/>
     <use xlink:href="#DejaVuSans-Bold-31" transform="translate(2296.386719 0)"/>
     <use xlink:href="#DejaVuSans-Bold-33" transform="translate(2365.966797 0)"/>
     <use xlink:href="#DejaVuSans-Bold-2e" transform="translate(2435.546875 0)"/>
     <use xlink:href="#DejaVuSans-Bold-37" transform="translate(2473.535156 0)"/>
     <use xlink:href="#DejaVuSans-Bold-37" transform="translate(2543.115234 0)"/>
     <use xlink:href="#DejaVuSans-Bold-25" transform="translate(2612.695312 0)"/>
     <use xlink:href="#DejaVuSans-Bold-29" transform="translate(2712.890625 0)"/>
    </g>
   </g>
  </g>
 </g>
 <defs>
  <clipPath id="pc398f97d06">
   <rect x="34.56" y="21.558281" width="383.15" height="129.56"/>
  </clipPath>
 </defs>
</svg>
