<?xml version="1.0" encoding="utf-8" standalone="no"?>
<!DOCTYPE svg PUBLIC "-//W3C//DTD SVG 1.1//EN"
  "http://www.w3.org/Graphics/SVG/1.1/DTD/svg11.dtd">
<svg xmlns:xlink="http://www.w3.org/1999/xlink" width="424.91pt" height="173.060781pt" viewBox="0 0 424.91 173.060781" xmlns="http://www.w3.org/2000/svg" version="1.1">
 <metadata>
  <rdf:RDF xmlns:dc="http://purl.org/dc/elements/1.1/" xmlns:cc="http://creativecommons.org/ns#" xmlns:rdf="http://www.w3.org/1999/02/22-rdf-syntax-ns#">
   <cc:Work>
    <dc:type rdf:resource="http://purl.org/dc/dcmitype/StillImage"/>
    <dc:date>2026-04-16T18:35:48.753113</dc:date>
    <dc:format>image/svg+xml</dc:format>
    <dc:creator>
     <cc:Agent>
      <dc:title>Matplotlib v3.10.8, https://matplotlib.org/</dc:title>
     </cc:Agent>
    </dc:creator>
   </cc:Work>
  </rdf:RDF>
 </metadata>
 <defs>
  <style type="text/css">*{stroke-linejoin: round; stroke-linecap: butt}</style>
 </defs>
 <g id="figure_1">
  <g id="patch_1">
   <path d="M 0 173.060781 
L 424.91 173.060781 
L 424.91 0 
L 0 0 
z
" style="fill: #0d1117"/>
  </g>
  <g id="axes_1">
   <g id="patch_2">
    <path d="M 34.56 151.118281 
L 417.71 151.118281 
L 417.71 21.558281 
L 34.56 21.558281 
z
" style="fill: #0d1117"/>
   </g>
   <g id="FillBetweenPolyCollection_1">
    <defs>
     <path id="m96e762cde0" d="M 51.975909 -27.831591 
L 51.975909 -77.612304 
L 55.390793 -83.332151 
L 58.805677 -83.70673 
L 62.220561 -83.837969 
L 65.635446 -84.805859 
L 69.05033 -145.613409 
L 72.465214 -119.070257 
L 75.880098 -102.791114 
L 79.294982 -100.341313 
L 82.709866 -98.635202 
L 86.12475 -97.650907 
L 89.539635 -98.479355 
L 92.954519 -92.250956 
L 96.369403 -90.214013 
L 99.784287 -93.587957 
L 103.199171 -91.356888 
L 106.614055 -92.149793 
L 110.028939 -95.004248 
L 113.443824 -92.745838 
L 116.858708 -90.990512 
L 120.273592 -89.043795 
L 123.688476 -89.412906 
L 127.10336 -86.678754 
L 130.518244 -84.745708 
L 133.933128 -89.612499 
L 137.348012 -82.823599 
L 140.762897 -90.063634 
L 144.177781 -88.453218 
L 147.592665 -116.481015 
L 151.007549 -101.749402 
L 154.422433 -98.791049 
L 157.837317 -99.756205 
L 161.252201 -82.35059 
L 164.667086 -88.666482 
L 168.08197 -90.681553 
L 171.496854 -85.798356 
L 174.911738 -85.658915 
L 178.326622 -85.713598 
L 181.741506 -86.115518 
L 185.15639 -84.018423 
L 188.571275 -84.414875 
L 191.986159 -86.927561 
L 195.401043 -84.10865 
L 198.815927 -86.727968 
L 202.230811 -87.498999 
L 205.645695 -85.951469 
L 209.060579 -87.272065 
L 212.475463 -62.648288 
L 215.890348 -89.185971 
L 219.305232 -77.565824 
L 222.720116 -45.691075 
L 226.135 -60.78633 
L 229.549884 -45.461406 
L 232.964768 -47.006202 
L 236.379652 -89.180503 
L 239.794537 -98.000879 
L 243.209421 -92.980975 
L 246.624305 -91.225649 
L 250.039189 -100.251086 
L 253.454073 -96.576385 
L 256.868957 -138.337829 
L 260.283841 -125.881031 
L 263.698725 -85.311677 
L 267.11361 -86.902954 
L 270.528494 -87.884515 
L 273.943378 -85.325348 
L 277.358262 -92.179868 
L 280.773146 -85.773749 
L 284.18803 -85.872179 
L 287.602914 -85.191375 
L 291.017799 -48.047914 
L 294.432683 -87.025991 
L 297.847567 -86.651412 
L 301.262451 -74.115323 
L 304.677335 -86.681488 
L 308.092219 -47.90027 
L 311.507103 -86.51197 
L 314.921988 -48.468973 
L 318.336872 -49.026741 
L 321.751756 -85.795622 
L 325.16664 -47.894801 
L 328.581524 -93.104012 
L 331.996408 -89.585158 
L 335.411292 -97.620832 
L 338.826176 -92.3986 
L 342.241061 -94.022687 
L 345.655945 -102.266157 
L 349.070829 -96.838864 
L 352.485713 -88.313777 
L 355.900597 -101.079534 
L 359.315481 -93.773879 
L 362.730365 -88.576255 
L 366.14525 -94.07737 
L 369.560134 -89.735536 
L 372.975018 -91.780682 
L 376.389902 -89.680853 
L 379.804786 -90.058166 
L 383.21967 -89.494931 
L 386.634554 -91.70686 
L 390.049439 -87.704061 
L 393.464323 -91.222915 
L 396.879207 -89.503133 
L 400.294091 -93.276263 
L 400.294091 -27.831591 
L 400.294091 -27.831591 
L 396.879207 -27.831591 
L 393.464323 -27.831591 
L 390.049439 -27.831591 
L 386.634554 -27.831591 
L 383.21967 -27.831591 
L 379.804786 -27.831591 
L 376.389902 -27.831591 
L 372.975018 -27.831591 
L 369.560134 -27.831591 
L 366.14525 -27.831591 
L 362.730365 -27.831591 
L 359.315481 -27.831591 
L 355.900597 -27.831591 
L 352.485713 -27.831591 
L 349.070829 -27.831591 
L 345.655945 -27.831591 
L 342.241061 -27.831591 
L 338.826176 -27.831591 
L 335.411292 -27.831591 
L 331.996408 -27.831591 
L 328.581524 -27.831591 
L 325.16664 -27.831591 
L 321.751756 -27.831591 
L 318.336872 -27.831591 
L 314.921988 -27.831591 
L 311.507103 -27.831591 
L 308.092219 -27.831591 
L 304.677335 -27.831591 
L 301.262451 -27.831591 
L 297.847567 -27.831591 
L 294.432683 -27.831591 
L 291.017799 -27.831591 
L 287.602914 -27.831591 
L 284.18803 -27.831591 
L 280.773146 -27.831591 
L 277.358262 -27.831591 
L 273.943378 -27.831591 
L 270.528494 -27.831591 
L 267.11361 -27.831591 
L 263.698725 -27.831591 
L 260.283841 -27.831591 
L 256.868957 -27.831591 
L 253.454073 -27.831591 
L 250.039189 -27.831591 
L 246.624305 -27.831591 
L 243.209421 -27.831591 
L 239.794537 -27.831591 
L 236.379652 -27.831591 
L 232.964768 -27.831591 
L 229.549884 -27.831591 
L 226.135 -27.831591 
L 222.720116 -27.831591 
L 219.305232 -27.831591 
L 215.890348 -27.831591 
L 212.475463 -27.831591 
L 209.060579 -27.831591 
L 205.645695 -27.831591 
L 202.230811 -27.831591 
L 198.815927 -27.831591 
L 195.401043 -27.831591 
L 191.986159 -27.831591 
L 188.571275 -27.831591 
L 185.15639 -27.831591 
L 181.741506 -27.831591 
L 178.326622 -27.831591 
L 174.911738 -27.831591 
L 171.496854 -27.831591 
L 168.08197 -27.831591 
L 164.667086 -27.831591 
L 161.252201 -27.831591 
L 157.837317 -27.831591 
L 154.422433 -27.831591 
L 151.007549 -27.831591 
L 147.592665 -27.831591 
L 144.177781 -27.831591 
L 140.762897 -27.831591 
L 137.348012 -27.831591 
L 133.933128 -27.831591 
L 130.518244 -27.831591 
L 127.10336 -27.831591 
L 123.688476 -27.831591 
L 120.273592 -27.831591 
L 116.858708 -27.831591 
L 113.443824 -27.831591 
L 110.028939 -27.831591 
L 106.614055 -27.831591 
L 103.199171 -27.831591 
L 99.784287 -27.831591 
L 96.369403 -27.831591 
L 92.954519 -27.831591 
L 89.539635 -27.831591 
L 86.12475 -27.831591 
L 82.709866 -27.831591 
L 79.294982 -27.831591 
L 75.880098 -27.831591 
L 72.465214 -27.831591 
L 69.05033 -27.831591 
L 65.635446 -27.831591 
L 62.220561 -27.831591 
L 58.805677 -27.831591 
L 55.390793 -27.831591 
L 51.975909 -27.831591 
z
" style="stroke: #3fb950; stroke-opacity: 0.15"/>
    </defs>
    <g clip-path="url(#p72907b034c)">
     <use xlink:href="#m96e762cde0" x="0" y="173.060781" style="fill: #3fb950; fill-opacity: 0.15; stroke: #3fb950; stroke-opacity: 0.15"/>
    </g>
   </g>
   <g id="matplotlib.axis_1">
    <g id="xtick_1">
     <g id="line2d_1">
      <path d="M 51.975909 151.118281 
L 51.975909 21.558281 
" clip-path="url(#p72907b034c)" style="fill: none; stroke: #21262d; stroke-opacity: 0.5; stroke-width: 0.5; stroke-linecap: square"/>
     </g>
     <g id="line2d_2">
      <defs>
       <path id="m8fa1e8acfd" d="M 0 0 
L 0 3.5 
" style="stroke: #c9d1d9; stroke-width: 0.8"/>
      </defs>
      <g>
       <use xlink:href="#m8fa1e8acfd" x="51.975909" y="151.118281" style="fill: #c9d1d9; stroke: #c9d1d9; stroke-width: 0.8"/>
      </g>
     </g>
     <g id="text_1">
      <!-- 0 -->
      <g style="fill: #c9d1d9" transform="translate(49.430909 164.197031) scale(0.08 -0.08)">
       <defs>
        <path id="DejaVuSans-30" d="M 2034 4250 
Q 1547 4250 1301 3770 
Q 1056 3291 1056 2328 
Q 1056 1369 1301 889 
Q 1547 409 2034 409 
Q 2525 409 2770 889 
Q 3016 1369 3016 2328 
Q 3016 3291 2770 3770 
Q 2525 4250 2034 4250 
z
M 2034 4750 
Q 2819 4750 3233 4129 
Q 3647 3509 3647 2328 
Q 3647 1150 3233 529 
Q 2819 -91 2034 -91 
Q 1250 -91 836 529 
Q 422 1150 422 2328 
Q 422 3509 836 4129 
Q 1250 4750 2034 4750 
z
" transform="scale(0.015625)"/>
       </defs>
       <use xlink:href="#DejaVuSans-30"/>
      </g>
     </g>
    </g>
    <g id="xtick_2">
     <g id="line2d_3">
      <path d="M 120.273592 151.118281 
L 120.273592 21.558281 
" clip-path="url(#p72907b034c)" style="fill: none; stroke: #21262d; stroke-opacity: 0.5; stroke-width: 0.5; stroke-linecap: square"/>
     </g>
     <g id="line2d_4">
      <g>
       <use xlink:href="#m8fa1e8acfd" x="120.273592" y="151.118281" style="fill: #c9d1d9; stroke: #c9d1d9; stroke-width: 0.8"/>
      </g>
     </g>
     <g id="text_2">
      <!-- 20 -->
      <g style="fill: #c9d1d9" transform="translate(115.183592 164.197031) scale(0.08 -0.08)">
       <defs>
        <path id="DejaVuSans-32" d="M 1228 531 
L 3431 531 
L 3431 0 
L 469 0 
L 469 531 
Q 828 903 1448 1529 
Q 2069 2156 2228 2338 
Q 2531 2678 2651 2914 
Q 2772 3150 2772 3378 
Q 2772 3750 2511 3984 
Q 2250 4219 1831 4219 
Q 1534 4219 1204 4116 
Q 875 4013 500 3803 
L 500 4441 
Q 881 4594 1212 4672 
Q 1544 4750 1819 4750 
Q 2544 4750 2975 4387 
Q 3406 4025 3406 3419 
Q 3406 3131 3298 2873 
Q 3191 2616 2906 2266 
Q 2828 2175 2409 1742 
Q 1991 1309 1228 531 
z
" transform="scale(0.015625)"/>
       </defs>
       <use xlink:href="#DejaVuSans-32"/>
       <use xlink:href="#DejaVuSans-30" transform="translate(63.623047 0)"/>
      </g>
     </g>
    </g>
    <g id="xtick_3">
     <g id="line2d_5">
      <path d="M 188.571275 151.118281 
L 188.571275 21.558281 
" clip-path="url(#p72907b034c)" style="fill: none; stroke: #21262d; stroke-opacity: 0.5; stroke-width: 0.5; stroke-linecap: square"/>
     </g>
     <g id="line2d_6">
      <g>
       <use xlink:href="#m8fa1e8acfd" x="188.571275" y="151.118281" style="fill: #c9d1d9; stroke: #c9d1d9; stroke-width: 0.8"/>
      </g>
     </g>
     <g id="text_3">
      <!-- 40 -->
      <g style="fill: #c9d1d9" transform="translate(183.481275 164.197031) scale(0.08 -0.08)">
       <defs>
        <path id="DejaVuSans-34" d="M 2419 4116 
L 825 1625 
L 2419 1625 
L 2419 4116 
z
M 2253 4666 
L 3047 4666 
L 3047 1625 
L 3713 1625 
L 3713 1100 
L 3047 1100 
L 3047 0 
L 2419 0 
L 2419 1100 
L 313 1100 
L 313 1709 
L 2253 4666 
z
" transform="scale(0.015625)"/>
       </defs>
       <use xlink:href="#DejaVuSans-34"/>
       <use xlink:href="#DejaVuSans-30" transform="translate(63.623047 0)"/>
      </g>
     </g>
    </g>
    <g id="xtick_4">
     <g id="line2d_7">
      <path d="M 256.868957 151.118281 
L 256.868957 21.558281 
" clip-path="url(#p72907b034c)" style="fill: none; stroke: #21262d; stroke-opacity: 0.5; stroke-width: 0.5; stroke-linecap: square"/>
     </g>
     <g id="line2d_8">
      <g>
       <use xlink:href="#m8fa1e8acfd" x="256.868957" y="151.118281" style="fill: #c9d1d9; stroke: #c9d1d9; stroke-width: 0.8"/>
      </g>
     </g>
     <g id="text_4">
      <!-- 60 -->
      <g style="fill: #c9d1d9" transform="translate(251.778957 164.197031) scale(0.08 -0.08)">
       <defs>
        <path id="DejaVuSans-36" d="M 2113 2584 
Q 1688 2584 1439 2293 
Q 1191 2003 1191 1497 
Q 1191 994 1439 701 
Q 1688 409 2113 409 
Q 2538 409 2786 701 
Q 3034 994 3034 1497 
Q 3034 2003 2786 2293 
Q 2538 2584 2113 2584 
z
M 3366 4563 
L 3366 3988 
Q 3128 4100 2886 4159 
Q 2644 4219 2406 4219 
Q 1781 4219 1451 3797 
Q 1122 3375 1075 2522 
Q 1259 2794 1537 2939 
Q 1816 3084 2150 3084 
Q 2853 3084 3261 2657 
Q 3669 2231 3669 1497 
Q 3669 778 3244 343 
Q 2819 -91 2113 -91 
Q 1303 -91 875 529 
Q 447 1150 447 2328 
Q 447 3434 972 4092 
Q 1497 4750 2381 4750 
Q 2619 4750 2861 4703 
Q 3103 4656 3366 4563 
z
" transform="scale(0.015625)"/>
       </defs>
       <use xlink:href="#DejaVuSans-36"/>
       <use xlink:href="#DejaVuSans-30" transform="translate(63.623047 0)"/>
      </g>
     </g>
    </g>
    <g id="xtick_5">
     <g id="line2d_9">
      <path d="M 325.16664 151.118281 
L 325.16664 21.558281 
" clip-path="url(#p72907b034c)" style="fill: none; stroke: #21262d; stroke-opacity: 0.5; stroke-width: 0.5; stroke-linecap: square"/>
     </g>
     <g id="line2d_10">
      <g>
       <use xlink:href="#m8fa1e8acfd" x="325.16664" y="151.118281" style="fill: #c9d1d9; stroke: #c9d1d9; stroke-width: 0.8"/>
      </g>
     </g>
     <g id="text_5">
      <!-- 80 -->
      <g style="fill: #c9d1d9" transform="translate(320.07664 164.197031) scale(0.08 -0.08)">
       <defs>
        <path id="DejaVuSans-38" d="M 2034 2216 
Q 1584 2216 1326 1975 
Q 1069 1734 1069 1313 
Q 1069 891 1326 650 
Q 1584 409 2034 409 
Q 2484 409 2743 651 
Q 3003 894 3003 1313 
Q 3003 1734 2745 1975 
Q 2488 2216 2034 2216 
z
M 1403 2484 
Q 997 2584 770 2862 
Q 544 3141 544 3541 
Q 544 4100 942 4425 
Q 1341 4750 2034 4750 
Q 2731 4750 3128 4425 
Q 3525 4100 3525 3541 
Q 3525 3141 3298 2862 
Q 3072 2584 2669 2484 
Q 3125 2378 3379 2068 
Q 3634 1759 3634 1313 
Q 3634 634 3220 271 
Q 2806 -91 2034 -91 
Q 1263 -91 848 271 
Q 434 634 434 1313 
Q 434 1759 690 2068 
Q 947 2378 1403 2484 
z
M 1172 3481 
Q 1172 3119 1398 2916 
Q 1625 2713 2034 2713 
Q 2441 2713 2670 2916 
Q 2900 3119 2900 3481 
Q 2900 3844 2670 4047 
Q 2441 4250 2034 4250 
Q 1625 4250 1398 4047 
Q 1172 3844 1172 3481 
z
" transform="scale(0.015625)"/>
       </defs>
       <use xlink:href="#DejaVuSans-38"/>
       <use xlink:href="#DejaVuSans-30" transform="translate(63.623047 0)"/>
      </g>
     </g>
    </g>
    <g id="xtick_6">
     <g id="line2d_11">
      <path d="M 393.464323 151.118281 
L 393.464323 21.558281 
" clip-path="url(#p72907b034c)" style="fill: none; stroke: #21262d; stroke-opacity: 0.5; stroke-width: 0.5; stroke-linecap: square"/>
     </g>
     <g id="line2d_12">
      <g>
       <use xlink:href="#m8fa1e8acfd" x="393.464323" y="151.118281" style="fill: #c9d1d9; stroke: #c9d1d9; stroke-width: 0.8"/>
      </g>
     </g>
     <g id="text_6">
      <!-- 100 -->
      <g style="fill: #c9d1d9" transform="translate(385.829323 164.197031) scale(0.08 -0.08)">
       <defs>
        <path id="DejaVuSans-31" d="M 794 531 
L 1825 531 
L 1825 4091 
L 703 3866 
L 703 4441 
L 1819 4666 
L 2450 4666 
L 2450 531 
L 3481 531 
L 3481 0 
L 794 0 
L 794 531 
z
" transform="scale(0.015625)"/>
       </defs>
       <use xlink:href="#DejaVuSans-31"/>
       <use xlink:href="#DejaVuSans-30" transform="translate(63.623047 0)"/>
       <use xlink:href="#DejaVuSans-30" transform="translate(127.246094 0)"/>
      </g>
     </g>
    </g>
   </g>
   <g id="matplotlib.axis_2">
    <g id="ytick_1">
     <g id="line2d_13">
      <path d="M 34.56 145.22919 
L 417.71 145.22919 
" clip-path="url(#p72907b034c)" style="fill: none; stroke: #21262d; stroke-opacity: 0.5; stroke-width: 0.5; stroke-linecap: square"/>
     </g>
     <g id="line2d_14">
      <defs>
       <path id="m137fa4c406" d="M 0 0 
L -3.5 0 
" style="stroke: #c9d1d9; stroke-width: 0.8"/>
      </defs>
      <g>
       <use xlink:href="#m137fa4c406" x="34.56" y="145.22919" style="fill: #c9d1d9; stroke: #c9d1d9; stroke-width: 0.8"/>
      </g>
     </g>
     <g id="text_7">
      <!-- $0 -->
      <g style="fill: #c9d1d9" transform="translate(17.38 148.268565) scale(0.08 -0.08)">
       <defs>
        <path id="DejaVuSans-24" d="M 2163 -941 
L 1850 -941 
L 1847 0 
Q 1519 6 1191 76 
Q 863 147 531 288 
L 531 850 
Q 850 650 1176 548 
Q 1503 447 1850 444 
L 1850 1869 
Q 1159 1981 845 2250 
Q 531 2519 531 2988 
Q 531 3497 872 3790 
Q 1213 4084 1850 4128 
L 1850 4863 
L 2163 4863 
L 2163 4138 
Q 2453 4125 2725 4076 
Q 2997 4028 3256 3944 
L 3256 3397 
Q 2997 3528 2723 3600 
Q 2450 3672 2163 3684 
L 2163 2350 
Q 2872 2241 3206 1959 
Q 3541 1678 3541 1191 
Q 3541 663 3186 358 
Q 2831 53 2163 6 
L 2163 -941 
z
M 1850 2406 
L 1850 3688 
Q 1488 3647 1297 3481 
Q 1106 3316 1106 3041 
Q 1106 2772 1282 2622 
Q 1459 2472 1850 2406 
z
M 2163 1806 
L 2163 453 
Q 2559 506 2761 678 
Q 2963 850 2963 1131 
Q 2963 1406 2770 1568 
Q 2578 1731 2163 1806 
z
" transform="scale(0.015625)"/>
       </defs>
       <use xlink:href="#DejaVuSans-24"/>
       <use xlink:href="#DejaVuSans-30" transform="translate(63.623047 0)"/>
      </g>
     </g>
    </g>
    <g id="ytick_2">
     <g id="line2d_15">
      <path d="M 34.56 117.887666 
L 417.71 117.887666 
" clip-path="url(#p72907b034c)" style="fill: none; stroke: #21262d; stroke-opacity: 0.5; stroke-width: 0.5; stroke-linecap: square"/>
     </g>
     <g id="line2d_16">
      <g>
       <use xlink:href="#m137fa4c406" x="34.56" y="117.887666" style="fill: #c9d1d9; stroke: #c9d1d9; stroke-width: 0.8"/>
      </g>
     </g>
     <g id="text_8">
      <!-- $100 -->
      <g style="fill: #c9d1d9" transform="translate(7.2 120.927041) scale(0.08 -0.08)">
       <use xlink:href="#DejaVuSans-24"/>
       <use xlink:href="#DejaVuSans-31" transform="translate(63.623047 0)"/>
       <use xlink:href="#DejaVuSans-30" transform="translate(127.246094 0)"/>
       <use xlink:href="#DejaVuSans-30" transform="translate(190.869141 0)"/>
      </g>
     </g>
    </g>
    <g id="ytick_3">
     <g id="line2d_17">
      <path d="M 34.56 90.546142 
L 417.71 90.546142 
" clip-path="url(#p72907b034c)" style="fill: none; stroke: #21262d; stroke-opacity: 0.5; stroke-width: 0.5; stroke-linecap: square"/>
     </g>
     <g id="line2d_18">
      <g>
       <use xlink:href="#m137fa4c406" x="34.56" y="90.546142" style="fill: #c9d1d9; stroke: #c9d1d9; stroke-width: 0.8"/>
      </g>
     </g>
     <g id="text_9">
      <!-- $200 -->
      <g style="fill: #c9d1d9" transform="translate(7.2 93.585517) scale(0.08 -0.08)">
       <use xlink:href="#DejaVuSans-24"/>
       <use xlink:href="#DejaVuSans-32" transform="translate(63.623047 0)"/>
       <use xlink:href="#DejaVuSans-30" transform="translate(127.246094 0)"/>
       <use xlink:href="#DejaVuSans-30" transform="translate(190.869141 0)"/>
      </g>
     </g>
    </g>
    <g id="ytick_4">
     <g id="line2d_19">
      <path d="M 34.56 63.204618 
L 417.71 63.204618 
" clip-path="url(#p72907b034c)" style="fill: none; stroke: #21262d; stroke-opacity: 0.5; stroke-width: 0.5; stroke-linecap: square"/>
     </g>
     <g id="line2d_20">
      <g>
       <use xlink:href="#m137fa4c406" x="34.56" y="63.204618" style="fill: #c9d1d9; stroke: #c9d1d9; stroke-width: 0.8"/>
      </g>
     </g>
     <g id="text_10">
      <!-- $300 -->
      <g style="fill: #c9d1d9" transform="translate(7.2 66.243993) scale(0.08 -0.08)">
       <defs>
        <path id="DejaVuSans-33" d="M 2597 2516 
Q 3050 2419 3304 2112 
Q 3559 1806 3559 1356 
Q 3559 666 3084 287 
Q 2609 -91 1734 -91 
Q 1441 -91 1130 -33 
Q 819 25 488 141 
L 488 750 
Q 750 597 1062 519 
Q 1375 441 1716 441 
Q 2309 441 2620 675 
Q 2931 909 2931 1356 
Q 2931 1769 2642 2001 
Q 2353 2234 1838 2234 
L 1294 2234 
L 1294 2753 
L 1863 2753 
Q 2328 2753 2575 2939 
Q 2822 3125 2822 3475 
Q 2822 3834 2567 4026 
Q 2313 4219 1838 4219 
Q 1578 4219 1281 4162 
Q 984 4106 628 3988 
L 628 4550 
Q 988 4650 1302 4700 
Q 1616 4750 1894 4750 
Q 2613 4750 3031 4423 
Q 3450 4097 3450 3541 
Q 3450 3153 3228 2886 
Q 3006 2619 2597 2516 
z
" transform="scale(0.015625)"/>
       </defs>
       <use xlink:href="#DejaVuSans-24"/>
       <use xlink:href="#DejaVuSans-33" transform="translate(63.623047 0)"/>
       <use xlink:href="#DejaVuSans-30" transform="translate(127.246094 0)"/>
       <use xlink:href="#DejaVuSans-30" transform="translate(190.869141 0)"/>
      </g>
     </g>
    </g>
    <g id="ytick_5">
     <g id="line2d_21">
      <path d="M 34.56 35.863093 
L 417.71 35.863093 
" clip-path="url(#p72907b034c)" style="fill: none; stroke: #21262d; stroke-opacity: 0.5; stroke-width: 0.5; stroke-linecap: square"/>
     </g>
     <g id="line2d_22">
      <g>
       <use xlink:href="#m137fa4c406" x="34.56" y="35.863093" style="fill: #c9d1d9; stroke: #c9d1d9; stroke-width: 0.8"/>
      </g>
     </g>
     <g id="text_11">
      <!-- $400 -->
      <g style="fill: #c9d1d9" transform="translate(7.2 38.902468) scale(0.08 -0.08)">
       <use xlink:href="#DejaVuSans-24"/>
       <use xlink:href="#DejaVuSans-34" transform="translate(63.623047 0)"/>
       <use xlink:href="#DejaVuSans-30" transform="translate(127.246094 0)"/>
       <use xlink:href="#DejaVuSans-30" transform="translate(190.869141 0)"/>
      </g>
     </g>
    </g>
   </g>
   <g id="line2d_23">
    <path d="M 51.975909 95.448477 
L 55.390793 89.72863 
L 58.805677 89.354051 
L 62.220561 89.222812 
L 65.635446 88.254922 
L 69.05033 27.447372 
L 72.465214 53.990524 
L 75.880098 70.269667 
L 79.294982 72.719468 
L 82.709866 74.425579 
L 86.12475 75.409874 
L 89.539635 74.581426 
L 92.954519 80.809825 
L 96.369403 82.846769 
L 99.784287 79.472825 
L 103.199171 81.703893 
L 106.614055 80.910989 
L 110.028939 78.056534 
L 113.443824 80.314943 
L 116.858708 82.070269 
L 120.273592 84.016986 
L 123.688476 83.647875 
L 127.10336 86.382028 
L 130.518244 88.315073 
L 133.933128 83.448282 
L 137.348012 90.237183 
L 140.762897 82.997147 
L 144.177781 84.607563 
L 147.592665 56.579766 
L 151.007549 71.31138 
L 154.422433 74.269732 
L 157.837317 73.304577 
L 161.252201 90.710191 
L 164.667086 84.394299 
L 168.08197 82.379229 
L 171.496854 87.262425 
L 174.911738 87.401867 
L 178.326622 87.347183 
L 181.741506 86.945263 
L 185.15639 89.042358 
L 188.571275 88.645906 
L 191.986159 86.13322 
L 195.401043 88.952131 
L 198.815927 86.332813 
L 202.230811 85.561782 
L 205.645695 87.109312 
L 209.060579 85.788717 
L 212.475463 110.412493 
L 215.890348 83.87481 
L 219.305232 95.494958 
L 222.720116 127.369707 
L 226.135 112.274451 
L 229.549884 127.599376 
L 232.964768 126.054579 
L 236.379652 83.880278 
L 239.794537 75.059902 
L 243.209421 80.079806 
L 246.624305 81.835132 
L 250.039189 72.809695 
L 253.454073 76.484396 
L 256.868957 34.722952 
L 260.283841 47.17975 
L 263.698725 87.749104 
L 267.11361 86.157827 
L 270.528494 85.176266 
L 273.943378 87.735433 
L 277.358262 80.880913 
L 280.773146 87.287032 
L 284.18803 87.188603 
L 287.602914 87.869407 
L 291.017799 125.012867 
L 294.432683 86.03479 
L 297.847567 86.409369 
L 301.262451 98.945458 
L 304.677335 86.379294 
L 308.092219 125.160512 
L 311.507103 86.548811 
L 314.921988 124.591808 
L 318.336872 124.034041 
L 321.751756 87.265159 
L 325.16664 125.16598 
L 328.581524 79.956769 
L 331.996408 83.475624 
L 335.411292 75.43995 
L 338.826176 80.662181 
L 342.241061 79.038094 
L 345.655945 70.794625 
L 349.070829 76.221917 
L 352.485713 84.747005 
L 355.900597 71.981247 
L 359.315481 79.286902 
L 362.730365 84.484526 
L 366.14525 78.983411 
L 369.560134 83.325245 
L 372.975018 81.280099 
L 376.389902 83.379928 
L 379.804786 83.002615 
L 383.21967 83.565851 
L 386.634554 81.353921 
L 390.049439 85.356721 
L 393.464323 81.837866 
L 396.879207 83.557648 
L 400.294091 79.784518 
" clip-path="url(#p72907b034c)" style="fill: none; stroke: #3fb950; stroke-width: 2; stroke-linecap: square"/>
   </g>
   <g id="patch_3">
    <path d="M 34.56 151.118281 
L 34.56 21.558281 
" style="fill: none; stroke: #21262d; stroke-width: 0.8; stroke-linejoin: miter; stroke-linecap: square"/>
   </g>
   <g id="patch_4">
    <path d="M 34.56 151.118281 
L 417.71 151.118281 
" style="fill: none; stroke: #21262d; stroke-width: 0.8; stroke-linejoin: miter; stroke-linecap: square"/>
   </g>
   <g id="text_12">
    <!-- CLIANYTHING (HKUDS/CLI-Anything) — $239.36 (+6.12%) -->
    <g style="fill: #c9d1d9" transform="translate(48.556328 15.558281) scale(0.11 -0.11)">
     <defs>
      <path id="DejaVuSans-Bold-43" d="M 4288 256 
Q 3956 84 3597 -3 
Q 3238 -91 2847 -91 
Q 1681 -91 1000 561 
Q 319 1213 319 2328 
Q 319 3447 1000 4098 
Q 1681 4750 2847 4750 
Q 3238 4750 3597 4662 
Q 3956 4575 4288 4403 
L 4288 3438 
Q 3953 3666 3628 3772 
Q 3303 3878 2944 3878 
Q 2300 3878 1931 3465 
Q 1563 3053 1563 2328 
Q 1563 1606 1931 1193 
Q 2300 781 2944 781 
Q 3303 781 3628 887 
Q 3953 994 4288 1222 
L 4288 256 
z
" transform="scale(0.015625)"/>
      <path id="DejaVuSans-Bold-4c" d="M 588 4666 
L 1791 4666 
L 1791 909 
L 3903 909 
L 3903 0 
L 588 0 
L 588 4666 
z
" transform="scale(0.015625)"/>
      <path id="DejaVuSans-Bold-49" d="M 588 4666 
L 1791 4666 
L 1791 0 
L 588 0 
L 588 4666 
z
" transform="scale(0.015625)"/>
      <path id="DejaVuSans-Bold-41" d="M 3419 850 
L 1538 850 
L 1241 0 
L 31 0 
L 1759 4666 
L 3194 4666 
L 4922 0 
L 3713 0 
L 3419 850 
z
M 1838 1716 
L 3116 1716 
L 2478 3572 
L 1838 1716 
z
" transform="scale(0.015625)"/>
      <path id="DejaVuSans-Bold-4e" d="M 588 4666 
L 1931 4666 
L 3628 1466 
L 3628 4666 
L 4769 4666 
L 4769 0 
L 3425 0 
L 1728 3200 
L 1728 0 
L 588 0 
L 588 4666 
z
" transform="scale(0.015625)"/>
      <path id="DejaVuSans-Bold-59" d="M -63 4666 
L 1253 4666 
L 2316 3003 
L 3378 4666 
L 4697 4666 
L 2919 1966 
L 2919 0 
L 1716 0 
L 1716 1966 
L -63 4666 
z
" transform="scale(0.015625)"/>
      <path id="DejaVuSans-Bold-54" d="M 31 4666 
L 4331 4666 
L 4331 3756 
L 2784 3756 
L 2784 0 
L 1581 0 
L 1581 3756 
L 31 3756 
L 31 4666 
z
" transform="scale(0.015625)"/>
      <path id="DejaVuSans-Bold-48" d="M 588 4666 
L 1791 4666 
L 1791 2888 
L 3566 2888 
L 3566 4666 
L 4769 4666 
L 4769 0 
L 3566 0 
L 3566 1978 
L 1791 1978 
L 1791 0 
L 588 0 
L 588 4666 
z
" transform="scale(0.015625)"/>
      <path id="DejaVuSans-Bold-47" d="M 4781 347 
Q 4331 128 3847 18 
Q 3363 -91 2847 -91 
Q 1681 -91 1000 561 
Q 319 1213 319 2328 
Q 319 3456 1012 4103 
Q 1706 4750 2913 4750 
Q 3378 4750 3804 4662 
Q 4231 4575 4609 4403 
L 4609 3438 
Q 4219 3659 3833 3768 
Q 3447 3878 3059 3878 
Q 2341 3878 1952 3476 
Q 1563 3075 1563 2328 
Q 1563 1588 1938 1184 
Q 2313 781 3003 781 
Q 3191 781 3352 804 
Q 3513 828 3641 878 
L 3641 1784 
L 2906 1784 
L 2906 2591 
L 4781 2591 
L 4781 347 
z
" transform="scale(0.015625)"/>
      <path id="DejaVuSans-Bold-20" transform="scale(0.015625)"/>
      <path id="DejaVuSans-Bold-28" d="M 2413 -844 
L 1484 -844 
Q 1006 -72 778 623 
Q 550 1319 550 2003 
Q 550 2688 779 3389 
Q 1009 4091 1484 4856 
L 2413 4856 
Q 2013 4116 1813 3408 
Q 1613 2700 1613 2009 
Q 1613 1319 1811 609 
Q 2009 -100 2413 -844 
z
" transform="scale(0.015625)"/>
      <path id="DejaVuSans-Bold-4b" d="M 588 4666 
L 1791 4666 
L 1791 2963 
L 3525 4666 
L 4922 4666 
L 2675 2456 
L 5153 0 
L 3647 0 
L 1791 1838 
L 1791 0 
L 588 0 
L 588 4666 
z
" transform="scale(0.015625)"/>
      <path id="DejaVuSans-Bold-55" d="M 588 4666 
L 1791 4666 
L 1791 1869 
Q 1791 1291 1980 1042 
Q 2169 794 2597 794 
Q 3028 794 3217 1042 
Q 3406 1291 3406 1869 
L 3406 4666 
L 4609 4666 
L 4609 1869 
Q 4609 878 4112 393 
Q 3616 -91 2597 -91 
Q 1581 -91 1084 393 
Q 588 878 588 1869 
L 588 4666 
z
" transform="scale(0.015625)"/>
      <path id="DejaVuSans-Bold-44" d="M 1791 3756 
L 1791 909 
L 2222 909 
Q 2959 909 3348 1275 
Q 3738 1641 3738 2338 
Q 3738 3031 3350 3393 
Q 2963 3756 2222 3756 
L 1791 3756 
z
M 588 4666 
L 1856 4666 
Q 2919 4666 3439 4514 
Q 3959 4363 4331 4000 
Q 4659 3684 4818 3271 
Q 4978 2859 4978 2338 
Q 4978 1809 4818 1395 
Q 4659 981 4331 666 
Q 3956 303 3431 151 
Q 2906 0 1856 0 
L 588 0 
L 588 4666 
z
" transform="scale(0.015625)"/>
      <path id="DejaVuSans-Bold-53" d="M 3834 4519 
L 3834 3531 
Q 3450 3703 3084 3790 
Q 2719 3878 2394 3878 
Q 1963 3878 1756 3759 
Q 1550 3641 1550 3391 
Q 1550 3203 1689 3098 
Q 1828 2994 2194 2919 
L 2706 2816 
Q 3484 2659 3812 2340 
Q 4141 2022 4141 1434 
Q 4141 663 3683 286 
Q 3225 -91 2284 -91 
Q 1841 -91 1394 -6 
Q 947 78 500 244 
L 500 1259 
Q 947 1022 1364 901 
Q 1781 781 2169 781 
Q 2563 781 2772 912 
Q 2981 1044 2981 1288 
Q 2981 1506 2839 1625 
Q 2697 1744 2272 1838 
L 1806 1941 
Q 1106 2091 782 2419 
Q 459 2747 459 3303 
Q 459 4000 909 4375 
Q 1359 4750 2203 4750 
Q 2588 4750 2994 4692 
Q 3400 4634 3834 4519 
z
" transform="scale(0.015625)"/>
      <path id="DejaVuSans-Bold-2f" d="M 1644 4666 
L 2338 4666 
L 691 -594 
L 0 -594 
L 1644 4666 
z
" transform="scale(0.015625)"/>
      <path id="DejaVuSans-Bold-2d" d="M 347 2297 
L 2309 2297 
L 2309 1388 
L 347 1388 
L 347 2297 
z
" transform="scale(0.015625)"/>
      <path id="DejaVuSans-Bold-6e" d="M 4056 2131 
L 4056 0 
L 2931 0 
L 2931 347 
L 2931 1631 
Q 2931 2084 2911 2256 
Q 2891 2428 2841 2509 
Q 2775 2619 2662 2680 
Q 2550 2741 2406 2741 
Q 2056 2741 1856 2470 
Q 1656 2200 1656 1722 
L 1656 0 
L 538 0 
L 538 3500 
L 1656 3500 
L 1656 2988 
Q 1909 3294 2193 3439 
Q 2478 3584 2822 3584 
Q 3428 3584 3742 3212 
Q 4056 2841 4056 2131 
z
" transform="scale(0.015625)"/>
      <path id="DejaVuSans-Bold-79" d="M 78 3500 
L 1197 3500 
L 2138 1125 
L 2938 3500 
L 4056 3500 
L 2584 -331 
Q 2363 -916 2067 -1148 
Q 1772 -1381 1288 -1381 
L 641 -1381 
L 641 -647 
L 991 -647 
Q 1275 -647 1404 -556 
Q 1534 -466 1606 -231 
L 1638 -134 
L 78 3500 
z
" transform="scale(0.015625)"/>
      <path id="DejaVuSans-Bold-74" d="M 1759 4494 
L 1759 3500 
L 2913 3500 
L 2913 2700 
L 1759 2700 
L 1759 1216 
Q 1759 972 1856 886 
Q 1953 800 2241 800 
L 2816 800 
L 2816 0 
L 1856 0 
Q 1194 0 917 276 
Q 641 553 641 1216 
L 641 2700 
L 84 2700 
L 84 3500 
L 641 3500 
L 641 4494 
L 1759 4494 
z
" transform="scale(0.015625)"/>
      <path id="DejaVuSans-Bold-68" d="M 4056 2131 
L 4056 0 
L 2931 0 
L 2931 347 
L 2931 1625 
Q 2931 2084 2911 2256 
Q 2891 2428 2841 2509 
Q 2775 2619 2662 2680 
Q 2550 2741 2406 2741 
Q 2056 2741 1856 2470 
Q 1656 2200 1656 1722 
L 1656 0 
L 538 0 
L 538 4863 
L 1656 4863 
L 1656 2988 
Q 1909 3294 2193 3439 
Q 2478 3584 2822 3584 
Q 3428 3584 3742 3212 
Q 4056 2841 4056 2131 
z
" transform="scale(0.015625)"/>
      <path id="DejaVuSans-Bold-69" d="M 538 3500 
L 1656 3500 
L 1656 0 
L 538 0 
L 538 3500 
z
M 538 4863 
L 1656 4863 
L 1656 3950 
L 538 3950 
L 538 4863 
z
" transform="scale(0.015625)"/>
      <path id="DejaVuSans-Bold-67" d="M 2919 594 
Q 2688 288 2409 144 
Q 2131 0 1766 0 
Q 1125 0 706 504 
Q 288 1009 288 1791 
Q 288 2575 706 3076 
Q 1125 3578 1766 3578 
Q 2131 3578 2409 3434 
Q 2688 3291 2919 2981 
L 2919 3500 
L 4044 3500 
L 4044 353 
Q 4044 -491 3511 -936 
Q 2978 -1381 1966 -1381 
Q 1638 -1381 1331 -1331 
Q 1025 -1281 716 -1178 
L 716 -306 
Q 1009 -475 1290 -558 
Q 1572 -641 1856 -641 
Q 2406 -641 2662 -400 
Q 2919 -159 2919 353 
L 2919 594 
z
M 2181 2772 
Q 1834 2772 1640 2515 
Q 1447 2259 1447 1791 
Q 1447 1309 1634 1061 
Q 1822 813 2181 813 
Q 2531 813 2725 1069 
Q 2919 1325 2919 1791 
Q 2919 2259 2725 2515 
Q 2531 2772 2181 2772 
z
" transform="scale(0.015625)"/>
      <path id="DejaVuSans-Bold-29" d="M 513 -844 
Q 913 -100 1113 609 
Q 1313 1319 1313 2009 
Q 1313 2700 1113 3408 
Q 913 4116 513 4856 
L 1441 4856 
Q 1916 4091 2145 3389 
Q 2375 2688 2375 2003 
Q 2375 1319 2147 623 
Q 1919 -72 1441 -844 
L 513 -844 
z
" transform="scale(0.015625)"/>
      <path id="DejaVuSans-Bold-2014" d="M 344 2156 
L 6056 2156 
L 6056 1350 
L 344 1350 
L 344 2156 
z
" transform="scale(0.015625)"/>
      <path id="DejaVuSans-Bold-24" d="M 2484 -941 
L 1978 -941 
L 1975 0 
Q 1584 16 1218 87 
Q 853 159 506 288 
L 506 1106 
Q 866 922 1233 823 
Q 1600 725 1978 713 
L 1978 1684 
L 1875 1703 
Q 1128 1834 814 2115 
Q 500 2397 500 2925 
Q 500 3484 883 3798 
Q 1266 4113 1975 4141 
L 1978 4863 
L 2484 4863 
L 2484 4153 
Q 2797 4128 3109 4075 
Q 3422 4022 3738 3938 
L 3738 3144 
Q 3425 3275 3112 3348 
Q 2800 3422 2484 3438 
L 2484 2541 
L 2584 2522 
Q 3378 2397 3698 2105 
Q 4019 1813 4019 1241 
Q 4019 666 3637 358 
Q 3256 50 2484 6 
L 2484 -941 
z
M 1978 2613 
L 1978 3428 
Q 1756 3416 1623 3308 
Q 1491 3200 1491 3034 
Q 1491 2850 1612 2745 
Q 1734 2641 1978 2613 
z
M 2484 1594 
L 2484 725 
Q 2756 728 2892 831 
Q 3028 934 3028 1141 
Q 3028 1353 2903 1458 
Q 2778 1563 2484 1594 
z
" transform="scale(0.015625)"/>
      <path id="DejaVuSans-Bold-32" d="M 1844 884 
L 3897 884 
L 3897 0 
L 506 0 
L 506 884 
L 2209 2388 
Q 2438 2594 2547 2791 
Q 2656 2988 2656 3200 
Q 2656 3528 2436 3728 
Q 2216 3928 1850 3928 
Q 1569 3928 1234 3808 
Q 900 3688 519 3450 
L 519 4475 
Q 925 4609 1322 4679 
Q 1719 4750 2100 4750 
Q 2938 4750 3402 4381 
Q 3866 4013 3866 3353 
Q 3866 2972 3669 2642 
Q 3472 2313 2841 1759 
L 1844 884 
z
" transform="scale(0.015625)"/>
      <path id="DejaVuSans-Bold-33" d="M 2981 2516 
Q 3453 2394 3698 2092 
Q 3944 1791 3944 1325 
Q 3944 631 3412 270 
Q 2881 -91 1863 -91 
Q 1503 -91 1142 -33 
Q 781 25 428 141 
L 428 1069 
Q 766 900 1098 814 
Q 1431 728 1753 728 
Q 2231 728 2486 893 
Q 2741 1059 2741 1369 
Q 2741 1688 2480 1852 
Q 2219 2016 1709 2016 
L 1228 2016 
L 1228 2791 
L 1734 2791 
Q 2188 2791 2409 2933 
Q 2631 3075 2631 3366 
Q 2631 3634 2415 3781 
Q 2200 3928 1806 3928 
Q 1516 3928 1219 3862 
Q 922 3797 628 3669 
L 628 4550 
Q 984 4650 1334 4700 
Q 1684 4750 2022 4750 
Q 2931 4750 3382 4451 
Q 3834 4153 3834 3553 
Q 3834 3144 3618 2883 
Q 3403 2622 2981 2516 
z
" transform="scale(0.015625)"/>
      <path id="DejaVuSans-Bold-39" d="M 641 103 
L 641 966 
Q 928 831 1190 764 
Q 1453 697 1709 697 
Q 2247 697 2547 995 
Q 2847 1294 2900 1881 
Q 2688 1725 2447 1647 
Q 2206 1569 1925 1569 
Q 1209 1569 770 1986 
Q 331 2403 331 3084 
Q 331 3838 820 4291 
Q 1309 4744 2131 4744 
Q 3044 4744 3544 4128 
Q 4044 3513 4044 2388 
Q 4044 1231 3459 570 
Q 2875 -91 1856 -91 
Q 1528 -91 1228 -42 
Q 928 6 641 103 
z
M 2125 2350 
Q 2441 2350 2600 2554 
Q 2759 2759 2759 3169 
Q 2759 3575 2600 3781 
Q 2441 3988 2125 3988 
Q 1809 3988 1650 3781 
Q 1491 3575 1491 3169 
Q 1491 2759 1650 2554 
Q 1809 2350 2125 2350 
z
" transform="scale(0.015625)"/>
      <path id="DejaVuSans-Bold-2e" d="M 653 1209 
L 1778 1209 
L 1778 0 
L 653 0 
L 653 1209 
z
" transform="scale(0.015625)"/>
      <path id="DejaVuSans-Bold-36" d="M 2316 2303 
Q 2000 2303 1842 2098 
Q 1684 1894 1684 1484 
Q 1684 1075 1842 870 
Q 2000 666 2316 666 
Q 2634 666 2792 870 
Q 2950 1075 2950 1484 
Q 2950 1894 2792 2098 
Q 2634 2303 2316 2303 
z
M 3803 4544 
L 3803 3681 
Q 3506 3822 3243 3889 
Q 2981 3956 2731 3956 
Q 2194 3956 1894 3657 
Q 1594 3359 1544 2772 
Q 1750 2925 1990 3001 
Q 2231 3078 2516 3078 
Q 3231 3078 3670 2659 
Q 4109 2241 4109 1563 
Q 4109 813 3618 361 
Q 3128 -91 2303 -91 
Q 1394 -91 895 523 
Q 397 1138 397 2266 
Q 397 3422 980 4083 
Q 1563 4744 2578 4744 
Q 2900 4744 3203 4694 
Q 3506 4644 3803 4544 
z
" transform="scale(0.015625)"/>
      <path id="DejaVuSans-Bold-2b" d="M 3053 4013 
L 3053 2375 
L 4684 2375 
L 4684 1638 
L 3053 1638 
L 3053 0 
L 2309 0 
L 2309 1638 
L 678 1638 
L 678 2375 
L 2309 2375 
L 2309 4013 
L 3053 4013 
z
" transform="scale(0.015625)"/>
      <path id="DejaVuSans-Bold-31" d="M 750 831 
L 1813 831 
L 1813 3847 
L 722 3622 
L 722 4441 
L 1806 4666 
L 2950 4666 
L 2950 831 
L 4013 831 
L 4013 0 
L 750 0 
L 750 831 
z
" transform="scale(0.015625)"/>
      <path id="DejaVuSans-Bold-25" d="M 4959 1925 
Q 4738 1925 4616 1733 
Q 4494 1541 4494 1184 
Q 4494 825 4614 633 
Q 4734 441 4959 441 
Q 5184 441 5303 633 
Q 5422 825 5422 1184 
Q 5422 1541 5301 1733 
Q 5181 1925 4959 1925 
z
M 4959 2450 
Q 5541 2450 5875 2112 
Q 6209 1775 6209 1184 
Q 6209 594 5875 251 
Q 5541 -91 4959 -91 
Q 4378 -91 4042 251 
Q 3706 594 3706 1184 
Q 3706 1772 4042 2111 
Q 4378 2450 4959 2450 
z
M 2094 -91 
L 1403 -91 
L 4319 4750 
L 5013 4750 
L 2094 -91 
z
M 1453 4750 
Q 2034 4750 2367 4411 
Q 2700 4072 2700 3481 
Q 2700 2891 2367 2550 
Q 2034 2209 1453 2209 
Q 872 2209 539 2550 
Q 206 2891 206 3481 
Q 206 4072 539 4411 
Q 872 4750 1453 4750 
z
M 1453 4225 
Q 1228 4225 1106 4031 
Q 984 3838 984 3481 
Q 984 3122 1106 2926 
Q 1228 2731 1453 2731 
Q 1678 2731 1798 2926 
Q 1919 3122 1919 3481 
Q 1919 3838 1797 4031 
Q 1675 4225 1453 4225 
z
" transform="scale(0.015625)"/>
     </defs>
     <use xlink:href="#DejaVuSans-Bold-43"/>
     <use xlink:href="#DejaVuSans-Bold-4c" transform="translate(73.388672 0)"/>
     <use xlink:href="#DejaVuSans-Bold-49" transform="translate(137.109375 0)"/>
     <use xlink:href="#DejaVuSans-Bold-41" transform="translate(174.316406 0)"/>
     <use xlink:href="#DejaVuSans-Bold-4e" transform="translate(251.708984 0)"/>
     <use xlink:href="#DejaVuSans-Bold-59" transform="translate(335.400391 0)"/>
     <use xlink:href="#DejaVuSans-Bold-54" transform="translate(407.8125 0)"/>
     <use xlink:href="#DejaVuSans-Bold-48" transform="translate(476.025391 0)"/>
     <use xlink:href="#DejaVuSans-Bold-49" transform="translate(559.716797 0)"/>
     <use xlink:href="#DejaVuSans-Bold-4e" transform="translate(596.923828 0)"/>
     <use xlink:href="#DejaVuSans-Bold-47" transform="translate(680.615234 0)"/>
     <use xlink:href="#DejaVuSans-Bold-20" transform="translate(762.695312 0)"/>
     <use xlink:href="#DejaVuSans-Bold-28" transform="translate(797.509766 0)"/>
     <use xlink:href="#DejaVuSans-Bold-48" transform="translate(843.212891 0)"/>
     <use xlink:href="#DejaVuSans-Bold-4b" transform="translate(926.904297 0)"/>
     <use xlink:href="#DejaVuSans-Bold-55" transform="translate(1002.644531 0)"/>
     <use xlink:href="#DejaVuSans-Bold-44" transform="translate(1083.845703 0)"/>
     <use xlink:href="#DejaVuSans-Bold-53" transform="translate(1166.853516 0)"/>
     <use xlink:href="#DejaVuSans-Bold-2f" transform="translate(1238.875 0)"/>
     <use xlink:href="#DejaVuSans-Bold-43" transform="translate(1275.398438 0)"/>
     <use xlink:href="#DejaVuSans-Bold-4c" transform="translate(1348.787109 0)"/>
     <use xlink:href="#DejaVuSans-Bold-49" transform="translate(1412.507812 0)"/>
     <use xlink:href="#DejaVuSans-Bold-2d" transform="translate(1449.714844 0)"/>
     <use xlink:href="#DejaVuSans-Bold-41" transform="translate(1491.21875 0)"/>
     <use xlink:href="#DejaVuSans-Bold-6e" transform="translate(1568.611328 0)"/>
     <use xlink:href="#DejaVuSans-Bold-79" transform="translate(1639.802734 0)"/>
     <use xlink:href="#DejaVuSans-Bold-74" transform="translate(1704.988281 0)"/>
     <use xlink:href="#DejaVuSans-Bold-68" transform="translate(1752.791016 0)"/>
     <use xlink:href="#DejaVuSans-Bold-69" transform="translate(1823.982422 0)"/>
     <use xlink:href="#DejaVuSans-Bold-6e" transform="translate(1858.259766 0)"/>
     <use xlink:href="#DejaVuSans-Bold-67" transform="translate(1929.451172 0)"/>
     <use xlink:href="#DejaVuSans-Bold-29" transform="translate(2001.033203 0)"/>
     <use xlink:href="#DejaVuSans-Bold-20" transform="translate(2046.736328 0)"/>
     <use xlink:href="#DejaVuSans-Bold-2014" transform="translate(2081.550781 0)"/>
     <use xlink:href="#DejaVuSans-Bold-20" transform="translate(2181.550781 0)"/>
     <use xlink:href="#DejaVuSans-Bold-24" transform="translate(2216.365234 0)"/>
     <use xlink:href="#DejaVuSans-Bold-32" transform="translate(2285.945312 0)"/>
     <use xlink:href="#DejaVuSans-Bold-33" transform="translate(2355.525391 0)"/>
     <use xlink:href="#DejaVuSans-Bold-39" transform="translate(2425.105469 0)"/>
     <use xlink:href="#DejaVuSans-Bold-2e" transform="translate(2494.685547 0)"/>
     <use xlink:href="#DejaVuSans-Bold-33" transform="translate(2532.673828 0)"/>
     <use xlink:href="#DejaVuSans-Bold-36" transform="translate(2602.253906 0)"/>
     <use xlink:href="#DejaVuSans-Bold-20" transform="translate(2671.833984 0)"/>
     <use xlink:href="#DejaVuSans-Bold-28" transform="translate(2706.648438 0)"/>
     <use xlink:href="#DejaVuSans-Bold-2b" transform="translate(2752.351562 0)"/>
     <use xlink:href="#DejaVuSans-Bold-36" transform="translate(2836.140625 0)"/>
     <use xlink:href="#DejaVuSans-Bold-2e" transform="translate(2905.720703 0)"/>
     <use xlink:href="#DejaVuSans-Bold-31" transform="translate(2943.708984 0)"/>
     <use xlink:href="#DejaVuSans-Bold-32" transform="translate(3013.289062 0)"/>
     <use xlink:href="#DejaVuSans-Bold-25" transform="translate(3082.869141 0)"/>
     <use xlink:href="#DejaVuSans-Bold-29" transform="translate(3183.064453 0)"/>
    </g>
   </g>
  </g>
 </g>
 <defs>
  <clipPath id="p72907b034c">
   <rect x="34.56" y="21.558281" width="383.15" height="129.56"/>
  </clipPath>
 </defs>
</svg>
