<?xml version="1.0" encoding="utf-8" standalone="no"?>
<!DOCTYPE svg PUBLIC "-//W3C//DTD SVG 1.1//EN"
  "http://www.w3.org/Graphics/SVG/1.1/DTD/svg11.dtd">
<svg xmlns:xlink="http://www.w3.org/1999/xlink" width="424.718986pt" height="173.060781pt" viewBox="0 0 424.718986 173.060781" xmlns="http://www.w3.org/2000/svg" version="1.1">
 <metadata>
  <rdf:RDF xmlns:dc="http://purl.org/dc/elements/1.1/" xmlns:cc="http://creativecommons.org/ns#" xmlns:rdf="http://www.w3.org/1999/02/22-rdf-syntax-ns#">
   <cc:Work>
    <dc:type rdf:resource="http://purl.org/dc/dcmitype/StillImage"/>
    <dc:date>2026-04-22T06:42:08.035566</dc:date>
    <dc:format>image/svg+xml</dc:format>
    <dc:creator>
     <cc:Agent>
      <dc:title>Matplotlib v3.10.8, https://matplotlib.org/</dc:title>
     </cc:Agent>
    </dc:creator>
   </cc:Work>
  </rdf:RDF>
 </metadata>
 <defs>
  <style type="text/css">*{stroke-linejoin: round; stroke-linecap: butt}</style>
 </defs>
 <g id="figure_1">
  <g id="patch_1">
   <path d="M 0 173.060781 
L 424.718986 173.060781 
L 424.718986 0 
L 0 0 
z
" style="fill: #0d1117"/>
  </g>
  <g id="axes_1">
   <g id="patch_2">
    <path d="M 34.56 151.118281 
L 417.518986 151.118281 
L 417.518986 21.558281 
L 34.56 21.558281 
z
" style="fill: #0d1117"/>
   </g>
   <g id="FillBetweenPolyCollection_1">
    <defs>
     <path id="mfb697ec1f2" d="M 51.967227 -27.831591 
L 51.967227 -111.478094 
L 54.942821 -99.496723 
L 57.918415 -99.208016 
L 60.89401 -99.641077 
L 63.869604 -103.308978 
L 66.845198 -92.114992 
L 69.820792 -93.731318 
L 72.796387 -91.981574 
L 75.771981 -91.296987 
L 78.747575 -93.107971 
L 81.72317 -92.919874 
L 84.698764 -98.449064 
L 87.674358 -89.781271 
L 90.649952 -93.057666 
L 93.625547 -89.046379 
L 96.601141 -88.449278 
L 99.576735 -82.456406 
L 102.55233 -88.648312 
L 105.527924 -85.352232 
L 108.503518 -86.887632 
L 111.479113 -93.52791 
L 114.454707 -135.208995 
L 117.430301 -133.233972 
L 120.405895 -133.83982 
L 123.38149 -131.018358 
L 126.357084 -134.622831 
L 129.332678 -78.123603 
L 132.308273 -85.157573 
L 135.283867 -89.184171 
L 138.259461 -85.627817 
L 141.235056 -86.690786 
L 144.21065 -87.963725 
L 147.186244 -87.099789 
L 150.161838 -87.70345 
L 153.137433 -84.013678 
L 156.113027 -87.854366 
L 159.088621 -84.700452 
L 162.064216 -88.392412 
L 165.03981 -85.409099 
L 168.015404 -92.989864 
L 170.990999 -69.578291 
L 173.966593 -89.372268 
L 176.942187 -90.688951 
L 179.917781 -56.980136 
L 182.893376 -92.394951 
L 185.86897 -89.597548 
L 188.844564 -91.793476 
L 191.820159 -93.125469 
L 194.795753 -141.188744 
L 197.771347 -133.852943 
L 200.746941 -132.507828 
L 203.722536 -137.726439 
L 206.69813 -134.581274 
L 209.673724 -81.09598 
L 212.649319 -84.921357 
L 215.624913 -91.461025 
L 218.600507 -87.624712 
L 221.576102 -92.823638 
L 224.551696 -127.252035 
L 227.52729 -101.342703 
L 230.502884 -105.109027 
L 233.478479 -104.586291 
L 236.454073 -110.970669 
L 239.429667 -100.054454 
L 242.405262 -107.827691 
L 245.380856 -100.767475 
L 248.35645 -101.872001 
L 251.332045 -112.665733 
L 254.307639 -94.56682 
L 257.283233 -111.029722 
L 260.258827 -95.728213 
L 263.234422 -110.025807 
L 266.210016 -102.06666 
L 269.18561 -104.599414 
L 272.161205 -104.905619 
L 275.136799 -109.212176 
L 278.112393 -121.801583 
L 281.087988 -115.231295 
L 284.063582 -114.49859 
L 287.039176 -145.613409 
L 290.01477 -135.22868 
L 292.990365 -91.618502 
L 295.965959 -96.222515 
L 298.941553 -90.00655 
L 301.917148 -87.790937 
L 304.892742 -89.855635 
L 307.868336 -86.651417 
L 310.84393 -87.895922 
L 313.819525 -89.612858 
L 316.795119 -85.525019 
L 319.770713 -86.181173 
L 322.746308 -89.166673 
L 325.721902 -89.149176 
L 328.697496 -89.304466 
L 331.673091 -90.785186 
L 334.648685 -91.071707 
L 337.624279 -90.483356 
L 340.599873 -86.66454 
L 343.575468 -92.09312 
L 346.551062 -87.438801 
L 349.526656 -90.890171 
L 352.502251 -88.980763 
L 355.477845 -90.080915 
L 358.453439 -90.579592 
L 361.429034 -101.528614 
L 364.404628 -90.275574 
L 367.380222 -96.108782 
L 370.355816 -96.872108 
L 373.331411 -97.357662 
L 376.307005 -91.482897 
L 379.282599 -89.671912 
L 382.258194 -91.841594 
L 385.233788 -95.621041 
L 388.209382 -96.948659 
L 391.184976 -93.659141 
L 394.160571 -94.890523 
L 397.136165 -93.987218 
L 400.111759 -96.22689 
L 400.111759 -27.831591 
L 400.111759 -27.831591 
L 397.136165 -27.831591 
L 394.160571 -27.831591 
L 391.184976 -27.831591 
L 388.209382 -27.831591 
L 385.233788 -27.831591 
L 382.258194 -27.831591 
L 379.282599 -27.831591 
L 376.307005 -27.831591 
L 373.331411 -27.831591 
L 370.355816 -27.831591 
L 367.380222 -27.831591 
L 364.404628 -27.831591 
L 361.429034 -27.831591 
L 358.453439 -27.831591 
L 355.477845 -27.831591 
L 352.502251 -27.831591 
L 349.526656 -27.831591 
L 346.551062 -27.831591 
L 343.575468 -27.831591 
L 340.599873 -27.831591 
L 337.624279 -27.831591 
L 334.648685 -27.831591 
L 331.673091 -27.831591 
L 328.697496 -27.831591 
L 325.721902 -27.831591 
L 322.746308 -27.831591 
L 319.770713 -27.831591 
L 316.795119 -27.831591 
L 313.819525 -27.831591 
L 310.84393 -27.831591 
L 307.868336 -27.831591 
L 304.892742 -27.831591 
L 301.917148 -27.831591 
L 298.941553 -27.831591 
L 295.965959 -27.831591 
L 292.990365 -27.831591 
L 290.01477 -27.831591 
L 287.039176 -27.831591 
L 284.063582 -27.831591 
L 281.087988 -27.831591 
L 278.112393 -27.831591 
L 275.136799 -27.831591 
L 272.161205 -27.831591 
L 269.18561 -27.831591 
L 266.210016 -27.831591 
L 263.234422 -27.831591 
L 260.258827 -27.831591 
L 257.283233 -27.831591 
L 254.307639 -27.831591 
L 251.332045 -27.831591 
L 248.35645 -27.831591 
L 245.380856 -27.831591 
L 242.405262 -27.831591 
L 239.429667 -27.831591 
L 236.454073 -27.831591 
L 233.478479 -27.831591 
L 230.502884 -27.831591 
L 227.52729 -27.831591 
L 224.551696 -27.831591 
L 221.576102 -27.831591 
L 218.600507 -27.831591 
L 215.624913 -27.831591 
L 212.649319 -27.831591 
L 209.673724 -27.831591 
L 206.69813 -27.831591 
L 203.722536 -27.831591 
L 200.746941 -27.831591 
L 197.771347 -27.831591 
L 194.795753 -27.831591 
L 191.820159 -27.831591 
L 188.844564 -27.831591 
L 185.86897 -27.831591 
L 182.893376 -27.831591 
L 179.917781 -27.831591 
L 176.942187 -27.831591 
L 173.966593 -27.831591 
L 170.990999 -27.831591 
L 168.015404 -27.831591 
L 165.03981 -27.831591 
L 162.064216 -27.831591 
L 159.088621 -27.831591 
L 156.113027 -27.831591 
L 153.137433 -27.831591 
L 150.161838 -27.831591 
L 147.186244 -27.831591 
L 144.21065 -27.831591 
L 141.235056 -27.831591 
L 138.259461 -27.831591 
L 135.283867 -27.831591 
L 132.308273 -27.831591 
L 129.332678 -27.831591 
L 126.357084 -27.831591 
L 123.38149 -27.831591 
L 120.405895 -27.831591 
L 117.430301 -27.831591 
L 114.454707 -27.831591 
L 111.479113 -27.831591 
L 108.503518 -27.831591 
L 105.527924 -27.831591 
L 102.55233 -27.831591 
L 99.576735 -27.831591 
L 96.601141 -27.831591 
L 93.625547 -27.831591 
L 90.649952 -27.831591 
L 87.674358 -27.831591 
L 84.698764 -27.831591 
L 81.72317 -27.831591 
L 78.747575 -27.831591 
L 75.771981 -27.831591 
L 72.796387 -27.831591 
L 69.820792 -27.831591 
L 66.845198 -27.831591 
L 63.869604 -27.831591 
L 60.89401 -27.831591 
L 57.918415 -27.831591 
L 54.942821 -27.831591 
L 51.967227 -27.831591 
z
" style="stroke: #f85149; stroke-opacity: 0.15"/>
    </defs>
    <g clip-path="url(#pf199cf8c1d)">
     <use xlink:href="#mfb697ec1f2" x="0" y="173.060781" style="fill: #f85149; fill-opacity: 0.15; stroke: #f85149; stroke-opacity: 0.15"/>
    </g>
   </g>
   <g id="matplotlib.axis_1">
    <g id="xtick_1">
     <g id="line2d_1">
      <path d="M 51.967227 151.118281 
L 51.967227 21.558281 
" clip-path="url(#pf199cf8c1d)" style="fill: none; stroke: #21262d; stroke-opacity: 0.5; stroke-width: 0.5; stroke-linecap: square"/>
     </g>
     <g id="line2d_2">
      <defs>
       <path id="m05b461355f" d="M 0 0 
L 0 3.5 
" style="stroke: #c9d1d9; stroke-width: 0.8"/>
      </defs>
      <g>
       <use xlink:href="#m05b461355f" x="51.967227" y="151.118281" style="fill: #c9d1d9; stroke: #c9d1d9; stroke-width: 0.8"/>
      </g>
     </g>
     <g id="text_1">
      <!-- 0 -->
      <g style="fill: #c9d1d9" transform="translate(49.422227 164.197031) scale(0.08 -0.08)">
       <defs>
        <path id="DejaVuSans-30" d="M 2034 4250 
Q 1547 4250 1301 3770 
Q 1056 3291 1056 2328 
Q 1056 1369 1301 889 
Q 1547 409 2034 409 
Q 2525 409 2770 889 
Q 3016 1369 3016 2328 
Q 3016 3291 2770 3770 
Q 2525 4250 2034 4250 
z
M 2034 4750 
Q 2819 4750 3233 4129 
Q 3647 3509 3647 2328 
Q 3647 1150 3233 529 
Q 2819 -91 2034 -91 
Q 1250 -91 836 529 
Q 422 1150 422 2328 
Q 422 3509 836 4129 
Q 1250 4750 2034 4750 
z
" transform="scale(0.015625)"/>
       </defs>
       <use xlink:href="#DejaVuSans-30"/>
      </g>
     </g>
    </g>
    <g id="xtick_2">
     <g id="line2d_3">
      <path d="M 111.479113 151.118281 
L 111.479113 21.558281 
" clip-path="url(#pf199cf8c1d)" style="fill: none; stroke: #21262d; stroke-opacity: 0.5; stroke-width: 0.5; stroke-linecap: square"/>
     </g>
     <g id="line2d_4">
      <g>
       <use xlink:href="#m05b461355f" x="111.479113" y="151.118281" style="fill: #c9d1d9; stroke: #c9d1d9; stroke-width: 0.8"/>
      </g>
     </g>
     <g id="text_2">
      <!-- 20 -->
      <g style="fill: #c9d1d9" transform="translate(106.389113 164.197031) scale(0.08 -0.08)">
       <defs>
        <path id="DejaVuSans-32" d="M 1228 531 
L 3431 531 
L 3431 0 
L 469 0 
L 469 531 
Q 828 903 1448 1529 
Q 2069 2156 2228 2338 
Q 2531 2678 2651 2914 
Q 2772 3150 2772 3378 
Q 2772 3750 2511 3984 
Q 2250 4219 1831 4219 
Q 1534 4219 1204 4116 
Q 875 4013 500 3803 
L 500 4441 
Q 881 4594 1212 4672 
Q 1544 4750 1819 4750 
Q 2544 4750 2975 4387 
Q 3406 4025 3406 3419 
Q 3406 3131 3298 2873 
Q 3191 2616 2906 2266 
Q 2828 2175 2409 1742 
Q 1991 1309 1228 531 
z
" transform="scale(0.015625)"/>
       </defs>
       <use xlink:href="#DejaVuSans-32"/>
       <use xlink:href="#DejaVuSans-30" transform="translate(63.623047 0)"/>
      </g>
     </g>
    </g>
    <g id="xtick_3">
     <g id="line2d_5">
      <path d="M 170.990999 151.118281 
L 170.990999 21.558281 
" clip-path="url(#pf199cf8c1d)" style="fill: none; stroke: #21262d; stroke-opacity: 0.5; stroke-width: 0.5; stroke-linecap: square"/>
     </g>
     <g id="line2d_6">
      <g>
       <use xlink:href="#m05b461355f" x="170.990999" y="151.118281" style="fill: #c9d1d9; stroke: #c9d1d9; stroke-width: 0.8"/>
      </g>
     </g>
     <g id="text_3">
      <!-- 40 -->
      <g style="fill: #c9d1d9" transform="translate(165.900999 164.197031) scale(0.08 -0.08)">
       <defs>
        <path id="DejaVuSans-34" d="M 2419 4116 
L 825 1625 
L 2419 1625 
L 2419 4116 
z
M 2253 4666 
L 3047 4666 
L 3047 1625 
L 3713 1625 
L 3713 1100 
L 3047 1100 
L 3047 0 
L 2419 0 
L 2419 1100 
L 313 1100 
L 313 1709 
L 2253 4666 
z
" transform="scale(0.015625)"/>
       </defs>
       <use xlink:href="#DejaVuSans-34"/>
       <use xlink:href="#DejaVuSans-30" transform="translate(63.623047 0)"/>
      </g>
     </g>
    </g>
    <g id="xtick_4">
     <g id="line2d_7">
      <path d="M 230.502884 151.118281 
L 230.502884 21.558281 
" clip-path="url(#pf199cf8c1d)" style="fill: none; stroke: #21262d; stroke-opacity: 0.5; stroke-width: 0.5; stroke-linecap: square"/>
     </g>
     <g id="line2d_8">
      <g>
       <use xlink:href="#m05b461355f" x="230.502884" y="151.118281" style="fill: #c9d1d9; stroke: #c9d1d9; stroke-width: 0.8"/>
      </g>
     </g>
     <g id="text_4">
      <!-- 60 -->
      <g style="fill: #c9d1d9" transform="translate(225.412884 164.197031) scale(0.08 -0.08)">
       <defs>
        <path id="DejaVuSans-36" d="M 2113 2584 
Q 1688 2584 1439 2293 
Q 1191 2003 1191 1497 
Q 1191 994 1439 701 
Q 1688 409 2113 409 
Q 2538 409 2786 701 
Q 3034 994 3034 1497 
Q 3034 2003 2786 2293 
Q 2538 2584 2113 2584 
z
M 3366 4563 
L 3366 3988 
Q 3128 4100 2886 4159 
Q 2644 4219 2406 4219 
Q 1781 4219 1451 3797 
Q 1122 3375 1075 2522 
Q 1259 2794 1537 2939 
Q 1816 3084 2150 3084 
Q 2853 3084 3261 2657 
Q 3669 2231 3669 1497 
Q 3669 778 3244 343 
Q 2819 -91 2113 -91 
Q 1303 -91 875 529 
Q 447 1150 447 2328 
Q 447 3434 972 4092 
Q 1497 4750 2381 4750 
Q 2619 4750 2861 4703 
Q 3103 4656 3366 4563 
z
" transform="scale(0.015625)"/>
       </defs>
       <use xlink:href="#DejaVuSans-36"/>
       <use xlink:href="#DejaVuSans-30" transform="translate(63.623047 0)"/>
      </g>
     </g>
    </g>
    <g id="xtick_5">
     <g id="line2d_9">
      <path d="M 290.01477 151.118281 
L 290.01477 21.558281 
" clip-path="url(#pf199cf8c1d)" style="fill: none; stroke: #21262d; stroke-opacity: 0.5; stroke-width: 0.5; stroke-linecap: square"/>
     </g>
     <g id="line2d_10">
      <g>
       <use xlink:href="#m05b461355f" x="290.01477" y="151.118281" style="fill: #c9d1d9; stroke: #c9d1d9; stroke-width: 0.8"/>
      </g>
     </g>
     <g id="text_5">
      <!-- 80 -->
      <g style="fill: #c9d1d9" transform="translate(284.92477 164.197031) scale(0.08 -0.08)">
       <defs>
        <path id="DejaVuSans-38" d="M 2034 2216 
Q 1584 2216 1326 1975 
Q 1069 1734 1069 1313 
Q 1069 891 1326 650 
Q 1584 409 2034 409 
Q 2484 409 2743 651 
Q 3003 894 3003 1313 
Q 3003 1734 2745 1975 
Q 2488 2216 2034 2216 
z
M 1403 2484 
Q 997 2584 770 2862 
Q 544 3141 544 3541 
Q 544 4100 942 4425 
Q 1341 4750 2034 4750 
Q 2731 4750 3128 4425 
Q 3525 4100 3525 3541 
Q 3525 3141 3298 2862 
Q 3072 2584 2669 2484 
Q 3125 2378 3379 2068 
Q 3634 1759 3634 1313 
Q 3634 634 3220 271 
Q 2806 -91 2034 -91 
Q 1263 -91 848 271 
Q 434 634 434 1313 
Q 434 1759 690 2068 
Q 947 2378 1403 2484 
z
M 1172 3481 
Q 1172 3119 1398 2916 
Q 1625 2713 2034 2713 
Q 2441 2713 2670 2916 
Q 2900 3119 2900 3481 
Q 2900 3844 2670 4047 
Q 2441 4250 2034 4250 
Q 1625 4250 1398 4047 
Q 1172 3844 1172 3481 
z
" transform="scale(0.015625)"/>
       </defs>
       <use xlink:href="#DejaVuSans-38"/>
       <use xlink:href="#DejaVuSans-30" transform="translate(63.623047 0)"/>
      </g>
     </g>
    </g>
    <g id="xtick_6">
     <g id="line2d_11">
      <path d="M 349.526656 151.118281 
L 349.526656 21.558281 
" clip-path="url(#pf199cf8c1d)" style="fill: none; stroke: #21262d; stroke-opacity: 0.5; stroke-width: 0.5; stroke-linecap: square"/>
     </g>
     <g id="line2d_12">
      <g>
       <use xlink:href="#m05b461355f" x="349.526656" y="151.118281" style="fill: #c9d1d9; stroke: #c9d1d9; stroke-width: 0.8"/>
      </g>
     </g>
     <g id="text_6">
      <!-- 100 -->
      <g style="fill: #c9d1d9" transform="translate(341.891656 164.197031) scale(0.08 -0.08)">
       <defs>
        <path id="DejaVuSans-31" d="M 794 531 
L 1825 531 
L 1825 4091 
L 703 3866 
L 703 4441 
L 1819 4666 
L 2450 4666 
L 2450 531 
L 3481 531 
L 3481 0 
L 794 0 
L 794 531 
z
" transform="scale(0.015625)"/>
       </defs>
       <use xlink:href="#DejaVuSans-31"/>
       <use xlink:href="#DejaVuSans-30" transform="translate(63.623047 0)"/>
       <use xlink:href="#DejaVuSans-30" transform="translate(127.246094 0)"/>
      </g>
     </g>
    </g>
    <g id="xtick_7">
     <g id="line2d_13">
      <path d="M 409.038542 151.118281 
L 409.038542 21.558281 
" clip-path="url(#pf199cf8c1d)" style="fill: none; stroke: #21262d; stroke-opacity: 0.5; stroke-width: 0.5; stroke-linecap: square"/>
     </g>
     <g id="line2d_14">
      <g>
       <use xlink:href="#m05b461355f" x="409.038542" y="151.118281" style="fill: #c9d1d9; stroke: #c9d1d9; stroke-width: 0.8"/>
      </g>
     </g>
     <g id="text_7">
      <!-- 120 -->
      <g style="fill: #c9d1d9" transform="translate(401.403542 164.197031) scale(0.08 -0.08)">
       <use xlink:href="#DejaVuSans-31"/>
       <use xlink:href="#DejaVuSans-32" transform="translate(63.623047 0)"/>
       <use xlink:href="#DejaVuSans-30" transform="translate(127.246094 0)"/>
      </g>
     </g>
    </g>
   </g>
   <g id="matplotlib.axis_2">
    <g id="ytick_1">
     <g id="line2d_15">
      <path d="M 34.56 145.22919 
L 417.518986 145.22919 
" clip-path="url(#pf199cf8c1d)" style="fill: none; stroke: #21262d; stroke-opacity: 0.5; stroke-width: 0.5; stroke-linecap: square"/>
     </g>
     <g id="line2d_16">
      <defs>
       <path id="me6bc92c43e" d="M 0 0 
L -3.5 0 
" style="stroke: #c9d1d9; stroke-width: 0.8"/>
      </defs>
      <g>
       <use xlink:href="#me6bc92c43e" x="34.56" y="145.22919" style="fill: #c9d1d9; stroke: #c9d1d9; stroke-width: 0.8"/>
      </g>
     </g>
     <g id="text_8">
      <!-- $0 -->
      <g style="fill: #c9d1d9" transform="translate(17.38 148.268565) scale(0.08 -0.08)">
       <defs>
        <path id="DejaVuSans-24" d="M 2163 -941 
L 1850 -941 
L 1847 0 
Q 1519 6 1191 76 
Q 863 147 531 288 
L 531 850 
Q 850 650 1176 548 
Q 1503 447 1850 444 
L 1850 1869 
Q 1159 1981 845 2250 
Q 531 2519 531 2988 
Q 531 3497 872 3790 
Q 1213 4084 1850 4128 
L 1850 4863 
L 2163 4863 
L 2163 4138 
Q 2453 4125 2725 4076 
Q 2997 4028 3256 3944 
L 3256 3397 
Q 2997 3528 2723 3600 
Q 2450 3672 2163 3684 
L 2163 2350 
Q 2872 2241 3206 1959 
Q 3541 1678 3541 1191 
Q 3541 663 3186 358 
Q 2831 53 2163 6 
L 2163 -941 
z
M 1850 2406 
L 1850 3688 
Q 1488 3647 1297 3481 
Q 1106 3316 1106 3041 
Q 1106 2772 1282 2622 
Q 1459 2472 1850 2406 
z
M 2163 1806 
L 2163 453 
Q 2559 506 2761 678 
Q 2963 850 2963 1131 
Q 2963 1406 2770 1568 
Q 2578 1731 2163 1806 
z
" transform="scale(0.015625)"/>
       </defs>
       <use xlink:href="#DejaVuSans-24"/>
       <use xlink:href="#DejaVuSans-30" transform="translate(63.623047 0)"/>
      </g>
     </g>
    </g>
    <g id="ytick_2">
     <g id="line2d_17">
      <path d="M 34.56 123.357393 
L 417.518986 123.357393 
" clip-path="url(#pf199cf8c1d)" style="fill: none; stroke: #21262d; stroke-opacity: 0.5; stroke-width: 0.5; stroke-linecap: square"/>
     </g>
     <g id="line2d_18">
      <g>
       <use xlink:href="#me6bc92c43e" x="34.56" y="123.357393" style="fill: #c9d1d9; stroke: #c9d1d9; stroke-width: 0.8"/>
      </g>
     </g>
     <g id="text_9">
      <!-- $100 -->
      <g style="fill: #c9d1d9" transform="translate(7.2 126.396768) scale(0.08 -0.08)">
       <use xlink:href="#DejaVuSans-24"/>
       <use xlink:href="#DejaVuSans-31" transform="translate(63.623047 0)"/>
       <use xlink:href="#DejaVuSans-30" transform="translate(127.246094 0)"/>
       <use xlink:href="#DejaVuSans-30" transform="translate(190.869141 0)"/>
      </g>
     </g>
    </g>
    <g id="ytick_3">
     <g id="line2d_19">
      <path d="M 34.56 101.485595 
L 417.518986 101.485595 
" clip-path="url(#pf199cf8c1d)" style="fill: none; stroke: #21262d; stroke-opacity: 0.5; stroke-width: 0.5; stroke-linecap: square"/>
     </g>
     <g id="line2d_20">
      <g>
       <use xlink:href="#me6bc92c43e" x="34.56" y="101.485595" style="fill: #c9d1d9; stroke: #c9d1d9; stroke-width: 0.8"/>
      </g>
     </g>
     <g id="text_10">
      <!-- $200 -->
      <g style="fill: #c9d1d9" transform="translate(7.2 104.52497) scale(0.08 -0.08)">
       <use xlink:href="#DejaVuSans-24"/>
       <use xlink:href="#DejaVuSans-32" transform="translate(63.623047 0)"/>
       <use xlink:href="#DejaVuSans-30" transform="translate(127.246094 0)"/>
       <use xlink:href="#DejaVuSans-30" transform="translate(190.869141 0)"/>
      </g>
     </g>
    </g>
    <g id="ytick_4">
     <g id="line2d_21">
      <path d="M 34.56 79.613797 
L 417.518986 79.613797 
" clip-path="url(#pf199cf8c1d)" style="fill: none; stroke: #21262d; stroke-opacity: 0.5; stroke-width: 0.5; stroke-linecap: square"/>
     </g>
     <g id="line2d_22">
      <g>
       <use xlink:href="#me6bc92c43e" x="34.56" y="79.613797" style="fill: #c9d1d9; stroke: #c9d1d9; stroke-width: 0.8"/>
      </g>
     </g>
     <g id="text_11">
      <!-- $300 -->
      <g style="fill: #c9d1d9" transform="translate(7.2 82.653172) scale(0.08 -0.08)">
       <defs>
        <path id="DejaVuSans-33" d="M 2597 2516 
Q 3050 2419 3304 2112 
Q 3559 1806 3559 1356 
Q 3559 666 3084 287 
Q 2609 -91 1734 -91 
Q 1441 -91 1130 -33 
Q 819 25 488 141 
L 488 750 
Q 750 597 1062 519 
Q 1375 441 1716 441 
Q 2309 441 2620 675 
Q 2931 909 2931 1356 
Q 2931 1769 2642 2001 
Q 2353 2234 1838 2234 
L 1294 2234 
L 1294 2753 
L 1863 2753 
Q 2328 2753 2575 2939 
Q 2822 3125 2822 3475 
Q 2822 3834 2567 4026 
Q 2313 4219 1838 4219 
Q 1578 4219 1281 4162 
Q 984 4106 628 3988 
L 628 4550 
Q 988 4650 1302 4700 
Q 1616 4750 1894 4750 
Q 2613 4750 3031 4423 
Q 3450 4097 3450 3541 
Q 3450 3153 3228 2886 
Q 3006 2619 2597 2516 
z
" transform="scale(0.015625)"/>
       </defs>
       <use xlink:href="#DejaVuSans-24"/>
       <use xlink:href="#DejaVuSans-33" transform="translate(63.623047 0)"/>
       <use xlink:href="#DejaVuSans-30" transform="translate(127.246094 0)"/>
       <use xlink:href="#DejaVuSans-30" transform="translate(190.869141 0)"/>
      </g>
     </g>
    </g>
    <g id="ytick_5">
     <g id="line2d_23">
      <path d="M 34.56 57.741999 
L 417.518986 57.741999 
" clip-path="url(#pf199cf8c1d)" style="fill: none; stroke: #21262d; stroke-opacity: 0.5; stroke-width: 0.5; stroke-linecap: square"/>
     </g>
     <g id="line2d_24">
      <g>
       <use xlink:href="#me6bc92c43e" x="34.56" y="57.741999" style="fill: #c9d1d9; stroke: #c9d1d9; stroke-width: 0.8"/>
      </g>
     </g>
     <g id="text_12">
      <!-- $400 -->
      <g style="fill: #c9d1d9" transform="translate(7.2 60.781374) scale(0.08 -0.08)">
       <use xlink:href="#DejaVuSans-24"/>
       <use xlink:href="#DejaVuSans-34" transform="translate(63.623047 0)"/>
       <use xlink:href="#DejaVuSans-30" transform="translate(127.246094 0)"/>
       <use xlink:href="#DejaVuSans-30" transform="translate(190.869141 0)"/>
      </g>
     </g>
    </g>
    <g id="ytick_6">
     <g id="line2d_25">
      <path d="M 34.56 35.870201 
L 417.518986 35.870201 
" clip-path="url(#pf199cf8c1d)" style="fill: none; stroke: #21262d; stroke-opacity: 0.5; stroke-width: 0.5; stroke-linecap: square"/>
     </g>
     <g id="line2d_26">
      <g>
       <use xlink:href="#me6bc92c43e" x="34.56" y="35.870201" style="fill: #c9d1d9; stroke: #c9d1d9; stroke-width: 0.8"/>
      </g>
     </g>
     <g id="text_13">
      <!-- $500 -->
      <g style="fill: #c9d1d9" transform="translate(7.2 38.909576) scale(0.08 -0.08)">
       <defs>
        <path id="DejaVuSans-35" d="M 691 4666 
L 3169 4666 
L 3169 4134 
L 1269 4134 
L 1269 2991 
Q 1406 3038 1543 3061 
Q 1681 3084 1819 3084 
Q 2600 3084 3056 2656 
Q 3513 2228 3513 1497 
Q 3513 744 3044 326 
Q 2575 -91 1722 -91 
Q 1428 -91 1123 -41 
Q 819 9 494 109 
L 494 744 
Q 775 591 1075 516 
Q 1375 441 1709 441 
Q 2250 441 2565 725 
Q 2881 1009 2881 1497 
Q 2881 1984 2565 2268 
Q 2250 2553 1709 2553 
Q 1456 2553 1204 2497 
Q 953 2441 691 2322 
L 691 4666 
z
" transform="scale(0.015625)"/>
       </defs>
       <use xlink:href="#DejaVuSans-24"/>
       <use xlink:href="#DejaVuSans-35" transform="translate(63.623047 0)"/>
       <use xlink:href="#DejaVuSans-30" transform="translate(127.246094 0)"/>
       <use xlink:href="#DejaVuSans-30" transform="translate(190.869141 0)"/>
      </g>
     </g>
    </g>
   </g>
   <g id="line2d_27">
    <path d="M 51.967227 61.582687 
L 54.942821 73.564058 
L 57.918415 73.852765 
L 60.89401 73.419704 
L 63.869604 69.751803 
L 66.845198 80.94579 
L 69.820792 79.329464 
L 72.796387 81.079207 
L 75.771981 81.763795 
L 78.747575 79.95281 
L 81.72317 80.140907 
L 84.698764 74.611717 
L 87.674358 83.27951 
L 90.649952 80.003115 
L 93.625547 84.014403 
L 96.601141 84.611503 
L 99.576735 90.604375 
L 102.55233 84.412469 
L 105.527924 87.708549 
L 108.503518 86.173149 
L 111.479113 79.532871 
L 114.454707 37.851786 
L 117.430301 39.82681 
L 120.405895 39.220961 
L 123.38149 42.042423 
L 126.357084 38.437951 
L 129.332678 94.937179 
L 132.308273 87.903208 
L 135.283867 83.87661 
L 138.259461 87.432965 
L 141.235056 86.369995 
L 144.21065 85.097057 
L 147.186244 85.960993 
L 150.161838 85.357331 
L 153.137433 89.047103 
L 156.113027 85.206416 
L 159.088621 88.360329 
L 162.064216 84.668369 
L 165.03981 87.651683 
L 168.015404 80.070918 
L 170.990999 103.48249 
L 173.966593 83.688513 
L 176.942187 82.371831 
L 179.917781 116.080645 
L 182.893376 80.66583 
L 185.86897 83.463233 
L 188.844564 81.267305 
L 191.820159 79.935312 
L 194.795753 31.872037 
L 197.771347 39.207838 
L 200.746941 40.552953 
L 203.722536 35.334342 
L 206.69813 38.479507 
L 209.673724 91.964801 
L 212.649319 88.139424 
L 215.624913 81.599756 
L 218.600507 85.43607 
L 221.576102 80.237143 
L 224.551696 45.808746 
L 227.52729 71.718078 
L 230.502884 67.951754 
L 233.478479 68.47449 
L 236.454073 62.090113 
L 239.429667 73.006327 
L 242.405262 65.23309 
L 245.380856 72.293306 
L 248.35645 71.188781 
L 251.332045 60.395048 
L 254.307639 78.493961 
L 257.283233 62.031059 
L 260.258827 77.332569 
L 263.234422 63.034974 
L 266.210016 70.994122 
L 269.18561 68.461367 
L 272.161205 68.155162 
L 275.136799 63.848605 
L 278.112393 51.259198 
L 281.087988 57.829486 
L 284.063582 58.562192 
L 287.039176 27.447372 
L 290.01477 37.832102 
L 292.990365 81.442279 
L 295.965959 76.838266 
L 298.941553 83.054231 
L 301.917148 85.269844 
L 304.892742 83.205146 
L 307.868336 86.409365 
L 310.84393 85.164859 
L 313.819525 83.447923 
L 316.795119 87.535762 
L 319.770713 86.879608 
L 322.746308 83.894108 
L 325.721902 83.911605 
L 328.697496 83.756316 
L 331.673091 82.275595 
L 334.648685 81.989074 
L 337.624279 82.577426 
L 340.599873 86.396242 
L 343.575468 80.967661 
L 346.551062 85.62198 
L 349.526656 82.17061 
L 352.502251 84.080018 
L 355.477845 82.979867 
L 358.453439 82.48119 
L 361.429034 71.532168 
L 364.404628 82.785208 
L 367.380222 76.951999 
L 370.355816 76.188673 
L 373.331411 75.70312 
L 376.307005 81.577884 
L 379.282599 83.388869 
L 382.258194 81.219187 
L 385.233788 77.43974 
L 388.209382 76.112122 
L 391.184976 79.401641 
L 394.160571 78.170258 
L 397.136165 79.073564 
L 400.111759 76.833892 
" clip-path="url(#pf199cf8c1d)" style="fill: none; stroke: #f85149; stroke-width: 2; stroke-linecap: square"/>
   </g>
   <g id="patch_3">
    <path d="M 34.56 151.118281 
L 34.56 21.558281 
" style="fill: none; stroke: #21262d; stroke-width: 0.8; stroke-linejoin: miter; stroke-linecap: square"/>
   </g>
   <g id="patch_4">
    <path d="M 34.56 151.118281 
L 417.518986 151.118281 
" style="fill: none; stroke: #21262d; stroke-width: 0.8; stroke-linejoin: miter; stroke-linecap: square"/>
   </g>
   <g id="text_14">
    <!-- PAPERCLIP (paperclipai/paperclip) — $312.71 (+3.39%) -->
    <g style="fill: #c9d1d9" transform="translate(55.059962 15.558281) scale(0.11 -0.11)">
     <defs>
      <path id="DejaVuSans-Bold-50" d="M 588 4666 
L 2584 4666 
Q 3475 4666 3951 4270 
Q 4428 3875 4428 3144 
Q 4428 2409 3951 2014 
Q 3475 1619 2584 1619 
L 1791 1619 
L 1791 0 
L 588 0 
L 588 4666 
z
M 1791 3794 
L 1791 2491 
L 2456 2491 
Q 2806 2491 2997 2661 
Q 3188 2831 3188 3144 
Q 3188 3456 2997 3625 
Q 2806 3794 2456 3794 
L 1791 3794 
z
" transform="scale(0.015625)"/>
      <path id="DejaVuSans-Bold-41" d="M 3419 850 
L 1538 850 
L 1241 0 
L 31 0 
L 1759 4666 
L 3194 4666 
L 4922 0 
L 3713 0 
L 3419 850 
z
M 1838 1716 
L 3116 1716 
L 2478 3572 
L 1838 1716 
z
" transform="scale(0.015625)"/>
      <path id="DejaVuSans-Bold-45" d="M 588 4666 
L 3834 4666 
L 3834 3756 
L 1791 3756 
L 1791 2888 
L 3713 2888 
L 3713 1978 
L 1791 1978 
L 1791 909 
L 3903 909 
L 3903 0 
L 588 0 
L 588 4666 
z
" transform="scale(0.015625)"/>
      <path id="DejaVuSans-Bold-52" d="M 2297 2597 
Q 2675 2597 2839 2737 
Q 3003 2878 3003 3200 
Q 3003 3519 2839 3656 
Q 2675 3794 2297 3794 
L 1791 3794 
L 1791 2597 
L 2297 2597 
z
M 1791 1766 
L 1791 0 
L 588 0 
L 588 4666 
L 2425 4666 
Q 3347 4666 3776 4356 
Q 4206 4047 4206 3378 
Q 4206 2916 3982 2619 
Q 3759 2322 3309 2181 
Q 3556 2125 3751 1926 
Q 3947 1728 4147 1325 
L 4800 0 
L 3519 0 
L 2950 1159 
Q 2778 1509 2601 1637 
Q 2425 1766 2131 1766 
L 1791 1766 
z
" transform="scale(0.015625)"/>
      <path id="DejaVuSans-Bold-43" d="M 4288 256 
Q 3956 84 3597 -3 
Q 3238 -91 2847 -91 
Q 1681 -91 1000 561 
Q 319 1213 319 2328 
Q 319 3447 1000 4098 
Q 1681 4750 2847 4750 
Q 3238 4750 3597 4662 
Q 3956 4575 4288 4403 
L 4288 3438 
Q 3953 3666 3628 3772 
Q 3303 3878 2944 3878 
Q 2300 3878 1931 3465 
Q 1563 3053 1563 2328 
Q 1563 1606 1931 1193 
Q 2300 781 2944 781 
Q 3303 781 3628 887 
Q 3953 994 4288 1222 
L 4288 256 
z
" transform="scale(0.015625)"/>
      <path id="DejaVuSans-Bold-4c" d="M 588 4666 
L 1791 4666 
L 1791 909 
L 3903 909 
L 3903 0 
L 588 0 
L 588 4666 
z
" transform="scale(0.015625)"/>
      <path id="DejaVuSans-Bold-49" d="M 588 4666 
L 1791 4666 
L 1791 0 
L 588 0 
L 588 4666 
z
" transform="scale(0.015625)"/>
      <path id="DejaVuSans-Bold-20" transform="scale(0.015625)"/>
      <path id="DejaVuSans-Bold-28" d="M 2413 -844 
L 1484 -844 
Q 1006 -72 778 623 
Q 550 1319 550 2003 
Q 550 2688 779 3389 
Q 1009 4091 1484 4856 
L 2413 4856 
Q 2013 4116 1813 3408 
Q 1613 2700 1613 2009 
Q 1613 1319 1811 609 
Q 2009 -100 2413 -844 
z
" transform="scale(0.015625)"/>
      <path id="DejaVuSans-Bold-70" d="M 1656 506 
L 1656 -1331 
L 538 -1331 
L 538 3500 
L 1656 3500 
L 1656 2988 
Q 1888 3294 2169 3439 
Q 2450 3584 2816 3584 
Q 3463 3584 3878 3070 
Q 4294 2556 4294 1747 
Q 4294 938 3878 423 
Q 3463 -91 2816 -91 
Q 2450 -91 2169 54 
Q 1888 200 1656 506 
z
M 2400 2772 
Q 2041 2772 1848 2508 
Q 1656 2244 1656 1747 
Q 1656 1250 1848 986 
Q 2041 722 2400 722 
Q 2759 722 2948 984 
Q 3138 1247 3138 1747 
Q 3138 2247 2948 2509 
Q 2759 2772 2400 2772 
z
" transform="scale(0.015625)"/>
      <path id="DejaVuSans-Bold-61" d="M 2106 1575 
Q 1756 1575 1579 1456 
Q 1403 1338 1403 1106 
Q 1403 894 1545 773 
Q 1688 653 1941 653 
Q 2256 653 2472 879 
Q 2688 1106 2688 1447 
L 2688 1575 
L 2106 1575 
z
M 3816 1997 
L 3816 0 
L 2688 0 
L 2688 519 
Q 2463 200 2181 54 
Q 1900 -91 1497 -91 
Q 953 -91 614 226 
Q 275 544 275 1050 
Q 275 1666 698 1953 
Q 1122 2241 2028 2241 
L 2688 2241 
L 2688 2328 
Q 2688 2594 2478 2717 
Q 2269 2841 1825 2841 
Q 1466 2841 1156 2769 
Q 847 2697 581 2553 
L 581 3406 
Q 941 3494 1303 3539 
Q 1666 3584 2028 3584 
Q 2975 3584 3395 3211 
Q 3816 2838 3816 1997 
z
" transform="scale(0.015625)"/>
      <path id="DejaVuSans-Bold-65" d="M 4031 1759 
L 4031 1441 
L 1416 1441 
Q 1456 1047 1700 850 
Q 1944 653 2381 653 
Q 2734 653 3104 758 
Q 3475 863 3866 1075 
L 3866 213 
Q 3469 63 3072 -14 
Q 2675 -91 2278 -91 
Q 1328 -91 801 392 
Q 275 875 275 1747 
Q 275 2603 792 3093 
Q 1309 3584 2216 3584 
Q 3041 3584 3536 3087 
Q 4031 2591 4031 1759 
z
M 2881 2131 
Q 2881 2450 2695 2645 
Q 2509 2841 2209 2841 
Q 1884 2841 1681 2658 
Q 1478 2475 1428 2131 
L 2881 2131 
z
" transform="scale(0.015625)"/>
      <path id="DejaVuSans-Bold-72" d="M 3138 2547 
Q 2991 2616 2845 2648 
Q 2700 2681 2553 2681 
Q 2122 2681 1889 2404 
Q 1656 2128 1656 1613 
L 1656 0 
L 538 0 
L 538 3500 
L 1656 3500 
L 1656 2925 
Q 1872 3269 2151 3426 
Q 2431 3584 2822 3584 
Q 2878 3584 2943 3579 
Q 3009 3575 3134 3559 
L 3138 2547 
z
" transform="scale(0.015625)"/>
      <path id="DejaVuSans-Bold-63" d="M 3366 3391 
L 3366 2478 
Q 3138 2634 2908 2709 
Q 2678 2784 2431 2784 
Q 1963 2784 1702 2511 
Q 1441 2238 1441 1747 
Q 1441 1256 1702 982 
Q 1963 709 2431 709 
Q 2694 709 2930 787 
Q 3166 866 3366 1019 
L 3366 103 
Q 3103 6 2833 -42 
Q 2563 -91 2291 -91 
Q 1344 -91 809 395 
Q 275 881 275 1747 
Q 275 2613 809 3098 
Q 1344 3584 2291 3584 
Q 2566 3584 2833 3536 
Q 3100 3488 3366 3391 
z
" transform="scale(0.015625)"/>
      <path id="DejaVuSans-Bold-6c" d="M 538 4863 
L 1656 4863 
L 1656 0 
L 538 0 
L 538 4863 
z
" transform="scale(0.015625)"/>
      <path id="DejaVuSans-Bold-69" d="M 538 3500 
L 1656 3500 
L 1656 0 
L 538 0 
L 538 3500 
z
M 538 4863 
L 1656 4863 
L 1656 3950 
L 538 3950 
L 538 4863 
z
" transform="scale(0.015625)"/>
      <path id="DejaVuSans-Bold-2f" d="M 1644 4666 
L 2338 4666 
L 691 -594 
L 0 -594 
L 1644 4666 
z
" transform="scale(0.015625)"/>
      <path id="DejaVuSans-Bold-29" d="M 513 -844 
Q 913 -100 1113 609 
Q 1313 1319 1313 2009 
Q 1313 2700 1113 3408 
Q 913 4116 513 4856 
L 1441 4856 
Q 1916 4091 2145 3389 
Q 2375 2688 2375 2003 
Q 2375 1319 2147 623 
Q 1919 -72 1441 -844 
L 513 -844 
z
" transform="scale(0.015625)"/>
      <path id="DejaVuSans-Bold-2014" d="M 344 2156 
L 6056 2156 
L 6056 1350 
L 344 1350 
L 344 2156 
z
" transform="scale(0.015625)"/>
      <path id="DejaVuSans-Bold-24" d="M 2484 -941 
L 1978 -941 
L 1975 0 
Q 1584 16 1218 87 
Q 853 159 506 288 
L 506 1106 
Q 866 922 1233 823 
Q 1600 725 1978 713 
L 1978 1684 
L 1875 1703 
Q 1128 1834 814 2115 
Q 500 2397 500 2925 
Q 500 3484 883 3798 
Q 1266 4113 1975 4141 
L 1978 4863 
L 2484 4863 
L 2484 4153 
Q 2797 4128 3109 4075 
Q 3422 4022 3738 3938 
L 3738 3144 
Q 3425 3275 3112 3348 
Q 2800 3422 2484 3438 
L 2484 2541 
L 2584 2522 
Q 3378 2397 3698 2105 
Q 4019 1813 4019 1241 
Q 4019 666 3637 358 
Q 3256 50 2484 6 
L 2484 -941 
z
M 1978 2613 
L 1978 3428 
Q 1756 3416 1623 3308 
Q 1491 3200 1491 3034 
Q 1491 2850 1612 2745 
Q 1734 2641 1978 2613 
z
M 2484 1594 
L 2484 725 
Q 2756 728 2892 831 
Q 3028 934 3028 1141 
Q 3028 1353 2903 1458 
Q 2778 1563 2484 1594 
z
" transform="scale(0.015625)"/>
      <path id="DejaVuSans-Bold-33" d="M 2981 2516 
Q 3453 2394 3698 2092 
Q 3944 1791 3944 1325 
Q 3944 631 3412 270 
Q 2881 -91 1863 -91 
Q 1503 -91 1142 -33 
Q 781 25 428 141 
L 428 1069 
Q 766 900 1098 814 
Q 1431 728 1753 728 
Q 2231 728 2486 893 
Q 2741 1059 2741 1369 
Q 2741 1688 2480 1852 
Q 2219 2016 1709 2016 
L 1228 2016 
L 1228 2791 
L 1734 2791 
Q 2188 2791 2409 2933 
Q 2631 3075 2631 3366 
Q 2631 3634 2415 3781 
Q 2200 3928 1806 3928 
Q 1516 3928 1219 3862 
Q 922 3797 628 3669 
L 628 4550 
Q 984 4650 1334 4700 
Q 1684 4750 2022 4750 
Q 2931 4750 3382 4451 
Q 3834 4153 3834 3553 
Q 3834 3144 3618 2883 
Q 3403 2622 2981 2516 
z
" transform="scale(0.015625)"/>
      <path id="DejaVuSans-Bold-31" d="M 750 831 
L 1813 831 
L 1813 3847 
L 722 3622 
L 722 4441 
L 1806 4666 
L 2950 4666 
L 2950 831 
L 4013 831 
L 4013 0 
L 750 0 
L 750 831 
z
" transform="scale(0.015625)"/>
      <path id="DejaVuSans-Bold-32" d="M 1844 884 
L 3897 884 
L 3897 0 
L 506 0 
L 506 884 
L 2209 2388 
Q 2438 2594 2547 2791 
Q 2656 2988 2656 3200 
Q 2656 3528 2436 3728 
Q 2216 3928 1850 3928 
Q 1569 3928 1234 3808 
Q 900 3688 519 3450 
L 519 4475 
Q 925 4609 1322 4679 
Q 1719 4750 2100 4750 
Q 2938 4750 3402 4381 
Q 3866 4013 3866 3353 
Q 3866 2972 3669 2642 
Q 3472 2313 2841 1759 
L 1844 884 
z
" transform="scale(0.015625)"/>
      <path id="DejaVuSans-Bold-2e" d="M 653 1209 
L 1778 1209 
L 1778 0 
L 653 0 
L 653 1209 
z
" transform="scale(0.015625)"/>
      <path id="DejaVuSans-Bold-37" d="M 428 4666 
L 3944 4666 
L 3944 3988 
L 2125 0 
L 953 0 
L 2675 3781 
L 428 3781 
L 428 4666 
z
" transform="scale(0.015625)"/>
      <path id="DejaVuSans-Bold-2b" d="M 3053 4013 
L 3053 2375 
L 4684 2375 
L 4684 1638 
L 3053 1638 
L 3053 0 
L 2309 0 
L 2309 1638 
L 678 1638 
L 678 2375 
L 2309 2375 
L 2309 4013 
L 3053 4013 
z
" transform="scale(0.015625)"/>
      <path id="DejaVuSans-Bold-39" d="M 641 103 
L 641 966 
Q 928 831 1190 764 
Q 1453 697 1709 697 
Q 2247 697 2547 995 
Q 2847 1294 2900 1881 
Q 2688 1725 2447 1647 
Q 2206 1569 1925 1569 
Q 1209 1569 770 1986 
Q 331 2403 331 3084 
Q 331 3838 820 4291 
Q 1309 4744 2131 4744 
Q 3044 4744 3544 4128 
Q 4044 3513 4044 2388 
Q 4044 1231 3459 570 
Q 2875 -91 1856 -91 
Q 1528 -91 1228 -42 
Q 928 6 641 103 
z
M 2125 2350 
Q 2441 2350 2600 2554 
Q 2759 2759 2759 3169 
Q 2759 3575 2600 3781 
Q 2441 3988 2125 3988 
Q 1809 3988 1650 3781 
Q 1491 3575 1491 3169 
Q 1491 2759 1650 2554 
Q 1809 2350 2125 2350 
z
" transform="scale(0.015625)"/>
      <path id="DejaVuSans-Bold-25" d="M 4959 1925 
Q 4738 1925 4616 1733 
Q 4494 1541 4494 1184 
Q 4494 825 4614 633 
Q 4734 441 4959 441 
Q 5184 441 5303 633 
Q 5422 825 5422 1184 
Q 5422 1541 5301 1733 
Q 5181 1925 4959 1925 
z
M 4959 2450 
Q 5541 2450 5875 2112 
Q 6209 1775 6209 1184 
Q 6209 594 5875 251 
Q 5541 -91 4959 -91 
Q 4378 -91 4042 251 
Q 3706 594 3706 1184 
Q 3706 1772 4042 2111 
Q 4378 2450 4959 2450 
z
M 2094 -91 
L 1403 -91 
L 4319 4750 
L 5013 4750 
L 2094 -91 
z
M 1453 4750 
Q 2034 4750 2367 4411 
Q 2700 4072 2700 3481 
Q 2700 2891 2367 2550 
Q 2034 2209 1453 2209 
Q 872 2209 539 2550 
Q 206 2891 206 3481 
Q 206 4072 539 4411 
Q 872 4750 1453 4750 
z
M 1453 4225 
Q 1228 4225 1106 4031 
Q 984 3838 984 3481 
Q 984 3122 1106 2926 
Q 1228 2731 1453 2731 
Q 1678 2731 1798 2926 
Q 1919 3122 1919 3481 
Q 1919 3838 1797 4031 
Q 1675 4225 1453 4225 
z
" transform="scale(0.015625)"/>
     </defs>
     <use xlink:href="#DejaVuSans-Bold-50"/>
     <use xlink:href="#DejaVuSans-Bold-41" transform="translate(64.166016 0)"/>
     <use xlink:href="#DejaVuSans-Bold-50" transform="translate(141.558594 0)"/>
     <use xlink:href="#DejaVuSans-Bold-45" transform="translate(214.849609 0)"/>
     <use xlink:href="#DejaVuSans-Bold-52" transform="translate(283.160156 0)"/>
     <use xlink:href="#DejaVuSans-Bold-43" transform="translate(360.162109 0)"/>
     <use xlink:href="#DejaVuSans-Bold-4c" transform="translate(433.550781 0)"/>
     <use xlink:href="#DejaVuSans-Bold-49" transform="translate(497.271484 0)"/>
     <use xlink:href="#DejaVuSans-Bold-50" transform="translate(534.478516 0)"/>
     <use xlink:href="#DejaVuSans-Bold-20" transform="translate(607.769531 0)"/>
     <use xlink:href="#DejaVuSans-Bold-28" transform="translate(642.583984 0)"/>
     <use xlink:href="#DejaVuSans-Bold-70" transform="translate(688.287109 0)"/>
     <use xlink:href="#DejaVuSans-Bold-61" transform="translate(759.869141 0)"/>
     <use xlink:href="#DejaVuSans-Bold-70" transform="translate(827.349609 0)"/>
     <use xlink:href="#DejaVuSans-Bold-65" transform="translate(898.931641 0)"/>
     <use xlink:href="#DejaVuSans-Bold-72" transform="translate(966.753906 0)"/>
     <use xlink:href="#DejaVuSans-Bold-63" transform="translate(1016.070312 0)"/>
     <use xlink:href="#DejaVuSans-Bold-6c" transform="translate(1075.347656 0)"/>
     <use xlink:href="#DejaVuSans-Bold-69" transform="translate(1109.625 0)"/>
     <use xlink:href="#DejaVuSans-Bold-70" transform="translate(1143.902344 0)"/>
     <use xlink:href="#DejaVuSans-Bold-61" transform="translate(1215.484375 0)"/>
     <use xlink:href="#DejaVuSans-Bold-69" transform="translate(1282.964844 0)"/>
     <use xlink:href="#DejaVuSans-Bold-2f" transform="translate(1317.242188 0)"/>
     <use xlink:href="#DejaVuSans-Bold-70" transform="translate(1353.765625 0)"/>
     <use xlink:href="#DejaVuSans-Bold-61" transform="translate(1425.347656 0)"/>
     <use xlink:href="#DejaVuSans-Bold-70" transform="translate(1492.828125 0)"/>
     <use xlink:href="#DejaVuSans-Bold-65" transform="translate(1564.410156 0)"/>
     <use xlink:href="#DejaVuSans-Bold-72" transform="translate(1632.232422 0)"/>
     <use xlink:href="#DejaVuSans-Bold-63" transform="translate(1681.548828 0)"/>
     <use xlink:href="#DejaVuSans-Bold-6c" transform="translate(1740.826172 0)"/>
     <use xlink:href="#DejaVuSans-Bold-69" transform="translate(1775.103516 0)"/>
     <use xlink:href="#DejaVuSans-Bold-70" transform="translate(1809.380859 0)"/>
     <use xlink:href="#DejaVuSans-Bold-29" transform="translate(1880.962891 0)"/>
     <use xlink:href="#DejaVuSans-Bold-20" transform="translate(1926.666016 0)"/>
     <use xlink:href="#DejaVuSans-Bold-2014" transform="translate(1961.480469 0)"/>
     <use xlink:href="#DejaVuSans-Bold-20" transform="translate(2061.480469 0)"/>
     <use xlink:href="#DejaVuSans-Bold-24" transform="translate(2096.294922 0)"/>
     <use xlink:href="#DejaVuSans-Bold-33" transform="translate(2165.875 0)"/>
     <use xlink:href="#DejaVuSans-Bold-31" transform="translate(2235.455078 0)"/>
     <use xlink:href="#DejaVuSans-Bold-32" transform="translate(2305.035156 0)"/>
     <use xlink:href="#DejaVuSans-Bold-2e" transform="translate(2374.615234 0)"/>
     <use xlink:href="#DejaVuSans-Bold-37" transform="translate(2412.603516 0)"/>
     <use xlink:href="#DejaVuSans-Bold-31" transform="translate(2482.183594 0)"/>
     <use xlink:href="#DejaVuSans-Bold-20" transform="translate(2551.763672 0)"/>
     <use xlink:href="#DejaVuSans-Bold-28" transform="translate(2586.578125 0)"/>
     <use xlink:href="#DejaVuSans-Bold-2b" transform="translate(2632.28125 0)"/>
     <use xlink:href="#DejaVuSans-Bold-33" transform="translate(2716.070312 0)"/>
     <use xlink:href="#DejaVuSans-Bold-2e" transform="translate(2785.650391 0)"/>
     <use xlink:href="#DejaVuSans-Bold-33" transform="translate(2823.638672 0)"/>
     <use xlink:href="#DejaVuSans-Bold-39" transform="translate(2893.21875 0)"/>
     <use xlink:href="#DejaVuSans-Bold-25" transform="translate(2962.798828 0)"/>
     <use xlink:href="#DejaVuSans-Bold-29" transform="translate(3062.994141 0)"/>
    </g>
   </g>
  </g>
 </g>
 <defs>
  <clipPath id="pf199cf8c1d">
   <rect x="34.56" y="21.558281" width="382.958986" height="129.56"/>
  </clipPath>
 </defs>
</svg>
