<?xml version="1.0" encoding="utf-8" standalone="no"?>
<!DOCTYPE svg PUBLIC "-//W3C//DTD SVG 1.1//EN"
  "http://www.w3.org/Graphics/SVG/1.1/DTD/svg11.dtd">
<svg xmlns:xlink="http://www.w3.org/1999/xlink" width="425pt" height="172.518281pt" viewBox="0 0 425 172.518281" xmlns="http://www.w3.org/2000/svg" version="1.1">
 <metadata>
  <rdf:RDF xmlns:dc="http://purl.org/dc/elements/1.1/" xmlns:cc="http://creativecommons.org/ns#" xmlns:rdf="http://www.w3.org/1999/02/22-rdf-syntax-ns#">
   <cc:Work>
    <dc:type rdf:resource="http://purl.org/dc/dcmitype/StillImage"/>
    <dc:date>2026-06-30T07:56:50.727282</dc:date>
    <dc:format>image/svg+xml</dc:format>
    <dc:creator>
     <cc:Agent>
      <dc:title>Matplotlib v3.11.0, https://matplotlib.org/</dc:title>
     </cc:Agent>
    </dc:creator>
   </cc:Work>
  </rdf:RDF>
 </metadata>
 <defs>
  <style type="text/css">*{stroke-linejoin: round; stroke-linecap: butt}</style>
 </defs>
 <g id="figure_1">
  <g id="patch_1">
   <path d="M 0 172.518281 
L 425 172.518281 
L 425 0 
L 0 0 
z
" style="fill: #0d1117"/>
  </g>
  <g id="axes_1">
   <g id="patch_2">
    <path d="M 34.56 150.318281 
L 417.8 150.318281 
L 417.8 21.558281 
L 34.56 21.558281 
z
" style="fill: #0d1117"/>
   </g>
   <g id="FillBetweenPolyCollection_1">
    <defs>
     <path id="m8982b89b4c" d="M 51.98 -28.052727 
L 51.98 -81.34755 
L 55.429505 -79.166703 
L 58.87901 -79.738781 
L 62.328515 -77.757055 
L 65.77802 -80.924023 
L 69.227525 -81.963876 
L 72.67703 -80.661689 
L 76.126535 -81.034646 
L 79.57604 -78.657839 
L 83.025545 -86.303443 
L 86.47505 -81.455012 
L 89.924554 -79.315254 
L 93.374059 -79.580748 
L 96.823564 -77.959336 
L 100.273069 -80.642725 
L 103.722574 -97.106533 
L 107.172079 -97.036999 
L 110.621584 -94.717085 
L 114.071089 -93.155725 
L 117.520594 -92.795411 
L 120.970099 -86.268676 
L 124.419604 -89.236523 
L 127.869109 -86.477279 
L 131.318614 -93.525521 
L 134.768119 -85.301518 
L 138.217624 -89.61264 
L 141.667129 -85.9937 
L 145.116634 -85.380535 
L 148.566139 -85.149807 
L 152.015644 -87.371742 
L 155.465149 -86.587902 
L 158.914653 -84.871671 
L 162.364158 -84.912759 
L 165.813663 -84.261666 
L 169.263168 -86.208624 
L 172.712673 -84.871671 
L 176.162178 -86.088519 
L 179.611683 -94.499 
L 183.061188 -92.719556 
L 186.510693 -78.02571 
L 189.960198 -79.707174 
L 193.409703 -81.325425 
L 196.859208 -82.649736 
L 200.308713 -85.26043 
L 203.758218 -86.587902 
L 207.207723 -82.169318 
L 210.657228 -86.512046 
L 214.106733 -82.889945 
L 217.556238 -83.970886 
L 221.005743 -82.810929 
L 224.455248 -84.397574 
L 227.904752 -87.109408 
L 231.354257 -84.454465 
L 234.803762 -84.72312 
L 238.253267 -84.840064 
L 241.702772 -82.984765 
L 245.152277 -85.494318 
L 248.601782 -81.809004 
L 252.051287 -85.415302 
L 255.500792 -83.55052 
L 258.950297 -84.015135 
L 262.399802 -82.510668 
L 265.849307 -85.804061 
L 269.298812 -82.852017 
L 272.748317 -95.048952 
L 276.197822 -106.23132 
L 279.647327 -101.133197 
L 283.096832 -103.076995 
L 286.546337 -100.472622 
L 289.995842 -129.673836 
L 293.445347 -145.107273 
L 296.894851 -106.547385 
L 300.344356 -104.758459 
L 303.793861 -92.608933 
L 307.243366 -82.874142 
L 310.692871 -85.576495 
L 314.142376 -80.633243 
L 317.591881 -83.778087 
L 321.041386 -80.17811 
L 324.490891 -83.243938 
L 327.940396 -76.06927 
L 331.389901 -80.721742 
L 334.839406 -79.154061 
L 338.288911 -81.815325 
L 341.738416 -80.901898 
L 345.187921 -81.524546 
L 348.637426 -83.047977 
L 352.086931 -81.372835 
L 355.536436 -80.977754 
L 358.985941 -80.949308 
L 362.435446 -83.11119 
L 365.88495 -81.243248 
L 369.334455 -91.540635 
L 372.78396 -96.401709 
L 376.233465 -94.720245 
L 379.68297 -102.61238 
L 383.132475 -99.619247 
L 386.58198 -123.987832 
L 390.031485 -96.041395 
L 393.48099 -89.802279 
L 396.930495 -87.415991 
L 400.38 -88.971029 
L 400.38 -28.052727 
L 400.38 -28.052727 
L 396.930495 -28.052727 
L 393.48099 -28.052727 
L 390.031485 -28.052727 
L 386.58198 -28.052727 
L 383.132475 -28.052727 
L 379.68297 -28.052727 
L 376.233465 -28.052727 
L 372.78396 -28.052727 
L 369.334455 -28.052727 
L 365.88495 -28.052727 
L 362.435446 -28.052727 
L 358.985941 -28.052727 
L 355.536436 -28.052727 
L 352.086931 -28.052727 
L 348.637426 -28.052727 
L 345.187921 -28.052727 
L 341.738416 -28.052727 
L 338.288911 -28.052727 
L 334.839406 -28.052727 
L 331.389901 -28.052727 
L 327.940396 -28.052727 
L 324.490891 -28.052727 
L 321.041386 -28.052727 
L 317.591881 -28.052727 
L 314.142376 -28.052727 
L 310.692871 -28.052727 
L 307.243366 -28.052727 
L 303.793861 -28.052727 
L 300.344356 -28.052727 
L 296.894851 -28.052727 
L 293.445347 -28.052727 
L 289.995842 -28.052727 
L 286.546337 -28.052727 
L 283.096832 -28.052727 
L 279.647327 -28.052727 
L 276.197822 -28.052727 
L 272.748317 -28.052727 
L 269.298812 -28.052727 
L 265.849307 -28.052727 
L 262.399802 -28.052727 
L 258.950297 -28.052727 
L 255.500792 -28.052727 
L 252.051287 -28.052727 
L 248.601782 -28.052727 
L 245.152277 -28.052727 
L 241.702772 -28.052727 
L 238.253267 -28.052727 
L 234.803762 -28.052727 
L 231.354257 -28.052727 
L 227.904752 -28.052727 
L 224.455248 -28.052727 
L 221.005743 -28.052727 
L 217.556238 -28.052727 
L 214.106733 -28.052727 
L 210.657228 -28.052727 
L 207.207723 -28.052727 
L 203.758218 -28.052727 
L 200.308713 -28.052727 
L 196.859208 -28.052727 
L 193.409703 -28.052727 
L 189.960198 -28.052727 
L 186.510693 -28.052727 
L 183.061188 -28.052727 
L 179.611683 -28.052727 
L 176.162178 -28.052727 
L 172.712673 -28.052727 
L 169.263168 -28.052727 
L 165.813663 -28.052727 
L 162.364158 -28.052727 
L 158.914653 -28.052727 
L 155.465149 -28.052727 
L 152.015644 -28.052727 
L 148.566139 -28.052727 
L 145.116634 -28.052727 
L 141.667129 -28.052727 
L 138.217624 -28.052727 
L 134.768119 -28.052727 
L 131.318614 -28.052727 
L 127.869109 -28.052727 
L 124.419604 -28.052727 
L 120.970099 -28.052727 
L 117.520594 -28.052727 
L 114.071089 -28.052727 
L 110.621584 -28.052727 
L 107.172079 -28.052727 
L 103.722574 -28.052727 
L 100.273069 -28.052727 
L 96.823564 -28.052727 
L 93.374059 -28.052727 
L 89.924554 -28.052727 
L 86.47505 -28.052727 
L 83.025545 -28.052727 
L 79.57604 -28.052727 
L 76.126535 -28.052727 
L 72.67703 -28.052727 
L 69.227525 -28.052727 
L 65.77802 -28.052727 
L 62.328515 -28.052727 
L 58.87901 -28.052727 
L 55.429505 -28.052727 
L 51.98 -28.052727 
z
" style="stroke: #3fb950; stroke-opacity: 0.15"/>
    </defs>
    <g clip-path="url(#p3c5cc601b0)">
     <use xlink:href="#m8982b89b4c" x="0" y="172.518281" style="fill: #3fb950; fill-opacity: 0.15; stroke: #3fb950; stroke-opacity: 0.15"/>
    </g>
   </g>
   <g id="matplotlib.axis_1">
    <g id="xtick_1">
     <g id="line2d_1">
      <path d="M 51.98 150.318281 
L 51.98 21.558281 
" clip-path="url(#p3c5cc601b0)" style="fill: none; stroke: #21262d; stroke-opacity: 0.5; stroke-width: 0.5; stroke-linecap: square"/>
     </g>
     <g id="line2d_2">
      <defs>
       <path id="mdaf9c4af03" d="M 0 0 
L 0 3.5 
" style="stroke: #c9d1d9; stroke-width: 0.8"/>
      </defs>
      <g>
       <use xlink:href="#mdaf9c4af03" x="51.98" y="150.318281" style="fill: #c9d1d9; stroke: #c9d1d9; stroke-width: 0.8"/>
      </g>
     </g>
     <g id="text_1">
      <!-- 0 -->
      <g style="fill: #c9d1d9" transform="translate(49.435 163.396406) scale(0.08 -0.08)">
       <defs>
        <path id="DejaVuSans-13" d="M 2034 4250 
Q 1547 4250 1301 3770 
Q 1056 3291 1056 2328 
Q 1056 1369 1301 889 
Q 1547 409 2034 409 
Q 2525 409 2770 889 
Q 3016 1369 3016 2328 
Q 3016 3291 2770 3770 
Q 2525 4250 2034 4250 
z
M 2034 4750 
Q 2819 4750 3233 4129 
Q 3647 3509 3647 2328 
Q 3647 1150 3233 529 
Q 2819 -91 2034 -91 
Q 1250 -91 836 529 
Q 422 1150 422 2328 
Q 422 3509 836 4129 
Q 1250 4750 2034 4750 
z
" transform="scale(0.015625)"/>
       </defs>
       <use xlink:href="#DejaVuSans-13"/>
      </g>
     </g>
    </g>
    <g id="xtick_2">
     <g id="line2d_3">
      <path d="M 120.970099 150.318281 
L 120.970099 21.558281 
" clip-path="url(#p3c5cc601b0)" style="fill: none; stroke: #21262d; stroke-opacity: 0.5; stroke-width: 0.5; stroke-linecap: square"/>
     </g>
     <g id="line2d_4">
      <g>
       <use xlink:href="#mdaf9c4af03" x="120.970099" y="150.318281" style="fill: #c9d1d9; stroke: #c9d1d9; stroke-width: 0.8"/>
      </g>
     </g>
     <g id="text_2">
      <!-- 20 -->
      <g style="fill: #c9d1d9" transform="translate(115.880099 163.396406) scale(0.08 -0.08)">
       <defs>
        <path id="DejaVuSans-15" d="M 1228 531 
L 3431 531 
L 3431 0 
L 469 0 
L 469 531 
Q 828 903 1448 1529 
Q 2069 2156 2228 2338 
Q 2531 2678 2651 2914 
Q 2772 3150 2772 3378 
Q 2772 3750 2511 3984 
Q 2250 4219 1831 4219 
Q 1534 4219 1204 4116 
Q 875 4013 500 3803 
L 500 4441 
Q 881 4594 1212 4672 
Q 1544 4750 1819 4750 
Q 2544 4750 2975 4387 
Q 3406 4025 3406 3419 
Q 3406 3131 3298 2873 
Q 3191 2616 2906 2266 
Q 2828 2175 2409 1742 
Q 1991 1309 1228 531 
z
" transform="scale(0.015625)"/>
       </defs>
       <use xlink:href="#DejaVuSans-15"/>
       <use xlink:href="#DejaVuSans-13" transform="translate(63.625 0)"/>
      </g>
     </g>
    </g>
    <g id="xtick_3">
     <g id="line2d_5">
      <path d="M 189.960198 150.318281 
L 189.960198 21.558281 
" clip-path="url(#p3c5cc601b0)" style="fill: none; stroke: #21262d; stroke-opacity: 0.5; stroke-width: 0.5; stroke-linecap: square"/>
     </g>
     <g id="line2d_6">
      <g>
       <use xlink:href="#mdaf9c4af03" x="189.960198" y="150.318281" style="fill: #c9d1d9; stroke: #c9d1d9; stroke-width: 0.8"/>
      </g>
     </g>
     <g id="text_3">
      <!-- 40 -->
      <g style="fill: #c9d1d9" transform="translate(184.870198 163.396406) scale(0.08 -0.08)">
       <defs>
        <path id="DejaVuSans-17" d="M 2419 4116 
L 825 1625 
L 2419 1625 
L 2419 4116 
z
M 2253 4666 
L 3047 4666 
L 3047 1625 
L 3713 1625 
L 3713 1100 
L 3047 1100 
L 3047 0 
L 2419 0 
L 2419 1100 
L 313 1100 
L 313 1709 
L 2253 4666 
z
" transform="scale(0.015625)"/>
       </defs>
       <use xlink:href="#DejaVuSans-17"/>
       <use xlink:href="#DejaVuSans-13" transform="translate(63.625 0)"/>
      </g>
     </g>
    </g>
    <g id="xtick_4">
     <g id="line2d_7">
      <path d="M 258.950297 150.318281 
L 258.950297 21.558281 
" clip-path="url(#p3c5cc601b0)" style="fill: none; stroke: #21262d; stroke-opacity: 0.5; stroke-width: 0.5; stroke-linecap: square"/>
     </g>
     <g id="line2d_8">
      <g>
       <use xlink:href="#mdaf9c4af03" x="258.950297" y="150.318281" style="fill: #c9d1d9; stroke: #c9d1d9; stroke-width: 0.8"/>
      </g>
     </g>
     <g id="text_4">
      <!-- 60 -->
      <g style="fill: #c9d1d9" transform="translate(253.860297 163.396406) scale(0.08 -0.08)">
       <defs>
        <path id="DejaVuSans-19" d="M 2113 2584 
Q 1688 2584 1439 2293 
Q 1191 2003 1191 1497 
Q 1191 994 1439 701 
Q 1688 409 2113 409 
Q 2538 409 2786 701 
Q 3034 994 3034 1497 
Q 3034 2003 2786 2293 
Q 2538 2584 2113 2584 
z
M 3366 4563 
L 3366 3988 
Q 3128 4100 2886 4159 
Q 2644 4219 2406 4219 
Q 1781 4219 1451 3797 
Q 1122 3375 1075 2522 
Q 1259 2794 1537 2939 
Q 1816 3084 2150 3084 
Q 2853 3084 3261 2657 
Q 3669 2231 3669 1497 
Q 3669 778 3244 343 
Q 2819 -91 2113 -91 
Q 1303 -91 875 529 
Q 447 1150 447 2328 
Q 447 3434 972 4092 
Q 1497 4750 2381 4750 
Q 2619 4750 2861 4703 
Q 3103 4656 3366 4563 
z
" transform="scale(0.015625)"/>
       </defs>
       <use xlink:href="#DejaVuSans-19"/>
       <use xlink:href="#DejaVuSans-13" transform="translate(63.625 0)"/>
      </g>
     </g>
    </g>
    <g id="xtick_5">
     <g id="line2d_9">
      <path d="M 327.940396 150.318281 
L 327.940396 21.558281 
" clip-path="url(#p3c5cc601b0)" style="fill: none; stroke: #21262d; stroke-opacity: 0.5; stroke-width: 0.5; stroke-linecap: square"/>
     </g>
     <g id="line2d_10">
      <g>
       <use xlink:href="#mdaf9c4af03" x="327.940396" y="150.318281" style="fill: #c9d1d9; stroke: #c9d1d9; stroke-width: 0.8"/>
      </g>
     </g>
     <g id="text_5">
      <!-- 80 -->
      <g style="fill: #c9d1d9" transform="translate(322.850396 163.396406) scale(0.08 -0.08)">
       <defs>
        <path id="DejaVuSans-1b" d="M 2034 2216 
Q 1584 2216 1326 1975 
Q 1069 1734 1069 1313 
Q 1069 891 1326 650 
Q 1584 409 2034 409 
Q 2484 409 2743 651 
Q 3003 894 3003 1313 
Q 3003 1734 2745 1975 
Q 2488 2216 2034 2216 
z
M 1403 2484 
Q 997 2584 770 2862 
Q 544 3141 544 3541 
Q 544 4100 942 4425 
Q 1341 4750 2034 4750 
Q 2731 4750 3128 4425 
Q 3525 4100 3525 3541 
Q 3525 3141 3298 2862 
Q 3072 2584 2669 2484 
Q 3125 2378 3379 2068 
Q 3634 1759 3634 1313 
Q 3634 634 3220 271 
Q 2806 -91 2034 -91 
Q 1263 -91 848 271 
Q 434 634 434 1313 
Q 434 1759 690 2068 
Q 947 2378 1403 2484 
z
M 1172 3481 
Q 1172 3119 1398 2916 
Q 1625 2713 2034 2713 
Q 2441 2713 2670 2916 
Q 2900 3119 2900 3481 
Q 2900 3844 2670 4047 
Q 2441 4250 2034 4250 
Q 1625 4250 1398 4047 
Q 1172 3844 1172 3481 
z
" transform="scale(0.015625)"/>
       </defs>
       <use xlink:href="#DejaVuSans-1b"/>
       <use xlink:href="#DejaVuSans-13" transform="translate(63.625 0)"/>
      </g>
     </g>
    </g>
    <g id="xtick_6">
     <g id="line2d_11">
      <path d="M 396.930495 150.318281 
L 396.930495 21.558281 
" clip-path="url(#p3c5cc601b0)" style="fill: none; stroke: #21262d; stroke-opacity: 0.5; stroke-width: 0.5; stroke-linecap: square"/>
     </g>
     <g id="line2d_12">
      <g>
       <use xlink:href="#mdaf9c4af03" x="396.930495" y="150.318281" style="fill: #c9d1d9; stroke: #c9d1d9; stroke-width: 0.8"/>
      </g>
     </g>
     <g id="text_6">
      <!-- 100 -->
      <g style="fill: #c9d1d9" transform="translate(389.295495 163.396406) scale(0.08 -0.08)">
       <defs>
        <path id="DejaVuSans-14" d="M 794 531 
L 1825 531 
L 1825 4091 
L 703 3866 
L 703 4441 
L 1819 4666 
L 2450 4666 
L 2450 531 
L 3481 531 
L 3481 0 
L 794 0 
L 794 531 
z
" transform="scale(0.015625)"/>
       </defs>
       <use xlink:href="#DejaVuSans-14"/>
       <use xlink:href="#DejaVuSans-13" transform="translate(63.625 0)"/>
       <use xlink:href="#DejaVuSans-13" transform="translate(127.25 0)"/>
      </g>
     </g>
    </g>
   </g>
   <g id="matplotlib.axis_2">
    <g id="ytick_1">
     <g id="line2d_13">
      <path d="M 34.56 144.465554 
L 417.8 144.465554 
" clip-path="url(#p3c5cc601b0)" style="fill: none; stroke: #21262d; stroke-opacity: 0.5; stroke-width: 0.5; stroke-linecap: square"/>
     </g>
     <g id="line2d_14">
      <defs>
       <path id="m8ea514d1ec" d="M 0 0 
L -3.5 0 
" style="stroke: #c9d1d9; stroke-width: 0.8"/>
      </defs>
      <g>
       <use xlink:href="#m8ea514d1ec" x="34.56" y="144.465554" style="fill: #c9d1d9; stroke: #c9d1d9; stroke-width: 0.8"/>
      </g>
     </g>
     <g id="text_7">
      <!-- $0 -->
      <g style="fill: #c9d1d9" transform="translate(17.38 147.504929) scale(0.08 -0.08)">
       <defs>
        <path id="DejaVuSans-7" d="M 2163 -941 
L 1850 -941 
L 1847 0 
Q 1519 6 1191 76 
Q 863 147 531 288 
L 531 850 
Q 850 650 1176 548 
Q 1503 447 1850 444 
L 1850 1869 
Q 1159 1981 845 2250 
Q 531 2519 531 2988 
Q 531 3497 872 3790 
Q 1213 4084 1850 4128 
L 1850 4863 
L 2163 4863 
L 2163 4138 
Q 2453 4125 2725 4076 
Q 2997 4028 3256 3944 
L 3256 3397 
Q 2997 3528 2723 3600 
Q 2450 3672 2163 3684 
L 2163 2350 
Q 2872 2241 3206 1959 
Q 3541 1678 3541 1191 
Q 3541 663 3186 358 
Q 2831 53 2163 6 
L 2163 -941 
z
M 1850 2406 
L 1850 3688 
Q 1488 3647 1297 3481 
Q 1106 3316 1106 3041 
Q 1106 2772 1282 2622 
Q 1459 2472 1850 2406 
z
M 2163 1806 
L 2163 453 
Q 2559 506 2761 678 
Q 2963 850 2963 1131 
Q 2963 1406 2770 1568 
Q 2578 1731 2163 1806 
z
" transform="scale(0.015625)"/>
       </defs>
       <use xlink:href="#DejaVuSans-7"/>
       <use xlink:href="#DejaVuSans-13" transform="translate(63.625 0)"/>
      </g>
     </g>
    </g>
    <g id="ytick_2">
     <g id="line2d_15">
      <path d="M 34.56 112.859088 
L 417.8 112.859088 
" clip-path="url(#p3c5cc601b0)" style="fill: none; stroke: #21262d; stroke-opacity: 0.5; stroke-width: 0.5; stroke-linecap: square"/>
     </g>
     <g id="line2d_16">
      <g>
       <use xlink:href="#m8ea514d1ec" x="34.56" y="112.859088" style="fill: #c9d1d9; stroke: #c9d1d9; stroke-width: 0.8"/>
      </g>
     </g>
     <g id="text_8">
      <!-- $100 -->
      <g style="fill: #c9d1d9" transform="translate(7.2 115.898463) scale(0.08 -0.08)">
       <use xlink:href="#DejaVuSans-7"/>
       <use xlink:href="#DejaVuSans-14" transform="translate(63.625 0)"/>
       <use xlink:href="#DejaVuSans-13" transform="translate(127.25 0)"/>
       <use xlink:href="#DejaVuSans-13" transform="translate(190.875 0)"/>
      </g>
     </g>
    </g>
    <g id="ytick_3">
     <g id="line2d_17">
      <path d="M 34.56 81.252623 
L 417.8 81.252623 
" clip-path="url(#p3c5cc601b0)" style="fill: none; stroke: #21262d; stroke-opacity: 0.5; stroke-width: 0.5; stroke-linecap: square"/>
     </g>
     <g id="line2d_18">
      <g>
       <use xlink:href="#m8ea514d1ec" x="34.56" y="81.252623" style="fill: #c9d1d9; stroke: #c9d1d9; stroke-width: 0.8"/>
      </g>
     </g>
     <g id="text_9">
      <!-- $200 -->
      <g style="fill: #c9d1d9" transform="translate(7.2 84.291998) scale(0.08 -0.08)">
       <use xlink:href="#DejaVuSans-7"/>
       <use xlink:href="#DejaVuSans-15" transform="translate(63.625 0)"/>
       <use xlink:href="#DejaVuSans-13" transform="translate(127.25 0)"/>
       <use xlink:href="#DejaVuSans-13" transform="translate(190.875 0)"/>
      </g>
     </g>
    </g>
    <g id="ytick_4">
     <g id="line2d_19">
      <path d="M 34.56 49.646157 
L 417.8 49.646157 
" clip-path="url(#p3c5cc601b0)" style="fill: none; stroke: #21262d; stroke-opacity: 0.5; stroke-width: 0.5; stroke-linecap: square"/>
     </g>
     <g id="line2d_20">
      <g>
       <use xlink:href="#m8ea514d1ec" x="34.56" y="49.646157" style="fill: #c9d1d9; stroke: #c9d1d9; stroke-width: 0.8"/>
      </g>
     </g>
     <g id="text_10">
      <!-- $300 -->
      <g style="fill: #c9d1d9" transform="translate(7.2 52.685532) scale(0.08 -0.08)">
       <defs>
        <path id="DejaVuSans-16" d="M 2597 2516 
Q 3050 2419 3304 2112 
Q 3559 1806 3559 1356 
Q 3559 666 3084 287 
Q 2609 -91 1734 -91 
Q 1441 -91 1130 -33 
Q 819 25 488 141 
L 488 750 
Q 750 597 1062 519 
Q 1375 441 1716 441 
Q 2309 441 2620 675 
Q 2931 909 2931 1356 
Q 2931 1769 2642 2001 
Q 2353 2234 1838 2234 
L 1294 2234 
L 1294 2753 
L 1863 2753 
Q 2328 2753 2575 2939 
Q 2822 3125 2822 3475 
Q 2822 3834 2567 4026 
Q 2313 4219 1838 4219 
Q 1578 4219 1281 4162 
Q 984 4106 628 3988 
L 628 4550 
Q 988 4650 1302 4700 
Q 1616 4750 1894 4750 
Q 2613 4750 3031 4423 
Q 3450 4097 3450 3541 
Q 3450 3153 3228 2886 
Q 3006 2619 2597 2516 
z
" transform="scale(0.015625)"/>
       </defs>
       <use xlink:href="#DejaVuSans-7"/>
       <use xlink:href="#DejaVuSans-16" transform="translate(63.625 0)"/>
       <use xlink:href="#DejaVuSans-13" transform="translate(127.25 0)"/>
       <use xlink:href="#DejaVuSans-13" transform="translate(190.875 0)"/>
      </g>
     </g>
    </g>
   </g>
   <g id="line2d_21">
    <path d="M 51.98 91.170732 
L 55.429505 93.351578 
L 58.87901 92.779501 
L 62.328515 94.761226 
L 65.77802 91.594258 
L 69.227525 90.554406 
L 72.67703 91.856592 
L 76.126535 91.483636 
L 79.57604 93.860442 
L 83.025545 86.214838 
L 86.47505 91.06327 
L 89.924554 93.203027 
L 93.374059 92.937533 
L 96.823564 94.558945 
L 100.273069 91.875556 
L 103.722574 75.411748 
L 107.172079 75.481282 
L 110.621584 77.801197 
L 114.071089 79.362556 
L 117.520594 79.72287 
L 120.970099 86.249605 
L 124.419604 83.281758 
L 127.869109 86.041002 
L 131.318614 78.99276 
L 134.768119 87.216763 
L 138.217624 82.905641 
L 141.667129 86.524581 
L 145.116634 87.137747 
L 148.566139 87.368474 
L 152.015644 85.146539 
L 155.465149 85.93038 
L 158.914653 87.646611 
L 162.364158 87.605522 
L 165.813663 88.256616 
L 169.263168 86.309657 
L 172.712673 87.646611 
L 176.162178 86.429762 
L 179.611683 78.019281 
L 183.061188 79.798725 
L 186.510693 94.492571 
L 189.960198 92.811107 
L 193.409703 91.192856 
L 196.859208 89.868545 
L 200.308713 87.257851 
L 203.758218 85.93038 
L 207.207723 90.348964 
L 210.657228 86.006235 
L 214.106733 89.628336 
L 217.556238 88.547395 
L 221.005743 89.707352 
L 224.455248 88.120708 
L 227.904752 85.408873 
L 231.354257 88.063816 
L 234.803762 87.795161 
L 238.253267 87.678217 
L 241.702772 89.533517 
L 245.152277 87.023963 
L 248.601782 90.709277 
L 252.051287 87.10298 
L 255.500792 88.967761 
L 258.950297 88.503146 
L 262.399802 90.007614 
L 265.849307 86.71422 
L 269.298812 89.666264 
L 272.748317 77.469329 
L 276.197822 66.286961 
L 279.647327 71.385084 
L 283.096832 69.441287 
L 286.546337 72.045659 
L 289.995842 42.844446 
L 293.445347 27.411009 
L 296.894851 65.970897 
L 300.344356 67.759823 
L 303.793861 79.909348 
L 307.243366 89.644139 
L 310.692871 86.941787 
L 314.142376 91.885038 
L 317.591881 88.740194 
L 321.041386 92.340171 
L 324.490891 89.274344 
L 327.940396 96.449011 
L 331.389901 91.79654 
L 334.839406 93.36422 
L 338.288911 90.702956 
L 341.738416 91.616383 
L 345.187921 90.993735 
L 348.637426 89.470304 
L 352.086931 91.145446 
L 355.536436 91.540527 
L 358.985941 91.568973 
L 362.435446 89.407091 
L 365.88495 91.275033 
L 369.334455 80.977646 
L 372.78396 76.116572 
L 376.233465 77.798036 
L 379.68297 69.905902 
L 383.132475 72.899034 
L 386.58198 48.530449 
L 390.031485 76.476886 
L 393.48099 82.716002 
L 396.930495 85.10229 
L 400.38 83.547252 
" clip-path="url(#p3c5cc601b0)" style="fill: none; stroke: #3fb950; stroke-width: 2; stroke-linecap: square"/>
   </g>
   <g id="patch_3">
    <path d="M 34.56 150.318281 
L 34.56 21.558281 
" style="fill: none; stroke: #21262d; stroke-width: 0.8; stroke-linejoin: miter; stroke-linecap: square"/>
   </g>
   <g id="patch_4">
    <path d="M 34.56 150.318281 
L 417.8 150.318281 
" style="fill: none; stroke: #21262d; stroke-width: 0.8; stroke-linejoin: miter; stroke-linecap: square"/>
   </g>
   <g id="text_11">
    <!-- SKILLOPT (microsoft/SkillOpt) — $192.74 (+2.62%) -->
    <g style="fill: #c9d1d9" transform="translate(68.719297 15.558281) scale(0.11 -0.11)">
     <defs>
      <path id="DejaVuSans-Bold-36" d="M 3834 4519 
L 3834 3531 
Q 3450 3703 3084 3790 
Q 2719 3878 2394 3878 
Q 1963 3878 1756 3759 
Q 1550 3641 1550 3391 
Q 1550 3203 1689 3098 
Q 1828 2994 2194 2919 
L 2706 2816 
Q 3484 2659 3812 2340 
Q 4141 2022 4141 1434 
Q 4141 663 3683 286 
Q 3225 -91 2284 -91 
Q 1841 -91 1394 -6 
Q 947 78 500 244 
L 500 1259 
Q 947 1022 1364 901 
Q 1781 781 2169 781 
Q 2563 781 2772 912 
Q 2981 1044 2981 1288 
Q 2981 1506 2839 1625 
Q 2697 1744 2272 1838 
L 1806 1941 
Q 1106 2091 782 2419 
Q 459 2747 459 3303 
Q 459 4000 909 4375 
Q 1359 4750 2203 4750 
Q 2588 4750 2994 4692 
Q 3400 4634 3834 4519 
z
" transform="scale(0.015625)"/>
      <path id="DejaVuSans-Bold-2e" d="M 588 4666 
L 1791 4666 
L 1791 2963 
L 3525 4666 
L 4922 4666 
L 2675 2456 
L 5153 0 
L 3647 0 
L 1791 1838 
L 1791 0 
L 588 0 
L 588 4666 
z
" transform="scale(0.015625)"/>
      <path id="DejaVuSans-Bold-2c" d="M 588 4666 
L 1791 4666 
L 1791 0 
L 588 0 
L 588 4666 
z
" transform="scale(0.015625)"/>
      <path id="DejaVuSans-Bold-2f" d="M 588 4666 
L 1791 4666 
L 1791 909 
L 3903 909 
L 3903 0 
L 588 0 
L 588 4666 
z
" transform="scale(0.015625)"/>
      <path id="DejaVuSans-Bold-32" d="M 2719 3878 
Q 2169 3878 1866 3472 
Q 1563 3066 1563 2328 
Q 1563 1594 1866 1187 
Q 2169 781 2719 781 
Q 3272 781 3575 1187 
Q 3878 1594 3878 2328 
Q 3878 3066 3575 3472 
Q 3272 3878 2719 3878 
z
M 2719 4750 
Q 3844 4750 4481 4106 
Q 5119 3463 5119 2328 
Q 5119 1197 4481 553 
Q 3844 -91 2719 -91 
Q 1597 -91 958 553 
Q 319 1197 319 2328 
Q 319 3463 958 4106 
Q 1597 4750 2719 4750 
z
" transform="scale(0.015625)"/>
      <path id="DejaVuSans-Bold-33" d="M 588 4666 
L 2584 4666 
Q 3475 4666 3951 4270 
Q 4428 3875 4428 3144 
Q 4428 2409 3951 2014 
Q 3475 1619 2584 1619 
L 1791 1619 
L 1791 0 
L 588 0 
L 588 4666 
z
M 1791 3794 
L 1791 2491 
L 2456 2491 
Q 2806 2491 2997 2661 
Q 3188 2831 3188 3144 
Q 3188 3456 2997 3625 
Q 2806 3794 2456 3794 
L 1791 3794 
z
" transform="scale(0.015625)"/>
      <path id="DejaVuSans-Bold-37" d="M 31 4666 
L 4331 4666 
L 4331 3756 
L 2784 3756 
L 2784 0 
L 1581 0 
L 1581 3756 
L 31 3756 
L 31 4666 
z
" transform="scale(0.015625)"/>
      <path id="DejaVuSans-Bold-3" transform="scale(0.015625)"/>
      <path id="DejaVuSans-Bold-b" d="M 2413 -844 
L 1484 -844 
Q 1006 -72 778 623 
Q 550 1319 550 2003 
Q 550 2688 779 3389 
Q 1009 4091 1484 4856 
L 2413 4856 
Q 2013 4116 1813 3408 
Q 1613 2700 1613 2009 
Q 1613 1319 1811 609 
Q 2009 -100 2413 -844 
z
" transform="scale(0.015625)"/>
      <path id="DejaVuSans-Bold-50" d="M 3781 2919 
Q 3994 3244 4286 3414 
Q 4578 3584 4928 3584 
Q 5531 3584 5847 3212 
Q 6163 2841 6163 2131 
L 6163 0 
L 5038 0 
L 5038 1825 
Q 5041 1866 5042 1909 
Q 5044 1953 5044 2034 
Q 5044 2406 4934 2573 
Q 4825 2741 4581 2741 
Q 4263 2741 4089 2478 
Q 3916 2216 3909 1719 
L 3909 0 
L 2784 0 
L 2784 1825 
Q 2784 2406 2684 2573 
Q 2584 2741 2328 2741 
Q 2006 2741 1831 2477 
Q 1656 2213 1656 1722 
L 1656 0 
L 531 0 
L 531 3500 
L 1656 3500 
L 1656 2988 
Q 1863 3284 2130 3434 
Q 2397 3584 2719 3584 
Q 3081 3584 3359 3409 
Q 3638 3234 3781 2919 
z
" transform="scale(0.015625)"/>
      <path id="DejaVuSans-Bold-4c" d="M 538 3500 
L 1656 3500 
L 1656 0 
L 538 0 
L 538 3500 
z
M 538 4863 
L 1656 4863 
L 1656 3950 
L 538 3950 
L 538 4863 
z
" transform="scale(0.015625)"/>
      <path id="DejaVuSans-Bold-46" d="M 3366 3391 
L 3366 2478 
Q 3138 2634 2908 2709 
Q 2678 2784 2431 2784 
Q 1963 2784 1702 2511 
Q 1441 2238 1441 1747 
Q 1441 1256 1702 982 
Q 1963 709 2431 709 
Q 2694 709 2930 787 
Q 3166 866 3366 1019 
L 3366 103 
Q 3103 6 2833 -42 
Q 2563 -91 2291 -91 
Q 1344 -91 809 395 
Q 275 881 275 1747 
Q 275 2613 809 3098 
Q 1344 3584 2291 3584 
Q 2566 3584 2833 3536 
Q 3100 3488 3366 3391 
z
" transform="scale(0.015625)"/>
      <path id="DejaVuSans-Bold-55" d="M 3138 2547 
Q 2991 2616 2845 2648 
Q 2700 2681 2553 2681 
Q 2122 2681 1889 2404 
Q 1656 2128 1656 1613 
L 1656 0 
L 538 0 
L 538 3500 
L 1656 3500 
L 1656 2925 
Q 1872 3269 2151 3426 
Q 2431 3584 2822 3584 
Q 2878 3584 2943 3579 
Q 3009 3575 3134 3559 
L 3138 2547 
z
" transform="scale(0.015625)"/>
      <path id="DejaVuSans-Bold-52" d="M 2203 2784 
Q 1831 2784 1636 2517 
Q 1441 2250 1441 1747 
Q 1441 1244 1636 976 
Q 1831 709 2203 709 
Q 2569 709 2762 976 
Q 2956 1244 2956 1747 
Q 2956 2250 2762 2517 
Q 2569 2784 2203 2784 
z
M 2203 3584 
Q 3106 3584 3614 3096 
Q 4122 2609 4122 1747 
Q 4122 884 3614 396 
Q 3106 -91 2203 -91 
Q 1297 -91 786 396 
Q 275 884 275 1747 
Q 275 2609 786 3096 
Q 1297 3584 2203 3584 
z
" transform="scale(0.015625)"/>
      <path id="DejaVuSans-Bold-56" d="M 3272 3391 
L 3272 2541 
Q 2913 2691 2578 2766 
Q 2244 2841 1947 2841 
Q 1628 2841 1473 2761 
Q 1319 2681 1319 2516 
Q 1319 2381 1436 2309 
Q 1553 2238 1856 2203 
L 2053 2175 
Q 2913 2066 3209 1816 
Q 3506 1566 3506 1031 
Q 3506 472 3093 190 
Q 2681 -91 1863 -91 
Q 1516 -91 1145 -36 
Q 775 19 384 128 
L 384 978 
Q 719 816 1070 734 
Q 1422 653 1784 653 
Q 2113 653 2278 743 
Q 2444 834 2444 1013 
Q 2444 1163 2330 1236 
Q 2216 1309 1875 1350 
L 1678 1375 
Q 931 1469 631 1722 
Q 331 1975 331 2491 
Q 331 3047 712 3315 
Q 1094 3584 1881 3584 
Q 2191 3584 2531 3537 
Q 2872 3491 3272 3391 
z
" transform="scale(0.015625)"/>
      <path id="DejaVuSans-Bold-49" d="M 2841 4863 
L 2841 4128 
L 2222 4128 
Q 1984 4128 1890 4042 
Q 1797 3956 1797 3744 
L 1797 3500 
L 2753 3500 
L 2753 2700 
L 1797 2700 
L 1797 0 
L 678 0 
L 678 2700 
L 122 2700 
L 122 3500 
L 678 3500 
L 678 3744 
Q 678 4316 997 4589 
Q 1316 4863 1984 4863 
L 2841 4863 
z
" transform="scale(0.015625)"/>
      <path id="DejaVuSans-Bold-57" d="M 1759 4494 
L 1759 3500 
L 2913 3500 
L 2913 2700 
L 1759 2700 
L 1759 1216 
Q 1759 972 1856 886 
Q 1953 800 2241 800 
L 2816 800 
L 2816 0 
L 1856 0 
Q 1194 0 917 276 
Q 641 553 641 1216 
L 641 2700 
L 84 2700 
L 84 3500 
L 641 3500 
L 641 4494 
L 1759 4494 
z
" transform="scale(0.015625)"/>
      <path id="DejaVuSans-Bold-12" d="M 1644 4666 
L 2338 4666 
L 691 -594 
L 0 -594 
L 1644 4666 
z
" transform="scale(0.015625)"/>
      <path id="DejaVuSans-Bold-4e" d="M 538 4863 
L 1656 4863 
L 1656 2216 
L 2944 3500 
L 4244 3500 
L 2534 1894 
L 4378 0 
L 3022 0 
L 1656 1459 
L 1656 0 
L 538 0 
L 538 4863 
z
" transform="scale(0.015625)"/>
      <path id="DejaVuSans-Bold-4f" d="M 538 4863 
L 1656 4863 
L 1656 0 
L 538 0 
L 538 4863 
z
" transform="scale(0.015625)"/>
      <path id="DejaVuSans-Bold-53" d="M 1656 506 
L 1656 -1331 
L 538 -1331 
L 538 3500 
L 1656 3500 
L 1656 2988 
Q 1888 3294 2169 3439 
Q 2450 3584 2816 3584 
Q 3463 3584 3878 3070 
Q 4294 2556 4294 1747 
Q 4294 938 3878 423 
Q 3463 -91 2816 -91 
Q 2450 -91 2169 54 
Q 1888 200 1656 506 
z
M 2400 2772 
Q 2041 2772 1848 2508 
Q 1656 2244 1656 1747 
Q 1656 1250 1848 986 
Q 2041 722 2400 722 
Q 2759 722 2948 984 
Q 3138 1247 3138 1747 
Q 3138 2247 2948 2509 
Q 2759 2772 2400 2772 
z
" transform="scale(0.015625)"/>
      <path id="DejaVuSans-Bold-c" d="M 513 -844 
Q 913 -100 1113 609 
Q 1313 1319 1313 2009 
Q 1313 2700 1113 3408 
Q 913 4116 513 4856 
L 1441 4856 
Q 1916 4091 2145 3389 
Q 2375 2688 2375 2003 
Q 2375 1319 2147 623 
Q 1919 -72 1441 -844 
L 513 -844 
z
" transform="scale(0.015625)"/>
      <path id="DejaVuSans-Bold-af6" d="M 344 2156 
L 6056 2156 
L 6056 1350 
L 344 1350 
L 344 2156 
z
" transform="scale(0.015625)"/>
      <path id="DejaVuSans-Bold-7" d="M 2484 -941 
L 1978 -941 
L 1975 0 
Q 1584 16 1218 87 
Q 853 159 506 288 
L 506 1106 
Q 866 922 1233 823 
Q 1600 725 1978 713 
L 1978 1684 
L 1875 1703 
Q 1128 1834 814 2115 
Q 500 2397 500 2925 
Q 500 3484 883 3798 
Q 1266 4113 1975 4141 
L 1978 4863 
L 2484 4863 
L 2484 4153 
Q 2797 4128 3109 4075 
Q 3422 4022 3738 3938 
L 3738 3144 
Q 3425 3275 3112 3348 
Q 2800 3422 2484 3438 
L 2484 2541 
L 2584 2522 
Q 3378 2397 3698 2105 
Q 4019 1813 4019 1241 
Q 4019 666 3637 358 
Q 3256 50 2484 6 
L 2484 -941 
z
M 1978 2613 
L 1978 3428 
Q 1756 3416 1623 3308 
Q 1491 3200 1491 3034 
Q 1491 2850 1612 2745 
Q 1734 2641 1978 2613 
z
M 2484 1594 
L 2484 725 
Q 2756 728 2892 831 
Q 3028 934 3028 1141 
Q 3028 1353 2903 1458 
Q 2778 1563 2484 1594 
z
" transform="scale(0.015625)"/>
      <path id="DejaVuSans-Bold-14" d="M 750 831 
L 1813 831 
L 1813 3847 
L 722 3622 
L 722 4441 
L 1806 4666 
L 2950 4666 
L 2950 831 
L 4013 831 
L 4013 0 
L 750 0 
L 750 831 
z
" transform="scale(0.015625)"/>
      <path id="DejaVuSans-Bold-1c" d="M 641 103 
L 641 966 
Q 928 831 1190 764 
Q 1453 697 1709 697 
Q 2247 697 2547 995 
Q 2847 1294 2900 1881 
Q 2688 1725 2447 1647 
Q 2206 1569 1925 1569 
Q 1209 1569 770 1986 
Q 331 2403 331 3084 
Q 331 3838 820 4291 
Q 1309 4744 2131 4744 
Q 3044 4744 3544 4128 
Q 4044 3513 4044 2388 
Q 4044 1231 3459 570 
Q 2875 -91 1856 -91 
Q 1528 -91 1228 -42 
Q 928 6 641 103 
z
M 2125 2350 
Q 2441 2350 2600 2554 
Q 2759 2759 2759 3169 
Q 2759 3575 2600 3781 
Q 2441 3988 2125 3988 
Q 1809 3988 1650 3781 
Q 1491 3575 1491 3169 
Q 1491 2759 1650 2554 
Q 1809 2350 2125 2350 
z
" transform="scale(0.015625)"/>
      <path id="DejaVuSans-Bold-15" d="M 1844 884 
L 3897 884 
L 3897 0 
L 506 0 
L 506 884 
L 2209 2388 
Q 2438 2594 2547 2791 
Q 2656 2988 2656 3200 
Q 2656 3528 2436 3728 
Q 2216 3928 1850 3928 
Q 1569 3928 1234 3808 
Q 900 3688 519 3450 
L 519 4475 
Q 925 4609 1322 4679 
Q 1719 4750 2100 4750 
Q 2938 4750 3402 4381 
Q 3866 4013 3866 3353 
Q 3866 2972 3669 2642 
Q 3472 2313 2841 1759 
L 1844 884 
z
" transform="scale(0.015625)"/>
      <path id="DejaVuSans-Bold-11" d="M 653 1209 
L 1778 1209 
L 1778 0 
L 653 0 
L 653 1209 
z
" transform="scale(0.015625)"/>
      <path id="DejaVuSans-Bold-1a" d="M 428 4666 
L 3944 4666 
L 3944 3988 
L 2125 0 
L 953 0 
L 2675 3781 
L 428 3781 
L 428 4666 
z
" transform="scale(0.015625)"/>
      <path id="DejaVuSans-Bold-17" d="M 2356 3675 
L 1038 1722 
L 2356 1722 
L 2356 3675 
z
M 2156 4666 
L 3494 4666 
L 3494 1722 
L 4159 1722 
L 4159 850 
L 3494 850 
L 3494 0 
L 2356 0 
L 2356 850 
L 288 850 
L 288 1881 
L 2156 4666 
z
" transform="scale(0.015625)"/>
      <path id="DejaVuSans-Bold-e" d="M 3053 4013 
L 3053 2375 
L 4684 2375 
L 4684 1638 
L 3053 1638 
L 3053 0 
L 2309 0 
L 2309 1638 
L 678 1638 
L 678 2375 
L 2309 2375 
L 2309 4013 
L 3053 4013 
z
" transform="scale(0.015625)"/>
      <path id="DejaVuSans-Bold-19" d="M 2316 2303 
Q 2000 2303 1842 2098 
Q 1684 1894 1684 1484 
Q 1684 1075 1842 870 
Q 2000 666 2316 666 
Q 2634 666 2792 870 
Q 2950 1075 2950 1484 
Q 2950 1894 2792 2098 
Q 2634 2303 2316 2303 
z
M 3803 4544 
L 3803 3681 
Q 3506 3822 3243 3889 
Q 2981 3956 2731 3956 
Q 2194 3956 1894 3657 
Q 1594 3359 1544 2772 
Q 1750 2925 1990 3001 
Q 2231 3078 2516 3078 
Q 3231 3078 3670 2659 
Q 4109 2241 4109 1563 
Q 4109 813 3618 361 
Q 3128 -91 2303 -91 
Q 1394 -91 895 523 
Q 397 1138 397 2266 
Q 397 3422 980 4083 
Q 1563 4744 2578 4744 
Q 2900 4744 3203 4694 
Q 3506 4644 3803 4544 
z
" transform="scale(0.015625)"/>
      <path id="DejaVuSans-Bold-8" d="M 4959 1925 
Q 4738 1925 4616 1733 
Q 4494 1541 4494 1184 
Q 4494 825 4614 633 
Q 4734 441 4959 441 
Q 5184 441 5303 633 
Q 5422 825 5422 1184 
Q 5422 1541 5301 1733 
Q 5181 1925 4959 1925 
z
M 4959 2450 
Q 5541 2450 5875 2112 
Q 6209 1775 6209 1184 
Q 6209 594 5875 251 
Q 5541 -91 4959 -91 
Q 4378 -91 4042 251 
Q 3706 594 3706 1184 
Q 3706 1772 4042 2111 
Q 4378 2450 4959 2450 
z
M 2094 -91 
L 1403 -91 
L 4319 4750 
L 5013 4750 
L 2094 -91 
z
M 1453 4750 
Q 2034 4750 2367 4411 
Q 2700 4072 2700 3481 
Q 2700 2891 2367 2550 
Q 2034 2209 1453 2209 
Q 872 2209 539 2550 
Q 206 2891 206 3481 
Q 206 4072 539 4411 
Q 872 4750 1453 4750 
z
M 1453 4225 
Q 1228 4225 1106 4031 
Q 984 3838 984 3481 
Q 984 3122 1106 2926 
Q 1228 2731 1453 2731 
Q 1678 2731 1798 2926 
Q 1919 3122 1919 3481 
Q 1919 3838 1797 4031 
Q 1675 4225 1453 4225 
z
" transform="scale(0.015625)"/>
     </defs>
     <use xlink:href="#DejaVuSans-Bold-36"/>
     <use xlink:href="#DejaVuSans-Bold-2e" transform="translate(72.015625 0)"/>
     <use xlink:href="#DejaVuSans-Bold-2c" transform="translate(149.5 0)"/>
     <use xlink:href="#DejaVuSans-Bold-2f" transform="translate(186.703125 0)"/>
     <use xlink:href="#DejaVuSans-Bold-2f" transform="translate(250.421875 0)"/>
     <use xlink:href="#DejaVuSans-Bold-32" transform="translate(310.578125 0)"/>
     <use xlink:href="#DejaVuSans-Bold-33" transform="translate(395.59375 0)"/>
     <use xlink:href="#DejaVuSans-Bold-37" transform="translate(468.890625 0)"/>
     <use xlink:href="#DejaVuSans-Bold-3" transform="translate(537.109375 0)"/>
     <use xlink:href="#DejaVuSans-Bold-b" transform="translate(571.921875 0)"/>
     <use xlink:href="#DejaVuSans-Bold-50" transform="translate(617.625 0)"/>
     <use xlink:href="#DejaVuSans-Bold-4c" transform="translate(721.828125 0)"/>
     <use xlink:href="#DejaVuSans-Bold-46" transform="translate(756.109375 0)"/>
     <use xlink:href="#DejaVuSans-Bold-55" transform="translate(815.390625 0)"/>
     <use xlink:href="#DejaVuSans-Bold-52" transform="translate(864.703125 0)"/>
     <use xlink:href="#DejaVuSans-Bold-56" transform="translate(933.40625 0)"/>
     <use xlink:href="#DejaVuSans-Bold-52" transform="translate(992.921875 0)"/>
     <use xlink:href="#DejaVuSans-Bold-49" transform="translate(1061.625 0)"/>
     <use xlink:href="#DejaVuSans-Bold-57" transform="translate(1105.125 0)"/>
     <use xlink:href="#DejaVuSans-Bold-12" transform="translate(1152.921875 0)"/>
     <use xlink:href="#DejaVuSans-Bold-36" transform="translate(1189.453125 0)"/>
     <use xlink:href="#DejaVuSans-Bold-4e" transform="translate(1261.46875 0)"/>
     <use xlink:href="#DejaVuSans-Bold-4c" transform="translate(1327.96875 0)"/>
     <use xlink:href="#DejaVuSans-Bold-4f" transform="translate(1362.25 0)"/>
     <use xlink:href="#DejaVuSans-Bold-4f" transform="translate(1396.53125 0)"/>
     <use xlink:href="#DejaVuSans-Bold-32" transform="translate(1430.8125 0)"/>
     <use xlink:href="#DejaVuSans-Bold-53" transform="translate(1515.828125 0)"/>
     <use xlink:href="#DejaVuSans-Bold-57" transform="translate(1587.40625 0)"/>
     <use xlink:href="#DejaVuSans-Bold-c" transform="translate(1635.203125 0)"/>
     <use xlink:href="#DejaVuSans-Bold-3" transform="translate(1680.90625 0)"/>
     <use xlink:href="#DejaVuSans-Bold-af6" transform="translate(1715.71875 0)"/>
     <use xlink:href="#DejaVuSans-Bold-3" transform="translate(1815.71875 0)"/>
     <use xlink:href="#DejaVuSans-Bold-7" transform="translate(1850.53125 0)"/>
     <use xlink:href="#DejaVuSans-Bold-14" transform="translate(1920.109375 0)"/>
     <use xlink:href="#DejaVuSans-Bold-1c" transform="translate(1989.6875 0)"/>
     <use xlink:href="#DejaVuSans-Bold-15" transform="translate(2059.265625 0)"/>
     <use xlink:href="#DejaVuSans-Bold-11" transform="translate(2128.84375 0)"/>
     <use xlink:href="#DejaVuSans-Bold-1a" transform="translate(2166.828125 0)"/>
     <use xlink:href="#DejaVuSans-Bold-17" transform="translate(2236.40625 0)"/>
     <use xlink:href="#DejaVuSans-Bold-3" transform="translate(2305.984375 0)"/>
     <use xlink:href="#DejaVuSans-Bold-b" transform="translate(2340.796875 0)"/>
     <use xlink:href="#DejaVuSans-Bold-e" transform="translate(2386.5 0)"/>
     <use xlink:href="#DejaVuSans-Bold-15" transform="translate(2470.296875 0)"/>
     <use xlink:href="#DejaVuSans-Bold-11" transform="translate(2539.875 0)"/>
     <use xlink:href="#DejaVuSans-Bold-19" transform="translate(2577.859375 0)"/>
     <use xlink:href="#DejaVuSans-Bold-15" transform="translate(2647.4375 0)"/>
     <use xlink:href="#DejaVuSans-Bold-8" transform="translate(2717.015625 0)"/>
     <use xlink:href="#DejaVuSans-Bold-c" transform="translate(2817.21875 0)"/>
    </g>
   </g>
  </g>
 </g>
 <defs>
  <clipPath id="p3c5cc601b0">
   <rect x="34.56" y="21.558281" width="383.24" height="128.76"/>
  </clipPath>
 </defs>
</svg>
