<?xml version="1.0" encoding="utf-8" standalone="no"?>
<!DOCTYPE svg PUBLIC "-//W3C//DTD SVG 1.1//EN"
  "http://www.w3.org/Graphics/SVG/1.1/DTD/svg11.dtd">
<svg xmlns:xlink="http://www.w3.org/1999/xlink" width="424.91pt" height="173.060781pt" viewBox="0 0 424.91 173.060781" xmlns="http://www.w3.org/2000/svg" version="1.1">
 <metadata>
  <rdf:RDF xmlns:dc="http://purl.org/dc/elements/1.1/" xmlns:cc="http://creativecommons.org/ns#" xmlns:rdf="http://www.w3.org/1999/02/22-rdf-syntax-ns#">
   <cc:Work>
    <dc:type rdf:resource="http://purl.org/dc/dcmitype/StillImage"/>
    <dc:date>2026-05-14T00:41:13.391531</dc:date>
    <dc:format>image/svg+xml</dc:format>
    <dc:creator>
     <cc:Agent>
      <dc:title>Matplotlib v3.10.9, https://matplotlib.org/</dc:title>
     </cc:Agent>
    </dc:creator>
   </cc:Work>
  </rdf:RDF>
 </metadata>
 <defs>
  <style type="text/css">*{stroke-linejoin: round; stroke-linecap: butt}</style>
 </defs>
 <g id="figure_1">
  <g id="patch_1">
   <path d="M 0 173.060781 
L 424.91 173.060781 
L 424.91 0 
L 0 0 
z
" style="fill: #0d1117"/>
  </g>
  <g id="axes_1">
   <g id="patch_2">
    <path d="M 34.56 151.118281 
L 417.71 151.118281 
L 417.71 21.558281 
L 34.56 21.558281 
z
" style="fill: #0d1117"/>
   </g>
   <g id="FillBetweenPolyCollection_1">
    <defs>
     <path id="mc058b7d9d9" d="M 51.975909 -27.831591 
L 51.975909 -116.139815 
L 55.93407 -111.893123 
L 59.892231 -105.071682 
L 63.850393 -107.090679 
L 67.808554 -103.676441 
L 71.766715 -104.75746 
L 75.724876 -104.717596 
L 79.683037 -102.274165 
L 83.641198 -97.860981 
L 87.59936 -100.257513 
L 91.557521 -97.743734 
L 95.515682 -99.992535 
L 99.473843 -98.1072 
L 103.432004 -99.089732 
L 107.390165 -97.767184 
L 111.348326 -98.864617 
L 115.306488 -95.084568 
L 119.264649 -99.894047 
L 123.22281 -94.6062 
L 127.180971 -97.028526 
L 131.139132 -145.254633 
L 135.097293 -139.113226 
L 139.055455 -141.859155 
L 143.013616 -142.68223 
L 146.971777 -141.460514 
L 150.929938 -142.321109 
L 154.888099 -144.914616 
L 158.84626 -143.083215 
L 162.804421 -145.411744 
L 166.762583 -81.847363 
L 170.720744 -87.515091 
L 174.678905 -85.020071 
L 178.637066 -86.218337 
L 182.595227 -85.050555 
L 186.553388 -86.638082 
L 190.51155 -85.172492 
L 194.469711 -84.389281 
L 198.427872 -86.215992 
L 202.386033 -86.539594 
L 206.344194 -85.587547 
L 210.302355 -84.379902 
L 214.260517 -86.699051 
L 218.218678 -91.71254 
L 222.176839 -87.740205 
L 226.135 -91.250586 
L 230.093161 -88.127121 
L 234.051322 -89.233934 
L 238.009483 -99.307811 
L 241.967645 -92.840457 
L 245.925806 -126.445842 
L 249.883967 -145.613409 
L 253.842128 -89.191725 
L 257.800289 -105.006024 
L 261.75845 -92.3105 
L 265.716612 -100.224684 
L 269.674773 -95.790396 
L 273.632934 -95.551212 
L 277.591095 -90.291504 
L 281.549256 -94.364671 
L 285.507417 -90.141428 
L 289.465579 -89.248004 
L 293.42374 -89.693543 
L 297.381901 -88.265473 
L 301.340062 -90.064044 
L 305.298223 -83.587311 
L 309.256384 -88.246713 
L 313.214545 -86.476281 
L 317.172707 -81.762945 
L 321.130868 -88.57266 
L 325.089029 -85.127938 
L 329.04719 -83.742077 
L 333.005351 -89.782651 
L 336.963512 -86.687326 
L 340.921674 -86.469246 
L 344.879835 -86.816298 
L 348.837996 -82.865068 
L 352.796157 -84.823096 
L 356.754318 -87.944216 
L 360.712479 -87.425983 
L 364.67064 -86.975754 
L 368.628802 -89.545812 
L 372.586963 -88.645354 
L 376.545124 -86.659187 
L 380.503285 -95.82557 
L 384.461446 -87.644063 
L 388.419607 -94.918077 
L 392.377769 -88.263128 
L 396.33593 -93.97541 
L 400.294091 -90.331368 
L 400.294091 -27.831591 
L 400.294091 -27.831591 
L 396.33593 -27.831591 
L 392.377769 -27.831591 
L 388.419607 -27.831591 
L 384.461446 -27.831591 
L 380.503285 -27.831591 
L 376.545124 -27.831591 
L 372.586963 -27.831591 
L 368.628802 -27.831591 
L 364.67064 -27.831591 
L 360.712479 -27.831591 
L 356.754318 -27.831591 
L 352.796157 -27.831591 
L 348.837996 -27.831591 
L 344.879835 -27.831591 
L 340.921674 -27.831591 
L 336.963512 -27.831591 
L 333.005351 -27.831591 
L 329.04719 -27.831591 
L 325.089029 -27.831591 
L 321.130868 -27.831591 
L 317.172707 -27.831591 
L 313.214545 -27.831591 
L 309.256384 -27.831591 
L 305.298223 -27.831591 
L 301.340062 -27.831591 
L 297.381901 -27.831591 
L 293.42374 -27.831591 
L 289.465579 -27.831591 
L 285.507417 -27.831591 
L 281.549256 -27.831591 
L 277.591095 -27.831591 
L 273.632934 -27.831591 
L 269.674773 -27.831591 
L 265.716612 -27.831591 
L 261.75845 -27.831591 
L 257.800289 -27.831591 
L 253.842128 -27.831591 
L 249.883967 -27.831591 
L 245.925806 -27.831591 
L 241.967645 -27.831591 
L 238.009483 -27.831591 
L 234.051322 -27.831591 
L 230.093161 -27.831591 
L 226.135 -27.831591 
L 222.176839 -27.831591 
L 218.218678 -27.831591 
L 214.260517 -27.831591 
L 210.302355 -27.831591 
L 206.344194 -27.831591 
L 202.386033 -27.831591 
L 198.427872 -27.831591 
L 194.469711 -27.831591 
L 190.51155 -27.831591 
L 186.553388 -27.831591 
L 182.595227 -27.831591 
L 178.637066 -27.831591 
L 174.678905 -27.831591 
L 170.720744 -27.831591 
L 166.762583 -27.831591 
L 162.804421 -27.831591 
L 158.84626 -27.831591 
L 154.888099 -27.831591 
L 150.929938 -27.831591 
L 146.971777 -27.831591 
L 143.013616 -27.831591 
L 139.055455 -27.831591 
L 135.097293 -27.831591 
L 131.139132 -27.831591 
L 127.180971 -27.831591 
L 123.22281 -27.831591 
L 119.264649 -27.831591 
L 115.306488 -27.831591 
L 111.348326 -27.831591 
L 107.390165 -27.831591 
L 103.432004 -27.831591 
L 99.473843 -27.831591 
L 95.515682 -27.831591 
L 91.557521 -27.831591 
L 87.59936 -27.831591 
L 83.641198 -27.831591 
L 79.683037 -27.831591 
L 75.724876 -27.831591 
L 71.766715 -27.831591 
L 67.808554 -27.831591 
L 63.850393 -27.831591 
L 59.892231 -27.831591 
L 55.93407 -27.831591 
L 51.975909 -27.831591 
z
" style="stroke: #f85149; stroke-opacity: 0.15"/>
    </defs>
    <g clip-path="url(#p8e4cd5c795)">
     <use xlink:href="#mc058b7d9d9" x="0" y="173.060781" style="fill: #f85149; fill-opacity: 0.15; stroke: #f85149; stroke-opacity: 0.15"/>
    </g>
   </g>
   <g id="matplotlib.axis_1">
    <g id="xtick_1">
     <g id="line2d_1">
      <path d="M 51.975909 151.118281 
L 51.975909 21.558281 
" clip-path="url(#p8e4cd5c795)" style="fill: none; stroke: #21262d; stroke-opacity: 0.5; stroke-width: 0.5; stroke-linecap: square"/>
     </g>
     <g id="line2d_2">
      <defs>
       <path id="m821c09daac" d="M 0 0 
L 0 3.5 
" style="stroke: #c9d1d9; stroke-width: 0.8"/>
      </defs>
      <g>
       <use xlink:href="#m821c09daac" x="51.975909" y="151.118281" style="fill: #c9d1d9; stroke: #c9d1d9; stroke-width: 0.8"/>
      </g>
     </g>
     <g id="text_1">
      <!-- 0 -->
      <g style="fill: #c9d1d9" transform="translate(49.430909 164.197031) scale(0.08 -0.08)">
       <defs>
        <path id="DejaVuSans-30" d="M 2034 4250 
Q 1547 4250 1301 3770 
Q 1056 3291 1056 2328 
Q 1056 1369 1301 889 
Q 1547 409 2034 409 
Q 2525 409 2770 889 
Q 3016 1369 3016 2328 
Q 3016 3291 2770 3770 
Q 2525 4250 2034 4250 
z
M 2034 4750 
Q 2819 4750 3233 4129 
Q 3647 3509 3647 2328 
Q 3647 1150 3233 529 
Q 2819 -91 2034 -91 
Q 1250 -91 836 529 
Q 422 1150 422 2328 
Q 422 3509 836 4129 
Q 1250 4750 2034 4750 
z
" transform="scale(0.015625)"/>
       </defs>
       <use xlink:href="#DejaVuSans-30"/>
      </g>
     </g>
    </g>
    <g id="xtick_2">
     <g id="line2d_3">
      <path d="M 131.139132 151.118281 
L 131.139132 21.558281 
" clip-path="url(#p8e4cd5c795)" style="fill: none; stroke: #21262d; stroke-opacity: 0.5; stroke-width: 0.5; stroke-linecap: square"/>
     </g>
     <g id="line2d_4">
      <g>
       <use xlink:href="#m821c09daac" x="131.139132" y="151.118281" style="fill: #c9d1d9; stroke: #c9d1d9; stroke-width: 0.8"/>
      </g>
     </g>
     <g id="text_2">
      <!-- 20 -->
      <g style="fill: #c9d1d9" transform="translate(126.049132 164.197031) scale(0.08 -0.08)">
       <defs>
        <path id="DejaVuSans-32" d="M 1228 531 
L 3431 531 
L 3431 0 
L 469 0 
L 469 531 
Q 828 903 1448 1529 
Q 2069 2156 2228 2338 
Q 2531 2678 2651 2914 
Q 2772 3150 2772 3378 
Q 2772 3750 2511 3984 
Q 2250 4219 1831 4219 
Q 1534 4219 1204 4116 
Q 875 4013 500 3803 
L 500 4441 
Q 881 4594 1212 4672 
Q 1544 4750 1819 4750 
Q 2544 4750 2975 4387 
Q 3406 4025 3406 3419 
Q 3406 3131 3298 2873 
Q 3191 2616 2906 2266 
Q 2828 2175 2409 1742 
Q 1991 1309 1228 531 
z
" transform="scale(0.015625)"/>
       </defs>
       <use xlink:href="#DejaVuSans-32"/>
       <use xlink:href="#DejaVuSans-30" transform="translate(63.623047 0)"/>
      </g>
     </g>
    </g>
    <g id="xtick_3">
     <g id="line2d_5">
      <path d="M 210.302355 151.118281 
L 210.302355 21.558281 
" clip-path="url(#p8e4cd5c795)" style="fill: none; stroke: #21262d; stroke-opacity: 0.5; stroke-width: 0.5; stroke-linecap: square"/>
     </g>
     <g id="line2d_6">
      <g>
       <use xlink:href="#m821c09daac" x="210.302355" y="151.118281" style="fill: #c9d1d9; stroke: #c9d1d9; stroke-width: 0.8"/>
      </g>
     </g>
     <g id="text_3">
      <!-- 40 -->
      <g style="fill: #c9d1d9" transform="translate(205.212355 164.197031) scale(0.08 -0.08)">
       <defs>
        <path id="DejaVuSans-34" d="M 2419 4116 
L 825 1625 
L 2419 1625 
L 2419 4116 
z
M 2253 4666 
L 3047 4666 
L 3047 1625 
L 3713 1625 
L 3713 1100 
L 3047 1100 
L 3047 0 
L 2419 0 
L 2419 1100 
L 313 1100 
L 313 1709 
L 2253 4666 
z
" transform="scale(0.015625)"/>
       </defs>
       <use xlink:href="#DejaVuSans-34"/>
       <use xlink:href="#DejaVuSans-30" transform="translate(63.623047 0)"/>
      </g>
     </g>
    </g>
    <g id="xtick_4">
     <g id="line2d_7">
      <path d="M 289.465579 151.118281 
L 289.465579 21.558281 
" clip-path="url(#p8e4cd5c795)" style="fill: none; stroke: #21262d; stroke-opacity: 0.5; stroke-width: 0.5; stroke-linecap: square"/>
     </g>
     <g id="line2d_8">
      <g>
       <use xlink:href="#m821c09daac" x="289.465579" y="151.118281" style="fill: #c9d1d9; stroke: #c9d1d9; stroke-width: 0.8"/>
      </g>
     </g>
     <g id="text_4">
      <!-- 60 -->
      <g style="fill: #c9d1d9" transform="translate(284.375579 164.197031) scale(0.08 -0.08)">
       <defs>
        <path id="DejaVuSans-36" d="M 2113 2584 
Q 1688 2584 1439 2293 
Q 1191 2003 1191 1497 
Q 1191 994 1439 701 
Q 1688 409 2113 409 
Q 2538 409 2786 701 
Q 3034 994 3034 1497 
Q 3034 2003 2786 2293 
Q 2538 2584 2113 2584 
z
M 3366 4563 
L 3366 3988 
Q 3128 4100 2886 4159 
Q 2644 4219 2406 4219 
Q 1781 4219 1451 3797 
Q 1122 3375 1075 2522 
Q 1259 2794 1537 2939 
Q 1816 3084 2150 3084 
Q 2853 3084 3261 2657 
Q 3669 2231 3669 1497 
Q 3669 778 3244 343 
Q 2819 -91 2113 -91 
Q 1303 -91 875 529 
Q 447 1150 447 2328 
Q 447 3434 972 4092 
Q 1497 4750 2381 4750 
Q 2619 4750 2861 4703 
Q 3103 4656 3366 4563 
z
" transform="scale(0.015625)"/>
       </defs>
       <use xlink:href="#DejaVuSans-36"/>
       <use xlink:href="#DejaVuSans-30" transform="translate(63.623047 0)"/>
      </g>
     </g>
    </g>
    <g id="xtick_5">
     <g id="line2d_9">
      <path d="M 368.628802 151.118281 
L 368.628802 21.558281 
" clip-path="url(#p8e4cd5c795)" style="fill: none; stroke: #21262d; stroke-opacity: 0.5; stroke-width: 0.5; stroke-linecap: square"/>
     </g>
     <g id="line2d_10">
      <g>
       <use xlink:href="#m821c09daac" x="368.628802" y="151.118281" style="fill: #c9d1d9; stroke: #c9d1d9; stroke-width: 0.8"/>
      </g>
     </g>
     <g id="text_5">
      <!-- 80 -->
      <g style="fill: #c9d1d9" transform="translate(363.538802 164.197031) scale(0.08 -0.08)">
       <defs>
        <path id="DejaVuSans-38" d="M 2034 2216 
Q 1584 2216 1326 1975 
Q 1069 1734 1069 1313 
Q 1069 891 1326 650 
Q 1584 409 2034 409 
Q 2484 409 2743 651 
Q 3003 894 3003 1313 
Q 3003 1734 2745 1975 
Q 2488 2216 2034 2216 
z
M 1403 2484 
Q 997 2584 770 2862 
Q 544 3141 544 3541 
Q 544 4100 942 4425 
Q 1341 4750 2034 4750 
Q 2731 4750 3128 4425 
Q 3525 4100 3525 3541 
Q 3525 3141 3298 2862 
Q 3072 2584 2669 2484 
Q 3125 2378 3379 2068 
Q 3634 1759 3634 1313 
Q 3634 634 3220 271 
Q 2806 -91 2034 -91 
Q 1263 -91 848 271 
Q 434 634 434 1313 
Q 434 1759 690 2068 
Q 947 2378 1403 2484 
z
M 1172 3481 
Q 1172 3119 1398 2916 
Q 1625 2713 2034 2713 
Q 2441 2713 2670 2916 
Q 2900 3119 2900 3481 
Q 2900 3844 2670 4047 
Q 2441 4250 2034 4250 
Q 1625 4250 1398 4047 
Q 1172 3844 1172 3481 
z
" transform="scale(0.015625)"/>
       </defs>
       <use xlink:href="#DejaVuSans-38"/>
       <use xlink:href="#DejaVuSans-30" transform="translate(63.623047 0)"/>
      </g>
     </g>
    </g>
   </g>
   <g id="matplotlib.axis_2">
    <g id="ytick_1">
     <g id="line2d_11">
      <path d="M 34.56 145.22919 
L 417.71 145.22919 
" clip-path="url(#p8e4cd5c795)" style="fill: none; stroke: #21262d; stroke-opacity: 0.5; stroke-width: 0.5; stroke-linecap: square"/>
     </g>
     <g id="line2d_12">
      <defs>
       <path id="m032a995347" d="M 0 0 
L -3.5 0 
" style="stroke: #c9d1d9; stroke-width: 0.8"/>
      </defs>
      <g>
       <use xlink:href="#m032a995347" x="34.56" y="145.22919" style="fill: #c9d1d9; stroke: #c9d1d9; stroke-width: 0.8"/>
      </g>
     </g>
     <g id="text_6">
      <!-- $0 -->
      <g style="fill: #c9d1d9" transform="translate(17.38 148.268565) scale(0.08 -0.08)">
       <defs>
        <path id="DejaVuSans-24" d="M 2163 -941 
L 1850 -941 
L 1847 0 
Q 1519 6 1191 76 
Q 863 147 531 288 
L 531 850 
Q 850 650 1176 548 
Q 1503 447 1850 444 
L 1850 1869 
Q 1159 1981 845 2250 
Q 531 2519 531 2988 
Q 531 3497 872 3790 
Q 1213 4084 1850 4128 
L 1850 4863 
L 2163 4863 
L 2163 4138 
Q 2453 4125 2725 4076 
Q 2997 4028 3256 3944 
L 3256 3397 
Q 2997 3528 2723 3600 
Q 2450 3672 2163 3684 
L 2163 2350 
Q 2872 2241 3206 1959 
Q 3541 1678 3541 1191 
Q 3541 663 3186 358 
Q 2831 53 2163 6 
L 2163 -941 
z
M 1850 2406 
L 1850 3688 
Q 1488 3647 1297 3481 
Q 1106 3316 1106 3041 
Q 1106 2772 1282 2622 
Q 1459 2472 1850 2406 
z
M 2163 1806 
L 2163 453 
Q 2559 506 2761 678 
Q 2963 850 2963 1131 
Q 2963 1406 2770 1568 
Q 2578 1731 2163 1806 
z
" transform="scale(0.015625)"/>
       </defs>
       <use xlink:href="#DejaVuSans-24"/>
       <use xlink:href="#DejaVuSans-30" transform="translate(63.623047 0)"/>
      </g>
     </g>
    </g>
    <g id="ytick_2">
     <g id="line2d_13">
      <path d="M 34.56 121.779756 
L 417.71 121.779756 
" clip-path="url(#p8e4cd5c795)" style="fill: none; stroke: #21262d; stroke-opacity: 0.5; stroke-width: 0.5; stroke-linecap: square"/>
     </g>
     <g id="line2d_14">
      <g>
       <use xlink:href="#m032a995347" x="34.56" y="121.779756" style="fill: #c9d1d9; stroke: #c9d1d9; stroke-width: 0.8"/>
      </g>
     </g>
     <g id="text_7">
      <!-- $100 -->
      <g style="fill: #c9d1d9" transform="translate(7.2 124.819131) scale(0.08 -0.08)">
       <defs>
        <path id="DejaVuSans-31" d="M 794 531 
L 1825 531 
L 1825 4091 
L 703 3866 
L 703 4441 
L 1819 4666 
L 2450 4666 
L 2450 531 
L 3481 531 
L 3481 0 
L 794 0 
L 794 531 
z
" transform="scale(0.015625)"/>
       </defs>
       <use xlink:href="#DejaVuSans-24"/>
       <use xlink:href="#DejaVuSans-31" transform="translate(63.623047 0)"/>
       <use xlink:href="#DejaVuSans-30" transform="translate(127.246094 0)"/>
       <use xlink:href="#DejaVuSans-30" transform="translate(190.869141 0)"/>
      </g>
     </g>
    </g>
    <g id="ytick_3">
     <g id="line2d_15">
      <path d="M 34.56 98.330322 
L 417.71 98.330322 
" clip-path="url(#p8e4cd5c795)" style="fill: none; stroke: #21262d; stroke-opacity: 0.5; stroke-width: 0.5; stroke-linecap: square"/>
     </g>
     <g id="line2d_16">
      <g>
       <use xlink:href="#m032a995347" x="34.56" y="98.330322" style="fill: #c9d1d9; stroke: #c9d1d9; stroke-width: 0.8"/>
      </g>
     </g>
     <g id="text_8">
      <!-- $200 -->
      <g style="fill: #c9d1d9" transform="translate(7.2 101.369697) scale(0.08 -0.08)">
       <use xlink:href="#DejaVuSans-24"/>
       <use xlink:href="#DejaVuSans-32" transform="translate(63.623047 0)"/>
       <use xlink:href="#DejaVuSans-30" transform="translate(127.246094 0)"/>
       <use xlink:href="#DejaVuSans-30" transform="translate(190.869141 0)"/>
      </g>
     </g>
    </g>
    <g id="ytick_4">
     <g id="line2d_17">
      <path d="M 34.56 74.880888 
L 417.71 74.880888 
" clip-path="url(#p8e4cd5c795)" style="fill: none; stroke: #21262d; stroke-opacity: 0.5; stroke-width: 0.5; stroke-linecap: square"/>
     </g>
     <g id="line2d_18">
      <g>
       <use xlink:href="#m032a995347" x="34.56" y="74.880888" style="fill: #c9d1d9; stroke: #c9d1d9; stroke-width: 0.8"/>
      </g>
     </g>
     <g id="text_9">
      <!-- $300 -->
      <g style="fill: #c9d1d9" transform="translate(7.2 77.920263) scale(0.08 -0.08)">
       <defs>
        <path id="DejaVuSans-33" d="M 2597 2516 
Q 3050 2419 3304 2112 
Q 3559 1806 3559 1356 
Q 3559 666 3084 287 
Q 2609 -91 1734 -91 
Q 1441 -91 1130 -33 
Q 819 25 488 141 
L 488 750 
Q 750 597 1062 519 
Q 1375 441 1716 441 
Q 2309 441 2620 675 
Q 2931 909 2931 1356 
Q 2931 1769 2642 2001 
Q 2353 2234 1838 2234 
L 1294 2234 
L 1294 2753 
L 1863 2753 
Q 2328 2753 2575 2939 
Q 2822 3125 2822 3475 
Q 2822 3834 2567 4026 
Q 2313 4219 1838 4219 
Q 1578 4219 1281 4162 
Q 984 4106 628 3988 
L 628 4550 
Q 988 4650 1302 4700 
Q 1616 4750 1894 4750 
Q 2613 4750 3031 4423 
Q 3450 4097 3450 3541 
Q 3450 3153 3228 2886 
Q 3006 2619 2597 2516 
z
" transform="scale(0.015625)"/>
       </defs>
       <use xlink:href="#DejaVuSans-24"/>
       <use xlink:href="#DejaVuSans-33" transform="translate(63.623047 0)"/>
       <use xlink:href="#DejaVuSans-30" transform="translate(127.246094 0)"/>
       <use xlink:href="#DejaVuSans-30" transform="translate(190.869141 0)"/>
      </g>
     </g>
    </g>
    <g id="ytick_5">
     <g id="line2d_19">
      <path d="M 34.56 51.431453 
L 417.71 51.431453 
" clip-path="url(#p8e4cd5c795)" style="fill: none; stroke: #21262d; stroke-opacity: 0.5; stroke-width: 0.5; stroke-linecap: square"/>
     </g>
     <g id="line2d_20">
      <g>
       <use xlink:href="#m032a995347" x="34.56" y="51.431453" style="fill: #c9d1d9; stroke: #c9d1d9; stroke-width: 0.8"/>
      </g>
     </g>
     <g id="text_10">
      <!-- $400 -->
      <g style="fill: #c9d1d9" transform="translate(7.2 54.470828) scale(0.08 -0.08)">
       <use xlink:href="#DejaVuSans-24"/>
       <use xlink:href="#DejaVuSans-34" transform="translate(63.623047 0)"/>
       <use xlink:href="#DejaVuSans-30" transform="translate(127.246094 0)"/>
       <use xlink:href="#DejaVuSans-30" transform="translate(190.869141 0)"/>
      </g>
     </g>
    </g>
    <g id="ytick_6">
     <g id="line2d_21">
      <path d="M 34.56 27.982019 
L 417.71 27.982019 
" clip-path="url(#p8e4cd5c795)" style="fill: none; stroke: #21262d; stroke-opacity: 0.5; stroke-width: 0.5; stroke-linecap: square"/>
     </g>
     <g id="line2d_22">
      <g>
       <use xlink:href="#m032a995347" x="34.56" y="27.982019" style="fill: #c9d1d9; stroke: #c9d1d9; stroke-width: 0.8"/>
      </g>
     </g>
     <g id="text_11">
      <!-- $500 -->
      <g style="fill: #c9d1d9" transform="translate(7.2 31.021394) scale(0.08 -0.08)">
       <defs>
        <path id="DejaVuSans-35" d="M 691 4666 
L 3169 4666 
L 3169 4134 
L 1269 4134 
L 1269 2991 
Q 1406 3038 1543 3061 
Q 1681 3084 1819 3084 
Q 2600 3084 3056 2656 
Q 3513 2228 3513 1497 
Q 3513 744 3044 326 
Q 2575 -91 1722 -91 
Q 1428 -91 1123 -41 
Q 819 9 494 109 
L 494 744 
Q 775 591 1075 516 
Q 1375 441 1709 441 
Q 2250 441 2565 725 
Q 2881 1009 2881 1497 
Q 2881 1984 2565 2268 
Q 2250 2553 1709 2553 
Q 1456 2553 1204 2497 
Q 953 2441 691 2322 
L 691 4666 
z
" transform="scale(0.015625)"/>
       </defs>
       <use xlink:href="#DejaVuSans-24"/>
       <use xlink:href="#DejaVuSans-35" transform="translate(63.623047 0)"/>
       <use xlink:href="#DejaVuSans-30" transform="translate(127.246094 0)"/>
       <use xlink:href="#DejaVuSans-30" transform="translate(190.869141 0)"/>
      </g>
     </g>
    </g>
   </g>
   <g id="line2d_23">
    <path d="M 51.975909 56.920966 
L 55.93407 61.167659 
L 59.892231 67.989099 
L 63.850393 65.970103 
L 67.808554 69.38434 
L 71.766715 68.303321 
L 75.724876 68.343185 
L 79.683037 70.786616 
L 83.641198 75.1998 
L 87.59936 72.803268 
L 91.557521 75.317047 
L 95.515682 73.068246 
L 99.473843 74.953581 
L 103.432004 73.97105 
L 107.390165 75.293598 
L 111.348326 74.196164 
L 115.306488 77.976213 
L 119.264649 73.166734 
L 123.22281 78.454581 
L 127.180971 76.032255 
L 131.139132 27.806149 
L 135.097293 33.947555 
L 139.055455 31.201627 
L 143.013616 30.378551 
L 146.971777 31.600267 
L 150.929938 30.739673 
L 154.888099 28.146165 
L 158.84626 29.977566 
L 162.804421 27.649037 
L 166.762583 91.213419 
L 170.720744 85.54569 
L 174.678905 88.04071 
L 178.637066 86.842444 
L 182.595227 88.010226 
L 186.553388 86.422699 
L 190.51155 87.888289 
L 194.469711 88.6715 
L 198.427872 86.844789 
L 202.386033 86.521187 
L 206.344194 87.473234 
L 210.302355 88.68088 
L 214.260517 86.361731 
L 218.218678 81.348242 
L 222.176839 85.320576 
L 226.135 81.810196 
L 230.093161 84.93366 
L 234.051322 83.826847 
L 238.009483 73.75297 
L 241.967645 80.220324 
L 245.925806 46.61494 
L 249.883967 27.447372 
L 253.842128 83.869056 
L 257.800289 68.054757 
L 261.75845 80.750281 
L 265.716612 72.836097 
L 269.674773 77.270385 
L 273.632934 77.509569 
L 277.591095 82.769277 
L 281.549256 78.696111 
L 285.507417 82.919354 
L 289.465579 83.812777 
L 293.42374 83.367238 
L 297.381901 84.795308 
L 301.340062 82.996737 
L 305.298223 89.473471 
L 309.256384 84.814068 
L 313.214545 86.5845 
L 317.172707 91.297837 
L 321.130868 84.488121 
L 325.089029 87.932843 
L 329.04719 89.318704 
L 333.005351 83.27813 
L 336.963512 86.373455 
L 340.921674 86.591535 
L 344.879835 86.244484 
L 348.837996 90.195713 
L 352.796157 88.237685 
L 356.754318 85.116566 
L 360.712479 85.634798 
L 364.67064 86.085027 
L 368.628802 83.514969 
L 372.586963 84.415428 
L 376.545124 86.401595 
L 380.503285 77.235211 
L 384.461446 85.416718 
L 388.419607 78.142704 
L 392.377769 84.797653 
L 396.33593 79.085371 
L 400.294091 82.729413 
" clip-path="url(#p8e4cd5c795)" style="fill: none; stroke: #f85149; stroke-width: 2; stroke-linecap: square"/>
   </g>
   <g id="patch_3">
    <path d="M 34.56 151.118281 
L 34.56 21.558281 
" style="fill: none; stroke: #21262d; stroke-width: 0.8; stroke-linejoin: miter; stroke-linecap: square"/>
   </g>
   <g id="patch_4">
    <path d="M 34.56 151.118281 
L 417.71 151.118281 
" style="fill: none; stroke: #21262d; stroke-width: 0.8; stroke-linejoin: miter; stroke-linecap: square"/>
   </g>
   <g id="text_12">
    <!-- MEMPALACE (milla-jovovich/mempalace) — $266.53 (-5.51%) -->
    <g style="fill: #c9d1d9" transform="translate(37.968828 15.558281) scale(0.11 -0.11)">
     <defs>
      <path id="DejaVuSans-Bold-4d" d="M 588 4666 
L 2119 4666 
L 3181 2169 
L 4250 4666 
L 5778 4666 
L 5778 0 
L 4641 0 
L 4641 3413 
L 3566 897 
L 2803 897 
L 1728 3413 
L 1728 0 
L 588 0 
L 588 4666 
z
" transform="scale(0.015625)"/>
      <path id="DejaVuSans-Bold-45" d="M 588 4666 
L 3834 4666 
L 3834 3756 
L 1791 3756 
L 1791 2888 
L 3713 2888 
L 3713 1978 
L 1791 1978 
L 1791 909 
L 3903 909 
L 3903 0 
L 588 0 
L 588 4666 
z
" transform="scale(0.015625)"/>
      <path id="DejaVuSans-Bold-50" d="M 588 4666 
L 2584 4666 
Q 3475 4666 3951 4270 
Q 4428 3875 4428 3144 
Q 4428 2409 3951 2014 
Q 3475 1619 2584 1619 
L 1791 1619 
L 1791 0 
L 588 0 
L 588 4666 
z
M 1791 3794 
L 1791 2491 
L 2456 2491 
Q 2806 2491 2997 2661 
Q 3188 2831 3188 3144 
Q 3188 3456 2997 3625 
Q 2806 3794 2456 3794 
L 1791 3794 
z
" transform="scale(0.015625)"/>
      <path id="DejaVuSans-Bold-41" d="M 3419 850 
L 1538 850 
L 1241 0 
L 31 0 
L 1759 4666 
L 3194 4666 
L 4922 0 
L 3713 0 
L 3419 850 
z
M 1838 1716 
L 3116 1716 
L 2478 3572 
L 1838 1716 
z
" transform="scale(0.015625)"/>
      <path id="DejaVuSans-Bold-4c" d="M 588 4666 
L 1791 4666 
L 1791 909 
L 3903 909 
L 3903 0 
L 588 0 
L 588 4666 
z
" transform="scale(0.015625)"/>
      <path id="DejaVuSans-Bold-43" d="M 4288 256 
Q 3956 84 3597 -3 
Q 3238 -91 2847 -91 
Q 1681 -91 1000 561 
Q 319 1213 319 2328 
Q 319 3447 1000 4098 
Q 1681 4750 2847 4750 
Q 3238 4750 3597 4662 
Q 3956 4575 4288 4403 
L 4288 3438 
Q 3953 3666 3628 3772 
Q 3303 3878 2944 3878 
Q 2300 3878 1931 3465 
Q 1563 3053 1563 2328 
Q 1563 1606 1931 1193 
Q 2300 781 2944 781 
Q 3303 781 3628 887 
Q 3953 994 4288 1222 
L 4288 256 
z
" transform="scale(0.015625)"/>
      <path id="DejaVuSans-Bold-20" transform="scale(0.015625)"/>
      <path id="DejaVuSans-Bold-28" d="M 2413 -844 
L 1484 -844 
Q 1006 -72 778 623 
Q 550 1319 550 2003 
Q 550 2688 779 3389 
Q 1009 4091 1484 4856 
L 2413 4856 
Q 2013 4116 1813 3408 
Q 1613 2700 1613 2009 
Q 1613 1319 1811 609 
Q 2009 -100 2413 -844 
z
" transform="scale(0.015625)"/>
      <path id="DejaVuSans-Bold-6d" d="M 3781 2919 
Q 3994 3244 4286 3414 
Q 4578 3584 4928 3584 
Q 5531 3584 5847 3212 
Q 6163 2841 6163 2131 
L 6163 0 
L 5038 0 
L 5038 1825 
Q 5041 1866 5042 1909 
Q 5044 1953 5044 2034 
Q 5044 2406 4934 2573 
Q 4825 2741 4581 2741 
Q 4263 2741 4089 2478 
Q 3916 2216 3909 1719 
L 3909 0 
L 2784 0 
L 2784 1825 
Q 2784 2406 2684 2573 
Q 2584 2741 2328 2741 
Q 2006 2741 1831 2477 
Q 1656 2213 1656 1722 
L 1656 0 
L 531 0 
L 531 3500 
L 1656 3500 
L 1656 2988 
Q 1863 3284 2130 3434 
Q 2397 3584 2719 3584 
Q 3081 3584 3359 3409 
Q 3638 3234 3781 2919 
z
" transform="scale(0.015625)"/>
      <path id="DejaVuSans-Bold-69" d="M 538 3500 
L 1656 3500 
L 1656 0 
L 538 0 
L 538 3500 
z
M 538 4863 
L 1656 4863 
L 1656 3950 
L 538 3950 
L 538 4863 
z
" transform="scale(0.015625)"/>
      <path id="DejaVuSans-Bold-6c" d="M 538 4863 
L 1656 4863 
L 1656 0 
L 538 0 
L 538 4863 
z
" transform="scale(0.015625)"/>
      <path id="DejaVuSans-Bold-61" d="M 2106 1575 
Q 1756 1575 1579 1456 
Q 1403 1338 1403 1106 
Q 1403 894 1545 773 
Q 1688 653 1941 653 
Q 2256 653 2472 879 
Q 2688 1106 2688 1447 
L 2688 1575 
L 2106 1575 
z
M 3816 1997 
L 3816 0 
L 2688 0 
L 2688 519 
Q 2463 200 2181 54 
Q 1900 -91 1497 -91 
Q 953 -91 614 226 
Q 275 544 275 1050 
Q 275 1666 698 1953 
Q 1122 2241 2028 2241 
L 2688 2241 
L 2688 2328 
Q 2688 2594 2478 2717 
Q 2269 2841 1825 2841 
Q 1466 2841 1156 2769 
Q 847 2697 581 2553 
L 581 3406 
Q 941 3494 1303 3539 
Q 1666 3584 2028 3584 
Q 2975 3584 3395 3211 
Q 3816 2838 3816 1997 
z
" transform="scale(0.015625)"/>
      <path id="DejaVuSans-Bold-2d" d="M 347 2297 
L 2309 2297 
L 2309 1388 
L 347 1388 
L 347 2297 
z
" transform="scale(0.015625)"/>
      <path id="DejaVuSans-Bold-6a" d="M 538 3500 
L 1656 3500 
L 1656 63 
Q 1656 -641 1318 -1011 
Q 981 -1381 341 -1381 
L -213 -1381 
L -213 -647 
L -19 -647 
Q 300 -647 419 -503 
Q 538 -359 538 63 
L 538 3500 
z
M 538 4863 
L 1656 4863 
L 1656 3950 
L 538 3950 
L 538 4863 
z
" transform="scale(0.015625)"/>
      <path id="DejaVuSans-Bold-6f" d="M 2203 2784 
Q 1831 2784 1636 2517 
Q 1441 2250 1441 1747 
Q 1441 1244 1636 976 
Q 1831 709 2203 709 
Q 2569 709 2762 976 
Q 2956 1244 2956 1747 
Q 2956 2250 2762 2517 
Q 2569 2784 2203 2784 
z
M 2203 3584 
Q 3106 3584 3614 3096 
Q 4122 2609 4122 1747 
Q 4122 884 3614 396 
Q 3106 -91 2203 -91 
Q 1297 -91 786 396 
Q 275 884 275 1747 
Q 275 2609 786 3096 
Q 1297 3584 2203 3584 
z
" transform="scale(0.015625)"/>
      <path id="DejaVuSans-Bold-76" d="M 97 3500 
L 1216 3500 
L 2088 1081 
L 2956 3500 
L 4078 3500 
L 2700 0 
L 1472 0 
L 97 3500 
z
" transform="scale(0.015625)"/>
      <path id="DejaVuSans-Bold-63" d="M 3366 3391 
L 3366 2478 
Q 3138 2634 2908 2709 
Q 2678 2784 2431 2784 
Q 1963 2784 1702 2511 
Q 1441 2238 1441 1747 
Q 1441 1256 1702 982 
Q 1963 709 2431 709 
Q 2694 709 2930 787 
Q 3166 866 3366 1019 
L 3366 103 
Q 3103 6 2833 -42 
Q 2563 -91 2291 -91 
Q 1344 -91 809 395 
Q 275 881 275 1747 
Q 275 2613 809 3098 
Q 1344 3584 2291 3584 
Q 2566 3584 2833 3536 
Q 3100 3488 3366 3391 
z
" transform="scale(0.015625)"/>
      <path id="DejaVuSans-Bold-68" d="M 4056 2131 
L 4056 0 
L 2931 0 
L 2931 347 
L 2931 1625 
Q 2931 2084 2911 2256 
Q 2891 2428 2841 2509 
Q 2775 2619 2662 2680 
Q 2550 2741 2406 2741 
Q 2056 2741 1856 2470 
Q 1656 2200 1656 1722 
L 1656 0 
L 538 0 
L 538 4863 
L 1656 4863 
L 1656 2988 
Q 1909 3294 2193 3439 
Q 2478 3584 2822 3584 
Q 3428 3584 3742 3212 
Q 4056 2841 4056 2131 
z
" transform="scale(0.015625)"/>
      <path id="DejaVuSans-Bold-2f" d="M 1644 4666 
L 2338 4666 
L 691 -594 
L 0 -594 
L 1644 4666 
z
" transform="scale(0.015625)"/>
      <path id="DejaVuSans-Bold-65" d="M 4031 1759 
L 4031 1441 
L 1416 1441 
Q 1456 1047 1700 850 
Q 1944 653 2381 653 
Q 2734 653 3104 758 
Q 3475 863 3866 1075 
L 3866 213 
Q 3469 63 3072 -14 
Q 2675 -91 2278 -91 
Q 1328 -91 801 392 
Q 275 875 275 1747 
Q 275 2603 792 3093 
Q 1309 3584 2216 3584 
Q 3041 3584 3536 3087 
Q 4031 2591 4031 1759 
z
M 2881 2131 
Q 2881 2450 2695 2645 
Q 2509 2841 2209 2841 
Q 1884 2841 1681 2658 
Q 1478 2475 1428 2131 
L 2881 2131 
z
" transform="scale(0.015625)"/>
      <path id="DejaVuSans-Bold-70" d="M 1656 506 
L 1656 -1331 
L 538 -1331 
L 538 3500 
L 1656 3500 
L 1656 2988 
Q 1888 3294 2169 3439 
Q 2450 3584 2816 3584 
Q 3463 3584 3878 3070 
Q 4294 2556 4294 1747 
Q 4294 938 3878 423 
Q 3463 -91 2816 -91 
Q 2450 -91 2169 54 
Q 1888 200 1656 506 
z
M 2400 2772 
Q 2041 2772 1848 2508 
Q 1656 2244 1656 1747 
Q 1656 1250 1848 986 
Q 2041 722 2400 722 
Q 2759 722 2948 984 
Q 3138 1247 3138 1747 
Q 3138 2247 2948 2509 
Q 2759 2772 2400 2772 
z
" transform="scale(0.015625)"/>
      <path id="DejaVuSans-Bold-29" d="M 513 -844 
Q 913 -100 1113 609 
Q 1313 1319 1313 2009 
Q 1313 2700 1113 3408 
Q 913 4116 513 4856 
L 1441 4856 
Q 1916 4091 2145 3389 
Q 2375 2688 2375 2003 
Q 2375 1319 2147 623 
Q 1919 -72 1441 -844 
L 513 -844 
z
" transform="scale(0.015625)"/>
      <path id="DejaVuSans-Bold-2014" d="M 344 2156 
L 6056 2156 
L 6056 1350 
L 344 1350 
L 344 2156 
z
" transform="scale(0.015625)"/>
      <path id="DejaVuSans-Bold-24" d="M 2484 -941 
L 1978 -941 
L 1975 0 
Q 1584 16 1218 87 
Q 853 159 506 288 
L 506 1106 
Q 866 922 1233 823 
Q 1600 725 1978 713 
L 1978 1684 
L 1875 1703 
Q 1128 1834 814 2115 
Q 500 2397 500 2925 
Q 500 3484 883 3798 
Q 1266 4113 1975 4141 
L 1978 4863 
L 2484 4863 
L 2484 4153 
Q 2797 4128 3109 4075 
Q 3422 4022 3738 3938 
L 3738 3144 
Q 3425 3275 3112 3348 
Q 2800 3422 2484 3438 
L 2484 2541 
L 2584 2522 
Q 3378 2397 3698 2105 
Q 4019 1813 4019 1241 
Q 4019 666 3637 358 
Q 3256 50 2484 6 
L 2484 -941 
z
M 1978 2613 
L 1978 3428 
Q 1756 3416 1623 3308 
Q 1491 3200 1491 3034 
Q 1491 2850 1612 2745 
Q 1734 2641 1978 2613 
z
M 2484 1594 
L 2484 725 
Q 2756 728 2892 831 
Q 3028 934 3028 1141 
Q 3028 1353 2903 1458 
Q 2778 1563 2484 1594 
z
" transform="scale(0.015625)"/>
      <path id="DejaVuSans-Bold-32" d="M 1844 884 
L 3897 884 
L 3897 0 
L 506 0 
L 506 884 
L 2209 2388 
Q 2438 2594 2547 2791 
Q 2656 2988 2656 3200 
Q 2656 3528 2436 3728 
Q 2216 3928 1850 3928 
Q 1569 3928 1234 3808 
Q 900 3688 519 3450 
L 519 4475 
Q 925 4609 1322 4679 
Q 1719 4750 2100 4750 
Q 2938 4750 3402 4381 
Q 3866 4013 3866 3353 
Q 3866 2972 3669 2642 
Q 3472 2313 2841 1759 
L 1844 884 
z
" transform="scale(0.015625)"/>
      <path id="DejaVuSans-Bold-36" d="M 2316 2303 
Q 2000 2303 1842 2098 
Q 1684 1894 1684 1484 
Q 1684 1075 1842 870 
Q 2000 666 2316 666 
Q 2634 666 2792 870 
Q 2950 1075 2950 1484 
Q 2950 1894 2792 2098 
Q 2634 2303 2316 2303 
z
M 3803 4544 
L 3803 3681 
Q 3506 3822 3243 3889 
Q 2981 3956 2731 3956 
Q 2194 3956 1894 3657 
Q 1594 3359 1544 2772 
Q 1750 2925 1990 3001 
Q 2231 3078 2516 3078 
Q 3231 3078 3670 2659 
Q 4109 2241 4109 1563 
Q 4109 813 3618 361 
Q 3128 -91 2303 -91 
Q 1394 -91 895 523 
Q 397 1138 397 2266 
Q 397 3422 980 4083 
Q 1563 4744 2578 4744 
Q 2900 4744 3203 4694 
Q 3506 4644 3803 4544 
z
" transform="scale(0.015625)"/>
      <path id="DejaVuSans-Bold-2e" d="M 653 1209 
L 1778 1209 
L 1778 0 
L 653 0 
L 653 1209 
z
" transform="scale(0.015625)"/>
      <path id="DejaVuSans-Bold-35" d="M 678 4666 
L 3669 4666 
L 3669 3781 
L 1638 3781 
L 1638 3059 
Q 1775 3097 1914 3117 
Q 2053 3138 2203 3138 
Q 3056 3138 3531 2711 
Q 4006 2284 4006 1522 
Q 4006 766 3489 337 
Q 2972 -91 2053 -91 
Q 1656 -91 1267 -14 
Q 878 63 494 219 
L 494 1166 
Q 875 947 1217 837 
Q 1559 728 1863 728 
Q 2300 728 2551 942 
Q 2803 1156 2803 1522 
Q 2803 1891 2551 2103 
Q 2300 2316 1863 2316 
Q 1603 2316 1309 2248 
Q 1016 2181 678 2041 
L 678 4666 
z
" transform="scale(0.015625)"/>
      <path id="DejaVuSans-Bold-33" d="M 2981 2516 
Q 3453 2394 3698 2092 
Q 3944 1791 3944 1325 
Q 3944 631 3412 270 
Q 2881 -91 1863 -91 
Q 1503 -91 1142 -33 
Q 781 25 428 141 
L 428 1069 
Q 766 900 1098 814 
Q 1431 728 1753 728 
Q 2231 728 2486 893 
Q 2741 1059 2741 1369 
Q 2741 1688 2480 1852 
Q 2219 2016 1709 2016 
L 1228 2016 
L 1228 2791 
L 1734 2791 
Q 2188 2791 2409 2933 
Q 2631 3075 2631 3366 
Q 2631 3634 2415 3781 
Q 2200 3928 1806 3928 
Q 1516 3928 1219 3862 
Q 922 3797 628 3669 
L 628 4550 
Q 984 4650 1334 4700 
Q 1684 4750 2022 4750 
Q 2931 4750 3382 4451 
Q 3834 4153 3834 3553 
Q 3834 3144 3618 2883 
Q 3403 2622 2981 2516 
z
" transform="scale(0.015625)"/>
      <path id="DejaVuSans-Bold-31" d="M 750 831 
L 1813 831 
L 1813 3847 
L 722 3622 
L 722 4441 
L 1806 4666 
L 2950 4666 
L 2950 831 
L 4013 831 
L 4013 0 
L 750 0 
L 750 831 
z
" transform="scale(0.015625)"/>
      <path id="DejaVuSans-Bold-25" d="M 4959 1925 
Q 4738 1925 4616 1733 
Q 4494 1541 4494 1184 
Q 4494 825 4614 633 
Q 4734 441 4959 441 
Q 5184 441 5303 633 
Q 5422 825 5422 1184 
Q 5422 1541 5301 1733 
Q 5181 1925 4959 1925 
z
M 4959 2450 
Q 5541 2450 5875 2112 
Q 6209 1775 6209 1184 
Q 6209 594 5875 251 
Q 5541 -91 4959 -91 
Q 4378 -91 4042 251 
Q 3706 594 3706 1184 
Q 3706 1772 4042 2111 
Q 4378 2450 4959 2450 
z
M 2094 -91 
L 1403 -91 
L 4319 4750 
L 5013 4750 
L 2094 -91 
z
M 1453 4750 
Q 2034 4750 2367 4411 
Q 2700 4072 2700 3481 
Q 2700 2891 2367 2550 
Q 2034 2209 1453 2209 
Q 872 2209 539 2550 
Q 206 2891 206 3481 
Q 206 4072 539 4411 
Q 872 4750 1453 4750 
z
M 1453 4225 
Q 1228 4225 1106 4031 
Q 984 3838 984 3481 
Q 984 3122 1106 2926 
Q 1228 2731 1453 2731 
Q 1678 2731 1798 2926 
Q 1919 3122 1919 3481 
Q 1919 3838 1797 4031 
Q 1675 4225 1453 4225 
z
" transform="scale(0.015625)"/>
     </defs>
     <use xlink:href="#DejaVuSans-Bold-4d"/>
     <use xlink:href="#DejaVuSans-Bold-45" transform="translate(99.511719 0)"/>
     <use xlink:href="#DejaVuSans-Bold-4d" transform="translate(167.822266 0)"/>
     <use xlink:href="#DejaVuSans-Bold-50" transform="translate(267.333984 0)"/>
     <use xlink:href="#DejaVuSans-Bold-41" transform="translate(331.5 0)"/>
     <use xlink:href="#DejaVuSans-Bold-4c" transform="translate(408.892578 0)"/>
     <use xlink:href="#DejaVuSans-Bold-41" transform="translate(472.613281 0)"/>
     <use xlink:href="#DejaVuSans-Bold-43" transform="translate(550.005859 0)"/>
     <use xlink:href="#DejaVuSans-Bold-45" transform="translate(623.394531 0)"/>
     <use xlink:href="#DejaVuSans-Bold-20" transform="translate(691.705078 0)"/>
     <use xlink:href="#DejaVuSans-Bold-28" transform="translate(726.519531 0)"/>
     <use xlink:href="#DejaVuSans-Bold-6d" transform="translate(772.222656 0)"/>
     <use xlink:href="#DejaVuSans-Bold-69" transform="translate(876.421875 0)"/>
     <use xlink:href="#DejaVuSans-Bold-6c" transform="translate(910.699219 0)"/>
     <use xlink:href="#DejaVuSans-Bold-6c" transform="translate(944.976562 0)"/>
     <use xlink:href="#DejaVuSans-Bold-61" transform="translate(979.253906 0)"/>
     <use xlink:href="#DejaVuSans-Bold-2d" transform="translate(1046.734375 0)"/>
     <use xlink:href="#DejaVuSans-Bold-6a" transform="translate(1088.238281 0)"/>
     <use xlink:href="#DejaVuSans-Bold-6f" transform="translate(1122.515625 0)"/>
     <use xlink:href="#DejaVuSans-Bold-76" transform="translate(1191.216797 0)"/>
     <use xlink:href="#DejaVuSans-Bold-6f" transform="translate(1256.402344 0)"/>
     <use xlink:href="#DejaVuSans-Bold-76" transform="translate(1325.103516 0)"/>
     <use xlink:href="#DejaVuSans-Bold-69" transform="translate(1390.289062 0)"/>
     <use xlink:href="#DejaVuSans-Bold-63" transform="translate(1424.566406 0)"/>
     <use xlink:href="#DejaVuSans-Bold-68" transform="translate(1483.84375 0)"/>
     <use xlink:href="#DejaVuSans-Bold-2f" transform="translate(1555.035156 0)"/>
     <use xlink:href="#DejaVuSans-Bold-6d" transform="translate(1591.558594 0)"/>
     <use xlink:href="#DejaVuSans-Bold-65" transform="translate(1695.757812 0)"/>
     <use xlink:href="#DejaVuSans-Bold-6d" transform="translate(1763.580078 0)"/>
     <use xlink:href="#DejaVuSans-Bold-70" transform="translate(1867.779297 0)"/>
     <use xlink:href="#DejaVuSans-Bold-61" transform="translate(1939.361328 0)"/>
     <use xlink:href="#DejaVuSans-Bold-6c" transform="translate(2006.841797 0)"/>
     <use xlink:href="#DejaVuSans-Bold-61" transform="translate(2041.119141 0)"/>
     <use xlink:href="#DejaVuSans-Bold-63" transform="translate(2108.599609 0)"/>
     <use xlink:href="#DejaVuSans-Bold-65" transform="translate(2167.876953 0)"/>
     <use xlink:href="#DejaVuSans-Bold-29" transform="translate(2235.699219 0)"/>
     <use xlink:href="#DejaVuSans-Bold-20" transform="translate(2281.402344 0)"/>
     <use xlink:href="#DejaVuSans-Bold-2014" transform="translate(2316.216797 0)"/>
     <use xlink:href="#DejaVuSans-Bold-20" transform="translate(2416.216797 0)"/>
     <use xlink:href="#DejaVuSans-Bold-24" transform="translate(2451.03125 0)"/>
     <use xlink:href="#DejaVuSans-Bold-32" transform="translate(2520.611328 0)"/>
     <use xlink:href="#DejaVuSans-Bold-36" transform="translate(2590.191406 0)"/>
     <use xlink:href="#DejaVuSans-Bold-36" transform="translate(2659.771484 0)"/>
     <use xlink:href="#DejaVuSans-Bold-2e" transform="translate(2729.351562 0)"/>
     <use xlink:href="#DejaVuSans-Bold-35" transform="translate(2767.339844 0)"/>
     <use xlink:href="#DejaVuSans-Bold-33" transform="translate(2836.919922 0)"/>
     <use xlink:href="#DejaVuSans-Bold-20" transform="translate(2906.5 0)"/>
     <use xlink:href="#DejaVuSans-Bold-28" transform="translate(2941.314453 0)"/>
     <use xlink:href="#DejaVuSans-Bold-2d" transform="translate(2987.017578 0)"/>
     <use xlink:href="#DejaVuSans-Bold-35" transform="translate(3028.521484 0)"/>
     <use xlink:href="#DejaVuSans-Bold-2e" transform="translate(3098.101562 0)"/>
     <use xlink:href="#DejaVuSans-Bold-35" transform="translate(3136.089844 0)"/>
     <use xlink:href="#DejaVuSans-Bold-31" transform="translate(3205.669922 0)"/>
     <use xlink:href="#DejaVuSans-Bold-25" transform="translate(3275.25 0)"/>
     <use xlink:href="#DejaVuSans-Bold-29" transform="translate(3375.445312 0)"/>
    </g>
   </g>
  </g>
 </g>
 <defs>
  <clipPath id="p8e4cd5c795">
   <rect x="34.56" y="21.558281" width="383.15" height="129.56"/>
  </clipPath>
 </defs>
</svg>
