<?xml version="1.0" encoding="utf-8" standalone="no"?>
<!DOCTYPE svg PUBLIC "-//W3C//DTD SVG 1.1//EN"
  "http://www.w3.org/Graphics/SVG/1.1/DTD/svg11.dtd">
<svg xmlns:xlink="http://www.w3.org/1999/xlink" width="424.265562pt" height="172.518281pt" viewBox="0 0 424.265562 172.518281" xmlns="http://www.w3.org/2000/svg" version="1.1">
 <metadata>
  <rdf:RDF xmlns:dc="http://purl.org/dc/elements/1.1/" xmlns:cc="http://creativecommons.org/ns#" xmlns:rdf="http://www.w3.org/1999/02/22-rdf-syntax-ns#">
   <cc:Work>
    <dc:type rdf:resource="http://purl.org/dc/dcmitype/StillImage"/>
    <dc:date>2026-06-29T00:44:25.110682</dc:date>
    <dc:format>image/svg+xml</dc:format>
    <dc:creator>
     <cc:Agent>
      <dc:title>Matplotlib v3.11.0, https://matplotlib.org/</dc:title>
     </cc:Agent>
    </dc:creator>
   </cc:Work>
  </rdf:RDF>
 </metadata>
 <defs>
  <style type="text/css">*{stroke-linejoin: round; stroke-linecap: butt}</style>
 </defs>
 <g id="figure_1">
  <g id="patch_1">
   <path d="M 0 172.518281 
L 424.265562 172.518281 
L 424.265562 0 
L 0 0 
z
" style="fill: #0d1117"/>
  </g>
  <g id="axes_1">
   <g id="patch_2">
    <path d="M 34.56 150.318281 
L 416.044873 150.318281 
L 416.044873 21.558281 
L 34.56 21.558281 
z
" style="fill: #0d1117"/>
   </g>
   <g id="FillBetweenPolyCollection_1">
    <defs>
     <path id="m7ae41e1f21" d="M 51.900222 -28.052727 
L 51.900222 -141.670077 
L 55.475525 -133.572186 
L 59.050828 -138.550287 
L 62.626132 -134.592222 
L 66.201435 -119.454455 
L 69.776739 -124.039191 
L 73.352042 -139.100997 
L 76.927345 -132.145221 
L 80.502649 -130.810493 
L 84.077952 -133.534206 
L 87.653256 -138.376663 
L 91.228559 -116.912504 
L 94.803862 -144.068247 
L 98.379166 -134.158164 
L 101.954469 -140.650041 
L 105.529773 -136.640432 
L 109.105076 -136.781501 
L 112.680379 -138.455336 
L 116.255683 -138.496029 
L 119.830986 -135.48204 
L 123.40629 -141.31198 
L 126.981593 -136.982253 
L 130.556896 -136.694689 
L 134.1322 -136.493938 
L 137.707503 -139.421115 
L 141.282807 -134.912339 
L 144.85811 -139.323452 
L 148.433413 -138.414644 
L 152.008717 -137.041936 
L 155.58402 -137.546528 
L 159.159324 -96.652855 
L 162.734627 -97.824811 
L 166.309931 -99.813338 
L 169.885234 -100.920186 
L 173.460537 -125.875798 
L 177.035841 -119.557544 
L 180.611144 -94.509694 
L 184.186448 -100.049357 
L 187.761751 -94.794544 
L 191.337054 -98.25073 
L 194.912358 -96.305608 
L 198.487661 -96.815626 
L 202.062965 -99.365716 
L 205.638268 -97.778692 
L 209.213571 -100.206703 
L 212.788875 -99.349439 
L 216.364178 -99.561042 
L 219.939482 -100.513256 
L 223.514785 -99.82419 
L 227.090088 -97.434159 
L 230.665392 -98.996767 
L 234.240695 -98.874688 
L 237.815999 -96.419548 
L 241.391302 -99.935417 
L 244.966605 -97.613207 
L 248.541909 -99.015757 
L 252.117212 -128.208859 
L 255.692516 -123.700083 
L 259.267819 -93.543915 
L 262.843123 -107.653508 
L 266.418426 -124.861188 
L 269.993729 -101.880539 
L 273.569033 -94.512407 
L 277.144336 -99.829615 
L 280.71964 -95.117375 
L 284.294943 -98.646808 
L 287.870246 -97.496554 
L 291.44555 -102.471942 
L 295.020853 -114.156237 
L 298.596157 -95.196048 
L 302.17146 -101.544144 
L 305.746763 -120.002453 
L 309.322067 -140.546953 
L 312.89737 -127.685277 
L 316.472674 -131.271679 
L 320.047977 -138.227456 
L 323.62328 -136.900867 
L 327.198584 -139.426541 
L 330.773887 -134.958458 
L 334.349191 -132.60912 
L 337.924494 -118.125153 
L 341.499797 -95.697927 
L 345.075101 -99.061875 
L 348.650404 -98.646808 
L 352.225708 -98.318551 
L 355.801011 -97.925187 
L 359.376314 -96.224222 
L 362.951618 -99.902863 
L 366.526921 -97.439584 
L 370.102225 -100.087337 
L 373.677528 -97.531822 
L 377.252832 -111.888284 
L 380.828135 -130.322178 
L 384.403438 -145.107273 
L 387.978742 -125.276256 
L 391.554045 -138.354961 
L 395.129349 -129.133945 
L 398.704652 -139.385848 
L 398.704652 -28.052727 
L 398.704652 -28.052727 
L 395.129349 -28.052727 
L 391.554045 -28.052727 
L 387.978742 -28.052727 
L 384.403438 -28.052727 
L 380.828135 -28.052727 
L 377.252832 -28.052727 
L 373.677528 -28.052727 
L 370.102225 -28.052727 
L 366.526921 -28.052727 
L 362.951618 -28.052727 
L 359.376314 -28.052727 
L 355.801011 -28.052727 
L 352.225708 -28.052727 
L 348.650404 -28.052727 
L 345.075101 -28.052727 
L 341.499797 -28.052727 
L 337.924494 -28.052727 
L 334.349191 -28.052727 
L 330.773887 -28.052727 
L 327.198584 -28.052727 
L 323.62328 -28.052727 
L 320.047977 -28.052727 
L 316.472674 -28.052727 
L 312.89737 -28.052727 
L 309.322067 -28.052727 
L 305.746763 -28.052727 
L 302.17146 -28.052727 
L 298.596157 -28.052727 
L 295.020853 -28.052727 
L 291.44555 -28.052727 
L 287.870246 -28.052727 
L 284.294943 -28.052727 
L 280.71964 -28.052727 
L 277.144336 -28.052727 
L 273.569033 -28.052727 
L 269.993729 -28.052727 
L 266.418426 -28.052727 
L 262.843123 -28.052727 
L 259.267819 -28.052727 
L 255.692516 -28.052727 
L 252.117212 -28.052727 
L 248.541909 -28.052727 
L 244.966605 -28.052727 
L 241.391302 -28.052727 
L 237.815999 -28.052727 
L 234.240695 -28.052727 
L 230.665392 -28.052727 
L 227.090088 -28.052727 
L 223.514785 -28.052727 
L 219.939482 -28.052727 
L 216.364178 -28.052727 
L 212.788875 -28.052727 
L 209.213571 -28.052727 
L 205.638268 -28.052727 
L 202.062965 -28.052727 
L 198.487661 -28.052727 
L 194.912358 -28.052727 
L 191.337054 -28.052727 
L 187.761751 -28.052727 
L 184.186448 -28.052727 
L 180.611144 -28.052727 
L 177.035841 -28.052727 
L 173.460537 -28.052727 
L 169.885234 -28.052727 
L 166.309931 -28.052727 
L 162.734627 -28.052727 
L 159.159324 -28.052727 
L 155.58402 -28.052727 
L 152.008717 -28.052727 
L 148.433413 -28.052727 
L 144.85811 -28.052727 
L 141.282807 -28.052727 
L 137.707503 -28.052727 
L 134.1322 -28.052727 
L 130.556896 -28.052727 
L 126.981593 -28.052727 
L 123.40629 -28.052727 
L 119.830986 -28.052727 
L 116.255683 -28.052727 
L 112.680379 -28.052727 
L 109.105076 -28.052727 
L 105.529773 -28.052727 
L 101.954469 -28.052727 
L 98.379166 -28.052727 
L 94.803862 -28.052727 
L 91.228559 -28.052727 
L 87.653256 -28.052727 
L 84.077952 -28.052727 
L 80.502649 -28.052727 
L 76.927345 -28.052727 
L 73.352042 -28.052727 
L 69.776739 -28.052727 
L 66.201435 -28.052727 
L 62.626132 -28.052727 
L 59.050828 -28.052727 
L 55.475525 -28.052727 
L 51.900222 -28.052727 
z
" style="stroke: #f85149; stroke-opacity: 0.15"/>
    </defs>
    <g clip-path="url(#pe7ba51861d)">
     <use xlink:href="#m7ae41e1f21" x="0" y="172.518281" style="fill: #f85149; fill-opacity: 0.15; stroke: #f85149; stroke-opacity: 0.15"/>
    </g>
   </g>
   <g id="matplotlib.axis_1">
    <g id="xtick_1">
     <g id="line2d_1">
      <path d="M 51.900222 150.318281 
L 51.900222 21.558281 
" clip-path="url(#pe7ba51861d)" style="fill: none; stroke: #21262d; stroke-opacity: 0.5; stroke-width: 0.5; stroke-linecap: square"/>
     </g>
     <g id="line2d_2">
      <defs>
       <path id="m0b329a4f0f" d="M 0 0 
L 0 3.5 
" style="stroke: #c9d1d9; stroke-width: 0.8"/>
      </defs>
      <g>
       <use xlink:href="#m0b329a4f0f" x="51.900222" y="150.318281" style="fill: #c9d1d9; stroke: #c9d1d9; stroke-width: 0.8"/>
      </g>
     </g>
     <g id="text_1">
      <!-- 0 -->
      <g style="fill: #c9d1d9" transform="translate(49.355222 163.396406) scale(0.08 -0.08)">
       <defs>
        <path id="DejaVuSans-13" d="M 2034 4250 
Q 1547 4250 1301 3770 
Q 1056 3291 1056 2328 
Q 1056 1369 1301 889 
Q 1547 409 2034 409 
Q 2525 409 2770 889 
Q 3016 1369 3016 2328 
Q 3016 3291 2770 3770 
Q 2525 4250 2034 4250 
z
M 2034 4750 
Q 2819 4750 3233 4129 
Q 3647 3509 3647 2328 
Q 3647 1150 3233 529 
Q 2819 -91 2034 -91 
Q 1250 -91 836 529 
Q 422 1150 422 2328 
Q 422 3509 836 4129 
Q 1250 4750 2034 4750 
z
" transform="scale(0.015625)"/>
       </defs>
       <use xlink:href="#DejaVuSans-13"/>
      </g>
     </g>
    </g>
    <g id="xtick_2">
     <g id="line2d_3">
      <path d="M 123.40629 150.318281 
L 123.40629 21.558281 
" clip-path="url(#pe7ba51861d)" style="fill: none; stroke: #21262d; stroke-opacity: 0.5; stroke-width: 0.5; stroke-linecap: square"/>
     </g>
     <g id="line2d_4">
      <g>
       <use xlink:href="#m0b329a4f0f" x="123.40629" y="150.318281" style="fill: #c9d1d9; stroke: #c9d1d9; stroke-width: 0.8"/>
      </g>
     </g>
     <g id="text_2">
      <!-- 20 -->
      <g style="fill: #c9d1d9" transform="translate(118.31629 163.396406) scale(0.08 -0.08)">
       <defs>
        <path id="DejaVuSans-15" d="M 1228 531 
L 3431 531 
L 3431 0 
L 469 0 
L 469 531 
Q 828 903 1448 1529 
Q 2069 2156 2228 2338 
Q 2531 2678 2651 2914 
Q 2772 3150 2772 3378 
Q 2772 3750 2511 3984 
Q 2250 4219 1831 4219 
Q 1534 4219 1204 4116 
Q 875 4013 500 3803 
L 500 4441 
Q 881 4594 1212 4672 
Q 1544 4750 1819 4750 
Q 2544 4750 2975 4387 
Q 3406 4025 3406 3419 
Q 3406 3131 3298 2873 
Q 3191 2616 2906 2266 
Q 2828 2175 2409 1742 
Q 1991 1309 1228 531 
z
" transform="scale(0.015625)"/>
       </defs>
       <use xlink:href="#DejaVuSans-15"/>
       <use xlink:href="#DejaVuSans-13" transform="translate(63.625 0)"/>
      </g>
     </g>
    </g>
    <g id="xtick_3">
     <g id="line2d_5">
      <path d="M 194.912358 150.318281 
L 194.912358 21.558281 
" clip-path="url(#pe7ba51861d)" style="fill: none; stroke: #21262d; stroke-opacity: 0.5; stroke-width: 0.5; stroke-linecap: square"/>
     </g>
     <g id="line2d_6">
      <g>
       <use xlink:href="#m0b329a4f0f" x="194.912358" y="150.318281" style="fill: #c9d1d9; stroke: #c9d1d9; stroke-width: 0.8"/>
      </g>
     </g>
     <g id="text_3">
      <!-- 40 -->
      <g style="fill: #c9d1d9" transform="translate(189.822358 163.396406) scale(0.08 -0.08)">
       <defs>
        <path id="DejaVuSans-17" d="M 2419 4116 
L 825 1625 
L 2419 1625 
L 2419 4116 
z
M 2253 4666 
L 3047 4666 
L 3047 1625 
L 3713 1625 
L 3713 1100 
L 3047 1100 
L 3047 0 
L 2419 0 
L 2419 1100 
L 313 1100 
L 313 1709 
L 2253 4666 
z
" transform="scale(0.015625)"/>
       </defs>
       <use xlink:href="#DejaVuSans-17"/>
       <use xlink:href="#DejaVuSans-13" transform="translate(63.625 0)"/>
      </g>
     </g>
    </g>
    <g id="xtick_4">
     <g id="line2d_7">
      <path d="M 266.418426 150.318281 
L 266.418426 21.558281 
" clip-path="url(#pe7ba51861d)" style="fill: none; stroke: #21262d; stroke-opacity: 0.5; stroke-width: 0.5; stroke-linecap: square"/>
     </g>
     <g id="line2d_8">
      <g>
       <use xlink:href="#m0b329a4f0f" x="266.418426" y="150.318281" style="fill: #c9d1d9; stroke: #c9d1d9; stroke-width: 0.8"/>
      </g>
     </g>
     <g id="text_4">
      <!-- 60 -->
      <g style="fill: #c9d1d9" transform="translate(261.328426 163.396406) scale(0.08 -0.08)">
       <defs>
        <path id="DejaVuSans-19" d="M 2113 2584 
Q 1688 2584 1439 2293 
Q 1191 2003 1191 1497 
Q 1191 994 1439 701 
Q 1688 409 2113 409 
Q 2538 409 2786 701 
Q 3034 994 3034 1497 
Q 3034 2003 2786 2293 
Q 2538 2584 2113 2584 
z
M 3366 4563 
L 3366 3988 
Q 3128 4100 2886 4159 
Q 2644 4219 2406 4219 
Q 1781 4219 1451 3797 
Q 1122 3375 1075 2522 
Q 1259 2794 1537 2939 
Q 1816 3084 2150 3084 
Q 2853 3084 3261 2657 
Q 3669 2231 3669 1497 
Q 3669 778 3244 343 
Q 2819 -91 2113 -91 
Q 1303 -91 875 529 
Q 447 1150 447 2328 
Q 447 3434 972 4092 
Q 1497 4750 2381 4750 
Q 2619 4750 2861 4703 
Q 3103 4656 3366 4563 
z
" transform="scale(0.015625)"/>
       </defs>
       <use xlink:href="#DejaVuSans-19"/>
       <use xlink:href="#DejaVuSans-13" transform="translate(63.625 0)"/>
      </g>
     </g>
    </g>
    <g id="xtick_5">
     <g id="line2d_9">
      <path d="M 337.924494 150.318281 
L 337.924494 21.558281 
" clip-path="url(#pe7ba51861d)" style="fill: none; stroke: #21262d; stroke-opacity: 0.5; stroke-width: 0.5; stroke-linecap: square"/>
     </g>
     <g id="line2d_10">
      <g>
       <use xlink:href="#m0b329a4f0f" x="337.924494" y="150.318281" style="fill: #c9d1d9; stroke: #c9d1d9; stroke-width: 0.8"/>
      </g>
     </g>
     <g id="text_5">
      <!-- 80 -->
      <g style="fill: #c9d1d9" transform="translate(332.834494 163.396406) scale(0.08 -0.08)">
       <defs>
        <path id="DejaVuSans-1b" d="M 2034 2216 
Q 1584 2216 1326 1975 
Q 1069 1734 1069 1313 
Q 1069 891 1326 650 
Q 1584 409 2034 409 
Q 2484 409 2743 651 
Q 3003 894 3003 1313 
Q 3003 1734 2745 1975 
Q 2488 2216 2034 2216 
z
M 1403 2484 
Q 997 2584 770 2862 
Q 544 3141 544 3541 
Q 544 4100 942 4425 
Q 1341 4750 2034 4750 
Q 2731 4750 3128 4425 
Q 3525 4100 3525 3541 
Q 3525 3141 3298 2862 
Q 3072 2584 2669 2484 
Q 3125 2378 3379 2068 
Q 3634 1759 3634 1313 
Q 3634 634 3220 271 
Q 2806 -91 2034 -91 
Q 1263 -91 848 271 
Q 434 634 434 1313 
Q 434 1759 690 2068 
Q 947 2378 1403 2484 
z
M 1172 3481 
Q 1172 3119 1398 2916 
Q 1625 2713 2034 2713 
Q 2441 2713 2670 2916 
Q 2900 3119 2900 3481 
Q 2900 3844 2670 4047 
Q 2441 4250 2034 4250 
Q 1625 4250 1398 4047 
Q 1172 3844 1172 3481 
z
" transform="scale(0.015625)"/>
       </defs>
       <use xlink:href="#DejaVuSans-1b"/>
       <use xlink:href="#DejaVuSans-13" transform="translate(63.625 0)"/>
      </g>
     </g>
    </g>
    <g id="xtick_6">
     <g id="line2d_11">
      <path d="M 409.430562 150.318281 
L 409.430562 21.558281 
" clip-path="url(#pe7ba51861d)" style="fill: none; stroke: #21262d; stroke-opacity: 0.5; stroke-width: 0.5; stroke-linecap: square"/>
     </g>
     <g id="line2d_12">
      <g>
       <use xlink:href="#m0b329a4f0f" x="409.430562" y="150.318281" style="fill: #c9d1d9; stroke: #c9d1d9; stroke-width: 0.8"/>
      </g>
     </g>
     <g id="text_6">
      <!-- 100 -->
      <g style="fill: #c9d1d9" transform="translate(401.795562 163.396406) scale(0.08 -0.08)">
       <defs>
        <path id="DejaVuSans-14" d="M 794 531 
L 1825 531 
L 1825 4091 
L 703 3866 
L 703 4441 
L 1819 4666 
L 2450 4666 
L 2450 531 
L 3481 531 
L 3481 0 
L 794 0 
L 794 531 
z
" transform="scale(0.015625)"/>
       </defs>
       <use xlink:href="#DejaVuSans-14"/>
       <use xlink:href="#DejaVuSans-13" transform="translate(63.625 0)"/>
       <use xlink:href="#DejaVuSans-13" transform="translate(127.25 0)"/>
      </g>
     </g>
    </g>
   </g>
   <g id="matplotlib.axis_2">
    <g id="ytick_1">
     <g id="line2d_13">
      <path d="M 34.56 144.465554 
L 416.044873 144.465554 
" clip-path="url(#pe7ba51861d)" style="fill: none; stroke: #21262d; stroke-opacity: 0.5; stroke-width: 0.5; stroke-linecap: square"/>
     </g>
     <g id="line2d_14">
      <defs>
       <path id="mf239134db7" d="M 0 0 
L -3.5 0 
" style="stroke: #c9d1d9; stroke-width: 0.8"/>
      </defs>
      <g>
       <use xlink:href="#mf239134db7" x="34.56" y="144.465554" style="fill: #c9d1d9; stroke: #c9d1d9; stroke-width: 0.8"/>
      </g>
     </g>
     <g id="text_7">
      <!-- $0 -->
      <g style="fill: #c9d1d9" transform="translate(17.38 147.504929) scale(0.08 -0.08)">
       <defs>
        <path id="DejaVuSans-7" d="M 2163 -941 
L 1850 -941 
L 1847 0 
Q 1519 6 1191 76 
Q 863 147 531 288 
L 531 850 
Q 850 650 1176 548 
Q 1503 447 1850 444 
L 1850 1869 
Q 1159 1981 845 2250 
Q 531 2519 531 2988 
Q 531 3497 872 3790 
Q 1213 4084 1850 4128 
L 1850 4863 
L 2163 4863 
L 2163 4138 
Q 2453 4125 2725 4076 
Q 2997 4028 3256 3944 
L 3256 3397 
Q 2997 3528 2723 3600 
Q 2450 3672 2163 3684 
L 2163 2350 
Q 2872 2241 3206 1959 
Q 3541 1678 3541 1191 
Q 3541 663 3186 358 
Q 2831 53 2163 6 
L 2163 -941 
z
M 1850 2406 
L 1850 3688 
Q 1488 3647 1297 3481 
Q 1106 3316 1106 3041 
Q 1106 2772 1282 2622 
Q 1459 2472 1850 2406 
z
M 2163 1806 
L 2163 453 
Q 2559 506 2761 678 
Q 2963 850 2963 1131 
Q 2963 1406 2770 1568 
Q 2578 1731 2163 1806 
z
" transform="scale(0.015625)"/>
       </defs>
       <use xlink:href="#DejaVuSans-7"/>
       <use xlink:href="#DejaVuSans-13" transform="translate(63.625 0)"/>
      </g>
     </g>
    </g>
    <g id="ytick_2">
     <g id="line2d_15">
      <path d="M 34.56 117.33694 
L 416.044873 117.33694 
" clip-path="url(#pe7ba51861d)" style="fill: none; stroke: #21262d; stroke-opacity: 0.5; stroke-width: 0.5; stroke-linecap: square"/>
     </g>
     <g id="line2d_16">
      <g>
       <use xlink:href="#mf239134db7" x="34.56" y="117.33694" style="fill: #c9d1d9; stroke: #c9d1d9; stroke-width: 0.8"/>
      </g>
     </g>
     <g id="text_8">
      <!-- $100 -->
      <g style="fill: #c9d1d9" transform="translate(7.2 120.376315) scale(0.08 -0.08)">
       <use xlink:href="#DejaVuSans-7"/>
       <use xlink:href="#DejaVuSans-14" transform="translate(63.625 0)"/>
       <use xlink:href="#DejaVuSans-13" transform="translate(127.25 0)"/>
       <use xlink:href="#DejaVuSans-13" transform="translate(190.875 0)"/>
      </g>
     </g>
    </g>
    <g id="ytick_3">
     <g id="line2d_17">
      <path d="M 34.56 90.208325 
L 416.044873 90.208325 
" clip-path="url(#pe7ba51861d)" style="fill: none; stroke: #21262d; stroke-opacity: 0.5; stroke-width: 0.5; stroke-linecap: square"/>
     </g>
     <g id="line2d_18">
      <g>
       <use xlink:href="#mf239134db7" x="34.56" y="90.208325" style="fill: #c9d1d9; stroke: #c9d1d9; stroke-width: 0.8"/>
      </g>
     </g>
     <g id="text_9">
      <!-- $200 -->
      <g style="fill: #c9d1d9" transform="translate(7.2 93.2477) scale(0.08 -0.08)">
       <use xlink:href="#DejaVuSans-7"/>
       <use xlink:href="#DejaVuSans-15" transform="translate(63.625 0)"/>
       <use xlink:href="#DejaVuSans-13" transform="translate(127.25 0)"/>
       <use xlink:href="#DejaVuSans-13" transform="translate(190.875 0)"/>
      </g>
     </g>
    </g>
    <g id="ytick_4">
     <g id="line2d_19">
      <path d="M 34.56 63.079711 
L 416.044873 63.079711 
" clip-path="url(#pe7ba51861d)" style="fill: none; stroke: #21262d; stroke-opacity: 0.5; stroke-width: 0.5; stroke-linecap: square"/>
     </g>
     <g id="line2d_20">
      <g>
       <use xlink:href="#mf239134db7" x="34.56" y="63.079711" style="fill: #c9d1d9; stroke: #c9d1d9; stroke-width: 0.8"/>
      </g>
     </g>
     <g id="text_10">
      <!-- $300 -->
      <g style="fill: #c9d1d9" transform="translate(7.2 66.119086) scale(0.08 -0.08)">
       <defs>
        <path id="DejaVuSans-16" d="M 2597 2516 
Q 3050 2419 3304 2112 
Q 3559 1806 3559 1356 
Q 3559 666 3084 287 
Q 2609 -91 1734 -91 
Q 1441 -91 1130 -33 
Q 819 25 488 141 
L 488 750 
Q 750 597 1062 519 
Q 1375 441 1716 441 
Q 2309 441 2620 675 
Q 2931 909 2931 1356 
Q 2931 1769 2642 2001 
Q 2353 2234 1838 2234 
L 1294 2234 
L 1294 2753 
L 1863 2753 
Q 2328 2753 2575 2939 
Q 2822 3125 2822 3475 
Q 2822 3834 2567 4026 
Q 2313 4219 1838 4219 
Q 1578 4219 1281 4162 
Q 984 4106 628 3988 
L 628 4550 
Q 988 4650 1302 4700 
Q 1616 4750 1894 4750 
Q 2613 4750 3031 4423 
Q 3450 4097 3450 3541 
Q 3450 3153 3228 2886 
Q 3006 2619 2597 2516 
z
" transform="scale(0.015625)"/>
       </defs>
       <use xlink:href="#DejaVuSans-7"/>
       <use xlink:href="#DejaVuSans-16" transform="translate(63.625 0)"/>
       <use xlink:href="#DejaVuSans-13" transform="translate(127.25 0)"/>
       <use xlink:href="#DejaVuSans-13" transform="translate(190.875 0)"/>
      </g>
     </g>
    </g>
    <g id="ytick_5">
     <g id="line2d_21">
      <path d="M 34.56 35.951096 
L 416.044873 35.951096 
" clip-path="url(#pe7ba51861d)" style="fill: none; stroke: #21262d; stroke-opacity: 0.5; stroke-width: 0.5; stroke-linecap: square"/>
     </g>
     <g id="line2d_22">
      <g>
       <use xlink:href="#mf239134db7" x="34.56" y="35.951096" style="fill: #c9d1d9; stroke: #c9d1d9; stroke-width: 0.8"/>
      </g>
     </g>
     <g id="text_11">
      <!-- $400 -->
      <g style="fill: #c9d1d9" transform="translate(7.2 38.990471) scale(0.08 -0.08)">
       <use xlink:href="#DejaVuSans-7"/>
       <use xlink:href="#DejaVuSans-17" transform="translate(63.625 0)"/>
       <use xlink:href="#DejaVuSans-13" transform="translate(127.25 0)"/>
       <use xlink:href="#DejaVuSans-13" transform="translate(190.875 0)"/>
      </g>
     </g>
    </g>
   </g>
   <g id="line2d_23">
    <path d="M 51.900222 30.848204 
L 55.475525 38.946095 
L 59.050828 33.967995 
L 62.626132 37.926059 
L 66.201435 53.063826 
L 69.776739 48.47909 
L 73.352042 33.417284 
L 76.927345 40.37306 
L 80.502649 41.707788 
L 84.077952 38.984075 
L 87.653256 34.141618 
L 91.228559 55.605777 
L 94.803862 28.450034 
L 98.379166 38.360117 
L 101.954469 31.86824 
L 105.529773 35.877849 
L 109.105076 35.73678 
L 112.680379 34.062945 
L 116.255683 34.022252 
L 119.830986 37.036241 
L 123.40629 31.206302 
L 126.981593 35.536029 
L 130.556896 35.823592 
L 134.1322 36.024344 
L 137.707503 33.097166 
L 141.282807 37.605942 
L 144.85811 33.194829 
L 148.433413 34.103638 
L 152.008717 35.476346 
L 155.58402 34.971753 
L 159.159324 75.865427 
L 162.734627 74.693471 
L 166.309931 72.704943 
L 169.885234 71.598096 
L 173.460537 46.642483 
L 177.035841 52.960738 
L 180.611144 78.008587 
L 184.186448 72.468924 
L 187.761751 77.723737 
L 191.337054 74.267551 
L 194.912358 76.212673 
L 198.487661 75.702655 
L 202.062965 73.152565 
L 205.638268 74.739589 
L 209.213571 72.311578 
L 212.788875 73.168842 
L 216.364178 72.957239 
L 219.939482 72.005025 
L 223.514785 72.694092 
L 227.090088 75.084123 
L 230.665392 73.521514 
L 234.240695 73.643593 
L 237.815999 76.098733 
L 241.391302 72.582864 
L 244.966605 74.905074 
L 248.541909 73.502524 
L 252.117212 44.309422 
L 255.692516 48.818198 
L 259.267819 78.974366 
L 262.843123 64.864774 
L 266.418426 47.657093 
L 269.993729 70.637743 
L 273.569033 78.005874 
L 277.144336 72.688666 
L 280.71964 77.400906 
L 284.294943 73.871474 
L 287.870246 75.021727 
L 291.44555 70.046339 
L 295.020853 58.362045 
L 298.596157 77.322233 
L 302.17146 70.974138 
L 305.746763 52.515828 
L 309.322067 31.971329 
L 312.89737 44.833005 
L 316.472674 41.246602 
L 320.047977 34.290825 
L 323.62328 35.617414 
L 327.198584 33.09174 
L 330.773887 37.559823 
L 334.349191 39.909161 
L 337.924494 54.393128 
L 341.499797 76.820354 
L 345.075101 73.456406 
L 348.650404 73.871474 
L 352.225708 74.19973 
L 355.801011 74.593095 
L 359.376314 76.294059 
L 362.951618 72.615419 
L 366.526921 75.078697 
L 370.102225 72.430944 
L 373.677528 74.98646 
L 377.252832 60.629997 
L 380.828135 42.196103 
L 384.403438 27.411009 
L 387.978742 47.242026 
L 391.554045 34.163321 
L 395.129349 43.384337 
L 398.704652 33.132433 
" clip-path="url(#pe7ba51861d)" style="fill: none; stroke: #f85149; stroke-width: 2; stroke-linecap: square"/>
   </g>
   <g id="patch_3">
    <path d="M 34.56 150.318281 
L 34.56 21.558281 
" style="fill: none; stroke: #21262d; stroke-width: 0.8; stroke-linejoin: miter; stroke-linecap: square"/>
   </g>
   <g id="patch_4">
    <path d="M 34.56 150.318281 
L 416.044873 150.318281 
" style="fill: none; stroke: #21262d; stroke-width: 0.8; stroke-linejoin: miter; stroke-linecap: square"/>
   </g>
   <g id="text_12">
    <!-- SVELTE (sveltejs/svelte) — $410.39 (+10.14%) -->
    <g style="fill: #c9d1d9" transform="translate(82.608374 15.558281) scale(0.11 -0.11)">
     <defs>
      <path id="DejaVuSans-Bold-36" d="M 3834 4519 
L 3834 3531 
Q 3450 3703 3084 3790 
Q 2719 3878 2394 3878 
Q 1963 3878 1756 3759 
Q 1550 3641 1550 3391 
Q 1550 3203 1689 3098 
Q 1828 2994 2194 2919 
L 2706 2816 
Q 3484 2659 3812 2340 
Q 4141 2022 4141 1434 
Q 4141 663 3683 286 
Q 3225 -91 2284 -91 
Q 1841 -91 1394 -6 
Q 947 78 500 244 
L 500 1259 
Q 947 1022 1364 901 
Q 1781 781 2169 781 
Q 2563 781 2772 912 
Q 2981 1044 2981 1288 
Q 2981 1506 2839 1625 
Q 2697 1744 2272 1838 
L 1806 1941 
Q 1106 2091 782 2419 
Q 459 2747 459 3303 
Q 459 4000 909 4375 
Q 1359 4750 2203 4750 
Q 2588 4750 2994 4692 
Q 3400 4634 3834 4519 
z
" transform="scale(0.015625)"/>
      <path id="DejaVuSans-Bold-39" d="M 31 4666 
L 1241 4666 
L 2478 1222 
L 3713 4666 
L 4922 4666 
L 3194 0 
L 1759 0 
L 31 4666 
z
" transform="scale(0.015625)"/>
      <path id="DejaVuSans-Bold-28" d="M 588 4666 
L 3834 4666 
L 3834 3756 
L 1791 3756 
L 1791 2888 
L 3713 2888 
L 3713 1978 
L 1791 1978 
L 1791 909 
L 3903 909 
L 3903 0 
L 588 0 
L 588 4666 
z
" transform="scale(0.015625)"/>
      <path id="DejaVuSans-Bold-2f" d="M 588 4666 
L 1791 4666 
L 1791 909 
L 3903 909 
L 3903 0 
L 588 0 
L 588 4666 
z
" transform="scale(0.015625)"/>
      <path id="DejaVuSans-Bold-37" d="M 31 4666 
L 4331 4666 
L 4331 3756 
L 2784 3756 
L 2784 0 
L 1581 0 
L 1581 3756 
L 31 3756 
L 31 4666 
z
" transform="scale(0.015625)"/>
      <path id="DejaVuSans-Bold-3" transform="scale(0.015625)"/>
      <path id="DejaVuSans-Bold-b" d="M 2413 -844 
L 1484 -844 
Q 1006 -72 778 623 
Q 550 1319 550 2003 
Q 550 2688 779 3389 
Q 1009 4091 1484 4856 
L 2413 4856 
Q 2013 4116 1813 3408 
Q 1613 2700 1613 2009 
Q 1613 1319 1811 609 
Q 2009 -100 2413 -844 
z
" transform="scale(0.015625)"/>
      <path id="DejaVuSans-Bold-56" d="M 3272 3391 
L 3272 2541 
Q 2913 2691 2578 2766 
Q 2244 2841 1947 2841 
Q 1628 2841 1473 2761 
Q 1319 2681 1319 2516 
Q 1319 2381 1436 2309 
Q 1553 2238 1856 2203 
L 2053 2175 
Q 2913 2066 3209 1816 
Q 3506 1566 3506 1031 
Q 3506 472 3093 190 
Q 2681 -91 1863 -91 
Q 1516 -91 1145 -36 
Q 775 19 384 128 
L 384 978 
Q 719 816 1070 734 
Q 1422 653 1784 653 
Q 2113 653 2278 743 
Q 2444 834 2444 1013 
Q 2444 1163 2330 1236 
Q 2216 1309 1875 1350 
L 1678 1375 
Q 931 1469 631 1722 
Q 331 1975 331 2491 
Q 331 3047 712 3315 
Q 1094 3584 1881 3584 
Q 2191 3584 2531 3537 
Q 2872 3491 3272 3391 
z
" transform="scale(0.015625)"/>
      <path id="DejaVuSans-Bold-59" d="M 97 3500 
L 1216 3500 
L 2088 1081 
L 2956 3500 
L 4078 3500 
L 2700 0 
L 1472 0 
L 97 3500 
z
" transform="scale(0.015625)"/>
      <path id="DejaVuSans-Bold-48" d="M 4031 1759 
L 4031 1441 
L 1416 1441 
Q 1456 1047 1700 850 
Q 1944 653 2381 653 
Q 2734 653 3104 758 
Q 3475 863 3866 1075 
L 3866 213 
Q 3469 63 3072 -14 
Q 2675 -91 2278 -91 
Q 1328 -91 801 392 
Q 275 875 275 1747 
Q 275 2603 792 3093 
Q 1309 3584 2216 3584 
Q 3041 3584 3536 3087 
Q 4031 2591 4031 1759 
z
M 2881 2131 
Q 2881 2450 2695 2645 
Q 2509 2841 2209 2841 
Q 1884 2841 1681 2658 
Q 1478 2475 1428 2131 
L 2881 2131 
z
" transform="scale(0.015625)"/>
      <path id="DejaVuSans-Bold-4f" d="M 538 4863 
L 1656 4863 
L 1656 0 
L 538 0 
L 538 4863 
z
" transform="scale(0.015625)"/>
      <path id="DejaVuSans-Bold-57" d="M 1759 4494 
L 1759 3500 
L 2913 3500 
L 2913 2700 
L 1759 2700 
L 1759 1216 
Q 1759 972 1856 886 
Q 1953 800 2241 800 
L 2816 800 
L 2816 0 
L 1856 0 
Q 1194 0 917 276 
Q 641 553 641 1216 
L 641 2700 
L 84 2700 
L 84 3500 
L 641 3500 
L 641 4494 
L 1759 4494 
z
" transform="scale(0.015625)"/>
      <path id="DejaVuSans-Bold-4d" d="M 538 3500 
L 1656 3500 
L 1656 63 
Q 1656 -641 1318 -1011 
Q 981 -1381 341 -1381 
L -213 -1381 
L -213 -647 
L -19 -647 
Q 300 -647 419 -503 
Q 538 -359 538 63 
L 538 3500 
z
M 538 4863 
L 1656 4863 
L 1656 3950 
L 538 3950 
L 538 4863 
z
" transform="scale(0.015625)"/>
      <path id="DejaVuSans-Bold-12" d="M 1644 4666 
L 2338 4666 
L 691 -594 
L 0 -594 
L 1644 4666 
z
" transform="scale(0.015625)"/>
      <path id="DejaVuSans-Bold-c" d="M 513 -844 
Q 913 -100 1113 609 
Q 1313 1319 1313 2009 
Q 1313 2700 1113 3408 
Q 913 4116 513 4856 
L 1441 4856 
Q 1916 4091 2145 3389 
Q 2375 2688 2375 2003 
Q 2375 1319 2147 623 
Q 1919 -72 1441 -844 
L 513 -844 
z
" transform="scale(0.015625)"/>
      <path id="DejaVuSans-Bold-af6" d="M 344 2156 
L 6056 2156 
L 6056 1350 
L 344 1350 
L 344 2156 
z
" transform="scale(0.015625)"/>
      <path id="DejaVuSans-Bold-7" d="M 2484 -941 
L 1978 -941 
L 1975 0 
Q 1584 16 1218 87 
Q 853 159 506 288 
L 506 1106 
Q 866 922 1233 823 
Q 1600 725 1978 713 
L 1978 1684 
L 1875 1703 
Q 1128 1834 814 2115 
Q 500 2397 500 2925 
Q 500 3484 883 3798 
Q 1266 4113 1975 4141 
L 1978 4863 
L 2484 4863 
L 2484 4153 
Q 2797 4128 3109 4075 
Q 3422 4022 3738 3938 
L 3738 3144 
Q 3425 3275 3112 3348 
Q 2800 3422 2484 3438 
L 2484 2541 
L 2584 2522 
Q 3378 2397 3698 2105 
Q 4019 1813 4019 1241 
Q 4019 666 3637 358 
Q 3256 50 2484 6 
L 2484 -941 
z
M 1978 2613 
L 1978 3428 
Q 1756 3416 1623 3308 
Q 1491 3200 1491 3034 
Q 1491 2850 1612 2745 
Q 1734 2641 1978 2613 
z
M 2484 1594 
L 2484 725 
Q 2756 728 2892 831 
Q 3028 934 3028 1141 
Q 3028 1353 2903 1458 
Q 2778 1563 2484 1594 
z
" transform="scale(0.015625)"/>
      <path id="DejaVuSans-Bold-17" d="M 2356 3675 
L 1038 1722 
L 2356 1722 
L 2356 3675 
z
M 2156 4666 
L 3494 4666 
L 3494 1722 
L 4159 1722 
L 4159 850 
L 3494 850 
L 3494 0 
L 2356 0 
L 2356 850 
L 288 850 
L 288 1881 
L 2156 4666 
z
" transform="scale(0.015625)"/>
      <path id="DejaVuSans-Bold-14" d="M 750 831 
L 1813 831 
L 1813 3847 
L 722 3622 
L 722 4441 
L 1806 4666 
L 2950 4666 
L 2950 831 
L 4013 831 
L 4013 0 
L 750 0 
L 750 831 
z
" transform="scale(0.015625)"/>
      <path id="DejaVuSans-Bold-13" d="M 2944 2338 
Q 2944 3213 2780 3570 
Q 2616 3928 2228 3928 
Q 1841 3928 1675 3570 
Q 1509 3213 1509 2338 
Q 1509 1453 1675 1090 
Q 1841 728 2228 728 
Q 2613 728 2778 1090 
Q 2944 1453 2944 2338 
z
M 4147 2328 
Q 4147 1169 3647 539 
Q 3147 -91 2228 -91 
Q 1306 -91 806 539 
Q 306 1169 306 2328 
Q 306 3491 806 4120 
Q 1306 4750 2228 4750 
Q 3147 4750 3647 4120 
Q 4147 3491 4147 2328 
z
" transform="scale(0.015625)"/>
      <path id="DejaVuSans-Bold-11" d="M 653 1209 
L 1778 1209 
L 1778 0 
L 653 0 
L 653 1209 
z
" transform="scale(0.015625)"/>
      <path id="DejaVuSans-Bold-16" d="M 2981 2516 
Q 3453 2394 3698 2092 
Q 3944 1791 3944 1325 
Q 3944 631 3412 270 
Q 2881 -91 1863 -91 
Q 1503 -91 1142 -33 
Q 781 25 428 141 
L 428 1069 
Q 766 900 1098 814 
Q 1431 728 1753 728 
Q 2231 728 2486 893 
Q 2741 1059 2741 1369 
Q 2741 1688 2480 1852 
Q 2219 2016 1709 2016 
L 1228 2016 
L 1228 2791 
L 1734 2791 
Q 2188 2791 2409 2933 
Q 2631 3075 2631 3366 
Q 2631 3634 2415 3781 
Q 2200 3928 1806 3928 
Q 1516 3928 1219 3862 
Q 922 3797 628 3669 
L 628 4550 
Q 984 4650 1334 4700 
Q 1684 4750 2022 4750 
Q 2931 4750 3382 4451 
Q 3834 4153 3834 3553 
Q 3834 3144 3618 2883 
Q 3403 2622 2981 2516 
z
" transform="scale(0.015625)"/>
      <path id="DejaVuSans-Bold-1c" d="M 641 103 
L 641 966 
Q 928 831 1190 764 
Q 1453 697 1709 697 
Q 2247 697 2547 995 
Q 2847 1294 2900 1881 
Q 2688 1725 2447 1647 
Q 2206 1569 1925 1569 
Q 1209 1569 770 1986 
Q 331 2403 331 3084 
Q 331 3838 820 4291 
Q 1309 4744 2131 4744 
Q 3044 4744 3544 4128 
Q 4044 3513 4044 2388 
Q 4044 1231 3459 570 
Q 2875 -91 1856 -91 
Q 1528 -91 1228 -42 
Q 928 6 641 103 
z
M 2125 2350 
Q 2441 2350 2600 2554 
Q 2759 2759 2759 3169 
Q 2759 3575 2600 3781 
Q 2441 3988 2125 3988 
Q 1809 3988 1650 3781 
Q 1491 3575 1491 3169 
Q 1491 2759 1650 2554 
Q 1809 2350 2125 2350 
z
" transform="scale(0.015625)"/>
      <path id="DejaVuSans-Bold-e" d="M 3053 4013 
L 3053 2375 
L 4684 2375 
L 4684 1638 
L 3053 1638 
L 3053 0 
L 2309 0 
L 2309 1638 
L 678 1638 
L 678 2375 
L 2309 2375 
L 2309 4013 
L 3053 4013 
z
" transform="scale(0.015625)"/>
      <path id="DejaVuSans-Bold-8" d="M 4959 1925 
Q 4738 1925 4616 1733 
Q 4494 1541 4494 1184 
Q 4494 825 4614 633 
Q 4734 441 4959 441 
Q 5184 441 5303 633 
Q 5422 825 5422 1184 
Q 5422 1541 5301 1733 
Q 5181 1925 4959 1925 
z
M 4959 2450 
Q 5541 2450 5875 2112 
Q 6209 1775 6209 1184 
Q 6209 594 5875 251 
Q 5541 -91 4959 -91 
Q 4378 -91 4042 251 
Q 3706 594 3706 1184 
Q 3706 1772 4042 2111 
Q 4378 2450 4959 2450 
z
M 2094 -91 
L 1403 -91 
L 4319 4750 
L 5013 4750 
L 2094 -91 
z
M 1453 4750 
Q 2034 4750 2367 4411 
Q 2700 4072 2700 3481 
Q 2700 2891 2367 2550 
Q 2034 2209 1453 2209 
Q 872 2209 539 2550 
Q 206 2891 206 3481 
Q 206 4072 539 4411 
Q 872 4750 1453 4750 
z
M 1453 4225 
Q 1228 4225 1106 4031 
Q 984 3838 984 3481 
Q 984 3122 1106 2926 
Q 1228 2731 1453 2731 
Q 1678 2731 1798 2926 
Q 1919 3122 1919 3481 
Q 1919 3838 1797 4031 
Q 1675 4225 1453 4225 
z
" transform="scale(0.015625)"/>
     </defs>
     <use xlink:href="#DejaVuSans-Bold-36"/>
     <use xlink:href="#DejaVuSans-Bold-39" transform="translate(72.015625 0)"/>
     <use xlink:href="#DejaVuSans-Bold-28" transform="translate(149.40625 0)"/>
     <use xlink:href="#DejaVuSans-Bold-2f" transform="translate(217.71875 0)"/>
     <use xlink:href="#DejaVuSans-Bold-37" transform="translate(264.890625 0)"/>
     <use xlink:href="#DejaVuSans-Bold-28" transform="translate(333.109375 0)"/>
     <use xlink:href="#DejaVuSans-Bold-3" transform="translate(401.421875 0)"/>
     <use xlink:href="#DejaVuSans-Bold-b" transform="translate(436.234375 0)"/>
     <use xlink:href="#DejaVuSans-Bold-56" transform="translate(481.9375 0)"/>
     <use xlink:href="#DejaVuSans-Bold-59" transform="translate(541.453125 0)"/>
     <use xlink:href="#DejaVuSans-Bold-48" transform="translate(606.640625 0)"/>
     <use xlink:href="#DejaVuSans-Bold-4f" transform="translate(674.46875 0)"/>
     <use xlink:href="#DejaVuSans-Bold-57" transform="translate(708.75 0)"/>
     <use xlink:href="#DejaVuSans-Bold-48" transform="translate(756.546875 0)"/>
     <use xlink:href="#DejaVuSans-Bold-4d" transform="translate(824.375 0)"/>
     <use xlink:href="#DejaVuSans-Bold-56" transform="translate(858.65625 0)"/>
     <use xlink:href="#DejaVuSans-Bold-12" transform="translate(918.171875 0)"/>
     <use xlink:href="#DejaVuSans-Bold-56" transform="translate(954.703125 0)"/>
     <use xlink:href="#DejaVuSans-Bold-59" transform="translate(1014.21875 0)"/>
     <use xlink:href="#DejaVuSans-Bold-48" transform="translate(1079.40625 0)"/>
     <use xlink:href="#DejaVuSans-Bold-4f" transform="translate(1147.234375 0)"/>
     <use xlink:href="#DejaVuSans-Bold-57" transform="translate(1181.515625 0)"/>
     <use xlink:href="#DejaVuSans-Bold-48" transform="translate(1229.3125 0)"/>
     <use xlink:href="#DejaVuSans-Bold-c" transform="translate(1297.140625 0)"/>
     <use xlink:href="#DejaVuSans-Bold-3" transform="translate(1342.84375 0)"/>
     <use xlink:href="#DejaVuSans-Bold-af6" transform="translate(1377.65625 0)"/>
     <use xlink:href="#DejaVuSans-Bold-3" transform="translate(1477.65625 0)"/>
     <use xlink:href="#DejaVuSans-Bold-7" transform="translate(1512.46875 0)"/>
     <use xlink:href="#DejaVuSans-Bold-17" transform="translate(1582.046875 0)"/>
     <use xlink:href="#DejaVuSans-Bold-14" transform="translate(1651.625 0)"/>
     <use xlink:href="#DejaVuSans-Bold-13" transform="translate(1721.203125 0)"/>
     <use xlink:href="#DejaVuSans-Bold-11" transform="translate(1790.78125 0)"/>
     <use xlink:href="#DejaVuSans-Bold-16" transform="translate(1828.765625 0)"/>
     <use xlink:href="#DejaVuSans-Bold-1c" transform="translate(1898.34375 0)"/>
     <use xlink:href="#DejaVuSans-Bold-3" transform="translate(1967.921875 0)"/>
     <use xlink:href="#DejaVuSans-Bold-b" transform="translate(2002.734375 0)"/>
     <use xlink:href="#DejaVuSans-Bold-e" transform="translate(2048.4375 0)"/>
     <use xlink:href="#DejaVuSans-Bold-14" transform="translate(2132.234375 0)"/>
     <use xlink:href="#DejaVuSans-Bold-13" transform="translate(2201.8125 0)"/>
     <use xlink:href="#DejaVuSans-Bold-11" transform="translate(2271.390625 0)"/>
     <use xlink:href="#DejaVuSans-Bold-14" transform="translate(2309.375 0)"/>
     <use xlink:href="#DejaVuSans-Bold-17" transform="translate(2378.953125 0)"/>
     <use xlink:href="#DejaVuSans-Bold-8" transform="translate(2448.53125 0)"/>
     <use xlink:href="#DejaVuSans-Bold-c" transform="translate(2548.734375 0)"/>
    </g>
   </g>
  </g>
 </g>
 <defs>
  <clipPath id="pe7ba51861d">
   <rect x="34.56" y="21.558281" width="381.484873" height="128.76"/>
  </clipPath>
 </defs>
</svg>
