<?xml version="1.0" encoding="utf-8" standalone="no"?>
<!DOCTYPE svg PUBLIC "-//W3C//DTD SVG 1.1//EN"
  "http://www.w3.org/Graphics/SVG/1.1/DTD/svg11.dtd">
<svg xmlns:xlink="http://www.w3.org/1999/xlink" width="459.107656pt" height="172.518281pt" viewBox="0 0 459.107656 172.518281" xmlns="http://www.w3.org/2000/svg" version="1.1">
 <metadata>
  <rdf:RDF xmlns:dc="http://purl.org/dc/elements/1.1/" xmlns:cc="http://creativecommons.org/ns#" xmlns:rdf="http://www.w3.org/1999/02/22-rdf-syntax-ns#">
   <cc:Work>
    <dc:type rdf:resource="http://purl.org/dc/dcmitype/StillImage"/>
    <dc:date>2026-06-27T07:07:28.765918</dc:date>
    <dc:format>image/svg+xml</dc:format>
    <dc:creator>
     <cc:Agent>
      <dc:title>Matplotlib v3.11.0, https://matplotlib.org/</dc:title>
     </cc:Agent>
    </dc:creator>
   </cc:Work>
  </rdf:RDF>
 </metadata>
 <defs>
  <style type="text/css">*{stroke-linejoin: round; stroke-linecap: butt}</style>
 </defs>
 <g id="figure_1">
  <g id="patch_1">
   <path d="M 0 172.518281 
L 459.107656 172.518281 
L 459.107656 0 
L 0 0 
z
" style="fill: #0d1117"/>
  </g>
  <g id="axes_1">
   <g id="patch_2">
    <path d="M 37.933828 150.318281 
L 421.173828 150.318281 
L 421.173828 21.558281 
L 37.933828 21.558281 
z
" style="fill: #0d1117"/>
   </g>
   <g id="FillBetweenPolyCollection_1">
    <defs>
     <path id="m41aef502e5" d="M 55.353828 -28.052727 
L 55.353828 -121.777734 
L 59.140785 -110.684615 
L 62.927741 -130.666649 
L 66.714698 -124.285788 
L 70.501654 -124.120988 
L 74.288611 -124.950139 
L 78.075567 -116.292975 
L 81.862524 -123.255786 
L 85.64948 -125.006789 
L 89.436437 -124.728689 
L 93.223393 -125.34154 
L 97.01035 -126.237641 
L 100.797306 -123.250636 
L 104.584263 -125.70719 
L 108.371219 -126.217041 
L 112.158176 -124.471188 
L 115.945132 -123.904687 
L 119.732089 -122.570835 
L 123.519046 -128.210095 
L 127.306002 -126.361241 
L 131.092959 -122.452385 
L 134.879915 -123.786237 
L 138.666872 -126.072841 
L 142.453828 -123.054936 
L 146.240785 -124.924389 
L 150.027741 -120.994932 
L 153.814698 -124.445438 
L 157.601654 -125.063439 
L 161.388611 -128.065894 
L 165.175567 -127.102843 
L 168.962524 -122.303035 
L 172.74948 -127.231593 
L 176.536437 -124.816239 
L 180.323393 -128.457295 
L 184.11035 -121.916784 
L 187.897306 -129.991997 
L 191.684263 -122.076434 
L 195.471219 -125.089189 
L 199.258176 -124.007687 
L 203.045132 -128.354295 
L 206.832089 -128.848696 
L 210.619046 -130.506998 
L 214.406002 -131.65545 
L 218.192959 -133.947204 
L 221.979915 -140.832766 
L 225.766872 -135.775457 
L 229.553828 -131.4443 
L 233.340785 -132.984152 
L 237.127741 -131.990201 
L 240.914698 -133.303453 
L 244.701654 -132.355851 
L 248.488611 -129.894147 
L 252.275567 -133.071703 
L 256.062524 -127.020443 
L 259.84948 -129.095896 
L 263.636437 -126.788692 
L 267.423393 -127.257343 
L 271.21035 -128.606645 
L 274.997306 -126.330341 
L 278.784263 -128.390345 
L 282.571219 -126.124341 
L 286.358176 -129.307046 
L 290.145132 -126.448792 
L 293.932089 -127.406693 
L 297.719046 -123.353636 
L 301.506002 -127.216143 
L 305.292959 -122.400885 
L 309.079915 -130.110448 
L 312.866872 -135.584907 
L 316.653828 -132.968702 
L 320.440785 -130.785099 
L 324.227741 -130.161948 
L 328.014698 -142.578619 
L 331.801654 -145.107273 
L 335.588611 -136.032958 
L 339.375567 -133.669104 
L 343.162524 -129.626347 
L 346.94948 -133.993554 
L 350.736437 -133.205603 
L 354.523393 -131.3001 
L 358.31035 -125.31064 
L 362.097306 -131.866601 
L 365.884263 -126.052241 
L 369.671219 -118.069728 
L 373.458176 -121.813784 
L 377.245132 -119.949481 
L 381.032089 -121.571733 
L 384.819046 -122.926186 
L 388.606002 -118.466278 
L 392.392959 -123.065236 
L 396.179915 -121.273033 
L 399.966872 -122.313335 
L 403.753828 -121.561433 
L 403.753828 -28.052727 
L 403.753828 -28.052727 
L 399.966872 -28.052727 
L 396.179915 -28.052727 
L 392.392959 -28.052727 
L 388.606002 -28.052727 
L 384.819046 -28.052727 
L 381.032089 -28.052727 
L 377.245132 -28.052727 
L 373.458176 -28.052727 
L 369.671219 -28.052727 
L 365.884263 -28.052727 
L 362.097306 -28.052727 
L 358.31035 -28.052727 
L 354.523393 -28.052727 
L 350.736437 -28.052727 
L 346.94948 -28.052727 
L 343.162524 -28.052727 
L 339.375567 -28.052727 
L 335.588611 -28.052727 
L 331.801654 -28.052727 
L 328.014698 -28.052727 
L 324.227741 -28.052727 
L 320.440785 -28.052727 
L 316.653828 -28.052727 
L 312.866872 -28.052727 
L 309.079915 -28.052727 
L 305.292959 -28.052727 
L 301.506002 -28.052727 
L 297.719046 -28.052727 
L 293.932089 -28.052727 
L 290.145132 -28.052727 
L 286.358176 -28.052727 
L 282.571219 -28.052727 
L 278.784263 -28.052727 
L 274.997306 -28.052727 
L 271.21035 -28.052727 
L 267.423393 -28.052727 
L 263.636437 -28.052727 
L 259.84948 -28.052727 
L 256.062524 -28.052727 
L 252.275567 -28.052727 
L 248.488611 -28.052727 
L 244.701654 -28.052727 
L 240.914698 -28.052727 
L 237.127741 -28.052727 
L 233.340785 -28.052727 
L 229.553828 -28.052727 
L 225.766872 -28.052727 
L 221.979915 -28.052727 
L 218.192959 -28.052727 
L 214.406002 -28.052727 
L 210.619046 -28.052727 
L 206.832089 -28.052727 
L 203.045132 -28.052727 
L 199.258176 -28.052727 
L 195.471219 -28.052727 
L 191.684263 -28.052727 
L 187.897306 -28.052727 
L 184.11035 -28.052727 
L 180.323393 -28.052727 
L 176.536437 -28.052727 
L 172.74948 -28.052727 
L 168.962524 -28.052727 
L 165.175567 -28.052727 
L 161.388611 -28.052727 
L 157.601654 -28.052727 
L 153.814698 -28.052727 
L 150.027741 -28.052727 
L 146.240785 -28.052727 
L 142.453828 -28.052727 
L 138.666872 -28.052727 
L 134.879915 -28.052727 
L 131.092959 -28.052727 
L 127.306002 -28.052727 
L 123.519046 -28.052727 
L 119.732089 -28.052727 
L 115.945132 -28.052727 
L 112.158176 -28.052727 
L 108.371219 -28.052727 
L 104.584263 -28.052727 
L 100.797306 -28.052727 
L 97.01035 -28.052727 
L 93.223393 -28.052727 
L 89.436437 -28.052727 
L 85.64948 -28.052727 
L 81.862524 -28.052727 
L 78.075567 -28.052727 
L 74.288611 -28.052727 
L 70.501654 -28.052727 
L 66.714698 -28.052727 
L 62.927741 -28.052727 
L 59.140785 -28.052727 
L 55.353828 -28.052727 
z
" style="stroke: #f85149; stroke-opacity: 0.15"/>
    </defs>
    <g clip-path="url(#p6902dbb995)">
     <use xlink:href="#m41aef502e5" x="0" y="172.518281" style="fill: #f85149; fill-opacity: 0.15; stroke: #f85149; stroke-opacity: 0.15"/>
    </g>
   </g>
   <g id="matplotlib.axis_1">
    <g id="xtick_1">
     <g id="line2d_1">
      <path d="M 55.353828 150.318281 
L 55.353828 21.558281 
" clip-path="url(#p6902dbb995)" style="fill: none; stroke: #21262d; stroke-opacity: 0.5; stroke-width: 0.5; stroke-linecap: square"/>
     </g>
     <g id="line2d_2">
      <defs>
       <path id="mbe7c2ff214" d="M 0 0 
L 0 3.5 
" style="stroke: #c9d1d9; stroke-width: 0.8"/>
      </defs>
      <g>
       <use xlink:href="#mbe7c2ff214" x="55.353828" y="150.318281" style="fill: #c9d1d9; stroke: #c9d1d9; stroke-width: 0.8"/>
      </g>
     </g>
     <g id="text_1">
      <!-- 0 -->
      <g style="fill: #c9d1d9" transform="translate(52.808828 163.396406) scale(0.08 -0.08)">
       <defs>
        <path id="DejaVuSans-13" d="M 2034 4250 
Q 1547 4250 1301 3770 
Q 1056 3291 1056 2328 
Q 1056 1369 1301 889 
Q 1547 409 2034 409 
Q 2525 409 2770 889 
Q 3016 1369 3016 2328 
Q 3016 3291 2770 3770 
Q 2525 4250 2034 4250 
z
M 2034 4750 
Q 2819 4750 3233 4129 
Q 3647 3509 3647 2328 
Q 3647 1150 3233 529 
Q 2819 -91 2034 -91 
Q 1250 -91 836 529 
Q 422 1150 422 2328 
Q 422 3509 836 4129 
Q 1250 4750 2034 4750 
z
" transform="scale(0.015625)"/>
       </defs>
       <use xlink:href="#DejaVuSans-13"/>
      </g>
     </g>
    </g>
    <g id="xtick_2">
     <g id="line2d_3">
      <path d="M 131.092959 150.318281 
L 131.092959 21.558281 
" clip-path="url(#p6902dbb995)" style="fill: none; stroke: #21262d; stroke-opacity: 0.5; stroke-width: 0.5; stroke-linecap: square"/>
     </g>
     <g id="line2d_4">
      <g>
       <use xlink:href="#mbe7c2ff214" x="131.092959" y="150.318281" style="fill: #c9d1d9; stroke: #c9d1d9; stroke-width: 0.8"/>
      </g>
     </g>
     <g id="text_2">
      <!-- 20 -->
      <g style="fill: #c9d1d9" transform="translate(126.002959 163.396406) scale(0.08 -0.08)">
       <defs>
        <path id="DejaVuSans-15" d="M 1228 531 
L 3431 531 
L 3431 0 
L 469 0 
L 469 531 
Q 828 903 1448 1529 
Q 2069 2156 2228 2338 
Q 2531 2678 2651 2914 
Q 2772 3150 2772 3378 
Q 2772 3750 2511 3984 
Q 2250 4219 1831 4219 
Q 1534 4219 1204 4116 
Q 875 4013 500 3803 
L 500 4441 
Q 881 4594 1212 4672 
Q 1544 4750 1819 4750 
Q 2544 4750 2975 4387 
Q 3406 4025 3406 3419 
Q 3406 3131 3298 2873 
Q 3191 2616 2906 2266 
Q 2828 2175 2409 1742 
Q 1991 1309 1228 531 
z
" transform="scale(0.015625)"/>
       </defs>
       <use xlink:href="#DejaVuSans-15"/>
       <use xlink:href="#DejaVuSans-13" transform="translate(63.625 0)"/>
      </g>
     </g>
    </g>
    <g id="xtick_3">
     <g id="line2d_5">
      <path d="M 206.832089 150.318281 
L 206.832089 21.558281 
" clip-path="url(#p6902dbb995)" style="fill: none; stroke: #21262d; stroke-opacity: 0.5; stroke-width: 0.5; stroke-linecap: square"/>
     </g>
     <g id="line2d_6">
      <g>
       <use xlink:href="#mbe7c2ff214" x="206.832089" y="150.318281" style="fill: #c9d1d9; stroke: #c9d1d9; stroke-width: 0.8"/>
      </g>
     </g>
     <g id="text_3">
      <!-- 40 -->
      <g style="fill: #c9d1d9" transform="translate(201.742089 163.396406) scale(0.08 -0.08)">
       <defs>
        <path id="DejaVuSans-17" d="M 2419 4116 
L 825 1625 
L 2419 1625 
L 2419 4116 
z
M 2253 4666 
L 3047 4666 
L 3047 1625 
L 3713 1625 
L 3713 1100 
L 3047 1100 
L 3047 0 
L 2419 0 
L 2419 1100 
L 313 1100 
L 313 1709 
L 2253 4666 
z
" transform="scale(0.015625)"/>
       </defs>
       <use xlink:href="#DejaVuSans-17"/>
       <use xlink:href="#DejaVuSans-13" transform="translate(63.625 0)"/>
      </g>
     </g>
    </g>
    <g id="xtick_4">
     <g id="line2d_7">
      <path d="M 282.571219 150.318281 
L 282.571219 21.558281 
" clip-path="url(#p6902dbb995)" style="fill: none; stroke: #21262d; stroke-opacity: 0.5; stroke-width: 0.5; stroke-linecap: square"/>
     </g>
     <g id="line2d_8">
      <g>
       <use xlink:href="#mbe7c2ff214" x="282.571219" y="150.318281" style="fill: #c9d1d9; stroke: #c9d1d9; stroke-width: 0.8"/>
      </g>
     </g>
     <g id="text_4">
      <!-- 60 -->
      <g style="fill: #c9d1d9" transform="translate(277.481219 163.396406) scale(0.08 -0.08)">
       <defs>
        <path id="DejaVuSans-19" d="M 2113 2584 
Q 1688 2584 1439 2293 
Q 1191 2003 1191 1497 
Q 1191 994 1439 701 
Q 1688 409 2113 409 
Q 2538 409 2786 701 
Q 3034 994 3034 1497 
Q 3034 2003 2786 2293 
Q 2538 2584 2113 2584 
z
M 3366 4563 
L 3366 3988 
Q 3128 4100 2886 4159 
Q 2644 4219 2406 4219 
Q 1781 4219 1451 3797 
Q 1122 3375 1075 2522 
Q 1259 2794 1537 2939 
Q 1816 3084 2150 3084 
Q 2853 3084 3261 2657 
Q 3669 2231 3669 1497 
Q 3669 778 3244 343 
Q 2819 -91 2113 -91 
Q 1303 -91 875 529 
Q 447 1150 447 2328 
Q 447 3434 972 4092 
Q 1497 4750 2381 4750 
Q 2619 4750 2861 4703 
Q 3103 4656 3366 4563 
z
" transform="scale(0.015625)"/>
       </defs>
       <use xlink:href="#DejaVuSans-19"/>
       <use xlink:href="#DejaVuSans-13" transform="translate(63.625 0)"/>
      </g>
     </g>
    </g>
    <g id="xtick_5">
     <g id="line2d_9">
      <path d="M 358.31035 150.318281 
L 358.31035 21.558281 
" clip-path="url(#p6902dbb995)" style="fill: none; stroke: #21262d; stroke-opacity: 0.5; stroke-width: 0.5; stroke-linecap: square"/>
     </g>
     <g id="line2d_10">
      <g>
       <use xlink:href="#mbe7c2ff214" x="358.31035" y="150.318281" style="fill: #c9d1d9; stroke: #c9d1d9; stroke-width: 0.8"/>
      </g>
     </g>
     <g id="text_5">
      <!-- 80 -->
      <g style="fill: #c9d1d9" transform="translate(353.22035 163.396406) scale(0.08 -0.08)">
       <defs>
        <path id="DejaVuSans-1b" d="M 2034 2216 
Q 1584 2216 1326 1975 
Q 1069 1734 1069 1313 
Q 1069 891 1326 650 
Q 1584 409 2034 409 
Q 2484 409 2743 651 
Q 3003 894 3003 1313 
Q 3003 1734 2745 1975 
Q 2488 2216 2034 2216 
z
M 1403 2484 
Q 997 2584 770 2862 
Q 544 3141 544 3541 
Q 544 4100 942 4425 
Q 1341 4750 2034 4750 
Q 2731 4750 3128 4425 
Q 3525 4100 3525 3541 
Q 3525 3141 3298 2862 
Q 3072 2584 2669 2484 
Q 3125 2378 3379 2068 
Q 3634 1759 3634 1313 
Q 3634 634 3220 271 
Q 2806 -91 2034 -91 
Q 1263 -91 848 271 
Q 434 634 434 1313 
Q 434 1759 690 2068 
Q 947 2378 1403 2484 
z
M 1172 3481 
Q 1172 3119 1398 2916 
Q 1625 2713 2034 2713 
Q 2441 2713 2670 2916 
Q 2900 3119 2900 3481 
Q 2900 3844 2670 4047 
Q 2441 4250 2034 4250 
Q 1625 4250 1398 4047 
Q 1172 3844 1172 3481 
z
" transform="scale(0.015625)"/>
       </defs>
       <use xlink:href="#DejaVuSans-1b"/>
       <use xlink:href="#DejaVuSans-13" transform="translate(63.625 0)"/>
      </g>
     </g>
    </g>
   </g>
   <g id="matplotlib.axis_2">
    <g id="ytick_1">
     <g id="line2d_11">
      <path d="M 37.933828 144.465554 
L 421.173828 144.465554 
" clip-path="url(#p6902dbb995)" style="fill: none; stroke: #21262d; stroke-opacity: 0.5; stroke-width: 0.5; stroke-linecap: square"/>
     </g>
     <g id="line2d_12">
      <defs>
       <path id="m024c775372" d="M 0 0 
L -3.5 0 
" style="stroke: #c9d1d9; stroke-width: 0.8"/>
      </defs>
      <g>
       <use xlink:href="#m024c775372" x="37.933828" y="144.465554" style="fill: #c9d1d9; stroke: #c9d1d9; stroke-width: 0.8"/>
      </g>
     </g>
     <g id="text_6">
      <!-- $0 -->
      <g style="fill: #c9d1d9" transform="translate(20.753828 147.504929) scale(0.08 -0.08)">
       <defs>
        <path id="DejaVuSans-7" d="M 2163 -941 
L 1850 -941 
L 1847 0 
Q 1519 6 1191 76 
Q 863 147 531 288 
L 531 850 
Q 850 650 1176 548 
Q 1503 447 1850 444 
L 1850 1869 
Q 1159 1981 845 2250 
Q 531 2519 531 2988 
Q 531 3497 872 3790 
Q 1213 4084 1850 4128 
L 1850 4863 
L 2163 4863 
L 2163 4138 
Q 2453 4125 2725 4076 
Q 2997 4028 3256 3944 
L 3256 3397 
Q 2997 3528 2723 3600 
Q 2450 3672 2163 3684 
L 2163 2350 
Q 2872 2241 3206 1959 
Q 3541 1678 3541 1191 
Q 3541 663 3186 358 
Q 2831 53 2163 6 
L 2163 -941 
z
M 1850 2406 
L 1850 3688 
Q 1488 3647 1297 3481 
Q 1106 3316 1106 3041 
Q 1106 2772 1282 2622 
Q 1459 2472 1850 2406 
z
M 2163 1806 
L 2163 453 
Q 2559 506 2761 678 
Q 2963 850 2963 1131 
Q 2963 1406 2770 1568 
Q 2578 1731 2163 1806 
z
" transform="scale(0.015625)"/>
       </defs>
       <use xlink:href="#DejaVuSans-7"/>
       <use xlink:href="#DejaVuSans-13" transform="translate(63.625 0)"/>
      </g>
     </g>
    </g>
    <g id="ytick_2">
     <g id="line2d_13">
      <path d="M 37.933828 118.715511 
L 421.173828 118.715511 
" clip-path="url(#p6902dbb995)" style="fill: none; stroke: #21262d; stroke-opacity: 0.5; stroke-width: 0.5; stroke-linecap: square"/>
     </g>
     <g id="line2d_14">
      <g>
       <use xlink:href="#m024c775372" x="37.933828" y="118.715511" style="fill: #c9d1d9; stroke: #c9d1d9; stroke-width: 0.8"/>
      </g>
     </g>
     <g id="text_7">
      <!-- $50 -->
      <g style="fill: #c9d1d9" transform="translate(15.663828 121.754886) scale(0.08 -0.08)">
       <defs>
        <path id="DejaVuSans-18" d="M 691 4666 
L 3169 4666 
L 3169 4134 
L 1269 4134 
L 1269 2991 
Q 1406 3038 1543 3061 
Q 1681 3084 1819 3084 
Q 2600 3084 3056 2656 
Q 3513 2228 3513 1497 
Q 3513 744 3044 326 
Q 2575 -91 1722 -91 
Q 1428 -91 1123 -41 
Q 819 9 494 109 
L 494 744 
Q 775 591 1075 516 
Q 1375 441 1709 441 
Q 2250 441 2565 725 
Q 2881 1009 2881 1497 
Q 2881 1984 2565 2268 
Q 2250 2553 1709 2553 
Q 1456 2553 1204 2497 
Q 953 2441 691 2322 
L 691 4666 
z
" transform="scale(0.015625)"/>
       </defs>
       <use xlink:href="#DejaVuSans-7"/>
       <use xlink:href="#DejaVuSans-18" transform="translate(63.625 0)"/>
       <use xlink:href="#DejaVuSans-13" transform="translate(127.25 0)"/>
      </g>
     </g>
    </g>
    <g id="ytick_3">
     <g id="line2d_15">
      <path d="M 37.933828 92.965468 
L 421.173828 92.965468 
" clip-path="url(#p6902dbb995)" style="fill: none; stroke: #21262d; stroke-opacity: 0.5; stroke-width: 0.5; stroke-linecap: square"/>
     </g>
     <g id="line2d_16">
      <g>
       <use xlink:href="#m024c775372" x="37.933828" y="92.965468" style="fill: #c9d1d9; stroke: #c9d1d9; stroke-width: 0.8"/>
      </g>
     </g>
     <g id="text_8">
      <!-- $100 -->
      <g style="fill: #c9d1d9" transform="translate(10.573828 96.004843) scale(0.08 -0.08)">
       <defs>
        <path id="DejaVuSans-14" d="M 794 531 
L 1825 531 
L 1825 4091 
L 703 3866 
L 703 4441 
L 1819 4666 
L 2450 4666 
L 2450 531 
L 3481 531 
L 3481 0 
L 794 0 
L 794 531 
z
" transform="scale(0.015625)"/>
       </defs>
       <use xlink:href="#DejaVuSans-7"/>
       <use xlink:href="#DejaVuSans-14" transform="translate(63.625 0)"/>
       <use xlink:href="#DejaVuSans-13" transform="translate(127.25 0)"/>
       <use xlink:href="#DejaVuSans-13" transform="translate(190.875 0)"/>
      </g>
     </g>
    </g>
    <g id="ytick_4">
     <g id="line2d_17">
      <path d="M 37.933828 67.215425 
L 421.173828 67.215425 
" clip-path="url(#p6902dbb995)" style="fill: none; stroke: #21262d; stroke-opacity: 0.5; stroke-width: 0.5; stroke-linecap: square"/>
     </g>
     <g id="line2d_18">
      <g>
       <use xlink:href="#m024c775372" x="37.933828" y="67.215425" style="fill: #c9d1d9; stroke: #c9d1d9; stroke-width: 0.8"/>
      </g>
     </g>
     <g id="text_9">
      <!-- $150 -->
      <g style="fill: #c9d1d9" transform="translate(10.573828 70.2548) scale(0.08 -0.08)">
       <use xlink:href="#DejaVuSans-7"/>
       <use xlink:href="#DejaVuSans-14" transform="translate(63.625 0)"/>
       <use xlink:href="#DejaVuSans-18" transform="translate(127.25 0)"/>
       <use xlink:href="#DejaVuSans-13" transform="translate(190.875 0)"/>
      </g>
     </g>
    </g>
    <g id="ytick_5">
     <g id="line2d_19">
      <path d="M 37.933828 41.465382 
L 421.173828 41.465382 
" clip-path="url(#p6902dbb995)" style="fill: none; stroke: #21262d; stroke-opacity: 0.5; stroke-width: 0.5; stroke-linecap: square"/>
     </g>
     <g id="line2d_20">
      <g>
       <use xlink:href="#m024c775372" x="37.933828" y="41.465382" style="fill: #c9d1d9; stroke: #c9d1d9; stroke-width: 0.8"/>
      </g>
     </g>
     <g id="text_10">
      <!-- $200 -->
      <g style="fill: #c9d1d9" transform="translate(10.573828 44.504757) scale(0.08 -0.08)">
       <use xlink:href="#DejaVuSans-7"/>
       <use xlink:href="#DejaVuSans-15" transform="translate(63.625 0)"/>
       <use xlink:href="#DejaVuSans-13" transform="translate(127.25 0)"/>
       <use xlink:href="#DejaVuSans-13" transform="translate(190.875 0)"/>
      </g>
     </g>
    </g>
   </g>
   <g id="line2d_21">
    <path d="M 55.353828 50.740547 
L 59.140785 61.833666 
L 62.927741 41.851633 
L 66.714698 48.232493 
L 70.501654 48.397294 
L 74.288611 47.568142 
L 78.075567 56.225307 
L 81.862524 49.262495 
L 85.64948 47.511492 
L 89.436437 47.789593 
L 93.223393 47.176742 
L 97.01035 46.28064 
L 100.797306 49.267645 
L 104.584263 46.811091 
L 108.371219 46.30124 
L 112.158176 48.047093 
L 115.945132 48.613594 
L 119.732089 49.947446 
L 123.519046 44.308187 
L 127.306002 46.15704 
L 131.092959 50.065896 
L 134.879915 48.732044 
L 138.666872 46.44544 
L 142.453828 49.463345 
L 146.240785 47.593892 
L 150.027741 51.523349 
L 153.814698 48.072843 
L 157.601654 47.454842 
L 161.388611 44.452387 
L 165.175567 45.415439 
L 168.962524 50.215247 
L 172.74948 45.286688 
L 176.536437 47.702042 
L 180.323393 44.060986 
L 184.11035 50.601497 
L 187.897306 42.526284 
L 191.684263 50.441847 
L 195.471219 47.429092 
L 199.258176 48.510594 
L 203.045132 44.163986 
L 206.832089 43.669586 
L 210.619046 42.011283 
L 214.406002 40.862831 
L 218.192959 38.571077 
L 221.979915 31.685516 
L 225.766872 36.742824 
L 229.553828 41.073981 
L 233.340785 39.534129 
L 237.127741 40.52808 
L 240.914698 39.214828 
L 244.701654 40.16243 
L 248.488611 42.624134 
L 252.275567 39.446579 
L 256.062524 45.497839 
L 259.84948 43.422385 
L 263.636437 45.729589 
L 267.423393 45.260938 
L 271.21035 43.911636 
L 274.997306 46.18794 
L 278.784263 44.127936 
L 282.571219 46.39394 
L 286.358176 43.211235 
L 290.145132 46.06949 
L 293.932089 45.111588 
L 297.719046 49.164645 
L 301.506002 45.302138 
L 305.292959 50.117396 
L 309.079915 42.407834 
L 312.866872 36.933374 
L 316.653828 39.549579 
L 320.440785 41.733182 
L 324.227741 42.356333 
L 328.014698 29.939663 
L 331.801654 27.411009 
L 335.588611 36.485324 
L 339.375567 38.849178 
L 343.162524 42.891934 
L 346.94948 38.524727 
L 350.736437 39.312678 
L 354.523393 41.218182 
L 358.31035 47.207642 
L 362.097306 40.651681 
L 365.884263 46.46604 
L 369.671219 54.448554 
L 373.458176 50.704497 
L 377.245132 52.568801 
L 381.032089 50.946548 
L 384.819046 49.592096 
L 388.606002 54.052003 
L 392.392959 49.453045 
L 396.179915 51.245248 
L 399.966872 50.204947 
L 403.753828 50.956848 
" clip-path="url(#p6902dbb995)" style="fill: none; stroke: #f85149; stroke-width: 2; stroke-linecap: square"/>
   </g>
   <g id="patch_3">
    <path d="M 37.933828 150.318281 
L 37.933828 21.558281 
" style="fill: none; stroke: #21262d; stroke-width: 0.8; stroke-linejoin: miter; stroke-linecap: square"/>
   </g>
   <g id="patch_4">
    <path d="M 37.933828 150.318281 
L 421.173828 150.318281 
" style="fill: none; stroke: #21262d; stroke-width: 0.8; stroke-linejoin: miter; stroke-linecap: square"/>
   </g>
   <g id="text_11">
    <!-- BROWSERHARNESS (browser-use/browser-harness) — $181.57 (-0.80%) -->
    <g style="fill: #c9d1d9" transform="translate(7.2 15.558281) scale(0.11 -0.11)">
     <defs>
      <path id="DejaVuSans-Bold-25" d="M 2456 2859 
Q 2741 2859 2887 2984 
Q 3034 3109 3034 3353 
Q 3034 3594 2887 3720 
Q 2741 3847 2456 3847 
L 1791 3847 
L 1791 2859 
L 2456 2859 
z
M 2497 819 
Q 2859 819 3042 972 
Q 3225 1125 3225 1434 
Q 3225 1738 3044 1889 
Q 2863 2041 2497 2041 
L 1791 2041 
L 1791 819 
L 2497 819 
z
M 3616 2497 
Q 4003 2384 4215 2081 
Q 4428 1778 4428 1338 
Q 4428 663 3972 331 
Q 3516 0 2584 0 
L 588 0 
L 588 4666 
L 2394 4666 
Q 3366 4666 3802 4372 
Q 4238 4078 4238 3431 
Q 4238 3091 4078 2852 
Q 3919 2613 3616 2497 
z
" transform="scale(0.015625)"/>
      <path id="DejaVuSans-Bold-35" d="M 2297 2597 
Q 2675 2597 2839 2737 
Q 3003 2878 3003 3200 
Q 3003 3519 2839 3656 
Q 2675 3794 2297 3794 
L 1791 3794 
L 1791 2597 
L 2297 2597 
z
M 1791 1766 
L 1791 0 
L 588 0 
L 588 4666 
L 2425 4666 
Q 3347 4666 3776 4356 
Q 4206 4047 4206 3378 
Q 4206 2916 3982 2619 
Q 3759 2322 3309 2181 
Q 3556 2125 3751 1926 
Q 3947 1728 4147 1325 
L 4800 0 
L 3519 0 
L 2950 1159 
Q 2778 1509 2601 1637 
Q 2425 1766 2131 1766 
L 1791 1766 
z
" transform="scale(0.015625)"/>
      <path id="DejaVuSans-Bold-32" d="M 2719 3878 
Q 2169 3878 1866 3472 
Q 1563 3066 1563 2328 
Q 1563 1594 1866 1187 
Q 2169 781 2719 781 
Q 3272 781 3575 1187 
Q 3878 1594 3878 2328 
Q 3878 3066 3575 3472 
Q 3272 3878 2719 3878 
z
M 2719 4750 
Q 3844 4750 4481 4106 
Q 5119 3463 5119 2328 
Q 5119 1197 4481 553 
Q 3844 -91 2719 -91 
Q 1597 -91 958 553 
Q 319 1197 319 2328 
Q 319 3463 958 4106 
Q 1597 4750 2719 4750 
z
" transform="scale(0.015625)"/>
      <path id="DejaVuSans-Bold-3a" d="M 191 4666 
L 1344 4666 
L 2150 1275 
L 2950 4666 
L 4109 4666 
L 4909 1275 
L 5716 4666 
L 6859 4666 
L 5759 0 
L 4372 0 
L 3525 3547 
L 2688 0 
L 1300 0 
L 191 4666 
z
" transform="scale(0.015625)"/>
      <path id="DejaVuSans-Bold-36" d="M 3834 4519 
L 3834 3531 
Q 3450 3703 3084 3790 
Q 2719 3878 2394 3878 
Q 1963 3878 1756 3759 
Q 1550 3641 1550 3391 
Q 1550 3203 1689 3098 
Q 1828 2994 2194 2919 
L 2706 2816 
Q 3484 2659 3812 2340 
Q 4141 2022 4141 1434 
Q 4141 663 3683 286 
Q 3225 -91 2284 -91 
Q 1841 -91 1394 -6 
Q 947 78 500 244 
L 500 1259 
Q 947 1022 1364 901 
Q 1781 781 2169 781 
Q 2563 781 2772 912 
Q 2981 1044 2981 1288 
Q 2981 1506 2839 1625 
Q 2697 1744 2272 1838 
L 1806 1941 
Q 1106 2091 782 2419 
Q 459 2747 459 3303 
Q 459 4000 909 4375 
Q 1359 4750 2203 4750 
Q 2588 4750 2994 4692 
Q 3400 4634 3834 4519 
z
" transform="scale(0.015625)"/>
      <path id="DejaVuSans-Bold-28" d="M 588 4666 
L 3834 4666 
L 3834 3756 
L 1791 3756 
L 1791 2888 
L 3713 2888 
L 3713 1978 
L 1791 1978 
L 1791 909 
L 3903 909 
L 3903 0 
L 588 0 
L 588 4666 
z
" transform="scale(0.015625)"/>
      <path id="DejaVuSans-Bold-2b" d="M 588 4666 
L 1791 4666 
L 1791 2888 
L 3566 2888 
L 3566 4666 
L 4769 4666 
L 4769 0 
L 3566 0 
L 3566 1978 
L 1791 1978 
L 1791 0 
L 588 0 
L 588 4666 
z
" transform="scale(0.015625)"/>
      <path id="DejaVuSans-Bold-24" d="M 3419 850 
L 1538 850 
L 1241 0 
L 31 0 
L 1759 4666 
L 3194 4666 
L 4922 0 
L 3713 0 
L 3419 850 
z
M 1838 1716 
L 3116 1716 
L 2478 3572 
L 1838 1716 
z
" transform="scale(0.015625)"/>
      <path id="DejaVuSans-Bold-31" d="M 588 4666 
L 1931 4666 
L 3628 1466 
L 3628 4666 
L 4769 4666 
L 4769 0 
L 3425 0 
L 1728 3200 
L 1728 0 
L 588 0 
L 588 4666 
z
" transform="scale(0.015625)"/>
      <path id="DejaVuSans-Bold-3" transform="scale(0.015625)"/>
      <path id="DejaVuSans-Bold-b" d="M 2413 -844 
L 1484 -844 
Q 1006 -72 778 623 
Q 550 1319 550 2003 
Q 550 2688 779 3389 
Q 1009 4091 1484 4856 
L 2413 4856 
Q 2013 4116 1813 3408 
Q 1613 2700 1613 2009 
Q 1613 1319 1811 609 
Q 2009 -100 2413 -844 
z
" transform="scale(0.015625)"/>
      <path id="DejaVuSans-Bold-45" d="M 2400 722 
Q 2759 722 2948 984 
Q 3138 1247 3138 1747 
Q 3138 2247 2948 2509 
Q 2759 2772 2400 2772 
Q 2041 2772 1848 2508 
Q 1656 2244 1656 1747 
Q 1656 1250 1848 986 
Q 2041 722 2400 722 
z
M 1656 2988 
Q 1888 3294 2169 3439 
Q 2450 3584 2816 3584 
Q 3463 3584 3878 3070 
Q 4294 2556 4294 1747 
Q 4294 938 3878 423 
Q 3463 -91 2816 -91 
Q 2450 -91 2169 54 
Q 1888 200 1656 506 
L 1656 0 
L 538 0 
L 538 4863 
L 1656 4863 
L 1656 2988 
z
" transform="scale(0.015625)"/>
      <path id="DejaVuSans-Bold-55" d="M 3138 2547 
Q 2991 2616 2845 2648 
Q 2700 2681 2553 2681 
Q 2122 2681 1889 2404 
Q 1656 2128 1656 1613 
L 1656 0 
L 538 0 
L 538 3500 
L 1656 3500 
L 1656 2925 
Q 1872 3269 2151 3426 
Q 2431 3584 2822 3584 
Q 2878 3584 2943 3579 
Q 3009 3575 3134 3559 
L 3138 2547 
z
" transform="scale(0.015625)"/>
      <path id="DejaVuSans-Bold-52" d="M 2203 2784 
Q 1831 2784 1636 2517 
Q 1441 2250 1441 1747 
Q 1441 1244 1636 976 
Q 1831 709 2203 709 
Q 2569 709 2762 976 
Q 2956 1244 2956 1747 
Q 2956 2250 2762 2517 
Q 2569 2784 2203 2784 
z
M 2203 3584 
Q 3106 3584 3614 3096 
Q 4122 2609 4122 1747 
Q 4122 884 3614 396 
Q 3106 -91 2203 -91 
Q 1297 -91 786 396 
Q 275 884 275 1747 
Q 275 2609 786 3096 
Q 1297 3584 2203 3584 
z
" transform="scale(0.015625)"/>
      <path id="DejaVuSans-Bold-5a" d="M 225 3500 
L 1313 3500 
L 1900 1088 
L 2491 3500 
L 3425 3500 
L 4013 1113 
L 4603 3500 
L 5691 3500 
L 4769 0 
L 3547 0 
L 2956 2406 
L 2369 0 
L 1147 0 
L 225 3500 
z
" transform="scale(0.015625)"/>
      <path id="DejaVuSans-Bold-56" d="M 3272 3391 
L 3272 2541 
Q 2913 2691 2578 2766 
Q 2244 2841 1947 2841 
Q 1628 2841 1473 2761 
Q 1319 2681 1319 2516 
Q 1319 2381 1436 2309 
Q 1553 2238 1856 2203 
L 2053 2175 
Q 2913 2066 3209 1816 
Q 3506 1566 3506 1031 
Q 3506 472 3093 190 
Q 2681 -91 1863 -91 
Q 1516 -91 1145 -36 
Q 775 19 384 128 
L 384 978 
Q 719 816 1070 734 
Q 1422 653 1784 653 
Q 2113 653 2278 743 
Q 2444 834 2444 1013 
Q 2444 1163 2330 1236 
Q 2216 1309 1875 1350 
L 1678 1375 
Q 931 1469 631 1722 
Q 331 1975 331 2491 
Q 331 3047 712 3315 
Q 1094 3584 1881 3584 
Q 2191 3584 2531 3537 
Q 2872 3491 3272 3391 
z
" transform="scale(0.015625)"/>
      <path id="DejaVuSans-Bold-48" d="M 4031 1759 
L 4031 1441 
L 1416 1441 
Q 1456 1047 1700 850 
Q 1944 653 2381 653 
Q 2734 653 3104 758 
Q 3475 863 3866 1075 
L 3866 213 
Q 3469 63 3072 -14 
Q 2675 -91 2278 -91 
Q 1328 -91 801 392 
Q 275 875 275 1747 
Q 275 2603 792 3093 
Q 1309 3584 2216 3584 
Q 3041 3584 3536 3087 
Q 4031 2591 4031 1759 
z
M 2881 2131 
Q 2881 2450 2695 2645 
Q 2509 2841 2209 2841 
Q 1884 2841 1681 2658 
Q 1478 2475 1428 2131 
L 2881 2131 
z
" transform="scale(0.015625)"/>
      <path id="DejaVuSans-Bold-10" d="M 347 2297 
L 2309 2297 
L 2309 1388 
L 347 1388 
L 347 2297 
z
" transform="scale(0.015625)"/>
      <path id="DejaVuSans-Bold-58" d="M 500 1363 
L 500 3500 
L 1625 3500 
L 1625 3150 
Q 1625 2866 1622 2436 
Q 1619 2006 1619 1863 
Q 1619 1441 1641 1255 
Q 1663 1069 1716 984 
Q 1784 875 1895 815 
Q 2006 756 2150 756 
Q 2500 756 2700 1025 
Q 2900 1294 2900 1772 
L 2900 3500 
L 4019 3500 
L 4019 0 
L 2900 0 
L 2900 506 
Q 2647 200 2364 54 
Q 2081 -91 1741 -91 
Q 1134 -91 817 281 
Q 500 653 500 1363 
z
" transform="scale(0.015625)"/>
      <path id="DejaVuSans-Bold-12" d="M 1644 4666 
L 2338 4666 
L 691 -594 
L 0 -594 
L 1644 4666 
z
" transform="scale(0.015625)"/>
      <path id="DejaVuSans-Bold-4b" d="M 4056 2131 
L 4056 0 
L 2931 0 
L 2931 347 
L 2931 1625 
Q 2931 2084 2911 2256 
Q 2891 2428 2841 2509 
Q 2775 2619 2662 2680 
Q 2550 2741 2406 2741 
Q 2056 2741 1856 2470 
Q 1656 2200 1656 1722 
L 1656 0 
L 538 0 
L 538 4863 
L 1656 4863 
L 1656 2988 
Q 1909 3294 2193 3439 
Q 2478 3584 2822 3584 
Q 3428 3584 3742 3212 
Q 4056 2841 4056 2131 
z
" transform="scale(0.015625)"/>
      <path id="DejaVuSans-Bold-44" d="M 2106 1575 
Q 1756 1575 1579 1456 
Q 1403 1338 1403 1106 
Q 1403 894 1545 773 
Q 1688 653 1941 653 
Q 2256 653 2472 879 
Q 2688 1106 2688 1447 
L 2688 1575 
L 2106 1575 
z
M 3816 1997 
L 3816 0 
L 2688 0 
L 2688 519 
Q 2463 200 2181 54 
Q 1900 -91 1497 -91 
Q 953 -91 614 226 
Q 275 544 275 1050 
Q 275 1666 698 1953 
Q 1122 2241 2028 2241 
L 2688 2241 
L 2688 2328 
Q 2688 2594 2478 2717 
Q 2269 2841 1825 2841 
Q 1466 2841 1156 2769 
Q 847 2697 581 2553 
L 581 3406 
Q 941 3494 1303 3539 
Q 1666 3584 2028 3584 
Q 2975 3584 3395 3211 
Q 3816 2838 3816 1997 
z
" transform="scale(0.015625)"/>
      <path id="DejaVuSans-Bold-51" d="M 4056 2131 
L 4056 0 
L 2931 0 
L 2931 347 
L 2931 1631 
Q 2931 2084 2911 2256 
Q 2891 2428 2841 2509 
Q 2775 2619 2662 2680 
Q 2550 2741 2406 2741 
Q 2056 2741 1856 2470 
Q 1656 2200 1656 1722 
L 1656 0 
L 538 0 
L 538 3500 
L 1656 3500 
L 1656 2988 
Q 1909 3294 2193 3439 
Q 2478 3584 2822 3584 
Q 3428 3584 3742 3212 
Q 4056 2841 4056 2131 
z
" transform="scale(0.015625)"/>
      <path id="DejaVuSans-Bold-c" d="M 513 -844 
Q 913 -100 1113 609 
Q 1313 1319 1313 2009 
Q 1313 2700 1113 3408 
Q 913 4116 513 4856 
L 1441 4856 
Q 1916 4091 2145 3389 
Q 2375 2688 2375 2003 
Q 2375 1319 2147 623 
Q 1919 -72 1441 -844 
L 513 -844 
z
" transform="scale(0.015625)"/>
      <path id="DejaVuSans-Bold-af6" d="M 344 2156 
L 6056 2156 
L 6056 1350 
L 344 1350 
L 344 2156 
z
" transform="scale(0.015625)"/>
      <path id="DejaVuSans-Bold-7" d="M 2484 -941 
L 1978 -941 
L 1975 0 
Q 1584 16 1218 87 
Q 853 159 506 288 
L 506 1106 
Q 866 922 1233 823 
Q 1600 725 1978 713 
L 1978 1684 
L 1875 1703 
Q 1128 1834 814 2115 
Q 500 2397 500 2925 
Q 500 3484 883 3798 
Q 1266 4113 1975 4141 
L 1978 4863 
L 2484 4863 
L 2484 4153 
Q 2797 4128 3109 4075 
Q 3422 4022 3738 3938 
L 3738 3144 
Q 3425 3275 3112 3348 
Q 2800 3422 2484 3438 
L 2484 2541 
L 2584 2522 
Q 3378 2397 3698 2105 
Q 4019 1813 4019 1241 
Q 4019 666 3637 358 
Q 3256 50 2484 6 
L 2484 -941 
z
M 1978 2613 
L 1978 3428 
Q 1756 3416 1623 3308 
Q 1491 3200 1491 3034 
Q 1491 2850 1612 2745 
Q 1734 2641 1978 2613 
z
M 2484 1594 
L 2484 725 
Q 2756 728 2892 831 
Q 3028 934 3028 1141 
Q 3028 1353 2903 1458 
Q 2778 1563 2484 1594 
z
" transform="scale(0.015625)"/>
      <path id="DejaVuSans-Bold-14" d="M 750 831 
L 1813 831 
L 1813 3847 
L 722 3622 
L 722 4441 
L 1806 4666 
L 2950 4666 
L 2950 831 
L 4013 831 
L 4013 0 
L 750 0 
L 750 831 
z
" transform="scale(0.015625)"/>
      <path id="DejaVuSans-Bold-1b" d="M 2228 2088 
Q 1891 2088 1709 1903 
Q 1528 1719 1528 1375 
Q 1528 1031 1709 848 
Q 1891 666 2228 666 
Q 2563 666 2741 848 
Q 2919 1031 2919 1375 
Q 2919 1722 2741 1905 
Q 2563 2088 2228 2088 
z
M 1350 2484 
Q 925 2613 709 2878 
Q 494 3144 494 3541 
Q 494 4131 934 4440 
Q 1375 4750 2228 4750 
Q 3075 4750 3515 4442 
Q 3956 4134 3956 3541 
Q 3956 3144 3739 2878 
Q 3522 2613 3097 2484 
Q 3572 2353 3814 2058 
Q 4056 1763 4056 1313 
Q 4056 619 3595 264 
Q 3134 -91 2228 -91 
Q 1319 -91 855 264 
Q 391 619 391 1313 
Q 391 1763 633 2058 
Q 875 2353 1350 2484 
z
M 1631 3419 
Q 1631 3141 1786 2991 
Q 1941 2841 2228 2841 
Q 2509 2841 2662 2991 
Q 2816 3141 2816 3419 
Q 2816 3697 2662 3845 
Q 2509 3994 2228 3994 
Q 1941 3994 1786 3844 
Q 1631 3694 1631 3419 
z
" transform="scale(0.015625)"/>
      <path id="DejaVuSans-Bold-11" d="M 653 1209 
L 1778 1209 
L 1778 0 
L 653 0 
L 653 1209 
z
" transform="scale(0.015625)"/>
      <path id="DejaVuSans-Bold-18" d="M 678 4666 
L 3669 4666 
L 3669 3781 
L 1638 3781 
L 1638 3059 
Q 1775 3097 1914 3117 
Q 2053 3138 2203 3138 
Q 3056 3138 3531 2711 
Q 4006 2284 4006 1522 
Q 4006 766 3489 337 
Q 2972 -91 2053 -91 
Q 1656 -91 1267 -14 
Q 878 63 494 219 
L 494 1166 
Q 875 947 1217 837 
Q 1559 728 1863 728 
Q 2300 728 2551 942 
Q 2803 1156 2803 1522 
Q 2803 1891 2551 2103 
Q 2300 2316 1863 2316 
Q 1603 2316 1309 2248 
Q 1016 2181 678 2041 
L 678 4666 
z
" transform="scale(0.015625)"/>
      <path id="DejaVuSans-Bold-1a" d="M 428 4666 
L 3944 4666 
L 3944 3988 
L 2125 0 
L 953 0 
L 2675 3781 
L 428 3781 
L 428 4666 
z
" transform="scale(0.015625)"/>
      <path id="DejaVuSans-Bold-13" d="M 2944 2338 
Q 2944 3213 2780 3570 
Q 2616 3928 2228 3928 
Q 1841 3928 1675 3570 
Q 1509 3213 1509 2338 
Q 1509 1453 1675 1090 
Q 1841 728 2228 728 
Q 2613 728 2778 1090 
Q 2944 1453 2944 2338 
z
M 4147 2328 
Q 4147 1169 3647 539 
Q 3147 -91 2228 -91 
Q 1306 -91 806 539 
Q 306 1169 306 2328 
Q 306 3491 806 4120 
Q 1306 4750 2228 4750 
Q 3147 4750 3647 4120 
Q 4147 3491 4147 2328 
z
" transform="scale(0.015625)"/>
      <path id="DejaVuSans-Bold-8" d="M 4959 1925 
Q 4738 1925 4616 1733 
Q 4494 1541 4494 1184 
Q 4494 825 4614 633 
Q 4734 441 4959 441 
Q 5184 441 5303 633 
Q 5422 825 5422 1184 
Q 5422 1541 5301 1733 
Q 5181 1925 4959 1925 
z
M 4959 2450 
Q 5541 2450 5875 2112 
Q 6209 1775 6209 1184 
Q 6209 594 5875 251 
Q 5541 -91 4959 -91 
Q 4378 -91 4042 251 
Q 3706 594 3706 1184 
Q 3706 1772 4042 2111 
Q 4378 2450 4959 2450 
z
M 2094 -91 
L 1403 -91 
L 4319 4750 
L 5013 4750 
L 2094 -91 
z
M 1453 4750 
Q 2034 4750 2367 4411 
Q 2700 4072 2700 3481 
Q 2700 2891 2367 2550 
Q 2034 2209 1453 2209 
Q 872 2209 539 2550 
Q 206 2891 206 3481 
Q 206 4072 539 4411 
Q 872 4750 1453 4750 
z
M 1453 4225 
Q 1228 4225 1106 4031 
Q 984 3838 984 3481 
Q 984 3122 1106 2926 
Q 1228 2731 1453 2731 
Q 1678 2731 1798 2926 
Q 1919 3122 1919 3481 
Q 1919 3838 1797 4031 
Q 1675 4225 1453 4225 
z
" transform="scale(0.015625)"/>
     </defs>
     <use xlink:href="#DejaVuSans-Bold-25"/>
     <use xlink:href="#DejaVuSans-Bold-35" transform="translate(76.21875 0)"/>
     <use xlink:href="#DejaVuSans-Bold-32" transform="translate(153.21875 0)"/>
     <use xlink:href="#DejaVuSans-Bold-3a" transform="translate(238.234375 0)"/>
     <use xlink:href="#DejaVuSans-Bold-36" transform="translate(348.53125 0)"/>
     <use xlink:href="#DejaVuSans-Bold-28" transform="translate(420.546875 0)"/>
     <use xlink:href="#DejaVuSans-Bold-35" transform="translate(488.859375 0)"/>
     <use xlink:href="#DejaVuSans-Bold-2b" transform="translate(565.859375 0)"/>
     <use xlink:href="#DejaVuSans-Bold-24" transform="translate(649.546875 0)"/>
     <use xlink:href="#DejaVuSans-Bold-35" transform="translate(726.9375 0)"/>
     <use xlink:href="#DejaVuSans-Bold-31" transform="translate(803.9375 0)"/>
     <use xlink:href="#DejaVuSans-Bold-28" transform="translate(887.625 0)"/>
     <use xlink:href="#DejaVuSans-Bold-36" transform="translate(955.9375 0)"/>
     <use xlink:href="#DejaVuSans-Bold-36" transform="translate(1023.46875 0)"/>
     <use xlink:href="#DejaVuSans-Bold-3" transform="translate(1095.484375 0)"/>
     <use xlink:href="#DejaVuSans-Bold-b" transform="translate(1130.296875 0)"/>
     <use xlink:href="#DejaVuSans-Bold-45" transform="translate(1176 0)"/>
     <use xlink:href="#DejaVuSans-Bold-55" transform="translate(1247.578125 0)"/>
     <use xlink:href="#DejaVuSans-Bold-52" transform="translate(1296.890625 0)"/>
     <use xlink:href="#DejaVuSans-Bold-5a" transform="translate(1365.59375 0)"/>
     <use xlink:href="#DejaVuSans-Bold-56" transform="translate(1457.984375 0)"/>
     <use xlink:href="#DejaVuSans-Bold-48" transform="translate(1517.5 0)"/>
     <use xlink:href="#DejaVuSans-Bold-55" transform="translate(1585.328125 0)"/>
     <use xlink:href="#DejaVuSans-Bold-10" transform="translate(1634.640625 0)"/>
     <use xlink:href="#DejaVuSans-Bold-58" transform="translate(1676.140625 0)"/>
     <use xlink:href="#DejaVuSans-Bold-56" transform="translate(1747.328125 0)"/>
     <use xlink:href="#DejaVuSans-Bold-48" transform="translate(1806.84375 0)"/>
     <use xlink:href="#DejaVuSans-Bold-12" transform="translate(1874.671875 0)"/>
     <use xlink:href="#DejaVuSans-Bold-45" transform="translate(1911.203125 0)"/>
     <use xlink:href="#DejaVuSans-Bold-55" transform="translate(1982.78125 0)"/>
     <use xlink:href="#DejaVuSans-Bold-52" transform="translate(2032.09375 0)"/>
     <use xlink:href="#DejaVuSans-Bold-5a" transform="translate(2100.796875 0)"/>
     <use xlink:href="#DejaVuSans-Bold-56" transform="translate(2193.1875 0)"/>
     <use xlink:href="#DejaVuSans-Bold-48" transform="translate(2252.703125 0)"/>
     <use xlink:href="#DejaVuSans-Bold-55" transform="translate(2320.53125 0)"/>
     <use xlink:href="#DejaVuSans-Bold-10" transform="translate(2369.84375 0)"/>
     <use xlink:href="#DejaVuSans-Bold-4b" transform="translate(2411.34375 0)"/>
     <use xlink:href="#DejaVuSans-Bold-44" transform="translate(2482.53125 0)"/>
     <use xlink:href="#DejaVuSans-Bold-55" transform="translate(2550.015625 0)"/>
     <use xlink:href="#DejaVuSans-Bold-51" transform="translate(2599.328125 0)"/>
     <use xlink:href="#DejaVuSans-Bold-48" transform="translate(2670.515625 0)"/>
     <use xlink:href="#DejaVuSans-Bold-56" transform="translate(2738.34375 0)"/>
     <use xlink:href="#DejaVuSans-Bold-56" transform="translate(2797.859375 0)"/>
     <use xlink:href="#DejaVuSans-Bold-c" transform="translate(2857.375 0)"/>
     <use xlink:href="#DejaVuSans-Bold-3" transform="translate(2903.078125 0)"/>
     <use xlink:href="#DejaVuSans-Bold-af6" transform="translate(2937.890625 0)"/>
     <use xlink:href="#DejaVuSans-Bold-3" transform="translate(3037.890625 0)"/>
     <use xlink:href="#DejaVuSans-Bold-7" transform="translate(3072.703125 0)"/>
     <use xlink:href="#DejaVuSans-Bold-14" transform="translate(3142.28125 0)"/>
     <use xlink:href="#DejaVuSans-Bold-1b" transform="translate(3211.859375 0)"/>
     <use xlink:href="#DejaVuSans-Bold-14" transform="translate(3281.4375 0)"/>
     <use xlink:href="#DejaVuSans-Bold-11" transform="translate(3351.015625 0)"/>
     <use xlink:href="#DejaVuSans-Bold-18" transform="translate(3389 0)"/>
     <use xlink:href="#DejaVuSans-Bold-1a" transform="translate(3458.578125 0)"/>
     <use xlink:href="#DejaVuSans-Bold-3" transform="translate(3528.15625 0)"/>
     <use xlink:href="#DejaVuSans-Bold-b" transform="translate(3562.96875 0)"/>
     <use xlink:href="#DejaVuSans-Bold-10" transform="translate(3608.671875 0)"/>
     <use xlink:href="#DejaVuSans-Bold-13" transform="translate(3650.171875 0)"/>
     <use xlink:href="#DejaVuSans-Bold-11" transform="translate(3719.75 0)"/>
     <use xlink:href="#DejaVuSans-Bold-1b" transform="translate(3757.734375 0)"/>
     <use xlink:href="#DejaVuSans-Bold-13" transform="translate(3827.3125 0)"/>
     <use xlink:href="#DejaVuSans-Bold-8" transform="translate(3896.890625 0)"/>
     <use xlink:href="#DejaVuSans-Bold-c" transform="translate(3997.09375 0)"/>
    </g>
   </g>
  </g>
 </g>
 <defs>
  <clipPath id="p6902dbb995">
   <rect x="37.933828" y="21.558281" width="383.24" height="128.76"/>
  </clipPath>
 </defs>
</svg>
