<?xml version="1.0" encoding="utf-8" standalone="no"?>
<!DOCTYPE svg PUBLIC "-//W3C//DTD SVG 1.1//EN"
  "http://www.w3.org/Graphics/SVG/1.1/DTD/svg11.dtd">
<svg xmlns:xlink="http://www.w3.org/1999/xlink" width="424.718986pt" height="173.060781pt" viewBox="0 0 424.718986 173.060781" xmlns="http://www.w3.org/2000/svg" version="1.1">
 <metadata>
  <rdf:RDF xmlns:dc="http://purl.org/dc/elements/1.1/" xmlns:cc="http://creativecommons.org/ns#" xmlns:rdf="http://www.w3.org/1999/02/22-rdf-syntax-ns#">
   <cc:Work>
    <dc:type rdf:resource="http://purl.org/dc/dcmitype/StillImage"/>
    <dc:date>2026-04-30T12:55:21.165399</dc:date>
    <dc:format>image/svg+xml</dc:format>
    <dc:creator>
     <cc:Agent>
      <dc:title>Matplotlib v3.10.9, https://matplotlib.org/</dc:title>
     </cc:Agent>
    </dc:creator>
   </cc:Work>
  </rdf:RDF>
 </metadata>
 <defs>
  <style type="text/css">*{stroke-linejoin: round; stroke-linecap: butt}</style>
 </defs>
 <g id="figure_1">
  <g id="patch_1">
   <path d="M 0 173.060781 
L 424.718986 173.060781 
L 424.718986 0 
L 0 0 
z
" style="fill: #0d1117"/>
  </g>
  <g id="axes_1">
   <g id="patch_2">
    <path d="M 34.56 151.118281 
L 417.518986 151.118281 
L 417.518986 21.558281 
L 34.56 21.558281 
z
" style="fill: #0d1117"/>
   </g>
   <g id="FillBetweenPolyCollection_1">
    <defs>
     <path id="m9b21b9d1f1" d="M 51.967227 -27.831591 
L 51.967227 -81.408671 
L 54.942821 -81.428503 
L 57.918415 -82.967989 
L 60.89401 -85.355308 
L 63.869604 -83.793511 
L 66.845198 -85.293332 
L 69.820792 -83.171271 
L 72.796387 -84.395918 
L 75.771981 -74.8045 
L 78.747575 -86.69647 
L 81.72317 -80.412096 
L 84.698764 -77.350477 
L 87.674358 -82.630839 
L 90.649952 -76.138225 
L 93.625547 -81.872252 
L 96.601141 -84.80496 
L 99.576735 -77.682669 
L 102.55233 -84.80496 
L 105.527924 -82.05818 
L 108.503518 -91.124041 
L 111.479113 -91.366987 
L 114.454707 -145.613409 
L 117.430301 -136.835117 
L 120.405895 -143.2013 
L 123.38149 -117.60518 
L 126.357084 -113.098279 
L 129.332678 -100.135363 
L 132.308273 -90.806724 
L 135.283867 -91.957 
L 138.259461 -91.505814 
L 141.235056 -91.054628 
L 144.21065 -86.9295 
L 147.186244 -88.434279 
L 150.161838 -87.710399 
L 153.137433 -87.710399 
L 156.113027 -88.917693 
L 159.088621 -85.585859 
L 162.064216 -88.037632 
L 165.03981 -83.111774 
L 168.015404 -86.857608 
L 170.990999 -85.927967 
L 173.966593 -83.89763 
L 176.942187 -85.794098 
L 179.917781 -85.397451 
L 182.893376 -85.191691 
L 185.86897 -86.07423 
L 188.844564 -84.544661 
L 191.820159 -87.777333 
L 194.795753 -83.672037 
L 197.771347 -111.157189 
L 200.746941 -102.691256 
L 203.722536 -89.068914 
L 206.69813 -88.221082 
L 209.673724 -87.430267 
L 212.649319 -85.315643 
L 215.624913 -83.637331 
L 218.600507 -80.672395 
L 221.576102 -82.08545 
L 224.551696 -79.943557 
L 227.52729 -79.789856 
L 230.502884 -81.416108 
L 233.478479 -79.103161 
L 236.454073 -80.501341 
L 239.429667 -81.502875 
L 242.405262 -81.713593 
L 245.380856 -79.998096 
L 248.35645 -79.678299 
L 251.332045 -80.999629 
L 254.307639 -80.474072 
L 257.283233 -80.838491 
L 260.258827 -82.112719 
L 263.234422 -81.331821 
L 266.210016 -78.917233 
L 269.18561 -79.750191 
L 272.161205 -79.403125 
L 275.136799 -80.06503 
L 278.112393 -72.880763 
L 281.087988 -78.359448 
L 284.063582 -81.458252 
L 287.039176 -79.85679 
L 290.01477 -81.557414 
L 292.990365 -79.77994 
L 295.965959 -81.428503 
L 298.941553 -78.999041 
L 301.917148 -80.466635 
L 304.892742 -81.272324 
L 307.868336 -80.397221 
L 310.84393 -82.377977 
L 313.819525 -79.564263 
L 316.795119 -82.5763 
L 319.770713 -79.834479 
L 322.746308 -81.492959 
L 325.721902 -77.139759 
L 328.697496 -81.738384 
L 331.673091 -78.280119 
L 334.648685 -78.210705 
L 337.624279 -80.739329 
L 340.599873 -80.714539 
L 343.575468 -79.898934 
L 346.551062 -81.691282 
L 349.526656 -81.245054 
L 352.502251 -84.026541 
L 355.477845 -85.952757 
L 358.453439 -87.256734 
L 361.429034 -86.830338 
L 364.404628 -84.524828 
L 367.380222 -86.267596 
L 370.355816 -83.954648 
L 373.331411 -82.863869 
L 376.307005 -84.606637 
L 379.282599 -83.106816 
L 382.258194 -83.399343 
L 385.233788 -76.755507 
L 388.209382 -82.68042 
L 391.184976 -76.195243 
L 394.160571 -81.968935 
L 397.136165 -74.950764 
L 400.111759 -78.151208 
L 400.111759 -27.831591 
L 400.111759 -27.831591 
L 397.136165 -27.831591 
L 394.160571 -27.831591 
L 391.184976 -27.831591 
L 388.209382 -27.831591 
L 385.233788 -27.831591 
L 382.258194 -27.831591 
L 379.282599 -27.831591 
L 376.307005 -27.831591 
L 373.331411 -27.831591 
L 370.355816 -27.831591 
L 367.380222 -27.831591 
L 364.404628 -27.831591 
L 361.429034 -27.831591 
L 358.453439 -27.831591 
L 355.477845 -27.831591 
L 352.502251 -27.831591 
L 349.526656 -27.831591 
L 346.551062 -27.831591 
L 343.575468 -27.831591 
L 340.599873 -27.831591 
L 337.624279 -27.831591 
L 334.648685 -27.831591 
L 331.673091 -27.831591 
L 328.697496 -27.831591 
L 325.721902 -27.831591 
L 322.746308 -27.831591 
L 319.770713 -27.831591 
L 316.795119 -27.831591 
L 313.819525 -27.831591 
L 310.84393 -27.831591 
L 307.868336 -27.831591 
L 304.892742 -27.831591 
L 301.917148 -27.831591 
L 298.941553 -27.831591 
L 295.965959 -27.831591 
L 292.990365 -27.831591 
L 290.01477 -27.831591 
L 287.039176 -27.831591 
L 284.063582 -27.831591 
L 281.087988 -27.831591 
L 278.112393 -27.831591 
L 275.136799 -27.831591 
L 272.161205 -27.831591 
L 269.18561 -27.831591 
L 266.210016 -27.831591 
L 263.234422 -27.831591 
L 260.258827 -27.831591 
L 257.283233 -27.831591 
L 254.307639 -27.831591 
L 251.332045 -27.831591 
L 248.35645 -27.831591 
L 245.380856 -27.831591 
L 242.405262 -27.831591 
L 239.429667 -27.831591 
L 236.454073 -27.831591 
L 233.478479 -27.831591 
L 230.502884 -27.831591 
L 227.52729 -27.831591 
L 224.551696 -27.831591 
L 221.576102 -27.831591 
L 218.600507 -27.831591 
L 215.624913 -27.831591 
L 212.649319 -27.831591 
L 209.673724 -27.831591 
L 206.69813 -27.831591 
L 203.722536 -27.831591 
L 200.746941 -27.831591 
L 197.771347 -27.831591 
L 194.795753 -27.831591 
L 191.820159 -27.831591 
L 188.844564 -27.831591 
L 185.86897 -27.831591 
L 182.893376 -27.831591 
L 179.917781 -27.831591 
L 176.942187 -27.831591 
L 173.966593 -27.831591 
L 170.990999 -27.831591 
L 168.015404 -27.831591 
L 165.03981 -27.831591 
L 162.064216 -27.831591 
L 159.088621 -27.831591 
L 156.113027 -27.831591 
L 153.137433 -27.831591 
L 150.161838 -27.831591 
L 147.186244 -27.831591 
L 144.21065 -27.831591 
L 141.235056 -27.831591 
L 138.259461 -27.831591 
L 135.283867 -27.831591 
L 132.308273 -27.831591 
L 129.332678 -27.831591 
L 126.357084 -27.831591 
L 123.38149 -27.831591 
L 120.405895 -27.831591 
L 117.430301 -27.831591 
L 114.454707 -27.831591 
L 111.479113 -27.831591 
L 108.503518 -27.831591 
L 105.527924 -27.831591 
L 102.55233 -27.831591 
L 99.576735 -27.831591 
L 96.601141 -27.831591 
L 93.625547 -27.831591 
L 90.649952 -27.831591 
L 87.674358 -27.831591 
L 84.698764 -27.831591 
L 81.72317 -27.831591 
L 78.747575 -27.831591 
L 75.771981 -27.831591 
L 72.796387 -27.831591 
L 69.820792 -27.831591 
L 66.845198 -27.831591 
L 63.869604 -27.831591 
L 60.89401 -27.831591 
L 57.918415 -27.831591 
L 54.942821 -27.831591 
L 51.967227 -27.831591 
z
" style="stroke: #f85149; stroke-opacity: 0.15"/>
    </defs>
    <g clip-path="url(#p7916d59765)">
     <use xlink:href="#m9b21b9d1f1" x="0" y="173.060781" style="fill: #f85149; fill-opacity: 0.15; stroke: #f85149; stroke-opacity: 0.15"/>
    </g>
   </g>
   <g id="matplotlib.axis_1">
    <g id="xtick_1">
     <g id="line2d_1">
      <path d="M 51.967227 151.118281 
L 51.967227 21.558281 
" clip-path="url(#p7916d59765)" style="fill: none; stroke: #21262d; stroke-opacity: 0.5; stroke-width: 0.5; stroke-linecap: square"/>
     </g>
     <g id="line2d_2">
      <defs>
       <path id="m5cd121e9e1" d="M 0 0 
L 0 3.5 
" style="stroke: #c9d1d9; stroke-width: 0.8"/>
      </defs>
      <g>
       <use xlink:href="#m5cd121e9e1" x="51.967227" y="151.118281" style="fill: #c9d1d9; stroke: #c9d1d9; stroke-width: 0.8"/>
      </g>
     </g>
     <g id="text_1">
      <!-- 0 -->
      <g style="fill: #c9d1d9" transform="translate(49.422227 164.197031) scale(0.08 -0.08)">
       <defs>
        <path id="DejaVuSans-30" d="M 2034 4250 
Q 1547 4250 1301 3770 
Q 1056 3291 1056 2328 
Q 1056 1369 1301 889 
Q 1547 409 2034 409 
Q 2525 409 2770 889 
Q 3016 1369 3016 2328 
Q 3016 3291 2770 3770 
Q 2525 4250 2034 4250 
z
M 2034 4750 
Q 2819 4750 3233 4129 
Q 3647 3509 3647 2328 
Q 3647 1150 3233 529 
Q 2819 -91 2034 -91 
Q 1250 -91 836 529 
Q 422 1150 422 2328 
Q 422 3509 836 4129 
Q 1250 4750 2034 4750 
z
" transform="scale(0.015625)"/>
       </defs>
       <use xlink:href="#DejaVuSans-30"/>
      </g>
     </g>
    </g>
    <g id="xtick_2">
     <g id="line2d_3">
      <path d="M 111.479113 151.118281 
L 111.479113 21.558281 
" clip-path="url(#p7916d59765)" style="fill: none; stroke: #21262d; stroke-opacity: 0.5; stroke-width: 0.5; stroke-linecap: square"/>
     </g>
     <g id="line2d_4">
      <g>
       <use xlink:href="#m5cd121e9e1" x="111.479113" y="151.118281" style="fill: #c9d1d9; stroke: #c9d1d9; stroke-width: 0.8"/>
      </g>
     </g>
     <g id="text_2">
      <!-- 20 -->
      <g style="fill: #c9d1d9" transform="translate(106.389113 164.197031) scale(0.08 -0.08)">
       <defs>
        <path id="DejaVuSans-32" d="M 1228 531 
L 3431 531 
L 3431 0 
L 469 0 
L 469 531 
Q 828 903 1448 1529 
Q 2069 2156 2228 2338 
Q 2531 2678 2651 2914 
Q 2772 3150 2772 3378 
Q 2772 3750 2511 3984 
Q 2250 4219 1831 4219 
Q 1534 4219 1204 4116 
Q 875 4013 500 3803 
L 500 4441 
Q 881 4594 1212 4672 
Q 1544 4750 1819 4750 
Q 2544 4750 2975 4387 
Q 3406 4025 3406 3419 
Q 3406 3131 3298 2873 
Q 3191 2616 2906 2266 
Q 2828 2175 2409 1742 
Q 1991 1309 1228 531 
z
" transform="scale(0.015625)"/>
       </defs>
       <use xlink:href="#DejaVuSans-32"/>
       <use xlink:href="#DejaVuSans-30" transform="translate(63.623047 0)"/>
      </g>
     </g>
    </g>
    <g id="xtick_3">
     <g id="line2d_5">
      <path d="M 170.990999 151.118281 
L 170.990999 21.558281 
" clip-path="url(#p7916d59765)" style="fill: none; stroke: #21262d; stroke-opacity: 0.5; stroke-width: 0.5; stroke-linecap: square"/>
     </g>
     <g id="line2d_6">
      <g>
       <use xlink:href="#m5cd121e9e1" x="170.990999" y="151.118281" style="fill: #c9d1d9; stroke: #c9d1d9; stroke-width: 0.8"/>
      </g>
     </g>
     <g id="text_3">
      <!-- 40 -->
      <g style="fill: #c9d1d9" transform="translate(165.900999 164.197031) scale(0.08 -0.08)">
       <defs>
        <path id="DejaVuSans-34" d="M 2419 4116 
L 825 1625 
L 2419 1625 
L 2419 4116 
z
M 2253 4666 
L 3047 4666 
L 3047 1625 
L 3713 1625 
L 3713 1100 
L 3047 1100 
L 3047 0 
L 2419 0 
L 2419 1100 
L 313 1100 
L 313 1709 
L 2253 4666 
z
" transform="scale(0.015625)"/>
       </defs>
       <use xlink:href="#DejaVuSans-34"/>
       <use xlink:href="#DejaVuSans-30" transform="translate(63.623047 0)"/>
      </g>
     </g>
    </g>
    <g id="xtick_4">
     <g id="line2d_7">
      <path d="M 230.502884 151.118281 
L 230.502884 21.558281 
" clip-path="url(#p7916d59765)" style="fill: none; stroke: #21262d; stroke-opacity: 0.5; stroke-width: 0.5; stroke-linecap: square"/>
     </g>
     <g id="line2d_8">
      <g>
       <use xlink:href="#m5cd121e9e1" x="230.502884" y="151.118281" style="fill: #c9d1d9; stroke: #c9d1d9; stroke-width: 0.8"/>
      </g>
     </g>
     <g id="text_4">
      <!-- 60 -->
      <g style="fill: #c9d1d9" transform="translate(225.412884 164.197031) scale(0.08 -0.08)">
       <defs>
        <path id="DejaVuSans-36" d="M 2113 2584 
Q 1688 2584 1439 2293 
Q 1191 2003 1191 1497 
Q 1191 994 1439 701 
Q 1688 409 2113 409 
Q 2538 409 2786 701 
Q 3034 994 3034 1497 
Q 3034 2003 2786 2293 
Q 2538 2584 2113 2584 
z
M 3366 4563 
L 3366 3988 
Q 3128 4100 2886 4159 
Q 2644 4219 2406 4219 
Q 1781 4219 1451 3797 
Q 1122 3375 1075 2522 
Q 1259 2794 1537 2939 
Q 1816 3084 2150 3084 
Q 2853 3084 3261 2657 
Q 3669 2231 3669 1497 
Q 3669 778 3244 343 
Q 2819 -91 2113 -91 
Q 1303 -91 875 529 
Q 447 1150 447 2328 
Q 447 3434 972 4092 
Q 1497 4750 2381 4750 
Q 2619 4750 2861 4703 
Q 3103 4656 3366 4563 
z
" transform="scale(0.015625)"/>
       </defs>
       <use xlink:href="#DejaVuSans-36"/>
       <use xlink:href="#DejaVuSans-30" transform="translate(63.623047 0)"/>
      </g>
     </g>
    </g>
    <g id="xtick_5">
     <g id="line2d_9">
      <path d="M 290.01477 151.118281 
L 290.01477 21.558281 
" clip-path="url(#p7916d59765)" style="fill: none; stroke: #21262d; stroke-opacity: 0.5; stroke-width: 0.5; stroke-linecap: square"/>
     </g>
     <g id="line2d_10">
      <g>
       <use xlink:href="#m5cd121e9e1" x="290.01477" y="151.118281" style="fill: #c9d1d9; stroke: #c9d1d9; stroke-width: 0.8"/>
      </g>
     </g>
     <g id="text_5">
      <!-- 80 -->
      <g style="fill: #c9d1d9" transform="translate(284.92477 164.197031) scale(0.08 -0.08)">
       <defs>
        <path id="DejaVuSans-38" d="M 2034 2216 
Q 1584 2216 1326 1975 
Q 1069 1734 1069 1313 
Q 1069 891 1326 650 
Q 1584 409 2034 409 
Q 2484 409 2743 651 
Q 3003 894 3003 1313 
Q 3003 1734 2745 1975 
Q 2488 2216 2034 2216 
z
M 1403 2484 
Q 997 2584 770 2862 
Q 544 3141 544 3541 
Q 544 4100 942 4425 
Q 1341 4750 2034 4750 
Q 2731 4750 3128 4425 
Q 3525 4100 3525 3541 
Q 3525 3141 3298 2862 
Q 3072 2584 2669 2484 
Q 3125 2378 3379 2068 
Q 3634 1759 3634 1313 
Q 3634 634 3220 271 
Q 2806 -91 2034 -91 
Q 1263 -91 848 271 
Q 434 634 434 1313 
Q 434 1759 690 2068 
Q 947 2378 1403 2484 
z
M 1172 3481 
Q 1172 3119 1398 2916 
Q 1625 2713 2034 2713 
Q 2441 2713 2670 2916 
Q 2900 3119 2900 3481 
Q 2900 3844 2670 4047 
Q 2441 4250 2034 4250 
Q 1625 4250 1398 4047 
Q 1172 3844 1172 3481 
z
" transform="scale(0.015625)"/>
       </defs>
       <use xlink:href="#DejaVuSans-38"/>
       <use xlink:href="#DejaVuSans-30" transform="translate(63.623047 0)"/>
      </g>
     </g>
    </g>
    <g id="xtick_6">
     <g id="line2d_11">
      <path d="M 349.526656 151.118281 
L 349.526656 21.558281 
" clip-path="url(#p7916d59765)" style="fill: none; stroke: #21262d; stroke-opacity: 0.5; stroke-width: 0.5; stroke-linecap: square"/>
     </g>
     <g id="line2d_12">
      <g>
       <use xlink:href="#m5cd121e9e1" x="349.526656" y="151.118281" style="fill: #c9d1d9; stroke: #c9d1d9; stroke-width: 0.8"/>
      </g>
     </g>
     <g id="text_6">
      <!-- 100 -->
      <g style="fill: #c9d1d9" transform="translate(341.891656 164.197031) scale(0.08 -0.08)">
       <defs>
        <path id="DejaVuSans-31" d="M 794 531 
L 1825 531 
L 1825 4091 
L 703 3866 
L 703 4441 
L 1819 4666 
L 2450 4666 
L 2450 531 
L 3481 531 
L 3481 0 
L 794 0 
L 794 531 
z
" transform="scale(0.015625)"/>
       </defs>
       <use xlink:href="#DejaVuSans-31"/>
       <use xlink:href="#DejaVuSans-30" transform="translate(63.623047 0)"/>
       <use xlink:href="#DejaVuSans-30" transform="translate(127.246094 0)"/>
      </g>
     </g>
    </g>
    <g id="xtick_7">
     <g id="line2d_13">
      <path d="M 409.038542 151.118281 
L 409.038542 21.558281 
" clip-path="url(#p7916d59765)" style="fill: none; stroke: #21262d; stroke-opacity: 0.5; stroke-width: 0.5; stroke-linecap: square"/>
     </g>
     <g id="line2d_14">
      <g>
       <use xlink:href="#m5cd121e9e1" x="409.038542" y="151.118281" style="fill: #c9d1d9; stroke: #c9d1d9; stroke-width: 0.8"/>
      </g>
     </g>
     <g id="text_7">
      <!-- 120 -->
      <g style="fill: #c9d1d9" transform="translate(401.403542 164.197031) scale(0.08 -0.08)">
       <use xlink:href="#DejaVuSans-31"/>
       <use xlink:href="#DejaVuSans-32" transform="translate(63.623047 0)"/>
       <use xlink:href="#DejaVuSans-30" transform="translate(127.246094 0)"/>
      </g>
     </g>
    </g>
   </g>
   <g id="matplotlib.axis_2">
    <g id="ytick_1">
     <g id="line2d_15">
      <path d="M 34.56 145.22919 
L 417.518986 145.22919 
" clip-path="url(#p7916d59765)" style="fill: none; stroke: #21262d; stroke-opacity: 0.5; stroke-width: 0.5; stroke-linecap: square"/>
     </g>
     <g id="line2d_16">
      <defs>
       <path id="m2fd550247d" d="M 0 0 
L -3.5 0 
" style="stroke: #c9d1d9; stroke-width: 0.8"/>
      </defs>
      <g>
       <use xlink:href="#m2fd550247d" x="34.56" y="145.22919" style="fill: #c9d1d9; stroke: #c9d1d9; stroke-width: 0.8"/>
      </g>
     </g>
     <g id="text_8">
      <!-- $0 -->
      <g style="fill: #c9d1d9" transform="translate(17.38 148.268565) scale(0.08 -0.08)">
       <defs>
        <path id="DejaVuSans-24" d="M 2163 -941 
L 1850 -941 
L 1847 0 
Q 1519 6 1191 76 
Q 863 147 531 288 
L 531 850 
Q 850 650 1176 548 
Q 1503 447 1850 444 
L 1850 1869 
Q 1159 1981 845 2250 
Q 531 2519 531 2988 
Q 531 3497 872 3790 
Q 1213 4084 1850 4128 
L 1850 4863 
L 2163 4863 
L 2163 4138 
Q 2453 4125 2725 4076 
Q 2997 4028 3256 3944 
L 3256 3397 
Q 2997 3528 2723 3600 
Q 2450 3672 2163 3684 
L 2163 2350 
Q 2872 2241 3206 1959 
Q 3541 1678 3541 1191 
Q 3541 663 3186 358 
Q 2831 53 2163 6 
L 2163 -941 
z
M 1850 2406 
L 1850 3688 
Q 1488 3647 1297 3481 
Q 1106 3316 1106 3041 
Q 1106 2772 1282 2622 
Q 1459 2472 1850 2406 
z
M 2163 1806 
L 2163 453 
Q 2559 506 2761 678 
Q 2963 850 2963 1131 
Q 2963 1406 2770 1568 
Q 2578 1731 2163 1806 
z
" transform="scale(0.015625)"/>
       </defs>
       <use xlink:href="#DejaVuSans-24"/>
       <use xlink:href="#DejaVuSans-30" transform="translate(63.623047 0)"/>
      </g>
     </g>
    </g>
    <g id="ytick_2">
     <g id="line2d_17">
      <path d="M 34.56 120.438759 
L 417.518986 120.438759 
" clip-path="url(#p7916d59765)" style="fill: none; stroke: #21262d; stroke-opacity: 0.5; stroke-width: 0.5; stroke-linecap: square"/>
     </g>
     <g id="line2d_18">
      <g>
       <use xlink:href="#m2fd550247d" x="34.56" y="120.438759" style="fill: #c9d1d9; stroke: #c9d1d9; stroke-width: 0.8"/>
      </g>
     </g>
     <g id="text_9">
      <!-- $100 -->
      <g style="fill: #c9d1d9" transform="translate(7.2 123.478134) scale(0.08 -0.08)">
       <use xlink:href="#DejaVuSans-24"/>
       <use xlink:href="#DejaVuSans-31" transform="translate(63.623047 0)"/>
       <use xlink:href="#DejaVuSans-30" transform="translate(127.246094 0)"/>
       <use xlink:href="#DejaVuSans-30" transform="translate(190.869141 0)"/>
      </g>
     </g>
    </g>
    <g id="ytick_3">
     <g id="line2d_19">
      <path d="M 34.56 95.648328 
L 417.518986 95.648328 
" clip-path="url(#p7916d59765)" style="fill: none; stroke: #21262d; stroke-opacity: 0.5; stroke-width: 0.5; stroke-linecap: square"/>
     </g>
     <g id="line2d_20">
      <g>
       <use xlink:href="#m2fd550247d" x="34.56" y="95.648328" style="fill: #c9d1d9; stroke: #c9d1d9; stroke-width: 0.8"/>
      </g>
     </g>
     <g id="text_10">
      <!-- $200 -->
      <g style="fill: #c9d1d9" transform="translate(7.2 98.687703) scale(0.08 -0.08)">
       <use xlink:href="#DejaVuSans-24"/>
       <use xlink:href="#DejaVuSans-32" transform="translate(63.623047 0)"/>
       <use xlink:href="#DejaVuSans-30" transform="translate(127.246094 0)"/>
       <use xlink:href="#DejaVuSans-30" transform="translate(190.869141 0)"/>
      </g>
     </g>
    </g>
    <g id="ytick_4">
     <g id="line2d_21">
      <path d="M 34.56 70.857896 
L 417.518986 70.857896 
" clip-path="url(#p7916d59765)" style="fill: none; stroke: #21262d; stroke-opacity: 0.5; stroke-width: 0.5; stroke-linecap: square"/>
     </g>
     <g id="line2d_22">
      <g>
       <use xlink:href="#m2fd550247d" x="34.56" y="70.857896" style="fill: #c9d1d9; stroke: #c9d1d9; stroke-width: 0.8"/>
      </g>
     </g>
     <g id="text_11">
      <!-- $300 -->
      <g style="fill: #c9d1d9" transform="translate(7.2 73.897271) scale(0.08 -0.08)">
       <defs>
        <path id="DejaVuSans-33" d="M 2597 2516 
Q 3050 2419 3304 2112 
Q 3559 1806 3559 1356 
Q 3559 666 3084 287 
Q 2609 -91 1734 -91 
Q 1441 -91 1130 -33 
Q 819 25 488 141 
L 488 750 
Q 750 597 1062 519 
Q 1375 441 1716 441 
Q 2309 441 2620 675 
Q 2931 909 2931 1356 
Q 2931 1769 2642 2001 
Q 2353 2234 1838 2234 
L 1294 2234 
L 1294 2753 
L 1863 2753 
Q 2328 2753 2575 2939 
Q 2822 3125 2822 3475 
Q 2822 3834 2567 4026 
Q 2313 4219 1838 4219 
Q 1578 4219 1281 4162 
Q 984 4106 628 3988 
L 628 4550 
Q 988 4650 1302 4700 
Q 1616 4750 1894 4750 
Q 2613 4750 3031 4423 
Q 3450 4097 3450 3541 
Q 3450 3153 3228 2886 
Q 3006 2619 2597 2516 
z
" transform="scale(0.015625)"/>
       </defs>
       <use xlink:href="#DejaVuSans-24"/>
       <use xlink:href="#DejaVuSans-33" transform="translate(63.623047 0)"/>
       <use xlink:href="#DejaVuSans-30" transform="translate(127.246094 0)"/>
       <use xlink:href="#DejaVuSans-30" transform="translate(190.869141 0)"/>
      </g>
     </g>
    </g>
    <g id="ytick_5">
     <g id="line2d_23">
      <path d="M 34.56 46.067465 
L 417.518986 46.067465 
" clip-path="url(#p7916d59765)" style="fill: none; stroke: #21262d; stroke-opacity: 0.5; stroke-width: 0.5; stroke-linecap: square"/>
     </g>
     <g id="line2d_24">
      <g>
       <use xlink:href="#m2fd550247d" x="34.56" y="46.067465" style="fill: #c9d1d9; stroke: #c9d1d9; stroke-width: 0.8"/>
      </g>
     </g>
     <g id="text_12">
      <!-- $400 -->
      <g style="fill: #c9d1d9" transform="translate(7.2 49.10684) scale(0.08 -0.08)">
       <use xlink:href="#DejaVuSans-24"/>
       <use xlink:href="#DejaVuSans-34" transform="translate(63.623047 0)"/>
       <use xlink:href="#DejaVuSans-30" transform="translate(127.246094 0)"/>
       <use xlink:href="#DejaVuSans-30" transform="translate(190.869141 0)"/>
      </g>
     </g>
    </g>
   </g>
   <g id="line2d_25">
    <path d="M 51.967227 91.65211 
L 54.942821 91.632278 
L 57.918415 90.092792 
L 60.89401 87.705474 
L 63.869604 89.267271 
L 66.845198 87.76745 
L 69.820792 89.889511 
L 72.796387 88.664863 
L 75.771981 98.256281 
L 78.747575 86.364311 
L 81.72317 92.648686 
L 84.698764 95.710304 
L 87.674358 90.429942 
L 90.649952 96.922556 
L 93.625547 91.188529 
L 96.601141 88.255821 
L 99.576735 95.378112 
L 102.55233 88.255821 
L 105.527924 91.002601 
L 108.503518 81.93674 
L 111.479113 81.693794 
L 114.454707 27.447372 
L 117.430301 36.225664 
L 120.405895 29.859481 
L 123.38149 55.455601 
L 126.357084 59.962502 
L 129.332678 72.925418 
L 132.308273 82.254058 
L 135.283867 81.103782 
L 138.259461 81.554968 
L 141.235056 82.006153 
L 144.21065 86.131281 
L 147.186244 84.626502 
L 150.161838 85.350383 
L 153.137433 85.350383 
L 156.113027 84.143089 
L 159.088621 87.474923 
L 162.064216 85.023149 
L 165.03981 89.949008 
L 168.015404 86.203173 
L 170.990999 87.132815 
L 173.966593 89.163151 
L 176.942187 87.266683 
L 179.917781 87.66333 
L 182.893376 87.86909 
L 185.86897 86.986551 
L 188.844564 88.516121 
L 191.820159 85.283448 
L 194.795753 89.388744 
L 197.771347 61.903593 
L 200.746941 70.369525 
L 203.722536 83.991867 
L 206.69813 84.8397 
L 209.673724 85.630514 
L 212.649319 87.745138 
L 215.624913 89.42345 
L 218.600507 92.388386 
L 221.576102 90.975331 
L 224.551696 93.117225 
L 227.52729 93.270925 
L 230.502884 91.644673 
L 233.478479 93.95762 
L 236.454073 92.55944 
L 239.429667 91.557907 
L 242.405262 91.347188 
L 245.380856 93.062686 
L 248.35645 93.382482 
L 251.332045 92.061152 
L 254.307639 92.586709 
L 257.283233 92.22229 
L 260.258827 90.948062 
L 263.234422 91.728961 
L 266.210016 94.143549 
L 269.18561 93.31059 
L 272.161205 93.657656 
L 275.136799 92.995752 
L 278.112393 100.180019 
L 281.087988 94.701333 
L 284.063582 91.602529 
L 287.039176 93.203991 
L 290.01477 91.503368 
L 292.990365 93.280842 
L 295.965959 91.632278 
L 298.941553 94.06174 
L 301.917148 92.594147 
L 304.892742 91.788458 
L 307.868336 92.66356 
L 310.84393 90.682804 
L 313.819525 93.496518 
L 316.795119 90.484481 
L 319.770713 93.226303 
L 322.746308 91.567823 
L 325.721902 95.921022 
L 328.697496 91.322397 
L 331.673091 94.780663 
L 334.648685 94.850076 
L 337.624279 92.321452 
L 340.599873 92.346242 
L 343.575468 93.161847 
L 346.551062 91.369499 
L 349.526656 91.815727 
L 352.502251 89.034241 
L 355.477845 87.108024 
L 358.453439 85.804047 
L 361.429034 86.230443 
L 364.404628 88.535953 
L 367.380222 86.793186 
L 370.355816 89.106133 
L 373.331411 90.196912 
L 376.307005 88.454145 
L 379.282599 89.953966 
L 382.258194 89.661439 
L 385.233788 96.305274 
L 388.209382 90.380361 
L 391.184976 96.865538 
L 394.160571 91.091846 
L 397.136165 98.110018 
L 400.111759 94.909573 
" clip-path="url(#p7916d59765)" style="fill: none; stroke: #f85149; stroke-width: 2; stroke-linecap: square"/>
   </g>
   <g id="patch_3">
    <path d="M 34.56 151.118281 
L 34.56 21.558281 
" style="fill: none; stroke: #21262d; stroke-width: 0.8; stroke-linejoin: miter; stroke-linecap: square"/>
   </g>
   <g id="patch_4">
    <path d="M 34.56 151.118281 
L 417.518986 151.118281 
" style="fill: none; stroke: #21262d; stroke-width: 0.8; stroke-linejoin: miter; stroke-linecap: square"/>
   </g>
   <g id="text_13">
    <!-- PRETEXT (chenglou/pretext) — $202.98 (+6.79%) -->
    <g style="fill: #c9d1d9" transform="translate(73.299337 15.558281) scale(0.11 -0.11)">
     <defs>
      <path id="DejaVuSans-Bold-50" d="M 588 4666 
L 2584 4666 
Q 3475 4666 3951 4270 
Q 4428 3875 4428 3144 
Q 4428 2409 3951 2014 
Q 3475 1619 2584 1619 
L 1791 1619 
L 1791 0 
L 588 0 
L 588 4666 
z
M 1791 3794 
L 1791 2491 
L 2456 2491 
Q 2806 2491 2997 2661 
Q 3188 2831 3188 3144 
Q 3188 3456 2997 3625 
Q 2806 3794 2456 3794 
L 1791 3794 
z
" transform="scale(0.015625)"/>
      <path id="DejaVuSans-Bold-52" d="M 2297 2597 
Q 2675 2597 2839 2737 
Q 3003 2878 3003 3200 
Q 3003 3519 2839 3656 
Q 2675 3794 2297 3794 
L 1791 3794 
L 1791 2597 
L 2297 2597 
z
M 1791 1766 
L 1791 0 
L 588 0 
L 588 4666 
L 2425 4666 
Q 3347 4666 3776 4356 
Q 4206 4047 4206 3378 
Q 4206 2916 3982 2619 
Q 3759 2322 3309 2181 
Q 3556 2125 3751 1926 
Q 3947 1728 4147 1325 
L 4800 0 
L 3519 0 
L 2950 1159 
Q 2778 1509 2601 1637 
Q 2425 1766 2131 1766 
L 1791 1766 
z
" transform="scale(0.015625)"/>
      <path id="DejaVuSans-Bold-45" d="M 588 4666 
L 3834 4666 
L 3834 3756 
L 1791 3756 
L 1791 2888 
L 3713 2888 
L 3713 1978 
L 1791 1978 
L 1791 909 
L 3903 909 
L 3903 0 
L 588 0 
L 588 4666 
z
" transform="scale(0.015625)"/>
      <path id="DejaVuSans-Bold-54" d="M 31 4666 
L 4331 4666 
L 4331 3756 
L 2784 3756 
L 2784 0 
L 1581 0 
L 1581 3756 
L 31 3756 
L 31 4666 
z
" transform="scale(0.015625)"/>
      <path id="DejaVuSans-Bold-58" d="M 3188 2381 
L 4806 0 
L 3553 0 
L 2463 1594 
L 1381 0 
L 122 0 
L 1741 2381 
L 184 4666 
L 1441 4666 
L 2463 3163 
L 3481 4666 
L 4744 4666 
L 3188 2381 
z
" transform="scale(0.015625)"/>
      <path id="DejaVuSans-Bold-20" transform="scale(0.015625)"/>
      <path id="DejaVuSans-Bold-28" d="M 2413 -844 
L 1484 -844 
Q 1006 -72 778 623 
Q 550 1319 550 2003 
Q 550 2688 779 3389 
Q 1009 4091 1484 4856 
L 2413 4856 
Q 2013 4116 1813 3408 
Q 1613 2700 1613 2009 
Q 1613 1319 1811 609 
Q 2009 -100 2413 -844 
z
" transform="scale(0.015625)"/>
      <path id="DejaVuSans-Bold-63" d="M 3366 3391 
L 3366 2478 
Q 3138 2634 2908 2709 
Q 2678 2784 2431 2784 
Q 1963 2784 1702 2511 
Q 1441 2238 1441 1747 
Q 1441 1256 1702 982 
Q 1963 709 2431 709 
Q 2694 709 2930 787 
Q 3166 866 3366 1019 
L 3366 103 
Q 3103 6 2833 -42 
Q 2563 -91 2291 -91 
Q 1344 -91 809 395 
Q 275 881 275 1747 
Q 275 2613 809 3098 
Q 1344 3584 2291 3584 
Q 2566 3584 2833 3536 
Q 3100 3488 3366 3391 
z
" transform="scale(0.015625)"/>
      <path id="DejaVuSans-Bold-68" d="M 4056 2131 
L 4056 0 
L 2931 0 
L 2931 347 
L 2931 1625 
Q 2931 2084 2911 2256 
Q 2891 2428 2841 2509 
Q 2775 2619 2662 2680 
Q 2550 2741 2406 2741 
Q 2056 2741 1856 2470 
Q 1656 2200 1656 1722 
L 1656 0 
L 538 0 
L 538 4863 
L 1656 4863 
L 1656 2988 
Q 1909 3294 2193 3439 
Q 2478 3584 2822 3584 
Q 3428 3584 3742 3212 
Q 4056 2841 4056 2131 
z
" transform="scale(0.015625)"/>
      <path id="DejaVuSans-Bold-65" d="M 4031 1759 
L 4031 1441 
L 1416 1441 
Q 1456 1047 1700 850 
Q 1944 653 2381 653 
Q 2734 653 3104 758 
Q 3475 863 3866 1075 
L 3866 213 
Q 3469 63 3072 -14 
Q 2675 -91 2278 -91 
Q 1328 -91 801 392 
Q 275 875 275 1747 
Q 275 2603 792 3093 
Q 1309 3584 2216 3584 
Q 3041 3584 3536 3087 
Q 4031 2591 4031 1759 
z
M 2881 2131 
Q 2881 2450 2695 2645 
Q 2509 2841 2209 2841 
Q 1884 2841 1681 2658 
Q 1478 2475 1428 2131 
L 2881 2131 
z
" transform="scale(0.015625)"/>
      <path id="DejaVuSans-Bold-6e" d="M 4056 2131 
L 4056 0 
L 2931 0 
L 2931 347 
L 2931 1631 
Q 2931 2084 2911 2256 
Q 2891 2428 2841 2509 
Q 2775 2619 2662 2680 
Q 2550 2741 2406 2741 
Q 2056 2741 1856 2470 
Q 1656 2200 1656 1722 
L 1656 0 
L 538 0 
L 538 3500 
L 1656 3500 
L 1656 2988 
Q 1909 3294 2193 3439 
Q 2478 3584 2822 3584 
Q 3428 3584 3742 3212 
Q 4056 2841 4056 2131 
z
" transform="scale(0.015625)"/>
      <path id="DejaVuSans-Bold-67" d="M 2919 594 
Q 2688 288 2409 144 
Q 2131 0 1766 0 
Q 1125 0 706 504 
Q 288 1009 288 1791 
Q 288 2575 706 3076 
Q 1125 3578 1766 3578 
Q 2131 3578 2409 3434 
Q 2688 3291 2919 2981 
L 2919 3500 
L 4044 3500 
L 4044 353 
Q 4044 -491 3511 -936 
Q 2978 -1381 1966 -1381 
Q 1638 -1381 1331 -1331 
Q 1025 -1281 716 -1178 
L 716 -306 
Q 1009 -475 1290 -558 
Q 1572 -641 1856 -641 
Q 2406 -641 2662 -400 
Q 2919 -159 2919 353 
L 2919 594 
z
M 2181 2772 
Q 1834 2772 1640 2515 
Q 1447 2259 1447 1791 
Q 1447 1309 1634 1061 
Q 1822 813 2181 813 
Q 2531 813 2725 1069 
Q 2919 1325 2919 1791 
Q 2919 2259 2725 2515 
Q 2531 2772 2181 2772 
z
" transform="scale(0.015625)"/>
      <path id="DejaVuSans-Bold-6c" d="M 538 4863 
L 1656 4863 
L 1656 0 
L 538 0 
L 538 4863 
z
" transform="scale(0.015625)"/>
      <path id="DejaVuSans-Bold-6f" d="M 2203 2784 
Q 1831 2784 1636 2517 
Q 1441 2250 1441 1747 
Q 1441 1244 1636 976 
Q 1831 709 2203 709 
Q 2569 709 2762 976 
Q 2956 1244 2956 1747 
Q 2956 2250 2762 2517 
Q 2569 2784 2203 2784 
z
M 2203 3584 
Q 3106 3584 3614 3096 
Q 4122 2609 4122 1747 
Q 4122 884 3614 396 
Q 3106 -91 2203 -91 
Q 1297 -91 786 396 
Q 275 884 275 1747 
Q 275 2609 786 3096 
Q 1297 3584 2203 3584 
z
" transform="scale(0.015625)"/>
      <path id="DejaVuSans-Bold-75" d="M 500 1363 
L 500 3500 
L 1625 3500 
L 1625 3150 
Q 1625 2866 1622 2436 
Q 1619 2006 1619 1863 
Q 1619 1441 1641 1255 
Q 1663 1069 1716 984 
Q 1784 875 1895 815 
Q 2006 756 2150 756 
Q 2500 756 2700 1025 
Q 2900 1294 2900 1772 
L 2900 3500 
L 4019 3500 
L 4019 0 
L 2900 0 
L 2900 506 
Q 2647 200 2364 54 
Q 2081 -91 1741 -91 
Q 1134 -91 817 281 
Q 500 653 500 1363 
z
" transform="scale(0.015625)"/>
      <path id="DejaVuSans-Bold-2f" d="M 1644 4666 
L 2338 4666 
L 691 -594 
L 0 -594 
L 1644 4666 
z
" transform="scale(0.015625)"/>
      <path id="DejaVuSans-Bold-70" d="M 1656 506 
L 1656 -1331 
L 538 -1331 
L 538 3500 
L 1656 3500 
L 1656 2988 
Q 1888 3294 2169 3439 
Q 2450 3584 2816 3584 
Q 3463 3584 3878 3070 
Q 4294 2556 4294 1747 
Q 4294 938 3878 423 
Q 3463 -91 2816 -91 
Q 2450 -91 2169 54 
Q 1888 200 1656 506 
z
M 2400 2772 
Q 2041 2772 1848 2508 
Q 1656 2244 1656 1747 
Q 1656 1250 1848 986 
Q 2041 722 2400 722 
Q 2759 722 2948 984 
Q 3138 1247 3138 1747 
Q 3138 2247 2948 2509 
Q 2759 2772 2400 2772 
z
" transform="scale(0.015625)"/>
      <path id="DejaVuSans-Bold-72" d="M 3138 2547 
Q 2991 2616 2845 2648 
Q 2700 2681 2553 2681 
Q 2122 2681 1889 2404 
Q 1656 2128 1656 1613 
L 1656 0 
L 538 0 
L 538 3500 
L 1656 3500 
L 1656 2925 
Q 1872 3269 2151 3426 
Q 2431 3584 2822 3584 
Q 2878 3584 2943 3579 
Q 3009 3575 3134 3559 
L 3138 2547 
z
" transform="scale(0.015625)"/>
      <path id="DejaVuSans-Bold-74" d="M 1759 4494 
L 1759 3500 
L 2913 3500 
L 2913 2700 
L 1759 2700 
L 1759 1216 
Q 1759 972 1856 886 
Q 1953 800 2241 800 
L 2816 800 
L 2816 0 
L 1856 0 
Q 1194 0 917 276 
Q 641 553 641 1216 
L 641 2700 
L 84 2700 
L 84 3500 
L 641 3500 
L 641 4494 
L 1759 4494 
z
" transform="scale(0.015625)"/>
      <path id="DejaVuSans-Bold-78" d="M 1422 1791 
L 159 3500 
L 1344 3500 
L 2059 2463 
L 2784 3500 
L 3969 3500 
L 2706 1797 
L 4031 0 
L 2847 0 
L 2059 1106 
L 1281 0 
L 97 0 
L 1422 1791 
z
" transform="scale(0.015625)"/>
      <path id="DejaVuSans-Bold-29" d="M 513 -844 
Q 913 -100 1113 609 
Q 1313 1319 1313 2009 
Q 1313 2700 1113 3408 
Q 913 4116 513 4856 
L 1441 4856 
Q 1916 4091 2145 3389 
Q 2375 2688 2375 2003 
Q 2375 1319 2147 623 
Q 1919 -72 1441 -844 
L 513 -844 
z
" transform="scale(0.015625)"/>
      <path id="DejaVuSans-Bold-2014" d="M 344 2156 
L 6056 2156 
L 6056 1350 
L 344 1350 
L 344 2156 
z
" transform="scale(0.015625)"/>
      <path id="DejaVuSans-Bold-24" d="M 2484 -941 
L 1978 -941 
L 1975 0 
Q 1584 16 1218 87 
Q 853 159 506 288 
L 506 1106 
Q 866 922 1233 823 
Q 1600 725 1978 713 
L 1978 1684 
L 1875 1703 
Q 1128 1834 814 2115 
Q 500 2397 500 2925 
Q 500 3484 883 3798 
Q 1266 4113 1975 4141 
L 1978 4863 
L 2484 4863 
L 2484 4153 
Q 2797 4128 3109 4075 
Q 3422 4022 3738 3938 
L 3738 3144 
Q 3425 3275 3112 3348 
Q 2800 3422 2484 3438 
L 2484 2541 
L 2584 2522 
Q 3378 2397 3698 2105 
Q 4019 1813 4019 1241 
Q 4019 666 3637 358 
Q 3256 50 2484 6 
L 2484 -941 
z
M 1978 2613 
L 1978 3428 
Q 1756 3416 1623 3308 
Q 1491 3200 1491 3034 
Q 1491 2850 1612 2745 
Q 1734 2641 1978 2613 
z
M 2484 1594 
L 2484 725 
Q 2756 728 2892 831 
Q 3028 934 3028 1141 
Q 3028 1353 2903 1458 
Q 2778 1563 2484 1594 
z
" transform="scale(0.015625)"/>
      <path id="DejaVuSans-Bold-32" d="M 1844 884 
L 3897 884 
L 3897 0 
L 506 0 
L 506 884 
L 2209 2388 
Q 2438 2594 2547 2791 
Q 2656 2988 2656 3200 
Q 2656 3528 2436 3728 
Q 2216 3928 1850 3928 
Q 1569 3928 1234 3808 
Q 900 3688 519 3450 
L 519 4475 
Q 925 4609 1322 4679 
Q 1719 4750 2100 4750 
Q 2938 4750 3402 4381 
Q 3866 4013 3866 3353 
Q 3866 2972 3669 2642 
Q 3472 2313 2841 1759 
L 1844 884 
z
" transform="scale(0.015625)"/>
      <path id="DejaVuSans-Bold-30" d="M 2944 2338 
Q 2944 3213 2780 3570 
Q 2616 3928 2228 3928 
Q 1841 3928 1675 3570 
Q 1509 3213 1509 2338 
Q 1509 1453 1675 1090 
Q 1841 728 2228 728 
Q 2613 728 2778 1090 
Q 2944 1453 2944 2338 
z
M 4147 2328 
Q 4147 1169 3647 539 
Q 3147 -91 2228 -91 
Q 1306 -91 806 539 
Q 306 1169 306 2328 
Q 306 3491 806 4120 
Q 1306 4750 2228 4750 
Q 3147 4750 3647 4120 
Q 4147 3491 4147 2328 
z
" transform="scale(0.015625)"/>
      <path id="DejaVuSans-Bold-2e" d="M 653 1209 
L 1778 1209 
L 1778 0 
L 653 0 
L 653 1209 
z
" transform="scale(0.015625)"/>
      <path id="DejaVuSans-Bold-39" d="M 641 103 
L 641 966 
Q 928 831 1190 764 
Q 1453 697 1709 697 
Q 2247 697 2547 995 
Q 2847 1294 2900 1881 
Q 2688 1725 2447 1647 
Q 2206 1569 1925 1569 
Q 1209 1569 770 1986 
Q 331 2403 331 3084 
Q 331 3838 820 4291 
Q 1309 4744 2131 4744 
Q 3044 4744 3544 4128 
Q 4044 3513 4044 2388 
Q 4044 1231 3459 570 
Q 2875 -91 1856 -91 
Q 1528 -91 1228 -42 
Q 928 6 641 103 
z
M 2125 2350 
Q 2441 2350 2600 2554 
Q 2759 2759 2759 3169 
Q 2759 3575 2600 3781 
Q 2441 3988 2125 3988 
Q 1809 3988 1650 3781 
Q 1491 3575 1491 3169 
Q 1491 2759 1650 2554 
Q 1809 2350 2125 2350 
z
" transform="scale(0.015625)"/>
      <path id="DejaVuSans-Bold-38" d="M 2228 2088 
Q 1891 2088 1709 1903 
Q 1528 1719 1528 1375 
Q 1528 1031 1709 848 
Q 1891 666 2228 666 
Q 2563 666 2741 848 
Q 2919 1031 2919 1375 
Q 2919 1722 2741 1905 
Q 2563 2088 2228 2088 
z
M 1350 2484 
Q 925 2613 709 2878 
Q 494 3144 494 3541 
Q 494 4131 934 4440 
Q 1375 4750 2228 4750 
Q 3075 4750 3515 4442 
Q 3956 4134 3956 3541 
Q 3956 3144 3739 2878 
Q 3522 2613 3097 2484 
Q 3572 2353 3814 2058 
Q 4056 1763 4056 1313 
Q 4056 619 3595 264 
Q 3134 -91 2228 -91 
Q 1319 -91 855 264 
Q 391 619 391 1313 
Q 391 1763 633 2058 
Q 875 2353 1350 2484 
z
M 1631 3419 
Q 1631 3141 1786 2991 
Q 1941 2841 2228 2841 
Q 2509 2841 2662 2991 
Q 2816 3141 2816 3419 
Q 2816 3697 2662 3845 
Q 2509 3994 2228 3994 
Q 1941 3994 1786 3844 
Q 1631 3694 1631 3419 
z
" transform="scale(0.015625)"/>
      <path id="DejaVuSans-Bold-2b" d="M 3053 4013 
L 3053 2375 
L 4684 2375 
L 4684 1638 
L 3053 1638 
L 3053 0 
L 2309 0 
L 2309 1638 
L 678 1638 
L 678 2375 
L 2309 2375 
L 2309 4013 
L 3053 4013 
z
" transform="scale(0.015625)"/>
      <path id="DejaVuSans-Bold-36" d="M 2316 2303 
Q 2000 2303 1842 2098 
Q 1684 1894 1684 1484 
Q 1684 1075 1842 870 
Q 2000 666 2316 666 
Q 2634 666 2792 870 
Q 2950 1075 2950 1484 
Q 2950 1894 2792 2098 
Q 2634 2303 2316 2303 
z
M 3803 4544 
L 3803 3681 
Q 3506 3822 3243 3889 
Q 2981 3956 2731 3956 
Q 2194 3956 1894 3657 
Q 1594 3359 1544 2772 
Q 1750 2925 1990 3001 
Q 2231 3078 2516 3078 
Q 3231 3078 3670 2659 
Q 4109 2241 4109 1563 
Q 4109 813 3618 361 
Q 3128 -91 2303 -91 
Q 1394 -91 895 523 
Q 397 1138 397 2266 
Q 397 3422 980 4083 
Q 1563 4744 2578 4744 
Q 2900 4744 3203 4694 
Q 3506 4644 3803 4544 
z
" transform="scale(0.015625)"/>
      <path id="DejaVuSans-Bold-37" d="M 428 4666 
L 3944 4666 
L 3944 3988 
L 2125 0 
L 953 0 
L 2675 3781 
L 428 3781 
L 428 4666 
z
" transform="scale(0.015625)"/>
      <path id="DejaVuSans-Bold-25" d="M 4959 1925 
Q 4738 1925 4616 1733 
Q 4494 1541 4494 1184 
Q 4494 825 4614 633 
Q 4734 441 4959 441 
Q 5184 441 5303 633 
Q 5422 825 5422 1184 
Q 5422 1541 5301 1733 
Q 5181 1925 4959 1925 
z
M 4959 2450 
Q 5541 2450 5875 2112 
Q 6209 1775 6209 1184 
Q 6209 594 5875 251 
Q 5541 -91 4959 -91 
Q 4378 -91 4042 251 
Q 3706 594 3706 1184 
Q 3706 1772 4042 2111 
Q 4378 2450 4959 2450 
z
M 2094 -91 
L 1403 -91 
L 4319 4750 
L 5013 4750 
L 2094 -91 
z
M 1453 4750 
Q 2034 4750 2367 4411 
Q 2700 4072 2700 3481 
Q 2700 2891 2367 2550 
Q 2034 2209 1453 2209 
Q 872 2209 539 2550 
Q 206 2891 206 3481 
Q 206 4072 539 4411 
Q 872 4750 1453 4750 
z
M 1453 4225 
Q 1228 4225 1106 4031 
Q 984 3838 984 3481 
Q 984 3122 1106 2926 
Q 1228 2731 1453 2731 
Q 1678 2731 1798 2926 
Q 1919 3122 1919 3481 
Q 1919 3838 1797 4031 
Q 1675 4225 1453 4225 
z
" transform="scale(0.015625)"/>
     </defs>
     <use xlink:href="#DejaVuSans-Bold-50"/>
     <use xlink:href="#DejaVuSans-Bold-52" transform="translate(73.291016 0)"/>
     <use xlink:href="#DejaVuSans-Bold-45" transform="translate(150.292969 0)"/>
     <use xlink:href="#DejaVuSans-Bold-54" transform="translate(218.603516 0)"/>
     <use xlink:href="#DejaVuSans-Bold-45" transform="translate(286.816406 0)"/>
     <use xlink:href="#DejaVuSans-Bold-58" transform="translate(355.126953 0)"/>
     <use xlink:href="#DejaVuSans-Bold-54" transform="translate(432.226562 0)"/>
     <use xlink:href="#DejaVuSans-Bold-20" transform="translate(500.439453 0)"/>
     <use xlink:href="#DejaVuSans-Bold-28" transform="translate(535.253906 0)"/>
     <use xlink:href="#DejaVuSans-Bold-63" transform="translate(580.957031 0)"/>
     <use xlink:href="#DejaVuSans-Bold-68" transform="translate(640.234375 0)"/>
     <use xlink:href="#DejaVuSans-Bold-65" transform="translate(711.425781 0)"/>
     <use xlink:href="#DejaVuSans-Bold-6e" transform="translate(779.248047 0)"/>
     <use xlink:href="#DejaVuSans-Bold-67" transform="translate(850.439453 0)"/>
     <use xlink:href="#DejaVuSans-Bold-6c" transform="translate(922.021484 0)"/>
     <use xlink:href="#DejaVuSans-Bold-6f" transform="translate(956.298828 0)"/>
     <use xlink:href="#DejaVuSans-Bold-75" transform="translate(1025 0)"/>
     <use xlink:href="#DejaVuSans-Bold-2f" transform="translate(1096.191406 0)"/>
     <use xlink:href="#DejaVuSans-Bold-70" transform="translate(1132.714844 0)"/>
     <use xlink:href="#DejaVuSans-Bold-72" transform="translate(1204.296875 0)"/>
     <use xlink:href="#DejaVuSans-Bold-65" transform="translate(1253.613281 0)"/>
     <use xlink:href="#DejaVuSans-Bold-74" transform="translate(1321.435547 0)"/>
     <use xlink:href="#DejaVuSans-Bold-65" transform="translate(1369.238281 0)"/>
     <use xlink:href="#DejaVuSans-Bold-78" transform="translate(1437.060547 0)"/>
     <use xlink:href="#DejaVuSans-Bold-74" transform="translate(1501.5625 0)"/>
     <use xlink:href="#DejaVuSans-Bold-29" transform="translate(1549.365234 0)"/>
     <use xlink:href="#DejaVuSans-Bold-20" transform="translate(1595.068359 0)"/>
     <use xlink:href="#DejaVuSans-Bold-2014" transform="translate(1629.882812 0)"/>
     <use xlink:href="#DejaVuSans-Bold-20" transform="translate(1729.882812 0)"/>
     <use xlink:href="#DejaVuSans-Bold-24" transform="translate(1764.697266 0)"/>
     <use xlink:href="#DejaVuSans-Bold-32" transform="translate(1834.277344 0)"/>
     <use xlink:href="#DejaVuSans-Bold-30" transform="translate(1903.857422 0)"/>
     <use xlink:href="#DejaVuSans-Bold-32" transform="translate(1973.4375 0)"/>
     <use xlink:href="#DejaVuSans-Bold-2e" transform="translate(2043.017578 0)"/>
     <use xlink:href="#DejaVuSans-Bold-39" transform="translate(2081.005859 0)"/>
     <use xlink:href="#DejaVuSans-Bold-38" transform="translate(2150.585938 0)"/>
     <use xlink:href="#DejaVuSans-Bold-20" transform="translate(2220.166016 0)"/>
     <use xlink:href="#DejaVuSans-Bold-28" transform="translate(2254.980469 0)"/>
     <use xlink:href="#DejaVuSans-Bold-2b" transform="translate(2300.683594 0)"/>
     <use xlink:href="#DejaVuSans-Bold-36" transform="translate(2384.472656 0)"/>
     <use xlink:href="#DejaVuSans-Bold-2e" transform="translate(2454.052734 0)"/>
     <use xlink:href="#DejaVuSans-Bold-37" transform="translate(2492.041016 0)"/>
     <use xlink:href="#DejaVuSans-Bold-39" transform="translate(2561.621094 0)"/>
     <use xlink:href="#DejaVuSans-Bold-25" transform="translate(2631.201172 0)"/>
     <use xlink:href="#DejaVuSans-Bold-29" transform="translate(2731.396484 0)"/>
    </g>
   </g>
  </g>
 </g>
 <defs>
  <clipPath id="p7916d59765">
   <rect x="34.56" y="21.558281" width="382.958986" height="129.56"/>
  </clipPath>
 </defs>
</svg>
