<?xml version="1.0" encoding="utf-8" standalone="no"?>
<!DOCTYPE svg PUBLIC "-//W3C//DTD SVG 1.1//EN"
  "http://www.w3.org/Graphics/SVG/1.1/DTD/svg11.dtd">
<svg xmlns:xlink="http://www.w3.org/1999/xlink" width="424.91pt" height="173.060781pt" viewBox="0 0 424.91 173.060781" xmlns="http://www.w3.org/2000/svg" version="1.1">
 <metadata>
  <rdf:RDF xmlns:dc="http://purl.org/dc/elements/1.1/" xmlns:cc="http://creativecommons.org/ns#" xmlns:rdf="http://www.w3.org/1999/02/22-rdf-syntax-ns#">
   <cc:Work>
    <dc:type rdf:resource="http://purl.org/dc/dcmitype/StillImage"/>
    <dc:date>2026-04-18T18:14:53.188230</dc:date>
    <dc:format>image/svg+xml</dc:format>
    <dc:creator>
     <cc:Agent>
      <dc:title>Matplotlib v3.10.8, https://matplotlib.org/</dc:title>
     </cc:Agent>
    </dc:creator>
   </cc:Work>
  </rdf:RDF>
 </metadata>
 <defs>
  <style type="text/css">*{stroke-linejoin: round; stroke-linecap: butt}</style>
 </defs>
 <g id="figure_1">
  <g id="patch_1">
   <path d="M 0 173.060781 
L 424.91 173.060781 
L 424.91 0 
L 0 0 
z
" style="fill: #0d1117"/>
  </g>
  <g id="axes_1">
   <g id="patch_2">
    <path d="M 34.56 151.118281 
L 417.71 151.118281 
L 417.71 21.558281 
L 34.56 21.558281 
z
" style="fill: #0d1117"/>
   </g>
   <g id="FillBetweenPolyCollection_1">
    <defs>
     <path id="mfa28b46d53" d="M 51.975909 -27.831591 
L 51.975909 -134.126483 
L 55.058371 -132.878891 
L 58.140833 -128.948596 
L 61.223294 -112.934043 
L 64.305756 -118.128565 
L 67.388218 -115.784603 
L 70.47068 -141.740579 
L 73.553142 -140.694114 
L 76.635603 -126.828445 
L 79.718065 -128.776201 
L 82.800527 -138.45752 
L 85.882989 -131.6933 
L 88.965451 -138.953533 
L 92.047912 -128.141063 
L 95.130374 -140.5565 
L 98.212836 -135.19412 
L 101.295298 -115.752846 
L 104.377759 -122.234279 
L 107.460221 -115.929778 
L 110.542683 -120.970052 
L 113.625145 -117.573576 
L 116.707607 -137.0088 
L 119.790068 -128.472242 
L 122.87253 -132.582493 
L 125.954992 -114.204319 
L 129.037454 -119.731533 
L 132.119916 -119.755729 
L 135.202377 -140.716797 
L 138.284839 -114.205832 
L 141.367301 -130.708836 
L 144.449763 -116.809898 
L 147.532224 -145.613409 
L 150.614686 -132.151506 
L 153.697148 -141.351935 
L 156.77961 -138.744845 
L 159.862072 -132.744302 
L 162.944533 -133.291731 
L 166.026995 -121.80178 
L 169.109457 -138.37586 
L 172.191919 -130.262727 
L 175.274381 -137.383834 
L 178.356842 -129.412852 
L 181.439304 -128.284725 
L 184.521766 -116.673797 
L 187.604228 -145.265595 
L 190.686689 -137.424665 
L 193.769151 -143.423695 
L 196.851613 -138.598158 
L 199.934075 -140.574647 
L 203.016537 -138.982265 
L 206.098998 -142.732604 
L 209.18146 -137.037533 
L 212.263922 -141.947755 
L 215.346384 -135.020213 
L 218.428846 -141.377643 
L 221.511307 -136.416005 
L 224.593769 -143.286082 
L 227.676231 -141.058562 
L 230.758693 -141.699749 
L 233.841154 -137.350565 
L 236.923616 -143.097053 
L 240.006078 -114.963461 
L 243.08854 -122.269061 
L 246.171002 -119.964417 
L 249.253463 -121.978712 
L 252.335925 -119.507722 
L 255.418387 -117.26508 
L 258.500849 -117.203078 
L 261.583311 -121.196887 
L 264.665772 -113.921532 
L 267.748234 -117.422352 
L 270.830696 -117.249958 
L 273.913158 -118.243495 
L 276.995619 -137.064753 
L 280.078081 -138.108194 
L 283.160543 -140.998072 
L 286.243005 -133.450515 
L 289.325467 -144.024052 
L 292.407928 -124.771807 
L 295.49039 -140.160295 
L 298.572852 -124.85498 
L 301.655314 -132.692886 
L 304.737776 -145.472771 
L 307.820237 -132.243753 
L 310.902699 -143.915171 
L 313.985161 -138.890019 
L 317.067623 -144.279619 
L 320.150084 -136.621669 
L 323.232546 -141.07066 
L 326.315008 -134.108337 
L 329.39747 -131.018844 
L 332.479932 -139.2832 
L 335.562393 -138.477179 
L 338.644855 -116.006902 
L 341.727317 -119.292985 
L 344.809779 -115.417131 
L 347.892241 -139.007973 
L 350.974702 -113.098877 
L 354.057164 -120.41355 
L 357.139626 -118.725898 
L 360.222088 -118.467306 
L 363.304549 -116.401595 
L 366.387011 -124.425506 
L 369.469473 -114.824335 
L 372.551935 -117.866949 
L 375.634397 -139.299834 
L 378.716858 -137.029972 
L 381.79932 -141.678578 
L 384.881782 -141.401839 
L 387.964244 -117.458646 
L 391.046706 -125.211867 
L 394.129167 -116.490816 
L 397.211629 -119.170494 
L 400.294091 -119.870658 
L 400.294091 -27.831591 
L 400.294091 -27.831591 
L 397.211629 -27.831591 
L 394.129167 -27.831591 
L 391.046706 -27.831591 
L 387.964244 -27.831591 
L 384.881782 -27.831591 
L 381.79932 -27.831591 
L 378.716858 -27.831591 
L 375.634397 -27.831591 
L 372.551935 -27.831591 
L 369.469473 -27.831591 
L 366.387011 -27.831591 
L 363.304549 -27.831591 
L 360.222088 -27.831591 
L 357.139626 -27.831591 
L 354.057164 -27.831591 
L 350.974702 -27.831591 
L 347.892241 -27.831591 
L 344.809779 -27.831591 
L 341.727317 -27.831591 
L 338.644855 -27.831591 
L 335.562393 -27.831591 
L 332.479932 -27.831591 
L 329.39747 -27.831591 
L 326.315008 -27.831591 
L 323.232546 -27.831591 
L 320.150084 -27.831591 
L 317.067623 -27.831591 
L 313.985161 -27.831591 
L 310.902699 -27.831591 
L 307.820237 -27.831591 
L 304.737776 -27.831591 
L 301.655314 -27.831591 
L 298.572852 -27.831591 
L 295.49039 -27.831591 
L 292.407928 -27.831591 
L 289.325467 -27.831591 
L 286.243005 -27.831591 
L 283.160543 -27.831591 
L 280.078081 -27.831591 
L 276.995619 -27.831591 
L 273.913158 -27.831591 
L 270.830696 -27.831591 
L 267.748234 -27.831591 
L 264.665772 -27.831591 
L 261.583311 -27.831591 
L 258.500849 -27.831591 
L 255.418387 -27.831591 
L 252.335925 -27.831591 
L 249.253463 -27.831591 
L 246.171002 -27.831591 
L 243.08854 -27.831591 
L 240.006078 -27.831591 
L 236.923616 -27.831591 
L 233.841154 -27.831591 
L 230.758693 -27.831591 
L 227.676231 -27.831591 
L 224.593769 -27.831591 
L 221.511307 -27.831591 
L 218.428846 -27.831591 
L 215.346384 -27.831591 
L 212.263922 -27.831591 
L 209.18146 -27.831591 
L 206.098998 -27.831591 
L 203.016537 -27.831591 
L 199.934075 -27.831591 
L 196.851613 -27.831591 
L 193.769151 -27.831591 
L 190.686689 -27.831591 
L 187.604228 -27.831591 
L 184.521766 -27.831591 
L 181.439304 -27.831591 
L 178.356842 -27.831591 
L 175.274381 -27.831591 
L 172.191919 -27.831591 
L 169.109457 -27.831591 
L 166.026995 -27.831591 
L 162.944533 -27.831591 
L 159.862072 -27.831591 
L 156.77961 -27.831591 
L 153.697148 -27.831591 
L 150.614686 -27.831591 
L 147.532224 -27.831591 
L 144.449763 -27.831591 
L 141.367301 -27.831591 
L 138.284839 -27.831591 
L 135.202377 -27.831591 
L 132.119916 -27.831591 
L 129.037454 -27.831591 
L 125.954992 -27.831591 
L 122.87253 -27.831591 
L 119.790068 -27.831591 
L 116.707607 -27.831591 
L 113.625145 -27.831591 
L 110.542683 -27.831591 
L 107.460221 -27.831591 
L 104.377759 -27.831591 
L 101.295298 -27.831591 
L 98.212836 -27.831591 
L 95.130374 -27.831591 
L 92.047912 -27.831591 
L 88.965451 -27.831591 
L 85.882989 -27.831591 
L 82.800527 -27.831591 
L 79.718065 -27.831591 
L 76.635603 -27.831591 
L 73.553142 -27.831591 
L 70.47068 -27.831591 
L 67.388218 -27.831591 
L 64.305756 -27.831591 
L 61.223294 -27.831591 
L 58.140833 -27.831591 
L 55.058371 -27.831591 
L 51.975909 -27.831591 
z
" style="stroke: #f85149; stroke-opacity: 0.15"/>
    </defs>
    <g clip-path="url(#p3c27c9c8d1)">
     <use xlink:href="#mfa28b46d53" x="0" y="173.060781" style="fill: #f85149; fill-opacity: 0.15; stroke: #f85149; stroke-opacity: 0.15"/>
    </g>
   </g>
   <g id="matplotlib.axis_1">
    <g id="xtick_1">
     <g id="line2d_1">
      <path d="M 51.975909 151.118281 
L 51.975909 21.558281 
" clip-path="url(#p3c27c9c8d1)" style="fill: none; stroke: #21262d; stroke-opacity: 0.5; stroke-width: 0.5; stroke-linecap: square"/>
     </g>
     <g id="line2d_2">
      <defs>
       <path id="m0ff3148bcb" d="M 0 0 
L 0 3.5 
" style="stroke: #c9d1d9; stroke-width: 0.8"/>
      </defs>
      <g>
       <use xlink:href="#m0ff3148bcb" x="51.975909" y="151.118281" style="fill: #c9d1d9; stroke: #c9d1d9; stroke-width: 0.8"/>
      </g>
     </g>
     <g id="text_1">
      <!-- 0 -->
      <g style="fill: #c9d1d9" transform="translate(49.430909 164.197031) scale(0.08 -0.08)">
       <defs>
        <path id="DejaVuSans-30" d="M 2034 4250 
Q 1547 4250 1301 3770 
Q 1056 3291 1056 2328 
Q 1056 1369 1301 889 
Q 1547 409 2034 409 
Q 2525 409 2770 889 
Q 3016 1369 3016 2328 
Q 3016 3291 2770 3770 
Q 2525 4250 2034 4250 
z
M 2034 4750 
Q 2819 4750 3233 4129 
Q 3647 3509 3647 2328 
Q 3647 1150 3233 529 
Q 2819 -91 2034 -91 
Q 1250 -91 836 529 
Q 422 1150 422 2328 
Q 422 3509 836 4129 
Q 1250 4750 2034 4750 
z
" transform="scale(0.015625)"/>
       </defs>
       <use xlink:href="#DejaVuSans-30"/>
      </g>
     </g>
    </g>
    <g id="xtick_2">
     <g id="line2d_3">
      <path d="M 113.625145 151.118281 
L 113.625145 21.558281 
" clip-path="url(#p3c27c9c8d1)" style="fill: none; stroke: #21262d; stroke-opacity: 0.5; stroke-width: 0.5; stroke-linecap: square"/>
     </g>
     <g id="line2d_4">
      <g>
       <use xlink:href="#m0ff3148bcb" x="113.625145" y="151.118281" style="fill: #c9d1d9; stroke: #c9d1d9; stroke-width: 0.8"/>
      </g>
     </g>
     <g id="text_2">
      <!-- 20 -->
      <g style="fill: #c9d1d9" transform="translate(108.535145 164.197031) scale(0.08 -0.08)">
       <defs>
        <path id="DejaVuSans-32" d="M 1228 531 
L 3431 531 
L 3431 0 
L 469 0 
L 469 531 
Q 828 903 1448 1529 
Q 2069 2156 2228 2338 
Q 2531 2678 2651 2914 
Q 2772 3150 2772 3378 
Q 2772 3750 2511 3984 
Q 2250 4219 1831 4219 
Q 1534 4219 1204 4116 
Q 875 4013 500 3803 
L 500 4441 
Q 881 4594 1212 4672 
Q 1544 4750 1819 4750 
Q 2544 4750 2975 4387 
Q 3406 4025 3406 3419 
Q 3406 3131 3298 2873 
Q 3191 2616 2906 2266 
Q 2828 2175 2409 1742 
Q 1991 1309 1228 531 
z
" transform="scale(0.015625)"/>
       </defs>
       <use xlink:href="#DejaVuSans-32"/>
       <use xlink:href="#DejaVuSans-30" transform="translate(63.623047 0)"/>
      </g>
     </g>
    </g>
    <g id="xtick_3">
     <g id="line2d_5">
      <path d="M 175.274381 151.118281 
L 175.274381 21.558281 
" clip-path="url(#p3c27c9c8d1)" style="fill: none; stroke: #21262d; stroke-opacity: 0.5; stroke-width: 0.5; stroke-linecap: square"/>
     </g>
     <g id="line2d_6">
      <g>
       <use xlink:href="#m0ff3148bcb" x="175.274381" y="151.118281" style="fill: #c9d1d9; stroke: #c9d1d9; stroke-width: 0.8"/>
      </g>
     </g>
     <g id="text_3">
      <!-- 40 -->
      <g style="fill: #c9d1d9" transform="translate(170.184381 164.197031) scale(0.08 -0.08)">
       <defs>
        <path id="DejaVuSans-34" d="M 2419 4116 
L 825 1625 
L 2419 1625 
L 2419 4116 
z
M 2253 4666 
L 3047 4666 
L 3047 1625 
L 3713 1625 
L 3713 1100 
L 3047 1100 
L 3047 0 
L 2419 0 
L 2419 1100 
L 313 1100 
L 313 1709 
L 2253 4666 
z
" transform="scale(0.015625)"/>
       </defs>
       <use xlink:href="#DejaVuSans-34"/>
       <use xlink:href="#DejaVuSans-30" transform="translate(63.623047 0)"/>
      </g>
     </g>
    </g>
    <g id="xtick_4">
     <g id="line2d_7">
      <path d="M 236.923616 151.118281 
L 236.923616 21.558281 
" clip-path="url(#p3c27c9c8d1)" style="fill: none; stroke: #21262d; stroke-opacity: 0.5; stroke-width: 0.5; stroke-linecap: square"/>
     </g>
     <g id="line2d_8">
      <g>
       <use xlink:href="#m0ff3148bcb" x="236.923616" y="151.118281" style="fill: #c9d1d9; stroke: #c9d1d9; stroke-width: 0.8"/>
      </g>
     </g>
     <g id="text_4">
      <!-- 60 -->
      <g style="fill: #c9d1d9" transform="translate(231.833616 164.197031) scale(0.08 -0.08)">
       <defs>
        <path id="DejaVuSans-36" d="M 2113 2584 
Q 1688 2584 1439 2293 
Q 1191 2003 1191 1497 
Q 1191 994 1439 701 
Q 1688 409 2113 409 
Q 2538 409 2786 701 
Q 3034 994 3034 1497 
Q 3034 2003 2786 2293 
Q 2538 2584 2113 2584 
z
M 3366 4563 
L 3366 3988 
Q 3128 4100 2886 4159 
Q 2644 4219 2406 4219 
Q 1781 4219 1451 3797 
Q 1122 3375 1075 2522 
Q 1259 2794 1537 2939 
Q 1816 3084 2150 3084 
Q 2853 3084 3261 2657 
Q 3669 2231 3669 1497 
Q 3669 778 3244 343 
Q 2819 -91 2113 -91 
Q 1303 -91 875 529 
Q 447 1150 447 2328 
Q 447 3434 972 4092 
Q 1497 4750 2381 4750 
Q 2619 4750 2861 4703 
Q 3103 4656 3366 4563 
z
" transform="scale(0.015625)"/>
       </defs>
       <use xlink:href="#DejaVuSans-36"/>
       <use xlink:href="#DejaVuSans-30" transform="translate(63.623047 0)"/>
      </g>
     </g>
    </g>
    <g id="xtick_5">
     <g id="line2d_9">
      <path d="M 298.572852 151.118281 
L 298.572852 21.558281 
" clip-path="url(#p3c27c9c8d1)" style="fill: none; stroke: #21262d; stroke-opacity: 0.5; stroke-width: 0.5; stroke-linecap: square"/>
     </g>
     <g id="line2d_10">
      <g>
       <use xlink:href="#m0ff3148bcb" x="298.572852" y="151.118281" style="fill: #c9d1d9; stroke: #c9d1d9; stroke-width: 0.8"/>
      </g>
     </g>
     <g id="text_5">
      <!-- 80 -->
      <g style="fill: #c9d1d9" transform="translate(293.482852 164.197031) scale(0.08 -0.08)">
       <defs>
        <path id="DejaVuSans-38" d="M 2034 2216 
Q 1584 2216 1326 1975 
Q 1069 1734 1069 1313 
Q 1069 891 1326 650 
Q 1584 409 2034 409 
Q 2484 409 2743 651 
Q 3003 894 3003 1313 
Q 3003 1734 2745 1975 
Q 2488 2216 2034 2216 
z
M 1403 2484 
Q 997 2584 770 2862 
Q 544 3141 544 3541 
Q 544 4100 942 4425 
Q 1341 4750 2034 4750 
Q 2731 4750 3128 4425 
Q 3525 4100 3525 3541 
Q 3525 3141 3298 2862 
Q 3072 2584 2669 2484 
Q 3125 2378 3379 2068 
Q 3634 1759 3634 1313 
Q 3634 634 3220 271 
Q 2806 -91 2034 -91 
Q 1263 -91 848 271 
Q 434 634 434 1313 
Q 434 1759 690 2068 
Q 947 2378 1403 2484 
z
M 1172 3481 
Q 1172 3119 1398 2916 
Q 1625 2713 2034 2713 
Q 2441 2713 2670 2916 
Q 2900 3119 2900 3481 
Q 2900 3844 2670 4047 
Q 2441 4250 2034 4250 
Q 1625 4250 1398 4047 
Q 1172 3844 1172 3481 
z
" transform="scale(0.015625)"/>
       </defs>
       <use xlink:href="#DejaVuSans-38"/>
       <use xlink:href="#DejaVuSans-30" transform="translate(63.623047 0)"/>
      </g>
     </g>
    </g>
    <g id="xtick_6">
     <g id="line2d_11">
      <path d="M 360.222088 151.118281 
L 360.222088 21.558281 
" clip-path="url(#p3c27c9c8d1)" style="fill: none; stroke: #21262d; stroke-opacity: 0.5; stroke-width: 0.5; stroke-linecap: square"/>
     </g>
     <g id="line2d_12">
      <g>
       <use xlink:href="#m0ff3148bcb" x="360.222088" y="151.118281" style="fill: #c9d1d9; stroke: #c9d1d9; stroke-width: 0.8"/>
      </g>
     </g>
     <g id="text_6">
      <!-- 100 -->
      <g style="fill: #c9d1d9" transform="translate(352.587088 164.197031) scale(0.08 -0.08)">
       <defs>
        <path id="DejaVuSans-31" d="M 794 531 
L 1825 531 
L 1825 4091 
L 703 3866 
L 703 4441 
L 1819 4666 
L 2450 4666 
L 2450 531 
L 3481 531 
L 3481 0 
L 794 0 
L 794 531 
z
" transform="scale(0.015625)"/>
       </defs>
       <use xlink:href="#DejaVuSans-31"/>
       <use xlink:href="#DejaVuSans-30" transform="translate(63.623047 0)"/>
       <use xlink:href="#DejaVuSans-30" transform="translate(127.246094 0)"/>
      </g>
     </g>
    </g>
   </g>
   <g id="matplotlib.axis_2">
    <g id="ytick_1">
     <g id="line2d_13">
      <path d="M 34.56 145.22919 
L 417.71 145.22919 
" clip-path="url(#p3c27c9c8d1)" style="fill: none; stroke: #21262d; stroke-opacity: 0.5; stroke-width: 0.5; stroke-linecap: square"/>
     </g>
     <g id="line2d_14">
      <defs>
       <path id="mb72b555968" d="M 0 0 
L -3.5 0 
" style="stroke: #c9d1d9; stroke-width: 0.8"/>
      </defs>
      <g>
       <use xlink:href="#mb72b555968" x="34.56" y="145.22919" style="fill: #c9d1d9; stroke: #c9d1d9; stroke-width: 0.8"/>
      </g>
     </g>
     <g id="text_7">
      <!-- $0 -->
      <g style="fill: #c9d1d9" transform="translate(17.38 148.268565) scale(0.08 -0.08)">
       <defs>
        <path id="DejaVuSans-24" d="M 2163 -941 
L 1850 -941 
L 1847 0 
Q 1519 6 1191 76 
Q 863 147 531 288 
L 531 850 
Q 850 650 1176 548 
Q 1503 447 1850 444 
L 1850 1869 
Q 1159 1981 845 2250 
Q 531 2519 531 2988 
Q 531 3497 872 3790 
Q 1213 4084 1850 4128 
L 1850 4863 
L 2163 4863 
L 2163 4138 
Q 2453 4125 2725 4076 
Q 2997 4028 3256 3944 
L 3256 3397 
Q 2997 3528 2723 3600 
Q 2450 3672 2163 3684 
L 2163 2350 
Q 2872 2241 3206 1959 
Q 3541 1678 3541 1191 
Q 3541 663 3186 358 
Q 2831 53 2163 6 
L 2163 -941 
z
M 1850 2406 
L 1850 3688 
Q 1488 3647 1297 3481 
Q 1106 3316 1106 3041 
Q 1106 2772 1282 2622 
Q 1459 2472 1850 2406 
z
M 2163 1806 
L 2163 453 
Q 2559 506 2761 678 
Q 2963 850 2963 1131 
Q 2963 1406 2770 1568 
Q 2578 1731 2163 1806 
z
" transform="scale(0.015625)"/>
       </defs>
       <use xlink:href="#DejaVuSans-24"/>
       <use xlink:href="#DejaVuSans-30" transform="translate(63.623047 0)"/>
      </g>
     </g>
    </g>
    <g id="ytick_2">
     <g id="line2d_15">
      <path d="M 34.56 114.98452 
L 417.71 114.98452 
" clip-path="url(#p3c27c9c8d1)" style="fill: none; stroke: #21262d; stroke-opacity: 0.5; stroke-width: 0.5; stroke-linecap: square"/>
     </g>
     <g id="line2d_16">
      <g>
       <use xlink:href="#mb72b555968" x="34.56" y="114.98452" style="fill: #c9d1d9; stroke: #c9d1d9; stroke-width: 0.8"/>
      </g>
     </g>
     <g id="text_8">
      <!-- $200 -->
      <g style="fill: #c9d1d9" transform="translate(7.2 118.023895) scale(0.08 -0.08)">
       <use xlink:href="#DejaVuSans-24"/>
       <use xlink:href="#DejaVuSans-32" transform="translate(63.623047 0)"/>
       <use xlink:href="#DejaVuSans-30" transform="translate(127.246094 0)"/>
       <use xlink:href="#DejaVuSans-30" transform="translate(190.869141 0)"/>
      </g>
     </g>
    </g>
    <g id="ytick_3">
     <g id="line2d_17">
      <path d="M 34.56 84.73985 
L 417.71 84.73985 
" clip-path="url(#p3c27c9c8d1)" style="fill: none; stroke: #21262d; stroke-opacity: 0.5; stroke-width: 0.5; stroke-linecap: square"/>
     </g>
     <g id="line2d_18">
      <g>
       <use xlink:href="#mb72b555968" x="34.56" y="84.73985" style="fill: #c9d1d9; stroke: #c9d1d9; stroke-width: 0.8"/>
      </g>
     </g>
     <g id="text_9">
      <!-- $400 -->
      <g style="fill: #c9d1d9" transform="translate(7.2 87.779225) scale(0.08 -0.08)">
       <use xlink:href="#DejaVuSans-24"/>
       <use xlink:href="#DejaVuSans-34" transform="translate(63.623047 0)"/>
       <use xlink:href="#DejaVuSans-30" transform="translate(127.246094 0)"/>
       <use xlink:href="#DejaVuSans-30" transform="translate(190.869141 0)"/>
      </g>
     </g>
    </g>
    <g id="ytick_4">
     <g id="line2d_19">
      <path d="M 34.56 54.49518 
L 417.71 54.49518 
" clip-path="url(#p3c27c9c8d1)" style="fill: none; stroke: #21262d; stroke-opacity: 0.5; stroke-width: 0.5; stroke-linecap: square"/>
     </g>
     <g id="line2d_20">
      <g>
       <use xlink:href="#mb72b555968" x="34.56" y="54.49518" style="fill: #c9d1d9; stroke: #c9d1d9; stroke-width: 0.8"/>
      </g>
     </g>
     <g id="text_10">
      <!-- $600 -->
      <g style="fill: #c9d1d9" transform="translate(7.2 57.534555) scale(0.08 -0.08)">
       <use xlink:href="#DejaVuSans-24"/>
       <use xlink:href="#DejaVuSans-36" transform="translate(63.623047 0)"/>
       <use xlink:href="#DejaVuSans-30" transform="translate(127.246094 0)"/>
       <use xlink:href="#DejaVuSans-30" transform="translate(190.869141 0)"/>
      </g>
     </g>
    </g>
    <g id="ytick_5">
     <g id="line2d_21">
      <path d="M 34.56 24.250511 
L 417.71 24.250511 
" clip-path="url(#p3c27c9c8d1)" style="fill: none; stroke: #21262d; stroke-opacity: 0.5; stroke-width: 0.5; stroke-linecap: square"/>
     </g>
     <g id="line2d_22">
      <g>
       <use xlink:href="#mb72b555968" x="34.56" y="24.250511" style="fill: #c9d1d9; stroke: #c9d1d9; stroke-width: 0.8"/>
      </g>
     </g>
     <g id="text_11">
      <!-- $800 -->
      <g style="fill: #c9d1d9" transform="translate(7.2 27.289886) scale(0.08 -0.08)">
       <use xlink:href="#DejaVuSans-24"/>
       <use xlink:href="#DejaVuSans-38" transform="translate(63.623047 0)"/>
       <use xlink:href="#DejaVuSans-30" transform="translate(127.246094 0)"/>
       <use xlink:href="#DejaVuSans-30" transform="translate(190.869141 0)"/>
      </g>
     </g>
    </g>
   </g>
   <g id="line2d_23">
    <path d="M 51.975909 38.934298 
L 55.058371 40.18189 
L 58.140833 44.112185 
L 61.223294 60.126738 
L 64.305756 54.932216 
L 67.388218 57.276178 
L 70.47068 31.320202 
L 73.553142 32.366668 
L 76.635603 46.232337 
L 79.718065 44.28458 
L 82.800527 34.603261 
L 85.882989 41.367482 
L 88.965451 34.107248 
L 92.047912 44.919718 
L 95.130374 32.504281 
L 98.212836 37.866661 
L 101.295298 57.307935 
L 104.377759 50.826502 
L 107.460221 57.131003 
L 110.542683 52.090729 
L 113.625145 55.487206 
L 116.707607 36.051981 
L 119.790068 44.588539 
L 122.87253 40.478288 
L 125.954992 58.856462 
L 129.037454 53.329248 
L 132.119916 53.305053 
L 135.202377 32.343984 
L 138.284839 58.85495 
L 141.367301 42.351946 
L 144.449763 56.250884 
L 147.532224 27.447372 
L 150.614686 40.909275 
L 153.697148 31.708846 
L 156.77961 34.315937 
L 159.862072 40.316479 
L 162.944533 39.769051 
L 166.026995 51.259001 
L 169.109457 34.684922 
L 172.191919 42.798054 
L 175.274381 35.676947 
L 178.356842 43.64793 
L 181.439304 44.776056 
L 184.521766 56.386985 
L 187.604228 27.795186 
L 190.686689 35.636117 
L 193.769151 29.637086 
L 196.851613 34.462623 
L 199.934075 32.486134 
L 203.016537 34.078516 
L 206.098998 30.328177 
L 209.18146 36.023248 
L 212.263922 31.113026 
L 215.346384 38.040568 
L 218.428846 31.683138 
L 221.511307 36.644776 
L 224.593769 29.7747 
L 227.676231 32.002219 
L 230.758693 31.361032 
L 233.841154 35.710216 
L 236.923616 29.963729 
L 240.006078 58.097321 
L 243.08854 50.791721 
L 246.171002 53.096365 
L 249.253463 51.082069 
L 252.335925 53.553059 
L 255.418387 55.795701 
L 258.500849 55.857703 
L 261.583311 51.863894 
L 264.665772 59.13925 
L 267.748234 55.638429 
L 270.830696 55.810824 
L 273.913158 54.817286 
L 276.995619 35.996028 
L 280.078081 34.952587 
L 283.160543 32.062709 
L 286.243005 39.610266 
L 289.325467 29.03673 
L 292.407928 48.288974 
L 295.49039 32.900486 
L 298.572852 48.205801 
L 301.655314 40.367895 
L 304.737776 27.58801 
L 307.820237 40.817029 
L 310.902699 29.14561 
L 313.985161 34.170762 
L 317.067623 28.781162 
L 320.150084 36.439113 
L 323.232546 31.990122 
L 326.315008 38.952445 
L 329.39747 42.041938 
L 332.479932 33.777582 
L 335.562393 34.583602 
L 338.644855 57.05388 
L 341.727317 53.767796 
L 344.809779 57.643651 
L 347.892241 34.052808 
L 350.974702 59.961905 
L 354.057164 52.647231 
L 357.139626 54.334884 
L 360.222088 54.593476 
L 363.304549 56.659187 
L 366.387011 48.635276 
L 369.469473 58.236446 
L 372.551935 55.193832 
L 375.634397 33.760947 
L 378.716858 36.030809 
L 381.79932 31.382204 
L 384.881782 31.658942 
L 387.964244 55.602135 
L 391.046706 47.848914 
L 394.129167 56.569965 
L 397.211629 53.890287 
L 400.294091 53.190123 
" clip-path="url(#p3c27c9c8d1)" style="fill: none; stroke: #f85149; stroke-width: 2; stroke-linecap: square"/>
   </g>
   <g id="patch_3">
    <path d="M 34.56 151.118281 
L 34.56 21.558281 
" style="fill: none; stroke: #21262d; stroke-width: 0.8; stroke-linejoin: miter; stroke-linecap: square"/>
   </g>
   <g id="patch_4">
    <path d="M 34.56 151.118281 
L 417.71 151.118281 
" style="fill: none; stroke: #21262d; stroke-width: 0.8; stroke-linejoin: miter; stroke-linecap: square"/>
   </g>
   <g id="text_12">
    <!-- REACT (facebook/react) — $608.63 (+0.77%) -->
    <g style="fill: #c9d1d9" transform="translate(87.845234 15.558281) scale(0.11 -0.11)">
     <defs>
      <path id="DejaVuSans-Bold-52" d="M 2297 2597 
Q 2675 2597 2839 2737 
Q 3003 2878 3003 3200 
Q 3003 3519 2839 3656 
Q 2675 3794 2297 3794 
L 1791 3794 
L 1791 2597 
L 2297 2597 
z
M 1791 1766 
L 1791 0 
L 588 0 
L 588 4666 
L 2425 4666 
Q 3347 4666 3776 4356 
Q 4206 4047 4206 3378 
Q 4206 2916 3982 2619 
Q 3759 2322 3309 2181 
Q 3556 2125 3751 1926 
Q 3947 1728 4147 1325 
L 4800 0 
L 3519 0 
L 2950 1159 
Q 2778 1509 2601 1637 
Q 2425 1766 2131 1766 
L 1791 1766 
z
" transform="scale(0.015625)"/>
      <path id="DejaVuSans-Bold-45" d="M 588 4666 
L 3834 4666 
L 3834 3756 
L 1791 3756 
L 1791 2888 
L 3713 2888 
L 3713 1978 
L 1791 1978 
L 1791 909 
L 3903 909 
L 3903 0 
L 588 0 
L 588 4666 
z
" transform="scale(0.015625)"/>
      <path id="DejaVuSans-Bold-41" d="M 3419 850 
L 1538 850 
L 1241 0 
L 31 0 
L 1759 4666 
L 3194 4666 
L 4922 0 
L 3713 0 
L 3419 850 
z
M 1838 1716 
L 3116 1716 
L 2478 3572 
L 1838 1716 
z
" transform="scale(0.015625)"/>
      <path id="DejaVuSans-Bold-43" d="M 4288 256 
Q 3956 84 3597 -3 
Q 3238 -91 2847 -91 
Q 1681 -91 1000 561 
Q 319 1213 319 2328 
Q 319 3447 1000 4098 
Q 1681 4750 2847 4750 
Q 3238 4750 3597 4662 
Q 3956 4575 4288 4403 
L 4288 3438 
Q 3953 3666 3628 3772 
Q 3303 3878 2944 3878 
Q 2300 3878 1931 3465 
Q 1563 3053 1563 2328 
Q 1563 1606 1931 1193 
Q 2300 781 2944 781 
Q 3303 781 3628 887 
Q 3953 994 4288 1222 
L 4288 256 
z
" transform="scale(0.015625)"/>
      <path id="DejaVuSans-Bold-54" d="M 31 4666 
L 4331 4666 
L 4331 3756 
L 2784 3756 
L 2784 0 
L 1581 0 
L 1581 3756 
L 31 3756 
L 31 4666 
z
" transform="scale(0.015625)"/>
      <path id="DejaVuSans-Bold-20" transform="scale(0.015625)"/>
      <path id="DejaVuSans-Bold-28" d="M 2413 -844 
L 1484 -844 
Q 1006 -72 778 623 
Q 550 1319 550 2003 
Q 550 2688 779 3389 
Q 1009 4091 1484 4856 
L 2413 4856 
Q 2013 4116 1813 3408 
Q 1613 2700 1613 2009 
Q 1613 1319 1811 609 
Q 2009 -100 2413 -844 
z
" transform="scale(0.015625)"/>
      <path id="DejaVuSans-Bold-66" d="M 2841 4863 
L 2841 4128 
L 2222 4128 
Q 1984 4128 1890 4042 
Q 1797 3956 1797 3744 
L 1797 3500 
L 2753 3500 
L 2753 2700 
L 1797 2700 
L 1797 0 
L 678 0 
L 678 2700 
L 122 2700 
L 122 3500 
L 678 3500 
L 678 3744 
Q 678 4316 997 4589 
Q 1316 4863 1984 4863 
L 2841 4863 
z
" transform="scale(0.015625)"/>
      <path id="DejaVuSans-Bold-61" d="M 2106 1575 
Q 1756 1575 1579 1456 
Q 1403 1338 1403 1106 
Q 1403 894 1545 773 
Q 1688 653 1941 653 
Q 2256 653 2472 879 
Q 2688 1106 2688 1447 
L 2688 1575 
L 2106 1575 
z
M 3816 1997 
L 3816 0 
L 2688 0 
L 2688 519 
Q 2463 200 2181 54 
Q 1900 -91 1497 -91 
Q 953 -91 614 226 
Q 275 544 275 1050 
Q 275 1666 698 1953 
Q 1122 2241 2028 2241 
L 2688 2241 
L 2688 2328 
Q 2688 2594 2478 2717 
Q 2269 2841 1825 2841 
Q 1466 2841 1156 2769 
Q 847 2697 581 2553 
L 581 3406 
Q 941 3494 1303 3539 
Q 1666 3584 2028 3584 
Q 2975 3584 3395 3211 
Q 3816 2838 3816 1997 
z
" transform="scale(0.015625)"/>
      <path id="DejaVuSans-Bold-63" d="M 3366 3391 
L 3366 2478 
Q 3138 2634 2908 2709 
Q 2678 2784 2431 2784 
Q 1963 2784 1702 2511 
Q 1441 2238 1441 1747 
Q 1441 1256 1702 982 
Q 1963 709 2431 709 
Q 2694 709 2930 787 
Q 3166 866 3366 1019 
L 3366 103 
Q 3103 6 2833 -42 
Q 2563 -91 2291 -91 
Q 1344 -91 809 395 
Q 275 881 275 1747 
Q 275 2613 809 3098 
Q 1344 3584 2291 3584 
Q 2566 3584 2833 3536 
Q 3100 3488 3366 3391 
z
" transform="scale(0.015625)"/>
      <path id="DejaVuSans-Bold-65" d="M 4031 1759 
L 4031 1441 
L 1416 1441 
Q 1456 1047 1700 850 
Q 1944 653 2381 653 
Q 2734 653 3104 758 
Q 3475 863 3866 1075 
L 3866 213 
Q 3469 63 3072 -14 
Q 2675 -91 2278 -91 
Q 1328 -91 801 392 
Q 275 875 275 1747 
Q 275 2603 792 3093 
Q 1309 3584 2216 3584 
Q 3041 3584 3536 3087 
Q 4031 2591 4031 1759 
z
M 2881 2131 
Q 2881 2450 2695 2645 
Q 2509 2841 2209 2841 
Q 1884 2841 1681 2658 
Q 1478 2475 1428 2131 
L 2881 2131 
z
" transform="scale(0.015625)"/>
      <path id="DejaVuSans-Bold-62" d="M 2400 722 
Q 2759 722 2948 984 
Q 3138 1247 3138 1747 
Q 3138 2247 2948 2509 
Q 2759 2772 2400 2772 
Q 2041 2772 1848 2508 
Q 1656 2244 1656 1747 
Q 1656 1250 1848 986 
Q 2041 722 2400 722 
z
M 1656 2988 
Q 1888 3294 2169 3439 
Q 2450 3584 2816 3584 
Q 3463 3584 3878 3070 
Q 4294 2556 4294 1747 
Q 4294 938 3878 423 
Q 3463 -91 2816 -91 
Q 2450 -91 2169 54 
Q 1888 200 1656 506 
L 1656 0 
L 538 0 
L 538 4863 
L 1656 4863 
L 1656 2988 
z
" transform="scale(0.015625)"/>
      <path id="DejaVuSans-Bold-6f" d="M 2203 2784 
Q 1831 2784 1636 2517 
Q 1441 2250 1441 1747 
Q 1441 1244 1636 976 
Q 1831 709 2203 709 
Q 2569 709 2762 976 
Q 2956 1244 2956 1747 
Q 2956 2250 2762 2517 
Q 2569 2784 2203 2784 
z
M 2203 3584 
Q 3106 3584 3614 3096 
Q 4122 2609 4122 1747 
Q 4122 884 3614 396 
Q 3106 -91 2203 -91 
Q 1297 -91 786 396 
Q 275 884 275 1747 
Q 275 2609 786 3096 
Q 1297 3584 2203 3584 
z
" transform="scale(0.015625)"/>
      <path id="DejaVuSans-Bold-6b" d="M 538 4863 
L 1656 4863 
L 1656 2216 
L 2944 3500 
L 4244 3500 
L 2534 1894 
L 4378 0 
L 3022 0 
L 1656 1459 
L 1656 0 
L 538 0 
L 538 4863 
z
" transform="scale(0.015625)"/>
      <path id="DejaVuSans-Bold-2f" d="M 1644 4666 
L 2338 4666 
L 691 -594 
L 0 -594 
L 1644 4666 
z
" transform="scale(0.015625)"/>
      <path id="DejaVuSans-Bold-72" d="M 3138 2547 
Q 2991 2616 2845 2648 
Q 2700 2681 2553 2681 
Q 2122 2681 1889 2404 
Q 1656 2128 1656 1613 
L 1656 0 
L 538 0 
L 538 3500 
L 1656 3500 
L 1656 2925 
Q 1872 3269 2151 3426 
Q 2431 3584 2822 3584 
Q 2878 3584 2943 3579 
Q 3009 3575 3134 3559 
L 3138 2547 
z
" transform="scale(0.015625)"/>
      <path id="DejaVuSans-Bold-74" d="M 1759 4494 
L 1759 3500 
L 2913 3500 
L 2913 2700 
L 1759 2700 
L 1759 1216 
Q 1759 972 1856 886 
Q 1953 800 2241 800 
L 2816 800 
L 2816 0 
L 1856 0 
Q 1194 0 917 276 
Q 641 553 641 1216 
L 641 2700 
L 84 2700 
L 84 3500 
L 641 3500 
L 641 4494 
L 1759 4494 
z
" transform="scale(0.015625)"/>
      <path id="DejaVuSans-Bold-29" d="M 513 -844 
Q 913 -100 1113 609 
Q 1313 1319 1313 2009 
Q 1313 2700 1113 3408 
Q 913 4116 513 4856 
L 1441 4856 
Q 1916 4091 2145 3389 
Q 2375 2688 2375 2003 
Q 2375 1319 2147 623 
Q 1919 -72 1441 -844 
L 513 -844 
z
" transform="scale(0.015625)"/>
      <path id="DejaVuSans-Bold-2014" d="M 344 2156 
L 6056 2156 
L 6056 1350 
L 344 1350 
L 344 2156 
z
" transform="scale(0.015625)"/>
      <path id="DejaVuSans-Bold-24" d="M 2484 -941 
L 1978 -941 
L 1975 0 
Q 1584 16 1218 87 
Q 853 159 506 288 
L 506 1106 
Q 866 922 1233 823 
Q 1600 725 1978 713 
L 1978 1684 
L 1875 1703 
Q 1128 1834 814 2115 
Q 500 2397 500 2925 
Q 500 3484 883 3798 
Q 1266 4113 1975 4141 
L 1978 4863 
L 2484 4863 
L 2484 4153 
Q 2797 4128 3109 4075 
Q 3422 4022 3738 3938 
L 3738 3144 
Q 3425 3275 3112 3348 
Q 2800 3422 2484 3438 
L 2484 2541 
L 2584 2522 
Q 3378 2397 3698 2105 
Q 4019 1813 4019 1241 
Q 4019 666 3637 358 
Q 3256 50 2484 6 
L 2484 -941 
z
M 1978 2613 
L 1978 3428 
Q 1756 3416 1623 3308 
Q 1491 3200 1491 3034 
Q 1491 2850 1612 2745 
Q 1734 2641 1978 2613 
z
M 2484 1594 
L 2484 725 
Q 2756 728 2892 831 
Q 3028 934 3028 1141 
Q 3028 1353 2903 1458 
Q 2778 1563 2484 1594 
z
" transform="scale(0.015625)"/>
      <path id="DejaVuSans-Bold-36" d="M 2316 2303 
Q 2000 2303 1842 2098 
Q 1684 1894 1684 1484 
Q 1684 1075 1842 870 
Q 2000 666 2316 666 
Q 2634 666 2792 870 
Q 2950 1075 2950 1484 
Q 2950 1894 2792 2098 
Q 2634 2303 2316 2303 
z
M 3803 4544 
L 3803 3681 
Q 3506 3822 3243 3889 
Q 2981 3956 2731 3956 
Q 2194 3956 1894 3657 
Q 1594 3359 1544 2772 
Q 1750 2925 1990 3001 
Q 2231 3078 2516 3078 
Q 3231 3078 3670 2659 
Q 4109 2241 4109 1563 
Q 4109 813 3618 361 
Q 3128 -91 2303 -91 
Q 1394 -91 895 523 
Q 397 1138 397 2266 
Q 397 3422 980 4083 
Q 1563 4744 2578 4744 
Q 2900 4744 3203 4694 
Q 3506 4644 3803 4544 
z
" transform="scale(0.015625)"/>
      <path id="DejaVuSans-Bold-30" d="M 2944 2338 
Q 2944 3213 2780 3570 
Q 2616 3928 2228 3928 
Q 1841 3928 1675 3570 
Q 1509 3213 1509 2338 
Q 1509 1453 1675 1090 
Q 1841 728 2228 728 
Q 2613 728 2778 1090 
Q 2944 1453 2944 2338 
z
M 4147 2328 
Q 4147 1169 3647 539 
Q 3147 -91 2228 -91 
Q 1306 -91 806 539 
Q 306 1169 306 2328 
Q 306 3491 806 4120 
Q 1306 4750 2228 4750 
Q 3147 4750 3647 4120 
Q 4147 3491 4147 2328 
z
" transform="scale(0.015625)"/>
      <path id="DejaVuSans-Bold-38" d="M 2228 2088 
Q 1891 2088 1709 1903 
Q 1528 1719 1528 1375 
Q 1528 1031 1709 848 
Q 1891 666 2228 666 
Q 2563 666 2741 848 
Q 2919 1031 2919 1375 
Q 2919 1722 2741 1905 
Q 2563 2088 2228 2088 
z
M 1350 2484 
Q 925 2613 709 2878 
Q 494 3144 494 3541 
Q 494 4131 934 4440 
Q 1375 4750 2228 4750 
Q 3075 4750 3515 4442 
Q 3956 4134 3956 3541 
Q 3956 3144 3739 2878 
Q 3522 2613 3097 2484 
Q 3572 2353 3814 2058 
Q 4056 1763 4056 1313 
Q 4056 619 3595 264 
Q 3134 -91 2228 -91 
Q 1319 -91 855 264 
Q 391 619 391 1313 
Q 391 1763 633 2058 
Q 875 2353 1350 2484 
z
M 1631 3419 
Q 1631 3141 1786 2991 
Q 1941 2841 2228 2841 
Q 2509 2841 2662 2991 
Q 2816 3141 2816 3419 
Q 2816 3697 2662 3845 
Q 2509 3994 2228 3994 
Q 1941 3994 1786 3844 
Q 1631 3694 1631 3419 
z
" transform="scale(0.015625)"/>
      <path id="DejaVuSans-Bold-2e" d="M 653 1209 
L 1778 1209 
L 1778 0 
L 653 0 
L 653 1209 
z
" transform="scale(0.015625)"/>
      <path id="DejaVuSans-Bold-33" d="M 2981 2516 
Q 3453 2394 3698 2092 
Q 3944 1791 3944 1325 
Q 3944 631 3412 270 
Q 2881 -91 1863 -91 
Q 1503 -91 1142 -33 
Q 781 25 428 141 
L 428 1069 
Q 766 900 1098 814 
Q 1431 728 1753 728 
Q 2231 728 2486 893 
Q 2741 1059 2741 1369 
Q 2741 1688 2480 1852 
Q 2219 2016 1709 2016 
L 1228 2016 
L 1228 2791 
L 1734 2791 
Q 2188 2791 2409 2933 
Q 2631 3075 2631 3366 
Q 2631 3634 2415 3781 
Q 2200 3928 1806 3928 
Q 1516 3928 1219 3862 
Q 922 3797 628 3669 
L 628 4550 
Q 984 4650 1334 4700 
Q 1684 4750 2022 4750 
Q 2931 4750 3382 4451 
Q 3834 4153 3834 3553 
Q 3834 3144 3618 2883 
Q 3403 2622 2981 2516 
z
" transform="scale(0.015625)"/>
      <path id="DejaVuSans-Bold-2b" d="M 3053 4013 
L 3053 2375 
L 4684 2375 
L 4684 1638 
L 3053 1638 
L 3053 0 
L 2309 0 
L 2309 1638 
L 678 1638 
L 678 2375 
L 2309 2375 
L 2309 4013 
L 3053 4013 
z
" transform="scale(0.015625)"/>
      <path id="DejaVuSans-Bold-37" d="M 428 4666 
L 3944 4666 
L 3944 3988 
L 2125 0 
L 953 0 
L 2675 3781 
L 428 3781 
L 428 4666 
z
" transform="scale(0.015625)"/>
      <path id="DejaVuSans-Bold-25" d="M 4959 1925 
Q 4738 1925 4616 1733 
Q 4494 1541 4494 1184 
Q 4494 825 4614 633 
Q 4734 441 4959 441 
Q 5184 441 5303 633 
Q 5422 825 5422 1184 
Q 5422 1541 5301 1733 
Q 5181 1925 4959 1925 
z
M 4959 2450 
Q 5541 2450 5875 2112 
Q 6209 1775 6209 1184 
Q 6209 594 5875 251 
Q 5541 -91 4959 -91 
Q 4378 -91 4042 251 
Q 3706 594 3706 1184 
Q 3706 1772 4042 2111 
Q 4378 2450 4959 2450 
z
M 2094 -91 
L 1403 -91 
L 4319 4750 
L 5013 4750 
L 2094 -91 
z
M 1453 4750 
Q 2034 4750 2367 4411 
Q 2700 4072 2700 3481 
Q 2700 2891 2367 2550 
Q 2034 2209 1453 2209 
Q 872 2209 539 2550 
Q 206 2891 206 3481 
Q 206 4072 539 4411 
Q 872 4750 1453 4750 
z
M 1453 4225 
Q 1228 4225 1106 4031 
Q 984 3838 984 3481 
Q 984 3122 1106 2926 
Q 1228 2731 1453 2731 
Q 1678 2731 1798 2926 
Q 1919 3122 1919 3481 
Q 1919 3838 1797 4031 
Q 1675 4225 1453 4225 
z
" transform="scale(0.015625)"/>
     </defs>
     <use xlink:href="#DejaVuSans-Bold-52"/>
     <use xlink:href="#DejaVuSans-Bold-45" transform="translate(77.001953 0)"/>
     <use xlink:href="#DejaVuSans-Bold-41" transform="translate(145.3125 0)"/>
     <use xlink:href="#DejaVuSans-Bold-43" transform="translate(222.705078 0)"/>
     <use xlink:href="#DejaVuSans-Bold-54" transform="translate(296.09375 0)"/>
     <use xlink:href="#DejaVuSans-Bold-20" transform="translate(364.306641 0)"/>
     <use xlink:href="#DejaVuSans-Bold-28" transform="translate(399.121094 0)"/>
     <use xlink:href="#DejaVuSans-Bold-66" transform="translate(444.824219 0)"/>
     <use xlink:href="#DejaVuSans-Bold-61" transform="translate(488.330078 0)"/>
     <use xlink:href="#DejaVuSans-Bold-63" transform="translate(555.810547 0)"/>
     <use xlink:href="#DejaVuSans-Bold-65" transform="translate(615.087891 0)"/>
     <use xlink:href="#DejaVuSans-Bold-62" transform="translate(682.910156 0)"/>
     <use xlink:href="#DejaVuSans-Bold-6f" transform="translate(754.492188 0)"/>
     <use xlink:href="#DejaVuSans-Bold-6f" transform="translate(823.193359 0)"/>
     <use xlink:href="#DejaVuSans-Bold-6b" transform="translate(891.894531 0)"/>
     <use xlink:href="#DejaVuSans-Bold-2f" transform="translate(958.398438 0)"/>
     <use xlink:href="#DejaVuSans-Bold-72" transform="translate(994.921875 0)"/>
     <use xlink:href="#DejaVuSans-Bold-65" transform="translate(1044.238281 0)"/>
     <use xlink:href="#DejaVuSans-Bold-61" transform="translate(1112.060547 0)"/>
     <use xlink:href="#DejaVuSans-Bold-63" transform="translate(1179.541016 0)"/>
     <use xlink:href="#DejaVuSans-Bold-74" transform="translate(1238.818359 0)"/>
     <use xlink:href="#DejaVuSans-Bold-29" transform="translate(1286.621094 0)"/>
     <use xlink:href="#DejaVuSans-Bold-20" transform="translate(1332.324219 0)"/>
     <use xlink:href="#DejaVuSans-Bold-2014" transform="translate(1367.138672 0)"/>
     <use xlink:href="#DejaVuSans-Bold-20" transform="translate(1467.138672 0)"/>
     <use xlink:href="#DejaVuSans-Bold-24" transform="translate(1501.953125 0)"/>
     <use xlink:href="#DejaVuSans-Bold-36" transform="translate(1571.533203 0)"/>
     <use xlink:href="#DejaVuSans-Bold-30" transform="translate(1641.113281 0)"/>
     <use xlink:href="#DejaVuSans-Bold-38" transform="translate(1710.693359 0)"/>
     <use xlink:href="#DejaVuSans-Bold-2e" transform="translate(1780.273438 0)"/>
     <use xlink:href="#DejaVuSans-Bold-36" transform="translate(1818.261719 0)"/>
     <use xlink:href="#DejaVuSans-Bold-33" transform="translate(1887.841797 0)"/>
     <use xlink:href="#DejaVuSans-Bold-20" transform="translate(1957.421875 0)"/>
     <use xlink:href="#DejaVuSans-Bold-28" transform="translate(1992.236328 0)"/>
     <use xlink:href="#DejaVuSans-Bold-2b" transform="translate(2037.939453 0)"/>
     <use xlink:href="#DejaVuSans-Bold-30" transform="translate(2121.728516 0)"/>
     <use xlink:href="#DejaVuSans-Bold-2e" transform="translate(2191.308594 0)"/>
     <use xlink:href="#DejaVuSans-Bold-37" transform="translate(2229.296875 0)"/>
     <use xlink:href="#DejaVuSans-Bold-37" transform="translate(2298.876953 0)"/>
     <use xlink:href="#DejaVuSans-Bold-25" transform="translate(2368.457031 0)"/>
     <use xlink:href="#DejaVuSans-Bold-29" transform="translate(2468.652344 0)"/>
    </g>
   </g>
  </g>
 </g>
 <defs>
  <clipPath id="p3c27c9c8d1">
   <rect x="34.56" y="21.558281" width="383.15" height="129.56"/>
  </clipPath>
 </defs>
</svg>
