<?xml version="1.0" encoding="utf-8" standalone="no"?>
<!DOCTYPE svg PUBLIC "-//W3C//DTD SVG 1.1//EN"
  "http://www.w3.org/Graphics/SVG/1.1/DTD/svg11.dtd">
<svg xmlns:xlink="http://www.w3.org/1999/xlink" width="424.298604pt" height="173.060781pt" viewBox="0 0 424.298604 173.060781" xmlns="http://www.w3.org/2000/svg" version="1.1">
 <metadata>
  <rdf:RDF xmlns:dc="http://purl.org/dc/elements/1.1/" xmlns:cc="http://creativecommons.org/ns#" xmlns:rdf="http://www.w3.org/1999/02/22-rdf-syntax-ns#">
   <cc:Work>
    <dc:type rdf:resource="http://purl.org/dc/dcmitype/StillImage"/>
    <dc:date>2026-04-21T00:34:55.336866</dc:date>
    <dc:format>image/svg+xml</dc:format>
    <dc:creator>
     <cc:Agent>
      <dc:title>Matplotlib v3.10.8, https://matplotlib.org/</dc:title>
     </cc:Agent>
    </dc:creator>
   </cc:Work>
  </rdf:RDF>
 </metadata>
 <defs>
  <style type="text/css">*{stroke-linejoin: round; stroke-linecap: butt}</style>
 </defs>
 <g id="figure_1">
  <g id="patch_1">
   <path d="M 0 173.060781 
L 424.298604 173.060781 
L 424.298604 0 
L 0 0 
z
" style="fill: #0d1117"/>
  </g>
  <g id="axes_1">
   <g id="patch_2">
    <path d="M 34.56 151.118281 
L 414.827884 151.118281 
L 414.827884 21.558281 
L 34.56 21.558281 
z
" style="fill: #0d1117"/>
   </g>
   <g id="FillBetweenPolyCollection_1">
    <defs>
     <path id="m7e2d18c9e6" d="M 51.844904 -27.831591 
L 51.844904 -88.937417 
L 54.82506 -86.690858 
L 57.805215 -129.910509 
L 60.785371 -85.134663 
L 63.765527 -92.426631 
L 66.745683 -84.677297 
L 69.725839 -90.044876 
L 72.705995 -83.581345 
L 75.68615 -97.90927 
L 78.666306 -87.456012 
L 81.646462 -87.533677 
L 84.626618 -92.394989 
L 87.606774 -88.091722 
L 90.58693 -88.123363 
L 93.567085 -90.321021 
L 96.547241 -93.827494 
L 99.527397 -85.89694 
L 102.507553 -89.527103 
L 105.487709 -88.983441 
L 108.467865 -87.153977 
L 111.44802 -85.218082 
L 114.428176 -88.359238 
L 117.408332 -84.642779 
L 120.388488 -87.815576 
L 123.368644 -90.036246 
L 126.3488 -108.0231 
L 129.328955 -97.247672 
L 132.309111 -98.86715 
L 135.289267 -96.77017 
L 138.269423 -96.563061 
L 141.249579 -145.613409 
L 144.229735 -109.711615 
L 147.20989 -95.884203 
L 150.190046 -96.545802 
L 153.170202 -95.87845 
L 156.150358 -85.226712 
L 159.130514 -90.323898 
L 162.11067 -85.2526 
L 165.090825 -89.685311 
L 168.070981 -85.580523 
L 171.051137 -86.96988 
L 174.031293 -87.464641 
L 177.011449 -86.052272 
L 179.991605 -86.670723 
L 182.97176 -85.246847 
L 185.951916 -88.586482 
L 188.932072 -83.935156 
L 191.912228 -86.647711 
L 194.892384 -85.370538 
L 197.87254 -85.551758 
L 200.852695 -85.229588 
L 203.832851 -86.506761 
L 206.813007 -90.14843 
L 209.793163 -84.637026 
L 212.773319 -84.642779 
L 215.753475 -91.244383 
L 218.73363 -88.672778 
L 221.713786 -108.368282 
L 224.693942 -102.54909 
L 227.674098 -106.147612 
L 230.654254 -96.007893 
L 233.634409 -98.838385 
L 236.614565 -89.029466 
L 239.594721 -81.392316 
L 242.574877 -88.189523 
L 245.555033 -82.223629 
L 248.535189 -84.979331 
L 251.515344 -84.484571 
L 254.4955 -84.136512 
L 257.475656 -86.288146 
L 260.455812 -83.952415 
L 263.435968 -85.01385 
L 266.416124 -83.495049 
L 269.396279 -84.970702 
L 272.376435 -84.94769 
L 275.356591 -84.944813 
L 278.336747 -86.417589 
L 281.316903 -82.885228 
L 284.297059 -85.356155 
L 287.277214 -84.999467 
L 290.25737 -85.709966 
L 293.237526 -84.530595 
L 296.217682 -86.601686 
L 299.197838 -83.546826 
L 302.177994 -85.402179 
L 305.158149 -86.014877 
L 308.138305 -84.133636 
L 311.118461 -83.794207 
L 314.098617 -84.588125 
L 317.078773 -84.585249 
L 320.058929 -84.69168 
L 323.039084 -84.044464 
L 326.01924 -86.808795 
L 328.999396 -83.017548 
L 331.979552 -86.138567 
L 334.959708 -84.752087 
L 337.939864 -84.726198 
L 340.920019 -81.202466 
L 343.900175 -86.897967 
L 346.880331 -83.693529 
L 349.860487 -84.366634 
L 352.840643 -84.812493 
L 355.820799 -86.265134 
L 358.800954 -84.875777 
L 361.78111 -86.538403 
L 364.761266 -85.103022 
L 367.741422 -86.751265 
L 370.721578 -83.995563 
L 373.701734 -84.990837 
L 376.681889 -83.998439 
L 379.662045 -85.842286 
L 382.642201 -86.227739 
L 385.622357 -85.977482 
L 388.602513 -84.714692 
L 391.582669 -87.015905 
L 394.562824 -84.182537 
L 397.54298 -87.030287 
L 397.54298 -27.831591 
L 397.54298 -27.831591 
L 394.562824 -27.831591 
L 391.582669 -27.831591 
L 388.602513 -27.831591 
L 385.622357 -27.831591 
L 382.642201 -27.831591 
L 379.662045 -27.831591 
L 376.681889 -27.831591 
L 373.701734 -27.831591 
L 370.721578 -27.831591 
L 367.741422 -27.831591 
L 364.761266 -27.831591 
L 361.78111 -27.831591 
L 358.800954 -27.831591 
L 355.820799 -27.831591 
L 352.840643 -27.831591 
L 349.860487 -27.831591 
L 346.880331 -27.831591 
L 343.900175 -27.831591 
L 340.920019 -27.831591 
L 337.939864 -27.831591 
L 334.959708 -27.831591 
L 331.979552 -27.831591 
L 328.999396 -27.831591 
L 326.01924 -27.831591 
L 323.039084 -27.831591 
L 320.058929 -27.831591 
L 317.078773 -27.831591 
L 314.098617 -27.831591 
L 311.118461 -27.831591 
L 308.138305 -27.831591 
L 305.158149 -27.831591 
L 302.177994 -27.831591 
L 299.197838 -27.831591 
L 296.217682 -27.831591 
L 293.237526 -27.831591 
L 290.25737 -27.831591 
L 287.277214 -27.831591 
L 284.297059 -27.831591 
L 281.316903 -27.831591 
L 278.336747 -27.831591 
L 275.356591 -27.831591 
L 272.376435 -27.831591 
L 269.396279 -27.831591 
L 266.416124 -27.831591 
L 263.435968 -27.831591 
L 260.455812 -27.831591 
L 257.475656 -27.831591 
L 254.4955 -27.831591 
L 251.515344 -27.831591 
L 248.535189 -27.831591 
L 245.555033 -27.831591 
L 242.574877 -27.831591 
L 239.594721 -27.831591 
L 236.614565 -27.831591 
L 233.634409 -27.831591 
L 230.654254 -27.831591 
L 227.674098 -27.831591 
L 224.693942 -27.831591 
L 221.713786 -27.831591 
L 218.73363 -27.831591 
L 215.753475 -27.831591 
L 212.773319 -27.831591 
L 209.793163 -27.831591 
L 206.813007 -27.831591 
L 203.832851 -27.831591 
L 200.852695 -27.831591 
L 197.87254 -27.831591 
L 194.892384 -27.831591 
L 191.912228 -27.831591 
L 188.932072 -27.831591 
L 185.951916 -27.831591 
L 182.97176 -27.831591 
L 179.991605 -27.831591 
L 177.011449 -27.831591 
L 174.031293 -27.831591 
L 171.051137 -27.831591 
L 168.070981 -27.831591 
L 165.090825 -27.831591 
L 162.11067 -27.831591 
L 159.130514 -27.831591 
L 156.150358 -27.831591 
L 153.170202 -27.831591 
L 150.190046 -27.831591 
L 147.20989 -27.831591 
L 144.229735 -27.831591 
L 141.249579 -27.831591 
L 138.269423 -27.831591 
L 135.289267 -27.831591 
L 132.309111 -27.831591 
L 129.328955 -27.831591 
L 126.3488 -27.831591 
L 123.368644 -27.831591 
L 120.388488 -27.831591 
L 117.408332 -27.831591 
L 114.428176 -27.831591 
L 111.44802 -27.831591 
L 108.467865 -27.831591 
L 105.487709 -27.831591 
L 102.507553 -27.831591 
L 99.527397 -27.831591 
L 96.547241 -27.831591 
L 93.567085 -27.831591 
L 90.58693 -27.831591 
L 87.606774 -27.831591 
L 84.626618 -27.831591 
L 81.646462 -27.831591 
L 78.666306 -27.831591 
L 75.68615 -27.831591 
L 72.705995 -27.831591 
L 69.725839 -27.831591 
L 66.745683 -27.831591 
L 63.765527 -27.831591 
L 60.785371 -27.831591 
L 57.805215 -27.831591 
L 54.82506 -27.831591 
L 51.844904 -27.831591 
z
" style="stroke: #f85149; stroke-opacity: 0.15"/>
    </defs>
    <g clip-path="url(#p741a1319b4)">
     <use xlink:href="#m7e2d18c9e6" x="0" y="173.060781" style="fill: #f85149; fill-opacity: 0.15; stroke: #f85149; stroke-opacity: 0.15"/>
    </g>
   </g>
   <g id="matplotlib.axis_1">
    <g id="xtick_1">
     <g id="line2d_1">
      <path d="M 51.844904 151.118281 
L 51.844904 21.558281 
" clip-path="url(#p741a1319b4)" style="fill: none; stroke: #21262d; stroke-opacity: 0.5; stroke-width: 0.5; stroke-linecap: square"/>
     </g>
     <g id="line2d_2">
      <defs>
       <path id="mc951ab1e6b" d="M 0 0 
L 0 3.5 
" style="stroke: #c9d1d9; stroke-width: 0.8"/>
      </defs>
      <g>
       <use xlink:href="#mc951ab1e6b" x="51.844904" y="151.118281" style="fill: #c9d1d9; stroke: #c9d1d9; stroke-width: 0.8"/>
      </g>
     </g>
     <g id="text_1">
      <!-- 0 -->
      <g style="fill: #c9d1d9" transform="translate(49.299904 164.197031) scale(0.08 -0.08)">
       <defs>
        <path id="DejaVuSans-30" d="M 2034 4250 
Q 1547 4250 1301 3770 
Q 1056 3291 1056 2328 
Q 1056 1369 1301 889 
Q 1547 409 2034 409 
Q 2525 409 2770 889 
Q 3016 1369 3016 2328 
Q 3016 3291 2770 3770 
Q 2525 4250 2034 4250 
z
M 2034 4750 
Q 2819 4750 3233 4129 
Q 3647 3509 3647 2328 
Q 3647 1150 3233 529 
Q 2819 -91 2034 -91 
Q 1250 -91 836 529 
Q 422 1150 422 2328 
Q 422 3509 836 4129 
Q 1250 4750 2034 4750 
z
" transform="scale(0.015625)"/>
       </defs>
       <use xlink:href="#DejaVuSans-30"/>
      </g>
     </g>
    </g>
    <g id="xtick_2">
     <g id="line2d_3">
      <path d="M 111.44802 151.118281 
L 111.44802 21.558281 
" clip-path="url(#p741a1319b4)" style="fill: none; stroke: #21262d; stroke-opacity: 0.5; stroke-width: 0.5; stroke-linecap: square"/>
     </g>
     <g id="line2d_4">
      <g>
       <use xlink:href="#mc951ab1e6b" x="111.44802" y="151.118281" style="fill: #c9d1d9; stroke: #c9d1d9; stroke-width: 0.8"/>
      </g>
     </g>
     <g id="text_2">
      <!-- 20 -->
      <g style="fill: #c9d1d9" transform="translate(106.35802 164.197031) scale(0.08 -0.08)">
       <defs>
        <path id="DejaVuSans-32" d="M 1228 531 
L 3431 531 
L 3431 0 
L 469 0 
L 469 531 
Q 828 903 1448 1529 
Q 2069 2156 2228 2338 
Q 2531 2678 2651 2914 
Q 2772 3150 2772 3378 
Q 2772 3750 2511 3984 
Q 2250 4219 1831 4219 
Q 1534 4219 1204 4116 
Q 875 4013 500 3803 
L 500 4441 
Q 881 4594 1212 4672 
Q 1544 4750 1819 4750 
Q 2544 4750 2975 4387 
Q 3406 4025 3406 3419 
Q 3406 3131 3298 2873 
Q 3191 2616 2906 2266 
Q 2828 2175 2409 1742 
Q 1991 1309 1228 531 
z
" transform="scale(0.015625)"/>
       </defs>
       <use xlink:href="#DejaVuSans-32"/>
       <use xlink:href="#DejaVuSans-30" transform="translate(63.623047 0)"/>
      </g>
     </g>
    </g>
    <g id="xtick_3">
     <g id="line2d_5">
      <path d="M 171.051137 151.118281 
L 171.051137 21.558281 
" clip-path="url(#p741a1319b4)" style="fill: none; stroke: #21262d; stroke-opacity: 0.5; stroke-width: 0.5; stroke-linecap: square"/>
     </g>
     <g id="line2d_6">
      <g>
       <use xlink:href="#mc951ab1e6b" x="171.051137" y="151.118281" style="fill: #c9d1d9; stroke: #c9d1d9; stroke-width: 0.8"/>
      </g>
     </g>
     <g id="text_3">
      <!-- 40 -->
      <g style="fill: #c9d1d9" transform="translate(165.961137 164.197031) scale(0.08 -0.08)">
       <defs>
        <path id="DejaVuSans-34" d="M 2419 4116 
L 825 1625 
L 2419 1625 
L 2419 4116 
z
M 2253 4666 
L 3047 4666 
L 3047 1625 
L 3713 1625 
L 3713 1100 
L 3047 1100 
L 3047 0 
L 2419 0 
L 2419 1100 
L 313 1100 
L 313 1709 
L 2253 4666 
z
" transform="scale(0.015625)"/>
       </defs>
       <use xlink:href="#DejaVuSans-34"/>
       <use xlink:href="#DejaVuSans-30" transform="translate(63.623047 0)"/>
      </g>
     </g>
    </g>
    <g id="xtick_4">
     <g id="line2d_7">
      <path d="M 230.654254 151.118281 
L 230.654254 21.558281 
" clip-path="url(#p741a1319b4)" style="fill: none; stroke: #21262d; stroke-opacity: 0.5; stroke-width: 0.5; stroke-linecap: square"/>
     </g>
     <g id="line2d_8">
      <g>
       <use xlink:href="#mc951ab1e6b" x="230.654254" y="151.118281" style="fill: #c9d1d9; stroke: #c9d1d9; stroke-width: 0.8"/>
      </g>
     </g>
     <g id="text_4">
      <!-- 60 -->
      <g style="fill: #c9d1d9" transform="translate(225.564254 164.197031) scale(0.08 -0.08)">
       <defs>
        <path id="DejaVuSans-36" d="M 2113 2584 
Q 1688 2584 1439 2293 
Q 1191 2003 1191 1497 
Q 1191 994 1439 701 
Q 1688 409 2113 409 
Q 2538 409 2786 701 
Q 3034 994 3034 1497 
Q 3034 2003 2786 2293 
Q 2538 2584 2113 2584 
z
M 3366 4563 
L 3366 3988 
Q 3128 4100 2886 4159 
Q 2644 4219 2406 4219 
Q 1781 4219 1451 3797 
Q 1122 3375 1075 2522 
Q 1259 2794 1537 2939 
Q 1816 3084 2150 3084 
Q 2853 3084 3261 2657 
Q 3669 2231 3669 1497 
Q 3669 778 3244 343 
Q 2819 -91 2113 -91 
Q 1303 -91 875 529 
Q 447 1150 447 2328 
Q 447 3434 972 4092 
Q 1497 4750 2381 4750 
Q 2619 4750 2861 4703 
Q 3103 4656 3366 4563 
z
" transform="scale(0.015625)"/>
       </defs>
       <use xlink:href="#DejaVuSans-36"/>
       <use xlink:href="#DejaVuSans-30" transform="translate(63.623047 0)"/>
      </g>
     </g>
    </g>
    <g id="xtick_5">
     <g id="line2d_9">
      <path d="M 290.25737 151.118281 
L 290.25737 21.558281 
" clip-path="url(#p741a1319b4)" style="fill: none; stroke: #21262d; stroke-opacity: 0.5; stroke-width: 0.5; stroke-linecap: square"/>
     </g>
     <g id="line2d_10">
      <g>
       <use xlink:href="#mc951ab1e6b" x="290.25737" y="151.118281" style="fill: #c9d1d9; stroke: #c9d1d9; stroke-width: 0.8"/>
      </g>
     </g>
     <g id="text_5">
      <!-- 80 -->
      <g style="fill: #c9d1d9" transform="translate(285.16737 164.197031) scale(0.08 -0.08)">
       <defs>
        <path id="DejaVuSans-38" d="M 2034 2216 
Q 1584 2216 1326 1975 
Q 1069 1734 1069 1313 
Q 1069 891 1326 650 
Q 1584 409 2034 409 
Q 2484 409 2743 651 
Q 3003 894 3003 1313 
Q 3003 1734 2745 1975 
Q 2488 2216 2034 2216 
z
M 1403 2484 
Q 997 2584 770 2862 
Q 544 3141 544 3541 
Q 544 4100 942 4425 
Q 1341 4750 2034 4750 
Q 2731 4750 3128 4425 
Q 3525 4100 3525 3541 
Q 3525 3141 3298 2862 
Q 3072 2584 2669 2484 
Q 3125 2378 3379 2068 
Q 3634 1759 3634 1313 
Q 3634 634 3220 271 
Q 2806 -91 2034 -91 
Q 1263 -91 848 271 
Q 434 634 434 1313 
Q 434 1759 690 2068 
Q 947 2378 1403 2484 
z
M 1172 3481 
Q 1172 3119 1398 2916 
Q 1625 2713 2034 2713 
Q 2441 2713 2670 2916 
Q 2900 3119 2900 3481 
Q 2900 3844 2670 4047 
Q 2441 4250 2034 4250 
Q 1625 4250 1398 4047 
Q 1172 3844 1172 3481 
z
" transform="scale(0.015625)"/>
       </defs>
       <use xlink:href="#DejaVuSans-38"/>
       <use xlink:href="#DejaVuSans-30" transform="translate(63.623047 0)"/>
      </g>
     </g>
    </g>
    <g id="xtick_6">
     <g id="line2d_11">
      <path d="M 349.860487 151.118281 
L 349.860487 21.558281 
" clip-path="url(#p741a1319b4)" style="fill: none; stroke: #21262d; stroke-opacity: 0.5; stroke-width: 0.5; stroke-linecap: square"/>
     </g>
     <g id="line2d_12">
      <g>
       <use xlink:href="#mc951ab1e6b" x="349.860487" y="151.118281" style="fill: #c9d1d9; stroke: #c9d1d9; stroke-width: 0.8"/>
      </g>
     </g>
     <g id="text_6">
      <!-- 100 -->
      <g style="fill: #c9d1d9" transform="translate(342.225487 164.197031) scale(0.08 -0.08)">
       <defs>
        <path id="DejaVuSans-31" d="M 794 531 
L 1825 531 
L 1825 4091 
L 703 3866 
L 703 4441 
L 1819 4666 
L 2450 4666 
L 2450 531 
L 3481 531 
L 3481 0 
L 794 0 
L 794 531 
z
" transform="scale(0.015625)"/>
       </defs>
       <use xlink:href="#DejaVuSans-31"/>
       <use xlink:href="#DejaVuSans-30" transform="translate(63.623047 0)"/>
       <use xlink:href="#DejaVuSans-30" transform="translate(127.246094 0)"/>
      </g>
     </g>
    </g>
    <g id="xtick_7">
     <g id="line2d_13">
      <path d="M 409.463604 151.118281 
L 409.463604 21.558281 
" clip-path="url(#p741a1319b4)" style="fill: none; stroke: #21262d; stroke-opacity: 0.5; stroke-width: 0.5; stroke-linecap: square"/>
     </g>
     <g id="line2d_14">
      <g>
       <use xlink:href="#mc951ab1e6b" x="409.463604" y="151.118281" style="fill: #c9d1d9; stroke: #c9d1d9; stroke-width: 0.8"/>
      </g>
     </g>
     <g id="text_7">
      <!-- 120 -->
      <g style="fill: #c9d1d9" transform="translate(401.828604 164.197031) scale(0.08 -0.08)">
       <use xlink:href="#DejaVuSans-31"/>
       <use xlink:href="#DejaVuSans-32" transform="translate(63.623047 0)"/>
       <use xlink:href="#DejaVuSans-30" transform="translate(127.246094 0)"/>
      </g>
     </g>
    </g>
   </g>
   <g id="matplotlib.axis_2">
    <g id="ytick_1">
     <g id="line2d_15">
      <path d="M 34.56 145.22919 
L 414.827884 145.22919 
" clip-path="url(#p741a1319b4)" style="fill: none; stroke: #21262d; stroke-opacity: 0.5; stroke-width: 0.5; stroke-linecap: square"/>
     </g>
     <g id="line2d_16">
      <defs>
       <path id="md2bf98637e" d="M 0 0 
L -3.5 0 
" style="stroke: #c9d1d9; stroke-width: 0.8"/>
      </defs>
      <g>
       <use xlink:href="#md2bf98637e" x="34.56" y="145.22919" style="fill: #c9d1d9; stroke: #c9d1d9; stroke-width: 0.8"/>
      </g>
     </g>
     <g id="text_8">
      <!-- $0 -->
      <g style="fill: #c9d1d9" transform="translate(17.38 148.268565) scale(0.08 -0.08)">
       <defs>
        <path id="DejaVuSans-24" d="M 2163 -941 
L 1850 -941 
L 1847 0 
Q 1519 6 1191 76 
Q 863 147 531 288 
L 531 850 
Q 850 650 1176 548 
Q 1503 447 1850 444 
L 1850 1869 
Q 1159 1981 845 2250 
Q 531 2519 531 2988 
Q 531 3497 872 3790 
Q 1213 4084 1850 4128 
L 1850 4863 
L 2163 4863 
L 2163 4138 
Q 2453 4125 2725 4076 
Q 2997 4028 3256 3944 
L 3256 3397 
Q 2997 3528 2723 3600 
Q 2450 3672 2163 3684 
L 2163 2350 
Q 2872 2241 3206 1959 
Q 3541 1678 3541 1191 
Q 3541 663 3186 358 
Q 2831 53 2163 6 
L 2163 -941 
z
M 1850 2406 
L 1850 3688 
Q 1488 3647 1297 3481 
Q 1106 3316 1106 3041 
Q 1106 2772 1282 2622 
Q 1459 2472 1850 2406 
z
M 2163 1806 
L 2163 453 
Q 2559 506 2761 678 
Q 2963 850 2963 1131 
Q 2963 1406 2770 1568 
Q 2578 1731 2163 1806 
z
" transform="scale(0.015625)"/>
       </defs>
       <use xlink:href="#DejaVuSans-24"/>
       <use xlink:href="#DejaVuSans-30" transform="translate(63.623047 0)"/>
      </g>
     </g>
    </g>
    <g id="ytick_2">
     <g id="line2d_17">
      <path d="M 34.56 116.464032 
L 414.827884 116.464032 
" clip-path="url(#p741a1319b4)" style="fill: none; stroke: #21262d; stroke-opacity: 0.5; stroke-width: 0.5; stroke-linecap: square"/>
     </g>
     <g id="line2d_18">
      <g>
       <use xlink:href="#md2bf98637e" x="34.56" y="116.464032" style="fill: #c9d1d9; stroke: #c9d1d9; stroke-width: 0.8"/>
      </g>
     </g>
     <g id="text_9">
      <!-- $100 -->
      <g style="fill: #c9d1d9" transform="translate(7.2 119.503407) scale(0.08 -0.08)">
       <use xlink:href="#DejaVuSans-24"/>
       <use xlink:href="#DejaVuSans-31" transform="translate(63.623047 0)"/>
       <use xlink:href="#DejaVuSans-30" transform="translate(127.246094 0)"/>
       <use xlink:href="#DejaVuSans-30" transform="translate(190.869141 0)"/>
      </g>
     </g>
    </g>
    <g id="ytick_3">
     <g id="line2d_19">
      <path d="M 34.56 87.698873 
L 414.827884 87.698873 
" clip-path="url(#p741a1319b4)" style="fill: none; stroke: #21262d; stroke-opacity: 0.5; stroke-width: 0.5; stroke-linecap: square"/>
     </g>
     <g id="line2d_20">
      <g>
       <use xlink:href="#md2bf98637e" x="34.56" y="87.698873" style="fill: #c9d1d9; stroke: #c9d1d9; stroke-width: 0.8"/>
      </g>
     </g>
     <g id="text_10">
      <!-- $200 -->
      <g style="fill: #c9d1d9" transform="translate(7.2 90.738248) scale(0.08 -0.08)">
       <use xlink:href="#DejaVuSans-24"/>
       <use xlink:href="#DejaVuSans-32" transform="translate(63.623047 0)"/>
       <use xlink:href="#DejaVuSans-30" transform="translate(127.246094 0)"/>
       <use xlink:href="#DejaVuSans-30" transform="translate(190.869141 0)"/>
      </g>
     </g>
    </g>
    <g id="ytick_4">
     <g id="line2d_21">
      <path d="M 34.56 58.933715 
L 414.827884 58.933715 
" clip-path="url(#p741a1319b4)" style="fill: none; stroke: #21262d; stroke-opacity: 0.5; stroke-width: 0.5; stroke-linecap: square"/>
     </g>
     <g id="line2d_22">
      <g>
       <use xlink:href="#md2bf98637e" x="34.56" y="58.933715" style="fill: #c9d1d9; stroke: #c9d1d9; stroke-width: 0.8"/>
      </g>
     </g>
     <g id="text_11">
      <!-- $300 -->
      <g style="fill: #c9d1d9" transform="translate(7.2 61.97309) scale(0.08 -0.08)">
       <defs>
        <path id="DejaVuSans-33" d="M 2597 2516 
Q 3050 2419 3304 2112 
Q 3559 1806 3559 1356 
Q 3559 666 3084 287 
Q 2609 -91 1734 -91 
Q 1441 -91 1130 -33 
Q 819 25 488 141 
L 488 750 
Q 750 597 1062 519 
Q 1375 441 1716 441 
Q 2309 441 2620 675 
Q 2931 909 2931 1356 
Q 2931 1769 2642 2001 
Q 2353 2234 1838 2234 
L 1294 2234 
L 1294 2753 
L 1863 2753 
Q 2328 2753 2575 2939 
Q 2822 3125 2822 3475 
Q 2822 3834 2567 4026 
Q 2313 4219 1838 4219 
Q 1578 4219 1281 4162 
Q 984 4106 628 3988 
L 628 4550 
Q 988 4650 1302 4700 
Q 1616 4750 1894 4750 
Q 2613 4750 3031 4423 
Q 3450 4097 3450 3541 
Q 3450 3153 3228 2886 
Q 3006 2619 2597 2516 
z
" transform="scale(0.015625)"/>
       </defs>
       <use xlink:href="#DejaVuSans-24"/>
       <use xlink:href="#DejaVuSans-33" transform="translate(63.623047 0)"/>
       <use xlink:href="#DejaVuSans-30" transform="translate(127.246094 0)"/>
       <use xlink:href="#DejaVuSans-30" transform="translate(190.869141 0)"/>
      </g>
     </g>
    </g>
    <g id="ytick_5">
     <g id="line2d_23">
      <path d="M 34.56 30.168556 
L 414.827884 30.168556 
" clip-path="url(#p741a1319b4)" style="fill: none; stroke: #21262d; stroke-opacity: 0.5; stroke-width: 0.5; stroke-linecap: square"/>
     </g>
     <g id="line2d_24">
      <g>
       <use xlink:href="#md2bf98637e" x="34.56" y="30.168556" style="fill: #c9d1d9; stroke: #c9d1d9; stroke-width: 0.8"/>
      </g>
     </g>
     <g id="text_12">
      <!-- $400 -->
      <g style="fill: #c9d1d9" transform="translate(7.2 33.207931) scale(0.08 -0.08)">
       <use xlink:href="#DejaVuSans-24"/>
       <use xlink:href="#DejaVuSans-34" transform="translate(63.623047 0)"/>
       <use xlink:href="#DejaVuSans-30" transform="translate(127.246094 0)"/>
       <use xlink:href="#DejaVuSans-30" transform="translate(190.869141 0)"/>
      </g>
     </g>
    </g>
   </g>
   <g id="line2d_25">
    <path d="M 51.844904 84.123364 
L 54.82506 86.369923 
L 57.805215 43.150272 
L 60.785371 87.926118 
L 63.765527 80.63415 
L 66.745683 88.383484 
L 69.725839 83.015905 
L 72.705995 89.479437 
L 75.68615 75.151511 
L 78.666306 85.60477 
L 81.646462 85.527104 
L 84.626618 80.665792 
L 87.606774 84.96906 
L 90.58693 84.937418 
L 93.567085 82.73976 
L 96.547241 79.233287 
L 99.527397 87.163841 
L 102.507553 83.533678 
L 105.487709 84.07734 
L 108.467865 85.906804 
L 111.44802 87.842699 
L 114.428176 84.701544 
L 117.408332 88.418002 
L 120.388488 85.245205 
L 123.368644 83.024535 
L 126.3488 65.037681 
L 129.328955 75.81311 
L 132.309111 74.193631 
L 135.289267 76.290611 
L 138.269423 76.497721 
L 141.249579 27.447372 
L 144.229735 63.349167 
L 147.20989 77.176578 
L 150.190046 76.51498 
L 153.170202 77.182331 
L 156.150358 87.834069 
L 159.130514 82.736883 
L 162.11067 87.808181 
L 165.090825 83.37547 
L 168.070981 87.480258 
L 171.051137 86.090901 
L 174.031293 85.59614 
L 177.011449 87.008509 
L 179.991605 86.390059 
L 182.97176 87.813934 
L 185.951916 84.474299 
L 188.932072 89.125625 
L 191.912228 86.413071 
L 194.892384 87.690244 
L 197.87254 87.509023 
L 200.852695 87.831193 
L 203.832851 86.55402 
L 206.813007 82.912351 
L 209.793163 88.423755 
L 212.773319 88.418002 
L 215.753475 81.816398 
L 218.73363 84.388004 
L 221.713786 64.692499 
L 224.693942 70.511691 
L 227.674098 66.91317 
L 230.654254 77.052888 
L 233.634409 74.222396 
L 236.614565 84.031316 
L 239.594721 91.668465 
L 242.574877 84.871258 
L 245.555033 90.837152 
L 248.535189 88.08145 
L 251.515344 88.576211 
L 254.4955 88.924269 
L 257.475656 86.772635 
L 260.455812 89.108366 
L 263.435968 88.046932 
L 266.416124 89.565732 
L 269.396279 88.090079 
L 272.376435 88.113092 
L 275.356591 88.115968 
L 278.336747 86.643192 
L 281.316903 90.175553 
L 284.297059 87.704626 
L 287.277214 88.061314 
L 290.25737 87.350815 
L 293.237526 88.530186 
L 296.217682 86.459095 
L 299.197838 89.513955 
L 302.177994 87.658602 
L 305.158149 87.045904 
L 308.138305 88.927146 
L 311.118461 89.266574 
L 314.098617 88.472656 
L 317.078773 88.475533 
L 320.058929 88.369101 
L 323.039084 89.016318 
L 326.01924 86.251986 
L 328.999396 90.043234 
L 331.979552 86.922214 
L 334.959708 88.308695 
L 337.939864 88.334583 
L 340.920019 91.858315 
L 343.900175 86.162814 
L 346.880331 89.367252 
L 349.860487 88.694148 
L 352.840643 88.248288 
L 355.820799 86.795647 
L 358.800954 88.185004 
L 361.78111 86.522378 
L 364.761266 87.95776 
L 367.741422 86.309516 
L 370.721578 89.065218 
L 373.701734 88.069944 
L 376.681889 89.062342 
L 379.662045 87.218495 
L 382.642201 86.833042 
L 385.622357 87.083299 
L 388.602513 88.346089 
L 391.582669 86.044877 
L 394.562824 88.878245 
L 397.54298 86.030494 
" clip-path="url(#p741a1319b4)" style="fill: none; stroke: #f85149; stroke-width: 2; stroke-linecap: square"/>
   </g>
   <g id="patch_3">
    <path d="M 34.56 151.118281 
L 34.56 21.558281 
" style="fill: none; stroke: #21262d; stroke-width: 0.8; stroke-linejoin: miter; stroke-linecap: square"/>
   </g>
   <g id="patch_4">
    <path d="M 34.56 151.118281 
L 414.827884 151.118281 
" style="fill: none; stroke: #21262d; stroke-width: 0.8; stroke-linejoin: miter; stroke-linecap: square"/>
   </g>
   <g id="text_13">
    <!-- CLI (googleworkspace/cli) — $205.80 (+5.05%) -->
    <g style="fill: #c9d1d9" transform="translate(79.92363 15.558281) scale(0.11 -0.11)">
     <defs>
      <path id="DejaVuSans-Bold-43" d="M 4288 256 
Q 3956 84 3597 -3 
Q 3238 -91 2847 -91 
Q 1681 -91 1000 561 
Q 319 1213 319 2328 
Q 319 3447 1000 4098 
Q 1681 4750 2847 4750 
Q 3238 4750 3597 4662 
Q 3956 4575 4288 4403 
L 4288 3438 
Q 3953 3666 3628 3772 
Q 3303 3878 2944 3878 
Q 2300 3878 1931 3465 
Q 1563 3053 1563 2328 
Q 1563 1606 1931 1193 
Q 2300 781 2944 781 
Q 3303 781 3628 887 
Q 3953 994 4288 1222 
L 4288 256 
z
" transform="scale(0.015625)"/>
      <path id="DejaVuSans-Bold-4c" d="M 588 4666 
L 1791 4666 
L 1791 909 
L 3903 909 
L 3903 0 
L 588 0 
L 588 4666 
z
" transform="scale(0.015625)"/>
      <path id="DejaVuSans-Bold-49" d="M 588 4666 
L 1791 4666 
L 1791 0 
L 588 0 
L 588 4666 
z
" transform="scale(0.015625)"/>
      <path id="DejaVuSans-Bold-20" transform="scale(0.015625)"/>
      <path id="DejaVuSans-Bold-28" d="M 2413 -844 
L 1484 -844 
Q 1006 -72 778 623 
Q 550 1319 550 2003 
Q 550 2688 779 3389 
Q 1009 4091 1484 4856 
L 2413 4856 
Q 2013 4116 1813 3408 
Q 1613 2700 1613 2009 
Q 1613 1319 1811 609 
Q 2009 -100 2413 -844 
z
" transform="scale(0.015625)"/>
      <path id="DejaVuSans-Bold-67" d="M 2919 594 
Q 2688 288 2409 144 
Q 2131 0 1766 0 
Q 1125 0 706 504 
Q 288 1009 288 1791 
Q 288 2575 706 3076 
Q 1125 3578 1766 3578 
Q 2131 3578 2409 3434 
Q 2688 3291 2919 2981 
L 2919 3500 
L 4044 3500 
L 4044 353 
Q 4044 -491 3511 -936 
Q 2978 -1381 1966 -1381 
Q 1638 -1381 1331 -1331 
Q 1025 -1281 716 -1178 
L 716 -306 
Q 1009 -475 1290 -558 
Q 1572 -641 1856 -641 
Q 2406 -641 2662 -400 
Q 2919 -159 2919 353 
L 2919 594 
z
M 2181 2772 
Q 1834 2772 1640 2515 
Q 1447 2259 1447 1791 
Q 1447 1309 1634 1061 
Q 1822 813 2181 813 
Q 2531 813 2725 1069 
Q 2919 1325 2919 1791 
Q 2919 2259 2725 2515 
Q 2531 2772 2181 2772 
z
" transform="scale(0.015625)"/>
      <path id="DejaVuSans-Bold-6f" d="M 2203 2784 
Q 1831 2784 1636 2517 
Q 1441 2250 1441 1747 
Q 1441 1244 1636 976 
Q 1831 709 2203 709 
Q 2569 709 2762 976 
Q 2956 1244 2956 1747 
Q 2956 2250 2762 2517 
Q 2569 2784 2203 2784 
z
M 2203 3584 
Q 3106 3584 3614 3096 
Q 4122 2609 4122 1747 
Q 4122 884 3614 396 
Q 3106 -91 2203 -91 
Q 1297 -91 786 396 
Q 275 884 275 1747 
Q 275 2609 786 3096 
Q 1297 3584 2203 3584 
z
" transform="scale(0.015625)"/>
      <path id="DejaVuSans-Bold-6c" d="M 538 4863 
L 1656 4863 
L 1656 0 
L 538 0 
L 538 4863 
z
" transform="scale(0.015625)"/>
      <path id="DejaVuSans-Bold-65" d="M 4031 1759 
L 4031 1441 
L 1416 1441 
Q 1456 1047 1700 850 
Q 1944 653 2381 653 
Q 2734 653 3104 758 
Q 3475 863 3866 1075 
L 3866 213 
Q 3469 63 3072 -14 
Q 2675 -91 2278 -91 
Q 1328 -91 801 392 
Q 275 875 275 1747 
Q 275 2603 792 3093 
Q 1309 3584 2216 3584 
Q 3041 3584 3536 3087 
Q 4031 2591 4031 1759 
z
M 2881 2131 
Q 2881 2450 2695 2645 
Q 2509 2841 2209 2841 
Q 1884 2841 1681 2658 
Q 1478 2475 1428 2131 
L 2881 2131 
z
" transform="scale(0.015625)"/>
      <path id="DejaVuSans-Bold-77" d="M 225 3500 
L 1313 3500 
L 1900 1088 
L 2491 3500 
L 3425 3500 
L 4013 1113 
L 4603 3500 
L 5691 3500 
L 4769 0 
L 3547 0 
L 2956 2406 
L 2369 0 
L 1147 0 
L 225 3500 
z
" transform="scale(0.015625)"/>
      <path id="DejaVuSans-Bold-72" d="M 3138 2547 
Q 2991 2616 2845 2648 
Q 2700 2681 2553 2681 
Q 2122 2681 1889 2404 
Q 1656 2128 1656 1613 
L 1656 0 
L 538 0 
L 538 3500 
L 1656 3500 
L 1656 2925 
Q 1872 3269 2151 3426 
Q 2431 3584 2822 3584 
Q 2878 3584 2943 3579 
Q 3009 3575 3134 3559 
L 3138 2547 
z
" transform="scale(0.015625)"/>
      <path id="DejaVuSans-Bold-6b" d="M 538 4863 
L 1656 4863 
L 1656 2216 
L 2944 3500 
L 4244 3500 
L 2534 1894 
L 4378 0 
L 3022 0 
L 1656 1459 
L 1656 0 
L 538 0 
L 538 4863 
z
" transform="scale(0.015625)"/>
      <path id="DejaVuSans-Bold-73" d="M 3272 3391 
L 3272 2541 
Q 2913 2691 2578 2766 
Q 2244 2841 1947 2841 
Q 1628 2841 1473 2761 
Q 1319 2681 1319 2516 
Q 1319 2381 1436 2309 
Q 1553 2238 1856 2203 
L 2053 2175 
Q 2913 2066 3209 1816 
Q 3506 1566 3506 1031 
Q 3506 472 3093 190 
Q 2681 -91 1863 -91 
Q 1516 -91 1145 -36 
Q 775 19 384 128 
L 384 978 
Q 719 816 1070 734 
Q 1422 653 1784 653 
Q 2113 653 2278 743 
Q 2444 834 2444 1013 
Q 2444 1163 2330 1236 
Q 2216 1309 1875 1350 
L 1678 1375 
Q 931 1469 631 1722 
Q 331 1975 331 2491 
Q 331 3047 712 3315 
Q 1094 3584 1881 3584 
Q 2191 3584 2531 3537 
Q 2872 3491 3272 3391 
z
" transform="scale(0.015625)"/>
      <path id="DejaVuSans-Bold-70" d="M 1656 506 
L 1656 -1331 
L 538 -1331 
L 538 3500 
L 1656 3500 
L 1656 2988 
Q 1888 3294 2169 3439 
Q 2450 3584 2816 3584 
Q 3463 3584 3878 3070 
Q 4294 2556 4294 1747 
Q 4294 938 3878 423 
Q 3463 -91 2816 -91 
Q 2450 -91 2169 54 
Q 1888 200 1656 506 
z
M 2400 2772 
Q 2041 2772 1848 2508 
Q 1656 2244 1656 1747 
Q 1656 1250 1848 986 
Q 2041 722 2400 722 
Q 2759 722 2948 984 
Q 3138 1247 3138 1747 
Q 3138 2247 2948 2509 
Q 2759 2772 2400 2772 
z
" transform="scale(0.015625)"/>
      <path id="DejaVuSans-Bold-61" d="M 2106 1575 
Q 1756 1575 1579 1456 
Q 1403 1338 1403 1106 
Q 1403 894 1545 773 
Q 1688 653 1941 653 
Q 2256 653 2472 879 
Q 2688 1106 2688 1447 
L 2688 1575 
L 2106 1575 
z
M 3816 1997 
L 3816 0 
L 2688 0 
L 2688 519 
Q 2463 200 2181 54 
Q 1900 -91 1497 -91 
Q 953 -91 614 226 
Q 275 544 275 1050 
Q 275 1666 698 1953 
Q 1122 2241 2028 2241 
L 2688 2241 
L 2688 2328 
Q 2688 2594 2478 2717 
Q 2269 2841 1825 2841 
Q 1466 2841 1156 2769 
Q 847 2697 581 2553 
L 581 3406 
Q 941 3494 1303 3539 
Q 1666 3584 2028 3584 
Q 2975 3584 3395 3211 
Q 3816 2838 3816 1997 
z
" transform="scale(0.015625)"/>
      <path id="DejaVuSans-Bold-63" d="M 3366 3391 
L 3366 2478 
Q 3138 2634 2908 2709 
Q 2678 2784 2431 2784 
Q 1963 2784 1702 2511 
Q 1441 2238 1441 1747 
Q 1441 1256 1702 982 
Q 1963 709 2431 709 
Q 2694 709 2930 787 
Q 3166 866 3366 1019 
L 3366 103 
Q 3103 6 2833 -42 
Q 2563 -91 2291 -91 
Q 1344 -91 809 395 
Q 275 881 275 1747 
Q 275 2613 809 3098 
Q 1344 3584 2291 3584 
Q 2566 3584 2833 3536 
Q 3100 3488 3366 3391 
z
" transform="scale(0.015625)"/>
      <path id="DejaVuSans-Bold-2f" d="M 1644 4666 
L 2338 4666 
L 691 -594 
L 0 -594 
L 1644 4666 
z
" transform="scale(0.015625)"/>
      <path id="DejaVuSans-Bold-69" d="M 538 3500 
L 1656 3500 
L 1656 0 
L 538 0 
L 538 3500 
z
M 538 4863 
L 1656 4863 
L 1656 3950 
L 538 3950 
L 538 4863 
z
" transform="scale(0.015625)"/>
      <path id="DejaVuSans-Bold-29" d="M 513 -844 
Q 913 -100 1113 609 
Q 1313 1319 1313 2009 
Q 1313 2700 1113 3408 
Q 913 4116 513 4856 
L 1441 4856 
Q 1916 4091 2145 3389 
Q 2375 2688 2375 2003 
Q 2375 1319 2147 623 
Q 1919 -72 1441 -844 
L 513 -844 
z
" transform="scale(0.015625)"/>
      <path id="DejaVuSans-Bold-2014" d="M 344 2156 
L 6056 2156 
L 6056 1350 
L 344 1350 
L 344 2156 
z
" transform="scale(0.015625)"/>
      <path id="DejaVuSans-Bold-24" d="M 2484 -941 
L 1978 -941 
L 1975 0 
Q 1584 16 1218 87 
Q 853 159 506 288 
L 506 1106 
Q 866 922 1233 823 
Q 1600 725 1978 713 
L 1978 1684 
L 1875 1703 
Q 1128 1834 814 2115 
Q 500 2397 500 2925 
Q 500 3484 883 3798 
Q 1266 4113 1975 4141 
L 1978 4863 
L 2484 4863 
L 2484 4153 
Q 2797 4128 3109 4075 
Q 3422 4022 3738 3938 
L 3738 3144 
Q 3425 3275 3112 3348 
Q 2800 3422 2484 3438 
L 2484 2541 
L 2584 2522 
Q 3378 2397 3698 2105 
Q 4019 1813 4019 1241 
Q 4019 666 3637 358 
Q 3256 50 2484 6 
L 2484 -941 
z
M 1978 2613 
L 1978 3428 
Q 1756 3416 1623 3308 
Q 1491 3200 1491 3034 
Q 1491 2850 1612 2745 
Q 1734 2641 1978 2613 
z
M 2484 1594 
L 2484 725 
Q 2756 728 2892 831 
Q 3028 934 3028 1141 
Q 3028 1353 2903 1458 
Q 2778 1563 2484 1594 
z
" transform="scale(0.015625)"/>
      <path id="DejaVuSans-Bold-32" d="M 1844 884 
L 3897 884 
L 3897 0 
L 506 0 
L 506 884 
L 2209 2388 
Q 2438 2594 2547 2791 
Q 2656 2988 2656 3200 
Q 2656 3528 2436 3728 
Q 2216 3928 1850 3928 
Q 1569 3928 1234 3808 
Q 900 3688 519 3450 
L 519 4475 
Q 925 4609 1322 4679 
Q 1719 4750 2100 4750 
Q 2938 4750 3402 4381 
Q 3866 4013 3866 3353 
Q 3866 2972 3669 2642 
Q 3472 2313 2841 1759 
L 1844 884 
z
" transform="scale(0.015625)"/>
      <path id="DejaVuSans-Bold-30" d="M 2944 2338 
Q 2944 3213 2780 3570 
Q 2616 3928 2228 3928 
Q 1841 3928 1675 3570 
Q 1509 3213 1509 2338 
Q 1509 1453 1675 1090 
Q 1841 728 2228 728 
Q 2613 728 2778 1090 
Q 2944 1453 2944 2338 
z
M 4147 2328 
Q 4147 1169 3647 539 
Q 3147 -91 2228 -91 
Q 1306 -91 806 539 
Q 306 1169 306 2328 
Q 306 3491 806 4120 
Q 1306 4750 2228 4750 
Q 3147 4750 3647 4120 
Q 4147 3491 4147 2328 
z
" transform="scale(0.015625)"/>
      <path id="DejaVuSans-Bold-35" d="M 678 4666 
L 3669 4666 
L 3669 3781 
L 1638 3781 
L 1638 3059 
Q 1775 3097 1914 3117 
Q 2053 3138 2203 3138 
Q 3056 3138 3531 2711 
Q 4006 2284 4006 1522 
Q 4006 766 3489 337 
Q 2972 -91 2053 -91 
Q 1656 -91 1267 -14 
Q 878 63 494 219 
L 494 1166 
Q 875 947 1217 837 
Q 1559 728 1863 728 
Q 2300 728 2551 942 
Q 2803 1156 2803 1522 
Q 2803 1891 2551 2103 
Q 2300 2316 1863 2316 
Q 1603 2316 1309 2248 
Q 1016 2181 678 2041 
L 678 4666 
z
" transform="scale(0.015625)"/>
      <path id="DejaVuSans-Bold-2e" d="M 653 1209 
L 1778 1209 
L 1778 0 
L 653 0 
L 653 1209 
z
" transform="scale(0.015625)"/>
      <path id="DejaVuSans-Bold-38" d="M 2228 2088 
Q 1891 2088 1709 1903 
Q 1528 1719 1528 1375 
Q 1528 1031 1709 848 
Q 1891 666 2228 666 
Q 2563 666 2741 848 
Q 2919 1031 2919 1375 
Q 2919 1722 2741 1905 
Q 2563 2088 2228 2088 
z
M 1350 2484 
Q 925 2613 709 2878 
Q 494 3144 494 3541 
Q 494 4131 934 4440 
Q 1375 4750 2228 4750 
Q 3075 4750 3515 4442 
Q 3956 4134 3956 3541 
Q 3956 3144 3739 2878 
Q 3522 2613 3097 2484 
Q 3572 2353 3814 2058 
Q 4056 1763 4056 1313 
Q 4056 619 3595 264 
Q 3134 -91 2228 -91 
Q 1319 -91 855 264 
Q 391 619 391 1313 
Q 391 1763 633 2058 
Q 875 2353 1350 2484 
z
M 1631 3419 
Q 1631 3141 1786 2991 
Q 1941 2841 2228 2841 
Q 2509 2841 2662 2991 
Q 2816 3141 2816 3419 
Q 2816 3697 2662 3845 
Q 2509 3994 2228 3994 
Q 1941 3994 1786 3844 
Q 1631 3694 1631 3419 
z
" transform="scale(0.015625)"/>
      <path id="DejaVuSans-Bold-2b" d="M 3053 4013 
L 3053 2375 
L 4684 2375 
L 4684 1638 
L 3053 1638 
L 3053 0 
L 2309 0 
L 2309 1638 
L 678 1638 
L 678 2375 
L 2309 2375 
L 2309 4013 
L 3053 4013 
z
" transform="scale(0.015625)"/>
      <path id="DejaVuSans-Bold-25" d="M 4959 1925 
Q 4738 1925 4616 1733 
Q 4494 1541 4494 1184 
Q 4494 825 4614 633 
Q 4734 441 4959 441 
Q 5184 441 5303 633 
Q 5422 825 5422 1184 
Q 5422 1541 5301 1733 
Q 5181 1925 4959 1925 
z
M 4959 2450 
Q 5541 2450 5875 2112 
Q 6209 1775 6209 1184 
Q 6209 594 5875 251 
Q 5541 -91 4959 -91 
Q 4378 -91 4042 251 
Q 3706 594 3706 1184 
Q 3706 1772 4042 2111 
Q 4378 2450 4959 2450 
z
M 2094 -91 
L 1403 -91 
L 4319 4750 
L 5013 4750 
L 2094 -91 
z
M 1453 4750 
Q 2034 4750 2367 4411 
Q 2700 4072 2700 3481 
Q 2700 2891 2367 2550 
Q 2034 2209 1453 2209 
Q 872 2209 539 2550 
Q 206 2891 206 3481 
Q 206 4072 539 4411 
Q 872 4750 1453 4750 
z
M 1453 4225 
Q 1228 4225 1106 4031 
Q 984 3838 984 3481 
Q 984 3122 1106 2926 
Q 1228 2731 1453 2731 
Q 1678 2731 1798 2926 
Q 1919 3122 1919 3481 
Q 1919 3838 1797 4031 
Q 1675 4225 1453 4225 
z
" transform="scale(0.015625)"/>
     </defs>
     <use xlink:href="#DejaVuSans-Bold-43"/>
     <use xlink:href="#DejaVuSans-Bold-4c" transform="translate(73.388672 0)"/>
     <use xlink:href="#DejaVuSans-Bold-49" transform="translate(137.109375 0)"/>
     <use xlink:href="#DejaVuSans-Bold-20" transform="translate(174.316406 0)"/>
     <use xlink:href="#DejaVuSans-Bold-28" transform="translate(209.130859 0)"/>
     <use xlink:href="#DejaVuSans-Bold-67" transform="translate(254.833984 0)"/>
     <use xlink:href="#DejaVuSans-Bold-6f" transform="translate(326.416016 0)"/>
     <use xlink:href="#DejaVuSans-Bold-6f" transform="translate(395.117188 0)"/>
     <use xlink:href="#DejaVuSans-Bold-67" transform="translate(463.818359 0)"/>
     <use xlink:href="#DejaVuSans-Bold-6c" transform="translate(535.400391 0)"/>
     <use xlink:href="#DejaVuSans-Bold-65" transform="translate(569.677734 0)"/>
     <use xlink:href="#DejaVuSans-Bold-77" transform="translate(637.5 0)"/>
     <use xlink:href="#DejaVuSans-Bold-6f" transform="translate(729.882812 0)"/>
     <use xlink:href="#DejaVuSans-Bold-72" transform="translate(798.583984 0)"/>
     <use xlink:href="#DejaVuSans-Bold-6b" transform="translate(847.900391 0)"/>
     <use xlink:href="#DejaVuSans-Bold-73" transform="translate(914.404297 0)"/>
     <use xlink:href="#DejaVuSans-Bold-70" transform="translate(973.925781 0)"/>
     <use xlink:href="#DejaVuSans-Bold-61" transform="translate(1045.507812 0)"/>
     <use xlink:href="#DejaVuSans-Bold-63" transform="translate(1112.988281 0)"/>
     <use xlink:href="#DejaVuSans-Bold-65" transform="translate(1172.265625 0)"/>
     <use xlink:href="#DejaVuSans-Bold-2f" transform="translate(1240.087891 0)"/>
     <use xlink:href="#DejaVuSans-Bold-63" transform="translate(1276.611328 0)"/>
     <use xlink:href="#DejaVuSans-Bold-6c" transform="translate(1335.888672 0)"/>
     <use xlink:href="#DejaVuSans-Bold-69" transform="translate(1370.166016 0)"/>
     <use xlink:href="#DejaVuSans-Bold-29" transform="translate(1404.443359 0)"/>
     <use xlink:href="#DejaVuSans-Bold-20" transform="translate(1450.146484 0)"/>
     <use xlink:href="#DejaVuSans-Bold-2014" transform="translate(1484.960938 0)"/>
     <use xlink:href="#DejaVuSans-Bold-20" transform="translate(1584.960938 0)"/>
     <use xlink:href="#DejaVuSans-Bold-24" transform="translate(1619.775391 0)"/>
     <use xlink:href="#DejaVuSans-Bold-32" transform="translate(1689.355469 0)"/>
     <use xlink:href="#DejaVuSans-Bold-30" transform="translate(1758.935547 0)"/>
     <use xlink:href="#DejaVuSans-Bold-35" transform="translate(1828.515625 0)"/>
     <use xlink:href="#DejaVuSans-Bold-2e" transform="translate(1898.095703 0)"/>
     <use xlink:href="#DejaVuSans-Bold-38" transform="translate(1936.083984 0)"/>
     <use xlink:href="#DejaVuSans-Bold-30" transform="translate(2005.664062 0)"/>
     <use xlink:href="#DejaVuSans-Bold-20" transform="translate(2075.244141 0)"/>
     <use xlink:href="#DejaVuSans-Bold-28" transform="translate(2110.058594 0)"/>
     <use xlink:href="#DejaVuSans-Bold-2b" transform="translate(2155.761719 0)"/>
     <use xlink:href="#DejaVuSans-Bold-35" transform="translate(2239.550781 0)"/>
     <use xlink:href="#DejaVuSans-Bold-2e" transform="translate(2309.130859 0)"/>
     <use xlink:href="#DejaVuSans-Bold-30" transform="translate(2347.119141 0)"/>
     <use xlink:href="#DejaVuSans-Bold-35" transform="translate(2416.699219 0)"/>
     <use xlink:href="#DejaVuSans-Bold-25" transform="translate(2486.279297 0)"/>
     <use xlink:href="#DejaVuSans-Bold-29" transform="translate(2586.474609 0)"/>
    </g>
   </g>
  </g>
 </g>
 <defs>
  <clipPath id="p741a1319b4">
   <rect x="34.56" y="21.558281" width="380.267884" height="129.56"/>
  </clipPath>
 </defs>
</svg>
