<?xml version="1.0" encoding="utf-8" standalone="no"?>
<!DOCTYPE svg PUBLIC "-//W3C//DTD SVG 1.1//EN"
  "http://www.w3.org/Graphics/SVG/1.1/DTD/svg11.dtd">
<svg xmlns:xlink="http://www.w3.org/1999/xlink" width="424.718986pt" height="173.060781pt" viewBox="0 0 424.718986 173.060781" xmlns="http://www.w3.org/2000/svg" version="1.1">
 <metadata>
  <rdf:RDF xmlns:dc="http://purl.org/dc/elements/1.1/" xmlns:cc="http://creativecommons.org/ns#" xmlns:rdf="http://www.w3.org/1999/02/22-rdf-syntax-ns#">
   <cc:Work>
    <dc:type rdf:resource="http://purl.org/dc/dcmitype/StillImage"/>
    <dc:date>2026-04-20T00:18:56.243056</dc:date>
    <dc:format>image/svg+xml</dc:format>
    <dc:creator>
     <cc:Agent>
      <dc:title>Matplotlib v3.10.8, https://matplotlib.org/</dc:title>
     </cc:Agent>
    </dc:creator>
   </cc:Work>
  </rdf:RDF>
 </metadata>
 <defs>
  <style type="text/css">*{stroke-linejoin: round; stroke-linecap: butt}</style>
 </defs>
 <g id="figure_1">
  <g id="patch_1">
   <path d="M 0 173.060781 
L 424.718986 173.060781 
L 424.718986 0 
L 0 0 
z
" style="fill: #0d1117"/>
  </g>
  <g id="axes_1">
   <g id="patch_2">
    <path d="M 34.56 151.118281 
L 417.518986 151.118281 
L 417.518986 21.558281 
L 34.56 21.558281 
z
" style="fill: #0d1117"/>
   </g>
   <g id="FillBetweenPolyCollection_1">
    <defs>
     <path id="m1d190e08aa" d="M 51.967227 -27.831591 
L 51.967227 -134.014692 
L 54.942821 -132.768411 
L 57.918415 -128.84225 
L 60.89401 -112.84454 
L 63.869604 -118.033599 
L 66.845198 -115.692102 
L 69.820792 -141.620779 
L 72.796387 -140.575414 
L 75.771981 -126.724328 
L 78.747575 -128.670037 
L 81.72317 -138.341173 
L 84.698764 -131.584067 
L 87.674358 -138.836664 
L 90.649952 -128.035566 
L 93.625547 -140.437946 
L 96.601141 -135.081206 
L 99.576735 -115.660378 
L 102.55233 -122.134995 
L 105.527924 -115.837124 
L 108.503518 -120.872097 
L 111.479113 -117.479193 
L 114.454707 -136.893977 
L 117.430301 -128.366397 
L 120.405895 -132.472325 
L 123.38149 -114.11348 
L 126.357084 -119.63488 
L 129.332678 -119.659051 
L 132.308273 -140.598074 
L 135.283867 -114.114991 
L 138.259461 -130.600638 
L 141.235056 -116.716318 
L 144.21065 -145.489536 
L 147.186244 -132.041792 
L 150.161838 -141.232544 
L 153.137433 -138.628196 
L 156.113027 -132.633964 
L 159.088621 -133.180817 
L 162.064216 -121.702951 
L 165.03981 -138.259599 
L 168.015404 -130.154999 
L 170.990999 -137.268617 
L 173.966593 -129.306017 
L 176.942187 -128.179078 
L 179.917781 -116.58036 
L 182.893376 -145.142088 
L 185.86897 -137.309404 
L 188.844564 -143.302125 
L 191.820159 -138.481663 
L 194.795753 -140.456074 
L 197.771347 -138.865367 
L 200.746941 -142.611761 
L 203.722536 -136.92268 
L 206.69813 -141.827738 
L 209.673724 -134.907482 
L 212.649319 -141.258225 
L 215.624913 -136.301805 
L 218.600507 -143.164657 
L 221.576102 -140.939479 
L 224.551696 -141.579992 
L 227.52729 -137.235383 
L 230.502884 -142.975826 
L 233.478479 -114.871823 
L 236.454073 -122.169739 
L 239.429667 -119.867519 
L 242.405262 -121.879696 
L 245.380856 -119.411305 
L 248.35645 -117.171022 
L 251.332045 -117.109085 
L 254.307639 -121.098693 
L 257.283233 -113.83099 
L 260.258827 -117.328128 
L 263.234422 -117.155915 
L 266.210016 -118.148408 
L 269.18561 -136.949871 
L 272.161205 -137.992215 
L 275.136799 -140.879054 
L 278.112393 -133.339434 
L 281.087988 -143.901851 
L 284.063582 -124.669854 
L 287.039176 -140.042157 
L 290.01477 -124.752939 
L 292.990365 -132.582602 
L 295.965959 -145.349047 
L 298.941553 -132.133941 
L 301.917148 -143.793084 
L 304.892742 -138.773217 
L 307.868336 -144.157149 
L 310.84393 -136.507253 
L 313.819525 -140.951565 
L 316.795119 -133.996564 
L 319.770713 -130.91032 
L 322.746308 -139.165985 
L 325.721902 -138.360812 
L 328.697496 -115.914167 
L 331.673091 -119.196794 
L 334.648685 -115.325016 
L 337.624279 -138.891047 
L 340.599873 -113.0092 
L 343.575468 -120.31618 
L 346.551062 -118.630303 
L 349.526656 -118.371983 
L 352.502251 -116.308444 
L 355.477845 -124.323916 
L 358.453439 -114.732844 
L 361.429034 -117.772257 
L 364.404628 -139.182602 
L 367.380222 -136.915126 
L 370.355816 -141.558843 
L 373.331411 -141.282395 
L 376.307005 -117.364384 
L 379.282599 -125.109451 
L 382.258194 -116.397572 
L 385.233788 -119.074432 
L 388.209382 -119.77386 
L 391.184976 -124.393406 
L 394.160571 -119.622795 
L 397.136165 -121.098693 
L 400.111759 -145.613409 
L 400.111759 -27.831591 
L 400.111759 -27.831591 
L 397.136165 -27.831591 
L 394.160571 -27.831591 
L 391.184976 -27.831591 
L 388.209382 -27.831591 
L 385.233788 -27.831591 
L 382.258194 -27.831591 
L 379.282599 -27.831591 
L 376.307005 -27.831591 
L 373.331411 -27.831591 
L 370.355816 -27.831591 
L 367.380222 -27.831591 
L 364.404628 -27.831591 
L 361.429034 -27.831591 
L 358.453439 -27.831591 
L 355.477845 -27.831591 
L 352.502251 -27.831591 
L 349.526656 -27.831591 
L 346.551062 -27.831591 
L 343.575468 -27.831591 
L 340.599873 -27.831591 
L 337.624279 -27.831591 
L 334.648685 -27.831591 
L 331.673091 -27.831591 
L 328.697496 -27.831591 
L 325.721902 -27.831591 
L 322.746308 -27.831591 
L 319.770713 -27.831591 
L 316.795119 -27.831591 
L 313.819525 -27.831591 
L 310.84393 -27.831591 
L 307.868336 -27.831591 
L 304.892742 -27.831591 
L 301.917148 -27.831591 
L 298.941553 -27.831591 
L 295.965959 -27.831591 
L 292.990365 -27.831591 
L 290.01477 -27.831591 
L 287.039176 -27.831591 
L 284.063582 -27.831591 
L 281.087988 -27.831591 
L 278.112393 -27.831591 
L 275.136799 -27.831591 
L 272.161205 -27.831591 
L 269.18561 -27.831591 
L 266.210016 -27.831591 
L 263.234422 -27.831591 
L 260.258827 -27.831591 
L 257.283233 -27.831591 
L 254.307639 -27.831591 
L 251.332045 -27.831591 
L 248.35645 -27.831591 
L 245.380856 -27.831591 
L 242.405262 -27.831591 
L 239.429667 -27.831591 
L 236.454073 -27.831591 
L 233.478479 -27.831591 
L 230.502884 -27.831591 
L 227.52729 -27.831591 
L 224.551696 -27.831591 
L 221.576102 -27.831591 
L 218.600507 -27.831591 
L 215.624913 -27.831591 
L 212.649319 -27.831591 
L 209.673724 -27.831591 
L 206.69813 -27.831591 
L 203.722536 -27.831591 
L 200.746941 -27.831591 
L 197.771347 -27.831591 
L 194.795753 -27.831591 
L 191.820159 -27.831591 
L 188.844564 -27.831591 
L 185.86897 -27.831591 
L 182.893376 -27.831591 
L 179.917781 -27.831591 
L 176.942187 -27.831591 
L 173.966593 -27.831591 
L 170.990999 -27.831591 
L 168.015404 -27.831591 
L 165.03981 -27.831591 
L 162.064216 -27.831591 
L 159.088621 -27.831591 
L 156.113027 -27.831591 
L 153.137433 -27.831591 
L 150.161838 -27.831591 
L 147.186244 -27.831591 
L 144.21065 -27.831591 
L 141.235056 -27.831591 
L 138.259461 -27.831591 
L 135.283867 -27.831591 
L 132.308273 -27.831591 
L 129.332678 -27.831591 
L 126.357084 -27.831591 
L 123.38149 -27.831591 
L 120.405895 -27.831591 
L 117.430301 -27.831591 
L 114.454707 -27.831591 
L 111.479113 -27.831591 
L 108.503518 -27.831591 
L 105.527924 -27.831591 
L 102.55233 -27.831591 
L 99.576735 -27.831591 
L 96.601141 -27.831591 
L 93.625547 -27.831591 
L 90.649952 -27.831591 
L 87.674358 -27.831591 
L 84.698764 -27.831591 
L 81.72317 -27.831591 
L 78.747575 -27.831591 
L 75.771981 -27.831591 
L 72.796387 -27.831591 
L 69.820792 -27.831591 
L 66.845198 -27.831591 
L 63.869604 -27.831591 
L 60.89401 -27.831591 
L 57.918415 -27.831591 
L 54.942821 -27.831591 
L 51.967227 -27.831591 
z
" style="stroke: #3fb950; stroke-opacity: 0.15"/>
    </defs>
    <g clip-path="url(#p9676f9fe66)">
     <use xlink:href="#m1d190e08aa" x="0" y="173.060781" style="fill: #3fb950; fill-opacity: 0.15; stroke: #3fb950; stroke-opacity: 0.15"/>
    </g>
   </g>
   <g id="matplotlib.axis_1">
    <g id="xtick_1">
     <g id="line2d_1">
      <path d="M 51.967227 151.118281 
L 51.967227 21.558281 
" clip-path="url(#p9676f9fe66)" style="fill: none; stroke: #21262d; stroke-opacity: 0.5; stroke-width: 0.5; stroke-linecap: square"/>
     </g>
     <g id="line2d_2">
      <defs>
       <path id="m00654b8ce4" d="M 0 0 
L 0 3.5 
" style="stroke: #c9d1d9; stroke-width: 0.8"/>
      </defs>
      <g>
       <use xlink:href="#m00654b8ce4" x="51.967227" y="151.118281" style="fill: #c9d1d9; stroke: #c9d1d9; stroke-width: 0.8"/>
      </g>
     </g>
     <g id="text_1">
      <!-- 0 -->
      <g style="fill: #c9d1d9" transform="translate(49.422227 164.197031) scale(0.08 -0.08)">
       <defs>
        <path id="DejaVuSans-30" d="M 2034 4250 
Q 1547 4250 1301 3770 
Q 1056 3291 1056 2328 
Q 1056 1369 1301 889 
Q 1547 409 2034 409 
Q 2525 409 2770 889 
Q 3016 1369 3016 2328 
Q 3016 3291 2770 3770 
Q 2525 4250 2034 4250 
z
M 2034 4750 
Q 2819 4750 3233 4129 
Q 3647 3509 3647 2328 
Q 3647 1150 3233 529 
Q 2819 -91 2034 -91 
Q 1250 -91 836 529 
Q 422 1150 422 2328 
Q 422 3509 836 4129 
Q 1250 4750 2034 4750 
z
" transform="scale(0.015625)"/>
       </defs>
       <use xlink:href="#DejaVuSans-30"/>
      </g>
     </g>
    </g>
    <g id="xtick_2">
     <g id="line2d_3">
      <path d="M 111.479113 151.118281 
L 111.479113 21.558281 
" clip-path="url(#p9676f9fe66)" style="fill: none; stroke: #21262d; stroke-opacity: 0.5; stroke-width: 0.5; stroke-linecap: square"/>
     </g>
     <g id="line2d_4">
      <g>
       <use xlink:href="#m00654b8ce4" x="111.479113" y="151.118281" style="fill: #c9d1d9; stroke: #c9d1d9; stroke-width: 0.8"/>
      </g>
     </g>
     <g id="text_2">
      <!-- 20 -->
      <g style="fill: #c9d1d9" transform="translate(106.389113 164.197031) scale(0.08 -0.08)">
       <defs>
        <path id="DejaVuSans-32" d="M 1228 531 
L 3431 531 
L 3431 0 
L 469 0 
L 469 531 
Q 828 903 1448 1529 
Q 2069 2156 2228 2338 
Q 2531 2678 2651 2914 
Q 2772 3150 2772 3378 
Q 2772 3750 2511 3984 
Q 2250 4219 1831 4219 
Q 1534 4219 1204 4116 
Q 875 4013 500 3803 
L 500 4441 
Q 881 4594 1212 4672 
Q 1544 4750 1819 4750 
Q 2544 4750 2975 4387 
Q 3406 4025 3406 3419 
Q 3406 3131 3298 2873 
Q 3191 2616 2906 2266 
Q 2828 2175 2409 1742 
Q 1991 1309 1228 531 
z
" transform="scale(0.015625)"/>
       </defs>
       <use xlink:href="#DejaVuSans-32"/>
       <use xlink:href="#DejaVuSans-30" transform="translate(63.623047 0)"/>
      </g>
     </g>
    </g>
    <g id="xtick_3">
     <g id="line2d_5">
      <path d="M 170.990999 151.118281 
L 170.990999 21.558281 
" clip-path="url(#p9676f9fe66)" style="fill: none; stroke: #21262d; stroke-opacity: 0.5; stroke-width: 0.5; stroke-linecap: square"/>
     </g>
     <g id="line2d_6">
      <g>
       <use xlink:href="#m00654b8ce4" x="170.990999" y="151.118281" style="fill: #c9d1d9; stroke: #c9d1d9; stroke-width: 0.8"/>
      </g>
     </g>
     <g id="text_3">
      <!-- 40 -->
      <g style="fill: #c9d1d9" transform="translate(165.900999 164.197031) scale(0.08 -0.08)">
       <defs>
        <path id="DejaVuSans-34" d="M 2419 4116 
L 825 1625 
L 2419 1625 
L 2419 4116 
z
M 2253 4666 
L 3047 4666 
L 3047 1625 
L 3713 1625 
L 3713 1100 
L 3047 1100 
L 3047 0 
L 2419 0 
L 2419 1100 
L 313 1100 
L 313 1709 
L 2253 4666 
z
" transform="scale(0.015625)"/>
       </defs>
       <use xlink:href="#DejaVuSans-34"/>
       <use xlink:href="#DejaVuSans-30" transform="translate(63.623047 0)"/>
      </g>
     </g>
    </g>
    <g id="xtick_4">
     <g id="line2d_7">
      <path d="M 230.502884 151.118281 
L 230.502884 21.558281 
" clip-path="url(#p9676f9fe66)" style="fill: none; stroke: #21262d; stroke-opacity: 0.5; stroke-width: 0.5; stroke-linecap: square"/>
     </g>
     <g id="line2d_8">
      <g>
       <use xlink:href="#m00654b8ce4" x="230.502884" y="151.118281" style="fill: #c9d1d9; stroke: #c9d1d9; stroke-width: 0.8"/>
      </g>
     </g>
     <g id="text_4">
      <!-- 60 -->
      <g style="fill: #c9d1d9" transform="translate(225.412884 164.197031) scale(0.08 -0.08)">
       <defs>
        <path id="DejaVuSans-36" d="M 2113 2584 
Q 1688 2584 1439 2293 
Q 1191 2003 1191 1497 
Q 1191 994 1439 701 
Q 1688 409 2113 409 
Q 2538 409 2786 701 
Q 3034 994 3034 1497 
Q 3034 2003 2786 2293 
Q 2538 2584 2113 2584 
z
M 3366 4563 
L 3366 3988 
Q 3128 4100 2886 4159 
Q 2644 4219 2406 4219 
Q 1781 4219 1451 3797 
Q 1122 3375 1075 2522 
Q 1259 2794 1537 2939 
Q 1816 3084 2150 3084 
Q 2853 3084 3261 2657 
Q 3669 2231 3669 1497 
Q 3669 778 3244 343 
Q 2819 -91 2113 -91 
Q 1303 -91 875 529 
Q 447 1150 447 2328 
Q 447 3434 972 4092 
Q 1497 4750 2381 4750 
Q 2619 4750 2861 4703 
Q 3103 4656 3366 4563 
z
" transform="scale(0.015625)"/>
       </defs>
       <use xlink:href="#DejaVuSans-36"/>
       <use xlink:href="#DejaVuSans-30" transform="translate(63.623047 0)"/>
      </g>
     </g>
    </g>
    <g id="xtick_5">
     <g id="line2d_9">
      <path d="M 290.01477 151.118281 
L 290.01477 21.558281 
" clip-path="url(#p9676f9fe66)" style="fill: none; stroke: #21262d; stroke-opacity: 0.5; stroke-width: 0.5; stroke-linecap: square"/>
     </g>
     <g id="line2d_10">
      <g>
       <use xlink:href="#m00654b8ce4" x="290.01477" y="151.118281" style="fill: #c9d1d9; stroke: #c9d1d9; stroke-width: 0.8"/>
      </g>
     </g>
     <g id="text_5">
      <!-- 80 -->
      <g style="fill: #c9d1d9" transform="translate(284.92477 164.197031) scale(0.08 -0.08)">
       <defs>
        <path id="DejaVuSans-38" d="M 2034 2216 
Q 1584 2216 1326 1975 
Q 1069 1734 1069 1313 
Q 1069 891 1326 650 
Q 1584 409 2034 409 
Q 2484 409 2743 651 
Q 3003 894 3003 1313 
Q 3003 1734 2745 1975 
Q 2488 2216 2034 2216 
z
M 1403 2484 
Q 997 2584 770 2862 
Q 544 3141 544 3541 
Q 544 4100 942 4425 
Q 1341 4750 2034 4750 
Q 2731 4750 3128 4425 
Q 3525 4100 3525 3541 
Q 3525 3141 3298 2862 
Q 3072 2584 2669 2484 
Q 3125 2378 3379 2068 
Q 3634 1759 3634 1313 
Q 3634 634 3220 271 
Q 2806 -91 2034 -91 
Q 1263 -91 848 271 
Q 434 634 434 1313 
Q 434 1759 690 2068 
Q 947 2378 1403 2484 
z
M 1172 3481 
Q 1172 3119 1398 2916 
Q 1625 2713 2034 2713 
Q 2441 2713 2670 2916 
Q 2900 3119 2900 3481 
Q 2900 3844 2670 4047 
Q 2441 4250 2034 4250 
Q 1625 4250 1398 4047 
Q 1172 3844 1172 3481 
z
" transform="scale(0.015625)"/>
       </defs>
       <use xlink:href="#DejaVuSans-38"/>
       <use xlink:href="#DejaVuSans-30" transform="translate(63.623047 0)"/>
      </g>
     </g>
    </g>
    <g id="xtick_6">
     <g id="line2d_11">
      <path d="M 349.526656 151.118281 
L 349.526656 21.558281 
" clip-path="url(#p9676f9fe66)" style="fill: none; stroke: #21262d; stroke-opacity: 0.5; stroke-width: 0.5; stroke-linecap: square"/>
     </g>
     <g id="line2d_12">
      <g>
       <use xlink:href="#m00654b8ce4" x="349.526656" y="151.118281" style="fill: #c9d1d9; stroke: #c9d1d9; stroke-width: 0.8"/>
      </g>
     </g>
     <g id="text_6">
      <!-- 100 -->
      <g style="fill: #c9d1d9" transform="translate(341.891656 164.197031) scale(0.08 -0.08)">
       <defs>
        <path id="DejaVuSans-31" d="M 794 531 
L 1825 531 
L 1825 4091 
L 703 3866 
L 703 4441 
L 1819 4666 
L 2450 4666 
L 2450 531 
L 3481 531 
L 3481 0 
L 794 0 
L 794 531 
z
" transform="scale(0.015625)"/>
       </defs>
       <use xlink:href="#DejaVuSans-31"/>
       <use xlink:href="#DejaVuSans-30" transform="translate(63.623047 0)"/>
       <use xlink:href="#DejaVuSans-30" transform="translate(127.246094 0)"/>
      </g>
     </g>
    </g>
    <g id="xtick_7">
     <g id="line2d_13">
      <path d="M 409.038542 151.118281 
L 409.038542 21.558281 
" clip-path="url(#p9676f9fe66)" style="fill: none; stroke: #21262d; stroke-opacity: 0.5; stroke-width: 0.5; stroke-linecap: square"/>
     </g>
     <g id="line2d_14">
      <g>
       <use xlink:href="#m00654b8ce4" x="409.038542" y="151.118281" style="fill: #c9d1d9; stroke: #c9d1d9; stroke-width: 0.8"/>
      </g>
     </g>
     <g id="text_7">
      <!-- 120 -->
      <g style="fill: #c9d1d9" transform="translate(401.403542 164.197031) scale(0.08 -0.08)">
       <use xlink:href="#DejaVuSans-31"/>
       <use xlink:href="#DejaVuSans-32" transform="translate(63.623047 0)"/>
       <use xlink:href="#DejaVuSans-30" transform="translate(127.246094 0)"/>
      </g>
     </g>
    </g>
   </g>
   <g id="matplotlib.axis_2">
    <g id="ytick_1">
     <g id="line2d_15">
      <path d="M 34.56 145.22919 
L 417.518986 145.22919 
" clip-path="url(#p9676f9fe66)" style="fill: none; stroke: #21262d; stroke-opacity: 0.5; stroke-width: 0.5; stroke-linecap: square"/>
     </g>
     <g id="line2d_16">
      <defs>
       <path id="m94d8933176" d="M 0 0 
L -3.5 0 
" style="stroke: #c9d1d9; stroke-width: 0.8"/>
      </defs>
      <g>
       <use xlink:href="#m94d8933176" x="34.56" y="145.22919" style="fill: #c9d1d9; stroke: #c9d1d9; stroke-width: 0.8"/>
      </g>
     </g>
     <g id="text_8">
      <!-- $0 -->
      <g style="fill: #c9d1d9" transform="translate(17.38 148.268565) scale(0.08 -0.08)">
       <defs>
        <path id="DejaVuSans-24" d="M 2163 -941 
L 1850 -941 
L 1847 0 
Q 1519 6 1191 76 
Q 863 147 531 288 
L 531 850 
Q 850 650 1176 548 
Q 1503 447 1850 444 
L 1850 1869 
Q 1159 1981 845 2250 
Q 531 2519 531 2988 
Q 531 3497 872 3790 
Q 1213 4084 1850 4128 
L 1850 4863 
L 2163 4863 
L 2163 4138 
Q 2453 4125 2725 4076 
Q 2997 4028 3256 3944 
L 3256 3397 
Q 2997 3528 2723 3600 
Q 2450 3672 2163 3684 
L 2163 2350 
Q 2872 2241 3206 1959 
Q 3541 1678 3541 1191 
Q 3541 663 3186 358 
Q 2831 53 2163 6 
L 2163 -941 
z
M 1850 2406 
L 1850 3688 
Q 1488 3647 1297 3481 
Q 1106 3316 1106 3041 
Q 1106 2772 1282 2622 
Q 1459 2472 1850 2406 
z
M 2163 1806 
L 2163 453 
Q 2559 506 2761 678 
Q 2963 850 2963 1131 
Q 2963 1406 2770 1568 
Q 2578 1731 2163 1806 
z
" transform="scale(0.015625)"/>
       </defs>
       <use xlink:href="#DejaVuSans-24"/>
       <use xlink:href="#DejaVuSans-30" transform="translate(63.623047 0)"/>
      </g>
     </g>
    </g>
    <g id="ytick_2">
     <g id="line2d_17">
      <path d="M 34.56 115.016329 
L 417.518986 115.016329 
" clip-path="url(#p9676f9fe66)" style="fill: none; stroke: #21262d; stroke-opacity: 0.5; stroke-width: 0.5; stroke-linecap: square"/>
     </g>
     <g id="line2d_18">
      <g>
       <use xlink:href="#m94d8933176" x="34.56" y="115.016329" style="fill: #c9d1d9; stroke: #c9d1d9; stroke-width: 0.8"/>
      </g>
     </g>
     <g id="text_9">
      <!-- $200 -->
      <g style="fill: #c9d1d9" transform="translate(7.2 118.055704) scale(0.08 -0.08)">
       <use xlink:href="#DejaVuSans-24"/>
       <use xlink:href="#DejaVuSans-32" transform="translate(63.623047 0)"/>
       <use xlink:href="#DejaVuSans-30" transform="translate(127.246094 0)"/>
       <use xlink:href="#DejaVuSans-30" transform="translate(190.869141 0)"/>
      </g>
     </g>
    </g>
    <g id="ytick_3">
     <g id="line2d_19">
      <path d="M 34.56 84.803468 
L 417.518986 84.803468 
" clip-path="url(#p9676f9fe66)" style="fill: none; stroke: #21262d; stroke-opacity: 0.5; stroke-width: 0.5; stroke-linecap: square"/>
     </g>
     <g id="line2d_20">
      <g>
       <use xlink:href="#m94d8933176" x="34.56" y="84.803468" style="fill: #c9d1d9; stroke: #c9d1d9; stroke-width: 0.8"/>
      </g>
     </g>
     <g id="text_10">
      <!-- $400 -->
      <g style="fill: #c9d1d9" transform="translate(7.2 87.842843) scale(0.08 -0.08)">
       <use xlink:href="#DejaVuSans-24"/>
       <use xlink:href="#DejaVuSans-34" transform="translate(63.623047 0)"/>
       <use xlink:href="#DejaVuSans-30" transform="translate(127.246094 0)"/>
       <use xlink:href="#DejaVuSans-30" transform="translate(190.869141 0)"/>
      </g>
     </g>
    </g>
    <g id="ytick_4">
     <g id="line2d_21">
      <path d="M 34.56 54.590607 
L 417.518986 54.590607 
" clip-path="url(#p9676f9fe66)" style="fill: none; stroke: #21262d; stroke-opacity: 0.5; stroke-width: 0.5; stroke-linecap: square"/>
     </g>
     <g id="line2d_22">
      <g>
       <use xlink:href="#m94d8933176" x="34.56" y="54.590607" style="fill: #c9d1d9; stroke: #c9d1d9; stroke-width: 0.8"/>
      </g>
     </g>
     <g id="text_11">
      <!-- $600 -->
      <g style="fill: #c9d1d9" transform="translate(7.2 57.629982) scale(0.08 -0.08)">
       <use xlink:href="#DejaVuSans-24"/>
       <use xlink:href="#DejaVuSans-36" transform="translate(63.623047 0)"/>
       <use xlink:href="#DejaVuSans-30" transform="translate(127.246094 0)"/>
       <use xlink:href="#DejaVuSans-30" transform="translate(190.869141 0)"/>
      </g>
     </g>
    </g>
    <g id="ytick_5">
     <g id="line2d_23">
      <path d="M 34.56 24.377745 
L 417.518986 24.377745 
" clip-path="url(#p9676f9fe66)" style="fill: none; stroke: #21262d; stroke-opacity: 0.5; stroke-width: 0.5; stroke-linecap: square"/>
     </g>
     <g id="line2d_24">
      <g>
       <use xlink:href="#m94d8933176" x="34.56" y="24.377745" style="fill: #c9d1d9; stroke: #c9d1d9; stroke-width: 0.8"/>
      </g>
     </g>
     <g id="text_12">
      <!-- $800 -->
      <g style="fill: #c9d1d9" transform="translate(7.2 27.41712) scale(0.08 -0.08)">
       <use xlink:href="#DejaVuSans-24"/>
       <use xlink:href="#DejaVuSans-38" transform="translate(63.623047 0)"/>
       <use xlink:href="#DejaVuSans-30" transform="translate(127.246094 0)"/>
       <use xlink:href="#DejaVuSans-30" transform="translate(190.869141 0)"/>
      </g>
     </g>
    </g>
   </g>
   <g id="line2d_25">
    <path d="M 51.967227 39.04609 
L 54.942821 40.29237 
L 57.918415 44.218531 
L 60.89401 60.216241 
L 63.869604 55.027183 
L 66.845198 57.368679 
L 69.820792 31.440002 
L 72.796387 32.485367 
L 75.771981 46.336453 
L 78.747575 44.390745 
L 81.72317 34.719608 
L 84.698764 41.476714 
L 87.674358 34.224117 
L 90.649952 45.025215 
L 93.625547 32.622835 
L 96.601141 37.979576 
L 99.576735 57.400403 
L 102.55233 50.925787 
L 105.527924 57.223658 
L 108.503518 52.188684 
L 111.479113 55.581589 
L 114.454707 36.166804 
L 117.430301 44.694384 
L 120.405895 40.588456 
L 123.38149 58.947301 
L 126.357084 53.425901 
L 129.332678 53.401731 
L 132.308273 32.462707 
L 135.283867 58.945791 
L 138.259461 42.460143 
L 141.235056 56.344463 
L 144.21065 27.571245 
L 147.186244 41.018989 
L 150.161838 31.828237 
L 153.137433 34.432586 
L 156.113027 40.426817 
L 159.088621 39.879965 
L 162.064216 51.357831 
L 165.03981 34.801183 
L 168.015404 42.905783 
L 170.990999 35.792164 
L 173.966593 43.754764 
L 176.942187 44.881704 
L 179.917781 56.480421 
L 182.893376 27.918693 
L 185.86897 35.751377 
L 188.844564 29.758656 
L 191.820159 34.579118 
L 194.795753 32.604708 
L 197.771347 34.195415 
L 200.746941 30.44902 
L 203.722536 36.138102 
L 206.69813 31.233044 
L 209.673724 38.1533 
L 212.649319 31.802556 
L 215.624913 36.758976 
L 218.600507 29.896125 
L 221.576102 32.121302 
L 224.551696 31.480789 
L 227.52729 35.825399 
L 230.502884 30.084955 
L 233.478479 58.188958 
L 236.454073 50.891042 
L 239.429667 53.193262 
L 242.405262 51.181085 
L 245.380856 53.649476 
L 248.35645 55.88976 
L 251.332045 55.951696 
L 254.307639 51.962088 
L 257.283233 59.229792 
L 260.258827 55.732653 
L 263.234422 55.904866 
L 266.210016 54.912374 
L 269.18561 36.11091 
L 272.161205 35.068566 
L 275.136799 32.181728 
L 278.112393 39.721347 
L 281.087988 29.158931 
L 284.063582 48.390928 
L 287.039176 33.018624 
L 290.01477 48.307842 
L 292.990365 40.478179 
L 295.965959 27.711735 
L 298.941553 40.92684 
L 301.917148 29.267697 
L 304.892742 34.287564 
L 307.868336 28.903632 
L 310.84393 36.553529 
L 313.819525 32.109217 
L 316.795119 39.064217 
L 319.770713 42.150461 
L 322.746308 33.894797 
L 325.721902 34.699969 
L 328.697496 57.146615 
L 331.673091 53.863987 
L 334.648685 57.735766 
L 337.624279 34.169734 
L 340.599873 60.051581 
L 343.575468 52.744601 
L 346.551062 54.430479 
L 349.526656 54.688798 
L 352.502251 56.752337 
L 355.477845 48.736865 
L 358.453439 58.327938 
L 361.429034 55.288524 
L 364.404628 33.87818 
L 367.380222 36.145655 
L 370.355816 31.501938 
L 373.331411 31.778386 
L 376.307005 55.696397 
L 379.282599 47.95133 
L 382.258194 56.663209 
L 385.233788 53.986349 
L 388.209382 53.286922 
L 391.184976 48.667375 
L 394.160571 53.437986 
L 397.136165 51.962088 
L 400.111759 27.447372 
" clip-path="url(#p9676f9fe66)" style="fill: none; stroke: #3fb950; stroke-width: 2; stroke-linecap: square"/>
   </g>
   <g id="patch_3">
    <path d="M 34.56 151.118281 
L 34.56 21.558281 
" style="fill: none; stroke: #21262d; stroke-width: 0.8; stroke-linejoin: miter; stroke-linecap: square"/>
   </g>
   <g id="patch_4">
    <path d="M 34.56 151.118281 
L 417.518986 151.118281 
" style="fill: none; stroke: #21262d; stroke-width: 0.8; stroke-linejoin: miter; stroke-linecap: square"/>
   </g>
   <g id="text_13">
    <!-- REACT (facebook/react) — $779.68 (+26.28%) -->
    <g style="fill: #c9d1d9" transform="translate(83.922931 15.558281) scale(0.11 -0.11)">
     <defs>
      <path id="DejaVuSans-Bold-52" d="M 2297 2597 
Q 2675 2597 2839 2737 
Q 3003 2878 3003 3200 
Q 3003 3519 2839 3656 
Q 2675 3794 2297 3794 
L 1791 3794 
L 1791 2597 
L 2297 2597 
z
M 1791 1766 
L 1791 0 
L 588 0 
L 588 4666 
L 2425 4666 
Q 3347 4666 3776 4356 
Q 4206 4047 4206 3378 
Q 4206 2916 3982 2619 
Q 3759 2322 3309 2181 
Q 3556 2125 3751 1926 
Q 3947 1728 4147 1325 
L 4800 0 
L 3519 0 
L 2950 1159 
Q 2778 1509 2601 1637 
Q 2425 1766 2131 1766 
L 1791 1766 
z
" transform="scale(0.015625)"/>
      <path id="DejaVuSans-Bold-45" d="M 588 4666 
L 3834 4666 
L 3834 3756 
L 1791 3756 
L 1791 2888 
L 3713 2888 
L 3713 1978 
L 1791 1978 
L 1791 909 
L 3903 909 
L 3903 0 
L 588 0 
L 588 4666 
z
" transform="scale(0.015625)"/>
      <path id="DejaVuSans-Bold-41" d="M 3419 850 
L 1538 850 
L 1241 0 
L 31 0 
L 1759 4666 
L 3194 4666 
L 4922 0 
L 3713 0 
L 3419 850 
z
M 1838 1716 
L 3116 1716 
L 2478 3572 
L 1838 1716 
z
" transform="scale(0.015625)"/>
      <path id="DejaVuSans-Bold-43" d="M 4288 256 
Q 3956 84 3597 -3 
Q 3238 -91 2847 -91 
Q 1681 -91 1000 561 
Q 319 1213 319 2328 
Q 319 3447 1000 4098 
Q 1681 4750 2847 4750 
Q 3238 4750 3597 4662 
Q 3956 4575 4288 4403 
L 4288 3438 
Q 3953 3666 3628 3772 
Q 3303 3878 2944 3878 
Q 2300 3878 1931 3465 
Q 1563 3053 1563 2328 
Q 1563 1606 1931 1193 
Q 2300 781 2944 781 
Q 3303 781 3628 887 
Q 3953 994 4288 1222 
L 4288 256 
z
" transform="scale(0.015625)"/>
      <path id="DejaVuSans-Bold-54" d="M 31 4666 
L 4331 4666 
L 4331 3756 
L 2784 3756 
L 2784 0 
L 1581 0 
L 1581 3756 
L 31 3756 
L 31 4666 
z
" transform="scale(0.015625)"/>
      <path id="DejaVuSans-Bold-20" transform="scale(0.015625)"/>
      <path id="DejaVuSans-Bold-28" d="M 2413 -844 
L 1484 -844 
Q 1006 -72 778 623 
Q 550 1319 550 2003 
Q 550 2688 779 3389 
Q 1009 4091 1484 4856 
L 2413 4856 
Q 2013 4116 1813 3408 
Q 1613 2700 1613 2009 
Q 1613 1319 1811 609 
Q 2009 -100 2413 -844 
z
" transform="scale(0.015625)"/>
      <path id="DejaVuSans-Bold-66" d="M 2841 4863 
L 2841 4128 
L 2222 4128 
Q 1984 4128 1890 4042 
Q 1797 3956 1797 3744 
L 1797 3500 
L 2753 3500 
L 2753 2700 
L 1797 2700 
L 1797 0 
L 678 0 
L 678 2700 
L 122 2700 
L 122 3500 
L 678 3500 
L 678 3744 
Q 678 4316 997 4589 
Q 1316 4863 1984 4863 
L 2841 4863 
z
" transform="scale(0.015625)"/>
      <path id="DejaVuSans-Bold-61" d="M 2106 1575 
Q 1756 1575 1579 1456 
Q 1403 1338 1403 1106 
Q 1403 894 1545 773 
Q 1688 653 1941 653 
Q 2256 653 2472 879 
Q 2688 1106 2688 1447 
L 2688 1575 
L 2106 1575 
z
M 3816 1997 
L 3816 0 
L 2688 0 
L 2688 519 
Q 2463 200 2181 54 
Q 1900 -91 1497 -91 
Q 953 -91 614 226 
Q 275 544 275 1050 
Q 275 1666 698 1953 
Q 1122 2241 2028 2241 
L 2688 2241 
L 2688 2328 
Q 2688 2594 2478 2717 
Q 2269 2841 1825 2841 
Q 1466 2841 1156 2769 
Q 847 2697 581 2553 
L 581 3406 
Q 941 3494 1303 3539 
Q 1666 3584 2028 3584 
Q 2975 3584 3395 3211 
Q 3816 2838 3816 1997 
z
" transform="scale(0.015625)"/>
      <path id="DejaVuSans-Bold-63" d="M 3366 3391 
L 3366 2478 
Q 3138 2634 2908 2709 
Q 2678 2784 2431 2784 
Q 1963 2784 1702 2511 
Q 1441 2238 1441 1747 
Q 1441 1256 1702 982 
Q 1963 709 2431 709 
Q 2694 709 2930 787 
Q 3166 866 3366 1019 
L 3366 103 
Q 3103 6 2833 -42 
Q 2563 -91 2291 -91 
Q 1344 -91 809 395 
Q 275 881 275 1747 
Q 275 2613 809 3098 
Q 1344 3584 2291 3584 
Q 2566 3584 2833 3536 
Q 3100 3488 3366 3391 
z
" transform="scale(0.015625)"/>
      <path id="DejaVuSans-Bold-65" d="M 4031 1759 
L 4031 1441 
L 1416 1441 
Q 1456 1047 1700 850 
Q 1944 653 2381 653 
Q 2734 653 3104 758 
Q 3475 863 3866 1075 
L 3866 213 
Q 3469 63 3072 -14 
Q 2675 -91 2278 -91 
Q 1328 -91 801 392 
Q 275 875 275 1747 
Q 275 2603 792 3093 
Q 1309 3584 2216 3584 
Q 3041 3584 3536 3087 
Q 4031 2591 4031 1759 
z
M 2881 2131 
Q 2881 2450 2695 2645 
Q 2509 2841 2209 2841 
Q 1884 2841 1681 2658 
Q 1478 2475 1428 2131 
L 2881 2131 
z
" transform="scale(0.015625)"/>
      <path id="DejaVuSans-Bold-62" d="M 2400 722 
Q 2759 722 2948 984 
Q 3138 1247 3138 1747 
Q 3138 2247 2948 2509 
Q 2759 2772 2400 2772 
Q 2041 2772 1848 2508 
Q 1656 2244 1656 1747 
Q 1656 1250 1848 986 
Q 2041 722 2400 722 
z
M 1656 2988 
Q 1888 3294 2169 3439 
Q 2450 3584 2816 3584 
Q 3463 3584 3878 3070 
Q 4294 2556 4294 1747 
Q 4294 938 3878 423 
Q 3463 -91 2816 -91 
Q 2450 -91 2169 54 
Q 1888 200 1656 506 
L 1656 0 
L 538 0 
L 538 4863 
L 1656 4863 
L 1656 2988 
z
" transform="scale(0.015625)"/>
      <path id="DejaVuSans-Bold-6f" d="M 2203 2784 
Q 1831 2784 1636 2517 
Q 1441 2250 1441 1747 
Q 1441 1244 1636 976 
Q 1831 709 2203 709 
Q 2569 709 2762 976 
Q 2956 1244 2956 1747 
Q 2956 2250 2762 2517 
Q 2569 2784 2203 2784 
z
M 2203 3584 
Q 3106 3584 3614 3096 
Q 4122 2609 4122 1747 
Q 4122 884 3614 396 
Q 3106 -91 2203 -91 
Q 1297 -91 786 396 
Q 275 884 275 1747 
Q 275 2609 786 3096 
Q 1297 3584 2203 3584 
z
" transform="scale(0.015625)"/>
      <path id="DejaVuSans-Bold-6b" d="M 538 4863 
L 1656 4863 
L 1656 2216 
L 2944 3500 
L 4244 3500 
L 2534 1894 
L 4378 0 
L 3022 0 
L 1656 1459 
L 1656 0 
L 538 0 
L 538 4863 
z
" transform="scale(0.015625)"/>
      <path id="DejaVuSans-Bold-2f" d="M 1644 4666 
L 2338 4666 
L 691 -594 
L 0 -594 
L 1644 4666 
z
" transform="scale(0.015625)"/>
      <path id="DejaVuSans-Bold-72" d="M 3138 2547 
Q 2991 2616 2845 2648 
Q 2700 2681 2553 2681 
Q 2122 2681 1889 2404 
Q 1656 2128 1656 1613 
L 1656 0 
L 538 0 
L 538 3500 
L 1656 3500 
L 1656 2925 
Q 1872 3269 2151 3426 
Q 2431 3584 2822 3584 
Q 2878 3584 2943 3579 
Q 3009 3575 3134 3559 
L 3138 2547 
z
" transform="scale(0.015625)"/>
      <path id="DejaVuSans-Bold-74" d="M 1759 4494 
L 1759 3500 
L 2913 3500 
L 2913 2700 
L 1759 2700 
L 1759 1216 
Q 1759 972 1856 886 
Q 1953 800 2241 800 
L 2816 800 
L 2816 0 
L 1856 0 
Q 1194 0 917 276 
Q 641 553 641 1216 
L 641 2700 
L 84 2700 
L 84 3500 
L 641 3500 
L 641 4494 
L 1759 4494 
z
" transform="scale(0.015625)"/>
      <path id="DejaVuSans-Bold-29" d="M 513 -844 
Q 913 -100 1113 609 
Q 1313 1319 1313 2009 
Q 1313 2700 1113 3408 
Q 913 4116 513 4856 
L 1441 4856 
Q 1916 4091 2145 3389 
Q 2375 2688 2375 2003 
Q 2375 1319 2147 623 
Q 1919 -72 1441 -844 
L 513 -844 
z
" transform="scale(0.015625)"/>
      <path id="DejaVuSans-Bold-2014" d="M 344 2156 
L 6056 2156 
L 6056 1350 
L 344 1350 
L 344 2156 
z
" transform="scale(0.015625)"/>
      <path id="DejaVuSans-Bold-24" d="M 2484 -941 
L 1978 -941 
L 1975 0 
Q 1584 16 1218 87 
Q 853 159 506 288 
L 506 1106 
Q 866 922 1233 823 
Q 1600 725 1978 713 
L 1978 1684 
L 1875 1703 
Q 1128 1834 814 2115 
Q 500 2397 500 2925 
Q 500 3484 883 3798 
Q 1266 4113 1975 4141 
L 1978 4863 
L 2484 4863 
L 2484 4153 
Q 2797 4128 3109 4075 
Q 3422 4022 3738 3938 
L 3738 3144 
Q 3425 3275 3112 3348 
Q 2800 3422 2484 3438 
L 2484 2541 
L 2584 2522 
Q 3378 2397 3698 2105 
Q 4019 1813 4019 1241 
Q 4019 666 3637 358 
Q 3256 50 2484 6 
L 2484 -941 
z
M 1978 2613 
L 1978 3428 
Q 1756 3416 1623 3308 
Q 1491 3200 1491 3034 
Q 1491 2850 1612 2745 
Q 1734 2641 1978 2613 
z
M 2484 1594 
L 2484 725 
Q 2756 728 2892 831 
Q 3028 934 3028 1141 
Q 3028 1353 2903 1458 
Q 2778 1563 2484 1594 
z
" transform="scale(0.015625)"/>
      <path id="DejaVuSans-Bold-37" d="M 428 4666 
L 3944 4666 
L 3944 3988 
L 2125 0 
L 953 0 
L 2675 3781 
L 428 3781 
L 428 4666 
z
" transform="scale(0.015625)"/>
      <path id="DejaVuSans-Bold-39" d="M 641 103 
L 641 966 
Q 928 831 1190 764 
Q 1453 697 1709 697 
Q 2247 697 2547 995 
Q 2847 1294 2900 1881 
Q 2688 1725 2447 1647 
Q 2206 1569 1925 1569 
Q 1209 1569 770 1986 
Q 331 2403 331 3084 
Q 331 3838 820 4291 
Q 1309 4744 2131 4744 
Q 3044 4744 3544 4128 
Q 4044 3513 4044 2388 
Q 4044 1231 3459 570 
Q 2875 -91 1856 -91 
Q 1528 -91 1228 -42 
Q 928 6 641 103 
z
M 2125 2350 
Q 2441 2350 2600 2554 
Q 2759 2759 2759 3169 
Q 2759 3575 2600 3781 
Q 2441 3988 2125 3988 
Q 1809 3988 1650 3781 
Q 1491 3575 1491 3169 
Q 1491 2759 1650 2554 
Q 1809 2350 2125 2350 
z
" transform="scale(0.015625)"/>
      <path id="DejaVuSans-Bold-2e" d="M 653 1209 
L 1778 1209 
L 1778 0 
L 653 0 
L 653 1209 
z
" transform="scale(0.015625)"/>
      <path id="DejaVuSans-Bold-36" d="M 2316 2303 
Q 2000 2303 1842 2098 
Q 1684 1894 1684 1484 
Q 1684 1075 1842 870 
Q 2000 666 2316 666 
Q 2634 666 2792 870 
Q 2950 1075 2950 1484 
Q 2950 1894 2792 2098 
Q 2634 2303 2316 2303 
z
M 3803 4544 
L 3803 3681 
Q 3506 3822 3243 3889 
Q 2981 3956 2731 3956 
Q 2194 3956 1894 3657 
Q 1594 3359 1544 2772 
Q 1750 2925 1990 3001 
Q 2231 3078 2516 3078 
Q 3231 3078 3670 2659 
Q 4109 2241 4109 1563 
Q 4109 813 3618 361 
Q 3128 -91 2303 -91 
Q 1394 -91 895 523 
Q 397 1138 397 2266 
Q 397 3422 980 4083 
Q 1563 4744 2578 4744 
Q 2900 4744 3203 4694 
Q 3506 4644 3803 4544 
z
" transform="scale(0.015625)"/>
      <path id="DejaVuSans-Bold-38" d="M 2228 2088 
Q 1891 2088 1709 1903 
Q 1528 1719 1528 1375 
Q 1528 1031 1709 848 
Q 1891 666 2228 666 
Q 2563 666 2741 848 
Q 2919 1031 2919 1375 
Q 2919 1722 2741 1905 
Q 2563 2088 2228 2088 
z
M 1350 2484 
Q 925 2613 709 2878 
Q 494 3144 494 3541 
Q 494 4131 934 4440 
Q 1375 4750 2228 4750 
Q 3075 4750 3515 4442 
Q 3956 4134 3956 3541 
Q 3956 3144 3739 2878 
Q 3522 2613 3097 2484 
Q 3572 2353 3814 2058 
Q 4056 1763 4056 1313 
Q 4056 619 3595 264 
Q 3134 -91 2228 -91 
Q 1319 -91 855 264 
Q 391 619 391 1313 
Q 391 1763 633 2058 
Q 875 2353 1350 2484 
z
M 1631 3419 
Q 1631 3141 1786 2991 
Q 1941 2841 2228 2841 
Q 2509 2841 2662 2991 
Q 2816 3141 2816 3419 
Q 2816 3697 2662 3845 
Q 2509 3994 2228 3994 
Q 1941 3994 1786 3844 
Q 1631 3694 1631 3419 
z
" transform="scale(0.015625)"/>
      <path id="DejaVuSans-Bold-2b" d="M 3053 4013 
L 3053 2375 
L 4684 2375 
L 4684 1638 
L 3053 1638 
L 3053 0 
L 2309 0 
L 2309 1638 
L 678 1638 
L 678 2375 
L 2309 2375 
L 2309 4013 
L 3053 4013 
z
" transform="scale(0.015625)"/>
      <path id="DejaVuSans-Bold-32" d="M 1844 884 
L 3897 884 
L 3897 0 
L 506 0 
L 506 884 
L 2209 2388 
Q 2438 2594 2547 2791 
Q 2656 2988 2656 3200 
Q 2656 3528 2436 3728 
Q 2216 3928 1850 3928 
Q 1569 3928 1234 3808 
Q 900 3688 519 3450 
L 519 4475 
Q 925 4609 1322 4679 
Q 1719 4750 2100 4750 
Q 2938 4750 3402 4381 
Q 3866 4013 3866 3353 
Q 3866 2972 3669 2642 
Q 3472 2313 2841 1759 
L 1844 884 
z
" transform="scale(0.015625)"/>
      <path id="DejaVuSans-Bold-25" d="M 4959 1925 
Q 4738 1925 4616 1733 
Q 4494 1541 4494 1184 
Q 4494 825 4614 633 
Q 4734 441 4959 441 
Q 5184 441 5303 633 
Q 5422 825 5422 1184 
Q 5422 1541 5301 1733 
Q 5181 1925 4959 1925 
z
M 4959 2450 
Q 5541 2450 5875 2112 
Q 6209 1775 6209 1184 
Q 6209 594 5875 251 
Q 5541 -91 4959 -91 
Q 4378 -91 4042 251 
Q 3706 594 3706 1184 
Q 3706 1772 4042 2111 
Q 4378 2450 4959 2450 
z
M 2094 -91 
L 1403 -91 
L 4319 4750 
L 5013 4750 
L 2094 -91 
z
M 1453 4750 
Q 2034 4750 2367 4411 
Q 2700 4072 2700 3481 
Q 2700 2891 2367 2550 
Q 2034 2209 1453 2209 
Q 872 2209 539 2550 
Q 206 2891 206 3481 
Q 206 4072 539 4411 
Q 872 4750 1453 4750 
z
M 1453 4225 
Q 1228 4225 1106 4031 
Q 984 3838 984 3481 
Q 984 3122 1106 2926 
Q 1228 2731 1453 2731 
Q 1678 2731 1798 2926 
Q 1919 3122 1919 3481 
Q 1919 3838 1797 4031 
Q 1675 4225 1453 4225 
z
" transform="scale(0.015625)"/>
     </defs>
     <use xlink:href="#DejaVuSans-Bold-52"/>
     <use xlink:href="#DejaVuSans-Bold-45" transform="translate(77.001953 0)"/>
     <use xlink:href="#DejaVuSans-Bold-41" transform="translate(145.3125 0)"/>
     <use xlink:href="#DejaVuSans-Bold-43" transform="translate(222.705078 0)"/>
     <use xlink:href="#DejaVuSans-Bold-54" transform="translate(296.09375 0)"/>
     <use xlink:href="#DejaVuSans-Bold-20" transform="translate(364.306641 0)"/>
     <use xlink:href="#DejaVuSans-Bold-28" transform="translate(399.121094 0)"/>
     <use xlink:href="#DejaVuSans-Bold-66" transform="translate(444.824219 0)"/>
     <use xlink:href="#DejaVuSans-Bold-61" transform="translate(488.330078 0)"/>
     <use xlink:href="#DejaVuSans-Bold-63" transform="translate(555.810547 0)"/>
     <use xlink:href="#DejaVuSans-Bold-65" transform="translate(615.087891 0)"/>
     <use xlink:href="#DejaVuSans-Bold-62" transform="translate(682.910156 0)"/>
     <use xlink:href="#DejaVuSans-Bold-6f" transform="translate(754.492188 0)"/>
     <use xlink:href="#DejaVuSans-Bold-6f" transform="translate(823.193359 0)"/>
     <use xlink:href="#DejaVuSans-Bold-6b" transform="translate(891.894531 0)"/>
     <use xlink:href="#DejaVuSans-Bold-2f" transform="translate(958.398438 0)"/>
     <use xlink:href="#DejaVuSans-Bold-72" transform="translate(994.921875 0)"/>
     <use xlink:href="#DejaVuSans-Bold-65" transform="translate(1044.238281 0)"/>
     <use xlink:href="#DejaVuSans-Bold-61" transform="translate(1112.060547 0)"/>
     <use xlink:href="#DejaVuSans-Bold-63" transform="translate(1179.541016 0)"/>
     <use xlink:href="#DejaVuSans-Bold-74" transform="translate(1238.818359 0)"/>
     <use xlink:href="#DejaVuSans-Bold-29" transform="translate(1286.621094 0)"/>
     <use xlink:href="#DejaVuSans-Bold-20" transform="translate(1332.324219 0)"/>
     <use xlink:href="#DejaVuSans-Bold-2014" transform="translate(1367.138672 0)"/>
     <use xlink:href="#DejaVuSans-Bold-20" transform="translate(1467.138672 0)"/>
     <use xlink:href="#DejaVuSans-Bold-24" transform="translate(1501.953125 0)"/>
     <use xlink:href="#DejaVuSans-Bold-37" transform="translate(1571.533203 0)"/>
     <use xlink:href="#DejaVuSans-Bold-37" transform="translate(1641.113281 0)"/>
     <use xlink:href="#DejaVuSans-Bold-39" transform="translate(1710.693359 0)"/>
     <use xlink:href="#DejaVuSans-Bold-2e" transform="translate(1780.273438 0)"/>
     <use xlink:href="#DejaVuSans-Bold-36" transform="translate(1818.261719 0)"/>
     <use xlink:href="#DejaVuSans-Bold-38" transform="translate(1887.841797 0)"/>
     <use xlink:href="#DejaVuSans-Bold-20" transform="translate(1957.421875 0)"/>
     <use xlink:href="#DejaVuSans-Bold-28" transform="translate(1992.236328 0)"/>
     <use xlink:href="#DejaVuSans-Bold-2b" transform="translate(2037.939453 0)"/>
     <use xlink:href="#DejaVuSans-Bold-32" transform="translate(2121.728516 0)"/>
     <use xlink:href="#DejaVuSans-Bold-36" transform="translate(2191.308594 0)"/>
     <use xlink:href="#DejaVuSans-Bold-2e" transform="translate(2260.888672 0)"/>
     <use xlink:href="#DejaVuSans-Bold-32" transform="translate(2298.876953 0)"/>
     <use xlink:href="#DejaVuSans-Bold-38" transform="translate(2368.457031 0)"/>
     <use xlink:href="#DejaVuSans-Bold-25" transform="translate(2438.037109 0)"/>
     <use xlink:href="#DejaVuSans-Bold-29" transform="translate(2538.232422 0)"/>
    </g>
   </g>
  </g>
 </g>
 <defs>
  <clipPath id="p9676f9fe66">
   <rect x="34.56" y="21.558281" width="382.958986" height="129.56"/>
  </clipPath>
 </defs>
</svg>
