<?xml version="1.0" encoding="utf-8" standalone="no"?>
<!DOCTYPE svg PUBLIC "-//W3C//DTD SVG 1.1//EN"
  "http://www.w3.org/Graphics/SVG/1.1/DTD/svg11.dtd">
<svg xmlns:xlink="http://www.w3.org/1999/xlink" width="424.91pt" height="173.060781pt" viewBox="0 0 424.91 173.060781" xmlns="http://www.w3.org/2000/svg" version="1.1">
 <metadata>
  <rdf:RDF xmlns:dc="http://purl.org/dc/elements/1.1/" xmlns:cc="http://creativecommons.org/ns#" xmlns:rdf="http://www.w3.org/1999/02/22-rdf-syntax-ns#">
   <cc:Work>
    <dc:type rdf:resource="http://purl.org/dc/dcmitype/StillImage"/>
    <dc:date>2026-04-18T00:27:07.815493</dc:date>
    <dc:format>image/svg+xml</dc:format>
    <dc:creator>
     <cc:Agent>
      <dc:title>Matplotlib v3.10.8, https://matplotlib.org/</dc:title>
     </cc:Agent>
    </dc:creator>
   </cc:Work>
  </rdf:RDF>
 </metadata>
 <defs>
  <style type="text/css">*{stroke-linejoin: round; stroke-linecap: butt}</style>
 </defs>
 <g id="figure_1">
  <g id="patch_1">
   <path d="M 0 173.060781 
L 424.91 173.060781 
L 424.91 0 
L 0 0 
z
" style="fill: #0d1117"/>
  </g>
  <g id="axes_1">
   <g id="patch_2">
    <path d="M 34.56 151.118281 
L 417.71 151.118281 
L 417.71 21.558281 
L 34.56 21.558281 
z
" style="fill: #0d1117"/>
   </g>
   <g id="FillBetweenPolyCollection_1">
    <defs>
     <path id="m79ea134826" d="M 51.975909 -27.831591 
L 51.975909 -97.361055 
L 55.201077 -91.685443 
L 58.426246 -109.484471 
L 61.651414 -90.244018 
L 64.876582 -98.168639 
L 68.101751 -99.307623 
L 71.326919 -128.15865 
L 74.552088 -116.881428 
L 77.777256 -110.922679 
L 81.002424 -112.7502 
L 84.227593 -107.212939 
L 87.452761 -109.529516 
L 90.677929 -111.733481 
L 93.903098 -109.571343 
L 97.128266 -108.960024 
L 100.353434 -111.131814 
L 103.578603 -109.873785 
L 106.803771 -110.964506 
L 110.028939 -108.940719 
L 113.254108 -112.740548 
L 116.479276 -107.875737 
L 119.704444 -109.996048 
L 122.929613 -108.396967 
L 126.154781 -107.87252 
L 129.379949 -101.740028 
L 132.605118 -113.532045 
L 135.830286 -107.084241 
L 139.055455 -115.053907 
L 142.280623 -112.405931 
L 145.505791 -142.643687 
L 148.73096 -120.758476 
L 151.956128 -104.088779 
L 155.181296 -109.873785 
L 158.406465 -106.299179 
L 161.631633 -124.937965 
L 164.856801 -114.011447 
L 168.08197 -112.518542 
L 171.307138 -113.551349 
L 174.532306 -109.963874 
L 177.757475 -114.944513 
L 180.982643 -112.367322 
L 184.207811 -114.2238 
L 187.43298 -115.147213 
L 190.658148 -113.355084 
L 193.883316 -113.889183 
L 197.108485 -110.507626 
L 200.333653 -116.202542 
L 203.558822 -108.88924 
L 206.78399 -114.632418 
L 210.009158 -107.248331 
L 213.234327 -104.677575 
L 216.459495 -62.985636 
L 219.684663 -111.884701 
L 222.909832 -105.137673 
L 226.135 -111.54365 
L 229.360168 -113.268212 
L 232.585337 -121.955373 
L 235.810505 -122.013288 
L 239.035673 -106.971629 
L 242.260842 -111.02242 
L 245.48601 -112.109924 
L 248.711178 -133.300162 
L 251.936347 -137.247995 
L 255.161515 -134.545322 
L 258.386684 -131.173417 
L 261.611852 -129.622598 
L 264.83702 -120.240464 
L 268.062189 -118.432247 
L 271.287357 -117.85632 
L 274.512525 -117.85632 
L 277.737694 -117.016561 
L 280.962862 -113.583524 
L 284.18803 -117.734057 
L 287.413199 -110.983811 
L 290.638367 -108.020523 
L 293.863535 -116.363416 
L 297.088704 -92.924168 
L 300.313872 -115.221215 
L 303.53904 -94.478204 
L 306.764209 -107.457467 
L 309.989377 -117.946409 
L 313.214545 -94.040629 
L 316.439714 -121.479188 
L 319.664882 -115.234085 
L 322.890051 -119.751409 
L 326.115219 -117.483094 
L 329.340387 -113.358301 
L 332.565556 -119.645232 
L 335.790724 -118.290678 
L 339.015892 -145.613409 
L 342.241061 -129.300851 
L 345.466229 -109.191682 
L 348.691397 -118.760429 
L 351.916566 -110.533365 
L 355.141734 -116.430982 
L 358.366902 -110.649194 
L 361.592071 -112.586109 
L 364.817239 -112.370539 
L 368.042407 -112.042357 
L 371.267576 -117.270741 
L 374.492744 -111.727046 
L 377.717912 -114.349281 
L 380.943081 -110.102225 
L 384.168249 -116.295849 
L 387.393418 -118.937389 
L 390.618586 -115.642703 
L 393.843754 -115.24052 
L 397.068923 -118.293896 
L 400.294091 -118.41616 
L 400.294091 -27.831591 
L 400.294091 -27.831591 
L 397.068923 -27.831591 
L 393.843754 -27.831591 
L 390.618586 -27.831591 
L 387.393418 -27.831591 
L 384.168249 -27.831591 
L 380.943081 -27.831591 
L 377.717912 -27.831591 
L 374.492744 -27.831591 
L 371.267576 -27.831591 
L 368.042407 -27.831591 
L 364.817239 -27.831591 
L 361.592071 -27.831591 
L 358.366902 -27.831591 
L 355.141734 -27.831591 
L 351.916566 -27.831591 
L 348.691397 -27.831591 
L 345.466229 -27.831591 
L 342.241061 -27.831591 
L 339.015892 -27.831591 
L 335.790724 -27.831591 
L 332.565556 -27.831591 
L 329.340387 -27.831591 
L 326.115219 -27.831591 
L 322.890051 -27.831591 
L 319.664882 -27.831591 
L 316.439714 -27.831591 
L 313.214545 -27.831591 
L 309.989377 -27.831591 
L 306.764209 -27.831591 
L 303.53904 -27.831591 
L 300.313872 -27.831591 
L 297.088704 -27.831591 
L 293.863535 -27.831591 
L 290.638367 -27.831591 
L 287.413199 -27.831591 
L 284.18803 -27.831591 
L 280.962862 -27.831591 
L 277.737694 -27.831591 
L 274.512525 -27.831591 
L 271.287357 -27.831591 
L 268.062189 -27.831591 
L 264.83702 -27.831591 
L 261.611852 -27.831591 
L 258.386684 -27.831591 
L 255.161515 -27.831591 
L 251.936347 -27.831591 
L 248.711178 -27.831591 
L 245.48601 -27.831591 
L 242.260842 -27.831591 
L 239.035673 -27.831591 
L 235.810505 -27.831591 
L 232.585337 -27.831591 
L 229.360168 -27.831591 
L 226.135 -27.831591 
L 222.909832 -27.831591 
L 219.684663 -27.831591 
L 216.459495 -27.831591 
L 213.234327 -27.831591 
L 210.009158 -27.831591 
L 206.78399 -27.831591 
L 203.558822 -27.831591 
L 200.333653 -27.831591 
L 197.108485 -27.831591 
L 193.883316 -27.831591 
L 190.658148 -27.831591 
L 187.43298 -27.831591 
L 184.207811 -27.831591 
L 180.982643 -27.831591 
L 177.757475 -27.831591 
L 174.532306 -27.831591 
L 171.307138 -27.831591 
L 168.08197 -27.831591 
L 164.856801 -27.831591 
L 161.631633 -27.831591 
L 158.406465 -27.831591 
L 155.181296 -27.831591 
L 151.956128 -27.831591 
L 148.73096 -27.831591 
L 145.505791 -27.831591 
L 142.280623 -27.831591 
L 139.055455 -27.831591 
L 135.830286 -27.831591 
L 132.605118 -27.831591 
L 129.379949 -27.831591 
L 126.154781 -27.831591 
L 122.929613 -27.831591 
L 119.704444 -27.831591 
L 116.479276 -27.831591 
L 113.254108 -27.831591 
L 110.028939 -27.831591 
L 106.803771 -27.831591 
L 103.578603 -27.831591 
L 100.353434 -27.831591 
L 97.128266 -27.831591 
L 93.903098 -27.831591 
L 90.677929 -27.831591 
L 87.452761 -27.831591 
L 84.227593 -27.831591 
L 81.002424 -27.831591 
L 77.777256 -27.831591 
L 74.552088 -27.831591 
L 71.326919 -27.831591 
L 68.101751 -27.831591 
L 64.876582 -27.831591 
L 61.651414 -27.831591 
L 58.426246 -27.831591 
L 55.201077 -27.831591 
L 51.975909 -27.831591 
z
" style="stroke: #3fb950; stroke-opacity: 0.15"/>
    </defs>
    <g clip-path="url(#pb4f7e4a4f8)">
     <use xlink:href="#m79ea134826" x="0" y="173.060781" style="fill: #3fb950; fill-opacity: 0.15; stroke: #3fb950; stroke-opacity: 0.15"/>
    </g>
   </g>
   <g id="matplotlib.axis_1">
    <g id="xtick_1">
     <g id="line2d_1">
      <path d="M 51.975909 151.118281 
L 51.975909 21.558281 
" clip-path="url(#pb4f7e4a4f8)" style="fill: none; stroke: #21262d; stroke-opacity: 0.5; stroke-width: 0.5; stroke-linecap: square"/>
     </g>
     <g id="line2d_2">
      <defs>
       <path id="ma75a98b236" d="M 0 0 
L 0 3.5 
" style="stroke: #c9d1d9; stroke-width: 0.8"/>
      </defs>
      <g>
       <use xlink:href="#ma75a98b236" x="51.975909" y="151.118281" style="fill: #c9d1d9; stroke: #c9d1d9; stroke-width: 0.8"/>
      </g>
     </g>
     <g id="text_1">
      <!-- 0 -->
      <g style="fill: #c9d1d9" transform="translate(49.430909 164.197031) scale(0.08 -0.08)">
       <defs>
        <path id="DejaVuSans-30" d="M 2034 4250 
Q 1547 4250 1301 3770 
Q 1056 3291 1056 2328 
Q 1056 1369 1301 889 
Q 1547 409 2034 409 
Q 2525 409 2770 889 
Q 3016 1369 3016 2328 
Q 3016 3291 2770 3770 
Q 2525 4250 2034 4250 
z
M 2034 4750 
Q 2819 4750 3233 4129 
Q 3647 3509 3647 2328 
Q 3647 1150 3233 529 
Q 2819 -91 2034 -91 
Q 1250 -91 836 529 
Q 422 1150 422 2328 
Q 422 3509 836 4129 
Q 1250 4750 2034 4750 
z
" transform="scale(0.015625)"/>
       </defs>
       <use xlink:href="#DejaVuSans-30"/>
      </g>
     </g>
    </g>
    <g id="xtick_2">
     <g id="line2d_3">
      <path d="M 116.479276 151.118281 
L 116.479276 21.558281 
" clip-path="url(#pb4f7e4a4f8)" style="fill: none; stroke: #21262d; stroke-opacity: 0.5; stroke-width: 0.5; stroke-linecap: square"/>
     </g>
     <g id="line2d_4">
      <g>
       <use xlink:href="#ma75a98b236" x="116.479276" y="151.118281" style="fill: #c9d1d9; stroke: #c9d1d9; stroke-width: 0.8"/>
      </g>
     </g>
     <g id="text_2">
      <!-- 20 -->
      <g style="fill: #c9d1d9" transform="translate(111.389276 164.197031) scale(0.08 -0.08)">
       <defs>
        <path id="DejaVuSans-32" d="M 1228 531 
L 3431 531 
L 3431 0 
L 469 0 
L 469 531 
Q 828 903 1448 1529 
Q 2069 2156 2228 2338 
Q 2531 2678 2651 2914 
Q 2772 3150 2772 3378 
Q 2772 3750 2511 3984 
Q 2250 4219 1831 4219 
Q 1534 4219 1204 4116 
Q 875 4013 500 3803 
L 500 4441 
Q 881 4594 1212 4672 
Q 1544 4750 1819 4750 
Q 2544 4750 2975 4387 
Q 3406 4025 3406 3419 
Q 3406 3131 3298 2873 
Q 3191 2616 2906 2266 
Q 2828 2175 2409 1742 
Q 1991 1309 1228 531 
z
" transform="scale(0.015625)"/>
       </defs>
       <use xlink:href="#DejaVuSans-32"/>
       <use xlink:href="#DejaVuSans-30" transform="translate(63.623047 0)"/>
      </g>
     </g>
    </g>
    <g id="xtick_3">
     <g id="line2d_5">
      <path d="M 180.982643 151.118281 
L 180.982643 21.558281 
" clip-path="url(#pb4f7e4a4f8)" style="fill: none; stroke: #21262d; stroke-opacity: 0.5; stroke-width: 0.5; stroke-linecap: square"/>
     </g>
     <g id="line2d_6">
      <g>
       <use xlink:href="#ma75a98b236" x="180.982643" y="151.118281" style="fill: #c9d1d9; stroke: #c9d1d9; stroke-width: 0.8"/>
      </g>
     </g>
     <g id="text_3">
      <!-- 40 -->
      <g style="fill: #c9d1d9" transform="translate(175.892643 164.197031) scale(0.08 -0.08)">
       <defs>
        <path id="DejaVuSans-34" d="M 2419 4116 
L 825 1625 
L 2419 1625 
L 2419 4116 
z
M 2253 4666 
L 3047 4666 
L 3047 1625 
L 3713 1625 
L 3713 1100 
L 3047 1100 
L 3047 0 
L 2419 0 
L 2419 1100 
L 313 1100 
L 313 1709 
L 2253 4666 
z
" transform="scale(0.015625)"/>
       </defs>
       <use xlink:href="#DejaVuSans-34"/>
       <use xlink:href="#DejaVuSans-30" transform="translate(63.623047 0)"/>
      </g>
     </g>
    </g>
    <g id="xtick_4">
     <g id="line2d_7">
      <path d="M 245.48601 151.118281 
L 245.48601 21.558281 
" clip-path="url(#pb4f7e4a4f8)" style="fill: none; stroke: #21262d; stroke-opacity: 0.5; stroke-width: 0.5; stroke-linecap: square"/>
     </g>
     <g id="line2d_8">
      <g>
       <use xlink:href="#ma75a98b236" x="245.48601" y="151.118281" style="fill: #c9d1d9; stroke: #c9d1d9; stroke-width: 0.8"/>
      </g>
     </g>
     <g id="text_4">
      <!-- 60 -->
      <g style="fill: #c9d1d9" transform="translate(240.39601 164.197031) scale(0.08 -0.08)">
       <defs>
        <path id="DejaVuSans-36" d="M 2113 2584 
Q 1688 2584 1439 2293 
Q 1191 2003 1191 1497 
Q 1191 994 1439 701 
Q 1688 409 2113 409 
Q 2538 409 2786 701 
Q 3034 994 3034 1497 
Q 3034 2003 2786 2293 
Q 2538 2584 2113 2584 
z
M 3366 4563 
L 3366 3988 
Q 3128 4100 2886 4159 
Q 2644 4219 2406 4219 
Q 1781 4219 1451 3797 
Q 1122 3375 1075 2522 
Q 1259 2794 1537 2939 
Q 1816 3084 2150 3084 
Q 2853 3084 3261 2657 
Q 3669 2231 3669 1497 
Q 3669 778 3244 343 
Q 2819 -91 2113 -91 
Q 1303 -91 875 529 
Q 447 1150 447 2328 
Q 447 3434 972 4092 
Q 1497 4750 2381 4750 
Q 2619 4750 2861 4703 
Q 3103 4656 3366 4563 
z
" transform="scale(0.015625)"/>
       </defs>
       <use xlink:href="#DejaVuSans-36"/>
       <use xlink:href="#DejaVuSans-30" transform="translate(63.623047 0)"/>
      </g>
     </g>
    </g>
    <g id="xtick_5">
     <g id="line2d_9">
      <path d="M 309.989377 151.118281 
L 309.989377 21.558281 
" clip-path="url(#pb4f7e4a4f8)" style="fill: none; stroke: #21262d; stroke-opacity: 0.5; stroke-width: 0.5; stroke-linecap: square"/>
     </g>
     <g id="line2d_10">
      <g>
       <use xlink:href="#ma75a98b236" x="309.989377" y="151.118281" style="fill: #c9d1d9; stroke: #c9d1d9; stroke-width: 0.8"/>
      </g>
     </g>
     <g id="text_5">
      <!-- 80 -->
      <g style="fill: #c9d1d9" transform="translate(304.899377 164.197031) scale(0.08 -0.08)">
       <defs>
        <path id="DejaVuSans-38" d="M 2034 2216 
Q 1584 2216 1326 1975 
Q 1069 1734 1069 1313 
Q 1069 891 1326 650 
Q 1584 409 2034 409 
Q 2484 409 2743 651 
Q 3003 894 3003 1313 
Q 3003 1734 2745 1975 
Q 2488 2216 2034 2216 
z
M 1403 2484 
Q 997 2584 770 2862 
Q 544 3141 544 3541 
Q 544 4100 942 4425 
Q 1341 4750 2034 4750 
Q 2731 4750 3128 4425 
Q 3525 4100 3525 3541 
Q 3525 3141 3298 2862 
Q 3072 2584 2669 2484 
Q 3125 2378 3379 2068 
Q 3634 1759 3634 1313 
Q 3634 634 3220 271 
Q 2806 -91 2034 -91 
Q 1263 -91 848 271 
Q 434 634 434 1313 
Q 434 1759 690 2068 
Q 947 2378 1403 2484 
z
M 1172 3481 
Q 1172 3119 1398 2916 
Q 1625 2713 2034 2713 
Q 2441 2713 2670 2916 
Q 2900 3119 2900 3481 
Q 2900 3844 2670 4047 
Q 2441 4250 2034 4250 
Q 1625 4250 1398 4047 
Q 1172 3844 1172 3481 
z
" transform="scale(0.015625)"/>
       </defs>
       <use xlink:href="#DejaVuSans-38"/>
       <use xlink:href="#DejaVuSans-30" transform="translate(63.623047 0)"/>
      </g>
     </g>
    </g>
    <g id="xtick_6">
     <g id="line2d_11">
      <path d="M 374.492744 151.118281 
L 374.492744 21.558281 
" clip-path="url(#pb4f7e4a4f8)" style="fill: none; stroke: #21262d; stroke-opacity: 0.5; stroke-width: 0.5; stroke-linecap: square"/>
     </g>
     <g id="line2d_12">
      <g>
       <use xlink:href="#ma75a98b236" x="374.492744" y="151.118281" style="fill: #c9d1d9; stroke: #c9d1d9; stroke-width: 0.8"/>
      </g>
     </g>
     <g id="text_6">
      <!-- 100 -->
      <g style="fill: #c9d1d9" transform="translate(366.857744 164.197031) scale(0.08 -0.08)">
       <defs>
        <path id="DejaVuSans-31" d="M 794 531 
L 1825 531 
L 1825 4091 
L 703 3866 
L 703 4441 
L 1819 4666 
L 2450 4666 
L 2450 531 
L 3481 531 
L 3481 0 
L 794 0 
L 794 531 
z
" transform="scale(0.015625)"/>
       </defs>
       <use xlink:href="#DejaVuSans-31"/>
       <use xlink:href="#DejaVuSans-30" transform="translate(63.623047 0)"/>
       <use xlink:href="#DejaVuSans-30" transform="translate(127.246094 0)"/>
      </g>
     </g>
    </g>
   </g>
   <g id="matplotlib.axis_2">
    <g id="ytick_1">
     <g id="line2d_13">
      <path d="M 34.56 145.22919 
L 417.71 145.22919 
" clip-path="url(#pb4f7e4a4f8)" style="fill: none; stroke: #21262d; stroke-opacity: 0.5; stroke-width: 0.5; stroke-linecap: square"/>
     </g>
     <g id="line2d_14">
      <defs>
       <path id="mca85f5ec10" d="M 0 0 
L -3.5 0 
" style="stroke: #c9d1d9; stroke-width: 0.8"/>
      </defs>
      <g>
       <use xlink:href="#mca85f5ec10" x="34.56" y="145.22919" style="fill: #c9d1d9; stroke: #c9d1d9; stroke-width: 0.8"/>
      </g>
     </g>
     <g id="text_7">
      <!-- $0 -->
      <g style="fill: #c9d1d9" transform="translate(17.38 148.268565) scale(0.08 -0.08)">
       <defs>
        <path id="DejaVuSans-24" d="M 2163 -941 
L 1850 -941 
L 1847 0 
Q 1519 6 1191 76 
Q 863 147 531 288 
L 531 850 
Q 850 650 1176 548 
Q 1503 447 1850 444 
L 1850 1869 
Q 1159 1981 845 2250 
Q 531 2519 531 2988 
Q 531 3497 872 3790 
Q 1213 4084 1850 4128 
L 1850 4863 
L 2163 4863 
L 2163 4138 
Q 2453 4125 2725 4076 
Q 2997 4028 3256 3944 
L 3256 3397 
Q 2997 3528 2723 3600 
Q 2450 3672 2163 3684 
L 2163 2350 
Q 2872 2241 3206 1959 
Q 3541 1678 3541 1191 
Q 3541 663 3186 358 
Q 2831 53 2163 6 
L 2163 -941 
z
M 1850 2406 
L 1850 3688 
Q 1488 3647 1297 3481 
Q 1106 3316 1106 3041 
Q 1106 2772 1282 2622 
Q 1459 2472 1850 2406 
z
M 2163 1806 
L 2163 453 
Q 2559 506 2761 678 
Q 2963 850 2963 1131 
Q 2963 1406 2770 1568 
Q 2578 1731 2163 1806 
z
" transform="scale(0.015625)"/>
       </defs>
       <use xlink:href="#DejaVuSans-24"/>
       <use xlink:href="#DejaVuSans-30" transform="translate(63.623047 0)"/>
      </g>
     </g>
    </g>
    <g id="ytick_2">
     <g id="line2d_15">
      <path d="M 34.56 113.054519 
L 417.71 113.054519 
" clip-path="url(#pb4f7e4a4f8)" style="fill: none; stroke: #21262d; stroke-opacity: 0.5; stroke-width: 0.5; stroke-linecap: square"/>
     </g>
     <g id="line2d_16">
      <g>
       <use xlink:href="#mca85f5ec10" x="34.56" y="113.054519" style="fill: #c9d1d9; stroke: #c9d1d9; stroke-width: 0.8"/>
      </g>
     </g>
     <g id="text_8">
      <!-- $100 -->
      <g style="fill: #c9d1d9" transform="translate(7.2 116.093894) scale(0.08 -0.08)">
       <use xlink:href="#DejaVuSans-24"/>
       <use xlink:href="#DejaVuSans-31" transform="translate(63.623047 0)"/>
       <use xlink:href="#DejaVuSans-30" transform="translate(127.246094 0)"/>
       <use xlink:href="#DejaVuSans-30" transform="translate(190.869141 0)"/>
      </g>
     </g>
    </g>
    <g id="ytick_3">
     <g id="line2d_17">
      <path d="M 34.56 80.879848 
L 417.71 80.879848 
" clip-path="url(#pb4f7e4a4f8)" style="fill: none; stroke: #21262d; stroke-opacity: 0.5; stroke-width: 0.5; stroke-linecap: square"/>
     </g>
     <g id="line2d_18">
      <g>
       <use xlink:href="#mca85f5ec10" x="34.56" y="80.879848" style="fill: #c9d1d9; stroke: #c9d1d9; stroke-width: 0.8"/>
      </g>
     </g>
     <g id="text_9">
      <!-- $200 -->
      <g style="fill: #c9d1d9" transform="translate(7.2 83.919223) scale(0.08 -0.08)">
       <use xlink:href="#DejaVuSans-24"/>
       <use xlink:href="#DejaVuSans-32" transform="translate(63.623047 0)"/>
       <use xlink:href="#DejaVuSans-30" transform="translate(127.246094 0)"/>
       <use xlink:href="#DejaVuSans-30" transform="translate(190.869141 0)"/>
      </g>
     </g>
    </g>
    <g id="ytick_4">
     <g id="line2d_19">
      <path d="M 34.56 48.705177 
L 417.71 48.705177 
" clip-path="url(#pb4f7e4a4f8)" style="fill: none; stroke: #21262d; stroke-opacity: 0.5; stroke-width: 0.5; stroke-linecap: square"/>
     </g>
     <g id="line2d_20">
      <g>
       <use xlink:href="#mca85f5ec10" x="34.56" y="48.705177" style="fill: #c9d1d9; stroke: #c9d1d9; stroke-width: 0.8"/>
      </g>
     </g>
     <g id="text_10">
      <!-- $300 -->
      <g style="fill: #c9d1d9" transform="translate(7.2 51.744552) scale(0.08 -0.08)">
       <defs>
        <path id="DejaVuSans-33" d="M 2597 2516 
Q 3050 2419 3304 2112 
Q 3559 1806 3559 1356 
Q 3559 666 3084 287 
Q 2609 -91 1734 -91 
Q 1441 -91 1130 -33 
Q 819 25 488 141 
L 488 750 
Q 750 597 1062 519 
Q 1375 441 1716 441 
Q 2309 441 2620 675 
Q 2931 909 2931 1356 
Q 2931 1769 2642 2001 
Q 2353 2234 1838 2234 
L 1294 2234 
L 1294 2753 
L 1863 2753 
Q 2328 2753 2575 2939 
Q 2822 3125 2822 3475 
Q 2822 3834 2567 4026 
Q 2313 4219 1838 4219 
Q 1578 4219 1281 4162 
Q 984 4106 628 3988 
L 628 4550 
Q 988 4650 1302 4700 
Q 1616 4750 1894 4750 
Q 2613 4750 3031 4423 
Q 3450 4097 3450 3541 
Q 3450 3153 3228 2886 
Q 3006 2619 2597 2516 
z
" transform="scale(0.015625)"/>
       </defs>
       <use xlink:href="#DejaVuSans-24"/>
       <use xlink:href="#DejaVuSans-33" transform="translate(63.623047 0)"/>
       <use xlink:href="#DejaVuSans-30" transform="translate(127.246094 0)"/>
       <use xlink:href="#DejaVuSans-30" transform="translate(190.869141 0)"/>
      </g>
     </g>
    </g>
   </g>
   <g id="line2d_21">
    <path d="M 51.975909 75.699726 
L 55.201077 81.375338 
L 58.426246 63.57631 
L 61.651414 82.816764 
L 64.876582 74.892142 
L 68.101751 73.753159 
L 71.326919 44.902131 
L 74.552088 56.179353 
L 77.777256 62.138102 
L 81.002424 60.310581 
L 84.227593 65.847842 
L 87.452761 63.531266 
L 90.677929 61.327301 
L 93.903098 63.489439 
L 97.128266 64.100757 
L 100.353434 61.928967 
L 103.578603 63.186997 
L 106.803771 62.096275 
L 110.028939 64.120062 
L 113.254108 60.320234 
L 116.479276 65.185044 
L 119.704444 63.064733 
L 122.929613 64.663814 
L 126.154781 65.188261 
L 129.379949 71.320754 
L 132.605118 59.528737 
L 135.830286 65.976541 
L 139.055455 58.006875 
L 142.280623 60.65485 
L 145.505791 30.417094 
L 148.73096 52.302306 
L 151.956128 68.972003 
L 155.181296 63.186997 
L 158.406465 66.761603 
L 161.631633 48.122816 
L 164.856801 59.049334 
L 168.08197 60.542239 
L 171.307138 59.509432 
L 174.532306 63.096908 
L 177.757475 58.116269 
L 180.982643 60.69346 
L 184.207811 58.836981 
L 187.43298 57.913568 
L 190.658148 59.705697 
L 193.883316 59.171598 
L 197.108485 62.553156 
L 200.333653 56.858239 
L 203.558822 64.171542 
L 206.78399 58.428363 
L 210.009158 65.81245 
L 213.234327 68.383206 
L 216.459495 110.075145 
L 219.684663 61.17608 
L 222.909832 67.923108 
L 226.135 61.517131 
L 229.360168 59.792569 
L 232.585337 51.105408 
L 235.810505 51.047493 
L 239.035673 66.089152 
L 242.260842 62.038361 
L 245.48601 60.950857 
L 248.711178 39.760619 
L 251.936347 35.812787 
L 255.161515 38.515459 
L 258.386684 41.887365 
L 261.611852 43.438184 
L 264.83702 52.820318 
L 268.062189 54.628534 
L 271.287357 55.204461 
L 274.512525 55.204461 
L 277.737694 56.04422 
L 280.962862 59.477257 
L 284.18803 55.326725 
L 287.413199 62.076971 
L 290.638367 65.040258 
L 293.863535 56.697366 
L 297.088704 80.136613 
L 300.313872 57.839566 
L 303.53904 78.582577 
L 306.764209 65.603315 
L 309.989377 55.114372 
L 313.214545 79.020152 
L 316.439714 51.581593 
L 319.664882 57.826697 
L 322.890051 53.309373 
L 326.115219 55.577687 
L 329.340387 59.70248 
L 332.565556 53.415549 
L 335.790724 54.770103 
L 339.015892 27.447372 
L 342.241061 43.75993 
L 345.466229 63.8691 
L 348.691397 54.300353 
L 351.916566 62.527416 
L 355.141734 56.629799 
L 358.366902 62.411587 
L 361.592071 60.474672 
L 364.817239 60.690242 
L 368.042407 61.018424 
L 371.267576 55.79004 
L 374.492744 61.333736 
L 377.717912 58.7115 
L 380.943081 62.958557 
L 384.168249 56.764932 
L 387.393418 54.123392 
L 390.618586 57.418078 
L 393.843754 57.820262 
L 397.068923 54.766885 
L 400.294091 54.644622 
" clip-path="url(#pb4f7e4a4f8)" style="fill: none; stroke: #3fb950; stroke-width: 2; stroke-linecap: square"/>
   </g>
   <g id="patch_3">
    <path d="M 34.56 151.118281 
L 34.56 21.558281 
" style="fill: none; stroke: #21262d; stroke-width: 0.8; stroke-linejoin: miter; stroke-linecap: square"/>
   </g>
   <g id="patch_4">
    <path d="M 34.56 151.118281 
L 417.71 151.118281 
" style="fill: none; stroke: #21262d; stroke-width: 0.8; stroke-linejoin: miter; stroke-linecap: square"/>
   </g>
   <g id="text_11">
    <!-- GSTACK (garrytan/gstack) — $281.54 (+0.14%) -->
    <g style="fill: #c9d1d9" transform="translate(80.434844 15.558281) scale(0.11 -0.11)">
     <defs>
      <path id="DejaVuSans-Bold-47" d="M 4781 347 
Q 4331 128 3847 18 
Q 3363 -91 2847 -91 
Q 1681 -91 1000 561 
Q 319 1213 319 2328 
Q 319 3456 1012 4103 
Q 1706 4750 2913 4750 
Q 3378 4750 3804 4662 
Q 4231 4575 4609 4403 
L 4609 3438 
Q 4219 3659 3833 3768 
Q 3447 3878 3059 3878 
Q 2341 3878 1952 3476 
Q 1563 3075 1563 2328 
Q 1563 1588 1938 1184 
Q 2313 781 3003 781 
Q 3191 781 3352 804 
Q 3513 828 3641 878 
L 3641 1784 
L 2906 1784 
L 2906 2591 
L 4781 2591 
L 4781 347 
z
" transform="scale(0.015625)"/>
      <path id="DejaVuSans-Bold-53" d="M 3834 4519 
L 3834 3531 
Q 3450 3703 3084 3790 
Q 2719 3878 2394 3878 
Q 1963 3878 1756 3759 
Q 1550 3641 1550 3391 
Q 1550 3203 1689 3098 
Q 1828 2994 2194 2919 
L 2706 2816 
Q 3484 2659 3812 2340 
Q 4141 2022 4141 1434 
Q 4141 663 3683 286 
Q 3225 -91 2284 -91 
Q 1841 -91 1394 -6 
Q 947 78 500 244 
L 500 1259 
Q 947 1022 1364 901 
Q 1781 781 2169 781 
Q 2563 781 2772 912 
Q 2981 1044 2981 1288 
Q 2981 1506 2839 1625 
Q 2697 1744 2272 1838 
L 1806 1941 
Q 1106 2091 782 2419 
Q 459 2747 459 3303 
Q 459 4000 909 4375 
Q 1359 4750 2203 4750 
Q 2588 4750 2994 4692 
Q 3400 4634 3834 4519 
z
" transform="scale(0.015625)"/>
      <path id="DejaVuSans-Bold-54" d="M 31 4666 
L 4331 4666 
L 4331 3756 
L 2784 3756 
L 2784 0 
L 1581 0 
L 1581 3756 
L 31 3756 
L 31 4666 
z
" transform="scale(0.015625)"/>
      <path id="DejaVuSans-Bold-41" d="M 3419 850 
L 1538 850 
L 1241 0 
L 31 0 
L 1759 4666 
L 3194 4666 
L 4922 0 
L 3713 0 
L 3419 850 
z
M 1838 1716 
L 3116 1716 
L 2478 3572 
L 1838 1716 
z
" transform="scale(0.015625)"/>
      <path id="DejaVuSans-Bold-43" d="M 4288 256 
Q 3956 84 3597 -3 
Q 3238 -91 2847 -91 
Q 1681 -91 1000 561 
Q 319 1213 319 2328 
Q 319 3447 1000 4098 
Q 1681 4750 2847 4750 
Q 3238 4750 3597 4662 
Q 3956 4575 4288 4403 
L 4288 3438 
Q 3953 3666 3628 3772 
Q 3303 3878 2944 3878 
Q 2300 3878 1931 3465 
Q 1563 3053 1563 2328 
Q 1563 1606 1931 1193 
Q 2300 781 2944 781 
Q 3303 781 3628 887 
Q 3953 994 4288 1222 
L 4288 256 
z
" transform="scale(0.015625)"/>
      <path id="DejaVuSans-Bold-4b" d="M 588 4666 
L 1791 4666 
L 1791 2963 
L 3525 4666 
L 4922 4666 
L 2675 2456 
L 5153 0 
L 3647 0 
L 1791 1838 
L 1791 0 
L 588 0 
L 588 4666 
z
" transform="scale(0.015625)"/>
      <path id="DejaVuSans-Bold-20" transform="scale(0.015625)"/>
      <path id="DejaVuSans-Bold-28" d="M 2413 -844 
L 1484 -844 
Q 1006 -72 778 623 
Q 550 1319 550 2003 
Q 550 2688 779 3389 
Q 1009 4091 1484 4856 
L 2413 4856 
Q 2013 4116 1813 3408 
Q 1613 2700 1613 2009 
Q 1613 1319 1811 609 
Q 2009 -100 2413 -844 
z
" transform="scale(0.015625)"/>
      <path id="DejaVuSans-Bold-67" d="M 2919 594 
Q 2688 288 2409 144 
Q 2131 0 1766 0 
Q 1125 0 706 504 
Q 288 1009 288 1791 
Q 288 2575 706 3076 
Q 1125 3578 1766 3578 
Q 2131 3578 2409 3434 
Q 2688 3291 2919 2981 
L 2919 3500 
L 4044 3500 
L 4044 353 
Q 4044 -491 3511 -936 
Q 2978 -1381 1966 -1381 
Q 1638 -1381 1331 -1331 
Q 1025 -1281 716 -1178 
L 716 -306 
Q 1009 -475 1290 -558 
Q 1572 -641 1856 -641 
Q 2406 -641 2662 -400 
Q 2919 -159 2919 353 
L 2919 594 
z
M 2181 2772 
Q 1834 2772 1640 2515 
Q 1447 2259 1447 1791 
Q 1447 1309 1634 1061 
Q 1822 813 2181 813 
Q 2531 813 2725 1069 
Q 2919 1325 2919 1791 
Q 2919 2259 2725 2515 
Q 2531 2772 2181 2772 
z
" transform="scale(0.015625)"/>
      <path id="DejaVuSans-Bold-61" d="M 2106 1575 
Q 1756 1575 1579 1456 
Q 1403 1338 1403 1106 
Q 1403 894 1545 773 
Q 1688 653 1941 653 
Q 2256 653 2472 879 
Q 2688 1106 2688 1447 
L 2688 1575 
L 2106 1575 
z
M 3816 1997 
L 3816 0 
L 2688 0 
L 2688 519 
Q 2463 200 2181 54 
Q 1900 -91 1497 -91 
Q 953 -91 614 226 
Q 275 544 275 1050 
Q 275 1666 698 1953 
Q 1122 2241 2028 2241 
L 2688 2241 
L 2688 2328 
Q 2688 2594 2478 2717 
Q 2269 2841 1825 2841 
Q 1466 2841 1156 2769 
Q 847 2697 581 2553 
L 581 3406 
Q 941 3494 1303 3539 
Q 1666 3584 2028 3584 
Q 2975 3584 3395 3211 
Q 3816 2838 3816 1997 
z
" transform="scale(0.015625)"/>
      <path id="DejaVuSans-Bold-72" d="M 3138 2547 
Q 2991 2616 2845 2648 
Q 2700 2681 2553 2681 
Q 2122 2681 1889 2404 
Q 1656 2128 1656 1613 
L 1656 0 
L 538 0 
L 538 3500 
L 1656 3500 
L 1656 2925 
Q 1872 3269 2151 3426 
Q 2431 3584 2822 3584 
Q 2878 3584 2943 3579 
Q 3009 3575 3134 3559 
L 3138 2547 
z
" transform="scale(0.015625)"/>
      <path id="DejaVuSans-Bold-79" d="M 78 3500 
L 1197 3500 
L 2138 1125 
L 2938 3500 
L 4056 3500 
L 2584 -331 
Q 2363 -916 2067 -1148 
Q 1772 -1381 1288 -1381 
L 641 -1381 
L 641 -647 
L 991 -647 
Q 1275 -647 1404 -556 
Q 1534 -466 1606 -231 
L 1638 -134 
L 78 3500 
z
" transform="scale(0.015625)"/>
      <path id="DejaVuSans-Bold-74" d="M 1759 4494 
L 1759 3500 
L 2913 3500 
L 2913 2700 
L 1759 2700 
L 1759 1216 
Q 1759 972 1856 886 
Q 1953 800 2241 800 
L 2816 800 
L 2816 0 
L 1856 0 
Q 1194 0 917 276 
Q 641 553 641 1216 
L 641 2700 
L 84 2700 
L 84 3500 
L 641 3500 
L 641 4494 
L 1759 4494 
z
" transform="scale(0.015625)"/>
      <path id="DejaVuSans-Bold-6e" d="M 4056 2131 
L 4056 0 
L 2931 0 
L 2931 347 
L 2931 1631 
Q 2931 2084 2911 2256 
Q 2891 2428 2841 2509 
Q 2775 2619 2662 2680 
Q 2550 2741 2406 2741 
Q 2056 2741 1856 2470 
Q 1656 2200 1656 1722 
L 1656 0 
L 538 0 
L 538 3500 
L 1656 3500 
L 1656 2988 
Q 1909 3294 2193 3439 
Q 2478 3584 2822 3584 
Q 3428 3584 3742 3212 
Q 4056 2841 4056 2131 
z
" transform="scale(0.015625)"/>
      <path id="DejaVuSans-Bold-2f" d="M 1644 4666 
L 2338 4666 
L 691 -594 
L 0 -594 
L 1644 4666 
z
" transform="scale(0.015625)"/>
      <path id="DejaVuSans-Bold-73" d="M 3272 3391 
L 3272 2541 
Q 2913 2691 2578 2766 
Q 2244 2841 1947 2841 
Q 1628 2841 1473 2761 
Q 1319 2681 1319 2516 
Q 1319 2381 1436 2309 
Q 1553 2238 1856 2203 
L 2053 2175 
Q 2913 2066 3209 1816 
Q 3506 1566 3506 1031 
Q 3506 472 3093 190 
Q 2681 -91 1863 -91 
Q 1516 -91 1145 -36 
Q 775 19 384 128 
L 384 978 
Q 719 816 1070 734 
Q 1422 653 1784 653 
Q 2113 653 2278 743 
Q 2444 834 2444 1013 
Q 2444 1163 2330 1236 
Q 2216 1309 1875 1350 
L 1678 1375 
Q 931 1469 631 1722 
Q 331 1975 331 2491 
Q 331 3047 712 3315 
Q 1094 3584 1881 3584 
Q 2191 3584 2531 3537 
Q 2872 3491 3272 3391 
z
" transform="scale(0.015625)"/>
      <path id="DejaVuSans-Bold-63" d="M 3366 3391 
L 3366 2478 
Q 3138 2634 2908 2709 
Q 2678 2784 2431 2784 
Q 1963 2784 1702 2511 
Q 1441 2238 1441 1747 
Q 1441 1256 1702 982 
Q 1963 709 2431 709 
Q 2694 709 2930 787 
Q 3166 866 3366 1019 
L 3366 103 
Q 3103 6 2833 -42 
Q 2563 -91 2291 -91 
Q 1344 -91 809 395 
Q 275 881 275 1747 
Q 275 2613 809 3098 
Q 1344 3584 2291 3584 
Q 2566 3584 2833 3536 
Q 3100 3488 3366 3391 
z
" transform="scale(0.015625)"/>
      <path id="DejaVuSans-Bold-6b" d="M 538 4863 
L 1656 4863 
L 1656 2216 
L 2944 3500 
L 4244 3500 
L 2534 1894 
L 4378 0 
L 3022 0 
L 1656 1459 
L 1656 0 
L 538 0 
L 538 4863 
z
" transform="scale(0.015625)"/>
      <path id="DejaVuSans-Bold-29" d="M 513 -844 
Q 913 -100 1113 609 
Q 1313 1319 1313 2009 
Q 1313 2700 1113 3408 
Q 913 4116 513 4856 
L 1441 4856 
Q 1916 4091 2145 3389 
Q 2375 2688 2375 2003 
Q 2375 1319 2147 623 
Q 1919 -72 1441 -844 
L 513 -844 
z
" transform="scale(0.015625)"/>
      <path id="DejaVuSans-Bold-2014" d="M 344 2156 
L 6056 2156 
L 6056 1350 
L 344 1350 
L 344 2156 
z
" transform="scale(0.015625)"/>
      <path id="DejaVuSans-Bold-24" d="M 2484 -941 
L 1978 -941 
L 1975 0 
Q 1584 16 1218 87 
Q 853 159 506 288 
L 506 1106 
Q 866 922 1233 823 
Q 1600 725 1978 713 
L 1978 1684 
L 1875 1703 
Q 1128 1834 814 2115 
Q 500 2397 500 2925 
Q 500 3484 883 3798 
Q 1266 4113 1975 4141 
L 1978 4863 
L 2484 4863 
L 2484 4153 
Q 2797 4128 3109 4075 
Q 3422 4022 3738 3938 
L 3738 3144 
Q 3425 3275 3112 3348 
Q 2800 3422 2484 3438 
L 2484 2541 
L 2584 2522 
Q 3378 2397 3698 2105 
Q 4019 1813 4019 1241 
Q 4019 666 3637 358 
Q 3256 50 2484 6 
L 2484 -941 
z
M 1978 2613 
L 1978 3428 
Q 1756 3416 1623 3308 
Q 1491 3200 1491 3034 
Q 1491 2850 1612 2745 
Q 1734 2641 1978 2613 
z
M 2484 1594 
L 2484 725 
Q 2756 728 2892 831 
Q 3028 934 3028 1141 
Q 3028 1353 2903 1458 
Q 2778 1563 2484 1594 
z
" transform="scale(0.015625)"/>
      <path id="DejaVuSans-Bold-32" d="M 1844 884 
L 3897 884 
L 3897 0 
L 506 0 
L 506 884 
L 2209 2388 
Q 2438 2594 2547 2791 
Q 2656 2988 2656 3200 
Q 2656 3528 2436 3728 
Q 2216 3928 1850 3928 
Q 1569 3928 1234 3808 
Q 900 3688 519 3450 
L 519 4475 
Q 925 4609 1322 4679 
Q 1719 4750 2100 4750 
Q 2938 4750 3402 4381 
Q 3866 4013 3866 3353 
Q 3866 2972 3669 2642 
Q 3472 2313 2841 1759 
L 1844 884 
z
" transform="scale(0.015625)"/>
      <path id="DejaVuSans-Bold-38" d="M 2228 2088 
Q 1891 2088 1709 1903 
Q 1528 1719 1528 1375 
Q 1528 1031 1709 848 
Q 1891 666 2228 666 
Q 2563 666 2741 848 
Q 2919 1031 2919 1375 
Q 2919 1722 2741 1905 
Q 2563 2088 2228 2088 
z
M 1350 2484 
Q 925 2613 709 2878 
Q 494 3144 494 3541 
Q 494 4131 934 4440 
Q 1375 4750 2228 4750 
Q 3075 4750 3515 4442 
Q 3956 4134 3956 3541 
Q 3956 3144 3739 2878 
Q 3522 2613 3097 2484 
Q 3572 2353 3814 2058 
Q 4056 1763 4056 1313 
Q 4056 619 3595 264 
Q 3134 -91 2228 -91 
Q 1319 -91 855 264 
Q 391 619 391 1313 
Q 391 1763 633 2058 
Q 875 2353 1350 2484 
z
M 1631 3419 
Q 1631 3141 1786 2991 
Q 1941 2841 2228 2841 
Q 2509 2841 2662 2991 
Q 2816 3141 2816 3419 
Q 2816 3697 2662 3845 
Q 2509 3994 2228 3994 
Q 1941 3994 1786 3844 
Q 1631 3694 1631 3419 
z
" transform="scale(0.015625)"/>
      <path id="DejaVuSans-Bold-31" d="M 750 831 
L 1813 831 
L 1813 3847 
L 722 3622 
L 722 4441 
L 1806 4666 
L 2950 4666 
L 2950 831 
L 4013 831 
L 4013 0 
L 750 0 
L 750 831 
z
" transform="scale(0.015625)"/>
      <path id="DejaVuSans-Bold-2e" d="M 653 1209 
L 1778 1209 
L 1778 0 
L 653 0 
L 653 1209 
z
" transform="scale(0.015625)"/>
      <path id="DejaVuSans-Bold-35" d="M 678 4666 
L 3669 4666 
L 3669 3781 
L 1638 3781 
L 1638 3059 
Q 1775 3097 1914 3117 
Q 2053 3138 2203 3138 
Q 3056 3138 3531 2711 
Q 4006 2284 4006 1522 
Q 4006 766 3489 337 
Q 2972 -91 2053 -91 
Q 1656 -91 1267 -14 
Q 878 63 494 219 
L 494 1166 
Q 875 947 1217 837 
Q 1559 728 1863 728 
Q 2300 728 2551 942 
Q 2803 1156 2803 1522 
Q 2803 1891 2551 2103 
Q 2300 2316 1863 2316 
Q 1603 2316 1309 2248 
Q 1016 2181 678 2041 
L 678 4666 
z
" transform="scale(0.015625)"/>
      <path id="DejaVuSans-Bold-34" d="M 2356 3675 
L 1038 1722 
L 2356 1722 
L 2356 3675 
z
M 2156 4666 
L 3494 4666 
L 3494 1722 
L 4159 1722 
L 4159 850 
L 3494 850 
L 3494 0 
L 2356 0 
L 2356 850 
L 288 850 
L 288 1881 
L 2156 4666 
z
" transform="scale(0.015625)"/>
      <path id="DejaVuSans-Bold-2b" d="M 3053 4013 
L 3053 2375 
L 4684 2375 
L 4684 1638 
L 3053 1638 
L 3053 0 
L 2309 0 
L 2309 1638 
L 678 1638 
L 678 2375 
L 2309 2375 
L 2309 4013 
L 3053 4013 
z
" transform="scale(0.015625)"/>
      <path id="DejaVuSans-Bold-30" d="M 2944 2338 
Q 2944 3213 2780 3570 
Q 2616 3928 2228 3928 
Q 1841 3928 1675 3570 
Q 1509 3213 1509 2338 
Q 1509 1453 1675 1090 
Q 1841 728 2228 728 
Q 2613 728 2778 1090 
Q 2944 1453 2944 2338 
z
M 4147 2328 
Q 4147 1169 3647 539 
Q 3147 -91 2228 -91 
Q 1306 -91 806 539 
Q 306 1169 306 2328 
Q 306 3491 806 4120 
Q 1306 4750 2228 4750 
Q 3147 4750 3647 4120 
Q 4147 3491 4147 2328 
z
" transform="scale(0.015625)"/>
      <path id="DejaVuSans-Bold-25" d="M 4959 1925 
Q 4738 1925 4616 1733 
Q 4494 1541 4494 1184 
Q 4494 825 4614 633 
Q 4734 441 4959 441 
Q 5184 441 5303 633 
Q 5422 825 5422 1184 
Q 5422 1541 5301 1733 
Q 5181 1925 4959 1925 
z
M 4959 2450 
Q 5541 2450 5875 2112 
Q 6209 1775 6209 1184 
Q 6209 594 5875 251 
Q 5541 -91 4959 -91 
Q 4378 -91 4042 251 
Q 3706 594 3706 1184 
Q 3706 1772 4042 2111 
Q 4378 2450 4959 2450 
z
M 2094 -91 
L 1403 -91 
L 4319 4750 
L 5013 4750 
L 2094 -91 
z
M 1453 4750 
Q 2034 4750 2367 4411 
Q 2700 4072 2700 3481 
Q 2700 2891 2367 2550 
Q 2034 2209 1453 2209 
Q 872 2209 539 2550 
Q 206 2891 206 3481 
Q 206 4072 539 4411 
Q 872 4750 1453 4750 
z
M 1453 4225 
Q 1228 4225 1106 4031 
Q 984 3838 984 3481 
Q 984 3122 1106 2926 
Q 1228 2731 1453 2731 
Q 1678 2731 1798 2926 
Q 1919 3122 1919 3481 
Q 1919 3838 1797 4031 
Q 1675 4225 1453 4225 
z
" transform="scale(0.015625)"/>
     </defs>
     <use xlink:href="#DejaVuSans-Bold-47"/>
     <use xlink:href="#DejaVuSans-Bold-53" transform="translate(82.080078 0)"/>
     <use xlink:href="#DejaVuSans-Bold-54" transform="translate(154.101562 0)"/>
     <use xlink:href="#DejaVuSans-Bold-41" transform="translate(214.564453 0)"/>
     <use xlink:href="#DejaVuSans-Bold-43" transform="translate(291.957031 0)"/>
     <use xlink:href="#DejaVuSans-Bold-4b" transform="translate(365.345703 0)"/>
     <use xlink:href="#DejaVuSans-Bold-20" transform="translate(442.835938 0)"/>
     <use xlink:href="#DejaVuSans-Bold-28" transform="translate(477.650391 0)"/>
     <use xlink:href="#DejaVuSans-Bold-67" transform="translate(523.353516 0)"/>
     <use xlink:href="#DejaVuSans-Bold-61" transform="translate(594.935547 0)"/>
     <use xlink:href="#DejaVuSans-Bold-72" transform="translate(662.416016 0)"/>
     <use xlink:href="#DejaVuSans-Bold-72" transform="translate(711.732422 0)"/>
     <use xlink:href="#DejaVuSans-Bold-79" transform="translate(761.048828 0)"/>
     <use xlink:href="#DejaVuSans-Bold-74" transform="translate(826.234375 0)"/>
     <use xlink:href="#DejaVuSans-Bold-61" transform="translate(874.037109 0)"/>
     <use xlink:href="#DejaVuSans-Bold-6e" transform="translate(941.517578 0)"/>
     <use xlink:href="#DejaVuSans-Bold-2f" transform="translate(1012.708984 0)"/>
     <use xlink:href="#DejaVuSans-Bold-67" transform="translate(1049.232422 0)"/>
     <use xlink:href="#DejaVuSans-Bold-73" transform="translate(1120.814453 0)"/>
     <use xlink:href="#DejaVuSans-Bold-74" transform="translate(1180.335938 0)"/>
     <use xlink:href="#DejaVuSans-Bold-61" transform="translate(1228.138672 0)"/>
     <use xlink:href="#DejaVuSans-Bold-63" transform="translate(1295.619141 0)"/>
     <use xlink:href="#DejaVuSans-Bold-6b" transform="translate(1354.896484 0)"/>
     <use xlink:href="#DejaVuSans-Bold-29" transform="translate(1421.400391 0)"/>
     <use xlink:href="#DejaVuSans-Bold-20" transform="translate(1467.103516 0)"/>
     <use xlink:href="#DejaVuSans-Bold-2014" transform="translate(1501.917969 0)"/>
     <use xlink:href="#DejaVuSans-Bold-20" transform="translate(1601.917969 0)"/>
     <use xlink:href="#DejaVuSans-Bold-24" transform="translate(1636.732422 0)"/>
     <use xlink:href="#DejaVuSans-Bold-32" transform="translate(1706.3125 0)"/>
     <use xlink:href="#DejaVuSans-Bold-38" transform="translate(1775.892578 0)"/>
     <use xlink:href="#DejaVuSans-Bold-31" transform="translate(1845.472656 0)"/>
     <use xlink:href="#DejaVuSans-Bold-2e" transform="translate(1915.052734 0)"/>
     <use xlink:href="#DejaVuSans-Bold-35" transform="translate(1953.041016 0)"/>
     <use xlink:href="#DejaVuSans-Bold-34" transform="translate(2022.621094 0)"/>
     <use xlink:href="#DejaVuSans-Bold-20" transform="translate(2092.201172 0)"/>
     <use xlink:href="#DejaVuSans-Bold-28" transform="translate(2127.015625 0)"/>
     <use xlink:href="#DejaVuSans-Bold-2b" transform="translate(2172.71875 0)"/>
     <use xlink:href="#DejaVuSans-Bold-30" transform="translate(2256.507812 0)"/>
     <use xlink:href="#DejaVuSans-Bold-2e" transform="translate(2326.087891 0)"/>
     <use xlink:href="#DejaVuSans-Bold-31" transform="translate(2364.076172 0)"/>
     <use xlink:href="#DejaVuSans-Bold-34" transform="translate(2433.65625 0)"/>
     <use xlink:href="#DejaVuSans-Bold-25" transform="translate(2503.236328 0)"/>
     <use xlink:href="#DejaVuSans-Bold-29" transform="translate(2603.431641 0)"/>
    </g>
   </g>
  </g>
 </g>
 <defs>
  <clipPath id="pb4f7e4a4f8">
   <rect x="34.56" y="21.558281" width="383.15" height="129.56"/>
  </clipPath>
 </defs>
</svg>
