<?xml version="1.0" encoding="utf-8" standalone="no"?>
<!DOCTYPE svg PUBLIC "-//W3C//DTD SVG 1.1//EN"
  "http://www.w3.org/Graphics/SVG/1.1/DTD/svg11.dtd">
<svg xmlns:xlink="http://www.w3.org/1999/xlink" width="425pt" height="172.518281pt" viewBox="0 0 425 172.518281" xmlns="http://www.w3.org/2000/svg" version="1.1">
 <metadata>
  <rdf:RDF xmlns:dc="http://purl.org/dc/elements/1.1/" xmlns:cc="http://creativecommons.org/ns#" xmlns:rdf="http://www.w3.org/1999/02/22-rdf-syntax-ns#">
   <cc:Work>
    <dc:type rdf:resource="http://purl.org/dc/dcmitype/StillImage"/>
    <dc:date>2026-06-27T00:31:49.813494</dc:date>
    <dc:format>image/svg+xml</dc:format>
    <dc:creator>
     <cc:Agent>
      <dc:title>Matplotlib v3.11.0, https://matplotlib.org/</dc:title>
     </cc:Agent>
    </dc:creator>
   </cc:Work>
  </rdf:RDF>
 </metadata>
 <defs>
  <style type="text/css">*{stroke-linejoin: round; stroke-linecap: butt}</style>
 </defs>
 <g id="figure_1">
  <g id="patch_1">
   <path d="M 0 172.518281 
L 425 172.518281 
L 425 0 
L 0 0 
z
" style="fill: #0d1117"/>
  </g>
  <g id="axes_1">
   <g id="patch_2">
    <path d="M 34.56 150.318281 
L 417.8 150.318281 
L 417.8 21.558281 
L 34.56 21.558281 
z
" style="fill: #0d1117"/>
   </g>
   <g id="FillBetweenPolyCollection_1">
    <defs>
     <path id="m09ecce7ead" d="M 51.98 -28.052727 
L 51.98 -99.645141 
L 55.851111 -88.969579 
L 59.722222 -142.575269 
L 63.593333 -110.327033 
L 67.464444 -114.729555 
L 71.335556 -111.668995 
L 75.206667 -113.355942 
L 79.077778 -114.257969 
L 82.948889 -118.923186 
L 86.82 -114.466859 
L 90.691111 -118.524396 
L 94.562222 -115.343566 
L 98.433333 -96.818791 
L 102.304444 -100.499692 
L 106.175556 -105.164909 
L 110.046667 -105.4371 
L 113.917778 -109.339551 
L 117.788889 -109.307901 
L 121.66 -120.309458 
L 125.531111 -140.29963 
L 129.402222 -142.132168 
L 133.273333 -138.837398 
L 137.144444 -145.107273 
L 141.015556 -91.273702 
L 144.886667 -135.083702 
L 148.757778 -137.046005 
L 152.628889 -133.97595 
L 156.5 -129.142987 
L 160.371111 -141.803007 
L 164.242222 -134.289286 
L 168.113333 -124.110629 
L 171.984444 -131.662331 
L 175.855556 -136.887755 
L 179.726667 -131.276201 
L 183.597778 -130.83943 
L 187.468889 -130.54825 
L 191.34 -140.676266 
L 195.211111 -136.704184 
L 199.082222 -135.672393 
L 202.953333 -95.999055 
L 206.824444 -102.588595 
L 210.695556 -98.540554 
L 214.566667 -105.3105 
L 218.437778 -101.705559 
L 222.308889 -104.582549 
L 226.18 -101.762529 
L 230.051111 -109.823797 
L 233.922222 -117.584389 
L 237.793333 -115.489156 
L 241.664444 -112.776747 
L 245.535556 -115.058715 
L 249.406667 -115.229625 
L 253.277778 -115.568281 
L 257.148889 -113.204022 
L 261.02 -113.621803 
L 264.891111 -111.092964 
L 268.762222 -112.02031 
L 272.633333 -112.12792 
L 276.504444 -109.067361 
L 280.375556 -108.266614 
L 284.246667 -111.947515 
L 288.117778 -105.440265 
L 291.988889 -108.51665 
L 295.86 -104.531908 
L 299.731111 -107.348763 
L 303.602222 -106.851857 
L 307.473333 -107.750719 
L 311.344444 -130.72549 
L 315.215556 -125.775422 
L 319.086667 -130.386834 
L 322.957778 -126.648963 
L 326.828889 -98.872879 
L 330.7 -112.131085 
L 334.571111 -114.102884 
L 338.442222 -117.467284 
L 342.313333 -110.871413 
L 346.184444 -119.568847 
L 350.055556 -115.780336 
L 353.926667 -112.779912 
L 357.797778 -112.00765 
L 361.668889 -111.93169 
L 365.54 -112.314656 
L 369.411111 -111.441114 
L 373.282222 -107.589303 
L 377.153333 -102.996881 
L 381.024444 -102.879776 
L 384.895556 -112.912842 
L 388.766667 -118.597191 
L 392.637778 -109.504131 
L 396.508889 -117.451459 
L 400.38 -106.614482 
L 400.38 -28.052727 
L 400.38 -28.052727 
L 396.508889 -28.052727 
L 392.637778 -28.052727 
L 388.766667 -28.052727 
L 384.895556 -28.052727 
L 381.024444 -28.052727 
L 377.153333 -28.052727 
L 373.282222 -28.052727 
L 369.411111 -28.052727 
L 365.54 -28.052727 
L 361.668889 -28.052727 
L 357.797778 -28.052727 
L 353.926667 -28.052727 
L 350.055556 -28.052727 
L 346.184444 -28.052727 
L 342.313333 -28.052727 
L 338.442222 -28.052727 
L 334.571111 -28.052727 
L 330.7 -28.052727 
L 326.828889 -28.052727 
L 322.957778 -28.052727 
L 319.086667 -28.052727 
L 315.215556 -28.052727 
L 311.344444 -28.052727 
L 307.473333 -28.052727 
L 303.602222 -28.052727 
L 299.731111 -28.052727 
L 295.86 -28.052727 
L 291.988889 -28.052727 
L 288.117778 -28.052727 
L 284.246667 -28.052727 
L 280.375556 -28.052727 
L 276.504444 -28.052727 
L 272.633333 -28.052727 
L 268.762222 -28.052727 
L 264.891111 -28.052727 
L 261.02 -28.052727 
L 257.148889 -28.052727 
L 253.277778 -28.052727 
L 249.406667 -28.052727 
L 245.535556 -28.052727 
L 241.664444 -28.052727 
L 237.793333 -28.052727 
L 233.922222 -28.052727 
L 230.051111 -28.052727 
L 226.18 -28.052727 
L 222.308889 -28.052727 
L 218.437778 -28.052727 
L 214.566667 -28.052727 
L 210.695556 -28.052727 
L 206.824444 -28.052727 
L 202.953333 -28.052727 
L 199.082222 -28.052727 
L 195.211111 -28.052727 
L 191.34 -28.052727 
L 187.468889 -28.052727 
L 183.597778 -28.052727 
L 179.726667 -28.052727 
L 175.855556 -28.052727 
L 171.984444 -28.052727 
L 168.113333 -28.052727 
L 164.242222 -28.052727 
L 160.371111 -28.052727 
L 156.5 -28.052727 
L 152.628889 -28.052727 
L 148.757778 -28.052727 
L 144.886667 -28.052727 
L 141.015556 -28.052727 
L 137.144444 -28.052727 
L 133.273333 -28.052727 
L 129.402222 -28.052727 
L 125.531111 -28.052727 
L 121.66 -28.052727 
L 117.788889 -28.052727 
L 113.917778 -28.052727 
L 110.046667 -28.052727 
L 106.175556 -28.052727 
L 102.304444 -28.052727 
L 98.433333 -28.052727 
L 94.562222 -28.052727 
L 90.691111 -28.052727 
L 86.82 -28.052727 
L 82.948889 -28.052727 
L 79.077778 -28.052727 
L 75.206667 -28.052727 
L 71.335556 -28.052727 
L 67.464444 -28.052727 
L 63.593333 -28.052727 
L 59.722222 -28.052727 
L 55.851111 -28.052727 
L 51.98 -28.052727 
z
" style="stroke: #3fb950; stroke-opacity: 0.15"/>
    </defs>
    <g clip-path="url(#pfc4349b532)">
     <use xlink:href="#m09ecce7ead" x="0" y="172.518281" style="fill: #3fb950; fill-opacity: 0.15; stroke: #3fb950; stroke-opacity: 0.15"/>
    </g>
   </g>
   <g id="matplotlib.axis_1">
    <g id="xtick_1">
     <g id="line2d_1">
      <path d="M 51.98 150.318281 
L 51.98 21.558281 
" clip-path="url(#pfc4349b532)" style="fill: none; stroke: #21262d; stroke-opacity: 0.5; stroke-width: 0.5; stroke-linecap: square"/>
     </g>
     <g id="line2d_2">
      <defs>
       <path id="me066b192f3" d="M 0 0 
L 0 3.5 
" style="stroke: #c9d1d9; stroke-width: 0.8"/>
      </defs>
      <g>
       <use xlink:href="#me066b192f3" x="51.98" y="150.318281" style="fill: #c9d1d9; stroke: #c9d1d9; stroke-width: 0.8"/>
      </g>
     </g>
     <g id="text_1">
      <!-- 0 -->
      <g style="fill: #c9d1d9" transform="translate(49.435 163.396406) scale(0.08 -0.08)">
       <defs>
        <path id="DejaVuSans-13" d="M 2034 4250 
Q 1547 4250 1301 3770 
Q 1056 3291 1056 2328 
Q 1056 1369 1301 889 
Q 1547 409 2034 409 
Q 2525 409 2770 889 
Q 3016 1369 3016 2328 
Q 3016 3291 2770 3770 
Q 2525 4250 2034 4250 
z
M 2034 4750 
Q 2819 4750 3233 4129 
Q 3647 3509 3647 2328 
Q 3647 1150 3233 529 
Q 2819 -91 2034 -91 
Q 1250 -91 836 529 
Q 422 1150 422 2328 
Q 422 3509 836 4129 
Q 1250 4750 2034 4750 
z
" transform="scale(0.015625)"/>
       </defs>
       <use xlink:href="#DejaVuSans-13"/>
      </g>
     </g>
    </g>
    <g id="xtick_2">
     <g id="line2d_3">
      <path d="M 129.402222 150.318281 
L 129.402222 21.558281 
" clip-path="url(#pfc4349b532)" style="fill: none; stroke: #21262d; stroke-opacity: 0.5; stroke-width: 0.5; stroke-linecap: square"/>
     </g>
     <g id="line2d_4">
      <g>
       <use xlink:href="#me066b192f3" x="129.402222" y="150.318281" style="fill: #c9d1d9; stroke: #c9d1d9; stroke-width: 0.8"/>
      </g>
     </g>
     <g id="text_2">
      <!-- 20 -->
      <g style="fill: #c9d1d9" transform="translate(124.312222 163.396406) scale(0.08 -0.08)">
       <defs>
        <path id="DejaVuSans-15" d="M 1228 531 
L 3431 531 
L 3431 0 
L 469 0 
L 469 531 
Q 828 903 1448 1529 
Q 2069 2156 2228 2338 
Q 2531 2678 2651 2914 
Q 2772 3150 2772 3378 
Q 2772 3750 2511 3984 
Q 2250 4219 1831 4219 
Q 1534 4219 1204 4116 
Q 875 4013 500 3803 
L 500 4441 
Q 881 4594 1212 4672 
Q 1544 4750 1819 4750 
Q 2544 4750 2975 4387 
Q 3406 4025 3406 3419 
Q 3406 3131 3298 2873 
Q 3191 2616 2906 2266 
Q 2828 2175 2409 1742 
Q 1991 1309 1228 531 
z
" transform="scale(0.015625)"/>
       </defs>
       <use xlink:href="#DejaVuSans-15"/>
       <use xlink:href="#DejaVuSans-13" transform="translate(63.625 0)"/>
      </g>
     </g>
    </g>
    <g id="xtick_3">
     <g id="line2d_5">
      <path d="M 206.824444 150.318281 
L 206.824444 21.558281 
" clip-path="url(#pfc4349b532)" style="fill: none; stroke: #21262d; stroke-opacity: 0.5; stroke-width: 0.5; stroke-linecap: square"/>
     </g>
     <g id="line2d_6">
      <g>
       <use xlink:href="#me066b192f3" x="206.824444" y="150.318281" style="fill: #c9d1d9; stroke: #c9d1d9; stroke-width: 0.8"/>
      </g>
     </g>
     <g id="text_3">
      <!-- 40 -->
      <g style="fill: #c9d1d9" transform="translate(201.734444 163.396406) scale(0.08 -0.08)">
       <defs>
        <path id="DejaVuSans-17" d="M 2419 4116 
L 825 1625 
L 2419 1625 
L 2419 4116 
z
M 2253 4666 
L 3047 4666 
L 3047 1625 
L 3713 1625 
L 3713 1100 
L 3047 1100 
L 3047 0 
L 2419 0 
L 2419 1100 
L 313 1100 
L 313 1709 
L 2253 4666 
z
" transform="scale(0.015625)"/>
       </defs>
       <use xlink:href="#DejaVuSans-17"/>
       <use xlink:href="#DejaVuSans-13" transform="translate(63.625 0)"/>
      </g>
     </g>
    </g>
    <g id="xtick_4">
     <g id="line2d_7">
      <path d="M 284.246667 150.318281 
L 284.246667 21.558281 
" clip-path="url(#pfc4349b532)" style="fill: none; stroke: #21262d; stroke-opacity: 0.5; stroke-width: 0.5; stroke-linecap: square"/>
     </g>
     <g id="line2d_8">
      <g>
       <use xlink:href="#me066b192f3" x="284.246667" y="150.318281" style="fill: #c9d1d9; stroke: #c9d1d9; stroke-width: 0.8"/>
      </g>
     </g>
     <g id="text_4">
      <!-- 60 -->
      <g style="fill: #c9d1d9" transform="translate(279.156667 163.396406) scale(0.08 -0.08)">
       <defs>
        <path id="DejaVuSans-19" d="M 2113 2584 
Q 1688 2584 1439 2293 
Q 1191 2003 1191 1497 
Q 1191 994 1439 701 
Q 1688 409 2113 409 
Q 2538 409 2786 701 
Q 3034 994 3034 1497 
Q 3034 2003 2786 2293 
Q 2538 2584 2113 2584 
z
M 3366 4563 
L 3366 3988 
Q 3128 4100 2886 4159 
Q 2644 4219 2406 4219 
Q 1781 4219 1451 3797 
Q 1122 3375 1075 2522 
Q 1259 2794 1537 2939 
Q 1816 3084 2150 3084 
Q 2853 3084 3261 2657 
Q 3669 2231 3669 1497 
Q 3669 778 3244 343 
Q 2819 -91 2113 -91 
Q 1303 -91 875 529 
Q 447 1150 447 2328 
Q 447 3434 972 4092 
Q 1497 4750 2381 4750 
Q 2619 4750 2861 4703 
Q 3103 4656 3366 4563 
z
" transform="scale(0.015625)"/>
       </defs>
       <use xlink:href="#DejaVuSans-19"/>
       <use xlink:href="#DejaVuSans-13" transform="translate(63.625 0)"/>
      </g>
     </g>
    </g>
    <g id="xtick_5">
     <g id="line2d_9">
      <path d="M 361.668889 150.318281 
L 361.668889 21.558281 
" clip-path="url(#pfc4349b532)" style="fill: none; stroke: #21262d; stroke-opacity: 0.5; stroke-width: 0.5; stroke-linecap: square"/>
     </g>
     <g id="line2d_10">
      <g>
       <use xlink:href="#me066b192f3" x="361.668889" y="150.318281" style="fill: #c9d1d9; stroke: #c9d1d9; stroke-width: 0.8"/>
      </g>
     </g>
     <g id="text_5">
      <!-- 80 -->
      <g style="fill: #c9d1d9" transform="translate(356.578889 163.396406) scale(0.08 -0.08)">
       <defs>
        <path id="DejaVuSans-1b" d="M 2034 2216 
Q 1584 2216 1326 1975 
Q 1069 1734 1069 1313 
Q 1069 891 1326 650 
Q 1584 409 2034 409 
Q 2484 409 2743 651 
Q 3003 894 3003 1313 
Q 3003 1734 2745 1975 
Q 2488 2216 2034 2216 
z
M 1403 2484 
Q 997 2584 770 2862 
Q 544 3141 544 3541 
Q 544 4100 942 4425 
Q 1341 4750 2034 4750 
Q 2731 4750 3128 4425 
Q 3525 4100 3525 3541 
Q 3525 3141 3298 2862 
Q 3072 2584 2669 2484 
Q 3125 2378 3379 2068 
Q 3634 1759 3634 1313 
Q 3634 634 3220 271 
Q 2806 -91 2034 -91 
Q 1263 -91 848 271 
Q 434 634 434 1313 
Q 434 1759 690 2068 
Q 947 2378 1403 2484 
z
M 1172 3481 
Q 1172 3119 1398 2916 
Q 1625 2713 2034 2713 
Q 2441 2713 2670 2916 
Q 2900 3119 2900 3481 
Q 2900 3844 2670 4047 
Q 2441 4250 2034 4250 
Q 1625 4250 1398 4047 
Q 1172 3844 1172 3481 
z
" transform="scale(0.015625)"/>
       </defs>
       <use xlink:href="#DejaVuSans-1b"/>
       <use xlink:href="#DejaVuSans-13" transform="translate(63.625 0)"/>
      </g>
     </g>
    </g>
   </g>
   <g id="matplotlib.axis_2">
    <g id="ytick_1">
     <g id="line2d_11">
      <path d="M 34.56 144.465554 
L 417.8 144.465554 
" clip-path="url(#pfc4349b532)" style="fill: none; stroke: #21262d; stroke-opacity: 0.5; stroke-width: 0.5; stroke-linecap: square"/>
     </g>
     <g id="line2d_12">
      <defs>
       <path id="mdd0cb63e6d" d="M 0 0 
L -3.5 0 
" style="stroke: #c9d1d9; stroke-width: 0.8"/>
      </defs>
      <g>
       <use xlink:href="#mdd0cb63e6d" x="34.56" y="144.465554" style="fill: #c9d1d9; stroke: #c9d1d9; stroke-width: 0.8"/>
      </g>
     </g>
     <g id="text_6">
      <!-- $0 -->
      <g style="fill: #c9d1d9" transform="translate(17.38 147.504929) scale(0.08 -0.08)">
       <defs>
        <path id="DejaVuSans-7" d="M 2163 -941 
L 1850 -941 
L 1847 0 
Q 1519 6 1191 76 
Q 863 147 531 288 
L 531 850 
Q 850 650 1176 548 
Q 1503 447 1850 444 
L 1850 1869 
Q 1159 1981 845 2250 
Q 531 2519 531 2988 
Q 531 3497 872 3790 
Q 1213 4084 1850 4128 
L 1850 4863 
L 2163 4863 
L 2163 4138 
Q 2453 4125 2725 4076 
Q 2997 4028 3256 3944 
L 3256 3397 
Q 2997 3528 2723 3600 
Q 2450 3672 2163 3684 
L 2163 2350 
Q 2872 2241 3206 1959 
Q 3541 1678 3541 1191 
Q 3541 663 3186 358 
Q 2831 53 2163 6 
L 2163 -941 
z
M 1850 2406 
L 1850 3688 
Q 1488 3647 1297 3481 
Q 1106 3316 1106 3041 
Q 1106 2772 1282 2622 
Q 1459 2472 1850 2406 
z
M 2163 1806 
L 2163 453 
Q 2559 506 2761 678 
Q 2963 850 2963 1131 
Q 2963 1406 2770 1568 
Q 2578 1731 2163 1806 
z
" transform="scale(0.015625)"/>
       </defs>
       <use xlink:href="#DejaVuSans-7"/>
       <use xlink:href="#DejaVuSans-13" transform="translate(63.625 0)"/>
      </g>
     </g>
    </g>
    <g id="ytick_2">
     <g id="line2d_13">
      <path d="M 34.56 112.815504 
L 417.8 112.815504 
" clip-path="url(#pfc4349b532)" style="fill: none; stroke: #21262d; stroke-opacity: 0.5; stroke-width: 0.5; stroke-linecap: square"/>
     </g>
     <g id="line2d_14">
      <g>
       <use xlink:href="#mdd0cb63e6d" x="34.56" y="112.815504" style="fill: #c9d1d9; stroke: #c9d1d9; stroke-width: 0.8"/>
      </g>
     </g>
     <g id="text_7">
      <!-- $100 -->
      <g style="fill: #c9d1d9" transform="translate(7.2 115.854879) scale(0.08 -0.08)">
       <defs>
        <path id="DejaVuSans-14" d="M 794 531 
L 1825 531 
L 1825 4091 
L 703 3866 
L 703 4441 
L 1819 4666 
L 2450 4666 
L 2450 531 
L 3481 531 
L 3481 0 
L 794 0 
L 794 531 
z
" transform="scale(0.015625)"/>
       </defs>
       <use xlink:href="#DejaVuSans-7"/>
       <use xlink:href="#DejaVuSans-14" transform="translate(63.625 0)"/>
       <use xlink:href="#DejaVuSans-13" transform="translate(127.25 0)"/>
       <use xlink:href="#DejaVuSans-13" transform="translate(190.875 0)"/>
      </g>
     </g>
    </g>
    <g id="ytick_3">
     <g id="line2d_15">
      <path d="M 34.56 81.165454 
L 417.8 81.165454 
" clip-path="url(#pfc4349b532)" style="fill: none; stroke: #21262d; stroke-opacity: 0.5; stroke-width: 0.5; stroke-linecap: square"/>
     </g>
     <g id="line2d_16">
      <g>
       <use xlink:href="#mdd0cb63e6d" x="34.56" y="81.165454" style="fill: #c9d1d9; stroke: #c9d1d9; stroke-width: 0.8"/>
      </g>
     </g>
     <g id="text_8">
      <!-- $200 -->
      <g style="fill: #c9d1d9" transform="translate(7.2 84.204829) scale(0.08 -0.08)">
       <use xlink:href="#DejaVuSans-7"/>
       <use xlink:href="#DejaVuSans-15" transform="translate(63.625 0)"/>
       <use xlink:href="#DejaVuSans-13" transform="translate(127.25 0)"/>
       <use xlink:href="#DejaVuSans-13" transform="translate(190.875 0)"/>
      </g>
     </g>
    </g>
    <g id="ytick_4">
     <g id="line2d_17">
      <path d="M 34.56 49.515404 
L 417.8 49.515404 
" clip-path="url(#pfc4349b532)" style="fill: none; stroke: #21262d; stroke-opacity: 0.5; stroke-width: 0.5; stroke-linecap: square"/>
     </g>
     <g id="line2d_18">
      <g>
       <use xlink:href="#mdd0cb63e6d" x="34.56" y="49.515404" style="fill: #c9d1d9; stroke: #c9d1d9; stroke-width: 0.8"/>
      </g>
     </g>
     <g id="text_9">
      <!-- $300 -->
      <g style="fill: #c9d1d9" transform="translate(7.2 52.554779) scale(0.08 -0.08)">
       <defs>
        <path id="DejaVuSans-16" d="M 2597 2516 
Q 3050 2419 3304 2112 
Q 3559 1806 3559 1356 
Q 3559 666 3084 287 
Q 2609 -91 1734 -91 
Q 1441 -91 1130 -33 
Q 819 25 488 141 
L 488 750 
Q 750 597 1062 519 
Q 1375 441 1716 441 
Q 2309 441 2620 675 
Q 2931 909 2931 1356 
Q 2931 1769 2642 2001 
Q 2353 2234 1838 2234 
L 1294 2234 
L 1294 2753 
L 1863 2753 
Q 2328 2753 2575 2939 
Q 2822 3125 2822 3475 
Q 2822 3834 2567 4026 
Q 2313 4219 1838 4219 
Q 1578 4219 1281 4162 
Q 984 4106 628 3988 
L 628 4550 
Q 988 4650 1302 4700 
Q 1616 4750 1894 4750 
Q 2613 4750 3031 4423 
Q 3450 4097 3450 3541 
Q 3450 3153 3228 2886 
Q 3006 2619 2597 2516 
z
" transform="scale(0.015625)"/>
       </defs>
       <use xlink:href="#DejaVuSans-7"/>
       <use xlink:href="#DejaVuSans-16" transform="translate(63.625 0)"/>
       <use xlink:href="#DejaVuSans-13" transform="translate(127.25 0)"/>
       <use xlink:href="#DejaVuSans-13" transform="translate(190.875 0)"/>
      </g>
     </g>
    </g>
   </g>
   <g id="line2d_19">
    <path d="M 51.98 72.873141 
L 55.851111 83.548702 
L 59.722222 29.943013 
L 63.593333 62.191249 
L 67.464444 57.788727 
L 71.335556 60.849287 
L 75.206667 59.162339 
L 79.077778 58.260312 
L 82.948889 53.595095 
L 86.82 58.051422 
L 90.691111 53.993886 
L 94.562222 57.174716 
L 98.433333 75.69949 
L 102.304444 72.018589 
L 106.175556 67.353372 
L 110.046667 67.081181 
L 113.917778 63.17873 
L 117.788889 63.21038 
L 121.66 52.208823 
L 125.531111 32.218651 
L 129.402222 30.386113 
L 133.273333 33.680883 
L 137.144444 27.411009 
L 141.015556 81.244579 
L 144.886667 37.434579 
L 148.757778 35.472276 
L 152.628889 38.542331 
L 156.5 43.375294 
L 160.371111 30.715274 
L 164.242222 38.228996 
L 168.113333 48.407652 
L 171.984444 40.85595 
L 175.855556 35.630527 
L 179.726667 41.24208 
L 183.597778 41.678851 
L 187.468889 41.970032 
L 191.34 31.842016 
L 195.211111 35.814097 
L 199.082222 36.845888 
L 202.953333 76.519226 
L 206.824444 69.929686 
L 210.695556 73.977727 
L 214.566667 67.207782 
L 218.437778 70.812722 
L 222.308889 67.935733 
L 226.18 70.755752 
L 230.051111 62.694484 
L 233.922222 54.933892 
L 237.793333 57.029125 
L 241.664444 59.741535 
L 245.535556 57.459566 
L 249.406667 57.288656 
L 253.277778 56.95 
L 257.148889 59.314259 
L 261.02 58.896478 
L 264.891111 61.425317 
L 268.762222 60.497971 
L 272.633333 60.390361 
L 276.504444 63.450921 
L 280.375556 64.251667 
L 284.246667 60.570766 
L 288.117778 67.078016 
L 291.988889 64.001631 
L 295.86 67.986373 
L 299.731111 65.169518 
L 303.602222 65.666424 
L 307.473333 64.767563 
L 311.344444 41.792791 
L 315.215556 46.742859 
L 319.086667 42.131447 
L 322.957778 45.869318 
L 326.828889 73.645402 
L 330.7 60.387196 
L 334.571111 58.415398 
L 338.442222 55.050997 
L 342.313333 61.646868 
L 346.184444 52.949434 
L 350.055556 56.737945 
L 353.926667 59.73837 
L 357.797778 60.510631 
L 361.668889 60.586591 
L 365.54 60.203625 
L 369.411111 61.077167 
L 373.282222 64.928978 
L 377.153333 69.5214 
L 381.024444 69.638505 
L 384.895556 59.60544 
L 388.766667 53.921091 
L 392.637778 63.01415 
L 396.508889 55.066822 
L 400.38 65.9038 
" clip-path="url(#pfc4349b532)" style="fill: none; stroke: #3fb950; stroke-width: 2; stroke-linecap: square"/>
   </g>
   <g id="patch_3">
    <path d="M 34.56 150.318281 
L 34.56 21.558281 
" style="fill: none; stroke: #21262d; stroke-width: 0.8; stroke-linejoin: miter; stroke-linecap: square"/>
   </g>
   <g id="patch_4">
    <path d="M 34.56 150.318281 
L 417.8 150.318281 
" style="fill: none; stroke: #21262d; stroke-width: 0.8; stroke-linejoin: miter; stroke-linecap: square"/>
   </g>
   <g id="text_10">
    <!-- NEMOCLAW (NVIDIA/NemoClaw) — $248.22 (-12.12%) -->
    <g style="fill: #c9d1d9" transform="translate(60.25875 15.558281) scale(0.11 -0.11)">
     <defs>
      <path id="DejaVuSans-Bold-31" d="M 588 4666 
L 1931 4666 
L 3628 1466 
L 3628 4666 
L 4769 4666 
L 4769 0 
L 3425 0 
L 1728 3200 
L 1728 0 
L 588 0 
L 588 4666 
z
" transform="scale(0.015625)"/>
      <path id="DejaVuSans-Bold-28" d="M 588 4666 
L 3834 4666 
L 3834 3756 
L 1791 3756 
L 1791 2888 
L 3713 2888 
L 3713 1978 
L 1791 1978 
L 1791 909 
L 3903 909 
L 3903 0 
L 588 0 
L 588 4666 
z
" transform="scale(0.015625)"/>
      <path id="DejaVuSans-Bold-30" d="M 588 4666 
L 2119 4666 
L 3181 2169 
L 4250 4666 
L 5778 4666 
L 5778 0 
L 4641 0 
L 4641 3413 
L 3566 897 
L 2803 897 
L 1728 3413 
L 1728 0 
L 588 0 
L 588 4666 
z
" transform="scale(0.015625)"/>
      <path id="DejaVuSans-Bold-32" d="M 2719 3878 
Q 2169 3878 1866 3472 
Q 1563 3066 1563 2328 
Q 1563 1594 1866 1187 
Q 2169 781 2719 781 
Q 3272 781 3575 1187 
Q 3878 1594 3878 2328 
Q 3878 3066 3575 3472 
Q 3272 3878 2719 3878 
z
M 2719 4750 
Q 3844 4750 4481 4106 
Q 5119 3463 5119 2328 
Q 5119 1197 4481 553 
Q 3844 -91 2719 -91 
Q 1597 -91 958 553 
Q 319 1197 319 2328 
Q 319 3463 958 4106 
Q 1597 4750 2719 4750 
z
" transform="scale(0.015625)"/>
      <path id="DejaVuSans-Bold-26" d="M 4288 256 
Q 3956 84 3597 -3 
Q 3238 -91 2847 -91 
Q 1681 -91 1000 561 
Q 319 1213 319 2328 
Q 319 3447 1000 4098 
Q 1681 4750 2847 4750 
Q 3238 4750 3597 4662 
Q 3956 4575 4288 4403 
L 4288 3438 
Q 3953 3666 3628 3772 
Q 3303 3878 2944 3878 
Q 2300 3878 1931 3465 
Q 1563 3053 1563 2328 
Q 1563 1606 1931 1193 
Q 2300 781 2944 781 
Q 3303 781 3628 887 
Q 3953 994 4288 1222 
L 4288 256 
z
" transform="scale(0.015625)"/>
      <path id="DejaVuSans-Bold-2f" d="M 588 4666 
L 1791 4666 
L 1791 909 
L 3903 909 
L 3903 0 
L 588 0 
L 588 4666 
z
" transform="scale(0.015625)"/>
      <path id="DejaVuSans-Bold-24" d="M 3419 850 
L 1538 850 
L 1241 0 
L 31 0 
L 1759 4666 
L 3194 4666 
L 4922 0 
L 3713 0 
L 3419 850 
z
M 1838 1716 
L 3116 1716 
L 2478 3572 
L 1838 1716 
z
" transform="scale(0.015625)"/>
      <path id="DejaVuSans-Bold-3a" d="M 191 4666 
L 1344 4666 
L 2150 1275 
L 2950 4666 
L 4109 4666 
L 4909 1275 
L 5716 4666 
L 6859 4666 
L 5759 0 
L 4372 0 
L 3525 3547 
L 2688 0 
L 1300 0 
L 191 4666 
z
" transform="scale(0.015625)"/>
      <path id="DejaVuSans-Bold-3" transform="scale(0.015625)"/>
      <path id="DejaVuSans-Bold-b" d="M 2413 -844 
L 1484 -844 
Q 1006 -72 778 623 
Q 550 1319 550 2003 
Q 550 2688 779 3389 
Q 1009 4091 1484 4856 
L 2413 4856 
Q 2013 4116 1813 3408 
Q 1613 2700 1613 2009 
Q 1613 1319 1811 609 
Q 2009 -100 2413 -844 
z
" transform="scale(0.015625)"/>
      <path id="DejaVuSans-Bold-39" d="M 31 4666 
L 1241 4666 
L 2478 1222 
L 3713 4666 
L 4922 4666 
L 3194 0 
L 1759 0 
L 31 4666 
z
" transform="scale(0.015625)"/>
      <path id="DejaVuSans-Bold-2c" d="M 588 4666 
L 1791 4666 
L 1791 0 
L 588 0 
L 588 4666 
z
" transform="scale(0.015625)"/>
      <path id="DejaVuSans-Bold-27" d="M 1791 3756 
L 1791 909 
L 2222 909 
Q 2959 909 3348 1275 
Q 3738 1641 3738 2338 
Q 3738 3031 3350 3393 
Q 2963 3756 2222 3756 
L 1791 3756 
z
M 588 4666 
L 1856 4666 
Q 2919 4666 3439 4514 
Q 3959 4363 4331 4000 
Q 4659 3684 4818 3271 
Q 4978 2859 4978 2338 
Q 4978 1809 4818 1395 
Q 4659 981 4331 666 
Q 3956 303 3431 151 
Q 2906 0 1856 0 
L 588 0 
L 588 4666 
z
" transform="scale(0.015625)"/>
      <path id="DejaVuSans-Bold-12" d="M 1644 4666 
L 2338 4666 
L 691 -594 
L 0 -594 
L 1644 4666 
z
" transform="scale(0.015625)"/>
      <path id="DejaVuSans-Bold-48" d="M 4031 1759 
L 4031 1441 
L 1416 1441 
Q 1456 1047 1700 850 
Q 1944 653 2381 653 
Q 2734 653 3104 758 
Q 3475 863 3866 1075 
L 3866 213 
Q 3469 63 3072 -14 
Q 2675 -91 2278 -91 
Q 1328 -91 801 392 
Q 275 875 275 1747 
Q 275 2603 792 3093 
Q 1309 3584 2216 3584 
Q 3041 3584 3536 3087 
Q 4031 2591 4031 1759 
z
M 2881 2131 
Q 2881 2450 2695 2645 
Q 2509 2841 2209 2841 
Q 1884 2841 1681 2658 
Q 1478 2475 1428 2131 
L 2881 2131 
z
" transform="scale(0.015625)"/>
      <path id="DejaVuSans-Bold-50" d="M 3781 2919 
Q 3994 3244 4286 3414 
Q 4578 3584 4928 3584 
Q 5531 3584 5847 3212 
Q 6163 2841 6163 2131 
L 6163 0 
L 5038 0 
L 5038 1825 
Q 5041 1866 5042 1909 
Q 5044 1953 5044 2034 
Q 5044 2406 4934 2573 
Q 4825 2741 4581 2741 
Q 4263 2741 4089 2478 
Q 3916 2216 3909 1719 
L 3909 0 
L 2784 0 
L 2784 1825 
Q 2784 2406 2684 2573 
Q 2584 2741 2328 2741 
Q 2006 2741 1831 2477 
Q 1656 2213 1656 1722 
L 1656 0 
L 531 0 
L 531 3500 
L 1656 3500 
L 1656 2988 
Q 1863 3284 2130 3434 
Q 2397 3584 2719 3584 
Q 3081 3584 3359 3409 
Q 3638 3234 3781 2919 
z
" transform="scale(0.015625)"/>
      <path id="DejaVuSans-Bold-52" d="M 2203 2784 
Q 1831 2784 1636 2517 
Q 1441 2250 1441 1747 
Q 1441 1244 1636 976 
Q 1831 709 2203 709 
Q 2569 709 2762 976 
Q 2956 1244 2956 1747 
Q 2956 2250 2762 2517 
Q 2569 2784 2203 2784 
z
M 2203 3584 
Q 3106 3584 3614 3096 
Q 4122 2609 4122 1747 
Q 4122 884 3614 396 
Q 3106 -91 2203 -91 
Q 1297 -91 786 396 
Q 275 884 275 1747 
Q 275 2609 786 3096 
Q 1297 3584 2203 3584 
z
" transform="scale(0.015625)"/>
      <path id="DejaVuSans-Bold-4f" d="M 538 4863 
L 1656 4863 
L 1656 0 
L 538 0 
L 538 4863 
z
" transform="scale(0.015625)"/>
      <path id="DejaVuSans-Bold-44" d="M 2106 1575 
Q 1756 1575 1579 1456 
Q 1403 1338 1403 1106 
Q 1403 894 1545 773 
Q 1688 653 1941 653 
Q 2256 653 2472 879 
Q 2688 1106 2688 1447 
L 2688 1575 
L 2106 1575 
z
M 3816 1997 
L 3816 0 
L 2688 0 
L 2688 519 
Q 2463 200 2181 54 
Q 1900 -91 1497 -91 
Q 953 -91 614 226 
Q 275 544 275 1050 
Q 275 1666 698 1953 
Q 1122 2241 2028 2241 
L 2688 2241 
L 2688 2328 
Q 2688 2594 2478 2717 
Q 2269 2841 1825 2841 
Q 1466 2841 1156 2769 
Q 847 2697 581 2553 
L 581 3406 
Q 941 3494 1303 3539 
Q 1666 3584 2028 3584 
Q 2975 3584 3395 3211 
Q 3816 2838 3816 1997 
z
" transform="scale(0.015625)"/>
      <path id="DejaVuSans-Bold-5a" d="M 225 3500 
L 1313 3500 
L 1900 1088 
L 2491 3500 
L 3425 3500 
L 4013 1113 
L 4603 3500 
L 5691 3500 
L 4769 0 
L 3547 0 
L 2956 2406 
L 2369 0 
L 1147 0 
L 225 3500 
z
" transform="scale(0.015625)"/>
      <path id="DejaVuSans-Bold-c" d="M 513 -844 
Q 913 -100 1113 609 
Q 1313 1319 1313 2009 
Q 1313 2700 1113 3408 
Q 913 4116 513 4856 
L 1441 4856 
Q 1916 4091 2145 3389 
Q 2375 2688 2375 2003 
Q 2375 1319 2147 623 
Q 1919 -72 1441 -844 
L 513 -844 
z
" transform="scale(0.015625)"/>
      <path id="DejaVuSans-Bold-af6" d="M 344 2156 
L 6056 2156 
L 6056 1350 
L 344 1350 
L 344 2156 
z
" transform="scale(0.015625)"/>
      <path id="DejaVuSans-Bold-7" d="M 2484 -941 
L 1978 -941 
L 1975 0 
Q 1584 16 1218 87 
Q 853 159 506 288 
L 506 1106 
Q 866 922 1233 823 
Q 1600 725 1978 713 
L 1978 1684 
L 1875 1703 
Q 1128 1834 814 2115 
Q 500 2397 500 2925 
Q 500 3484 883 3798 
Q 1266 4113 1975 4141 
L 1978 4863 
L 2484 4863 
L 2484 4153 
Q 2797 4128 3109 4075 
Q 3422 4022 3738 3938 
L 3738 3144 
Q 3425 3275 3112 3348 
Q 2800 3422 2484 3438 
L 2484 2541 
L 2584 2522 
Q 3378 2397 3698 2105 
Q 4019 1813 4019 1241 
Q 4019 666 3637 358 
Q 3256 50 2484 6 
L 2484 -941 
z
M 1978 2613 
L 1978 3428 
Q 1756 3416 1623 3308 
Q 1491 3200 1491 3034 
Q 1491 2850 1612 2745 
Q 1734 2641 1978 2613 
z
M 2484 1594 
L 2484 725 
Q 2756 728 2892 831 
Q 3028 934 3028 1141 
Q 3028 1353 2903 1458 
Q 2778 1563 2484 1594 
z
" transform="scale(0.015625)"/>
      <path id="DejaVuSans-Bold-15" d="M 1844 884 
L 3897 884 
L 3897 0 
L 506 0 
L 506 884 
L 2209 2388 
Q 2438 2594 2547 2791 
Q 2656 2988 2656 3200 
Q 2656 3528 2436 3728 
Q 2216 3928 1850 3928 
Q 1569 3928 1234 3808 
Q 900 3688 519 3450 
L 519 4475 
Q 925 4609 1322 4679 
Q 1719 4750 2100 4750 
Q 2938 4750 3402 4381 
Q 3866 4013 3866 3353 
Q 3866 2972 3669 2642 
Q 3472 2313 2841 1759 
L 1844 884 
z
" transform="scale(0.015625)"/>
      <path id="DejaVuSans-Bold-17" d="M 2356 3675 
L 1038 1722 
L 2356 1722 
L 2356 3675 
z
M 2156 4666 
L 3494 4666 
L 3494 1722 
L 4159 1722 
L 4159 850 
L 3494 850 
L 3494 0 
L 2356 0 
L 2356 850 
L 288 850 
L 288 1881 
L 2156 4666 
z
" transform="scale(0.015625)"/>
      <path id="DejaVuSans-Bold-1b" d="M 2228 2088 
Q 1891 2088 1709 1903 
Q 1528 1719 1528 1375 
Q 1528 1031 1709 848 
Q 1891 666 2228 666 
Q 2563 666 2741 848 
Q 2919 1031 2919 1375 
Q 2919 1722 2741 1905 
Q 2563 2088 2228 2088 
z
M 1350 2484 
Q 925 2613 709 2878 
Q 494 3144 494 3541 
Q 494 4131 934 4440 
Q 1375 4750 2228 4750 
Q 3075 4750 3515 4442 
Q 3956 4134 3956 3541 
Q 3956 3144 3739 2878 
Q 3522 2613 3097 2484 
Q 3572 2353 3814 2058 
Q 4056 1763 4056 1313 
Q 4056 619 3595 264 
Q 3134 -91 2228 -91 
Q 1319 -91 855 264 
Q 391 619 391 1313 
Q 391 1763 633 2058 
Q 875 2353 1350 2484 
z
M 1631 3419 
Q 1631 3141 1786 2991 
Q 1941 2841 2228 2841 
Q 2509 2841 2662 2991 
Q 2816 3141 2816 3419 
Q 2816 3697 2662 3845 
Q 2509 3994 2228 3994 
Q 1941 3994 1786 3844 
Q 1631 3694 1631 3419 
z
" transform="scale(0.015625)"/>
      <path id="DejaVuSans-Bold-11" d="M 653 1209 
L 1778 1209 
L 1778 0 
L 653 0 
L 653 1209 
z
" transform="scale(0.015625)"/>
      <path id="DejaVuSans-Bold-10" d="M 347 2297 
L 2309 2297 
L 2309 1388 
L 347 1388 
L 347 2297 
z
" transform="scale(0.015625)"/>
      <path id="DejaVuSans-Bold-14" d="M 750 831 
L 1813 831 
L 1813 3847 
L 722 3622 
L 722 4441 
L 1806 4666 
L 2950 4666 
L 2950 831 
L 4013 831 
L 4013 0 
L 750 0 
L 750 831 
z
" transform="scale(0.015625)"/>
      <path id="DejaVuSans-Bold-8" d="M 4959 1925 
Q 4738 1925 4616 1733 
Q 4494 1541 4494 1184 
Q 4494 825 4614 633 
Q 4734 441 4959 441 
Q 5184 441 5303 633 
Q 5422 825 5422 1184 
Q 5422 1541 5301 1733 
Q 5181 1925 4959 1925 
z
M 4959 2450 
Q 5541 2450 5875 2112 
Q 6209 1775 6209 1184 
Q 6209 594 5875 251 
Q 5541 -91 4959 -91 
Q 4378 -91 4042 251 
Q 3706 594 3706 1184 
Q 3706 1772 4042 2111 
Q 4378 2450 4959 2450 
z
M 2094 -91 
L 1403 -91 
L 4319 4750 
L 5013 4750 
L 2094 -91 
z
M 1453 4750 
Q 2034 4750 2367 4411 
Q 2700 4072 2700 3481 
Q 2700 2891 2367 2550 
Q 2034 2209 1453 2209 
Q 872 2209 539 2550 
Q 206 2891 206 3481 
Q 206 4072 539 4411 
Q 872 4750 1453 4750 
z
M 1453 4225 
Q 1228 4225 1106 4031 
Q 984 3838 984 3481 
Q 984 3122 1106 2926 
Q 1228 2731 1453 2731 
Q 1678 2731 1798 2926 
Q 1919 3122 1919 3481 
Q 1919 3838 1797 4031 
Q 1675 4225 1453 4225 
z
" transform="scale(0.015625)"/>
     </defs>
     <use xlink:href="#DejaVuSans-Bold-31"/>
     <use xlink:href="#DejaVuSans-Bold-28" transform="translate(83.6875 0)"/>
     <use xlink:href="#DejaVuSans-Bold-30" transform="translate(152 0)"/>
     <use xlink:href="#DejaVuSans-Bold-32" transform="translate(251.515625 0)"/>
     <use xlink:href="#DejaVuSans-Bold-26" transform="translate(336.53125 0)"/>
     <use xlink:href="#DejaVuSans-Bold-2f" transform="translate(409.921875 0)"/>
     <use xlink:href="#DejaVuSans-Bold-24" transform="translate(473.640625 0)"/>
     <use xlink:href="#DejaVuSans-Bold-3a" transform="translate(546.546875 0)"/>
     <use xlink:href="#DejaVuSans-Bold-3" transform="translate(656.84375 0)"/>
     <use xlink:href="#DejaVuSans-Bold-b" transform="translate(691.65625 0)"/>
     <use xlink:href="#DejaVuSans-Bold-31" transform="translate(737.359375 0)"/>
     <use xlink:href="#DejaVuSans-Bold-39" transform="translate(821.046875 0)"/>
     <use xlink:href="#DejaVuSans-Bold-2c" transform="translate(898.4375 0)"/>
     <use xlink:href="#DejaVuSans-Bold-27" transform="translate(935.640625 0)"/>
     <use xlink:href="#DejaVuSans-Bold-2c" transform="translate(1018.65625 0)"/>
     <use xlink:href="#DejaVuSans-Bold-24" transform="translate(1055.859375 0)"/>
     <use xlink:href="#DejaVuSans-Bold-12" transform="translate(1133.25 0)"/>
     <use xlink:href="#DejaVuSans-Bold-31" transform="translate(1169.78125 0)"/>
     <use xlink:href="#DejaVuSans-Bold-48" transform="translate(1253.46875 0)"/>
     <use xlink:href="#DejaVuSans-Bold-50" transform="translate(1321.296875 0)"/>
     <use xlink:href="#DejaVuSans-Bold-52" transform="translate(1425.5 0)"/>
     <use xlink:href="#DejaVuSans-Bold-26" transform="translate(1494.203125 0)"/>
     <use xlink:href="#DejaVuSans-Bold-4f" transform="translate(1567.59375 0)"/>
     <use xlink:href="#DejaVuSans-Bold-44" transform="translate(1601.875 0)"/>
     <use xlink:href="#DejaVuSans-Bold-5a" transform="translate(1669.359375 0)"/>
     <use xlink:href="#DejaVuSans-Bold-c" transform="translate(1761.75 0)"/>
     <use xlink:href="#DejaVuSans-Bold-3" transform="translate(1807.453125 0)"/>
     <use xlink:href="#DejaVuSans-Bold-af6" transform="translate(1842.265625 0)"/>
     <use xlink:href="#DejaVuSans-Bold-3" transform="translate(1942.265625 0)"/>
     <use xlink:href="#DejaVuSans-Bold-7" transform="translate(1977.078125 0)"/>
     <use xlink:href="#DejaVuSans-Bold-15" transform="translate(2046.65625 0)"/>
     <use xlink:href="#DejaVuSans-Bold-17" transform="translate(2116.234375 0)"/>
     <use xlink:href="#DejaVuSans-Bold-1b" transform="translate(2185.8125 0)"/>
     <use xlink:href="#DejaVuSans-Bold-11" transform="translate(2255.390625 0)"/>
     <use xlink:href="#DejaVuSans-Bold-15" transform="translate(2293.375 0)"/>
     <use xlink:href="#DejaVuSans-Bold-15" transform="translate(2362.953125 0)"/>
     <use xlink:href="#DejaVuSans-Bold-3" transform="translate(2432.53125 0)"/>
     <use xlink:href="#DejaVuSans-Bold-b" transform="translate(2467.34375 0)"/>
     <use xlink:href="#DejaVuSans-Bold-10" transform="translate(2513.046875 0)"/>
     <use xlink:href="#DejaVuSans-Bold-14" transform="translate(2554.546875 0)"/>
     <use xlink:href="#DejaVuSans-Bold-15" transform="translate(2624.125 0)"/>
     <use xlink:href="#DejaVuSans-Bold-11" transform="translate(2693.703125 0)"/>
     <use xlink:href="#DejaVuSans-Bold-14" transform="translate(2731.6875 0)"/>
     <use xlink:href="#DejaVuSans-Bold-15" transform="translate(2801.265625 0)"/>
     <use xlink:href="#DejaVuSans-Bold-8" transform="translate(2870.84375 0)"/>
     <use xlink:href="#DejaVuSans-Bold-c" transform="translate(2971.046875 0)"/>
    </g>
   </g>
  </g>
 </g>
 <defs>
  <clipPath id="pfc4349b532">
   <rect x="34.56" y="21.558281" width="383.24" height="128.76"/>
  </clipPath>
 </defs>
</svg>
