<?xml version="1.0" encoding="utf-8" standalone="no"?>
<!DOCTYPE svg PUBLIC "-//W3C//DTD SVG 1.1//EN"
  "http://www.w3.org/Graphics/SVG/1.1/DTD/svg11.dtd">
<svg xmlns:xlink="http://www.w3.org/1999/xlink" width="425pt" height="172.518281pt" viewBox="0 0 425 172.518281" xmlns="http://www.w3.org/2000/svg" version="1.1">
 <metadata>
  <rdf:RDF xmlns:dc="http://purl.org/dc/elements/1.1/" xmlns:cc="http://creativecommons.org/ns#" xmlns:rdf="http://www.w3.org/1999/02/22-rdf-syntax-ns#">
   <cc:Work>
    <dc:type rdf:resource="http://purl.org/dc/dcmitype/StillImage"/>
    <dc:date>2026-07-01T12:59:42.949443</dc:date>
    <dc:format>image/svg+xml</dc:format>
    <dc:creator>
     <cc:Agent>
      <dc:title>Matplotlib v3.11.0, https://matplotlib.org/</dc:title>
     </cc:Agent>
    </dc:creator>
   </cc:Work>
  </rdf:RDF>
 </metadata>
 <defs>
  <style type="text/css">*{stroke-linejoin: round; stroke-linecap: butt}</style>
 </defs>
 <g id="figure_1">
  <g id="patch_1">
   <path d="M 0 172.518281 
L 425 172.518281 
L 425 0 
L 0 0 
z
" style="fill: #0d1117"/>
  </g>
  <g id="axes_1">
   <g id="patch_2">
    <path d="M 34.56 150.318281 
L 417.8 150.318281 
L 417.8 21.558281 
L 34.56 21.558281 
z
" style="fill: #0d1117"/>
   </g>
   <g id="FillBetweenPolyCollection_1">
    <defs>
     <path id="ma300eef37c" d="M 51.98 -28.052727 
L 51.98 -141.670077 
L 55.236075 -133.572186 
L 58.49215 -138.550287 
L 61.748224 -134.592222 
L 65.004299 -119.454455 
L 68.260374 -124.039191 
L 71.516449 -139.100997 
L 74.772523 -132.145221 
L 78.028598 -130.810493 
L 81.284673 -133.534206 
L 84.540748 -138.376663 
L 87.796822 -116.912504 
L 91.052897 -144.068247 
L 94.308972 -134.158164 
L 97.565047 -140.650041 
L 100.821121 -136.640432 
L 104.077196 -136.781501 
L 107.333271 -138.455336 
L 110.589346 -138.496029 
L 113.845421 -135.48204 
L 117.101495 -141.31198 
L 120.35757 -136.982253 
L 123.613645 -136.694689 
L 126.86972 -136.493938 
L 130.125794 -139.421115 
L 133.381869 -134.912339 
L 136.637944 -139.323452 
L 139.894019 -138.414644 
L 143.150093 -137.041936 
L 146.406168 -137.546528 
L 149.662243 -96.652855 
L 152.918318 -97.824811 
L 156.174393 -99.813338 
L 159.430467 -100.920186 
L 162.686542 -125.875798 
L 165.942617 -119.557544 
L 169.198692 -94.509694 
L 172.454766 -100.049357 
L 175.710841 -94.794544 
L 178.966916 -98.25073 
L 182.222991 -96.305608 
L 185.479065 -96.815626 
L 188.73514 -99.365716 
L 191.991215 -97.778692 
L 195.24729 -100.206703 
L 198.503364 -99.349439 
L 201.759439 -99.561042 
L 205.015514 -100.513256 
L 208.271589 -99.82419 
L 211.527664 -97.434159 
L 214.783738 -98.996767 
L 218.039813 -98.874688 
L 221.295888 -96.419548 
L 224.551963 -99.935417 
L 227.808037 -97.613207 
L 231.064112 -99.015757 
L 234.320187 -128.208859 
L 237.576262 -123.700083 
L 240.832336 -93.543915 
L 244.088411 -107.653508 
L 247.344486 -124.861188 
L 250.600561 -101.880539 
L 253.856636 -94.512407 
L 257.11271 -99.829615 
L 260.368785 -95.117375 
L 263.62486 -98.646808 
L 266.880935 -97.496554 
L 270.137009 -102.471942 
L 273.393084 -114.156237 
L 276.649159 -95.196048 
L 279.905234 -101.544144 
L 283.161308 -120.002453 
L 286.417383 -140.546953 
L 289.673458 -127.685277 
L 292.929533 -131.271679 
L 296.185607 -138.227456 
L 299.441682 -136.900867 
L 302.697757 -139.426541 
L 305.953832 -134.958458 
L 309.209907 -132.60912 
L 312.465981 -118.125153 
L 315.722056 -95.697927 
L 318.978131 -99.061875 
L 322.234206 -98.646808 
L 325.49028 -98.318551 
L 328.746355 -97.925187 
L 332.00243 -96.224222 
L 335.258505 -99.902863 
L 338.514579 -97.439584 
L 341.770654 -100.087337 
L 345.026729 -97.531822 
L 348.282804 -111.888284 
L 351.538879 -130.322178 
L 354.794953 -145.107273 
L 358.051028 -125.276256 
L 361.307103 -138.354961 
L 364.563178 -129.133945 
L 367.819252 -139.385848 
L 371.075327 -136.076157 
L 374.331402 -129.996635 
L 377.587477 -112.780816 
L 380.843551 -122.940482 
L 384.099626 -114.834452 
L 387.355701 -134.120184 
L 390.611776 -134.768558 
L 393.86785 -131.640629 
L 397.123925 -124.516654 
L 400.38 -112.430857 
L 400.38 -28.052727 
L 400.38 -28.052727 
L 397.123925 -28.052727 
L 393.86785 -28.052727 
L 390.611776 -28.052727 
L 387.355701 -28.052727 
L 384.099626 -28.052727 
L 380.843551 -28.052727 
L 377.587477 -28.052727 
L 374.331402 -28.052727 
L 371.075327 -28.052727 
L 367.819252 -28.052727 
L 364.563178 -28.052727 
L 361.307103 -28.052727 
L 358.051028 -28.052727 
L 354.794953 -28.052727 
L 351.538879 -28.052727 
L 348.282804 -28.052727 
L 345.026729 -28.052727 
L 341.770654 -28.052727 
L 338.514579 -28.052727 
L 335.258505 -28.052727 
L 332.00243 -28.052727 
L 328.746355 -28.052727 
L 325.49028 -28.052727 
L 322.234206 -28.052727 
L 318.978131 -28.052727 
L 315.722056 -28.052727 
L 312.465981 -28.052727 
L 309.209907 -28.052727 
L 305.953832 -28.052727 
L 302.697757 -28.052727 
L 299.441682 -28.052727 
L 296.185607 -28.052727 
L 292.929533 -28.052727 
L 289.673458 -28.052727 
L 286.417383 -28.052727 
L 283.161308 -28.052727 
L 279.905234 -28.052727 
L 276.649159 -28.052727 
L 273.393084 -28.052727 
L 270.137009 -28.052727 
L 266.880935 -28.052727 
L 263.62486 -28.052727 
L 260.368785 -28.052727 
L 257.11271 -28.052727 
L 253.856636 -28.052727 
L 250.600561 -28.052727 
L 247.344486 -28.052727 
L 244.088411 -28.052727 
L 240.832336 -28.052727 
L 237.576262 -28.052727 
L 234.320187 -28.052727 
L 231.064112 -28.052727 
L 227.808037 -28.052727 
L 224.551963 -28.052727 
L 221.295888 -28.052727 
L 218.039813 -28.052727 
L 214.783738 -28.052727 
L 211.527664 -28.052727 
L 208.271589 -28.052727 
L 205.015514 -28.052727 
L 201.759439 -28.052727 
L 198.503364 -28.052727 
L 195.24729 -28.052727 
L 191.991215 -28.052727 
L 188.73514 -28.052727 
L 185.479065 -28.052727 
L 182.222991 -28.052727 
L 178.966916 -28.052727 
L 175.710841 -28.052727 
L 172.454766 -28.052727 
L 169.198692 -28.052727 
L 165.942617 -28.052727 
L 162.686542 -28.052727 
L 159.430467 -28.052727 
L 156.174393 -28.052727 
L 152.918318 -28.052727 
L 149.662243 -28.052727 
L 146.406168 -28.052727 
L 143.150093 -28.052727 
L 139.894019 -28.052727 
L 136.637944 -28.052727 
L 133.381869 -28.052727 
L 130.125794 -28.052727 
L 126.86972 -28.052727 
L 123.613645 -28.052727 
L 120.35757 -28.052727 
L 117.101495 -28.052727 
L 113.845421 -28.052727 
L 110.589346 -28.052727 
L 107.333271 -28.052727 
L 104.077196 -28.052727 
L 100.821121 -28.052727 
L 97.565047 -28.052727 
L 94.308972 -28.052727 
L 91.052897 -28.052727 
L 87.796822 -28.052727 
L 84.540748 -28.052727 
L 81.284673 -28.052727 
L 78.028598 -28.052727 
L 74.772523 -28.052727 
L 71.516449 -28.052727 
L 68.260374 -28.052727 
L 65.004299 -28.052727 
L 61.748224 -28.052727 
L 58.49215 -28.052727 
L 55.236075 -28.052727 
L 51.98 -28.052727 
z
" style="stroke: #f85149; stroke-opacity: 0.15"/>
    </defs>
    <g clip-path="url(#p921a2b28ea)">
     <use xlink:href="#ma300eef37c" x="0" y="172.518281" style="fill: #f85149; fill-opacity: 0.15; stroke: #f85149; stroke-opacity: 0.15"/>
    </g>
   </g>
   <g id="matplotlib.axis_1">
    <g id="xtick_1">
     <g id="line2d_1">
      <path d="M 51.98 150.318281 
L 51.98 21.558281 
" clip-path="url(#p921a2b28ea)" style="fill: none; stroke: #21262d; stroke-opacity: 0.5; stroke-width: 0.5; stroke-linecap: square"/>
     </g>
     <g id="line2d_2">
      <defs>
       <path id="me45122df00" d="M 0 0 
L 0 3.5 
" style="stroke: #c9d1d9; stroke-width: 0.8"/>
      </defs>
      <g>
       <use xlink:href="#me45122df00" x="51.98" y="150.318281" style="fill: #c9d1d9; stroke: #c9d1d9; stroke-width: 0.8"/>
      </g>
     </g>
     <g id="text_1">
      <!-- 0 -->
      <g style="fill: #c9d1d9" transform="translate(49.435 163.396406) scale(0.08 -0.08)">
       <defs>
        <path id="DejaVuSans-13" d="M 2034 4250 
Q 1547 4250 1301 3770 
Q 1056 3291 1056 2328 
Q 1056 1369 1301 889 
Q 1547 409 2034 409 
Q 2525 409 2770 889 
Q 3016 1369 3016 2328 
Q 3016 3291 2770 3770 
Q 2525 4250 2034 4250 
z
M 2034 4750 
Q 2819 4750 3233 4129 
Q 3647 3509 3647 2328 
Q 3647 1150 3233 529 
Q 2819 -91 2034 -91 
Q 1250 -91 836 529 
Q 422 1150 422 2328 
Q 422 3509 836 4129 
Q 1250 4750 2034 4750 
z
" transform="scale(0.015625)"/>
       </defs>
       <use xlink:href="#DejaVuSans-13"/>
      </g>
     </g>
    </g>
    <g id="xtick_2">
     <g id="line2d_3">
      <path d="M 117.101495 150.318281 
L 117.101495 21.558281 
" clip-path="url(#p921a2b28ea)" style="fill: none; stroke: #21262d; stroke-opacity: 0.5; stroke-width: 0.5; stroke-linecap: square"/>
     </g>
     <g id="line2d_4">
      <g>
       <use xlink:href="#me45122df00" x="117.101495" y="150.318281" style="fill: #c9d1d9; stroke: #c9d1d9; stroke-width: 0.8"/>
      </g>
     </g>
     <g id="text_2">
      <!-- 20 -->
      <g style="fill: #c9d1d9" transform="translate(112.011495 163.396406) scale(0.08 -0.08)">
       <defs>
        <path id="DejaVuSans-15" d="M 1228 531 
L 3431 531 
L 3431 0 
L 469 0 
L 469 531 
Q 828 903 1448 1529 
Q 2069 2156 2228 2338 
Q 2531 2678 2651 2914 
Q 2772 3150 2772 3378 
Q 2772 3750 2511 3984 
Q 2250 4219 1831 4219 
Q 1534 4219 1204 4116 
Q 875 4013 500 3803 
L 500 4441 
Q 881 4594 1212 4672 
Q 1544 4750 1819 4750 
Q 2544 4750 2975 4387 
Q 3406 4025 3406 3419 
Q 3406 3131 3298 2873 
Q 3191 2616 2906 2266 
Q 2828 2175 2409 1742 
Q 1991 1309 1228 531 
z
" transform="scale(0.015625)"/>
       </defs>
       <use xlink:href="#DejaVuSans-15"/>
       <use xlink:href="#DejaVuSans-13" transform="translate(63.625 0)"/>
      </g>
     </g>
    </g>
    <g id="xtick_3">
     <g id="line2d_5">
      <path d="M 182.222991 150.318281 
L 182.222991 21.558281 
" clip-path="url(#p921a2b28ea)" style="fill: none; stroke: #21262d; stroke-opacity: 0.5; stroke-width: 0.5; stroke-linecap: square"/>
     </g>
     <g id="line2d_6">
      <g>
       <use xlink:href="#me45122df00" x="182.222991" y="150.318281" style="fill: #c9d1d9; stroke: #c9d1d9; stroke-width: 0.8"/>
      </g>
     </g>
     <g id="text_3">
      <!-- 40 -->
      <g style="fill: #c9d1d9" transform="translate(177.132991 163.396406) scale(0.08 -0.08)">
       <defs>
        <path id="DejaVuSans-17" d="M 2419 4116 
L 825 1625 
L 2419 1625 
L 2419 4116 
z
M 2253 4666 
L 3047 4666 
L 3047 1625 
L 3713 1625 
L 3713 1100 
L 3047 1100 
L 3047 0 
L 2419 0 
L 2419 1100 
L 313 1100 
L 313 1709 
L 2253 4666 
z
" transform="scale(0.015625)"/>
       </defs>
       <use xlink:href="#DejaVuSans-17"/>
       <use xlink:href="#DejaVuSans-13" transform="translate(63.625 0)"/>
      </g>
     </g>
    </g>
    <g id="xtick_4">
     <g id="line2d_7">
      <path d="M 247.344486 150.318281 
L 247.344486 21.558281 
" clip-path="url(#p921a2b28ea)" style="fill: none; stroke: #21262d; stroke-opacity: 0.5; stroke-width: 0.5; stroke-linecap: square"/>
     </g>
     <g id="line2d_8">
      <g>
       <use xlink:href="#me45122df00" x="247.344486" y="150.318281" style="fill: #c9d1d9; stroke: #c9d1d9; stroke-width: 0.8"/>
      </g>
     </g>
     <g id="text_4">
      <!-- 60 -->
      <g style="fill: #c9d1d9" transform="translate(242.254486 163.396406) scale(0.08 -0.08)">
       <defs>
        <path id="DejaVuSans-19" d="M 2113 2584 
Q 1688 2584 1439 2293 
Q 1191 2003 1191 1497 
Q 1191 994 1439 701 
Q 1688 409 2113 409 
Q 2538 409 2786 701 
Q 3034 994 3034 1497 
Q 3034 2003 2786 2293 
Q 2538 2584 2113 2584 
z
M 3366 4563 
L 3366 3988 
Q 3128 4100 2886 4159 
Q 2644 4219 2406 4219 
Q 1781 4219 1451 3797 
Q 1122 3375 1075 2522 
Q 1259 2794 1537 2939 
Q 1816 3084 2150 3084 
Q 2853 3084 3261 2657 
Q 3669 2231 3669 1497 
Q 3669 778 3244 343 
Q 2819 -91 2113 -91 
Q 1303 -91 875 529 
Q 447 1150 447 2328 
Q 447 3434 972 4092 
Q 1497 4750 2381 4750 
Q 2619 4750 2861 4703 
Q 3103 4656 3366 4563 
z
" transform="scale(0.015625)"/>
       </defs>
       <use xlink:href="#DejaVuSans-19"/>
       <use xlink:href="#DejaVuSans-13" transform="translate(63.625 0)"/>
      </g>
     </g>
    </g>
    <g id="xtick_5">
     <g id="line2d_9">
      <path d="M 312.465981 150.318281 
L 312.465981 21.558281 
" clip-path="url(#p921a2b28ea)" style="fill: none; stroke: #21262d; stroke-opacity: 0.5; stroke-width: 0.5; stroke-linecap: square"/>
     </g>
     <g id="line2d_10">
      <g>
       <use xlink:href="#me45122df00" x="312.465981" y="150.318281" style="fill: #c9d1d9; stroke: #c9d1d9; stroke-width: 0.8"/>
      </g>
     </g>
     <g id="text_5">
      <!-- 80 -->
      <g style="fill: #c9d1d9" transform="translate(307.375981 163.396406) scale(0.08 -0.08)">
       <defs>
        <path id="DejaVuSans-1b" d="M 2034 2216 
Q 1584 2216 1326 1975 
Q 1069 1734 1069 1313 
Q 1069 891 1326 650 
Q 1584 409 2034 409 
Q 2484 409 2743 651 
Q 3003 894 3003 1313 
Q 3003 1734 2745 1975 
Q 2488 2216 2034 2216 
z
M 1403 2484 
Q 997 2584 770 2862 
Q 544 3141 544 3541 
Q 544 4100 942 4425 
Q 1341 4750 2034 4750 
Q 2731 4750 3128 4425 
Q 3525 4100 3525 3541 
Q 3525 3141 3298 2862 
Q 3072 2584 2669 2484 
Q 3125 2378 3379 2068 
Q 3634 1759 3634 1313 
Q 3634 634 3220 271 
Q 2806 -91 2034 -91 
Q 1263 -91 848 271 
Q 434 634 434 1313 
Q 434 1759 690 2068 
Q 947 2378 1403 2484 
z
M 1172 3481 
Q 1172 3119 1398 2916 
Q 1625 2713 2034 2713 
Q 2441 2713 2670 2916 
Q 2900 3119 2900 3481 
Q 2900 3844 2670 4047 
Q 2441 4250 2034 4250 
Q 1625 4250 1398 4047 
Q 1172 3844 1172 3481 
z
" transform="scale(0.015625)"/>
       </defs>
       <use xlink:href="#DejaVuSans-1b"/>
       <use xlink:href="#DejaVuSans-13" transform="translate(63.625 0)"/>
      </g>
     </g>
    </g>
    <g id="xtick_6">
     <g id="line2d_11">
      <path d="M 377.587477 150.318281 
L 377.587477 21.558281 
" clip-path="url(#p921a2b28ea)" style="fill: none; stroke: #21262d; stroke-opacity: 0.5; stroke-width: 0.5; stroke-linecap: square"/>
     </g>
     <g id="line2d_12">
      <g>
       <use xlink:href="#me45122df00" x="377.587477" y="150.318281" style="fill: #c9d1d9; stroke: #c9d1d9; stroke-width: 0.8"/>
      </g>
     </g>
     <g id="text_6">
      <!-- 100 -->
      <g style="fill: #c9d1d9" transform="translate(369.952477 163.396406) scale(0.08 -0.08)">
       <defs>
        <path id="DejaVuSans-14" d="M 794 531 
L 1825 531 
L 1825 4091 
L 703 3866 
L 703 4441 
L 1819 4666 
L 2450 4666 
L 2450 531 
L 3481 531 
L 3481 0 
L 794 0 
L 794 531 
z
" transform="scale(0.015625)"/>
       </defs>
       <use xlink:href="#DejaVuSans-14"/>
       <use xlink:href="#DejaVuSans-13" transform="translate(63.625 0)"/>
       <use xlink:href="#DejaVuSans-13" transform="translate(127.25 0)"/>
      </g>
     </g>
    </g>
   </g>
   <g id="matplotlib.axis_2">
    <g id="ytick_1">
     <g id="line2d_13">
      <path d="M 34.56 144.465554 
L 417.8 144.465554 
" clip-path="url(#p921a2b28ea)" style="fill: none; stroke: #21262d; stroke-opacity: 0.5; stroke-width: 0.5; stroke-linecap: square"/>
     </g>
     <g id="line2d_14">
      <defs>
       <path id="mc1befb6f26" d="M 0 0 
L -3.5 0 
" style="stroke: #c9d1d9; stroke-width: 0.8"/>
      </defs>
      <g>
       <use xlink:href="#mc1befb6f26" x="34.56" y="144.465554" style="fill: #c9d1d9; stroke: #c9d1d9; stroke-width: 0.8"/>
      </g>
     </g>
     <g id="text_7">
      <!-- $0 -->
      <g style="fill: #c9d1d9" transform="translate(17.38 147.504929) scale(0.08 -0.08)">
       <defs>
        <path id="DejaVuSans-7" d="M 2163 -941 
L 1850 -941 
L 1847 0 
Q 1519 6 1191 76 
Q 863 147 531 288 
L 531 850 
Q 850 650 1176 548 
Q 1503 447 1850 444 
L 1850 1869 
Q 1159 1981 845 2250 
Q 531 2519 531 2988 
Q 531 3497 872 3790 
Q 1213 4084 1850 4128 
L 1850 4863 
L 2163 4863 
L 2163 4138 
Q 2453 4125 2725 4076 
Q 2997 4028 3256 3944 
L 3256 3397 
Q 2997 3528 2723 3600 
Q 2450 3672 2163 3684 
L 2163 2350 
Q 2872 2241 3206 1959 
Q 3541 1678 3541 1191 
Q 3541 663 3186 358 
Q 2831 53 2163 6 
L 2163 -941 
z
M 1850 2406 
L 1850 3688 
Q 1488 3647 1297 3481 
Q 1106 3316 1106 3041 
Q 1106 2772 1282 2622 
Q 1459 2472 1850 2406 
z
M 2163 1806 
L 2163 453 
Q 2559 506 2761 678 
Q 2963 850 2963 1131 
Q 2963 1406 2770 1568 
Q 2578 1731 2163 1806 
z
" transform="scale(0.015625)"/>
       </defs>
       <use xlink:href="#DejaVuSans-7"/>
       <use xlink:href="#DejaVuSans-13" transform="translate(63.625 0)"/>
      </g>
     </g>
    </g>
    <g id="ytick_2">
     <g id="line2d_15">
      <path d="M 34.56 117.33694 
L 417.8 117.33694 
" clip-path="url(#p921a2b28ea)" style="fill: none; stroke: #21262d; stroke-opacity: 0.5; stroke-width: 0.5; stroke-linecap: square"/>
     </g>
     <g id="line2d_16">
      <g>
       <use xlink:href="#mc1befb6f26" x="34.56" y="117.33694" style="fill: #c9d1d9; stroke: #c9d1d9; stroke-width: 0.8"/>
      </g>
     </g>
     <g id="text_8">
      <!-- $100 -->
      <g style="fill: #c9d1d9" transform="translate(7.2 120.376315) scale(0.08 -0.08)">
       <use xlink:href="#DejaVuSans-7"/>
       <use xlink:href="#DejaVuSans-14" transform="translate(63.625 0)"/>
       <use xlink:href="#DejaVuSans-13" transform="translate(127.25 0)"/>
       <use xlink:href="#DejaVuSans-13" transform="translate(190.875 0)"/>
      </g>
     </g>
    </g>
    <g id="ytick_3">
     <g id="line2d_17">
      <path d="M 34.56 90.208325 
L 417.8 90.208325 
" clip-path="url(#p921a2b28ea)" style="fill: none; stroke: #21262d; stroke-opacity: 0.5; stroke-width: 0.5; stroke-linecap: square"/>
     </g>
     <g id="line2d_18">
      <g>
       <use xlink:href="#mc1befb6f26" x="34.56" y="90.208325" style="fill: #c9d1d9; stroke: #c9d1d9; stroke-width: 0.8"/>
      </g>
     </g>
     <g id="text_9">
      <!-- $200 -->
      <g style="fill: #c9d1d9" transform="translate(7.2 93.2477) scale(0.08 -0.08)">
       <use xlink:href="#DejaVuSans-7"/>
       <use xlink:href="#DejaVuSans-15" transform="translate(63.625 0)"/>
       <use xlink:href="#DejaVuSans-13" transform="translate(127.25 0)"/>
       <use xlink:href="#DejaVuSans-13" transform="translate(190.875 0)"/>
      </g>
     </g>
    </g>
    <g id="ytick_4">
     <g id="line2d_19">
      <path d="M 34.56 63.079711 
L 417.8 63.079711 
" clip-path="url(#p921a2b28ea)" style="fill: none; stroke: #21262d; stroke-opacity: 0.5; stroke-width: 0.5; stroke-linecap: square"/>
     </g>
     <g id="line2d_20">
      <g>
       <use xlink:href="#mc1befb6f26" x="34.56" y="63.079711" style="fill: #c9d1d9; stroke: #c9d1d9; stroke-width: 0.8"/>
      </g>
     </g>
     <g id="text_10">
      <!-- $300 -->
      <g style="fill: #c9d1d9" transform="translate(7.2 66.119086) scale(0.08 -0.08)">
       <defs>
        <path id="DejaVuSans-16" d="M 2597 2516 
Q 3050 2419 3304 2112 
Q 3559 1806 3559 1356 
Q 3559 666 3084 287 
Q 2609 -91 1734 -91 
Q 1441 -91 1130 -33 
Q 819 25 488 141 
L 488 750 
Q 750 597 1062 519 
Q 1375 441 1716 441 
Q 2309 441 2620 675 
Q 2931 909 2931 1356 
Q 2931 1769 2642 2001 
Q 2353 2234 1838 2234 
L 1294 2234 
L 1294 2753 
L 1863 2753 
Q 2328 2753 2575 2939 
Q 2822 3125 2822 3475 
Q 2822 3834 2567 4026 
Q 2313 4219 1838 4219 
Q 1578 4219 1281 4162 
Q 984 4106 628 3988 
L 628 4550 
Q 988 4650 1302 4700 
Q 1616 4750 1894 4750 
Q 2613 4750 3031 4423 
Q 3450 4097 3450 3541 
Q 3450 3153 3228 2886 
Q 3006 2619 2597 2516 
z
" transform="scale(0.015625)"/>
       </defs>
       <use xlink:href="#DejaVuSans-7"/>
       <use xlink:href="#DejaVuSans-16" transform="translate(63.625 0)"/>
       <use xlink:href="#DejaVuSans-13" transform="translate(127.25 0)"/>
       <use xlink:href="#DejaVuSans-13" transform="translate(190.875 0)"/>
      </g>
     </g>
    </g>
    <g id="ytick_5">
     <g id="line2d_21">
      <path d="M 34.56 35.951096 
L 417.8 35.951096 
" clip-path="url(#p921a2b28ea)" style="fill: none; stroke: #21262d; stroke-opacity: 0.5; stroke-width: 0.5; stroke-linecap: square"/>
     </g>
     <g id="line2d_22">
      <g>
       <use xlink:href="#mc1befb6f26" x="34.56" y="35.951096" style="fill: #c9d1d9; stroke: #c9d1d9; stroke-width: 0.8"/>
      </g>
     </g>
     <g id="text_11">
      <!-- $400 -->
      <g style="fill: #c9d1d9" transform="translate(7.2 38.990471) scale(0.08 -0.08)">
       <use xlink:href="#DejaVuSans-7"/>
       <use xlink:href="#DejaVuSans-17" transform="translate(63.625 0)"/>
       <use xlink:href="#DejaVuSans-13" transform="translate(127.25 0)"/>
       <use xlink:href="#DejaVuSans-13" transform="translate(190.875 0)"/>
      </g>
     </g>
    </g>
   </g>
   <g id="line2d_23">
    <path d="M 51.98 30.848204 
L 55.236075 38.946095 
L 58.49215 33.967995 
L 61.748224 37.926059 
L 65.004299 53.063826 
L 68.260374 48.47909 
L 71.516449 33.417284 
L 74.772523 40.37306 
L 78.028598 41.707788 
L 81.284673 38.984075 
L 84.540748 34.141618 
L 87.796822 55.605777 
L 91.052897 28.450034 
L 94.308972 38.360117 
L 97.565047 31.86824 
L 100.821121 35.877849 
L 104.077196 35.73678 
L 107.333271 34.062945 
L 110.589346 34.022252 
L 113.845421 37.036241 
L 117.101495 31.206302 
L 120.35757 35.536029 
L 123.613645 35.823592 
L 126.86972 36.024344 
L 130.125794 33.097166 
L 133.381869 37.605942 
L 136.637944 33.194829 
L 139.894019 34.103638 
L 143.150093 35.476346 
L 146.406168 34.971753 
L 149.662243 75.865427 
L 152.918318 74.693471 
L 156.174393 72.704943 
L 159.430467 71.598096 
L 162.686542 46.642483 
L 165.942617 52.960738 
L 169.198692 78.008587 
L 172.454766 72.468924 
L 175.710841 77.723737 
L 178.966916 74.267551 
L 182.222991 76.212673 
L 185.479065 75.702655 
L 188.73514 73.152565 
L 191.991215 74.739589 
L 195.24729 72.311578 
L 198.503364 73.168842 
L 201.759439 72.957239 
L 205.015514 72.005025 
L 208.271589 72.694092 
L 211.527664 75.084123 
L 214.783738 73.521514 
L 218.039813 73.643593 
L 221.295888 76.098733 
L 224.551963 72.582864 
L 227.808037 74.905074 
L 231.064112 73.502524 
L 234.320187 44.309422 
L 237.576262 48.818198 
L 240.832336 78.974366 
L 244.088411 64.864774 
L 247.344486 47.657093 
L 250.600561 70.637743 
L 253.856636 78.005874 
L 257.11271 72.688666 
L 260.368785 77.400906 
L 263.62486 73.871474 
L 266.880935 75.021727 
L 270.137009 70.046339 
L 273.393084 58.362045 
L 276.649159 77.322233 
L 279.905234 70.974138 
L 283.161308 52.515828 
L 286.417383 31.971329 
L 289.673458 44.833005 
L 292.929533 41.246602 
L 296.185607 34.290825 
L 299.441682 35.617414 
L 302.697757 33.09174 
L 305.953832 37.559823 
L 309.209907 39.909161 
L 312.465981 54.393128 
L 315.722056 76.820354 
L 318.978131 73.456406 
L 322.234206 73.871474 
L 325.49028 74.19973 
L 328.746355 74.593095 
L 332.00243 76.294059 
L 335.258505 72.615419 
L 338.514579 75.078697 
L 341.770654 72.430944 
L 345.026729 74.98646 
L 348.282804 60.629997 
L 351.538879 42.196103 
L 354.794953 27.411009 
L 358.051028 47.242026 
L 361.307103 34.163321 
L 364.563178 43.384337 
L 367.819252 33.132433 
L 371.075327 36.442124 
L 374.331402 42.521647 
L 377.587477 59.737465 
L 380.843551 49.577799 
L 384.099626 57.683829 
L 387.355701 38.398097 
L 390.611776 37.749723 
L 393.86785 40.877653 
L 397.123925 48.001627 
L 400.38 60.087425 
" clip-path="url(#p921a2b28ea)" style="fill: none; stroke: #f85149; stroke-width: 2; stroke-linecap: square"/>
   </g>
   <g id="patch_3">
    <path d="M 34.56 150.318281 
L 34.56 21.558281 
" style="fill: none; stroke: #21262d; stroke-width: 0.8; stroke-linejoin: miter; stroke-linecap: square"/>
   </g>
   <g id="patch_4">
    <path d="M 34.56 150.318281 
L 417.8 150.318281 
" style="fill: none; stroke: #21262d; stroke-width: 0.8; stroke-linejoin: miter; stroke-linecap: square"/>
   </g>
   <g id="text_12">
    <!-- SVELTE (sveltejs/svelte) — $311.03 (-12.53%) -->
    <g style="fill: #c9d1d9" transform="translate(85.812266 15.558281) scale(0.11 -0.11)">
     <defs>
      <path id="DejaVuSans-Bold-36" d="M 3834 4519 
L 3834 3531 
Q 3450 3703 3084 3790 
Q 2719 3878 2394 3878 
Q 1963 3878 1756 3759 
Q 1550 3641 1550 3391 
Q 1550 3203 1689 3098 
Q 1828 2994 2194 2919 
L 2706 2816 
Q 3484 2659 3812 2340 
Q 4141 2022 4141 1434 
Q 4141 663 3683 286 
Q 3225 -91 2284 -91 
Q 1841 -91 1394 -6 
Q 947 78 500 244 
L 500 1259 
Q 947 1022 1364 901 
Q 1781 781 2169 781 
Q 2563 781 2772 912 
Q 2981 1044 2981 1288 
Q 2981 1506 2839 1625 
Q 2697 1744 2272 1838 
L 1806 1941 
Q 1106 2091 782 2419 
Q 459 2747 459 3303 
Q 459 4000 909 4375 
Q 1359 4750 2203 4750 
Q 2588 4750 2994 4692 
Q 3400 4634 3834 4519 
z
" transform="scale(0.015625)"/>
      <path id="DejaVuSans-Bold-39" d="M 31 4666 
L 1241 4666 
L 2478 1222 
L 3713 4666 
L 4922 4666 
L 3194 0 
L 1759 0 
L 31 4666 
z
" transform="scale(0.015625)"/>
      <path id="DejaVuSans-Bold-28" d="M 588 4666 
L 3834 4666 
L 3834 3756 
L 1791 3756 
L 1791 2888 
L 3713 2888 
L 3713 1978 
L 1791 1978 
L 1791 909 
L 3903 909 
L 3903 0 
L 588 0 
L 588 4666 
z
" transform="scale(0.015625)"/>
      <path id="DejaVuSans-Bold-2f" d="M 588 4666 
L 1791 4666 
L 1791 909 
L 3903 909 
L 3903 0 
L 588 0 
L 588 4666 
z
" transform="scale(0.015625)"/>
      <path id="DejaVuSans-Bold-37" d="M 31 4666 
L 4331 4666 
L 4331 3756 
L 2784 3756 
L 2784 0 
L 1581 0 
L 1581 3756 
L 31 3756 
L 31 4666 
z
" transform="scale(0.015625)"/>
      <path id="DejaVuSans-Bold-3" transform="scale(0.015625)"/>
      <path id="DejaVuSans-Bold-b" d="M 2413 -844 
L 1484 -844 
Q 1006 -72 778 623 
Q 550 1319 550 2003 
Q 550 2688 779 3389 
Q 1009 4091 1484 4856 
L 2413 4856 
Q 2013 4116 1813 3408 
Q 1613 2700 1613 2009 
Q 1613 1319 1811 609 
Q 2009 -100 2413 -844 
z
" transform="scale(0.015625)"/>
      <path id="DejaVuSans-Bold-56" d="M 3272 3391 
L 3272 2541 
Q 2913 2691 2578 2766 
Q 2244 2841 1947 2841 
Q 1628 2841 1473 2761 
Q 1319 2681 1319 2516 
Q 1319 2381 1436 2309 
Q 1553 2238 1856 2203 
L 2053 2175 
Q 2913 2066 3209 1816 
Q 3506 1566 3506 1031 
Q 3506 472 3093 190 
Q 2681 -91 1863 -91 
Q 1516 -91 1145 -36 
Q 775 19 384 128 
L 384 978 
Q 719 816 1070 734 
Q 1422 653 1784 653 
Q 2113 653 2278 743 
Q 2444 834 2444 1013 
Q 2444 1163 2330 1236 
Q 2216 1309 1875 1350 
L 1678 1375 
Q 931 1469 631 1722 
Q 331 1975 331 2491 
Q 331 3047 712 3315 
Q 1094 3584 1881 3584 
Q 2191 3584 2531 3537 
Q 2872 3491 3272 3391 
z
" transform="scale(0.015625)"/>
      <path id="DejaVuSans-Bold-59" d="M 97 3500 
L 1216 3500 
L 2088 1081 
L 2956 3500 
L 4078 3500 
L 2700 0 
L 1472 0 
L 97 3500 
z
" transform="scale(0.015625)"/>
      <path id="DejaVuSans-Bold-48" d="M 4031 1759 
L 4031 1441 
L 1416 1441 
Q 1456 1047 1700 850 
Q 1944 653 2381 653 
Q 2734 653 3104 758 
Q 3475 863 3866 1075 
L 3866 213 
Q 3469 63 3072 -14 
Q 2675 -91 2278 -91 
Q 1328 -91 801 392 
Q 275 875 275 1747 
Q 275 2603 792 3093 
Q 1309 3584 2216 3584 
Q 3041 3584 3536 3087 
Q 4031 2591 4031 1759 
z
M 2881 2131 
Q 2881 2450 2695 2645 
Q 2509 2841 2209 2841 
Q 1884 2841 1681 2658 
Q 1478 2475 1428 2131 
L 2881 2131 
z
" transform="scale(0.015625)"/>
      <path id="DejaVuSans-Bold-4f" d="M 538 4863 
L 1656 4863 
L 1656 0 
L 538 0 
L 538 4863 
z
" transform="scale(0.015625)"/>
      <path id="DejaVuSans-Bold-57" d="M 1759 4494 
L 1759 3500 
L 2913 3500 
L 2913 2700 
L 1759 2700 
L 1759 1216 
Q 1759 972 1856 886 
Q 1953 800 2241 800 
L 2816 800 
L 2816 0 
L 1856 0 
Q 1194 0 917 276 
Q 641 553 641 1216 
L 641 2700 
L 84 2700 
L 84 3500 
L 641 3500 
L 641 4494 
L 1759 4494 
z
" transform="scale(0.015625)"/>
      <path id="DejaVuSans-Bold-4d" d="M 538 3500 
L 1656 3500 
L 1656 63 
Q 1656 -641 1318 -1011 
Q 981 -1381 341 -1381 
L -213 -1381 
L -213 -647 
L -19 -647 
Q 300 -647 419 -503 
Q 538 -359 538 63 
L 538 3500 
z
M 538 4863 
L 1656 4863 
L 1656 3950 
L 538 3950 
L 538 4863 
z
" transform="scale(0.015625)"/>
      <path id="DejaVuSans-Bold-12" d="M 1644 4666 
L 2338 4666 
L 691 -594 
L 0 -594 
L 1644 4666 
z
" transform="scale(0.015625)"/>
      <path id="DejaVuSans-Bold-c" d="M 513 -844 
Q 913 -100 1113 609 
Q 1313 1319 1313 2009 
Q 1313 2700 1113 3408 
Q 913 4116 513 4856 
L 1441 4856 
Q 1916 4091 2145 3389 
Q 2375 2688 2375 2003 
Q 2375 1319 2147 623 
Q 1919 -72 1441 -844 
L 513 -844 
z
" transform="scale(0.015625)"/>
      <path id="DejaVuSans-Bold-af6" d="M 344 2156 
L 6056 2156 
L 6056 1350 
L 344 1350 
L 344 2156 
z
" transform="scale(0.015625)"/>
      <path id="DejaVuSans-Bold-7" d="M 2484 -941 
L 1978 -941 
L 1975 0 
Q 1584 16 1218 87 
Q 853 159 506 288 
L 506 1106 
Q 866 922 1233 823 
Q 1600 725 1978 713 
L 1978 1684 
L 1875 1703 
Q 1128 1834 814 2115 
Q 500 2397 500 2925 
Q 500 3484 883 3798 
Q 1266 4113 1975 4141 
L 1978 4863 
L 2484 4863 
L 2484 4153 
Q 2797 4128 3109 4075 
Q 3422 4022 3738 3938 
L 3738 3144 
Q 3425 3275 3112 3348 
Q 2800 3422 2484 3438 
L 2484 2541 
L 2584 2522 
Q 3378 2397 3698 2105 
Q 4019 1813 4019 1241 
Q 4019 666 3637 358 
Q 3256 50 2484 6 
L 2484 -941 
z
M 1978 2613 
L 1978 3428 
Q 1756 3416 1623 3308 
Q 1491 3200 1491 3034 
Q 1491 2850 1612 2745 
Q 1734 2641 1978 2613 
z
M 2484 1594 
L 2484 725 
Q 2756 728 2892 831 
Q 3028 934 3028 1141 
Q 3028 1353 2903 1458 
Q 2778 1563 2484 1594 
z
" transform="scale(0.015625)"/>
      <path id="DejaVuSans-Bold-16" d="M 2981 2516 
Q 3453 2394 3698 2092 
Q 3944 1791 3944 1325 
Q 3944 631 3412 270 
Q 2881 -91 1863 -91 
Q 1503 -91 1142 -33 
Q 781 25 428 141 
L 428 1069 
Q 766 900 1098 814 
Q 1431 728 1753 728 
Q 2231 728 2486 893 
Q 2741 1059 2741 1369 
Q 2741 1688 2480 1852 
Q 2219 2016 1709 2016 
L 1228 2016 
L 1228 2791 
L 1734 2791 
Q 2188 2791 2409 2933 
Q 2631 3075 2631 3366 
Q 2631 3634 2415 3781 
Q 2200 3928 1806 3928 
Q 1516 3928 1219 3862 
Q 922 3797 628 3669 
L 628 4550 
Q 984 4650 1334 4700 
Q 1684 4750 2022 4750 
Q 2931 4750 3382 4451 
Q 3834 4153 3834 3553 
Q 3834 3144 3618 2883 
Q 3403 2622 2981 2516 
z
" transform="scale(0.015625)"/>
      <path id="DejaVuSans-Bold-14" d="M 750 831 
L 1813 831 
L 1813 3847 
L 722 3622 
L 722 4441 
L 1806 4666 
L 2950 4666 
L 2950 831 
L 4013 831 
L 4013 0 
L 750 0 
L 750 831 
z
" transform="scale(0.015625)"/>
      <path id="DejaVuSans-Bold-11" d="M 653 1209 
L 1778 1209 
L 1778 0 
L 653 0 
L 653 1209 
z
" transform="scale(0.015625)"/>
      <path id="DejaVuSans-Bold-13" d="M 2944 2338 
Q 2944 3213 2780 3570 
Q 2616 3928 2228 3928 
Q 1841 3928 1675 3570 
Q 1509 3213 1509 2338 
Q 1509 1453 1675 1090 
Q 1841 728 2228 728 
Q 2613 728 2778 1090 
Q 2944 1453 2944 2338 
z
M 4147 2328 
Q 4147 1169 3647 539 
Q 3147 -91 2228 -91 
Q 1306 -91 806 539 
Q 306 1169 306 2328 
Q 306 3491 806 4120 
Q 1306 4750 2228 4750 
Q 3147 4750 3647 4120 
Q 4147 3491 4147 2328 
z
" transform="scale(0.015625)"/>
      <path id="DejaVuSans-Bold-10" d="M 347 2297 
L 2309 2297 
L 2309 1388 
L 347 1388 
L 347 2297 
z
" transform="scale(0.015625)"/>
      <path id="DejaVuSans-Bold-15" d="M 1844 884 
L 3897 884 
L 3897 0 
L 506 0 
L 506 884 
L 2209 2388 
Q 2438 2594 2547 2791 
Q 2656 2988 2656 3200 
Q 2656 3528 2436 3728 
Q 2216 3928 1850 3928 
Q 1569 3928 1234 3808 
Q 900 3688 519 3450 
L 519 4475 
Q 925 4609 1322 4679 
Q 1719 4750 2100 4750 
Q 2938 4750 3402 4381 
Q 3866 4013 3866 3353 
Q 3866 2972 3669 2642 
Q 3472 2313 2841 1759 
L 1844 884 
z
" transform="scale(0.015625)"/>
      <path id="DejaVuSans-Bold-18" d="M 678 4666 
L 3669 4666 
L 3669 3781 
L 1638 3781 
L 1638 3059 
Q 1775 3097 1914 3117 
Q 2053 3138 2203 3138 
Q 3056 3138 3531 2711 
Q 4006 2284 4006 1522 
Q 4006 766 3489 337 
Q 2972 -91 2053 -91 
Q 1656 -91 1267 -14 
Q 878 63 494 219 
L 494 1166 
Q 875 947 1217 837 
Q 1559 728 1863 728 
Q 2300 728 2551 942 
Q 2803 1156 2803 1522 
Q 2803 1891 2551 2103 
Q 2300 2316 1863 2316 
Q 1603 2316 1309 2248 
Q 1016 2181 678 2041 
L 678 4666 
z
" transform="scale(0.015625)"/>
      <path id="DejaVuSans-Bold-8" d="M 4959 1925 
Q 4738 1925 4616 1733 
Q 4494 1541 4494 1184 
Q 4494 825 4614 633 
Q 4734 441 4959 441 
Q 5184 441 5303 633 
Q 5422 825 5422 1184 
Q 5422 1541 5301 1733 
Q 5181 1925 4959 1925 
z
M 4959 2450 
Q 5541 2450 5875 2112 
Q 6209 1775 6209 1184 
Q 6209 594 5875 251 
Q 5541 -91 4959 -91 
Q 4378 -91 4042 251 
Q 3706 594 3706 1184 
Q 3706 1772 4042 2111 
Q 4378 2450 4959 2450 
z
M 2094 -91 
L 1403 -91 
L 4319 4750 
L 5013 4750 
L 2094 -91 
z
M 1453 4750 
Q 2034 4750 2367 4411 
Q 2700 4072 2700 3481 
Q 2700 2891 2367 2550 
Q 2034 2209 1453 2209 
Q 872 2209 539 2550 
Q 206 2891 206 3481 
Q 206 4072 539 4411 
Q 872 4750 1453 4750 
z
M 1453 4225 
Q 1228 4225 1106 4031 
Q 984 3838 984 3481 
Q 984 3122 1106 2926 
Q 1228 2731 1453 2731 
Q 1678 2731 1798 2926 
Q 1919 3122 1919 3481 
Q 1919 3838 1797 4031 
Q 1675 4225 1453 4225 
z
" transform="scale(0.015625)"/>
     </defs>
     <use xlink:href="#DejaVuSans-Bold-36"/>
     <use xlink:href="#DejaVuSans-Bold-39" transform="translate(72.015625 0)"/>
     <use xlink:href="#DejaVuSans-Bold-28" transform="translate(149.40625 0)"/>
     <use xlink:href="#DejaVuSans-Bold-2f" transform="translate(217.71875 0)"/>
     <use xlink:href="#DejaVuSans-Bold-37" transform="translate(264.890625 0)"/>
     <use xlink:href="#DejaVuSans-Bold-28" transform="translate(333.109375 0)"/>
     <use xlink:href="#DejaVuSans-Bold-3" transform="translate(401.421875 0)"/>
     <use xlink:href="#DejaVuSans-Bold-b" transform="translate(436.234375 0)"/>
     <use xlink:href="#DejaVuSans-Bold-56" transform="translate(481.9375 0)"/>
     <use xlink:href="#DejaVuSans-Bold-59" transform="translate(541.453125 0)"/>
     <use xlink:href="#DejaVuSans-Bold-48" transform="translate(606.640625 0)"/>
     <use xlink:href="#DejaVuSans-Bold-4f" transform="translate(674.46875 0)"/>
     <use xlink:href="#DejaVuSans-Bold-57" transform="translate(708.75 0)"/>
     <use xlink:href="#DejaVuSans-Bold-48" transform="translate(756.546875 0)"/>
     <use xlink:href="#DejaVuSans-Bold-4d" transform="translate(824.375 0)"/>
     <use xlink:href="#DejaVuSans-Bold-56" transform="translate(858.65625 0)"/>
     <use xlink:href="#DejaVuSans-Bold-12" transform="translate(918.171875 0)"/>
     <use xlink:href="#DejaVuSans-Bold-56" transform="translate(954.703125 0)"/>
     <use xlink:href="#DejaVuSans-Bold-59" transform="translate(1014.21875 0)"/>
     <use xlink:href="#DejaVuSans-Bold-48" transform="translate(1079.40625 0)"/>
     <use xlink:href="#DejaVuSans-Bold-4f" transform="translate(1147.234375 0)"/>
     <use xlink:href="#DejaVuSans-Bold-57" transform="translate(1181.515625 0)"/>
     <use xlink:href="#DejaVuSans-Bold-48" transform="translate(1229.3125 0)"/>
     <use xlink:href="#DejaVuSans-Bold-c" transform="translate(1297.140625 0)"/>
     <use xlink:href="#DejaVuSans-Bold-3" transform="translate(1342.84375 0)"/>
     <use xlink:href="#DejaVuSans-Bold-af6" transform="translate(1377.65625 0)"/>
     <use xlink:href="#DejaVuSans-Bold-3" transform="translate(1477.65625 0)"/>
     <use xlink:href="#DejaVuSans-Bold-7" transform="translate(1512.46875 0)"/>
     <use xlink:href="#DejaVuSans-Bold-16" transform="translate(1582.046875 0)"/>
     <use xlink:href="#DejaVuSans-Bold-14" transform="translate(1651.625 0)"/>
     <use xlink:href="#DejaVuSans-Bold-14" transform="translate(1721.203125 0)"/>
     <use xlink:href="#DejaVuSans-Bold-11" transform="translate(1790.78125 0)"/>
     <use xlink:href="#DejaVuSans-Bold-13" transform="translate(1828.765625 0)"/>
     <use xlink:href="#DejaVuSans-Bold-16" transform="translate(1898.34375 0)"/>
     <use xlink:href="#DejaVuSans-Bold-3" transform="translate(1967.921875 0)"/>
     <use xlink:href="#DejaVuSans-Bold-b" transform="translate(2002.734375 0)"/>
     <use xlink:href="#DejaVuSans-Bold-10" transform="translate(2048.4375 0)"/>
     <use xlink:href="#DejaVuSans-Bold-14" transform="translate(2089.9375 0)"/>
     <use xlink:href="#DejaVuSans-Bold-15" transform="translate(2159.515625 0)"/>
     <use xlink:href="#DejaVuSans-Bold-11" transform="translate(2229.09375 0)"/>
     <use xlink:href="#DejaVuSans-Bold-18" transform="translate(2267.078125 0)"/>
     <use xlink:href="#DejaVuSans-Bold-16" transform="translate(2336.65625 0)"/>
     <use xlink:href="#DejaVuSans-Bold-8" transform="translate(2406.234375 0)"/>
     <use xlink:href="#DejaVuSans-Bold-c" transform="translate(2506.4375 0)"/>
    </g>
   </g>
  </g>
 </g>
 <defs>
  <clipPath id="p921a2b28ea">
   <rect x="34.56" y="21.558281" width="383.24" height="128.76"/>
  </clipPath>
 </defs>
</svg>
