<?xml version="1.0" encoding="utf-8" standalone="no"?>
<!DOCTYPE svg PUBLIC "-//W3C//DTD SVG 1.1//EN"
  "http://www.w3.org/Graphics/SVG/1.1/DTD/svg11.dtd">
<svg xmlns:xlink="http://www.w3.org/1999/xlink" width="425pt" height="172.518281pt" viewBox="0 0 425 172.518281" xmlns="http://www.w3.org/2000/svg" version="1.1">
 <metadata>
  <rdf:RDF xmlns:dc="http://purl.org/dc/elements/1.1/" xmlns:cc="http://creativecommons.org/ns#" xmlns:rdf="http://www.w3.org/1999/02/22-rdf-syntax-ns#">
   <cc:Work>
    <dc:type rdf:resource="http://purl.org/dc/dcmitype/StillImage"/>
    <dc:date>2026-07-01T08:10:32.678845</dc:date>
    <dc:format>image/svg+xml</dc:format>
    <dc:creator>
     <cc:Agent>
      <dc:title>Matplotlib v3.11.0, https://matplotlib.org/</dc:title>
     </cc:Agent>
    </dc:creator>
   </cc:Work>
  </rdf:RDF>
 </metadata>
 <defs>
  <style type="text/css">*{stroke-linejoin: round; stroke-linecap: butt}</style>
 </defs>
 <g id="figure_1">
  <g id="patch_1">
   <path d="M 0 172.518281 
L 425 172.518281 
L 425 0 
L 0 0 
z
" style="fill: #0d1117"/>
  </g>
  <g id="axes_1">
   <g id="patch_2">
    <path d="M 34.56 150.318281 
L 417.8 150.318281 
L 417.8 21.558281 
L 34.56 21.558281 
z
" style="fill: #0d1117"/>
   </g>
   <g id="FillBetweenPolyCollection_1">
    <defs>
     <path id="m8bb1c6cc45" d="M 51.98 -28.052727 
L 51.98 -118.391472 
L 55.266792 -103.231092 
L 58.553585 -110.097399 
L 61.840377 -108.334909 
L 65.12717 -107.650648 
L 68.413962 -107.740994 
L 71.700755 -107.14856 
L 74.987547 -110.288459 
L 78.27434 -107.03896 
L 81.561132 -109.288727 
L 84.847925 -119.906621 
L 88.134717 -116.252786 
L 91.421509 -99.435072 
L 94.708302 -107.985373 
L 97.995094 -105.963692 
L 101.281887 -105.366815 
L 104.568679 -109.143581 
L 107.855472 -113.166206 
L 111.142264 -113.053644 
L 114.429057 -113.340974 
L 117.715849 -113.278768 
L 121.002642 -110.159605 
L 124.289434 -114.029678 
L 127.576226 -111.292634 
L 130.863019 -113.247666 
L 134.149811 -110.686871 
L 137.436604 -113.797148 
L 140.723396 -112.301253 
L 144.010189 -107.416636 
L 147.296981 -112.321988 
L 150.583774 -110.230697 
L 153.870566 -111.039369 
L 157.157358 -107.829859 
L 160.444151 -87.205758 
L 163.730943 -87.158363 
L 167.017736 -86.592589 
L 170.304528 -97.311197 
L 173.591321 -98.624919 
L 176.878113 -104.995063 
L 180.164906 -121.315133 
L 183.451698 -124.496502 
L 186.738491 -129.483313 
L 190.025283 -100.787302 
L 193.312075 -108.591136 
L 196.598868 -104.00718 
L 199.88566 -111.242277 
L 203.172453 -108.383784 
L 206.459245 -109.927074 
L 209.746038 -111.223023 
L 213.03283 -109.182089 
L 216.319623 -109.870793 
L 219.606415 -94.891105 
L 222.893208 -113.195828 
L 226.18 -109.996685 
L 229.466792 -109.663441 
L 232.753585 -109.580501 
L 236.040377 -111.513316 
L 239.32717 -109.624933 
L 242.613962 -108.894759 
L 245.900755 -85.998674 
L 249.187547 -91.82526 
L 252.47434 -85.495106 
L 255.761132 -113.127698 
L 259.047925 -111.577002 
L 262.334717 -109.943366 
L 265.621509 -122.037902 
L 268.908302 -119.807389 
L 272.195094 -125.222233 
L 275.481887 -121.589133 
L 278.768679 -122.907298 
L 282.055472 -144.488179 
L 285.342264 -103.316995 
L 288.629057 -108.925861 
L 291.915849 -110.266243 
L 295.202642 -111.239315 
L 298.489434 -106.719045 
L 301.776226 -101.718904 
L 305.063019 -110.885336 
L 308.349811 -109.259105 
L 311.636604 -111.784354 
L 314.923396 -95.363571 
L 318.210189 -116.778571 
L 321.496981 -106.72497 
L 324.783774 -112.396042 
L 328.070566 -112.012441 
L 331.357358 -109.687139 
L 334.644151 -109.531625 
L 337.930943 -103.907947 
L 341.217736 -110.914958 
L 344.504528 -108.166065 
L 347.791321 -109.376111 
L 351.078113 -106.293974 
L 354.364906 -109.687139 
L 357.651698 -126.661847 
L 360.938491 -145.107273 
L 364.225283 -103.410303 
L 367.512075 -102.872669 
L 370.798868 -106.993046 
L 374.08566 -104.398186 
L 377.372453 -111.972452 
L 380.659245 -104.042726 
L 383.946038 -90.193105 
L 387.23283 -112.050949 
L 390.519623 -111.194883 
L 393.806415 -111.310407 
L 397.093208 -101.71298 
L 400.38 -107.643242 
L 400.38 -28.052727 
L 400.38 -28.052727 
L 397.093208 -28.052727 
L 393.806415 -28.052727 
L 390.519623 -28.052727 
L 387.23283 -28.052727 
L 383.946038 -28.052727 
L 380.659245 -28.052727 
L 377.372453 -28.052727 
L 374.08566 -28.052727 
L 370.798868 -28.052727 
L 367.512075 -28.052727 
L 364.225283 -28.052727 
L 360.938491 -28.052727 
L 357.651698 -28.052727 
L 354.364906 -28.052727 
L 351.078113 -28.052727 
L 347.791321 -28.052727 
L 344.504528 -28.052727 
L 341.217736 -28.052727 
L 337.930943 -28.052727 
L 334.644151 -28.052727 
L 331.357358 -28.052727 
L 328.070566 -28.052727 
L 324.783774 -28.052727 
L 321.496981 -28.052727 
L 318.210189 -28.052727 
L 314.923396 -28.052727 
L 311.636604 -28.052727 
L 308.349811 -28.052727 
L 305.063019 -28.052727 
L 301.776226 -28.052727 
L 298.489434 -28.052727 
L 295.202642 -28.052727 
L 291.915849 -28.052727 
L 288.629057 -28.052727 
L 285.342264 -28.052727 
L 282.055472 -28.052727 
L 278.768679 -28.052727 
L 275.481887 -28.052727 
L 272.195094 -28.052727 
L 268.908302 -28.052727 
L 265.621509 -28.052727 
L 262.334717 -28.052727 
L 259.047925 -28.052727 
L 255.761132 -28.052727 
L 252.47434 -28.052727 
L 249.187547 -28.052727 
L 245.900755 -28.052727 
L 242.613962 -28.052727 
L 239.32717 -28.052727 
L 236.040377 -28.052727 
L 232.753585 -28.052727 
L 229.466792 -28.052727 
L 226.18 -28.052727 
L 222.893208 -28.052727 
L 219.606415 -28.052727 
L 216.319623 -28.052727 
L 213.03283 -28.052727 
L 209.746038 -28.052727 
L 206.459245 -28.052727 
L 203.172453 -28.052727 
L 199.88566 -28.052727 
L 196.598868 -28.052727 
L 193.312075 -28.052727 
L 190.025283 -28.052727 
L 186.738491 -28.052727 
L 183.451698 -28.052727 
L 180.164906 -28.052727 
L 176.878113 -28.052727 
L 173.591321 -28.052727 
L 170.304528 -28.052727 
L 167.017736 -28.052727 
L 163.730943 -28.052727 
L 160.444151 -28.052727 
L 157.157358 -28.052727 
L 153.870566 -28.052727 
L 150.583774 -28.052727 
L 147.296981 -28.052727 
L 144.010189 -28.052727 
L 140.723396 -28.052727 
L 137.436604 -28.052727 
L 134.149811 -28.052727 
L 130.863019 -28.052727 
L 127.576226 -28.052727 
L 124.289434 -28.052727 
L 121.002642 -28.052727 
L 117.715849 -28.052727 
L 114.429057 -28.052727 
L 111.142264 -28.052727 
L 107.855472 -28.052727 
L 104.568679 -28.052727 
L 101.281887 -28.052727 
L 97.995094 -28.052727 
L 94.708302 -28.052727 
L 91.421509 -28.052727 
L 88.134717 -28.052727 
L 84.847925 -28.052727 
L 81.561132 -28.052727 
L 78.27434 -28.052727 
L 74.987547 -28.052727 
L 71.700755 -28.052727 
L 68.413962 -28.052727 
L 65.12717 -28.052727 
L 61.840377 -28.052727 
L 58.553585 -28.052727 
L 55.266792 -28.052727 
L 51.98 -28.052727 
z
" style="stroke: #f85149; stroke-opacity: 0.15"/>
    </defs>
    <g clip-path="url(#p78949ce512)">
     <use xlink:href="#m8bb1c6cc45" x="0" y="172.518281" style="fill: #f85149; fill-opacity: 0.15; stroke: #f85149; stroke-opacity: 0.15"/>
    </g>
   </g>
   <g id="matplotlib.axis_1">
    <g id="xtick_1">
     <g id="line2d_1">
      <path d="M 51.98 150.318281 
L 51.98 21.558281 
" clip-path="url(#p78949ce512)" style="fill: none; stroke: #21262d; stroke-opacity: 0.5; stroke-width: 0.5; stroke-linecap: square"/>
     </g>
     <g id="line2d_2">
      <defs>
       <path id="m0e999395b5" d="M 0 0 
L 0 3.5 
" style="stroke: #c9d1d9; stroke-width: 0.8"/>
      </defs>
      <g>
       <use xlink:href="#m0e999395b5" x="51.98" y="150.318281" style="fill: #c9d1d9; stroke: #c9d1d9; stroke-width: 0.8"/>
      </g>
     </g>
     <g id="text_1">
      <!-- 0 -->
      <g style="fill: #c9d1d9" transform="translate(49.435 163.396406) scale(0.08 -0.08)">
       <defs>
        <path id="DejaVuSans-13" d="M 2034 4250 
Q 1547 4250 1301 3770 
Q 1056 3291 1056 2328 
Q 1056 1369 1301 889 
Q 1547 409 2034 409 
Q 2525 409 2770 889 
Q 3016 1369 3016 2328 
Q 3016 3291 2770 3770 
Q 2525 4250 2034 4250 
z
M 2034 4750 
Q 2819 4750 3233 4129 
Q 3647 3509 3647 2328 
Q 3647 1150 3233 529 
Q 2819 -91 2034 -91 
Q 1250 -91 836 529 
Q 422 1150 422 2328 
Q 422 3509 836 4129 
Q 1250 4750 2034 4750 
z
" transform="scale(0.015625)"/>
       </defs>
       <use xlink:href="#DejaVuSans-13"/>
      </g>
     </g>
    </g>
    <g id="xtick_2">
     <g id="line2d_3">
      <path d="M 117.715849 150.318281 
L 117.715849 21.558281 
" clip-path="url(#p78949ce512)" style="fill: none; stroke: #21262d; stroke-opacity: 0.5; stroke-width: 0.5; stroke-linecap: square"/>
     </g>
     <g id="line2d_4">
      <g>
       <use xlink:href="#m0e999395b5" x="117.715849" y="150.318281" style="fill: #c9d1d9; stroke: #c9d1d9; stroke-width: 0.8"/>
      </g>
     </g>
     <g id="text_2">
      <!-- 20 -->
      <g style="fill: #c9d1d9" transform="translate(112.625849 163.396406) scale(0.08 -0.08)">
       <defs>
        <path id="DejaVuSans-15" d="M 1228 531 
L 3431 531 
L 3431 0 
L 469 0 
L 469 531 
Q 828 903 1448 1529 
Q 2069 2156 2228 2338 
Q 2531 2678 2651 2914 
Q 2772 3150 2772 3378 
Q 2772 3750 2511 3984 
Q 2250 4219 1831 4219 
Q 1534 4219 1204 4116 
Q 875 4013 500 3803 
L 500 4441 
Q 881 4594 1212 4672 
Q 1544 4750 1819 4750 
Q 2544 4750 2975 4387 
Q 3406 4025 3406 3419 
Q 3406 3131 3298 2873 
Q 3191 2616 2906 2266 
Q 2828 2175 2409 1742 
Q 1991 1309 1228 531 
z
" transform="scale(0.015625)"/>
       </defs>
       <use xlink:href="#DejaVuSans-15"/>
       <use xlink:href="#DejaVuSans-13" transform="translate(63.625 0)"/>
      </g>
     </g>
    </g>
    <g id="xtick_3">
     <g id="line2d_5">
      <path d="M 183.451698 150.318281 
L 183.451698 21.558281 
" clip-path="url(#p78949ce512)" style="fill: none; stroke: #21262d; stroke-opacity: 0.5; stroke-width: 0.5; stroke-linecap: square"/>
     </g>
     <g id="line2d_6">
      <g>
       <use xlink:href="#m0e999395b5" x="183.451698" y="150.318281" style="fill: #c9d1d9; stroke: #c9d1d9; stroke-width: 0.8"/>
      </g>
     </g>
     <g id="text_3">
      <!-- 40 -->
      <g style="fill: #c9d1d9" transform="translate(178.361698 163.396406) scale(0.08 -0.08)">
       <defs>
        <path id="DejaVuSans-17" d="M 2419 4116 
L 825 1625 
L 2419 1625 
L 2419 4116 
z
M 2253 4666 
L 3047 4666 
L 3047 1625 
L 3713 1625 
L 3713 1100 
L 3047 1100 
L 3047 0 
L 2419 0 
L 2419 1100 
L 313 1100 
L 313 1709 
L 2253 4666 
z
" transform="scale(0.015625)"/>
       </defs>
       <use xlink:href="#DejaVuSans-17"/>
       <use xlink:href="#DejaVuSans-13" transform="translate(63.625 0)"/>
      </g>
     </g>
    </g>
    <g id="xtick_4">
     <g id="line2d_7">
      <path d="M 249.187547 150.318281 
L 249.187547 21.558281 
" clip-path="url(#p78949ce512)" style="fill: none; stroke: #21262d; stroke-opacity: 0.5; stroke-width: 0.5; stroke-linecap: square"/>
     </g>
     <g id="line2d_8">
      <g>
       <use xlink:href="#m0e999395b5" x="249.187547" y="150.318281" style="fill: #c9d1d9; stroke: #c9d1d9; stroke-width: 0.8"/>
      </g>
     </g>
     <g id="text_4">
      <!-- 60 -->
      <g style="fill: #c9d1d9" transform="translate(244.097547 163.396406) scale(0.08 -0.08)">
       <defs>
        <path id="DejaVuSans-19" d="M 2113 2584 
Q 1688 2584 1439 2293 
Q 1191 2003 1191 1497 
Q 1191 994 1439 701 
Q 1688 409 2113 409 
Q 2538 409 2786 701 
Q 3034 994 3034 1497 
Q 3034 2003 2786 2293 
Q 2538 2584 2113 2584 
z
M 3366 4563 
L 3366 3988 
Q 3128 4100 2886 4159 
Q 2644 4219 2406 4219 
Q 1781 4219 1451 3797 
Q 1122 3375 1075 2522 
Q 1259 2794 1537 2939 
Q 1816 3084 2150 3084 
Q 2853 3084 3261 2657 
Q 3669 2231 3669 1497 
Q 3669 778 3244 343 
Q 2819 -91 2113 -91 
Q 1303 -91 875 529 
Q 447 1150 447 2328 
Q 447 3434 972 4092 
Q 1497 4750 2381 4750 
Q 2619 4750 2861 4703 
Q 3103 4656 3366 4563 
z
" transform="scale(0.015625)"/>
       </defs>
       <use xlink:href="#DejaVuSans-19"/>
       <use xlink:href="#DejaVuSans-13" transform="translate(63.625 0)"/>
      </g>
     </g>
    </g>
    <g id="xtick_5">
     <g id="line2d_9">
      <path d="M 314.923396 150.318281 
L 314.923396 21.558281 
" clip-path="url(#p78949ce512)" style="fill: none; stroke: #21262d; stroke-opacity: 0.5; stroke-width: 0.5; stroke-linecap: square"/>
     </g>
     <g id="line2d_10">
      <g>
       <use xlink:href="#m0e999395b5" x="314.923396" y="150.318281" style="fill: #c9d1d9; stroke: #c9d1d9; stroke-width: 0.8"/>
      </g>
     </g>
     <g id="text_5">
      <!-- 80 -->
      <g style="fill: #c9d1d9" transform="translate(309.833396 163.396406) scale(0.08 -0.08)">
       <defs>
        <path id="DejaVuSans-1b" d="M 2034 2216 
Q 1584 2216 1326 1975 
Q 1069 1734 1069 1313 
Q 1069 891 1326 650 
Q 1584 409 2034 409 
Q 2484 409 2743 651 
Q 3003 894 3003 1313 
Q 3003 1734 2745 1975 
Q 2488 2216 2034 2216 
z
M 1403 2484 
Q 997 2584 770 2862 
Q 544 3141 544 3541 
Q 544 4100 942 4425 
Q 1341 4750 2034 4750 
Q 2731 4750 3128 4425 
Q 3525 4100 3525 3541 
Q 3525 3141 3298 2862 
Q 3072 2584 2669 2484 
Q 3125 2378 3379 2068 
Q 3634 1759 3634 1313 
Q 3634 634 3220 271 
Q 2806 -91 2034 -91 
Q 1263 -91 848 271 
Q 434 634 434 1313 
Q 434 1759 690 2068 
Q 947 2378 1403 2484 
z
M 1172 3481 
Q 1172 3119 1398 2916 
Q 1625 2713 2034 2713 
Q 2441 2713 2670 2916 
Q 2900 3119 2900 3481 
Q 2900 3844 2670 4047 
Q 2441 4250 2034 4250 
Q 1625 4250 1398 4047 
Q 1172 3844 1172 3481 
z
" transform="scale(0.015625)"/>
       </defs>
       <use xlink:href="#DejaVuSans-1b"/>
       <use xlink:href="#DejaVuSans-13" transform="translate(63.625 0)"/>
      </g>
     </g>
    </g>
    <g id="xtick_6">
     <g id="line2d_11">
      <path d="M 380.659245 150.318281 
L 380.659245 21.558281 
" clip-path="url(#p78949ce512)" style="fill: none; stroke: #21262d; stroke-opacity: 0.5; stroke-width: 0.5; stroke-linecap: square"/>
     </g>
     <g id="line2d_12">
      <g>
       <use xlink:href="#m0e999395b5" x="380.659245" y="150.318281" style="fill: #c9d1d9; stroke: #c9d1d9; stroke-width: 0.8"/>
      </g>
     </g>
     <g id="text_6">
      <!-- 100 -->
      <g style="fill: #c9d1d9" transform="translate(373.024245 163.396406) scale(0.08 -0.08)">
       <defs>
        <path id="DejaVuSans-14" d="M 794 531 
L 1825 531 
L 1825 4091 
L 703 3866 
L 703 4441 
L 1819 4666 
L 2450 4666 
L 2450 531 
L 3481 531 
L 3481 0 
L 794 0 
L 794 531 
z
" transform="scale(0.015625)"/>
       </defs>
       <use xlink:href="#DejaVuSans-14"/>
       <use xlink:href="#DejaVuSans-13" transform="translate(63.625 0)"/>
       <use xlink:href="#DejaVuSans-13" transform="translate(127.25 0)"/>
      </g>
     </g>
    </g>
   </g>
   <g id="matplotlib.axis_2">
    <g id="ytick_1">
     <g id="line2d_13">
      <path d="M 34.56 144.465554 
L 417.8 144.465554 
" clip-path="url(#p78949ce512)" style="fill: none; stroke: #21262d; stroke-opacity: 0.5; stroke-width: 0.5; stroke-linecap: square"/>
     </g>
     <g id="line2d_14">
      <defs>
       <path id="m15c509d740" d="M 0 0 
L -3.5 0 
" style="stroke: #c9d1d9; stroke-width: 0.8"/>
      </defs>
      <g>
       <use xlink:href="#m15c509d740" x="34.56" y="144.465554" style="fill: #c9d1d9; stroke: #c9d1d9; stroke-width: 0.8"/>
      </g>
     </g>
     <g id="text_7">
      <!-- $0 -->
      <g style="fill: #c9d1d9" transform="translate(17.38 147.504929) scale(0.08 -0.08)">
       <defs>
        <path id="DejaVuSans-7" d="M 2163 -941 
L 1850 -941 
L 1847 0 
Q 1519 6 1191 76 
Q 863 147 531 288 
L 531 850 
Q 850 650 1176 548 
Q 1503 447 1850 444 
L 1850 1869 
Q 1159 1981 845 2250 
Q 531 2519 531 2988 
Q 531 3497 872 3790 
Q 1213 4084 1850 4128 
L 1850 4863 
L 2163 4863 
L 2163 4138 
Q 2453 4125 2725 4076 
Q 2997 4028 3256 3944 
L 3256 3397 
Q 2997 3528 2723 3600 
Q 2450 3672 2163 3684 
L 2163 2350 
Q 2872 2241 3206 1959 
Q 3541 1678 3541 1191 
Q 3541 663 3186 358 
Q 2831 53 2163 6 
L 2163 -941 
z
M 1850 2406 
L 1850 3688 
Q 1488 3647 1297 3481 
Q 1106 3316 1106 3041 
Q 1106 2772 1282 2622 
Q 1459 2472 1850 2406 
z
M 2163 1806 
L 2163 453 
Q 2559 506 2761 678 
Q 2963 850 2963 1131 
Q 2963 1406 2770 1568 
Q 2578 1731 2163 1806 
z
" transform="scale(0.015625)"/>
       </defs>
       <use xlink:href="#DejaVuSans-7"/>
       <use xlink:href="#DejaVuSans-13" transform="translate(63.625 0)"/>
      </g>
     </g>
    </g>
    <g id="ytick_2">
     <g id="line2d_15">
      <path d="M 34.56 114.843865 
L 417.8 114.843865 
" clip-path="url(#p78949ce512)" style="fill: none; stroke: #21262d; stroke-opacity: 0.5; stroke-width: 0.5; stroke-linecap: square"/>
     </g>
     <g id="line2d_16">
      <g>
       <use xlink:href="#m15c509d740" x="34.56" y="114.843865" style="fill: #c9d1d9; stroke: #c9d1d9; stroke-width: 0.8"/>
      </g>
     </g>
     <g id="text_8">
      <!-- $200 -->
      <g style="fill: #c9d1d9" transform="translate(7.2 117.88324) scale(0.08 -0.08)">
       <use xlink:href="#DejaVuSans-7"/>
       <use xlink:href="#DejaVuSans-15" transform="translate(63.625 0)"/>
       <use xlink:href="#DejaVuSans-13" transform="translate(127.25 0)"/>
       <use xlink:href="#DejaVuSans-13" transform="translate(190.875 0)"/>
      </g>
     </g>
    </g>
    <g id="ytick_3">
     <g id="line2d_17">
      <path d="M 34.56 85.222177 
L 417.8 85.222177 
" clip-path="url(#p78949ce512)" style="fill: none; stroke: #21262d; stroke-opacity: 0.5; stroke-width: 0.5; stroke-linecap: square"/>
     </g>
     <g id="line2d_18">
      <g>
       <use xlink:href="#m15c509d740" x="34.56" y="85.222177" style="fill: #c9d1d9; stroke: #c9d1d9; stroke-width: 0.8"/>
      </g>
     </g>
     <g id="text_9">
      <!-- $400 -->
      <g style="fill: #c9d1d9" transform="translate(7.2 88.261552) scale(0.08 -0.08)">
       <use xlink:href="#DejaVuSans-7"/>
       <use xlink:href="#DejaVuSans-17" transform="translate(63.625 0)"/>
       <use xlink:href="#DejaVuSans-13" transform="translate(127.25 0)"/>
       <use xlink:href="#DejaVuSans-13" transform="translate(190.875 0)"/>
      </g>
     </g>
    </g>
    <g id="ytick_4">
     <g id="line2d_19">
      <path d="M 34.56 55.600488 
L 417.8 55.600488 
" clip-path="url(#p78949ce512)" style="fill: none; stroke: #21262d; stroke-opacity: 0.5; stroke-width: 0.5; stroke-linecap: square"/>
     </g>
     <g id="line2d_20">
      <g>
       <use xlink:href="#m15c509d740" x="34.56" y="55.600488" style="fill: #c9d1d9; stroke: #c9d1d9; stroke-width: 0.8"/>
      </g>
     </g>
     <g id="text_10">
      <!-- $600 -->
      <g style="fill: #c9d1d9" transform="translate(7.2 58.639863) scale(0.08 -0.08)">
       <use xlink:href="#DejaVuSans-7"/>
       <use xlink:href="#DejaVuSans-19" transform="translate(63.625 0)"/>
       <use xlink:href="#DejaVuSans-13" transform="translate(127.25 0)"/>
       <use xlink:href="#DejaVuSans-13" transform="translate(190.875 0)"/>
      </g>
     </g>
    </g>
    <g id="ytick_5">
     <g id="line2d_21">
      <path d="M 34.56 25.9788 
L 417.8 25.9788 
" clip-path="url(#p78949ce512)" style="fill: none; stroke: #21262d; stroke-opacity: 0.5; stroke-width: 0.5; stroke-linecap: square"/>
     </g>
     <g id="line2d_22">
      <g>
       <use xlink:href="#m15c509d740" x="34.56" y="25.9788" style="fill: #c9d1d9; stroke: #c9d1d9; stroke-width: 0.8"/>
      </g>
     </g>
     <g id="text_11">
      <!-- $800 -->
      <g style="fill: #c9d1d9" transform="translate(7.2 29.018175) scale(0.08 -0.08)">
       <use xlink:href="#DejaVuSans-7"/>
       <use xlink:href="#DejaVuSans-1b" transform="translate(63.625 0)"/>
       <use xlink:href="#DejaVuSans-13" transform="translate(127.25 0)"/>
       <use xlink:href="#DejaVuSans-13" transform="translate(190.875 0)"/>
      </g>
     </g>
    </g>
   </g>
   <g id="line2d_23">
    <path d="M 51.98 54.126809 
L 55.266792 69.28719 
L 58.553585 62.420882 
L 61.840377 64.183373 
L 65.12717 64.867634 
L 68.413962 64.777288 
L 71.700755 65.369721 
L 74.987547 62.229822 
L 78.27434 65.479322 
L 81.561132 63.229554 
L 84.847925 52.61166 
L 88.134717 56.265495 
L 91.421509 73.083209 
L 94.708302 64.532909 
L 97.995094 66.554589 
L 101.281887 67.151466 
L 104.568679 63.374701 
L 107.855472 59.352075 
L 111.142264 59.464638 
L 114.429057 59.177307 
L 117.715849 59.239513 
L 121.002642 62.358677 
L 124.289434 58.488603 
L 127.576226 61.225647 
L 130.863019 59.270616 
L 134.149811 61.831411 
L 137.436604 58.721133 
L 140.723396 60.217029 
L 144.010189 65.101645 
L 147.296981 60.196293 
L 150.583774 62.287585 
L 153.870566 61.478912 
L 157.157358 64.688422 
L 160.444151 85.312523 
L 163.730943 85.359918 
L 167.017736 85.925692 
L 170.304528 75.207084 
L 173.591321 73.893362 
L 176.878113 67.523218 
L 180.164906 51.203149 
L 183.451698 48.021779 
L 186.738491 43.034968 
L 190.025283 71.730979 
L 193.312075 63.927145 
L 196.598868 68.511101 
L 199.88566 61.276004 
L 203.172453 64.134497 
L 206.459245 62.591207 
L 209.746038 61.295258 
L 213.03283 63.336192 
L 216.319623 62.647488 
L 219.606415 77.627176 
L 222.893208 59.322454 
L 226.18 62.521596 
L 229.466792 62.85484 
L 232.753585 62.937781 
L 236.040377 61.004965 
L 239.32717 62.893348 
L 242.613962 63.623523 
L 245.900755 86.519607 
L 249.187547 80.693021 
L 252.47434 87.023176 
L 255.761132 59.390583 
L 259.047925 60.941279 
L 262.334717 62.574915 
L 265.621509 50.48038 
L 268.908302 52.710893 
L 272.195094 47.296048 
L 275.481887 50.929148 
L 278.768679 49.610983 
L 282.055472 28.030102 
L 285.342264 69.201287 
L 288.629057 63.59242 
L 291.915849 62.252039 
L 295.202642 61.278966 
L 298.489434 65.799236 
L 301.776226 70.799377 
L 305.063019 61.632945 
L 308.349811 63.259176 
L 311.636604 60.733927 
L 314.923396 77.15471 
L 318.210189 55.73971 
L 321.496981 65.793311 
L 324.783774 60.122239 
L 328.070566 60.50584 
L 331.357358 62.831143 
L 334.644151 62.986656 
L 337.930943 68.610334 
L 341.217736 61.603324 
L 344.504528 64.352216 
L 347.791321 63.14217 
L 351.078113 66.224307 
L 354.364906 62.831143 
L 357.651698 45.856434 
L 360.938491 27.411009 
L 364.225283 69.107978 
L 367.512075 69.645612 
L 370.798868 65.525235 
L 374.08566 68.120095 
L 377.372453 60.545829 
L 380.659245 68.475555 
L 383.946038 82.325176 
L 387.23283 60.467332 
L 390.519623 61.323399 
L 393.806415 61.207874 
L 397.093208 70.805301 
L 400.38 64.875039 
" clip-path="url(#p78949ce512)" style="fill: none; stroke: #f85149; stroke-width: 2; stroke-linecap: square"/>
   </g>
   <g id="patch_3">
    <path d="M 34.56 150.318281 
L 34.56 21.558281 
" style="fill: none; stroke: #21262d; stroke-width: 0.8; stroke-linejoin: miter; stroke-linecap: square"/>
   </g>
   <g id="patch_4">
    <path d="M 34.56 150.318281 
L 417.8 150.318281 
" style="fill: none; stroke: #21262d; stroke-width: 0.8; stroke-linejoin: miter; stroke-linecap: square"/>
   </g>
   <g id="text_12">
    <!-- NEXTJS (vercel/next.js) — $537.38 (+8.05%) -->
    <g style="fill: #c9d1d9" transform="translate(89.883984 15.558281) scale(0.11 -0.11)">
     <defs>
      <path id="DejaVuSans-Bold-31" d="M 588 4666 
L 1931 4666 
L 3628 1466 
L 3628 4666 
L 4769 4666 
L 4769 0 
L 3425 0 
L 1728 3200 
L 1728 0 
L 588 0 
L 588 4666 
z
" transform="scale(0.015625)"/>
      <path id="DejaVuSans-Bold-28" d="M 588 4666 
L 3834 4666 
L 3834 3756 
L 1791 3756 
L 1791 2888 
L 3713 2888 
L 3713 1978 
L 1791 1978 
L 1791 909 
L 3903 909 
L 3903 0 
L 588 0 
L 588 4666 
z
" transform="scale(0.015625)"/>
      <path id="DejaVuSans-Bold-3b" d="M 3188 2381 
L 4806 0 
L 3553 0 
L 2463 1594 
L 1381 0 
L 122 0 
L 1741 2381 
L 184 4666 
L 1441 4666 
L 2463 3163 
L 3481 4666 
L 4744 4666 
L 3188 2381 
z
" transform="scale(0.015625)"/>
      <path id="DejaVuSans-Bold-37" d="M 31 4666 
L 4331 4666 
L 4331 3756 
L 2784 3756 
L 2784 0 
L 1581 0 
L 1581 3756 
L 31 3756 
L 31 4666 
z
" transform="scale(0.015625)"/>
      <path id="DejaVuSans-Bold-2d" d="M 588 4666 
L 1791 4666 
L 1791 453 
Q 1791 -419 1317 -850 
Q 844 -1281 -116 -1281 
L -359 -1281 
L -359 -372 
L -172 -372 
Q 203 -372 395 -162 
Q 588 47 588 453 
L 588 4666 
z
" transform="scale(0.015625)"/>
      <path id="DejaVuSans-Bold-36" d="M 3834 4519 
L 3834 3531 
Q 3450 3703 3084 3790 
Q 2719 3878 2394 3878 
Q 1963 3878 1756 3759 
Q 1550 3641 1550 3391 
Q 1550 3203 1689 3098 
Q 1828 2994 2194 2919 
L 2706 2816 
Q 3484 2659 3812 2340 
Q 4141 2022 4141 1434 
Q 4141 663 3683 286 
Q 3225 -91 2284 -91 
Q 1841 -91 1394 -6 
Q 947 78 500 244 
L 500 1259 
Q 947 1022 1364 901 
Q 1781 781 2169 781 
Q 2563 781 2772 912 
Q 2981 1044 2981 1288 
Q 2981 1506 2839 1625 
Q 2697 1744 2272 1838 
L 1806 1941 
Q 1106 2091 782 2419 
Q 459 2747 459 3303 
Q 459 4000 909 4375 
Q 1359 4750 2203 4750 
Q 2588 4750 2994 4692 
Q 3400 4634 3834 4519 
z
" transform="scale(0.015625)"/>
      <path id="DejaVuSans-Bold-3" transform="scale(0.015625)"/>
      <path id="DejaVuSans-Bold-b" d="M 2413 -844 
L 1484 -844 
Q 1006 -72 778 623 
Q 550 1319 550 2003 
Q 550 2688 779 3389 
Q 1009 4091 1484 4856 
L 2413 4856 
Q 2013 4116 1813 3408 
Q 1613 2700 1613 2009 
Q 1613 1319 1811 609 
Q 2009 -100 2413 -844 
z
" transform="scale(0.015625)"/>
      <path id="DejaVuSans-Bold-59" d="M 97 3500 
L 1216 3500 
L 2088 1081 
L 2956 3500 
L 4078 3500 
L 2700 0 
L 1472 0 
L 97 3500 
z
" transform="scale(0.015625)"/>
      <path id="DejaVuSans-Bold-48" d="M 4031 1759 
L 4031 1441 
L 1416 1441 
Q 1456 1047 1700 850 
Q 1944 653 2381 653 
Q 2734 653 3104 758 
Q 3475 863 3866 1075 
L 3866 213 
Q 3469 63 3072 -14 
Q 2675 -91 2278 -91 
Q 1328 -91 801 392 
Q 275 875 275 1747 
Q 275 2603 792 3093 
Q 1309 3584 2216 3584 
Q 3041 3584 3536 3087 
Q 4031 2591 4031 1759 
z
M 2881 2131 
Q 2881 2450 2695 2645 
Q 2509 2841 2209 2841 
Q 1884 2841 1681 2658 
Q 1478 2475 1428 2131 
L 2881 2131 
z
" transform="scale(0.015625)"/>
      <path id="DejaVuSans-Bold-55" d="M 3138 2547 
Q 2991 2616 2845 2648 
Q 2700 2681 2553 2681 
Q 2122 2681 1889 2404 
Q 1656 2128 1656 1613 
L 1656 0 
L 538 0 
L 538 3500 
L 1656 3500 
L 1656 2925 
Q 1872 3269 2151 3426 
Q 2431 3584 2822 3584 
Q 2878 3584 2943 3579 
Q 3009 3575 3134 3559 
L 3138 2547 
z
" transform="scale(0.015625)"/>
      <path id="DejaVuSans-Bold-46" d="M 3366 3391 
L 3366 2478 
Q 3138 2634 2908 2709 
Q 2678 2784 2431 2784 
Q 1963 2784 1702 2511 
Q 1441 2238 1441 1747 
Q 1441 1256 1702 982 
Q 1963 709 2431 709 
Q 2694 709 2930 787 
Q 3166 866 3366 1019 
L 3366 103 
Q 3103 6 2833 -42 
Q 2563 -91 2291 -91 
Q 1344 -91 809 395 
Q 275 881 275 1747 
Q 275 2613 809 3098 
Q 1344 3584 2291 3584 
Q 2566 3584 2833 3536 
Q 3100 3488 3366 3391 
z
" transform="scale(0.015625)"/>
      <path id="DejaVuSans-Bold-4f" d="M 538 4863 
L 1656 4863 
L 1656 0 
L 538 0 
L 538 4863 
z
" transform="scale(0.015625)"/>
      <path id="DejaVuSans-Bold-12" d="M 1644 4666 
L 2338 4666 
L 691 -594 
L 0 -594 
L 1644 4666 
z
" transform="scale(0.015625)"/>
      <path id="DejaVuSans-Bold-51" d="M 4056 2131 
L 4056 0 
L 2931 0 
L 2931 347 
L 2931 1631 
Q 2931 2084 2911 2256 
Q 2891 2428 2841 2509 
Q 2775 2619 2662 2680 
Q 2550 2741 2406 2741 
Q 2056 2741 1856 2470 
Q 1656 2200 1656 1722 
L 1656 0 
L 538 0 
L 538 3500 
L 1656 3500 
L 1656 2988 
Q 1909 3294 2193 3439 
Q 2478 3584 2822 3584 
Q 3428 3584 3742 3212 
Q 4056 2841 4056 2131 
z
" transform="scale(0.015625)"/>
      <path id="DejaVuSans-Bold-5b" d="M 1422 1791 
L 159 3500 
L 1344 3500 
L 2059 2463 
L 2784 3500 
L 3969 3500 
L 2706 1797 
L 4031 0 
L 2847 0 
L 2059 1106 
L 1281 0 
L 97 0 
L 1422 1791 
z
" transform="scale(0.015625)"/>
      <path id="DejaVuSans-Bold-57" d="M 1759 4494 
L 1759 3500 
L 2913 3500 
L 2913 2700 
L 1759 2700 
L 1759 1216 
Q 1759 972 1856 886 
Q 1953 800 2241 800 
L 2816 800 
L 2816 0 
L 1856 0 
Q 1194 0 917 276 
Q 641 553 641 1216 
L 641 2700 
L 84 2700 
L 84 3500 
L 641 3500 
L 641 4494 
L 1759 4494 
z
" transform="scale(0.015625)"/>
      <path id="DejaVuSans-Bold-11" d="M 653 1209 
L 1778 1209 
L 1778 0 
L 653 0 
L 653 1209 
z
" transform="scale(0.015625)"/>
      <path id="DejaVuSans-Bold-4d" d="M 538 3500 
L 1656 3500 
L 1656 63 
Q 1656 -641 1318 -1011 
Q 981 -1381 341 -1381 
L -213 -1381 
L -213 -647 
L -19 -647 
Q 300 -647 419 -503 
Q 538 -359 538 63 
L 538 3500 
z
M 538 4863 
L 1656 4863 
L 1656 3950 
L 538 3950 
L 538 4863 
z
" transform="scale(0.015625)"/>
      <path id="DejaVuSans-Bold-56" d="M 3272 3391 
L 3272 2541 
Q 2913 2691 2578 2766 
Q 2244 2841 1947 2841 
Q 1628 2841 1473 2761 
Q 1319 2681 1319 2516 
Q 1319 2381 1436 2309 
Q 1553 2238 1856 2203 
L 2053 2175 
Q 2913 2066 3209 1816 
Q 3506 1566 3506 1031 
Q 3506 472 3093 190 
Q 2681 -91 1863 -91 
Q 1516 -91 1145 -36 
Q 775 19 384 128 
L 384 978 
Q 719 816 1070 734 
Q 1422 653 1784 653 
Q 2113 653 2278 743 
Q 2444 834 2444 1013 
Q 2444 1163 2330 1236 
Q 2216 1309 1875 1350 
L 1678 1375 
Q 931 1469 631 1722 
Q 331 1975 331 2491 
Q 331 3047 712 3315 
Q 1094 3584 1881 3584 
Q 2191 3584 2531 3537 
Q 2872 3491 3272 3391 
z
" transform="scale(0.015625)"/>
      <path id="DejaVuSans-Bold-c" d="M 513 -844 
Q 913 -100 1113 609 
Q 1313 1319 1313 2009 
Q 1313 2700 1113 3408 
Q 913 4116 513 4856 
L 1441 4856 
Q 1916 4091 2145 3389 
Q 2375 2688 2375 2003 
Q 2375 1319 2147 623 
Q 1919 -72 1441 -844 
L 513 -844 
z
" transform="scale(0.015625)"/>
      <path id="DejaVuSans-Bold-af6" d="M 344 2156 
L 6056 2156 
L 6056 1350 
L 344 1350 
L 344 2156 
z
" transform="scale(0.015625)"/>
      <path id="DejaVuSans-Bold-7" d="M 2484 -941 
L 1978 -941 
L 1975 0 
Q 1584 16 1218 87 
Q 853 159 506 288 
L 506 1106 
Q 866 922 1233 823 
Q 1600 725 1978 713 
L 1978 1684 
L 1875 1703 
Q 1128 1834 814 2115 
Q 500 2397 500 2925 
Q 500 3484 883 3798 
Q 1266 4113 1975 4141 
L 1978 4863 
L 2484 4863 
L 2484 4153 
Q 2797 4128 3109 4075 
Q 3422 4022 3738 3938 
L 3738 3144 
Q 3425 3275 3112 3348 
Q 2800 3422 2484 3438 
L 2484 2541 
L 2584 2522 
Q 3378 2397 3698 2105 
Q 4019 1813 4019 1241 
Q 4019 666 3637 358 
Q 3256 50 2484 6 
L 2484 -941 
z
M 1978 2613 
L 1978 3428 
Q 1756 3416 1623 3308 
Q 1491 3200 1491 3034 
Q 1491 2850 1612 2745 
Q 1734 2641 1978 2613 
z
M 2484 1594 
L 2484 725 
Q 2756 728 2892 831 
Q 3028 934 3028 1141 
Q 3028 1353 2903 1458 
Q 2778 1563 2484 1594 
z
" transform="scale(0.015625)"/>
      <path id="DejaVuSans-Bold-18" d="M 678 4666 
L 3669 4666 
L 3669 3781 
L 1638 3781 
L 1638 3059 
Q 1775 3097 1914 3117 
Q 2053 3138 2203 3138 
Q 3056 3138 3531 2711 
Q 4006 2284 4006 1522 
Q 4006 766 3489 337 
Q 2972 -91 2053 -91 
Q 1656 -91 1267 -14 
Q 878 63 494 219 
L 494 1166 
Q 875 947 1217 837 
Q 1559 728 1863 728 
Q 2300 728 2551 942 
Q 2803 1156 2803 1522 
Q 2803 1891 2551 2103 
Q 2300 2316 1863 2316 
Q 1603 2316 1309 2248 
Q 1016 2181 678 2041 
L 678 4666 
z
" transform="scale(0.015625)"/>
      <path id="DejaVuSans-Bold-16" d="M 2981 2516 
Q 3453 2394 3698 2092 
Q 3944 1791 3944 1325 
Q 3944 631 3412 270 
Q 2881 -91 1863 -91 
Q 1503 -91 1142 -33 
Q 781 25 428 141 
L 428 1069 
Q 766 900 1098 814 
Q 1431 728 1753 728 
Q 2231 728 2486 893 
Q 2741 1059 2741 1369 
Q 2741 1688 2480 1852 
Q 2219 2016 1709 2016 
L 1228 2016 
L 1228 2791 
L 1734 2791 
Q 2188 2791 2409 2933 
Q 2631 3075 2631 3366 
Q 2631 3634 2415 3781 
Q 2200 3928 1806 3928 
Q 1516 3928 1219 3862 
Q 922 3797 628 3669 
L 628 4550 
Q 984 4650 1334 4700 
Q 1684 4750 2022 4750 
Q 2931 4750 3382 4451 
Q 3834 4153 3834 3553 
Q 3834 3144 3618 2883 
Q 3403 2622 2981 2516 
z
" transform="scale(0.015625)"/>
      <path id="DejaVuSans-Bold-1a" d="M 428 4666 
L 3944 4666 
L 3944 3988 
L 2125 0 
L 953 0 
L 2675 3781 
L 428 3781 
L 428 4666 
z
" transform="scale(0.015625)"/>
      <path id="DejaVuSans-Bold-1b" d="M 2228 2088 
Q 1891 2088 1709 1903 
Q 1528 1719 1528 1375 
Q 1528 1031 1709 848 
Q 1891 666 2228 666 
Q 2563 666 2741 848 
Q 2919 1031 2919 1375 
Q 2919 1722 2741 1905 
Q 2563 2088 2228 2088 
z
M 1350 2484 
Q 925 2613 709 2878 
Q 494 3144 494 3541 
Q 494 4131 934 4440 
Q 1375 4750 2228 4750 
Q 3075 4750 3515 4442 
Q 3956 4134 3956 3541 
Q 3956 3144 3739 2878 
Q 3522 2613 3097 2484 
Q 3572 2353 3814 2058 
Q 4056 1763 4056 1313 
Q 4056 619 3595 264 
Q 3134 -91 2228 -91 
Q 1319 -91 855 264 
Q 391 619 391 1313 
Q 391 1763 633 2058 
Q 875 2353 1350 2484 
z
M 1631 3419 
Q 1631 3141 1786 2991 
Q 1941 2841 2228 2841 
Q 2509 2841 2662 2991 
Q 2816 3141 2816 3419 
Q 2816 3697 2662 3845 
Q 2509 3994 2228 3994 
Q 1941 3994 1786 3844 
Q 1631 3694 1631 3419 
z
" transform="scale(0.015625)"/>
      <path id="DejaVuSans-Bold-e" d="M 3053 4013 
L 3053 2375 
L 4684 2375 
L 4684 1638 
L 3053 1638 
L 3053 0 
L 2309 0 
L 2309 1638 
L 678 1638 
L 678 2375 
L 2309 2375 
L 2309 4013 
L 3053 4013 
z
" transform="scale(0.015625)"/>
      <path id="DejaVuSans-Bold-13" d="M 2944 2338 
Q 2944 3213 2780 3570 
Q 2616 3928 2228 3928 
Q 1841 3928 1675 3570 
Q 1509 3213 1509 2338 
Q 1509 1453 1675 1090 
Q 1841 728 2228 728 
Q 2613 728 2778 1090 
Q 2944 1453 2944 2338 
z
M 4147 2328 
Q 4147 1169 3647 539 
Q 3147 -91 2228 -91 
Q 1306 -91 806 539 
Q 306 1169 306 2328 
Q 306 3491 806 4120 
Q 1306 4750 2228 4750 
Q 3147 4750 3647 4120 
Q 4147 3491 4147 2328 
z
" transform="scale(0.015625)"/>
      <path id="DejaVuSans-Bold-8" d="M 4959 1925 
Q 4738 1925 4616 1733 
Q 4494 1541 4494 1184 
Q 4494 825 4614 633 
Q 4734 441 4959 441 
Q 5184 441 5303 633 
Q 5422 825 5422 1184 
Q 5422 1541 5301 1733 
Q 5181 1925 4959 1925 
z
M 4959 2450 
Q 5541 2450 5875 2112 
Q 6209 1775 6209 1184 
Q 6209 594 5875 251 
Q 5541 -91 4959 -91 
Q 4378 -91 4042 251 
Q 3706 594 3706 1184 
Q 3706 1772 4042 2111 
Q 4378 2450 4959 2450 
z
M 2094 -91 
L 1403 -91 
L 4319 4750 
L 5013 4750 
L 2094 -91 
z
M 1453 4750 
Q 2034 4750 2367 4411 
Q 2700 4072 2700 3481 
Q 2700 2891 2367 2550 
Q 2034 2209 1453 2209 
Q 872 2209 539 2550 
Q 206 2891 206 3481 
Q 206 4072 539 4411 
Q 872 4750 1453 4750 
z
M 1453 4225 
Q 1228 4225 1106 4031 
Q 984 3838 984 3481 
Q 984 3122 1106 2926 
Q 1228 2731 1453 2731 
Q 1678 2731 1798 2926 
Q 1919 3122 1919 3481 
Q 1919 3838 1797 4031 
Q 1675 4225 1453 4225 
z
" transform="scale(0.015625)"/>
     </defs>
     <use xlink:href="#DejaVuSans-Bold-31"/>
     <use xlink:href="#DejaVuSans-Bold-28" transform="translate(83.6875 0)"/>
     <use xlink:href="#DejaVuSans-Bold-3b" transform="translate(152 0)"/>
     <use xlink:href="#DejaVuSans-Bold-37" transform="translate(229.09375 0)"/>
     <use xlink:href="#DejaVuSans-Bold-2d" transform="translate(297.3125 0)"/>
     <use xlink:href="#DejaVuSans-Bold-36" transform="translate(334.515625 0)"/>
     <use xlink:href="#DejaVuSans-Bold-3" transform="translate(406.53125 0)"/>
     <use xlink:href="#DejaVuSans-Bold-b" transform="translate(441.34375 0)"/>
     <use xlink:href="#DejaVuSans-Bold-59" transform="translate(487.046875 0)"/>
     <use xlink:href="#DejaVuSans-Bold-48" transform="translate(552.234375 0)"/>
     <use xlink:href="#DejaVuSans-Bold-55" transform="translate(620.0625 0)"/>
     <use xlink:href="#DejaVuSans-Bold-46" transform="translate(669.375 0)"/>
     <use xlink:href="#DejaVuSans-Bold-48" transform="translate(728.65625 0)"/>
     <use xlink:href="#DejaVuSans-Bold-4f" transform="translate(796.484375 0)"/>
     <use xlink:href="#DejaVuSans-Bold-12" transform="translate(830.765625 0)"/>
     <use xlink:href="#DejaVuSans-Bold-51" transform="translate(867.296875 0)"/>
     <use xlink:href="#DejaVuSans-Bold-48" transform="translate(938.484375 0)"/>
     <use xlink:href="#DejaVuSans-Bold-5b" transform="translate(1006.3125 0)"/>
     <use xlink:href="#DejaVuSans-Bold-57" transform="translate(1070.8125 0)"/>
     <use xlink:href="#DejaVuSans-Bold-11" transform="translate(1118.609375 0)"/>
     <use xlink:href="#DejaVuSans-Bold-4d" transform="translate(1156.59375 0)"/>
     <use xlink:href="#DejaVuSans-Bold-56" transform="translate(1190.875 0)"/>
     <use xlink:href="#DejaVuSans-Bold-c" transform="translate(1250.390625 0)"/>
     <use xlink:href="#DejaVuSans-Bold-3" transform="translate(1296.09375 0)"/>
     <use xlink:href="#DejaVuSans-Bold-af6" transform="translate(1330.90625 0)"/>
     <use xlink:href="#DejaVuSans-Bold-3" transform="translate(1430.90625 0)"/>
     <use xlink:href="#DejaVuSans-Bold-7" transform="translate(1465.71875 0)"/>
     <use xlink:href="#DejaVuSans-Bold-18" transform="translate(1535.296875 0)"/>
     <use xlink:href="#DejaVuSans-Bold-16" transform="translate(1604.875 0)"/>
     <use xlink:href="#DejaVuSans-Bold-1a" transform="translate(1674.453125 0)"/>
     <use xlink:href="#DejaVuSans-Bold-11" transform="translate(1744.03125 0)"/>
     <use xlink:href="#DejaVuSans-Bold-16" transform="translate(1782.015625 0)"/>
     <use xlink:href="#DejaVuSans-Bold-1b" transform="translate(1851.59375 0)"/>
     <use xlink:href="#DejaVuSans-Bold-3" transform="translate(1921.171875 0)"/>
     <use xlink:href="#DejaVuSans-Bold-b" transform="translate(1955.984375 0)"/>
     <use xlink:href="#DejaVuSans-Bold-e" transform="translate(2001.6875 0)"/>
     <use xlink:href="#DejaVuSans-Bold-1b" transform="translate(2085.484375 0)"/>
     <use xlink:href="#DejaVuSans-Bold-11" transform="translate(2155.0625 0)"/>
     <use xlink:href="#DejaVuSans-Bold-13" transform="translate(2193.046875 0)"/>
     <use xlink:href="#DejaVuSans-Bold-18" transform="translate(2262.625 0)"/>
     <use xlink:href="#DejaVuSans-Bold-8" transform="translate(2332.203125 0)"/>
     <use xlink:href="#DejaVuSans-Bold-c" transform="translate(2432.40625 0)"/>
    </g>
   </g>
  </g>
 </g>
 <defs>
  <clipPath id="p78949ce512">
   <rect x="34.56" y="21.558281" width="383.24" height="128.76"/>
  </clipPath>
 </defs>
</svg>
