<?xml version="1.0" encoding="utf-8" standalone="no"?>
<!DOCTYPE svg PUBLIC "-//W3C//DTD SVG 1.1//EN"
  "http://www.w3.org/Graphics/SVG/1.1/DTD/svg11.dtd">
<svg xmlns:xlink="http://www.w3.org/1999/xlink" width="424.177123pt" height="173.060781pt" viewBox="0 0 424.177123 173.060781" xmlns="http://www.w3.org/2000/svg" version="1.1">
 <metadata>
  <rdf:RDF xmlns:dc="http://purl.org/dc/elements/1.1/" xmlns:cc="http://creativecommons.org/ns#" xmlns:rdf="http://www.w3.org/1999/02/22-rdf-syntax-ns#">
   <cc:Work>
    <dc:type rdf:resource="http://purl.org/dc/dcmitype/StillImage"/>
    <dc:date>2026-04-15T06:47:48.174833</dc:date>
    <dc:format>image/svg+xml</dc:format>
    <dc:creator>
     <cc:Agent>
      <dc:title>Matplotlib v3.10.8, https://matplotlib.org/</dc:title>
     </cc:Agent>
    </dc:creator>
   </cc:Work>
  </rdf:RDF>
 </metadata>
 <defs>
  <style type="text/css">*{stroke-linejoin: round; stroke-linecap: butt}</style>
 </defs>
 <g id="figure_1">
  <g id="patch_1">
   <path d="M 0 173.060781 
L 424.177123 173.060781 
L 424.177123 0 
L 0 0 
z
" style="fill: #0d1117"/>
  </g>
  <g id="axes_1">
   <g id="patch_2">
    <path d="M 34.56 151.118281 
L 415.954873 151.118281 
L 415.954873 21.558281 
L 34.56 21.558281 
z
" style="fill: #0d1117"/>
   </g>
   <g id="FillBetweenPolyCollection_1">
    <defs>
     <path id="mcc1ad878af" d="M 51.896131 -27.831591 
L 51.896131 -128.474996 
L 55.470591 -124.770873 
L 59.04505 -128.213727 
L 62.61951 -124.248335 
L 66.19397 -125.719028 
L 69.76843 -126.519691 
L 73.34289 -142.68888 
L 76.91735 -125.086925 
L 80.49181 -129.178737 
L 84.06627 -132.208616 
L 87.64073 -127.851321 
L 91.21519 -128.517136 
L 94.78965 -130.577791 
L 98.36411 -132.794365 
L 101.938569 -129.406294 
L 105.513029 -128.45814 
L 109.087489 -133.07249 
L 112.661949 -132.55838 
L 116.236409 -133.17784 
L 119.810869 -132.259184 
L 123.385329 -130.607289 
L 126.959789 -131.968417 
L 130.534249 -131.778786 
L 134.108709 -135.107861 
L 137.683169 -133.363257 
L 141.257629 -131.938919 
L 144.832089 -130.139533 
L 148.406548 -131.627082 
L 151.981008 -132.554166 
L 155.555468 -136.869321 
L 159.129928 -133.224195 
L 162.704388 -133.03035 
L 166.278848 -132.979782 
L 169.853308 -135.053079 
L 173.427768 -138.925762 
L 177.002228 -137.176944 
L 180.576688 -135.938023 
L 184.151148 -134.437832 
L 187.725608 -130.83906 
L 191.300067 -136.793468 
L 194.874527 -132.031627 
L 198.448987 -131.188824 
L 202.023447 -134.947728 
L 205.597907 -135.289064 
L 209.172367 -136.110797 
L 212.746827 -135.86217 
L 216.321287 -138.736131 
L 219.895747 -138.078744 
L 223.470207 -132.895501 
L 227.044667 -139.928698 
L 230.619127 -137.825903 
L 234.193587 -138.061888 
L 237.768046 -137.543564 
L 241.342506 -134.922444 
L 244.916966 -137.505637 
L 248.491426 -140.468092 
L 252.065886 -138.163024 
L 255.640346 -139.92027 
L 259.214806 -134.914016 
L 262.789266 -142.781589 
L 266.363726 -135.546119 
L 269.938186 -142.836371 
L 273.512646 -137.615202 
L 277.087106 -136.380494 
L 280.661566 -137.497209 
L 284.236025 -141.475243 
L 287.810485 -138.327371 
L 291.384945 -140.940063 
L 294.959405 -140.628225 
L 298.533865 -139.410374 
L 302.108325 -140.484949 
L 305.682785 -136.245646 
L 309.257245 -140.232107 
L 312.831705 -142.065205 
L 316.406165 -139.844418 
L 319.980625 -141.593235 
L 323.555085 -136.713402 
L 327.129544 -140.556587 
L 330.704004 -139.368234 
L 334.278464 -140.73779 
L 337.852924 -138.97633 
L 341.427384 -140.956919 
L 345.001844 -138.036604 
L 348.576304 -142.128416 
L 352.150764 -139.953982 
L 355.725224 -144.290207 
L 359.299684 -143.114496 
L 362.874144 -144.315491 
L 366.448604 -137.813261 
L 370.023064 -142.886939 
L 373.597523 -139.418802 
L 377.171983 -140.480735 
L 380.746443 -144.509336 
L 384.320903 -139.802278 
L 387.895363 -143.540112 
L 391.469823 -145.613409 
L 395.044283 -142.827943 
L 398.618743 -141.631162 
L 398.618743 -27.831591 
L 398.618743 -27.831591 
L 395.044283 -27.831591 
L 391.469823 -27.831591 
L 387.895363 -27.831591 
L 384.320903 -27.831591 
L 380.746443 -27.831591 
L 377.171983 -27.831591 
L 373.597523 -27.831591 
L 370.023064 -27.831591 
L 366.448604 -27.831591 
L 362.874144 -27.831591 
L 359.299684 -27.831591 
L 355.725224 -27.831591 
L 352.150764 -27.831591 
L 348.576304 -27.831591 
L 345.001844 -27.831591 
L 341.427384 -27.831591 
L 337.852924 -27.831591 
L 334.278464 -27.831591 
L 330.704004 -27.831591 
L 327.129544 -27.831591 
L 323.555085 -27.831591 
L 319.980625 -27.831591 
L 316.406165 -27.831591 
L 312.831705 -27.831591 
L 309.257245 -27.831591 
L 305.682785 -27.831591 
L 302.108325 -27.831591 
L 298.533865 -27.831591 
L 294.959405 -27.831591 
L 291.384945 -27.831591 
L 287.810485 -27.831591 
L 284.236025 -27.831591 
L 280.661566 -27.831591 
L 277.087106 -27.831591 
L 273.512646 -27.831591 
L 269.938186 -27.831591 
L 266.363726 -27.831591 
L 262.789266 -27.831591 
L 259.214806 -27.831591 
L 255.640346 -27.831591 
L 252.065886 -27.831591 
L 248.491426 -27.831591 
L 244.916966 -27.831591 
L 241.342506 -27.831591 
L 237.768046 -27.831591 
L 234.193587 -27.831591 
L 230.619127 -27.831591 
L 227.044667 -27.831591 
L 223.470207 -27.831591 
L 219.895747 -27.831591 
L 216.321287 -27.831591 
L 212.746827 -27.831591 
L 209.172367 -27.831591 
L 205.597907 -27.831591 
L 202.023447 -27.831591 
L 198.448987 -27.831591 
L 194.874527 -27.831591 
L 191.300067 -27.831591 
L 187.725608 -27.831591 
L 184.151148 -27.831591 
L 180.576688 -27.831591 
L 177.002228 -27.831591 
L 173.427768 -27.831591 
L 169.853308 -27.831591 
L 166.278848 -27.831591 
L 162.704388 -27.831591 
L 159.129928 -27.831591 
L 155.555468 -27.831591 
L 151.981008 -27.831591 
L 148.406548 -27.831591 
L 144.832089 -27.831591 
L 141.257629 -27.831591 
L 137.683169 -27.831591 
L 134.108709 -27.831591 
L 130.534249 -27.831591 
L 126.959789 -27.831591 
L 123.385329 -27.831591 
L 119.810869 -27.831591 
L 116.236409 -27.831591 
L 112.661949 -27.831591 
L 109.087489 -27.831591 
L 105.513029 -27.831591 
L 101.938569 -27.831591 
L 98.36411 -27.831591 
L 94.78965 -27.831591 
L 91.21519 -27.831591 
L 87.64073 -27.831591 
L 84.06627 -27.831591 
L 80.49181 -27.831591 
L 76.91735 -27.831591 
L 73.34289 -27.831591 
L 69.76843 -27.831591 
L 66.19397 -27.831591 
L 62.61951 -27.831591 
L 59.04505 -27.831591 
L 55.470591 -27.831591 
L 51.896131 -27.831591 
z
" style="stroke: #3fb950; stroke-opacity: 0.15"/>
    </defs>
    <g clip-path="url(#pd8111d73e6)">
     <use xlink:href="#mcc1ad878af" x="0" y="173.060781" style="fill: #3fb950; fill-opacity: 0.15; stroke: #3fb950; stroke-opacity: 0.15"/>
    </g>
   </g>
   <g id="matplotlib.axis_1">
    <g id="xtick_1">
     <g id="line2d_1">
      <path d="M 51.896131 151.118281 
L 51.896131 21.558281 
" clip-path="url(#pd8111d73e6)" style="fill: none; stroke: #21262d; stroke-opacity: 0.5; stroke-width: 0.5; stroke-linecap: square"/>
     </g>
     <g id="line2d_2">
      <defs>
       <path id="mc86d37ef7e" d="M 0 0 
L 0 3.5 
" style="stroke: #c9d1d9; stroke-width: 0.8"/>
      </defs>
      <g>
       <use xlink:href="#mc86d37ef7e" x="51.896131" y="151.118281" style="fill: #c9d1d9; stroke: #c9d1d9; stroke-width: 0.8"/>
      </g>
     </g>
     <g id="text_1">
      <!-- 0 -->
      <g style="fill: #c9d1d9" transform="translate(49.351131 164.197031) scale(0.08 -0.08)">
       <defs>
        <path id="DejaVuSans-30" d="M 2034 4250 
Q 1547 4250 1301 3770 
Q 1056 3291 1056 2328 
Q 1056 1369 1301 889 
Q 1547 409 2034 409 
Q 2525 409 2770 889 
Q 3016 1369 3016 2328 
Q 3016 3291 2770 3770 
Q 2525 4250 2034 4250 
z
M 2034 4750 
Q 2819 4750 3233 4129 
Q 3647 3509 3647 2328 
Q 3647 1150 3233 529 
Q 2819 -91 2034 -91 
Q 1250 -91 836 529 
Q 422 1150 422 2328 
Q 422 3509 836 4129 
Q 1250 4750 2034 4750 
z
" transform="scale(0.015625)"/>
       </defs>
       <use xlink:href="#DejaVuSans-30"/>
      </g>
     </g>
    </g>
    <g id="xtick_2">
     <g id="line2d_3">
      <path d="M 123.385329 151.118281 
L 123.385329 21.558281 
" clip-path="url(#pd8111d73e6)" style="fill: none; stroke: #21262d; stroke-opacity: 0.5; stroke-width: 0.5; stroke-linecap: square"/>
     </g>
     <g id="line2d_4">
      <g>
       <use xlink:href="#mc86d37ef7e" x="123.385329" y="151.118281" style="fill: #c9d1d9; stroke: #c9d1d9; stroke-width: 0.8"/>
      </g>
     </g>
     <g id="text_2">
      <!-- 20 -->
      <g style="fill: #c9d1d9" transform="translate(118.295329 164.197031) scale(0.08 -0.08)">
       <defs>
        <path id="DejaVuSans-32" d="M 1228 531 
L 3431 531 
L 3431 0 
L 469 0 
L 469 531 
Q 828 903 1448 1529 
Q 2069 2156 2228 2338 
Q 2531 2678 2651 2914 
Q 2772 3150 2772 3378 
Q 2772 3750 2511 3984 
Q 2250 4219 1831 4219 
Q 1534 4219 1204 4116 
Q 875 4013 500 3803 
L 500 4441 
Q 881 4594 1212 4672 
Q 1544 4750 1819 4750 
Q 2544 4750 2975 4387 
Q 3406 4025 3406 3419 
Q 3406 3131 3298 2873 
Q 3191 2616 2906 2266 
Q 2828 2175 2409 1742 
Q 1991 1309 1228 531 
z
" transform="scale(0.015625)"/>
       </defs>
       <use xlink:href="#DejaVuSans-32"/>
       <use xlink:href="#DejaVuSans-30" transform="translate(63.623047 0)"/>
      </g>
     </g>
    </g>
    <g id="xtick_3">
     <g id="line2d_5">
      <path d="M 194.874527 151.118281 
L 194.874527 21.558281 
" clip-path="url(#pd8111d73e6)" style="fill: none; stroke: #21262d; stroke-opacity: 0.5; stroke-width: 0.5; stroke-linecap: square"/>
     </g>
     <g id="line2d_6">
      <g>
       <use xlink:href="#mc86d37ef7e" x="194.874527" y="151.118281" style="fill: #c9d1d9; stroke: #c9d1d9; stroke-width: 0.8"/>
      </g>
     </g>
     <g id="text_3">
      <!-- 40 -->
      <g style="fill: #c9d1d9" transform="translate(189.784527 164.197031) scale(0.08 -0.08)">
       <defs>
        <path id="DejaVuSans-34" d="M 2419 4116 
L 825 1625 
L 2419 1625 
L 2419 4116 
z
M 2253 4666 
L 3047 4666 
L 3047 1625 
L 3713 1625 
L 3713 1100 
L 3047 1100 
L 3047 0 
L 2419 0 
L 2419 1100 
L 313 1100 
L 313 1709 
L 2253 4666 
z
" transform="scale(0.015625)"/>
       </defs>
       <use xlink:href="#DejaVuSans-34"/>
       <use xlink:href="#DejaVuSans-30" transform="translate(63.623047 0)"/>
      </g>
     </g>
    </g>
    <g id="xtick_4">
     <g id="line2d_7">
      <path d="M 266.363726 151.118281 
L 266.363726 21.558281 
" clip-path="url(#pd8111d73e6)" style="fill: none; stroke: #21262d; stroke-opacity: 0.5; stroke-width: 0.5; stroke-linecap: square"/>
     </g>
     <g id="line2d_8">
      <g>
       <use xlink:href="#mc86d37ef7e" x="266.363726" y="151.118281" style="fill: #c9d1d9; stroke: #c9d1d9; stroke-width: 0.8"/>
      </g>
     </g>
     <g id="text_4">
      <!-- 60 -->
      <g style="fill: #c9d1d9" transform="translate(261.273726 164.197031) scale(0.08 -0.08)">
       <defs>
        <path id="DejaVuSans-36" d="M 2113 2584 
Q 1688 2584 1439 2293 
Q 1191 2003 1191 1497 
Q 1191 994 1439 701 
Q 1688 409 2113 409 
Q 2538 409 2786 701 
Q 3034 994 3034 1497 
Q 3034 2003 2786 2293 
Q 2538 2584 2113 2584 
z
M 3366 4563 
L 3366 3988 
Q 3128 4100 2886 4159 
Q 2644 4219 2406 4219 
Q 1781 4219 1451 3797 
Q 1122 3375 1075 2522 
Q 1259 2794 1537 2939 
Q 1816 3084 2150 3084 
Q 2853 3084 3261 2657 
Q 3669 2231 3669 1497 
Q 3669 778 3244 343 
Q 2819 -91 2113 -91 
Q 1303 -91 875 529 
Q 447 1150 447 2328 
Q 447 3434 972 4092 
Q 1497 4750 2381 4750 
Q 2619 4750 2861 4703 
Q 3103 4656 3366 4563 
z
" transform="scale(0.015625)"/>
       </defs>
       <use xlink:href="#DejaVuSans-36"/>
       <use xlink:href="#DejaVuSans-30" transform="translate(63.623047 0)"/>
      </g>
     </g>
    </g>
    <g id="xtick_5">
     <g id="line2d_9">
      <path d="M 337.852924 151.118281 
L 337.852924 21.558281 
" clip-path="url(#pd8111d73e6)" style="fill: none; stroke: #21262d; stroke-opacity: 0.5; stroke-width: 0.5; stroke-linecap: square"/>
     </g>
     <g id="line2d_10">
      <g>
       <use xlink:href="#mc86d37ef7e" x="337.852924" y="151.118281" style="fill: #c9d1d9; stroke: #c9d1d9; stroke-width: 0.8"/>
      </g>
     </g>
     <g id="text_5">
      <!-- 80 -->
      <g style="fill: #c9d1d9" transform="translate(332.762924 164.197031) scale(0.08 -0.08)">
       <defs>
        <path id="DejaVuSans-38" d="M 2034 2216 
Q 1584 2216 1326 1975 
Q 1069 1734 1069 1313 
Q 1069 891 1326 650 
Q 1584 409 2034 409 
Q 2484 409 2743 651 
Q 3003 894 3003 1313 
Q 3003 1734 2745 1975 
Q 2488 2216 2034 2216 
z
M 1403 2484 
Q 997 2584 770 2862 
Q 544 3141 544 3541 
Q 544 4100 942 4425 
Q 1341 4750 2034 4750 
Q 2731 4750 3128 4425 
Q 3525 4100 3525 3541 
Q 3525 3141 3298 2862 
Q 3072 2584 2669 2484 
Q 3125 2378 3379 2068 
Q 3634 1759 3634 1313 
Q 3634 634 3220 271 
Q 2806 -91 2034 -91 
Q 1263 -91 848 271 
Q 434 634 434 1313 
Q 434 1759 690 2068 
Q 947 2378 1403 2484 
z
M 1172 3481 
Q 1172 3119 1398 2916 
Q 1625 2713 2034 2713 
Q 2441 2713 2670 2916 
Q 2900 3119 2900 3481 
Q 2900 3844 2670 4047 
Q 2441 4250 2034 4250 
Q 1625 4250 1398 4047 
Q 1172 3844 1172 3481 
z
" transform="scale(0.015625)"/>
       </defs>
       <use xlink:href="#DejaVuSans-38"/>
       <use xlink:href="#DejaVuSans-30" transform="translate(63.623047 0)"/>
      </g>
     </g>
    </g>
    <g id="xtick_6">
     <g id="line2d_11">
      <path d="M 409.342123 151.118281 
L 409.342123 21.558281 
" clip-path="url(#pd8111d73e6)" style="fill: none; stroke: #21262d; stroke-opacity: 0.5; stroke-width: 0.5; stroke-linecap: square"/>
     </g>
     <g id="line2d_12">
      <g>
       <use xlink:href="#mc86d37ef7e" x="409.342123" y="151.118281" style="fill: #c9d1d9; stroke: #c9d1d9; stroke-width: 0.8"/>
      </g>
     </g>
     <g id="text_6">
      <!-- 100 -->
      <g style="fill: #c9d1d9" transform="translate(401.707123 164.197031) scale(0.08 -0.08)">
       <defs>
        <path id="DejaVuSans-31" d="M 794 531 
L 1825 531 
L 1825 4091 
L 703 3866 
L 703 4441 
L 1819 4666 
L 2450 4666 
L 2450 531 
L 3481 531 
L 3481 0 
L 794 0 
L 794 531 
z
" transform="scale(0.015625)"/>
       </defs>
       <use xlink:href="#DejaVuSans-31"/>
       <use xlink:href="#DejaVuSans-30" transform="translate(63.623047 0)"/>
       <use xlink:href="#DejaVuSans-30" transform="translate(127.246094 0)"/>
      </g>
     </g>
    </g>
   </g>
   <g id="matplotlib.axis_2">
    <g id="ytick_1">
     <g id="line2d_13">
      <path d="M 34.56 145.22919 
L 415.954873 145.22919 
" clip-path="url(#pd8111d73e6)" style="fill: none; stroke: #21262d; stroke-opacity: 0.5; stroke-width: 0.5; stroke-linecap: square"/>
     </g>
     <g id="line2d_14">
      <defs>
       <path id="m1484e865e0" d="M 0 0 
L -3.5 0 
" style="stroke: #c9d1d9; stroke-width: 0.8"/>
      </defs>
      <g>
       <use xlink:href="#m1484e865e0" x="34.56" y="145.22919" style="fill: #c9d1d9; stroke: #c9d1d9; stroke-width: 0.8"/>
      </g>
     </g>
     <g id="text_7">
      <!-- $0 -->
      <g style="fill: #c9d1d9" transform="translate(17.38 148.268565) scale(0.08 -0.08)">
       <defs>
        <path id="DejaVuSans-24" d="M 2163 -941 
L 1850 -941 
L 1847 0 
Q 1519 6 1191 76 
Q 863 147 531 288 
L 531 850 
Q 850 650 1176 548 
Q 1503 447 1850 444 
L 1850 1869 
Q 1159 1981 845 2250 
Q 531 2519 531 2988 
Q 531 3497 872 3790 
Q 1213 4084 1850 4128 
L 1850 4863 
L 2163 4863 
L 2163 4138 
Q 2453 4125 2725 4076 
Q 2997 4028 3256 3944 
L 3256 3397 
Q 2997 3528 2723 3600 
Q 2450 3672 2163 3684 
L 2163 2350 
Q 2872 2241 3206 1959 
Q 3541 1678 3541 1191 
Q 3541 663 3186 358 
Q 2831 53 2163 6 
L 2163 -941 
z
M 1850 2406 
L 1850 3688 
Q 1488 3647 1297 3481 
Q 1106 3316 1106 3041 
Q 1106 2772 1282 2622 
Q 1459 2472 1850 2406 
z
M 2163 1806 
L 2163 453 
Q 2559 506 2761 678 
Q 2963 850 2963 1131 
Q 2963 1406 2770 1568 
Q 2578 1731 2163 1806 
z
" transform="scale(0.015625)"/>
       </defs>
       <use xlink:href="#DejaVuSans-24"/>
       <use xlink:href="#DejaVuSans-30" transform="translate(63.623047 0)"/>
      </g>
     </g>
    </g>
    <g id="ytick_2">
     <g id="line2d_15">
      <path d="M 34.56 124.159098 
L 415.954873 124.159098 
" clip-path="url(#pd8111d73e6)" style="fill: none; stroke: #21262d; stroke-opacity: 0.5; stroke-width: 0.5; stroke-linecap: square"/>
     </g>
     <g id="line2d_16">
      <g>
       <use xlink:href="#m1484e865e0" x="34.56" y="124.159098" style="fill: #c9d1d9; stroke: #c9d1d9; stroke-width: 0.8"/>
      </g>
     </g>
     <g id="text_8">
      <!-- $50 -->
      <g style="fill: #c9d1d9" transform="translate(12.29 127.198473) scale(0.08 -0.08)">
       <defs>
        <path id="DejaVuSans-35" d="M 691 4666 
L 3169 4666 
L 3169 4134 
L 1269 4134 
L 1269 2991 
Q 1406 3038 1543 3061 
Q 1681 3084 1819 3084 
Q 2600 3084 3056 2656 
Q 3513 2228 3513 1497 
Q 3513 744 3044 326 
Q 2575 -91 1722 -91 
Q 1428 -91 1123 -41 
Q 819 9 494 109 
L 494 744 
Q 775 591 1075 516 
Q 1375 441 1709 441 
Q 2250 441 2565 725 
Q 2881 1009 2881 1497 
Q 2881 1984 2565 2268 
Q 2250 2553 1709 2553 
Q 1456 2553 1204 2497 
Q 953 2441 691 2322 
L 691 4666 
z
" transform="scale(0.015625)"/>
       </defs>
       <use xlink:href="#DejaVuSans-24"/>
       <use xlink:href="#DejaVuSans-35" transform="translate(63.623047 0)"/>
       <use xlink:href="#DejaVuSans-30" transform="translate(127.246094 0)"/>
      </g>
     </g>
    </g>
    <g id="ytick_3">
     <g id="line2d_17">
      <path d="M 34.56 103.089005 
L 415.954873 103.089005 
" clip-path="url(#pd8111d73e6)" style="fill: none; stroke: #21262d; stroke-opacity: 0.5; stroke-width: 0.5; stroke-linecap: square"/>
     </g>
     <g id="line2d_18">
      <g>
       <use xlink:href="#m1484e865e0" x="34.56" y="103.089005" style="fill: #c9d1d9; stroke: #c9d1d9; stroke-width: 0.8"/>
      </g>
     </g>
     <g id="text_9">
      <!-- $100 -->
      <g style="fill: #c9d1d9" transform="translate(7.2 106.12838) scale(0.08 -0.08)">
       <use xlink:href="#DejaVuSans-24"/>
       <use xlink:href="#DejaVuSans-31" transform="translate(63.623047 0)"/>
       <use xlink:href="#DejaVuSans-30" transform="translate(127.246094 0)"/>
       <use xlink:href="#DejaVuSans-30" transform="translate(190.869141 0)"/>
      </g>
     </g>
    </g>
    <g id="ytick_4">
     <g id="line2d_19">
      <path d="M 34.56 82.018912 
L 415.954873 82.018912 
" clip-path="url(#pd8111d73e6)" style="fill: none; stroke: #21262d; stroke-opacity: 0.5; stroke-width: 0.5; stroke-linecap: square"/>
     </g>
     <g id="line2d_20">
      <g>
       <use xlink:href="#m1484e865e0" x="34.56" y="82.018912" style="fill: #c9d1d9; stroke: #c9d1d9; stroke-width: 0.8"/>
      </g>
     </g>
     <g id="text_10">
      <!-- $150 -->
      <g style="fill: #c9d1d9" transform="translate(7.2 85.058287) scale(0.08 -0.08)">
       <use xlink:href="#DejaVuSans-24"/>
       <use xlink:href="#DejaVuSans-31" transform="translate(63.623047 0)"/>
       <use xlink:href="#DejaVuSans-35" transform="translate(127.246094 0)"/>
       <use xlink:href="#DejaVuSans-30" transform="translate(190.869141 0)"/>
      </g>
     </g>
    </g>
    <g id="ytick_5">
     <g id="line2d_21">
      <path d="M 34.56 60.94882 
L 415.954873 60.94882 
" clip-path="url(#pd8111d73e6)" style="fill: none; stroke: #21262d; stroke-opacity: 0.5; stroke-width: 0.5; stroke-linecap: square"/>
     </g>
     <g id="line2d_22">
      <g>
       <use xlink:href="#m1484e865e0" x="34.56" y="60.94882" style="fill: #c9d1d9; stroke: #c9d1d9; stroke-width: 0.8"/>
      </g>
     </g>
     <g id="text_11">
      <!-- $200 -->
      <g style="fill: #c9d1d9" transform="translate(7.2 63.988195) scale(0.08 -0.08)">
       <use xlink:href="#DejaVuSans-24"/>
       <use xlink:href="#DejaVuSans-32" transform="translate(63.623047 0)"/>
       <use xlink:href="#DejaVuSans-30" transform="translate(127.246094 0)"/>
       <use xlink:href="#DejaVuSans-30" transform="translate(190.869141 0)"/>
      </g>
     </g>
    </g>
    <g id="ytick_6">
     <g id="line2d_23">
      <path d="M 34.56 39.878727 
L 415.954873 39.878727 
" clip-path="url(#pd8111d73e6)" style="fill: none; stroke: #21262d; stroke-opacity: 0.5; stroke-width: 0.5; stroke-linecap: square"/>
     </g>
     <g id="line2d_24">
      <g>
       <use xlink:href="#m1484e865e0" x="34.56" y="39.878727" style="fill: #c9d1d9; stroke: #c9d1d9; stroke-width: 0.8"/>
      </g>
     </g>
     <g id="text_12">
      <!-- $250 -->
      <g style="fill: #c9d1d9" transform="translate(7.2 42.918102) scale(0.08 -0.08)">
       <use xlink:href="#DejaVuSans-24"/>
       <use xlink:href="#DejaVuSans-32" transform="translate(63.623047 0)"/>
       <use xlink:href="#DejaVuSans-35" transform="translate(127.246094 0)"/>
       <use xlink:href="#DejaVuSans-30" transform="translate(190.869141 0)"/>
      </g>
     </g>
    </g>
   </g>
   <g id="line2d_25">
    <path d="M 51.896131 44.585786 
L 55.470591 48.289908 
L 59.04505 44.847055 
L 62.61951 48.812446 
L 66.19397 47.341754 
L 69.76843 46.54109 
L 73.34289 30.371901 
L 76.91735 47.973856 
L 80.49181 43.882044 
L 84.06627 40.852165 
L 87.64073 45.20946 
L 91.21519 44.543645 
L 94.78965 42.48299 
L 98.36411 40.266417 
L 101.938569 43.654487 
L 105.513029 44.602642 
L 109.087489 39.988291 
L 112.661949 40.502402 
L 116.236409 39.882941 
L 119.810869 40.801597 
L 123.385329 42.453492 
L 126.959789 41.092364 
L 130.534249 41.281995 
L 134.108709 37.95292 
L 137.683169 39.697524 
L 141.257629 41.121862 
L 144.832089 42.921248 
L 148.406548 41.4337 
L 151.981008 40.506616 
L 155.555468 36.191461 
L 159.129928 39.836587 
L 162.704388 40.030432 
L 166.278848 40.081 
L 169.853308 38.007703 
L 173.427768 34.13502 
L 177.002228 35.883837 
L 180.576688 37.122759 
L 184.151148 38.622949 
L 187.725608 42.221721 
L 191.300067 36.267313 
L 194.874527 41.029154 
L 198.448987 41.871958 
L 202.023447 38.113053 
L 205.597907 37.771718 
L 209.172367 36.949984 
L 212.746827 37.198611 
L 216.321287 34.32465 
L 219.895747 34.982037 
L 223.470207 40.16528 
L 227.044667 33.132083 
L 230.619127 35.234878 
L 234.193587 34.998893 
L 237.768046 35.517218 
L 241.342506 38.138337 
L 244.916966 35.555144 
L 248.491426 32.592689 
L 252.065886 34.897757 
L 255.640346 33.140511 
L 259.214806 38.146765 
L 262.789266 30.279193 
L 266.363726 37.514662 
L 269.938186 30.22441 
L 273.512646 35.445579 
L 277.087106 36.680287 
L 280.661566 35.563572 
L 284.236025 31.585538 
L 287.810485 34.73341 
L 291.384945 32.120719 
L 294.959405 32.432556 
L 298.533865 33.650407 
L 302.108325 32.575833 
L 305.682785 36.815135 
L 309.257245 32.828674 
L 312.831705 30.995576 
L 316.406165 33.216364 
L 319.980625 31.467546 
L 323.555085 36.347379 
L 327.129544 32.504194 
L 330.704004 33.692548 
L 334.278464 32.322992 
L 337.852924 34.084451 
L 341.427384 32.103863 
L 345.001844 35.024177 
L 348.576304 30.932365 
L 352.150764 33.106799 
L 355.725224 28.770574 
L 359.299684 29.946285 
L 362.874144 28.74529 
L 366.448604 35.24752 
L 370.023064 30.173842 
L 373.597523 33.641979 
L 377.171983 32.580047 
L 380.746443 28.551445 
L 384.320903 33.258504 
L 387.895363 29.520669 
L 391.469823 27.447372 
L 395.044283 30.232838 
L 398.618743 31.42962 
" clip-path="url(#pd8111d73e6)" style="fill: none; stroke: #3fb950; stroke-width: 2; stroke-linecap: square"/>
   </g>
   <g id="patch_3">
    <path d="M 34.56 151.118281 
L 34.56 21.558281 
" style="fill: none; stroke: #21262d; stroke-width: 0.8; stroke-linejoin: miter; stroke-linecap: square"/>
   </g>
   <g id="patch_4">
    <path d="M 34.56 151.118281 
L 415.954873 151.118281 
" style="fill: none; stroke: #21262d; stroke-width: 0.8; stroke-linejoin: miter; stroke-linecap: square"/>
   </g>
   <g id="text_13">
    <!-- AUTORESEARCH (karpathy/autoresearch) — $270.05 (-1.04%) -->
    <g style="fill: #c9d1d9" transform="translate(34.862046 15.558281) scale(0.11 -0.11)">
     <defs>
      <path id="DejaVuSans-Bold-41" d="M 3419 850 
L 1538 850 
L 1241 0 
L 31 0 
L 1759 4666 
L 3194 4666 
L 4922 0 
L 3713 0 
L 3419 850 
z
M 1838 1716 
L 3116 1716 
L 2478 3572 
L 1838 1716 
z
" transform="scale(0.015625)"/>
      <path id="DejaVuSans-Bold-55" d="M 588 4666 
L 1791 4666 
L 1791 1869 
Q 1791 1291 1980 1042 
Q 2169 794 2597 794 
Q 3028 794 3217 1042 
Q 3406 1291 3406 1869 
L 3406 4666 
L 4609 4666 
L 4609 1869 
Q 4609 878 4112 393 
Q 3616 -91 2597 -91 
Q 1581 -91 1084 393 
Q 588 878 588 1869 
L 588 4666 
z
" transform="scale(0.015625)"/>
      <path id="DejaVuSans-Bold-54" d="M 31 4666 
L 4331 4666 
L 4331 3756 
L 2784 3756 
L 2784 0 
L 1581 0 
L 1581 3756 
L 31 3756 
L 31 4666 
z
" transform="scale(0.015625)"/>
      <path id="DejaVuSans-Bold-4f" d="M 2719 3878 
Q 2169 3878 1866 3472 
Q 1563 3066 1563 2328 
Q 1563 1594 1866 1187 
Q 2169 781 2719 781 
Q 3272 781 3575 1187 
Q 3878 1594 3878 2328 
Q 3878 3066 3575 3472 
Q 3272 3878 2719 3878 
z
M 2719 4750 
Q 3844 4750 4481 4106 
Q 5119 3463 5119 2328 
Q 5119 1197 4481 553 
Q 3844 -91 2719 -91 
Q 1597 -91 958 553 
Q 319 1197 319 2328 
Q 319 3463 958 4106 
Q 1597 4750 2719 4750 
z
" transform="scale(0.015625)"/>
      <path id="DejaVuSans-Bold-52" d="M 2297 2597 
Q 2675 2597 2839 2737 
Q 3003 2878 3003 3200 
Q 3003 3519 2839 3656 
Q 2675 3794 2297 3794 
L 1791 3794 
L 1791 2597 
L 2297 2597 
z
M 1791 1766 
L 1791 0 
L 588 0 
L 588 4666 
L 2425 4666 
Q 3347 4666 3776 4356 
Q 4206 4047 4206 3378 
Q 4206 2916 3982 2619 
Q 3759 2322 3309 2181 
Q 3556 2125 3751 1926 
Q 3947 1728 4147 1325 
L 4800 0 
L 3519 0 
L 2950 1159 
Q 2778 1509 2601 1637 
Q 2425 1766 2131 1766 
L 1791 1766 
z
" transform="scale(0.015625)"/>
      <path id="DejaVuSans-Bold-45" d="M 588 4666 
L 3834 4666 
L 3834 3756 
L 1791 3756 
L 1791 2888 
L 3713 2888 
L 3713 1978 
L 1791 1978 
L 1791 909 
L 3903 909 
L 3903 0 
L 588 0 
L 588 4666 
z
" transform="scale(0.015625)"/>
      <path id="DejaVuSans-Bold-53" d="M 3834 4519 
L 3834 3531 
Q 3450 3703 3084 3790 
Q 2719 3878 2394 3878 
Q 1963 3878 1756 3759 
Q 1550 3641 1550 3391 
Q 1550 3203 1689 3098 
Q 1828 2994 2194 2919 
L 2706 2816 
Q 3484 2659 3812 2340 
Q 4141 2022 4141 1434 
Q 4141 663 3683 286 
Q 3225 -91 2284 -91 
Q 1841 -91 1394 -6 
Q 947 78 500 244 
L 500 1259 
Q 947 1022 1364 901 
Q 1781 781 2169 781 
Q 2563 781 2772 912 
Q 2981 1044 2981 1288 
Q 2981 1506 2839 1625 
Q 2697 1744 2272 1838 
L 1806 1941 
Q 1106 2091 782 2419 
Q 459 2747 459 3303 
Q 459 4000 909 4375 
Q 1359 4750 2203 4750 
Q 2588 4750 2994 4692 
Q 3400 4634 3834 4519 
z
" transform="scale(0.015625)"/>
      <path id="DejaVuSans-Bold-43" d="M 4288 256 
Q 3956 84 3597 -3 
Q 3238 -91 2847 -91 
Q 1681 -91 1000 561 
Q 319 1213 319 2328 
Q 319 3447 1000 4098 
Q 1681 4750 2847 4750 
Q 3238 4750 3597 4662 
Q 3956 4575 4288 4403 
L 4288 3438 
Q 3953 3666 3628 3772 
Q 3303 3878 2944 3878 
Q 2300 3878 1931 3465 
Q 1563 3053 1563 2328 
Q 1563 1606 1931 1193 
Q 2300 781 2944 781 
Q 3303 781 3628 887 
Q 3953 994 4288 1222 
L 4288 256 
z
" transform="scale(0.015625)"/>
      <path id="DejaVuSans-Bold-48" d="M 588 4666 
L 1791 4666 
L 1791 2888 
L 3566 2888 
L 3566 4666 
L 4769 4666 
L 4769 0 
L 3566 0 
L 3566 1978 
L 1791 1978 
L 1791 0 
L 588 0 
L 588 4666 
z
" transform="scale(0.015625)"/>
      <path id="DejaVuSans-Bold-20" transform="scale(0.015625)"/>
      <path id="DejaVuSans-Bold-28" d="M 2413 -844 
L 1484 -844 
Q 1006 -72 778 623 
Q 550 1319 550 2003 
Q 550 2688 779 3389 
Q 1009 4091 1484 4856 
L 2413 4856 
Q 2013 4116 1813 3408 
Q 1613 2700 1613 2009 
Q 1613 1319 1811 609 
Q 2009 -100 2413 -844 
z
" transform="scale(0.015625)"/>
      <path id="DejaVuSans-Bold-6b" d="M 538 4863 
L 1656 4863 
L 1656 2216 
L 2944 3500 
L 4244 3500 
L 2534 1894 
L 4378 0 
L 3022 0 
L 1656 1459 
L 1656 0 
L 538 0 
L 538 4863 
z
" transform="scale(0.015625)"/>
      <path id="DejaVuSans-Bold-61" d="M 2106 1575 
Q 1756 1575 1579 1456 
Q 1403 1338 1403 1106 
Q 1403 894 1545 773 
Q 1688 653 1941 653 
Q 2256 653 2472 879 
Q 2688 1106 2688 1447 
L 2688 1575 
L 2106 1575 
z
M 3816 1997 
L 3816 0 
L 2688 0 
L 2688 519 
Q 2463 200 2181 54 
Q 1900 -91 1497 -91 
Q 953 -91 614 226 
Q 275 544 275 1050 
Q 275 1666 698 1953 
Q 1122 2241 2028 2241 
L 2688 2241 
L 2688 2328 
Q 2688 2594 2478 2717 
Q 2269 2841 1825 2841 
Q 1466 2841 1156 2769 
Q 847 2697 581 2553 
L 581 3406 
Q 941 3494 1303 3539 
Q 1666 3584 2028 3584 
Q 2975 3584 3395 3211 
Q 3816 2838 3816 1997 
z
" transform="scale(0.015625)"/>
      <path id="DejaVuSans-Bold-72" d="M 3138 2547 
Q 2991 2616 2845 2648 
Q 2700 2681 2553 2681 
Q 2122 2681 1889 2404 
Q 1656 2128 1656 1613 
L 1656 0 
L 538 0 
L 538 3500 
L 1656 3500 
L 1656 2925 
Q 1872 3269 2151 3426 
Q 2431 3584 2822 3584 
Q 2878 3584 2943 3579 
Q 3009 3575 3134 3559 
L 3138 2547 
z
" transform="scale(0.015625)"/>
      <path id="DejaVuSans-Bold-70" d="M 1656 506 
L 1656 -1331 
L 538 -1331 
L 538 3500 
L 1656 3500 
L 1656 2988 
Q 1888 3294 2169 3439 
Q 2450 3584 2816 3584 
Q 3463 3584 3878 3070 
Q 4294 2556 4294 1747 
Q 4294 938 3878 423 
Q 3463 -91 2816 -91 
Q 2450 -91 2169 54 
Q 1888 200 1656 506 
z
M 2400 2772 
Q 2041 2772 1848 2508 
Q 1656 2244 1656 1747 
Q 1656 1250 1848 986 
Q 2041 722 2400 722 
Q 2759 722 2948 984 
Q 3138 1247 3138 1747 
Q 3138 2247 2948 2509 
Q 2759 2772 2400 2772 
z
" transform="scale(0.015625)"/>
      <path id="DejaVuSans-Bold-74" d="M 1759 4494 
L 1759 3500 
L 2913 3500 
L 2913 2700 
L 1759 2700 
L 1759 1216 
Q 1759 972 1856 886 
Q 1953 800 2241 800 
L 2816 800 
L 2816 0 
L 1856 0 
Q 1194 0 917 276 
Q 641 553 641 1216 
L 641 2700 
L 84 2700 
L 84 3500 
L 641 3500 
L 641 4494 
L 1759 4494 
z
" transform="scale(0.015625)"/>
      <path id="DejaVuSans-Bold-68" d="M 4056 2131 
L 4056 0 
L 2931 0 
L 2931 347 
L 2931 1625 
Q 2931 2084 2911 2256 
Q 2891 2428 2841 2509 
Q 2775 2619 2662 2680 
Q 2550 2741 2406 2741 
Q 2056 2741 1856 2470 
Q 1656 2200 1656 1722 
L 1656 0 
L 538 0 
L 538 4863 
L 1656 4863 
L 1656 2988 
Q 1909 3294 2193 3439 
Q 2478 3584 2822 3584 
Q 3428 3584 3742 3212 
Q 4056 2841 4056 2131 
z
" transform="scale(0.015625)"/>
      <path id="DejaVuSans-Bold-79" d="M 78 3500 
L 1197 3500 
L 2138 1125 
L 2938 3500 
L 4056 3500 
L 2584 -331 
Q 2363 -916 2067 -1148 
Q 1772 -1381 1288 -1381 
L 641 -1381 
L 641 -647 
L 991 -647 
Q 1275 -647 1404 -556 
Q 1534 -466 1606 -231 
L 1638 -134 
L 78 3500 
z
" transform="scale(0.015625)"/>
      <path id="DejaVuSans-Bold-2f" d="M 1644 4666 
L 2338 4666 
L 691 -594 
L 0 -594 
L 1644 4666 
z
" transform="scale(0.015625)"/>
      <path id="DejaVuSans-Bold-75" d="M 500 1363 
L 500 3500 
L 1625 3500 
L 1625 3150 
Q 1625 2866 1622 2436 
Q 1619 2006 1619 1863 
Q 1619 1441 1641 1255 
Q 1663 1069 1716 984 
Q 1784 875 1895 815 
Q 2006 756 2150 756 
Q 2500 756 2700 1025 
Q 2900 1294 2900 1772 
L 2900 3500 
L 4019 3500 
L 4019 0 
L 2900 0 
L 2900 506 
Q 2647 200 2364 54 
Q 2081 -91 1741 -91 
Q 1134 -91 817 281 
Q 500 653 500 1363 
z
" transform="scale(0.015625)"/>
      <path id="DejaVuSans-Bold-6f" d="M 2203 2784 
Q 1831 2784 1636 2517 
Q 1441 2250 1441 1747 
Q 1441 1244 1636 976 
Q 1831 709 2203 709 
Q 2569 709 2762 976 
Q 2956 1244 2956 1747 
Q 2956 2250 2762 2517 
Q 2569 2784 2203 2784 
z
M 2203 3584 
Q 3106 3584 3614 3096 
Q 4122 2609 4122 1747 
Q 4122 884 3614 396 
Q 3106 -91 2203 -91 
Q 1297 -91 786 396 
Q 275 884 275 1747 
Q 275 2609 786 3096 
Q 1297 3584 2203 3584 
z
" transform="scale(0.015625)"/>
      <path id="DejaVuSans-Bold-65" d="M 4031 1759 
L 4031 1441 
L 1416 1441 
Q 1456 1047 1700 850 
Q 1944 653 2381 653 
Q 2734 653 3104 758 
Q 3475 863 3866 1075 
L 3866 213 
Q 3469 63 3072 -14 
Q 2675 -91 2278 -91 
Q 1328 -91 801 392 
Q 275 875 275 1747 
Q 275 2603 792 3093 
Q 1309 3584 2216 3584 
Q 3041 3584 3536 3087 
Q 4031 2591 4031 1759 
z
M 2881 2131 
Q 2881 2450 2695 2645 
Q 2509 2841 2209 2841 
Q 1884 2841 1681 2658 
Q 1478 2475 1428 2131 
L 2881 2131 
z
" transform="scale(0.015625)"/>
      <path id="DejaVuSans-Bold-73" d="M 3272 3391 
L 3272 2541 
Q 2913 2691 2578 2766 
Q 2244 2841 1947 2841 
Q 1628 2841 1473 2761 
Q 1319 2681 1319 2516 
Q 1319 2381 1436 2309 
Q 1553 2238 1856 2203 
L 2053 2175 
Q 2913 2066 3209 1816 
Q 3506 1566 3506 1031 
Q 3506 472 3093 190 
Q 2681 -91 1863 -91 
Q 1516 -91 1145 -36 
Q 775 19 384 128 
L 384 978 
Q 719 816 1070 734 
Q 1422 653 1784 653 
Q 2113 653 2278 743 
Q 2444 834 2444 1013 
Q 2444 1163 2330 1236 
Q 2216 1309 1875 1350 
L 1678 1375 
Q 931 1469 631 1722 
Q 331 1975 331 2491 
Q 331 3047 712 3315 
Q 1094 3584 1881 3584 
Q 2191 3584 2531 3537 
Q 2872 3491 3272 3391 
z
" transform="scale(0.015625)"/>
      <path id="DejaVuSans-Bold-63" d="M 3366 3391 
L 3366 2478 
Q 3138 2634 2908 2709 
Q 2678 2784 2431 2784 
Q 1963 2784 1702 2511 
Q 1441 2238 1441 1747 
Q 1441 1256 1702 982 
Q 1963 709 2431 709 
Q 2694 709 2930 787 
Q 3166 866 3366 1019 
L 3366 103 
Q 3103 6 2833 -42 
Q 2563 -91 2291 -91 
Q 1344 -91 809 395 
Q 275 881 275 1747 
Q 275 2613 809 3098 
Q 1344 3584 2291 3584 
Q 2566 3584 2833 3536 
Q 3100 3488 3366 3391 
z
" transform="scale(0.015625)"/>
      <path id="DejaVuSans-Bold-29" d="M 513 -844 
Q 913 -100 1113 609 
Q 1313 1319 1313 2009 
Q 1313 2700 1113 3408 
Q 913 4116 513 4856 
L 1441 4856 
Q 1916 4091 2145 3389 
Q 2375 2688 2375 2003 
Q 2375 1319 2147 623 
Q 1919 -72 1441 -844 
L 513 -844 
z
" transform="scale(0.015625)"/>
      <path id="DejaVuSans-Bold-2014" d="M 344 2156 
L 6056 2156 
L 6056 1350 
L 344 1350 
L 344 2156 
z
" transform="scale(0.015625)"/>
      <path id="DejaVuSans-Bold-24" d="M 2484 -941 
L 1978 -941 
L 1975 0 
Q 1584 16 1218 87 
Q 853 159 506 288 
L 506 1106 
Q 866 922 1233 823 
Q 1600 725 1978 713 
L 1978 1684 
L 1875 1703 
Q 1128 1834 814 2115 
Q 500 2397 500 2925 
Q 500 3484 883 3798 
Q 1266 4113 1975 4141 
L 1978 4863 
L 2484 4863 
L 2484 4153 
Q 2797 4128 3109 4075 
Q 3422 4022 3738 3938 
L 3738 3144 
Q 3425 3275 3112 3348 
Q 2800 3422 2484 3438 
L 2484 2541 
L 2584 2522 
Q 3378 2397 3698 2105 
Q 4019 1813 4019 1241 
Q 4019 666 3637 358 
Q 3256 50 2484 6 
L 2484 -941 
z
M 1978 2613 
L 1978 3428 
Q 1756 3416 1623 3308 
Q 1491 3200 1491 3034 
Q 1491 2850 1612 2745 
Q 1734 2641 1978 2613 
z
M 2484 1594 
L 2484 725 
Q 2756 728 2892 831 
Q 3028 934 3028 1141 
Q 3028 1353 2903 1458 
Q 2778 1563 2484 1594 
z
" transform="scale(0.015625)"/>
      <path id="DejaVuSans-Bold-32" d="M 1844 884 
L 3897 884 
L 3897 0 
L 506 0 
L 506 884 
L 2209 2388 
Q 2438 2594 2547 2791 
Q 2656 2988 2656 3200 
Q 2656 3528 2436 3728 
Q 2216 3928 1850 3928 
Q 1569 3928 1234 3808 
Q 900 3688 519 3450 
L 519 4475 
Q 925 4609 1322 4679 
Q 1719 4750 2100 4750 
Q 2938 4750 3402 4381 
Q 3866 4013 3866 3353 
Q 3866 2972 3669 2642 
Q 3472 2313 2841 1759 
L 1844 884 
z
" transform="scale(0.015625)"/>
      <path id="DejaVuSans-Bold-37" d="M 428 4666 
L 3944 4666 
L 3944 3988 
L 2125 0 
L 953 0 
L 2675 3781 
L 428 3781 
L 428 4666 
z
" transform="scale(0.015625)"/>
      <path id="DejaVuSans-Bold-30" d="M 2944 2338 
Q 2944 3213 2780 3570 
Q 2616 3928 2228 3928 
Q 1841 3928 1675 3570 
Q 1509 3213 1509 2338 
Q 1509 1453 1675 1090 
Q 1841 728 2228 728 
Q 2613 728 2778 1090 
Q 2944 1453 2944 2338 
z
M 4147 2328 
Q 4147 1169 3647 539 
Q 3147 -91 2228 -91 
Q 1306 -91 806 539 
Q 306 1169 306 2328 
Q 306 3491 806 4120 
Q 1306 4750 2228 4750 
Q 3147 4750 3647 4120 
Q 4147 3491 4147 2328 
z
" transform="scale(0.015625)"/>
      <path id="DejaVuSans-Bold-2e" d="M 653 1209 
L 1778 1209 
L 1778 0 
L 653 0 
L 653 1209 
z
" transform="scale(0.015625)"/>
      <path id="DejaVuSans-Bold-35" d="M 678 4666 
L 3669 4666 
L 3669 3781 
L 1638 3781 
L 1638 3059 
Q 1775 3097 1914 3117 
Q 2053 3138 2203 3138 
Q 3056 3138 3531 2711 
Q 4006 2284 4006 1522 
Q 4006 766 3489 337 
Q 2972 -91 2053 -91 
Q 1656 -91 1267 -14 
Q 878 63 494 219 
L 494 1166 
Q 875 947 1217 837 
Q 1559 728 1863 728 
Q 2300 728 2551 942 
Q 2803 1156 2803 1522 
Q 2803 1891 2551 2103 
Q 2300 2316 1863 2316 
Q 1603 2316 1309 2248 
Q 1016 2181 678 2041 
L 678 4666 
z
" transform="scale(0.015625)"/>
      <path id="DejaVuSans-Bold-2d" d="M 347 2297 
L 2309 2297 
L 2309 1388 
L 347 1388 
L 347 2297 
z
" transform="scale(0.015625)"/>
      <path id="DejaVuSans-Bold-31" d="M 750 831 
L 1813 831 
L 1813 3847 
L 722 3622 
L 722 4441 
L 1806 4666 
L 2950 4666 
L 2950 831 
L 4013 831 
L 4013 0 
L 750 0 
L 750 831 
z
" transform="scale(0.015625)"/>
      <path id="DejaVuSans-Bold-34" d="M 2356 3675 
L 1038 1722 
L 2356 1722 
L 2356 3675 
z
M 2156 4666 
L 3494 4666 
L 3494 1722 
L 4159 1722 
L 4159 850 
L 3494 850 
L 3494 0 
L 2356 0 
L 2356 850 
L 288 850 
L 288 1881 
L 2156 4666 
z
" transform="scale(0.015625)"/>
      <path id="DejaVuSans-Bold-25" d="M 4959 1925 
Q 4738 1925 4616 1733 
Q 4494 1541 4494 1184 
Q 4494 825 4614 633 
Q 4734 441 4959 441 
Q 5184 441 5303 633 
Q 5422 825 5422 1184 
Q 5422 1541 5301 1733 
Q 5181 1925 4959 1925 
z
M 4959 2450 
Q 5541 2450 5875 2112 
Q 6209 1775 6209 1184 
Q 6209 594 5875 251 
Q 5541 -91 4959 -91 
Q 4378 -91 4042 251 
Q 3706 594 3706 1184 
Q 3706 1772 4042 2111 
Q 4378 2450 4959 2450 
z
M 2094 -91 
L 1403 -91 
L 4319 4750 
L 5013 4750 
L 2094 -91 
z
M 1453 4750 
Q 2034 4750 2367 4411 
Q 2700 4072 2700 3481 
Q 2700 2891 2367 2550 
Q 2034 2209 1453 2209 
Q 872 2209 539 2550 
Q 206 2891 206 3481 
Q 206 4072 539 4411 
Q 872 4750 1453 4750 
z
M 1453 4225 
Q 1228 4225 1106 4031 
Q 984 3838 984 3481 
Q 984 3122 1106 2926 
Q 1228 2731 1453 2731 
Q 1678 2731 1798 2926 
Q 1919 3122 1919 3481 
Q 1919 3838 1797 4031 
Q 1675 4225 1453 4225 
z
" transform="scale(0.015625)"/>
     </defs>
     <use xlink:href="#DejaVuSans-Bold-41"/>
     <use xlink:href="#DejaVuSans-Bold-55" transform="translate(74.267578 0)"/>
     <use xlink:href="#DejaVuSans-Bold-54" transform="translate(155.46875 0)"/>
     <use xlink:href="#DejaVuSans-Bold-4f" transform="translate(223.681641 0)"/>
     <use xlink:href="#DejaVuSans-Bold-52" transform="translate(308.691406 0)"/>
     <use xlink:href="#DejaVuSans-Bold-45" transform="translate(385.693359 0)"/>
     <use xlink:href="#DejaVuSans-Bold-53" transform="translate(454.003906 0)"/>
     <use xlink:href="#DejaVuSans-Bold-45" transform="translate(526.025391 0)"/>
     <use xlink:href="#DejaVuSans-Bold-41" transform="translate(594.335938 0)"/>
     <use xlink:href="#DejaVuSans-Bold-52" transform="translate(671.728516 0)"/>
     <use xlink:href="#DejaVuSans-Bold-43" transform="translate(748.730469 0)"/>
     <use xlink:href="#DejaVuSans-Bold-48" transform="translate(822.119141 0)"/>
     <use xlink:href="#DejaVuSans-Bold-20" transform="translate(905.810547 0)"/>
     <use xlink:href="#DejaVuSans-Bold-28" transform="translate(940.625 0)"/>
     <use xlink:href="#DejaVuSans-Bold-6b" transform="translate(986.328125 0)"/>
     <use xlink:href="#DejaVuSans-Bold-61" transform="translate(1052.832031 0)"/>
     <use xlink:href="#DejaVuSans-Bold-72" transform="translate(1120.3125 0)"/>
     <use xlink:href="#DejaVuSans-Bold-70" transform="translate(1169.628906 0)"/>
     <use xlink:href="#DejaVuSans-Bold-61" transform="translate(1241.210938 0)"/>
     <use xlink:href="#DejaVuSans-Bold-74" transform="translate(1308.691406 0)"/>
     <use xlink:href="#DejaVuSans-Bold-68" transform="translate(1356.494141 0)"/>
     <use xlink:href="#DejaVuSans-Bold-79" transform="translate(1427.685547 0)"/>
     <use xlink:href="#DejaVuSans-Bold-2f" transform="translate(1492.871094 0)"/>
     <use xlink:href="#DejaVuSans-Bold-61" transform="translate(1529.394531 0)"/>
     <use xlink:href="#DejaVuSans-Bold-75" transform="translate(1596.875 0)"/>
     <use xlink:href="#DejaVuSans-Bold-74" transform="translate(1668.066406 0)"/>
     <use xlink:href="#DejaVuSans-Bold-6f" transform="translate(1715.869141 0)"/>
     <use xlink:href="#DejaVuSans-Bold-72" transform="translate(1784.570312 0)"/>
     <use xlink:href="#DejaVuSans-Bold-65" transform="translate(1833.886719 0)"/>
     <use xlink:href="#DejaVuSans-Bold-73" transform="translate(1901.708984 0)"/>
     <use xlink:href="#DejaVuSans-Bold-65" transform="translate(1961.230469 0)"/>
     <use xlink:href="#DejaVuSans-Bold-61" transform="translate(2029.052734 0)"/>
     <use xlink:href="#DejaVuSans-Bold-72" transform="translate(2096.533203 0)"/>
     <use xlink:href="#DejaVuSans-Bold-63" transform="translate(2145.849609 0)"/>
     <use xlink:href="#DejaVuSans-Bold-68" transform="translate(2205.126953 0)"/>
     <use xlink:href="#DejaVuSans-Bold-29" transform="translate(2276.318359 0)"/>
     <use xlink:href="#DejaVuSans-Bold-20" transform="translate(2322.021484 0)"/>
     <use xlink:href="#DejaVuSans-Bold-2014" transform="translate(2356.835938 0)"/>
     <use xlink:href="#DejaVuSans-Bold-20" transform="translate(2456.835938 0)"/>
     <use xlink:href="#DejaVuSans-Bold-24" transform="translate(2491.650391 0)"/>
     <use xlink:href="#DejaVuSans-Bold-32" transform="translate(2561.230469 0)"/>
     <use xlink:href="#DejaVuSans-Bold-37" transform="translate(2630.810547 0)"/>
     <use xlink:href="#DejaVuSans-Bold-30" transform="translate(2700.390625 0)"/>
     <use xlink:href="#DejaVuSans-Bold-2e" transform="translate(2769.970703 0)"/>
     <use xlink:href="#DejaVuSans-Bold-30" transform="translate(2807.958984 0)"/>
     <use xlink:href="#DejaVuSans-Bold-35" transform="translate(2877.539062 0)"/>
     <use xlink:href="#DejaVuSans-Bold-20" transform="translate(2947.119141 0)"/>
     <use xlink:href="#DejaVuSans-Bold-28" transform="translate(2981.933594 0)"/>
     <use xlink:href="#DejaVuSans-Bold-2d" transform="translate(3027.636719 0)"/>
     <use xlink:href="#DejaVuSans-Bold-31" transform="translate(3069.140625 0)"/>
     <use xlink:href="#DejaVuSans-Bold-2e" transform="translate(3138.720703 0)"/>
     <use xlink:href="#DejaVuSans-Bold-30" transform="translate(3176.708984 0)"/>
     <use xlink:href="#DejaVuSans-Bold-34" transform="translate(3246.289062 0)"/>
     <use xlink:href="#DejaVuSans-Bold-25" transform="translate(3315.869141 0)"/>
     <use xlink:href="#DejaVuSans-Bold-29" transform="translate(3416.064453 0)"/>
    </g>
   </g>
  </g>
 </g>
 <defs>
  <clipPath id="pd8111d73e6">
   <rect x="34.56" y="21.558281" width="381.394873" height="129.56"/>
  </clipPath>
 </defs>
</svg>
