<?xml version="1.0" encoding="utf-8" standalone="no"?>
<!DOCTYPE svg PUBLIC "-//W3C//DTD SVG 1.1//EN"
  "http://www.w3.org/Graphics/SVG/1.1/DTD/svg11.dtd">
<svg xmlns:xlink="http://www.w3.org/1999/xlink" width="424.91pt" height="173.060781pt" viewBox="0 0 424.91 173.060781" xmlns="http://www.w3.org/2000/svg" version="1.1">
 <metadata>
  <rdf:RDF xmlns:dc="http://purl.org/dc/elements/1.1/" xmlns:cc="http://creativecommons.org/ns#" xmlns:rdf="http://www.w3.org/1999/02/22-rdf-syntax-ns#">
   <cc:Work>
    <dc:type rdf:resource="http://purl.org/dc/dcmitype/StillImage"/>
    <dc:date>2026-04-16T00:22:02.751679</dc:date>
    <dc:format>image/svg+xml</dc:format>
    <dc:creator>
     <cc:Agent>
      <dc:title>Matplotlib v3.10.8, https://matplotlib.org/</dc:title>
     </cc:Agent>
    </dc:creator>
   </cc:Work>
  </rdf:RDF>
 </metadata>
 <defs>
  <style type="text/css">*{stroke-linejoin: round; stroke-linecap: butt}</style>
 </defs>
 <g id="figure_1">
  <g id="patch_1">
   <path d="M 0 173.060781 
L 424.91 173.060781 
L 424.91 0 
L 0 0 
z
" style="fill: #0d1117"/>
  </g>
  <g id="axes_1">
   <g id="patch_2">
    <path d="M 34.56 151.118281 
L 417.71 151.118281 
L 417.71 21.558281 
L 34.56 21.558281 
z
" style="fill: #0d1117"/>
   </g>
   <g id="FillBetweenPolyCollection_1">
    <defs>
     <path id="m0157d4f984" d="M 51.975909 -27.831591 
L 51.975909 -108.953739 
L 55.424604 -110.929802 
L 58.873299 -112.709316 
L 62.321994 -109.980869 
L 65.770689 -111.434913 
L 69.219383 -93.711635 
L 72.668078 -85.21562 
L 76.116773 -97.558089 
L 79.565468 -116.604379 
L 83.014163 -102.427447 
L 86.462858 -115.380699 
L 89.911553 -108.810025 
L 93.360248 -113.003083 
L 96.808942 -101.784962 
L 100.257637 -117.950638 
L 103.706332 -111.802651 
L 107.155027 -118.373326 
L 110.603722 -117.399031 
L 114.052417 -118.335284 
L 117.501112 -115.706169 
L 120.949806 -118.789673 
L 124.398501 -115.435649 
L 127.847196 -114.98126 
L 131.295891 -117.658984 
L 134.744586 -114.467695 
L 138.193281 -115.87313 
L 141.641976 -97.680668 
L 145.090671 -116.120402 
L 148.539365 -90.924012 
L 151.98806 -117.067222 
L 155.436755 -99.920911 
L 158.88545 -118.407141 
L 162.334145 -114.628316 
L 165.78284 -112.565602 
L 169.231535 -109.989323 
L 172.68023 -107.364435 
L 176.128924 -85.441757 
L 179.577619 -83.617862 
L 183.026314 -85.608719 
L 186.475009 -83.901062 
L 189.923704 -85.574904 
L 193.372399 -118.929159 
L 196.821094 -114.144339 
L 200.269788 -116.917168 
L 203.718483 -103.162923 
L 207.167178 -83.43822 
L 210.615873 -88.827483 
L 214.064568 -104.965684 
L 217.513263 -103.029776 
L 220.961958 -119.322259 
L 224.410653 -104.056906 
L 227.859347 -117.798471 
L 231.308042 -115.025642 
L 234.756737 -101.246036 
L 238.205432 -121.355385 
L 241.654127 -115.179923 
L 245.102822 -116.095041 
L 248.551517 -118.303582 
L 252.000212 -122.07184 
L 255.448906 -120.64527 
L 258.897601 -121.141927 
L 262.346296 -120.537485 
L 265.794991 -121.744257 
L 269.243686 -141.006117 
L 272.692381 -132.856706 
L 276.141076 -109.137608 
L 279.58977 -114.905176 
L 283.038465 -120.592434 
L 286.48716 -105.893483 
L 289.935855 -114.653677 
L 293.38455 -111.952705 
L 296.833245 -112.375393 
L 300.28194 -110.07386 
L 303.730635 -112.709316 
L 307.179329 -107.863206 
L 310.628024 -106.688135 
L 314.076719 -84.583702 
L 317.525414 -109.025596 
L 320.974109 -97.213599 
L 324.422804 -117.658984 
L 327.871499 -99.785651 
L 331.320194 -102.021667 
L 334.768888 -116.731185 
L 338.217583 -95.913835 
L 341.666278 -121.425128 
L 345.114973 -114.30496 
L 348.563668 -118.159868 
L 352.012363 -117.38001 
L 355.461058 -115.579362 
L 358.909752 -121.237032 
L 362.358447 -116.160558 
L 365.807142 -145.613409 
L 369.255837 -113.06226 
L 372.704532 -118.307809 
L 376.153227 -114.869248 
L 379.601922 -114.915743 
L 383.050617 -118.312036 
L 386.499311 -114.370477 
L 389.948006 -116.316952 
L 393.396701 -114.368363 
L 396.845396 -86.887348 
L 400.294091 -100.447157 
L 400.294091 -27.831591 
L 400.294091 -27.831591 
L 396.845396 -27.831591 
L 393.396701 -27.831591 
L 389.948006 -27.831591 
L 386.499311 -27.831591 
L 383.050617 -27.831591 
L 379.601922 -27.831591 
L 376.153227 -27.831591 
L 372.704532 -27.831591 
L 369.255837 -27.831591 
L 365.807142 -27.831591 
L 362.358447 -27.831591 
L 358.909752 -27.831591 
L 355.461058 -27.831591 
L 352.012363 -27.831591 
L 348.563668 -27.831591 
L 345.114973 -27.831591 
L 341.666278 -27.831591 
L 338.217583 -27.831591 
L 334.768888 -27.831591 
L 331.320194 -27.831591 
L 327.871499 -27.831591 
L 324.422804 -27.831591 
L 320.974109 -27.831591 
L 317.525414 -27.831591 
L 314.076719 -27.831591 
L 310.628024 -27.831591 
L 307.179329 -27.831591 
L 303.730635 -27.831591 
L 300.28194 -27.831591 
L 296.833245 -27.831591 
L 293.38455 -27.831591 
L 289.935855 -27.831591 
L 286.48716 -27.831591 
L 283.038465 -27.831591 
L 279.58977 -27.831591 
L 276.141076 -27.831591 
L 272.692381 -27.831591 
L 269.243686 -27.831591 
L 265.794991 -27.831591 
L 262.346296 -27.831591 
L 258.897601 -27.831591 
L 255.448906 -27.831591 
L 252.000212 -27.831591 
L 248.551517 -27.831591 
L 245.102822 -27.831591 
L 241.654127 -27.831591 
L 238.205432 -27.831591 
L 234.756737 -27.831591 
L 231.308042 -27.831591 
L 227.859347 -27.831591 
L 224.410653 -27.831591 
L 220.961958 -27.831591 
L 217.513263 -27.831591 
L 214.064568 -27.831591 
L 210.615873 -27.831591 
L 207.167178 -27.831591 
L 203.718483 -27.831591 
L 200.269788 -27.831591 
L 196.821094 -27.831591 
L 193.372399 -27.831591 
L 189.923704 -27.831591 
L 186.475009 -27.831591 
L 183.026314 -27.831591 
L 179.577619 -27.831591 
L 176.128924 -27.831591 
L 172.68023 -27.831591 
L 169.231535 -27.831591 
L 165.78284 -27.831591 
L 162.334145 -27.831591 
L 158.88545 -27.831591 
L 155.436755 -27.831591 
L 151.98806 -27.831591 
L 148.539365 -27.831591 
L 145.090671 -27.831591 
L 141.641976 -27.831591 
L 138.193281 -27.831591 
L 134.744586 -27.831591 
L 131.295891 -27.831591 
L 127.847196 -27.831591 
L 124.398501 -27.831591 
L 120.949806 -27.831591 
L 117.501112 -27.831591 
L 114.052417 -27.831591 
L 110.603722 -27.831591 
L 107.155027 -27.831591 
L 103.706332 -27.831591 
L 100.257637 -27.831591 
L 96.808942 -27.831591 
L 93.360248 -27.831591 
L 89.911553 -27.831591 
L 86.462858 -27.831591 
L 83.014163 -27.831591 
L 79.565468 -27.831591 
L 76.116773 -27.831591 
L 72.668078 -27.831591 
L 69.219383 -27.831591 
L 65.770689 -27.831591 
L 62.321994 -27.831591 
L 58.873299 -27.831591 
L 55.424604 -27.831591 
L 51.975909 -27.831591 
z
" style="stroke: #f85149; stroke-opacity: 0.15"/>
    </defs>
    <g clip-path="url(#p9fd8929ed2)">
     <use xlink:href="#m0157d4f984" x="0" y="173.060781" style="fill: #f85149; fill-opacity: 0.15; stroke: #f85149; stroke-opacity: 0.15"/>
    </g>
   </g>
   <g id="matplotlib.axis_1">
    <g id="xtick_1">
     <g id="line2d_1">
      <path d="M 51.975909 151.118281 
L 51.975909 21.558281 
" clip-path="url(#p9fd8929ed2)" style="fill: none; stroke: #21262d; stroke-opacity: 0.5; stroke-width: 0.5; stroke-linecap: square"/>
     </g>
     <g id="line2d_2">
      <defs>
       <path id="m0e9a3ac0da" d="M 0 0 
L 0 3.5 
" style="stroke: #c9d1d9; stroke-width: 0.8"/>
      </defs>
      <g>
       <use xlink:href="#m0e9a3ac0da" x="51.975909" y="151.118281" style="fill: #c9d1d9; stroke: #c9d1d9; stroke-width: 0.8"/>
      </g>
     </g>
     <g id="text_1">
      <!-- 0 -->
      <g style="fill: #c9d1d9" transform="translate(49.430909 164.197031) scale(0.08 -0.08)">
       <defs>
        <path id="DejaVuSans-30" d="M 2034 4250 
Q 1547 4250 1301 3770 
Q 1056 3291 1056 2328 
Q 1056 1369 1301 889 
Q 1547 409 2034 409 
Q 2525 409 2770 889 
Q 3016 1369 3016 2328 
Q 3016 3291 2770 3770 
Q 2525 4250 2034 4250 
z
M 2034 4750 
Q 2819 4750 3233 4129 
Q 3647 3509 3647 2328 
Q 3647 1150 3233 529 
Q 2819 -91 2034 -91 
Q 1250 -91 836 529 
Q 422 1150 422 2328 
Q 422 3509 836 4129 
Q 1250 4750 2034 4750 
z
" transform="scale(0.015625)"/>
       </defs>
       <use xlink:href="#DejaVuSans-30"/>
      </g>
     </g>
    </g>
    <g id="xtick_2">
     <g id="line2d_3">
      <path d="M 120.949806 151.118281 
L 120.949806 21.558281 
" clip-path="url(#p9fd8929ed2)" style="fill: none; stroke: #21262d; stroke-opacity: 0.5; stroke-width: 0.5; stroke-linecap: square"/>
     </g>
     <g id="line2d_4">
      <g>
       <use xlink:href="#m0e9a3ac0da" x="120.949806" y="151.118281" style="fill: #c9d1d9; stroke: #c9d1d9; stroke-width: 0.8"/>
      </g>
     </g>
     <g id="text_2">
      <!-- 20 -->
      <g style="fill: #c9d1d9" transform="translate(115.859806 164.197031) scale(0.08 -0.08)">
       <defs>
        <path id="DejaVuSans-32" d="M 1228 531 
L 3431 531 
L 3431 0 
L 469 0 
L 469 531 
Q 828 903 1448 1529 
Q 2069 2156 2228 2338 
Q 2531 2678 2651 2914 
Q 2772 3150 2772 3378 
Q 2772 3750 2511 3984 
Q 2250 4219 1831 4219 
Q 1534 4219 1204 4116 
Q 875 4013 500 3803 
L 500 4441 
Q 881 4594 1212 4672 
Q 1544 4750 1819 4750 
Q 2544 4750 2975 4387 
Q 3406 4025 3406 3419 
Q 3406 3131 3298 2873 
Q 3191 2616 2906 2266 
Q 2828 2175 2409 1742 
Q 1991 1309 1228 531 
z
" transform="scale(0.015625)"/>
       </defs>
       <use xlink:href="#DejaVuSans-32"/>
       <use xlink:href="#DejaVuSans-30" transform="translate(63.623047 0)"/>
      </g>
     </g>
    </g>
    <g id="xtick_3">
     <g id="line2d_5">
      <path d="M 189.923704 151.118281 
L 189.923704 21.558281 
" clip-path="url(#p9fd8929ed2)" style="fill: none; stroke: #21262d; stroke-opacity: 0.5; stroke-width: 0.5; stroke-linecap: square"/>
     </g>
     <g id="line2d_6">
      <g>
       <use xlink:href="#m0e9a3ac0da" x="189.923704" y="151.118281" style="fill: #c9d1d9; stroke: #c9d1d9; stroke-width: 0.8"/>
      </g>
     </g>
     <g id="text_3">
      <!-- 40 -->
      <g style="fill: #c9d1d9" transform="translate(184.833704 164.197031) scale(0.08 -0.08)">
       <defs>
        <path id="DejaVuSans-34" d="M 2419 4116 
L 825 1625 
L 2419 1625 
L 2419 4116 
z
M 2253 4666 
L 3047 4666 
L 3047 1625 
L 3713 1625 
L 3713 1100 
L 3047 1100 
L 3047 0 
L 2419 0 
L 2419 1100 
L 313 1100 
L 313 1709 
L 2253 4666 
z
" transform="scale(0.015625)"/>
       </defs>
       <use xlink:href="#DejaVuSans-34"/>
       <use xlink:href="#DejaVuSans-30" transform="translate(63.623047 0)"/>
      </g>
     </g>
    </g>
    <g id="xtick_4">
     <g id="line2d_7">
      <path d="M 258.897601 151.118281 
L 258.897601 21.558281 
" clip-path="url(#p9fd8929ed2)" style="fill: none; stroke: #21262d; stroke-opacity: 0.5; stroke-width: 0.5; stroke-linecap: square"/>
     </g>
     <g id="line2d_8">
      <g>
       <use xlink:href="#m0e9a3ac0da" x="258.897601" y="151.118281" style="fill: #c9d1d9; stroke: #c9d1d9; stroke-width: 0.8"/>
      </g>
     </g>
     <g id="text_4">
      <!-- 60 -->
      <g style="fill: #c9d1d9" transform="translate(253.807601 164.197031) scale(0.08 -0.08)">
       <defs>
        <path id="DejaVuSans-36" d="M 2113 2584 
Q 1688 2584 1439 2293 
Q 1191 2003 1191 1497 
Q 1191 994 1439 701 
Q 1688 409 2113 409 
Q 2538 409 2786 701 
Q 3034 994 3034 1497 
Q 3034 2003 2786 2293 
Q 2538 2584 2113 2584 
z
M 3366 4563 
L 3366 3988 
Q 3128 4100 2886 4159 
Q 2644 4219 2406 4219 
Q 1781 4219 1451 3797 
Q 1122 3375 1075 2522 
Q 1259 2794 1537 2939 
Q 1816 3084 2150 3084 
Q 2853 3084 3261 2657 
Q 3669 2231 3669 1497 
Q 3669 778 3244 343 
Q 2819 -91 2113 -91 
Q 1303 -91 875 529 
Q 447 1150 447 2328 
Q 447 3434 972 4092 
Q 1497 4750 2381 4750 
Q 2619 4750 2861 4703 
Q 3103 4656 3366 4563 
z
" transform="scale(0.015625)"/>
       </defs>
       <use xlink:href="#DejaVuSans-36"/>
       <use xlink:href="#DejaVuSans-30" transform="translate(63.623047 0)"/>
      </g>
     </g>
    </g>
    <g id="xtick_5">
     <g id="line2d_9">
      <path d="M 327.871499 151.118281 
L 327.871499 21.558281 
" clip-path="url(#p9fd8929ed2)" style="fill: none; stroke: #21262d; stroke-opacity: 0.5; stroke-width: 0.5; stroke-linecap: square"/>
     </g>
     <g id="line2d_10">
      <g>
       <use xlink:href="#m0e9a3ac0da" x="327.871499" y="151.118281" style="fill: #c9d1d9; stroke: #c9d1d9; stroke-width: 0.8"/>
      </g>
     </g>
     <g id="text_5">
      <!-- 80 -->
      <g style="fill: #c9d1d9" transform="translate(322.781499 164.197031) scale(0.08 -0.08)">
       <defs>
        <path id="DejaVuSans-38" d="M 2034 2216 
Q 1584 2216 1326 1975 
Q 1069 1734 1069 1313 
Q 1069 891 1326 650 
Q 1584 409 2034 409 
Q 2484 409 2743 651 
Q 3003 894 3003 1313 
Q 3003 1734 2745 1975 
Q 2488 2216 2034 2216 
z
M 1403 2484 
Q 997 2584 770 2862 
Q 544 3141 544 3541 
Q 544 4100 942 4425 
Q 1341 4750 2034 4750 
Q 2731 4750 3128 4425 
Q 3525 4100 3525 3541 
Q 3525 3141 3298 2862 
Q 3072 2584 2669 2484 
Q 3125 2378 3379 2068 
Q 3634 1759 3634 1313 
Q 3634 634 3220 271 
Q 2806 -91 2034 -91 
Q 1263 -91 848 271 
Q 434 634 434 1313 
Q 434 1759 690 2068 
Q 947 2378 1403 2484 
z
M 1172 3481 
Q 1172 3119 1398 2916 
Q 1625 2713 2034 2713 
Q 2441 2713 2670 2916 
Q 2900 3119 2900 3481 
Q 2900 3844 2670 4047 
Q 2441 4250 2034 4250 
Q 1625 4250 1398 4047 
Q 1172 3844 1172 3481 
z
" transform="scale(0.015625)"/>
       </defs>
       <use xlink:href="#DejaVuSans-38"/>
       <use xlink:href="#DejaVuSans-30" transform="translate(63.623047 0)"/>
      </g>
     </g>
    </g>
    <g id="xtick_6">
     <g id="line2d_11">
      <path d="M 396.845396 151.118281 
L 396.845396 21.558281 
" clip-path="url(#p9fd8929ed2)" style="fill: none; stroke: #21262d; stroke-opacity: 0.5; stroke-width: 0.5; stroke-linecap: square"/>
     </g>
     <g id="line2d_12">
      <g>
       <use xlink:href="#m0e9a3ac0da" x="396.845396" y="151.118281" style="fill: #c9d1d9; stroke: #c9d1d9; stroke-width: 0.8"/>
      </g>
     </g>
     <g id="text_6">
      <!-- 100 -->
      <g style="fill: #c9d1d9" transform="translate(389.210396 164.197031) scale(0.08 -0.08)">
       <defs>
        <path id="DejaVuSans-31" d="M 794 531 
L 1825 531 
L 1825 4091 
L 703 3866 
L 703 4441 
L 1819 4666 
L 2450 4666 
L 2450 531 
L 3481 531 
L 3481 0 
L 794 0 
L 794 531 
z
" transform="scale(0.015625)"/>
       </defs>
       <use xlink:href="#DejaVuSans-31"/>
       <use xlink:href="#DejaVuSans-30" transform="translate(63.623047 0)"/>
       <use xlink:href="#DejaVuSans-30" transform="translate(127.246094 0)"/>
      </g>
     </g>
    </g>
   </g>
   <g id="matplotlib.axis_2">
    <g id="ytick_1">
     <g id="line2d_13">
      <path d="M 34.56 145.22919 
L 417.71 145.22919 
" clip-path="url(#p9fd8929ed2)" style="fill: none; stroke: #21262d; stroke-opacity: 0.5; stroke-width: 0.5; stroke-linecap: square"/>
     </g>
     <g id="line2d_14">
      <defs>
       <path id="mab6a13fb0e" d="M 0 0 
L -3.5 0 
" style="stroke: #c9d1d9; stroke-width: 0.8"/>
      </defs>
      <g>
       <use xlink:href="#mab6a13fb0e" x="34.56" y="145.22919" style="fill: #c9d1d9; stroke: #c9d1d9; stroke-width: 0.8"/>
      </g>
     </g>
     <g id="text_7">
      <!-- $0 -->
      <g style="fill: #c9d1d9" transform="translate(17.38 148.268565) scale(0.08 -0.08)">
       <defs>
        <path id="DejaVuSans-24" d="M 2163 -941 
L 1850 -941 
L 1847 0 
Q 1519 6 1191 76 
Q 863 147 531 288 
L 531 850 
Q 850 650 1176 548 
Q 1503 447 1850 444 
L 1850 1869 
Q 1159 1981 845 2250 
Q 531 2519 531 2988 
Q 531 3497 872 3790 
Q 1213 4084 1850 4128 
L 1850 4863 
L 2163 4863 
L 2163 4138 
Q 2453 4125 2725 4076 
Q 2997 4028 3256 3944 
L 3256 3397 
Q 2997 3528 2723 3600 
Q 2450 3672 2163 3684 
L 2163 2350 
Q 2872 2241 3206 1959 
Q 3541 1678 3541 1191 
Q 3541 663 3186 358 
Q 2831 53 2163 6 
L 2163 -941 
z
M 1850 2406 
L 1850 3688 
Q 1488 3647 1297 3481 
Q 1106 3316 1106 3041 
Q 1106 2772 1282 2622 
Q 1459 2472 1850 2406 
z
M 2163 1806 
L 2163 453 
Q 2559 506 2761 678 
Q 2963 850 2963 1131 
Q 2963 1406 2770 1568 
Q 2578 1731 2163 1806 
z
" transform="scale(0.015625)"/>
       </defs>
       <use xlink:href="#DejaVuSans-24"/>
       <use xlink:href="#DejaVuSans-30" transform="translate(63.623047 0)"/>
      </g>
     </g>
    </g>
    <g id="ytick_2">
     <g id="line2d_15">
      <path d="M 34.56 124.094825 
L 417.71 124.094825 
" clip-path="url(#p9fd8929ed2)" style="fill: none; stroke: #21262d; stroke-opacity: 0.5; stroke-width: 0.5; stroke-linecap: square"/>
     </g>
     <g id="line2d_16">
      <g>
       <use xlink:href="#mab6a13fb0e" x="34.56" y="124.094825" style="fill: #c9d1d9; stroke: #c9d1d9; stroke-width: 0.8"/>
      </g>
     </g>
     <g id="text_8">
      <!-- $100 -->
      <g style="fill: #c9d1d9" transform="translate(7.2 127.1342) scale(0.08 -0.08)">
       <use xlink:href="#DejaVuSans-24"/>
       <use xlink:href="#DejaVuSans-31" transform="translate(63.623047 0)"/>
       <use xlink:href="#DejaVuSans-30" transform="translate(127.246094 0)"/>
       <use xlink:href="#DejaVuSans-30" transform="translate(190.869141 0)"/>
      </g>
     </g>
    </g>
    <g id="ytick_3">
     <g id="line2d_17">
      <path d="M 34.56 102.96046 
L 417.71 102.96046 
" clip-path="url(#p9fd8929ed2)" style="fill: none; stroke: #21262d; stroke-opacity: 0.5; stroke-width: 0.5; stroke-linecap: square"/>
     </g>
     <g id="line2d_18">
      <g>
       <use xlink:href="#mab6a13fb0e" x="34.56" y="102.96046" style="fill: #c9d1d9; stroke: #c9d1d9; stroke-width: 0.8"/>
      </g>
     </g>
     <g id="text_9">
      <!-- $200 -->
      <g style="fill: #c9d1d9" transform="translate(7.2 105.999835) scale(0.08 -0.08)">
       <use xlink:href="#DejaVuSans-24"/>
       <use xlink:href="#DejaVuSans-32" transform="translate(63.623047 0)"/>
       <use xlink:href="#DejaVuSans-30" transform="translate(127.246094 0)"/>
       <use xlink:href="#DejaVuSans-30" transform="translate(190.869141 0)"/>
      </g>
     </g>
    </g>
    <g id="ytick_4">
     <g id="line2d_19">
      <path d="M 34.56 81.826094 
L 417.71 81.826094 
" clip-path="url(#p9fd8929ed2)" style="fill: none; stroke: #21262d; stroke-opacity: 0.5; stroke-width: 0.5; stroke-linecap: square"/>
     </g>
     <g id="line2d_20">
      <g>
       <use xlink:href="#mab6a13fb0e" x="34.56" y="81.826094" style="fill: #c9d1d9; stroke: #c9d1d9; stroke-width: 0.8"/>
      </g>
     </g>
     <g id="text_10">
      <!-- $300 -->
      <g style="fill: #c9d1d9" transform="translate(7.2 84.865469) scale(0.08 -0.08)">
       <defs>
        <path id="DejaVuSans-33" d="M 2597 2516 
Q 3050 2419 3304 2112 
Q 3559 1806 3559 1356 
Q 3559 666 3084 287 
Q 2609 -91 1734 -91 
Q 1441 -91 1130 -33 
Q 819 25 488 141 
L 488 750 
Q 750 597 1062 519 
Q 1375 441 1716 441 
Q 2309 441 2620 675 
Q 2931 909 2931 1356 
Q 2931 1769 2642 2001 
Q 2353 2234 1838 2234 
L 1294 2234 
L 1294 2753 
L 1863 2753 
Q 2328 2753 2575 2939 
Q 2822 3125 2822 3475 
Q 2822 3834 2567 4026 
Q 2313 4219 1838 4219 
Q 1578 4219 1281 4162 
Q 984 4106 628 3988 
L 628 4550 
Q 988 4650 1302 4700 
Q 1616 4750 1894 4750 
Q 2613 4750 3031 4423 
Q 3450 4097 3450 3541 
Q 3450 3153 3228 2886 
Q 3006 2619 2597 2516 
z
" transform="scale(0.015625)"/>
       </defs>
       <use xlink:href="#DejaVuSans-24"/>
       <use xlink:href="#DejaVuSans-33" transform="translate(63.623047 0)"/>
       <use xlink:href="#DejaVuSans-30" transform="translate(127.246094 0)"/>
       <use xlink:href="#DejaVuSans-30" transform="translate(190.869141 0)"/>
      </g>
     </g>
    </g>
    <g id="ytick_5">
     <g id="line2d_21">
      <path d="M 34.56 60.691729 
L 417.71 60.691729 
" clip-path="url(#p9fd8929ed2)" style="fill: none; stroke: #21262d; stroke-opacity: 0.5; stroke-width: 0.5; stroke-linecap: square"/>
     </g>
     <g id="line2d_22">
      <g>
       <use xlink:href="#mab6a13fb0e" x="34.56" y="60.691729" style="fill: #c9d1d9; stroke: #c9d1d9; stroke-width: 0.8"/>
      </g>
     </g>
     <g id="text_11">
      <!-- $400 -->
      <g style="fill: #c9d1d9" transform="translate(7.2 63.731104) scale(0.08 -0.08)">
       <use xlink:href="#DejaVuSans-24"/>
       <use xlink:href="#DejaVuSans-34" transform="translate(63.623047 0)"/>
       <use xlink:href="#DejaVuSans-30" transform="translate(127.246094 0)"/>
       <use xlink:href="#DejaVuSans-30" transform="translate(190.869141 0)"/>
      </g>
     </g>
    </g>
    <g id="ytick_6">
     <g id="line2d_23">
      <path d="M 34.56 39.557364 
L 417.71 39.557364 
" clip-path="url(#p9fd8929ed2)" style="fill: none; stroke: #21262d; stroke-opacity: 0.5; stroke-width: 0.5; stroke-linecap: square"/>
     </g>
     <g id="line2d_24">
      <g>
       <use xlink:href="#mab6a13fb0e" x="34.56" y="39.557364" style="fill: #c9d1d9; stroke: #c9d1d9; stroke-width: 0.8"/>
      </g>
     </g>
     <g id="text_12">
      <!-- $500 -->
      <g style="fill: #c9d1d9" transform="translate(7.2 42.596739) scale(0.08 -0.08)">
       <defs>
        <path id="DejaVuSans-35" d="M 691 4666 
L 3169 4666 
L 3169 4134 
L 1269 4134 
L 1269 2991 
Q 1406 3038 1543 3061 
Q 1681 3084 1819 3084 
Q 2600 3084 3056 2656 
Q 3513 2228 3513 1497 
Q 3513 744 3044 326 
Q 2575 -91 1722 -91 
Q 1428 -91 1123 -41 
Q 819 9 494 109 
L 494 744 
Q 775 591 1075 516 
Q 1375 441 1709 441 
Q 2250 441 2565 725 
Q 2881 1009 2881 1497 
Q 2881 1984 2565 2268 
Q 2250 2553 1709 2553 
Q 1456 2553 1204 2497 
Q 953 2441 691 2322 
L 691 4666 
z
" transform="scale(0.015625)"/>
       </defs>
       <use xlink:href="#DejaVuSans-24"/>
       <use xlink:href="#DejaVuSans-35" transform="translate(63.623047 0)"/>
       <use xlink:href="#DejaVuSans-30" transform="translate(127.246094 0)"/>
       <use xlink:href="#DejaVuSans-30" transform="translate(190.869141 0)"/>
      </g>
     </g>
    </g>
   </g>
   <g id="line2d_25">
    <path d="M 51.975909 64.107042 
L 55.424604 62.130979 
L 58.873299 60.351466 
L 62.321994 63.079912 
L 65.770689 61.625868 
L 69.219383 79.349147 
L 72.668078 87.845162 
L 76.116773 75.502692 
L 79.565468 56.456402 
L 83.014163 70.633334 
L 86.462858 57.680082 
L 89.911553 64.250756 
L 93.360248 60.057698 
L 96.808942 71.275819 
L 100.257637 55.110143 
L 103.706332 61.25813 
L 107.155027 54.687456 
L 110.603722 55.66175 
L 114.052417 54.725498 
L 117.501112 57.354613 
L 120.949806 54.271109 
L 124.398501 57.625132 
L 127.847196 58.079521 
L 131.295891 55.401797 
L 134.744586 58.593086 
L 138.193281 57.187651 
L 141.641976 75.380113 
L 145.090671 56.940379 
L 148.539365 82.136769 
L 151.98806 55.993559 
L 155.436755 73.13987 
L 158.88545 54.653641 
L 162.334145 58.432465 
L 165.78284 60.495179 
L 169.231535 63.071458 
L 172.68023 65.696347 
L 176.128924 87.619024 
L 179.577619 89.44292 
L 183.026314 87.452062 
L 186.475009 89.159719 
L 189.923704 87.485877 
L 193.372399 54.131622 
L 196.821094 58.916442 
L 200.269788 56.143613 
L 203.718483 69.897858 
L 207.167178 89.622562 
L 210.615873 84.233298 
L 214.064568 68.095097 
L 217.513263 70.031005 
L 220.961958 53.738523 
L 224.410653 69.003875 
L 227.859347 55.26231 
L 231.308042 58.035139 
L 234.756737 71.814745 
L 238.205432 51.705397 
L 241.654127 57.880858 
L 245.102822 56.96574 
L 248.551517 54.757199 
L 252.000212 50.988942 
L 255.448906 52.415511 
L 258.897601 51.918854 
L 262.346296 52.523297 
L 265.794991 51.316524 
L 269.243686 32.054664 
L 272.692381 40.204075 
L 276.141076 63.923173 
L 279.58977 58.155605 
L 283.038465 52.468347 
L 286.48716 67.167298 
L 289.935855 58.407104 
L 293.38455 61.108076 
L 296.833245 60.685389 
L 300.28194 62.986921 
L 303.730635 60.351466 
L 307.179329 65.197576 
L 310.628024 66.372646 
L 314.076719 88.477079 
L 317.525414 64.035185 
L 320.974109 75.847182 
L 324.422804 55.401797 
L 327.871499 73.27513 
L 331.320194 71.039114 
L 334.768888 56.329596 
L 338.217583 77.146946 
L 341.666278 51.635653 
L 345.114973 58.755821 
L 348.563668 54.900913 
L 352.012363 55.680771 
L 355.461058 57.481419 
L 358.909752 51.823749 
L 362.358447 56.900224 
L 365.807142 27.447372 
L 369.255837 59.998522 
L 372.704532 54.752972 
L 376.153227 58.191533 
L 379.601922 58.145038 
L 383.050617 54.748745 
L 386.499311 58.690304 
L 389.948006 56.743829 
L 393.396701 58.692418 
L 396.845396 86.173433 
L 400.294091 72.613624 
" clip-path="url(#p9fd8929ed2)" style="fill: none; stroke: #f85149; stroke-width: 2; stroke-linecap: square"/>
   </g>
   <g id="patch_3">
    <path d="M 34.56 151.118281 
L 34.56 21.558281 
" style="fill: none; stroke: #21262d; stroke-width: 0.8; stroke-linejoin: miter; stroke-linecap: square"/>
   </g>
   <g id="patch_4">
    <path d="M 34.56 151.118281 
L 417.71 151.118281 
" style="fill: none; stroke: #21262d; stroke-width: 0.8; stroke-linejoin: miter; stroke-linecap: square"/>
   </g>
   <g id="text_13">
    <!-- SVELTE (sveltejs/svelte) — $343.59 (+22.96%) -->
    <g style="fill: #c9d1d9" transform="translate(83.438359 15.558281) scale(0.11 -0.11)">
     <defs>
      <path id="DejaVuSans-Bold-53" d="M 3834 4519 
L 3834 3531 
Q 3450 3703 3084 3790 
Q 2719 3878 2394 3878 
Q 1963 3878 1756 3759 
Q 1550 3641 1550 3391 
Q 1550 3203 1689 3098 
Q 1828 2994 2194 2919 
L 2706 2816 
Q 3484 2659 3812 2340 
Q 4141 2022 4141 1434 
Q 4141 663 3683 286 
Q 3225 -91 2284 -91 
Q 1841 -91 1394 -6 
Q 947 78 500 244 
L 500 1259 
Q 947 1022 1364 901 
Q 1781 781 2169 781 
Q 2563 781 2772 912 
Q 2981 1044 2981 1288 
Q 2981 1506 2839 1625 
Q 2697 1744 2272 1838 
L 1806 1941 
Q 1106 2091 782 2419 
Q 459 2747 459 3303 
Q 459 4000 909 4375 
Q 1359 4750 2203 4750 
Q 2588 4750 2994 4692 
Q 3400 4634 3834 4519 
z
" transform="scale(0.015625)"/>
      <path id="DejaVuSans-Bold-56" d="M 31 4666 
L 1241 4666 
L 2478 1222 
L 3713 4666 
L 4922 4666 
L 3194 0 
L 1759 0 
L 31 4666 
z
" transform="scale(0.015625)"/>
      <path id="DejaVuSans-Bold-45" d="M 588 4666 
L 3834 4666 
L 3834 3756 
L 1791 3756 
L 1791 2888 
L 3713 2888 
L 3713 1978 
L 1791 1978 
L 1791 909 
L 3903 909 
L 3903 0 
L 588 0 
L 588 4666 
z
" transform="scale(0.015625)"/>
      <path id="DejaVuSans-Bold-4c" d="M 588 4666 
L 1791 4666 
L 1791 909 
L 3903 909 
L 3903 0 
L 588 0 
L 588 4666 
z
" transform="scale(0.015625)"/>
      <path id="DejaVuSans-Bold-54" d="M 31 4666 
L 4331 4666 
L 4331 3756 
L 2784 3756 
L 2784 0 
L 1581 0 
L 1581 3756 
L 31 3756 
L 31 4666 
z
" transform="scale(0.015625)"/>
      <path id="DejaVuSans-Bold-20" transform="scale(0.015625)"/>
      <path id="DejaVuSans-Bold-28" d="M 2413 -844 
L 1484 -844 
Q 1006 -72 778 623 
Q 550 1319 550 2003 
Q 550 2688 779 3389 
Q 1009 4091 1484 4856 
L 2413 4856 
Q 2013 4116 1813 3408 
Q 1613 2700 1613 2009 
Q 1613 1319 1811 609 
Q 2009 -100 2413 -844 
z
" transform="scale(0.015625)"/>
      <path id="DejaVuSans-Bold-73" d="M 3272 3391 
L 3272 2541 
Q 2913 2691 2578 2766 
Q 2244 2841 1947 2841 
Q 1628 2841 1473 2761 
Q 1319 2681 1319 2516 
Q 1319 2381 1436 2309 
Q 1553 2238 1856 2203 
L 2053 2175 
Q 2913 2066 3209 1816 
Q 3506 1566 3506 1031 
Q 3506 472 3093 190 
Q 2681 -91 1863 -91 
Q 1516 -91 1145 -36 
Q 775 19 384 128 
L 384 978 
Q 719 816 1070 734 
Q 1422 653 1784 653 
Q 2113 653 2278 743 
Q 2444 834 2444 1013 
Q 2444 1163 2330 1236 
Q 2216 1309 1875 1350 
L 1678 1375 
Q 931 1469 631 1722 
Q 331 1975 331 2491 
Q 331 3047 712 3315 
Q 1094 3584 1881 3584 
Q 2191 3584 2531 3537 
Q 2872 3491 3272 3391 
z
" transform="scale(0.015625)"/>
      <path id="DejaVuSans-Bold-76" d="M 97 3500 
L 1216 3500 
L 2088 1081 
L 2956 3500 
L 4078 3500 
L 2700 0 
L 1472 0 
L 97 3500 
z
" transform="scale(0.015625)"/>
      <path id="DejaVuSans-Bold-65" d="M 4031 1759 
L 4031 1441 
L 1416 1441 
Q 1456 1047 1700 850 
Q 1944 653 2381 653 
Q 2734 653 3104 758 
Q 3475 863 3866 1075 
L 3866 213 
Q 3469 63 3072 -14 
Q 2675 -91 2278 -91 
Q 1328 -91 801 392 
Q 275 875 275 1747 
Q 275 2603 792 3093 
Q 1309 3584 2216 3584 
Q 3041 3584 3536 3087 
Q 4031 2591 4031 1759 
z
M 2881 2131 
Q 2881 2450 2695 2645 
Q 2509 2841 2209 2841 
Q 1884 2841 1681 2658 
Q 1478 2475 1428 2131 
L 2881 2131 
z
" transform="scale(0.015625)"/>
      <path id="DejaVuSans-Bold-6c" d="M 538 4863 
L 1656 4863 
L 1656 0 
L 538 0 
L 538 4863 
z
" transform="scale(0.015625)"/>
      <path id="DejaVuSans-Bold-74" d="M 1759 4494 
L 1759 3500 
L 2913 3500 
L 2913 2700 
L 1759 2700 
L 1759 1216 
Q 1759 972 1856 886 
Q 1953 800 2241 800 
L 2816 800 
L 2816 0 
L 1856 0 
Q 1194 0 917 276 
Q 641 553 641 1216 
L 641 2700 
L 84 2700 
L 84 3500 
L 641 3500 
L 641 4494 
L 1759 4494 
z
" transform="scale(0.015625)"/>
      <path id="DejaVuSans-Bold-6a" d="M 538 3500 
L 1656 3500 
L 1656 63 
Q 1656 -641 1318 -1011 
Q 981 -1381 341 -1381 
L -213 -1381 
L -213 -647 
L -19 -647 
Q 300 -647 419 -503 
Q 538 -359 538 63 
L 538 3500 
z
M 538 4863 
L 1656 4863 
L 1656 3950 
L 538 3950 
L 538 4863 
z
" transform="scale(0.015625)"/>
      <path id="DejaVuSans-Bold-2f" d="M 1644 4666 
L 2338 4666 
L 691 -594 
L 0 -594 
L 1644 4666 
z
" transform="scale(0.015625)"/>
      <path id="DejaVuSans-Bold-29" d="M 513 -844 
Q 913 -100 1113 609 
Q 1313 1319 1313 2009 
Q 1313 2700 1113 3408 
Q 913 4116 513 4856 
L 1441 4856 
Q 1916 4091 2145 3389 
Q 2375 2688 2375 2003 
Q 2375 1319 2147 623 
Q 1919 -72 1441 -844 
L 513 -844 
z
" transform="scale(0.015625)"/>
      <path id="DejaVuSans-Bold-2014" d="M 344 2156 
L 6056 2156 
L 6056 1350 
L 344 1350 
L 344 2156 
z
" transform="scale(0.015625)"/>
      <path id="DejaVuSans-Bold-24" d="M 2484 -941 
L 1978 -941 
L 1975 0 
Q 1584 16 1218 87 
Q 853 159 506 288 
L 506 1106 
Q 866 922 1233 823 
Q 1600 725 1978 713 
L 1978 1684 
L 1875 1703 
Q 1128 1834 814 2115 
Q 500 2397 500 2925 
Q 500 3484 883 3798 
Q 1266 4113 1975 4141 
L 1978 4863 
L 2484 4863 
L 2484 4153 
Q 2797 4128 3109 4075 
Q 3422 4022 3738 3938 
L 3738 3144 
Q 3425 3275 3112 3348 
Q 2800 3422 2484 3438 
L 2484 2541 
L 2584 2522 
Q 3378 2397 3698 2105 
Q 4019 1813 4019 1241 
Q 4019 666 3637 358 
Q 3256 50 2484 6 
L 2484 -941 
z
M 1978 2613 
L 1978 3428 
Q 1756 3416 1623 3308 
Q 1491 3200 1491 3034 
Q 1491 2850 1612 2745 
Q 1734 2641 1978 2613 
z
M 2484 1594 
L 2484 725 
Q 2756 728 2892 831 
Q 3028 934 3028 1141 
Q 3028 1353 2903 1458 
Q 2778 1563 2484 1594 
z
" transform="scale(0.015625)"/>
      <path id="DejaVuSans-Bold-33" d="M 2981 2516 
Q 3453 2394 3698 2092 
Q 3944 1791 3944 1325 
Q 3944 631 3412 270 
Q 2881 -91 1863 -91 
Q 1503 -91 1142 -33 
Q 781 25 428 141 
L 428 1069 
Q 766 900 1098 814 
Q 1431 728 1753 728 
Q 2231 728 2486 893 
Q 2741 1059 2741 1369 
Q 2741 1688 2480 1852 
Q 2219 2016 1709 2016 
L 1228 2016 
L 1228 2791 
L 1734 2791 
Q 2188 2791 2409 2933 
Q 2631 3075 2631 3366 
Q 2631 3634 2415 3781 
Q 2200 3928 1806 3928 
Q 1516 3928 1219 3862 
Q 922 3797 628 3669 
L 628 4550 
Q 984 4650 1334 4700 
Q 1684 4750 2022 4750 
Q 2931 4750 3382 4451 
Q 3834 4153 3834 3553 
Q 3834 3144 3618 2883 
Q 3403 2622 2981 2516 
z
" transform="scale(0.015625)"/>
      <path id="DejaVuSans-Bold-34" d="M 2356 3675 
L 1038 1722 
L 2356 1722 
L 2356 3675 
z
M 2156 4666 
L 3494 4666 
L 3494 1722 
L 4159 1722 
L 4159 850 
L 3494 850 
L 3494 0 
L 2356 0 
L 2356 850 
L 288 850 
L 288 1881 
L 2156 4666 
z
" transform="scale(0.015625)"/>
      <path id="DejaVuSans-Bold-2e" d="M 653 1209 
L 1778 1209 
L 1778 0 
L 653 0 
L 653 1209 
z
" transform="scale(0.015625)"/>
      <path id="DejaVuSans-Bold-35" d="M 678 4666 
L 3669 4666 
L 3669 3781 
L 1638 3781 
L 1638 3059 
Q 1775 3097 1914 3117 
Q 2053 3138 2203 3138 
Q 3056 3138 3531 2711 
Q 4006 2284 4006 1522 
Q 4006 766 3489 337 
Q 2972 -91 2053 -91 
Q 1656 -91 1267 -14 
Q 878 63 494 219 
L 494 1166 
Q 875 947 1217 837 
Q 1559 728 1863 728 
Q 2300 728 2551 942 
Q 2803 1156 2803 1522 
Q 2803 1891 2551 2103 
Q 2300 2316 1863 2316 
Q 1603 2316 1309 2248 
Q 1016 2181 678 2041 
L 678 4666 
z
" transform="scale(0.015625)"/>
      <path id="DejaVuSans-Bold-39" d="M 641 103 
L 641 966 
Q 928 831 1190 764 
Q 1453 697 1709 697 
Q 2247 697 2547 995 
Q 2847 1294 2900 1881 
Q 2688 1725 2447 1647 
Q 2206 1569 1925 1569 
Q 1209 1569 770 1986 
Q 331 2403 331 3084 
Q 331 3838 820 4291 
Q 1309 4744 2131 4744 
Q 3044 4744 3544 4128 
Q 4044 3513 4044 2388 
Q 4044 1231 3459 570 
Q 2875 -91 1856 -91 
Q 1528 -91 1228 -42 
Q 928 6 641 103 
z
M 2125 2350 
Q 2441 2350 2600 2554 
Q 2759 2759 2759 3169 
Q 2759 3575 2600 3781 
Q 2441 3988 2125 3988 
Q 1809 3988 1650 3781 
Q 1491 3575 1491 3169 
Q 1491 2759 1650 2554 
Q 1809 2350 2125 2350 
z
" transform="scale(0.015625)"/>
      <path id="DejaVuSans-Bold-2b" d="M 3053 4013 
L 3053 2375 
L 4684 2375 
L 4684 1638 
L 3053 1638 
L 3053 0 
L 2309 0 
L 2309 1638 
L 678 1638 
L 678 2375 
L 2309 2375 
L 2309 4013 
L 3053 4013 
z
" transform="scale(0.015625)"/>
      <path id="DejaVuSans-Bold-32" d="M 1844 884 
L 3897 884 
L 3897 0 
L 506 0 
L 506 884 
L 2209 2388 
Q 2438 2594 2547 2791 
Q 2656 2988 2656 3200 
Q 2656 3528 2436 3728 
Q 2216 3928 1850 3928 
Q 1569 3928 1234 3808 
Q 900 3688 519 3450 
L 519 4475 
Q 925 4609 1322 4679 
Q 1719 4750 2100 4750 
Q 2938 4750 3402 4381 
Q 3866 4013 3866 3353 
Q 3866 2972 3669 2642 
Q 3472 2313 2841 1759 
L 1844 884 
z
" transform="scale(0.015625)"/>
      <path id="DejaVuSans-Bold-36" d="M 2316 2303 
Q 2000 2303 1842 2098 
Q 1684 1894 1684 1484 
Q 1684 1075 1842 870 
Q 2000 666 2316 666 
Q 2634 666 2792 870 
Q 2950 1075 2950 1484 
Q 2950 1894 2792 2098 
Q 2634 2303 2316 2303 
z
M 3803 4544 
L 3803 3681 
Q 3506 3822 3243 3889 
Q 2981 3956 2731 3956 
Q 2194 3956 1894 3657 
Q 1594 3359 1544 2772 
Q 1750 2925 1990 3001 
Q 2231 3078 2516 3078 
Q 3231 3078 3670 2659 
Q 4109 2241 4109 1563 
Q 4109 813 3618 361 
Q 3128 -91 2303 -91 
Q 1394 -91 895 523 
Q 397 1138 397 2266 
Q 397 3422 980 4083 
Q 1563 4744 2578 4744 
Q 2900 4744 3203 4694 
Q 3506 4644 3803 4544 
z
" transform="scale(0.015625)"/>
      <path id="DejaVuSans-Bold-25" d="M 4959 1925 
Q 4738 1925 4616 1733 
Q 4494 1541 4494 1184 
Q 4494 825 4614 633 
Q 4734 441 4959 441 
Q 5184 441 5303 633 
Q 5422 825 5422 1184 
Q 5422 1541 5301 1733 
Q 5181 1925 4959 1925 
z
M 4959 2450 
Q 5541 2450 5875 2112 
Q 6209 1775 6209 1184 
Q 6209 594 5875 251 
Q 5541 -91 4959 -91 
Q 4378 -91 4042 251 
Q 3706 594 3706 1184 
Q 3706 1772 4042 2111 
Q 4378 2450 4959 2450 
z
M 2094 -91 
L 1403 -91 
L 4319 4750 
L 5013 4750 
L 2094 -91 
z
M 1453 4750 
Q 2034 4750 2367 4411 
Q 2700 4072 2700 3481 
Q 2700 2891 2367 2550 
Q 2034 2209 1453 2209 
Q 872 2209 539 2550 
Q 206 2891 206 3481 
Q 206 4072 539 4411 
Q 872 4750 1453 4750 
z
M 1453 4225 
Q 1228 4225 1106 4031 
Q 984 3838 984 3481 
Q 984 3122 1106 2926 
Q 1228 2731 1453 2731 
Q 1678 2731 1798 2926 
Q 1919 3122 1919 3481 
Q 1919 3838 1797 4031 
Q 1675 4225 1453 4225 
z
" transform="scale(0.015625)"/>
     </defs>
     <use xlink:href="#DejaVuSans-Bold-53"/>
     <use xlink:href="#DejaVuSans-Bold-56" transform="translate(72.021484 0)"/>
     <use xlink:href="#DejaVuSans-Bold-45" transform="translate(149.414062 0)"/>
     <use xlink:href="#DejaVuSans-Bold-4c" transform="translate(217.724609 0)"/>
     <use xlink:href="#DejaVuSans-Bold-54" transform="translate(264.945312 0)"/>
     <use xlink:href="#DejaVuSans-Bold-45" transform="translate(333.158203 0)"/>
     <use xlink:href="#DejaVuSans-Bold-20" transform="translate(401.46875 0)"/>
     <use xlink:href="#DejaVuSans-Bold-28" transform="translate(436.283203 0)"/>
     <use xlink:href="#DejaVuSans-Bold-73" transform="translate(481.986328 0)"/>
     <use xlink:href="#DejaVuSans-Bold-76" transform="translate(541.507812 0)"/>
     <use xlink:href="#DejaVuSans-Bold-65" transform="translate(606.693359 0)"/>
     <use xlink:href="#DejaVuSans-Bold-6c" transform="translate(674.515625 0)"/>
     <use xlink:href="#DejaVuSans-Bold-74" transform="translate(708.792969 0)"/>
     <use xlink:href="#DejaVuSans-Bold-65" transform="translate(756.595703 0)"/>
     <use xlink:href="#DejaVuSans-Bold-6a" transform="translate(824.417969 0)"/>
     <use xlink:href="#DejaVuSans-Bold-73" transform="translate(858.695312 0)"/>
     <use xlink:href="#DejaVuSans-Bold-2f" transform="translate(918.216797 0)"/>
     <use xlink:href="#DejaVuSans-Bold-73" transform="translate(954.740234 0)"/>
     <use xlink:href="#DejaVuSans-Bold-76" transform="translate(1014.261719 0)"/>
     <use xlink:href="#DejaVuSans-Bold-65" transform="translate(1079.447266 0)"/>
     <use xlink:href="#DejaVuSans-Bold-6c" transform="translate(1147.269531 0)"/>
     <use xlink:href="#DejaVuSans-Bold-74" transform="translate(1181.546875 0)"/>
     <use xlink:href="#DejaVuSans-Bold-65" transform="translate(1229.349609 0)"/>
     <use xlink:href="#DejaVuSans-Bold-29" transform="translate(1297.171875 0)"/>
     <use xlink:href="#DejaVuSans-Bold-20" transform="translate(1342.875 0)"/>
     <use xlink:href="#DejaVuSans-Bold-2014" transform="translate(1377.689453 0)"/>
     <use xlink:href="#DejaVuSans-Bold-20" transform="translate(1477.689453 0)"/>
     <use xlink:href="#DejaVuSans-Bold-24" transform="translate(1512.503906 0)"/>
     <use xlink:href="#DejaVuSans-Bold-33" transform="translate(1582.083984 0)"/>
     <use xlink:href="#DejaVuSans-Bold-34" transform="translate(1651.664062 0)"/>
     <use xlink:href="#DejaVuSans-Bold-33" transform="translate(1721.244141 0)"/>
     <use xlink:href="#DejaVuSans-Bold-2e" transform="translate(1790.824219 0)"/>
     <use xlink:href="#DejaVuSans-Bold-35" transform="translate(1828.8125 0)"/>
     <use xlink:href="#DejaVuSans-Bold-39" transform="translate(1898.392578 0)"/>
     <use xlink:href="#DejaVuSans-Bold-20" transform="translate(1967.972656 0)"/>
     <use xlink:href="#DejaVuSans-Bold-28" transform="translate(2002.787109 0)"/>
     <use xlink:href="#DejaVuSans-Bold-2b" transform="translate(2048.490234 0)"/>
     <use xlink:href="#DejaVuSans-Bold-32" transform="translate(2132.279297 0)"/>
     <use xlink:href="#DejaVuSans-Bold-32" transform="translate(2201.859375 0)"/>
     <use xlink:href="#DejaVuSans-Bold-2e" transform="translate(2271.439453 0)"/>
     <use xlink:href="#DejaVuSans-Bold-39" transform="translate(2309.427734 0)"/>
     <use xlink:href="#DejaVuSans-Bold-36" transform="translate(2379.007812 0)"/>
     <use xlink:href="#DejaVuSans-Bold-25" transform="translate(2448.587891 0)"/>
     <use xlink:href="#DejaVuSans-Bold-29" transform="translate(2548.783203 0)"/>
    </g>
   </g>
  </g>
 </g>
 <defs>
  <clipPath id="p9fd8929ed2">
   <rect x="34.56" y="21.558281" width="383.15" height="129.56"/>
  </clipPath>
 </defs>
</svg>
